<?xml version="1.0" encoding="utf-8"?>
<!-- Generator: Adobe Illustrator 26.3.1, SVG Export Plug-In . SVG Version: 6.00 Build 0)  -->
<svg version="1.1" xmlns="http://www.w3.org/2000/svg" xmlns:xlink="http://www.w3.org/1999/xlink" x="0px" y="0px"
	 viewBox="0 0 19 11.8904" style="enable-background:new 0 0 19 11.8904;" xml:space="preserve">
<g id="Layer_1">
	<circle style="fill:#FFFFFF;" cx="4.953" cy="10.3904" r="1.5"/>
	<circle style="fill:#FFFFFF;" cx="15.5644" cy="10.3904" r="1.5"/>
	<g>
		<path style="fill:#FFFFFF;" d="M4.3355,2.5522c-0.5249,0-0.8657,0.6689-0.8657,1.7383C3.4566,5.3999,3.7979,6.0688,4.3292,6.0688
			h0.0063c0.584,0,0.8662-0.6885,0.8662-1.7783C5.2017,3.2407,4.9395,2.5522,4.3355,2.5522z"/>
		<path style="fill:#FFFFFF;" d="M18.7152,6.001l-2.8818-3.6136c-0.3189-0.3297-0.7524-0.5151-1.2048-0.5151h-1.1788v-1.025
			C13.4497,0.3794,13.0803,0,12.6248,0H0.8249C0.3692,0,0,0.3794,0,0.8473v8.7454c0,0.468,0.3691,0.8474,0.8249,0.8474h2.1155
			c-0.0004-0.017-0.005-0.0327-0.005-0.0497c0-1.1038,0.8948-1.9987,1.9986-1.9987s1.9986,0.8948,1.9986,1.9987
			c0,0.017-0.0046,0.0328-0.005,0.0497h6.6304c-0.0004-0.017-0.005-0.0327-0.005-0.0497c0-1.1038,0.8948-1.9987,1.9986-1.9987
			c1.1038,0,1.9987,0.8948,1.9987,1.9987c0,0.017-0.0046,0.0328-0.005,0.0497H19v-3.461C19,6.6127,18.9665,6.2611,18.7152,6.001z
			 M4.3097,6.5151H4.3028c-0.833,0-1.4038-0.7812-1.417-2.1914c0-1.4375,0.623-2.2178,1.4893-2.2178
			c0.8926,0,1.4106,0.8008,1.4106,2.1582C5.7857,5.7143,5.2413,6.5151,4.3097,6.5151z M9.6856,6.5151
			c-0.5317,0-1.0107-0.2031-1.332-0.5908C8.1041,5.6557,7.94,5.2749,7.8809,4.8022H7.4742V4.4741h0.3677c0-0.0322,0-0.0654,0-0.0977
			c0-0.0986,0.0063-0.1973,0.0132-0.2891H7.4679V3.7593h0.4395c0.0791-0.459,0.269-0.8398,0.5381-1.1084
			c0.3281-0.3486,0.7612-0.5449,1.2925-0.5449c0.394,0,0.6958,0.1113,0.8794,0.21l-0.1313,0.4326
			c-0.1704-0.0977-0.4395-0.1836-0.7349-0.1836c-0.354,0-0.6494,0.125-0.8726,0.3545C8.6881,3.1167,8.5504,3.4116,8.4913,3.7593
			h1.8306v0.3281H8.4322C8.419,4.1723,8.419,4.2641,8.419,4.3628c0,0.0391,0,0.0723,0,0.1113h1.9028v0.3281H8.4649
			c0.0527,0.3809,0.1772,0.6631,0.3613,0.8535c0.2427,0.2617,0.5708,0.3799,0.9248,0.3799c0.3477,0,0.6494-0.124,0.8008-0.2158
			l0.1113,0.4199C10.4596,6.3774,10.1119,6.5151,9.6856,6.5151z M13.4249,6.4429V3.2795h2.1395l2.5074,3.1635H13.4249z"/>
	</g>
</g>
<g id="Layer_2">
</g>
<g id="Layer_3">
</g>
<g id="Layer_4">
</g>
</svg>
