<?xml version="1.0" encoding="UTF-8"?>
<!-- Generator: Adobe Illustrator 27.0.0, SVG Export Plug-In . SVG Version: 6.00 Build 0)  -->
<svg version="1.1" id="Layer_1" xmlns="http://www.w3.org/2000/svg" xmlns:xlink="http://www.w3.org/1999/xlink" x="0px" y="0px" viewBox="0 0 765.9 765.9" style="enable-background:new 0 0 765.9 765.9;" xml:space="preserve">
<style type="text/css">
	.st0{fill:#444444;}
	.st1{fill-rule:evenodd;clip-rule:evenodd;fill:#444444;}
</style>
<g id="_507768952">
	<g>
		<path class="st0" d="M301.6,728.7c-3.6,0-7.2-1.4-9.9-4.1l-72.2-72.2c-2.6-2.6-4.1-6.2-4.1-9.9s1.5-7.3,4.1-9.9    c11.5-11.5,17.9-26.9,17.9-43.2c0-16.3-6.4-31.6-17.9-43.2c-11.5-11.5-26.8-17.9-43.1-17.9c-16.3,0-31.6,6.3-43.1,17.9    c-5.5,5.5-14.3,5.5-19.8,0l-72.2-72.2c-2.6-2.6-4.1-6.2-4.1-9.9s1.5-7.3,4.1-9.9L454.3,41.2c2.6-2.6,6.2-4.1,9.9-4.1    s7.3,1.5,9.9,4.1l72.2,72.2c5.5,5.5,5.5,14.3,0,19.8c-11.5,11.5-17.9,26.8-17.9,43.1c0,16.3,6.3,31.6,17.9,43.1    c11.5,11.5,26.9,17.9,43.2,17.9c16.3,0,31.6-6.4,43.2-17.9c2.6-2.6,6.2-4.1,9.9-4.1s7.3,1.5,9.9,4.1l72.2,72.2    c5.5,5.5,5.5,14.3,0,19.8L311.5,724.6C308.8,727.4,305.2,728.7,301.6,728.7z M248.4,641.8l53.2,53.2L695,301.6l-53.2-53.2    c-34.8,25.3-83.9,22.2-115.2-9.1c-31.3-31.3-34.4-80.4-9.1-115.2l-53.2-53.2L70.9,464.2l53.2,53.2c34.8-25.3,83.8-22.2,115.2,9.1    C270.6,557.9,273.6,607,248.4,641.8z"/>
	</g>
	<g>
		<g>
			<path class="st1" d="M245.3,449.5c-29.6-29.6-29.6-65.2-2.9-91.8c26.6-26.6,62.2-23.7,91.8,2.9c26.6,26.6,29.6,62.2,2.9,88.8     C307.4,479.1,271.9,476.2,245.3,449.5z M310.4,384.4c-17.8-17.7-35.5-17.7-50.3-5.9c-11.9,11.8-11.9,32.5,5.9,50.3     c14.8,14.8,35.5,17.8,47.4,5.9C328.1,419.9,325.2,399.2,310.4,384.4z M325.2,271.9l20.7-20.7l91.8,242.7L417,514.7L325.2,271.9z      M434.7,405.1c-29.6-29.6-29.6-65.1-2.9-91.8c26.6-23.7,62.2-23.7,91.8,5.9c26.6,26.6,29.6,62.2,2.9,88.8     S464.3,434.7,434.7,405.1z M499.8,340c-17.8-17.8-35.5-17.8-50.3-5.9c-11.9,11.8-11.9,32.6,5.9,50.3     c14.8,14.8,35.5,17.8,47.4,5.9C517.6,375.5,517.6,357.8,499.8,340z"/>
		</g>
	</g>
</g>
</svg>