<?xml version="1.0" encoding="utf-8"?>
<!-- Generator: Adobe Illustrator 26.0.1, SVG Export Plug-In . SVG Version: 6.00 Build 0)  -->
<svg version="1.1" xmlns="http://www.w3.org/2000/svg" xmlns:xlink="http://www.w3.org/1999/xlink" x="0px" y="0px"
	 viewBox="0 0 20 20" style="enable-background:new 0 0 20 20;" xml:space="preserve">
<g id="Layer_1">
	<g>
		<path style="fill:#FFFFFF;" d="M10,4.5c-3.0375,0-5.5,2.4624-5.5,5.5c0,3.0375,2.4625,5.5,5.5,5.5c3.0376,0,5.5-2.4625,5.5-5.5
			C15.5,6.9624,13.0376,4.5,10,4.5z M12.4038,12.2314c-0.1973,0.1748-0.4116,0.3164-0.6543,0.4336
			c-0.2446,0.1182-0.5029,0.208-0.7681,0.2676c-0.271,0.0615-0.5376,0.0928-0.792,0.0928c-0.374,0-0.7285-0.0605-1.0537-0.1807
			c-0.3271-0.1221-0.6211-0.2842-0.8745-0.4834c-0.2583-0.2012-0.4829-0.4385-0.667-0.7051
			c-0.1816-0.2646-0.3154-0.5342-0.4087-0.8223H6.1904c-0.0171,0-0.0332-0.0088-0.0425-0.0234
			c-0.0088-0.0146-0.0103-0.0322-0.0024-0.0479l0.2041-0.4277c0.0083-0.0176,0.0259-0.0283,0.0449-0.0283h0.6689
			C7.0498,10.1914,7.043,10.0742,7.043,9.9502V9.917H6.4136c-0.0171,0-0.0332-0.0088-0.0425-0.0234
			C6.3623,9.8789,6.3608,9.8613,6.3687,9.8457L6.5728,9.417c0.0083-0.0176,0.0254-0.0283,0.0449-0.0283h0.4805
			C7.1611,9.0859,7.2739,8.79,7.4346,8.5088c0.167-0.2949,0.3862-0.5576,0.6523-0.7832C8.3564,7.499,8.6641,7.3203,9.0273,7.1797
			c0.3569-0.1357,0.7637-0.2051,1.209-0.2051c0.5933,0,1.1113,0.1211,1.54,0.3613c0.4287,0.2422,0.751,0.5605,0.9575,0.9473
			c0.0127,0.0234,0.0044,0.0537-0.019,0.0664l-0.6602,0.3799c-0.0117,0.0078-0.0249,0.0107-0.0391,0.0049
			c-0.0127-0.0039-0.0239-0.0127-0.0303-0.0244c-0.0942-0.1816-0.2109-0.3359-0.3467-0.458
			c-0.1372-0.124-0.2871-0.2236-0.4438-0.2979c-0.1572-0.0742-0.3188-0.1279-0.4951-0.1621
			c-0.1646-0.0312-0.3335-0.0479-0.5015-0.0479c-0.2998,0-0.5737,0.0479-0.8149,0.1406c-0.2388,0.0947-0.4517,0.2217-0.6318,0.377
			c-0.1807,0.1553-0.3315,0.3369-0.4487,0.54C8.1958,8.9854,8.1143,9.1826,8.0591,9.3887h2.8647
			c0.0171,0,0.0332,0.0088,0.0425,0.0234c0.0088,0.0137,0.0103,0.0322,0.0029,0.0479l-0.2041,0.4287
			c-0.0078,0.0176-0.0254,0.0283-0.0449,0.0283H7.9878v0.0654c0,0.1113,0.0078,0.2207,0.0225,0.3242h2.5889
			c0.0171,0,0.0332,0.0088,0.0425,0.0234c0.0088,0.0146,0.0103,0.0322,0.0024,0.0479l-0.2056,0.4277
			c-0.0083,0.0176-0.0259,0.0283-0.0449,0.0283H8.1509c0.0771,0.1895,0.1733,0.3613,0.2925,0.5244
			c0.1294,0.1797,0.2886,0.3379,0.4727,0.4727c0.1831,0.1328,0.3867,0.2373,0.6055,0.3105c0.3662,0.127,0.7769,0.1514,1.23,0.0576
			c0.1812-0.0381,0.3486-0.0977,0.5127-0.1816s0.3145-0.1865,0.4595-0.3145c0.1401-0.125,0.2568-0.2773,0.3467-0.4521
			c0.0127-0.0234,0.042-0.0352,0.0664-0.0225l0.6963,0.3389c0.0244,0.0117,0.0352,0.042,0.0229,0.0664
			C12.7471,11.8604,12.5952,12.0615,12.4038,12.2314z"/>
		<g>
			<path style="fill:#FFFFFF;" d="M17.7031,5.5527C16.1172,2.8096,13.1655,1.1064,10,1.1064c-3.8579,0-7.2554,2.4619-8.4541,6.126
				C1.4599,7.4951,1.603,7.7773,1.8657,7.8633C1.917,7.8799,1.9697,7.8877,2.021,7.8877c0.2104,0,0.4062-0.1338,0.4751-0.3447
				C3.56,4.291,6.5757,2.1064,10,2.1064c2.8096,0,5.4297,1.5127,6.8379,3.9463c0.1377,0.2393,0.4419,0.3203,0.6831,0.1826
				C17.7597,6.0977,17.8418,5.791,17.7031,5.5527z"/>
			<path style="fill:#FFFFFF;" d="M2.9873,7.8428L1.5937,8.8193L1.0166,7.2178C0.9233,6.959,0.6347,6.8271,0.3769,6.917
				C0.1172,7.0107-0.0176,7.2979,0.0762,7.5576L0.875,9.7744c0.0527,0.1465,0.1709,0.2598,0.3193,0.3066
				c0.0493,0.0156,0.1001,0.0234,0.1509,0.0234c0.1016,0,0.2021-0.0312,0.2871-0.0908l1.9292-1.3525
				c0.2261-0.1582,0.2808-0.4697,0.1221-0.6963C3.5254,7.7393,3.2138,7.6836,2.9873,7.8428z"/>
		</g>
		<g>
			<path style="fill:#FFFFFF;" d="M18.1352,12.1367c-0.2656-0.084-0.5459,0.0576-0.6309,0.3203
				c-1.0645,3.252-4.0801,5.4365-7.5044,5.4365c-2.8096,0-5.4297-1.5127-6.8379-3.9463C3.0244,13.708,2.7178,13.625,2.479,13.7646
				c-0.2388,0.1377-0.3208,0.4443-0.1821,0.6826C3.8828,17.1904,6.8345,18.8936,10,18.8936c3.8579,0,7.2554-2.4619,8.4546-6.126
				C18.5405,12.5059,18.3974,12.2227,18.1352,12.1367z"/>
			<path style="fill:#FFFFFF;" d="M19.9238,12.4424l-0.7988-2.2168c-0.0527-0.1465-0.1709-0.2598-0.3193-0.3066
				c-0.1484-0.0479-0.311-0.0225-0.438,0.0674l-1.9292,1.3525c-0.2261,0.1582-0.2808,0.4697-0.1221,0.6963
				c0.1582,0.2256,0.4697,0.2822,0.6963,0.1221l1.3936-0.9766l0.5771,1.6016c0.0732,0.2031,0.2656,0.3301,0.4702,0.3301
				c0.0562,0,0.1138-0.0098,0.1694-0.0293C19.8828,12.9893,20.0176,12.7021,19.9238,12.4424z"/>
		</g>
	</g>
</g>
<g id="Layer_2">
</g>
<g id="Layer_3">
</g>
<g id="Layer_4">
</g>
</svg>
