<svg id="Layer_1" data-name="Layer 1" xmlns="http://www.w3.org/2000/svg" viewBox="0 0 20 20"><defs><style>.cls-1{fill:#444;}</style></defs><path class="cls-1" d="M10,4.5A5.5,5.5,0,1,0,15.5,10,5.5,5.5,0,0,0,10,4.5Zm2.40381,7.73145a2.82278,2.82278,0,0,1-.6543.43359,3.691,3.691,0,0,1-1.56006.36035,3.03117,3.03117,0,0,1-1.05371-.18066,3.24328,3.24328,0,0,1-.87451-.4834,3.19407,3.19407,0,0,1-.667-.70508,3.15367,3.15367,0,0,1-.40869-.82227H6.19043a.05037.05037,0,0,1-.04248-.02343.04914.04914,0,0,1-.00244-.04785l.2041-.42774a.04949.04949,0,0,1,.04492-.02832h.669A3.002,3.002,0,0,1,7.043,9.9502V9.917h-.6294a.05038.05038,0,0,1-.04248-.02344.04913.04913,0,0,1-.00244-.04785l.2041-.42871a.049.049,0,0,1,.04493-.02832h.48046a3.0095,3.0095,0,0,1,.33643-.87988,2.89551,2.89551,0,0,1,.65234-.7832,3.26734,3.26734,0,0,1,.94043-.5459,3.39562,3.39562,0,0,1,1.209-.20508,3.11594,3.11594,0,0,1,1.54.36133,2.3812,2.3812,0,0,1,.95752.94726.04928.04928,0,0,1-.01905.06641l-.66015.37988a.03988.03988,0,0,1-.03907.00489A.052.052,0,0,1,11.98535,8.71a1.60464,1.60464,0,0,0-.34668-.458,1.83262,1.83262,0,0,0-.44385-.29785,2.06521,2.06521,0,0,0-.49511-.16211,2.69688,2.69688,0,0,0-.50147-.04785,2.26419,2.26419,0,0,0-.81494.14063,2.21453,2.21453,0,0,0-.63184.377,2.08446,2.08446,0,0,0-.44873.54,2.397,2.397,0,0,0-.24365.58691h2.86475a.05005.05005,0,0,1,.04541.07129l-.2041.42871a.04847.04847,0,0,1-.04493.02832H7.98779v.06543a2.327,2.327,0,0,0,.02246.32422h2.58887a.05038.05038,0,0,1,.04248.02344.04911.04911,0,0,1,.00244.04785l-.20556.42773a.0495.0495,0,0,1-.04493.02832H8.15088a2.43647,2.43647,0,0,0,.29248.52442,2.12717,2.12717,0,0,0,.47266.47265,2.24061,2.24061,0,0,0,.60546.31055,2.28833,2.28833,0,0,0,1.23.05762,2.02319,2.02319,0,0,0,.5127-.18164,2.20638,2.20638,0,0,0,.45947-.31446,1.55394,1.55394,0,0,0,.34668-.45214.05025.05025,0,0,1,.06641-.02246l.69629.33886a.04974.04974,0,0,1,.02295.06641A1.89143,1.89143,0,0,1,12.40381,12.23145Z"/><path class="cls-1" d="M17.7031,5.55273A8.89624,8.89624,0,0,0,1.54588,7.23242a.49991.49991,0,0,0,.31982.63086A.50525.50525,0,0,0,2.021,7.8877.49991.49991,0,0,0,2.49607,7.543a7.89713,7.89713,0,0,1,14.3418-1.49024.49966.49966,0,1,0,.86523-.5Z"/><path class="cls-1" d="M2.98728,7.84277l-1.39355.97657L1.01658,7.21777a.5.5,0,1,0-.94043.33985L.875,9.77441a.49973.49973,0,0,0,.75732.23926L3.5615,8.66113a.49986.49986,0,0,0-.57422-.81836Z"/><path class="cls-1" d="M18.13523,12.13672a.50015.50015,0,0,0-.63086.32031A7.8975,7.8975,0,0,1,3.16209,13.94727a.49966.49966,0,1,0-.86524.5,8.89662,8.89662,0,0,0,16.15772-1.67969A.50044.50044,0,0,0,18.13523,12.13672Z"/><path class="cls-1" d="M19.92381,12.44238,19.125,10.22559a.5.5,0,0,0-.75732-.23926l-1.9292,1.35254a.49986.49986,0,0,0,.57421.81836l1.39356-.97657.57715,1.60157a.50041.50041,0,0,0,.47021.33007A.51352.51352,0,0,0,19.623,13.083.50072.50072,0,0,0,19.92381,12.44238Z"/></svg>