<svg id="Layer_1" data-name="Layer 1" xmlns="http://www.w3.org/2000/svg" xmlns:xlink="http://www.w3.org/1999/xlink" viewBox="0 0 5228.95906 1094.17323"><defs><style>.cls-1{fill:url(#linear-gradient);}.cls-2{fill:url(#linear-gradient-2);}.cls-3{fill:url(#linear-gradient-3);}.cls-4{fill:#231f20;}.cls-5{fill:#ed1a3b;}</style><linearGradient id="linear-gradient" x1="268.33904" y1="916.96546" x2="305.34121" y2="426.6607" gradientUnits="userSpaceOnUse"><stop offset="0" stop-color="#ce1432"/><stop offset="0.57055" stop-color="#ed1a3c"/></linearGradient><linearGradient id="linear-gradient-2" x1="51.06266" y1="808.04494" x2="59.15981" y2="-270.84786" gradientUnits="userSpaceOnUse"><stop offset="0" stop-color="#840025"/><stop offset="0.57055" stop-color="#b10d29"/></linearGradient><linearGradient id="linear-gradient-3" x1="320.97646" y1="920.93784" x2="357.97863" y2="430.63314" xlink:href="#linear-gradient"/></defs><polygon class="cls-1" points="107.091 0 0 16.115 0 918.094 107.091 938.384 609.449 853.552 609.449 34.972 107.091 0"/><polygon class="cls-2" points="0 918.094 0 16.115 107.091 0 107.091 938.384 0 918.094"/><polygon class="cls-3" points="107.091 0 609.449 34.972 609.449 853.552 107.091 938.384 107.091 0"/><path class="cls-4" d="M705.32889,848.6727V35.254H897.65284v419.7372L1079.158,247.935h231.4439L1102.42663,477.6,1316.252,848.6727H1097.31811L970.25321,611.10891l-72.60037,75.78541V848.6727Z"/><path class="cls-4" d="M1316.24148,848.6727V247.935h192.31967V330.5138q59.97053-97.24724,182.14913-97.26993,107.48486,0,153.87013,53.74349,46.36944,53.73768,46.38844,171.38629v390.299H1694.11279v-301.328q0-93.68267-12.43823-123.02369-15.85923-40.64016-70.15643-40.60954-99.56713,0-99.55446,144.43641V848.6727Z"/><path class="cls-4" d="M2283.11333,915.43717q-26.05105,73.532-45.28,106.3426-23.75322,40.71776-56.52737,55.43472-38.50553,16.96455-157.27265,16.95874h-52.047V938.05656h38.47493q50.91579,0,72.97092-12.45407,22.07623-12.4641,22.063-48.6413,0-20.35017-29.40859-97.3016L1873.56573,247.935h211.55765l113.14235,409.54654L2313.6451,247.935h209.2943Z"/><path class="cls-4" d="M2515.01638,899.6017h196.86556q14.5053,54.27925,89.51794,54.29034,64.889,0,90.61058-31.8462,23.522-28.50227,23.51674-100.1372V758.17507q-64.19371,96.172-184.60363,96.17729-109.17768,0-179.49932-84.87815-70.33959-84.837-70.35279-222.86108,0-141.406,70.53859-227.97593,70.547-86.51553,182.23147-86.543,119.61642,0,189.60341,96.18256V247.935h184.39565V744.13323q0,94.0548-4.51522,135.94227-7.90189,61.16136-31.61922,98.55894-72.26518,113.26006-264.23389,113.27115Q2541.00715,1091.90559,2515.01638,899.6017Zm169.70033-354.11289q0,72.4188,30.55727,113.13708,30.55759,40.71776,82.57981,40.72251,55.42416,0,86.5377-40.17566,31.1452-40.14609,31.13571-113.68393,0-160.6588-114.28145-160.654Q2684.70616,384.83476,2684.71671,545.48881Z"/><path class="cls-4" d="M3137.24389,547.75645q0-150.45126,84.28062-235.89261,84.29539-85.40863,233.62507-85.425,150.45285,0,234.74814,85.425,84.297,85.4403,84.30173,235.89261,0,150.45285-84.30173,235.862-84.26516,85.45614-234.74814,85.425-150.45283,0-234.17192-84.84752Q3137.208,699.35895,3137.24389,547.75645Zm201.37656-.57641q0,171.39051,116.52913,171.39579,117.63684,0,117.67331-171.39579,0-170.23134-117.67331-170.27252Q3338.60984,376.90752,3338.62045,547.18Z"/><path class="cls-4" d="M3776.46709,665.39925h196.84033q6.7885,79.22329,105.21922,79.19849,89.33742,0,89.38387-58.82668,0-30.55771-46.40322-45.24828-63.37357-18.10946-126.71441-36.20729-106.33362-35.074-148.2-71.28075-47.52225-41.81516-47.517-110.86838,0-90.49815,69.012-143.102,69.01734-52.63237,192.33568-52.62551,263.58921,0,280.56331,177.62335H4152.06448q-11.335-59.93885-87.11517-59.94994-73.56369,0-73.53783,52.02165,0,27.17208,34.94889,41.86794,5.65961,3.40146,97.00284,29.41281,145.50424,41.86266,173.71633,63.35245,63.12475,47.52227,63.13485,128.982,0,97.33275-75.07387,152.73632-75.12489,55.42416-212.84027,55.43472-134.40058,0-211.18094-53.166Q3784.35368,761.58656,3776.46709,665.39925Z"/><path class="cls-4" d="M4654.35621,861.04337V35.254h196.84023V861.04337Z"/><path class="cls-4" d="M4851.094,366.72109V247.935h80.33231V78.23886h196.84972V247.935h100.683V366.72109h-100.683V626.13044q0,56.36637,14.1453,77.25917,14.13476,20.84582,59.39359,20.83632h24.87647V848.7751q-62.22865,12.34059-117.64265,12.35062-110.89446,0-147.08636-60.96025-30.55771-51.8976-30.53607-200.9015V366.72109Z"/><path class="cls-5" d="M4599.1073,758.65964a103.63685,103.63685,0,1,1-103.63156-103.63157A103.621,103.621,0,0,1,4599.1073,758.65964Z"/><polygon class="cls-4" points="506.195 483.652 506.195 448.064 470.585 448.064 470.585 412.454 434.981 412.454 434.981 376.876 399.377 376.876 399.377 341.246 363.778 341.246 363.778 305.663 328.194 305.663 328.194 270.069 292.57 270.069 292.57 234.455 256.981 234.455 256.981 198.871 221.398 198.871 221.398 590.449 256.981 590.449 256.981 554.86 292.57 554.86 292.57 519.261 328.194 519.261 328.194 554.86 363.778 554.86 363.778 626.068 399.377 626.068 399.377 697.267 470.585 697.267 470.585 626.068 434.981 626.068 434.981 554.86 399.377 554.86 399.377 483.652 506.195 483.652"/></svg>