<svg xmlns="http://www.w3.org/2000/svg" width="5347.30664" height="1105.49344" viewBox="0 0 660.41333 138.18668">
    <defs>
        <clipPath id="a">
            <path d="M 0,0 H 4953 V 1036 H 0 Z"/>
        </clipPath>
        <clipPath id="b">
            <path d="m 0,160.18 v 860.89 l 102.211,15.38 V 140.816 Z"/>
        </clipPath>
        <linearGradient id="c" x2="1" gradientTransform="matrix(7.72826 1029.74 1029.74 -7.72826 48.7354 265.21)" gradientUnits="userSpaceOnUse">
            <stop offset="0" stop-color="#7f0823"/>
            <stop offset=".570552" stop-color="#b00f29"/>
            <stop offset="1" stop-color="#b00f29"/>
        </linearGradient>
        <clipPath id="d">
            <path d="M 0,0 H 4953 V 1036 H 0 Z"/>
        </clipPath>
        <clipPath id="e">
            <path d="m 102.211,1036.45 479.473,-33.38 V 221.781 L 102.211,140.816 Z"/>
        </clipPath>
        <linearGradient id="f" x2="1" gradientTransform="matrix(35.3167 467.971 467.971 -35.3167 306.357 157.456)" gradientUnits="userSpaceOnUse">
            <stop offset="0" stop-color="#cf1330"/>
            <stop offset=".570552" stop-color="#ed163a"/>
            <stop offset="1" stop-color="#ed163a"/>
        </linearGradient>
    </defs>
    <g clip-path="url(#a)" transform="matrix(.13333 0 0 -.13333 0 138.18667)">
        <g clip-path="url(#b)">
            <path fill="url(#c)" d="m 101,140 v 1 h -6 v 1 h -5 v 1 h -5 v 1 h -5 v 1 h -6 v 1 h -5 v 1 h -5 v 1 h -5 v 1 h -6 v 1 h -5 v 1 h -5 v 1 h -6 v 1 h -5 v 1 h -5 v 1 h -5 v 1 h -6 v 1 h -5 v 1 H 6 v 1 H 0 v 863 h 6 v 1 h 6 v 1 h 7 v 1 h 7 v 1 h 6 v 1 h 7 v 1 h 7 v 1 h 6 v 1 h 7 v 1 h 6 v 1 h 7 v 1 h 7 v 1 h 6 v 1 h 7 v 1 h 11 V 140"/>
        </g>
    </g>
    <g clip-path="url(#d)" transform="matrix(.13333 0 0 -.13333 0 138.18667)">
        <g clip-path="url(#e)">
            <path fill="url(#f)" d="m 102,140 v 896 h 22 v -1 h 14 v -1 h 14 v -1 h 15 v -1 h 14 v -1 h 14 v -1 h 15 v -1 h 14 v -1 h 14 v -1 h 15 v -1 h 14 v -1 h 15 v -1 h 14 v -1 h 14 v -1 h 15 v -1 h 14 v -1 h 14 v -1 h 15 v -1 h 14 v -1 h 14 v -1 h 15 v -1 h 14 v -1 h 15 v -1 h 14 v -1 h 14 v -1 h 15 v -1 h 14 v -1 h 14 v -1 h 15 v -1 h 14 v -1 h 14 v -1 h 15 v -1 h 13 V 221 h -4 v -1 h -6 v -1 h -6 v -1 h -6 v -1 h -6 v -1 h -6 v -1 h -6 v -1 h -6 v -1 h -6 v -1 h -6 v -1 h -6 v -1 h -6 v -1 h -6 v -1 h -5 v -1 h -6 v -1 h -6 v -1 h -6 v -1 h -6 v -1 h -6 v -1 h -6 v -1 h -6 v -1 h -6 v -1 h -6 v -1 h -6 v -1 h -6 v -1 h -6 v -1 h -5 v -1 h -6 v -1 h -6 v -1 h -6 v -1 h -6 v -1 h -6 v -1 h -6 v -1 h -6 v -1 h -6 v -1 h -6 v -1 h -6 v -1 h -6 v -1 h -6 v -1 h -5 v -1 h -6 v -1 h -6 v -1 h -6 v -1 h -6 v -1 h -6 v -1 h -6 v -1 h -6 v -1 h -6 v -1 h -6 v -1 h -6 v -1 h -6 v -1 h -5 v -1 h -6 v -1 h -6 v -1 h -6 v -1 h -6 v -1 h -6 v -1 h -6 v -1 h -6 v -1 h -6 v -1 h -6 v -1 h -6 v -1 h -6 v -1 h -6 v -1 h -5 v -1 h -6 v -1 h -6 v -1 h -6 v -1 h -6 v -1 h -6 v -1 h -6 v -1 h -6 v -1 h -6 v -1 h -6 v -1 h -6 v -1 h -6 v -1 h -6 v -1 h -5 v -1 h -6 v -1 h -6 v -1 h -6 v -1"/>
        </g>
    </g>
    <path fill="#231f20" d="m 668.113,232.555 v 770.495 h 182.18 V 605.465 l 171.927,196.133 h 219.24 L 1044.26,584.047 1246.81,232.555 H 1039.42 L 919.063,457.582 850.293,385.797 V 232.555 h -182.18" transform="matrix(.13333 0 0 -.13333 0 138.18667)"/>
    <path fill="#231f20" d="M1246.8 232.555v569.043h182.17v-78.223c37.87 61.41 95.38 92.137 172.54 92.137 67.87 0 116.44-16.965 145.75-50.907 29.28-33.937 43.94-88.058 43.94-162.343V232.555h-186.47v285.429c0 59.161-3.94 97.989-11.78 116.532-10.02 25.664-32.16 38.468-66.46 38.468-62.87 0-94.3-45.605-94.3-136.816V232.555H1246.8M2162.66 169.313c-16.45-46.438-30.74-79.9927-42.89-100.7349-15-25.7109-32.86-43.2187-53.55-52.5078C2041.9 5.35938 1992.27 0 1917.25 0h-49.31v147.887h36.45c32.15 0 55.2 3.933 69.12 11.797 13.94 7.871 20.9 23.203 20.9 46.074 0 12.851-9.29 43.562-27.86 92.168l-191.83 503.672h200.39l107.18-387.942 109.29 387.942h198.25L2162.66 169.313M2543.07 519.742c0-45.734 9.65-81.437 28.95-107.168 19.29-25.715 45.34-38.574 78.22-38.574 35 0 62.31 12.676 81.97 38.055 19.67 25.351 29.49 61.25 29.49 107.687 0 101.453-36.08 152.176-108.25 152.176-73.59 0-110.38-50.723-110.38-152.176zM2382.32 184.313h186.48c9.16-34.278 37.44-51.426 84.8-51.426 40.98 0 69.59 10.058 85.83 30.164 14.85 18 22.27 49.609 22.27 94.855v60.371c-40.53-60.734-98.81-91.105-174.86-91.105-68.94 0-125.61 26.797-170.03 80.402-44.42 53.574-66.64 123.934-66.64 211.102 0 89.297 22.28 161.289 66.82 215.949 44.55 54.633 102.08 81.977 172.61 81.977 75.54 0 135.4-30.372 179.6-91.11v76.106h174.67v-470.02c0-59.394-1.42-102.305-4.28-128.769-4.99-38.625-14.97-69.739-29.95-93.36C2864.01 37.9258 2780.59 2.14844 2659.35 2.14844c-168.27 0-260.62 60.71876-277.03 182.16456M3162.48 518.141c0-108.235 36.78-162.356 110.38-162.356 74.28 0 111.46 54.121 111.46 162.356 0 107.5-37.18 161.289-111.46 161.289-73.6 0-110.38-53.789-110.38-161.289zm-190.76-.547c0 95.008 26.62 169.492 79.84 223.445 53.23 53.938 127.01 80.918 221.3 80.918 95.01 0 169.15-26.98 222.36-80.918 53.23-53.953 79.85-128.437 79.85-223.445 0-95.012-26.62-169.485-79.85-223.418-53.21-53.965-127.35-80.918-222.36-80.918-95.01 0-168.98 26.797-221.82 80.371-52.9 53.574-79.32 128.23-79.32 223.965M3577.22 406.156h186.46c4.28-50.027 37.51-75.019 99.66-75.019 56.42 0 84.67 18.574 84.67 55.722 0 19.297-14.67 33.575-43.95 42.864-40.02 11.433-80.01 22.871-120.03 34.297-67.15 22.148-113.95 44.648-140.38 67.519-30.01 26.406-45.01 61.434-45.01 105.02 0 57.148 21.78 102.332 65.37 135.55 43.58 33.239 104.3 49.848 182.19 49.848 166.45 0 255.05-56.109 265.76-168.25H3933c-7.16 37.852-34.66 56.785-82.52 56.785-46.45 0-69.65-16.426-69.65-49.277 0-17.156 11.01-30.399 33.1-39.656 3.57-2.149 34.18-11.438 91.89-27.864 91.88-26.433 146.72-46.453 164.55-60.007 39.86-30.012 59.8-70.723 59.8-122.18 0-61.465-23.69-109.676-71.11-144.676-47.44-35-114.65-52.512-201.61-52.512-84.88 0-151.54 16.809-200.04 50.364-48.48 33.574-75.2 80.73-80.19 141.472M4408.79 220.836v782.214h186.46V220.836h-186.46" transform="matrix(.13333 0 0 -.13333 0 138.18667)"/>
    <path fill="#231f20" d="m 4595.15,689.078 v 112.52 h 76.1 V 962.34 h 186.46 V 801.598 h 95.37 v -112.52 h -95.37 V 443.355 c 0,-35.597 4.44,-59.992 13.4,-73.183 8.92,-13.164 27.67,-19.738 56.26,-19.738 9.99,0 17.85,0 23.56,0 V 232.457 c -39.29,-7.793 -76.43,-11.699 -111.43,-11.699 -70.03,0 -116.46,19.246 -139.33,57.742 -19.3,32.773 -28.92,96.203 -28.92,190.305 v 220.273 h -76.1" transform="matrix(.13333 0 0 -.13333 0 138.18667)"/>
    <path fill="#ed1639" d="m 4356.46,317.816 c 0,-54.199 -43.95,-98.144 -98.16,-98.144 -54.22,0 -98.18,43.945 -98.18,98.144 0,54.219 43.96,98.164 98.18,98.164 54.21,0 98.16,-43.945 98.16,-98.164" transform="matrix(.13333 0 0 -.13333 0 138.18667)"/>
    <path fill="#100f0d" d="m 479.488,578.316 v 33.711 h -33.73 v 33.731 h -33.727 v 33.699 h -33.726 v 33.75 h -33.719 v 33.707 h -33.707 v 33.715 h -33.746 v 33.734 H 243.422 V 848.07 H 209.719 V 477.152 h 33.703 v 33.711 h 33.711 v 33.723 h 33.746 v -33.723 h 33.707 v -67.449 h 33.719 v -67.441 h 67.453 v 67.441 h -33.727 v 67.449 h -33.726 v 67.453 h 101.183" transform="matrix(.13333 0 0 -.13333 0 138.18667)"/>
</svg>
