<?xml version="1.0" encoding="UTF-8"?><svg id="_ëîé_1" xmlns="http://www.w3.org/2000/svg" viewBox="0 0 250 250"><defs><style>.cls-1{fill:#fff;}.cls-2{fill:#f25a5a;}.cls-3{fill:#1c1c1c;}.cls-4{fill:#282828;}.cls-5{fill:#3a3a3a;}.cls-6{fill:#323b56;}.cls-7{fill:#465987;}</style></defs><g id="backpack"><path class="cls-1" d="M212.72,162.57v-.09c-.15-3.01-.31-6.13-.38-9.14-.17-7.27-.56-15.01-2.2-22.54-.03-.31-.07-.61-.12-.92-.83-4.71-2.04-9.22-3.22-13.58-.43-1.6-.86-3.19-1.27-4.8l-.12-.47c-2.64-10.36-5.36-21.07-10.02-31.32-.89-1.94-1.75-4.04-2.67-6.29-2.59-6.29-5.49-13.33-9.89-19.31-1.58-7.14-6.48-20.82-27.45-20.82-.66,0-1.33,.01-2.04,.04-.43-2.94-1.18-5.61-2.24-8.09-4.14-9.69-13.17-15.25-24.78-15.25-3.93,0-8.21,.62-12.72,1.85-13.73,3.74-17.68,13.11-18.93,21.94-1.46-.1-2.83-.14-4.14-.14-11.36,0-25.28,4.19-28.91,23.56-6.11,7.25-10.56,17.93-13.91,25.98l-.34,.81c-.43,1.02-.84,2-1.23,2.92-5.92,13.76-7.25,28.56-7.33,38.55-.02,2.94-.3,6.09-.57,9.16-.14,1.57-.29,3.31-.41,5.13-.03,.12-.05,.25-.07,.37,0,.03-.01,.07-.02,.1-1.14,7.24-.94,14.43-.75,21.39,.05,1.96,.11,3.92,.13,5.84,.12,12.92,1.64,23.43,4.78,33.07,.89,2.73,2.05,5.31,2.99,7.38,.55,1.23,1.08,2.41,1.53,3.55,.11,.54,.25,1.08,.44,1.61,5.77,16.04,15.41,23.38,32.25,24.57,2.06,.14,4.24,.35,6.35,.56l.61,.06c.87,.09,1.73,.17,2.54,.24,.59,.07,1.18,.09,1.78,.06,8.82,1.09,18.06,1.17,26.26,1.25h.31c2.78,.03,5.66,.05,8.4,.12,2.05,.05,4.11,.07,6.3,.07,10.8,0,20.97-.62,31.76-1.27l3-.18c1.07-.06,2.98-.05,4.59,0h.11c1.09,.03,2.17,.06,3.23,.06,1.96,0,4.79-.08,7.88-.73,.54-.03,.97-.1,1.17-.14,3.21-.55,7.86-1.74,11.79-4.27,14.68-9.44,15.58-28.38,15.51-33.97v-.13s0-.07,0-.11c.19-1.67,.51-3.46,.85-5.3,.42-2.25,.93-5.04,1.2-7.85,.75-8,.36-15.89-.02-23.53Z"/><g><path class="cls-1" d="M171.06,171.82c.85,.73,1.2,1.57,1,2.42-.21,.9-1.02,1.67-2.02,1.93-.63,.16-1.86,.24-3-1.02-.09-.1-.21-.16-.34-.16-.73-1.13-.64-2.11-.48-2.66,.29-.98,1.09-1.73,2.07-1.94,.91-.19,1.83,.1,2.66,.81-.11,.2-.07,.46,.11,.61Z"/><path class="cls-4" d="M169.32,176.76c-.69,0-1.7-.22-2.65-1.27-.15-.01-.3-.1-.38-.23-.86-1.33-.7-2.49-.53-3.06,.34-1.16,1.27-2.03,2.43-2.27,1.03-.22,2.13,.1,3.08,.92,.17,.15,.22,.39,.11,.59,1.25,1.1,1.32,2.2,1.15,2.92-.25,1.07-1.2,1.99-2.37,2.29-.27,.07-.55,.11-.83,.11Zm-2.32-2.19c.15,.06,.29,.15,.39,.27,.72,.8,1.64,1.1,2.51,.87,.83-.21,1.5-.84,1.67-1.57,.16-.68-.12-1.33-.84-1.95-.24-.2-.35-.5-.34-.8-.65-.49-1.34-.67-2.01-.52-.81,.17-1.46,.78-1.7,1.6-.12,.39-.22,1.16,.32,2.09Z"/></g><g><path class="cls-1" d="M79.91,169.47c.85,.73,1.19,1.57,1,2.43-.21,.9-1.02,1.67-2.02,1.93-.63,.16-1.86,.24-3-1.02-.09-.1-.21-.16-.34-.16-.73-1.13-.64-2.12-.48-2.66,.29-.98,1.09-1.73,2.07-1.94,.91-.19,1.83,.1,2.66,.82-.11,.2-.07,.46,.11,.61Z"/><path class="cls-4" d="M78.18,174.4c-.69,0-1.7-.22-2.65-1.28-.15,0-.3-.09-.38-.22-.86-1.33-.71-2.49-.54-3.06,.34-1.16,1.28-2.03,2.44-2.27,1.03-.22,2.13,.1,3.08,.92,.17,.15,.22,.4,.11,.6,1.26,1.1,1.32,2.19,1.15,2.92-.25,1.07-1.21,1.99-2.37,2.29-.27,.07-.55,.11-.83,.11Zm-2.32-2.19c.15,.05,.28,.14,.39,.27,.73,.81,1.63,1.1,2.51,.88,.83-.21,1.5-.84,1.67-1.57,.16-.67-.13-1.33-.84-1.95-.24-.2-.36-.5-.34-.8-.65-.48-1.35-.67-2.01-.52-.81,.17-1.46,.78-1.71,1.6-.12,.39-.22,1.16,.32,2.09Z"/></g><g><path class="cls-3" d="M202.51,163.1c.36,7.26,.74,14.77,.05,22.04-.22,2.32-.65,4.68-1.07,6.95-.44,2.4-.88,4.87-1.09,7.31,.04,.07,.07,.15,.07,.24,.05,4.25-.56,18.63-10.82,25.23-2.61,1.68-6.14,2.47-8.01,2.8-.03,0-.06,0-.09,0-.1,0-.19-.03-.27-.09-3.28,.91-6.51,.83-9.9,.74-1.81-.05-3.69-.1-5.59,.02l-2.85,.17c-10.62,.64-20.75,1.26-31.3,1.26-2.01,0-4.02-.02-6.06-.07-2.9-.07-5.86-.1-8.86-.12-8.87-.08-18.02-.18-26.54-1.36-.09,.08-.2,.12-.33,.12-.02,0-.03,0-.05,0-.91-.08-1.83-.17-2.74-.26-2.39-.23-4.86-.48-7.28-.64-12.82-.9-18.92-5.56-23.34-17.83-.05-.13-.04-.27,.02-.38-.67-1.88-1.49-3.72-2.29-5.51-.92-2.05-1.87-4.17-2.59-6.36-2.81-8.61-4.17-18.15-4.28-30-.02-1.98-.07-4-.13-6.03-.18-6.49-.36-13.21,.63-19.51,.02-.09,.06-.17,.11-.24,.12-2.04,.29-4.08,.47-6.06,.29-3.25,.58-6.61,.61-9.96,.07-9.05,1.26-22.41,6.5-34.6,.51-1.17,1.04-2.47,1.61-3.83,3.47-8.33,8.22-19.72,14.12-25.26,0-.05,0-.1,.01-.15,1.92-16.24,11.14-18.77,24.4-17.59,.07,0,.14,.03,.2,.06,2.77,.13,5.56,.21,8.37,.26l.03-1.03c.28-9.96,.52-18.56,12.03-21.69,12.82-3.5,21.85-.81,25.42,7.55,1.63,3.81,2.17,8.53,1.73,14.81,1.07-.04,2.13-.08,3.17-.12,1.81-.07,3.66-.13,5.52-.15,.09-.1,.21-.18,.36-.19,14.93-.91,19.02,4.98,20.79,14.88,4.35,5.15,7.22,12.09,10,18.83,.96,2.33,1.87,4.53,2.83,6.63,4.28,9.41,6.89,19.67,9.42,29.6l.13,.49c.42,1.63,.85,3.27,1.3,4.91,1.12,4.16,2.28,8.46,3.02,12.72,.02,.1,0,.19-.04,.27,1.63,6.89,2.03,14.44,2.2,21.64,.07,3.16,.23,6.39,.39,9.51Zm-.96,21.95c.68-7.2,.31-14.67-.05-21.9-.16-3.13-.32-6.37-.39-9.54-.19-8.02-.66-16.47-2.81-23.9-.05-.19,0-.38,.14-.5-.71-3.35-1.6-6.71-2.48-9.99-.44-1.64-.89-3.29-1.3-4.92l-.13-.49c-2.51-9.88-5.11-20.1-9.36-29.43-.96-2.12-1.87-4.33-2.84-6.67-2.5-6.07-5.08-12.31-8.73-17.18,.36,2.52,.62,5.25,.9,8.17l.09,.95c.4,4.2,.81,8.2,1.23,11.91,.01,.12-.03,.24-.09,.34,.13,1.8,.37,3.9,.63,6.11,1.18,9.99,2.79,23.66-4.88,28.48-2.23,1.4-5.43,1.66-7.52,1.66-.73,0-1.32-.03-1.69-.06-.05,0-.11-.02-.15-.04,.12,4.89,.13,10.14,.02,15.76,0,.06-.02,.11-.04,.16,.05,.14,.05,.29-.03,.43-1.55,2.6-3.56,5.13-5.99,7.53-.1,.1-.23,.15-.36,.15s-.26-.05-.36-.15c-.08-.08-.12-.18-.13-.28-1.24-1.03-2.44-2.15-3.61-3.24-1.53-1.45-2.99-2.81-4.51-3.95-.11-.04-.2-.11-.26-.2-.02-.02-.03-.03-.05-.04-.22-.16-.27-.47-.11-.69-.84-4.93-.88-10.29-.78-15.61-2.21-.44-4.86-.32-7.44-.19l-2.28,.1c-4.67,.21-9.6,.43-14.52,.43-7.02,0-14.03-.45-20.29-2.02h-.01c0,.77,0,1.55,0,2.32,.03,5.49,.05,11.16-.37,16.65,.08,.03,.15,.07,.21,.14,.18,.22,.15,.54-.06,.71-1.6,1.33-4.64,3.99-7.03,6.86-.09,.11-.22,.17-.35,.18-.02,.03-.04,.05-.07,.07-.09,.07-.2,.1-.3,.1-.15,0-.31-.07-.41-.21-2.19-2.92-4.92-6.12-7.9-9.24-.19-.2-.18-.52,.02-.72,0,0,.02,0,.02-.01,.06-1.12,.11-2.29,.16-3.46l.12-2.64c.17-3.53,.26-7.47,.32-11.27-.01,0-.02,.01-.03,.01-.93,.14-1.96,.22-3.03,.22-2.74,0-5.7-.54-7.76-2.04-8.27-6.01-6.71-19.25-5.33-30.94,.45-3.81,.87-7.44,.89-10.46-.03-.09-.05-.18-.03-.27,.02-.08,.03-.16,.04-.25,0-.45-.02-.89-.04-1.32-.01-.21,.11-.4,.29-.49,.14-1.33,.19-2.66,.23-3.96,.03-.91,.08-1.85,.14-2.79-5.36,5.66-9.78,16.24-13.05,24.08-.57,1.37-1.11,2.66-1.62,3.84-5.17,12.04-6.35,25.25-6.42,34.21-.03,3.39-.32,6.78-.61,10.04-.25,2.83-.51,5.76-.58,8.67,0,.22-.16,.4-.36,.47-.57,5.4-.42,11.06-.27,16.56,.06,2.04,.11,4.06,.13,6.05,.11,11.75,1.46,21.18,4.23,29.69,.7,2.14,1.64,4.23,2.55,6.26,.39,.86,.78,1.74,1.15,2.63,.03,.01,.07,.02,.1,.04,5.3,3.41,12.65,4.13,19.15,4.77,1.17,.11,2.32,.23,3.42,.35l1.81,.21c10.67,1.21,20.74,2.35,31.29,2.13,6.06-.13,12.2-.07,18.13,0,3.59,.03,7.19,.07,10.79,.07,2.35,0,4.68,.02,7.01,.05,7.54,.08,15.34,.17,23.01-.77,8.51-1.04,17.62-3.35,25.64-6.51,.68-.27,1.3-.58,1.97-.91l.14-.07c.13-.07,.28-.07,.4-.02,.2-1.65,.29-3.1,.32-4.24-.1-.1-.16-.23-.16-.38,.13-2.93,.67-5.88,1.2-8.73,.42-2.26,.85-4.59,1.06-6.86Zm-2.56,21.22c-.64,.32-1.31,.65-2,.92-8.1,3.19-17.29,5.52-25.89,6.57-5.51,.67-11.08,.82-16.56,.82-2.21,0-4.41-.03-6.58-.05-2.33-.03-4.66-.05-7-.05-3.61,0-7.21-.03-10.8-.07-5.93-.06-12.06-.12-18.1,0-10.62,.22-20.73-.92-31.43-2.14l-1.81-.2c-1.1-.12-2.24-.24-3.41-.35-6.19-.61-13.14-1.29-18.52-4.28,.45,1.15,.87,2.32,1.2,3.52,0,.03,0,.06,0,.08,4.23,10.58,9.93,14.52,21.77,15.35,2.43,.17,4.91,.41,7.3,.65,.38,.04,.75,.07,1.13,.11,.11-.13,.28-.2,.46-.18,8.88,1.39,18.59,1.48,27.98,1.57,3,.03,5.97,.05,8.87,.12,12.75,.31,24.66-.42,37.28-1.19l2.86-.17c1.94-.12,3.84-.07,5.68-.01,3.63,.1,7.05,.19,10.49-.97,.2-.07,.4,0,.53,.13,2.67-.55,5.06-1.43,6.67-2.47,6.6-4.24,9.02-11.91,9.89-17.75Zm-28.06-90.65c7.13-4.48,5.56-17.79,4.41-27.51-.33-2.79-.64-5.42-.71-7.51,0-.07,0-.14,.03-.2-.37-3.36-.74-6.93-1.09-10.67l-.09-.94c-.35-3.67-.66-6.95-1.15-9.85-.04-.05-.07-.09-.11-.13-.16-.18-.15-.42-.02-.61-1.67-9.09-5.33-13.95-17.91-13.6-.09,.14-.24,.31-.43,.31h0c-2.41,0-4.85,0-7.21,.1-1.16,.05-2.36,.02-3.55,.06-.06,.03-.13,.05-.2,.05-.01,0-.03,0-.04,0-.05,0-.09-.02-.13-.03-.53,.01-1.07,.03-1.6,.04-3.79,.04-7.61,.11-11.44,.17-5.96,.1-12.02,.21-18.07,.21s-11.55-.1-17.22-.39c-.11,0-.2-.05-.28-.12-12.21-.85-20.1,1.92-21.86,16.81-.17,1.47-.22,2.97-.27,4.42-.07,1.9-.14,3.86-.48,5.82,.02,3.16-.42,6.99-.9,11.01-1.35,11.41-2.87,24.34,4.92,30,2.63,1.9,6.91,2.1,10.05,1.64,.06-.01,.13,0,.19,0,.04-3.39,.05-6.63,.05-9.3,0-.17,.09-.31,.21-.4-.87-.55-1.19-1.31-1.15-1.97,.08-1.18,1.27-2.32,3.43-2.5,.11-.12,.26-.21,.43-.19,.99,.1,2.12,.08,3.32,.06,2.46-.04,5.24-.08,7.38,.95,.07,0,.14,0,.21,.02,2.11,.7,3.4,2.05,3.23,3.37-.05,.39-.3,1.15-1.37,1.66-.11,2.91-.13,5.88-.13,8.82,.09-.03,.17-.04,.26-.01,10.5,2.64,23.26,2.07,34.52,1.56l2.27-.11c2.57-.12,5.21-.24,7.5,.18,.02-.74,.03-1.47,.05-2.2,.05-2.23,.11-4.53,.11-6.71,0-.01,0-.03,.01-.05-.49-.24-.92-.55-1.26-.95-.66-.8-.85-1.81-.51-2.7,.27-.68,1.08-1.87,3.54-2.2,.08-.01,.15,0,.21,.02,2.89-.5,6.59-1.06,10.18-.86,.16,0,.29,.09,.38,.22,2.24,.27,3.73,1.92,3.84,3.42,.06,.84-.27,1.55-.9,2.11,.02,.04,.03,.08,.04,.13,.21,3.12,.37,6.49,.46,10.05,.08-.04,.16-.06,.25-.05,2.73,.19,6.41-.08,8.59-1.45Zm-11.76-8.68c1.55-.3,2.39-1.04,2.32-2.03-.09-1.16-1.41-2.45-3.25-2.53-.15,0-.27-.08-.36-.18-3.75-.15-7.64,.52-10.51,1.02-.03,0-.06,0-.09,0-.02,0-.03,0-.05,0-1,.27-1.69,.76-1.94,1.4-.21,.55-.09,1.16,.34,1.68,.64,.78,1.75,1.15,3.06,1.07,.07-.05,.14-.08,.23-.09,3.88-.39,6.93-.49,9.87-.34,.08,0,.16,.03,.23,.07,.05-.03,.1-.05,.16-.06Zm1.96,26.83c.18-9.9,.02-18.71-.48-26.23-.38,.17-.8,.31-1.28,.39-.03,0-.06,0-.1,0-.09,0-.17-.03-.25-.07-.08,.05-.17,.08-.28,.07-2.71-.14-5.52-.05-9.03,.27-.04,.02-.09,.05-.14,.06-.42,.07-.83,.11-1.23,.11-.43,0-.84-.06-1.23-.15,0,2.11-.05,4.3-.11,6.44-.16,6.41-.31,13.04,.74,18.95,1.56,1.18,3.09,2.61,4.58,4.01,1.12,1.05,2.28,2.13,3.46,3.12,2.15-2.19,3.97-4.48,5.37-6.83-.01-.05-.03-.1-.03-.15Zm-18.71-89.69c.44-6.15-.08-10.76-1.65-14.43-4.29-10.04-15.54-9.33-24.22-6.97-10.79,2.94-11.01,10.8-11.29,20.75l-.03,1.02c2.08,.03,4.16,.05,6.25,.05h0c-.66-8.21,5.8-16,12.01-17.48,4.6-1.1,8.48,1.29,10.64,6.56,1.02,2.49,1,5.8,.99,8.73,0,.63,0,1.23,0,1.8,0,.03-.01,.07-.02,.1,2-.03,4.02-.07,6.01-.09,.43,0,.87-.02,1.3-.03Zm-8.28,.14s-.02-.06-.03-.1c0-.57,0-1.18,0-1.81,.01-2.83,.03-6.03-.91-8.34-1.98-4.83-5.34-6.95-9.46-5.97-5.69,1.36-11.84,8.82-11.24,16.41,0,.03,0,.06,0,.08,5.76,0,11.52-.11,17.19-.21,1.49-.03,2.97-.04,4.47-.07Zm-32.26,60.4c.09-.68-.74-1.67-2.51-2.27-.02,0-.03,.01-.04,.01-.08,0-.16-.02-.23-.05-1.93-.97-4.52-.93-7.02-.89-.9,.01-1.73,.01-2.54-.02-.09,.09-.22,.14-.37,.13-1.98-.07-3.23,.74-3.29,1.58-.04,.6,.58,1.27,2.03,1.54,.13-.08,.28-.1,.44-.05,2.97,1.08,6.64,1.47,10.94,1.15,.14-.01,.26,.04,.36,.12,1.31-.16,2.14-.62,2.23-1.25Zm-1.88,30.63c.44-5.5,.4-11.23,.38-16.75-.02-3.87-.03-7.89,.11-11.8-.37,.08-.8,.12-1.3,.12h-.03c-.14,0-.26,0-.36-.1-.79,.05-1.57,.14-2.31,.14-2.97,0-5.6-.39-7.88-1.14-.03,0-.06,.01-.09,.01-.02,0-.03,0-.05,0-.65-.06-1.19-.18-1.64-.35h0c0,5.91-.04,14.56-.38,21.61l-.12,2.64c-.06,1.24-.11,2.48-.17,3.66,0,.03-.02,.07-.02,.1,2.76,2.92,5.3,5.89,7.4,8.65,2.23-2.63,4.92-5.05,6.58-6.45-.07-.09-.11-.22-.1-.35Z"/><path class="cls-4" d="M131.65,230.27c-2.12,0-4.1-.02-6.07-.07-2.8-.07-5.72-.1-8.54-.12h-.3c-8.35-.08-17.8-.17-26.42-1.34-.17,.08-.41,.13-.6,.09-.85-.07-1.76-.16-2.68-.25l-.52-.05c-2.21-.21-4.51-.44-6.74-.59-13.05-.92-19.27-5.67-23.76-18.15-.06-.17-.08-.36-.04-.54-.66-1.83-1.45-3.61-2.22-5.32-.88-1.96-1.88-4.17-2.61-6.41-2.82-8.67-4.19-18.25-4.3-30.15-.02-1.98-.07-3.99-.13-6.02-.18-6.51-.36-13.24,.64-19.6,.02-.11,.06-.22,.12-.32,.12-2.07,.3-4.12,.46-5.94,.28-3.24,.58-6.59,.61-9.92,.07-9.1,1.26-22.52,6.54-34.79,.42-.98,.86-2.03,1.33-3.14l.29-.68c3.46-8.3,8.19-19.64,14.1-25.31,1.51-12.79,7.42-18.25,19.75-18.25,1.57,0,3.26,.08,5.17,.25,.1,.01,.19,.03,.27,.06,2.49,.11,5.1,.19,7.79,.24l.02-.55c.28-10.15,.52-18.92,12.39-22.15,3.68-1,7.1-1.51,10.17-1.51,7.75,0,13.22,3.23,15.83,9.34,1.61,3.76,2.19,8.38,1.81,14.49,.88-.03,1.77-.07,2.63-.1,1.96-.08,3.71-.13,5.35-.15,.15-.11,.33-.18,.51-.19,1.01-.06,2-.09,2.92-.09,12.91,0,16.69,6.09,18.35,15.24,4.38,5.23,7.23,12.16,9.99,18.86,.95,2.31,1.85,4.5,2.82,6.62,4.3,9.45,6.92,19.73,9.45,29.68l.13,.49c.42,1.63,.85,3.27,1.29,4.91,1.12,4.17,2.28,8.48,3.03,12.76,.02,.12,.02,.24-.01,.37,1.64,6.99,2.02,14.52,2.18,21.61,.07,3.11,.23,6.31,.38,9.39v.11c.37,7.28,.74,14.81,.06,22.11-.22,2.38-.68,4.83-1.08,7-.45,2.42-.87,4.8-1.07,7.13,.04,.1,.06,.2,.06,.31,.06,4.32-.58,18.92-11.05,25.66-2.69,1.73-6.28,2.54-8.19,2.87-.03,0-.14,.02-.17,.02-.11,0-.21-.02-.32-.06-2.53,.67-5.01,.76-6.9,.76-.98,0-1.96-.03-2.96-.05h-.1c-1.86-.05-3.87-.08-5.45,.01l-3.02,.18c-10.62,.64-20.65,1.25-31.17,1.25Zm-41.45-2.52s.04,0,.06,0c8.61,1.19,18.1,1.28,26.47,1.35h.3c2.83,.03,5.76,.06,8.56,.12,1.96,.05,3.94,.07,6.05,.07,10.48,0,20.5-.61,31.11-1.25l3.02-.18c1.61-.1,3.64-.07,5.53-.02h.1c.99,.03,1.97,.06,2.94,.06,2.82,0,4.86-.23,6.82-.78,.13-.04,.28-.01,.39,.06,1.84-.31,5.29-1.09,7.84-2.72,10.05-6.46,10.65-20.63,10.6-24.82-.05-.08-.08-.19-.07-.29,.2-2.42,.63-4.86,1.09-7.36,.4-2.15,.85-4.58,1.07-6.91,.68-7.23,.31-14.73-.05-21.97v-.11c-.16-3.09-.32-6.29-.39-9.41-.16-7.08-.54-14.6-2.19-21.54-.02-.1-.02-.2,.02-.29-.74-4.24-1.89-8.53-3.01-12.68-.44-1.65-.88-3.29-1.3-4.92l-.13-.49c-2.52-9.91-5.13-20.15-9.39-29.52-.97-2.13-1.87-4.32-2.83-6.65-2.75-6.67-5.59-13.57-9.92-18.7-.06-.07-.09-.14-.11-.23-.35-1.95-.78-3.74-1.38-5.35,.54,1.48,.95,3.12,1.27,4.9,.02,.13,0,.26-.08,.37,.03,.05,.07,.09,.12,.15,.05,.07,.09,.14,.1,.23,.5,2.96,.82,6.32,1.16,9.88l.09,.94c.33,3.46,.69,7.05,1.09,10.66,0,.08,0,.16-.03,.23,.07,2.1,.39,4.83,.71,7.47,1.16,9.85,2.76,23.33-4.63,27.98-2.19,1.37-5.49,1.58-7.26,1.58h0c-.56,0-1.11-.02-1.63-.06-.01,0-.03,.01-.04,.02h.03c.36,.05,.94,.08,1.66,.08,2.16,0,5.18-.27,7.26-1.58,7.41-4.65,5.82-18.15,4.65-28.01-.26-2.2-.51-4.32-.63-6.13,0-.11,.02-.22,.09-.31-.4-3.68-.82-7.69-1.22-11.92l-.09-.95c-.26-2.75-.53-5.59-.89-8.15-.03-.22,.09-.44,.3-.52,.2-.08,.44-.02,.58,.16,3.71,4.96,6.29,11.22,8.79,17.28l.05,.13c.94,2.29,1.84,4.45,2.78,6.52,4.26,9.36,6.87,19.6,9.39,29.5l.13,.51c.41,1.63,.86,3.28,1.3,4.92,.82,3.07,1.76,6.55,2.49,10.01,.03,.17-.02,.34-.14,.45,2.16,7.49,2.63,15.98,2.82,24.04,.07,3.15,.23,6.38,.39,9.49,.36,7.28,.73,14.77,.05,22-.22,2.32-.67,4.76-1.07,6.9-.53,2.86-1.07,5.78-1.19,8.66,.1,.1,.16,.24,.16,.37-.03,1.36-.14,2.84-.32,4.29-.02,.15-.1,.28-.23,.36-.13,.08-.29,.09-.43,.03l-.16,.07c-.63,.31-1.28,.64-2,.93-8.07,3.17-17.21,5.5-25.76,6.54-5.95,.73-11.95,.82-16.51,.82-2.2,0-4.39-.02-6.56-.05-2.33-.02-4.66-.05-7.01-.05h-.73c-3.07,0-6.15-.03-9.22-.06h-.84c-3.34-.04-6.73-.08-10.15-.08-2.93,0-5.54,.03-7.97,.08-10.63,.22-20.67-.92-31.36-2.13l-1.81-.2c-1.1-.12-2.24-.24-3.41-.35-6.55-.64-13.97-1.37-19.36-4.84-.14-.04-.23-.13-.29-.26-.38-.89-.77-1.76-1.15-2.63-.91-2.03-1.86-4.13-2.57-6.31-2.79-8.56-4.14-18.04-4.25-29.84-.02-1.94-.07-3.9-.13-5.88v-.16c-.15-5.49-.3-11.17,.27-16.63,.02-.19,.15-.36,.34-.41,.09-2.95,.35-5.88,.6-8.71,.29-3.25,.58-6.61,.61-10,.07-9,1.25-22.28,6.46-34.4,.47-1.09,.97-2.29,1.5-3.55l.12-.28c3.25-7.81,7.71-18.5,13.15-24.23,.14-.15,.36-.19,.55-.11,.19,.08,.3,.27,.29,.48-.06,.93-.11,1.86-.14,2.77-.04,1.27-.09,2.63-.24,4-.02,.17-.12,.32-.28,.39,.01,.45,.03,.9,.03,1.36,0,.02-.01,.13-.02,.15,0,.06-.02,.13-.03,.19,.02,.06,.04,.12,.04,.18-.02,3.09-.46,6.86-.89,10.51-1.36,11.55-2.91,24.64,5.14,30.49,1.72,1.25,4.38,1.94,7.47,1.94,1,0,2-.07,2.95-.21h0c.12,0,.27,.03,.36,.1,.12,.09,.23,.22,.23,.38-.06,4.35-.17,8.14-.32,11.28l-.12,2.64c-.05,1.18-.11,2.35-.16,3.47,0,.13-.06,.24-.15,.33h-.01c2.98,3.18,5.73,6.39,7.93,9.32,.08-.09,.23-.15,.35-.16,2.45-2.91,5.5-5.59,7.11-6.92-.21-.07-.34-.3-.32-.52,.42-5.51,.4-11.15,.37-16.61v-2.33c0-.16,.07-.31,.2-.4,.06-.04,.13-.07,.2-.08-.08-.01-.16-.04-.22-.09-.12-.09-.19-.24-.19-.39,0-2.45,0-5.67,.13-8.84,0-.18,.11-.34,.28-.42,.87-.41,1.06-.98,1.1-1.28,.14-1.07-1.05-2.24-2.9-2.85-.08,0-.19,0-.27-.04-1.68-.81-3.84-.92-5.73-.92-.48,0-.96,0-1.43,.01-.47,0-.93,.01-1.38,.01-.82,0-1.45-.03-2-.08-.08,.1-.22,.18-.34,.19-1.97,.16-2.93,1.18-2.98,2.05-.04,.58,.3,1.13,.93,1.53,.14,.09,.22,.23,.23,.39v.03s.02-.02,.03-.03c.13-.09,.3-.11,.45-.06,.44,.16,.95,.27,1.52,.32,.08-.01,.17-.02,.24,0,2.27,.74,4.87,1.11,7.73,1.11,.41,0,.83-.03,1.26-.06-3.71,.13-6.91-.3-9.56-1.27-.1,.06-.24,.09-.36,.07-1.86-.35-2.47-1.29-2.43-2.05,.07-1.02,1.31-2.04,3.55-2.04h.24c.1-.09,.24-.12,.37-.12,.79,.03,1.62,.04,2.51,.02,.51,0,1-.02,1.48-.02,2,0,4.08,.12,5.75,.95h0c.07-.01,.14,0,.21,.02,2.12,.71,2.95,1.91,2.84,2.79-.1,.72-.77,1.26-1.89,1.53,.12,0,.24,.04,.33,.11,.12,.1,.18,.24,.17,.39-.14,4.05-.12,8.34-.11,11.78v.1c.03,5.5,.05,11.2-.38,16.68,.15,.21,.13,.51-.07,.68-1.45,1.22-4.22,3.68-6.52,6.4-.1,.11-.22,.19-.38,.17-.15,0-.29-.08-.37-.19-2.07-2.73-4.62-5.71-7.36-8.61-.12-.12-.16-.29-.12-.46,.07-1.18,.13-2.42,.18-3.66l.12-2.64c.34-7.07,.38-15.67,.38-21.54,0-.02,0-.03,0-.05v-.02s-.02,.01-.02,.02c-.01,2.68-.02,5.92-.06,9.32,0,.14-.07,.28-.18,.37-.11,.09-.26,.13-.4,.1-1,.14-2,.21-3.01,.21-3.06,0-5.7-.69-7.42-1.94-8.02-5.83-6.48-18.91-5.12-30.45,.47-4.01,.92-7.81,.89-10.95,.35-2.07,.42-4.07,.48-5.84,.05-1.46,.1-2.97,.28-4.46,1.44-12.18,7.02-17.38,18.65-17.38,1.16,0,2.38,.05,3.73,.14,.1,0,.19,.04,.27,.1,5.07,.27,10.69,.4,17.2,.4,5.99,0,12.03-.11,17.88-.21h.6c3.69-.07,7.36-.14,11.02-.18,.34,0,.68-.01,1.02-.02l.57-.02c.05,0,.1,0,.15,.02,.06-.03,.14-.03,.21-.03,.53-.01,1.07-.02,1.6-.02,.66,0,1.31,0,1.95-.03,2.45-.1,5.09-.1,7.21-.1-.01,0,.02-.04,.04-.08,.09-.14,.24-.23,.4-.23,6.65-.18,10.87,1.11,13.62,3.59-2.61-2.39-6.52-3.71-12.52-3.71-.91,0-1.87,.03-2.86,.09-.09,.11-.24,.19-.38,.19-1.69,.02-3.49,.07-5.51,.15-1.04,.04-2.11,.08-3.18,.12-.13,0-.27-.05-.37-.15-.1-.1-.14-.23-.13-.37,.44-6.22-.1-10.86-1.69-14.58-.67-1.57-1.55-2.94-2.62-4.1,1.05,1.16,1.91,2.53,2.59,4.12,1.6,3.75,2.14,8.41,1.68,14.66-.02,.25-.22,.44-.47,.45h-.17c-.38,.02-.76,.03-1.14,.03-1.35,.01-2.7,.04-4.06,.06l-1.94,.03c-.17-.01-.29-.06-.38-.17-.09-.11-.13-.26-.1-.41,0-.57,0-1.17,0-1.8,.01-2.9,.03-6.15-.95-8.54-2.05-5.01-5.74-7.31-10.07-6.27-6.02,1.43-12.28,8.99-11.64,16.96,.01,.14-.04,.27-.13,.37-.09,.1-.22,.16-.36,.16-2.09,0-4.17-.01-6.26-.05-.13,0-.25-.06-.34-.15-.09-.09-.14-.22-.14-.35l.03-1.02c.12-4.27,.23-8.16,1.14-11.46-.95,3.37-1.06,7.29-1.18,11.46l-.03,1.03c0,.27-.26,.44-.5,.47-2.89-.05-5.72-.14-8.39-.26-.07,0-.14-.02-.21-.06-1.89-.17-3.55-.25-5.1-.25-11.73,0-17.34,5.21-18.78,17.41-.01,.11-.08,.37-.16,.44-5.82,5.48-10.55,16.82-14,25.1l-.29,.68c-.46,1.11-.91,2.17-1.33,3.15-5.21,12.12-6.39,25.4-6.46,34.41-.03,3.37-.32,6.74-.61,10-.16,1.85-.34,3.95-.47,6.05,0,.1-.04,.2-.11,.28-1,6.28-.81,12.96-.64,19.43,.06,2.03,.11,4.05,.13,6.04,.11,11.8,1.46,21.28,4.26,29.85,.71,2.19,1.66,4.28,2.57,6.31,.8,1.78,1.63,3.63,2.31,5.55,.04,.12,.04,.25-.02,.37,1.53,4.25,3.26,7.57,5.42,10.13-1.82-2.17-3.33-4.91-4.68-8.3-.02-.04-.03-.09-.03-.14-.28-1.05-.66-2.16-1.18-3.47-.07-.19-.02-.41,.13-.54,.16-.14,.38-.16,.56-.06,5.29,2.94,12.22,3.62,18.33,4.22,1.17,.11,2.31,.23,3.41,.35l1.81,.2c10.69,1.21,20.74,2.35,31.36,2.13,2.39-.05,4.96-.08,7.84-.08,3.45,0,6.9,.03,10.27,.07,3.59,.03,7.19,.06,10.79,.07,2.34,0,4.67,.02,7.01,.05h.79c1.91,.03,3.84,.05,5.78,.05,4.55,0,10.54-.09,16.5-.82,8.55-1.04,17.7-3.37,25.77-6.54,.67-.27,1.31-.58,1.96-.91,.16-.08,.36-.06,.5,.04,.15,.11,.22,.29,.2,.47-.87,5.85-3.33,13.73-10.11,18.09-1.65,1.06-4.08,1.96-6.84,2.53-.17,.04-.34-.02-.46-.14-2.76,.92-5.44,1.04-7.7,1.04-.98,0-1.96-.03-2.97-.05-1.91-.05-3.97-.09-5.63,.01l-2.86,.17c-10.64,.65-20.69,1.26-31.23,1.26-2.06,0-4.11-.02-6.09-.07-2.87-.07-5.83-.1-8.86-.12-9.45-.09-19.15-.18-28.04-1.57-.1,.12-.27,.19-.43,.18l-1.55-.15c-2.26-.22-4.59-.44-6.87-.6-4.48-.31-8.09-1.07-11.08-2.44,3.02,1.4,6.64,2.17,11.08,2.48,2.25,.16,4.54,.38,6.77,.59l.52,.05c.91,.09,1.83,.18,2.74,.26,.09-.07,.22-.12,.34-.12Zm-1.51-1.23s.12,0,.14,.01c8.83,1.38,18.5,1.47,27.85,1.56,3.1,.03,6.06,.06,8.94,.12,1.97,.05,4.02,.07,6.06,.07,10.51,0,20.54-.61,31.17-1.26l2.86-.17c1.69-.1,3.78-.07,5.72-.01,.99,.03,1.97,.05,2.94,.05,2.18,0,4.76-.12,7.38-.99,.25-.09,.56-.06,.8,.07,2.56-.55,4.78-1.38,6.29-2.36,6.12-3.94,8.56-10.96,9.52-16.49-.39,.19-.78,.36-1.19,.53-8.14,3.2-17.38,5.55-26.01,6.6-6.01,.73-12.04,.83-16.62,.83-1.94,0-3.87-.02-5.79-.04h-.8c-2.33-.04-4.66-.05-7-.06-3.61,0-7.21-.03-10.8-.07-3.37-.03-6.81-.07-10.26-.07-2.88,0-5.44,.03-7.82,.08-10.68,.22-20.77-.92-31.49-2.14l-1.81-.21c-1.1-.12-2.23-.23-3.4-.35-5.78-.57-12.28-1.2-17.57-3.75,.31,.85,.56,1.62,.77,2.38,0,.02,.01,.06,.02,.1,4.11,10.24,9.7,14.17,21.32,14.98,2.29,.16,4.63,.39,6.89,.61l1.35,.13c.16-.11,.35-.17,.54-.17Zm52.27-13.52h0c2.35,0,4.68,.02,7.02,.05,2.17,.02,4.35,.05,6.55,.05,4.54,0,10.5-.09,16.39-.81,8.47-1.03,17.53-3.33,25.52-6.48,.67-.27,1.31-.59,1.93-.9l.15-.07c.06-.03,.12-.05,.18-.07,.14-1.21,.23-2.44,.26-3.58-.11-.17-.16-.36-.15-.56,.13-2.95,.67-5.91,1.2-8.77,.4-2.16,.84-4.57,1.06-6.85,.67-7.16,.3-14.62-.05-21.83-.16-3.16-.32-6.39-.39-9.55-.19-7.99-.65-16.41-2.79-23.78-.07-.26-.04-.52,.09-.75-.72-3.37-1.63-6.75-2.43-9.75-.45-1.65-.89-3.29-1.3-4.93l-.13-.49c-2.51-9.87-5.1-20.07-9.33-29.35-.95-2.09-1.84-4.25-2.79-6.55l-.05-.13c-2.21-5.36-4.48-10.89-7.54-15.47,.25,2.03,.45,4.16,.64,6.24l.09,.95c.4,4.23,.81,8.23,1.23,11.9,.02,.17,0,.34-.08,.5,.13,1.76,.37,3.81,.62,5.94,1.2,10.11,2.83,23.97-5.1,28.95-2.28,1.43-5.49,1.73-7.78,1.73-.55,0-1.01-.02-1.34-.04,.11,4.76,.11,9.88,0,15.22,0,.05,0,.11-.02,.16,.04,.23,0,.46-.12,.66-1.57,2.64-3.62,5.21-6.07,7.63-.37,.37-1.03,.37-1.4,0-.1-.1-.17-.22-.22-.35-1.16-.97-2.28-2.01-3.51-3.16-1.56-1.47-2.96-2.77-4.42-3.88-.14-.06-.27-.16-.37-.29-.36-.29-.48-.75-.32-1.15-.81-4.85-.86-10.12-.77-15.12-.93-.16-2.01-.23-3.34-.23-1.19,0-2.46,.06-3.58,.11l-2.39,.11c-4.69,.21-9.53,.43-14.43,.43-8.09,0-14.41-.6-19.81-1.89v1.7c.03,5.38,.06,10.94-.34,16.4,.03,.03,.06,.05,.08,.08,.35,.42,.29,1.05-.13,1.4-1.58,1.32-4.59,3.94-6.97,6.8-.12,.15-.29,.26-.49,.31-.5,.37-1.09,.24-1.41-.19-2.18-2.91-4.9-6.09-7.86-9.2-.33-.35-.36-.89-.08-1.27,.05-1.06,.1-2.17,.15-3.28l.12-2.64c.14-2.99,.25-6.58,.31-10.68-.81,.1-1.68,.15-2.56,.15-3.3,0-6.16-.76-8.05-2.13-8.5-6.18-6.92-19.57-5.53-31.39,.42-3.59,.86-7.3,.88-10.32-.04-.15-.05-.3-.03-.44l.02-.14c0-.45,0-.88-.04-1.3-.02-.3,.1-.59,.31-.79,.12-1.26,.17-2.52,.21-3.71,.02-.46,.03-.93,.06-1.41-4.9,5.8-9,15.62-12.04,22.91l-.12,.28c-.53,1.27-1.03,2.47-1.5,3.56-5.14,11.97-6.31,25.11-6.38,34.02-.03,3.43-.33,6.81-.61,10.08-.25,2.82-.5,5.73-.58,8.64,0,.3-.15,.58-.38,.75-.54,5.32-.39,10.87-.24,16.25v.16c.06,1.99,.11,3.96,.13,5.9,.11,11.7,1.45,21.09,4.21,29.55,.69,2.13,1.63,4.21,2.53,6.21,.36,.81,.73,1.64,1.08,2.47,5.19,3.34,12.48,4.05,18.91,4.68,1.18,.12,2.33,.23,3.44,.35l1.81,.21c10.65,1.21,20.67,2.35,31.23,2.12,2.44-.05,5.05-.08,7.99-.08,3.42,0,6.82,.03,10.16,.07h.84c3.06,.04,6.13,.07,9.21,.07h.73Zm1.13-95.9c1.59,0,2.84,.1,3.93,.32,.23,.05,.4,.25,.39,.49-.1,5.14-.07,10.57,.77,15.52,.02,.13,0,.25-.08,.36,.02,.02,.09,.09,.1,.11l.07,.08c.05,.02,.1,.04,.14,.07,1.51,1.14,2.95,2.48,4.55,3.99,1.26,1.18,2.4,2.24,3.58,3.22,.09,.08,.15,.18,.17,.3,2.42-2.35,4.41-4.86,5.94-7.42-.01-.03-.02-.06-.02-.1-.01,.05-.03,.1-.05,.14-1.41,2.36-3.24,4.69-5.45,6.92-.18,.18-.47,.19-.66,.03-1.2-1.01-2.38-2.1-3.48-3.14-1.31-1.23-2.94-2.76-4.54-3.97-.1-.07-.16-.18-.19-.3-1.07-5.99-.9-12.63-.75-19.05,.05-2.2,.1-4.34,.11-6.43,0-.15,.07-.29,.18-.38,.11-.09,.27-.13,.41-.1,.85,.19,1.49,.16,2.27,.03,.06-.03,.12-.06,.18-.07,3.55-.33,6.39-.41,9.1-.27,.01,0,.02-.01,.03-.02h-.03c-2.98-.18-5.91-.07-9.8,.32-.07,.05-.16,.09-.25,.09-1.48,.09-2.73-.35-3.46-1.24-.55-.66-.7-1.45-.42-2.17,.3-.78,1.11-1.38,2.27-1.69,.06-.02,.13-.02,.19-.01h.06c2.74-.48,6.71-1.17,10.54-1.02,.14,0,.26,.07,.35,.17,2.18,.1,3.63,1.63,3.73,2.99,.09,1.25-.92,2.2-2.71,2.55h-.03l.03,.03c.43-.07,.82-.19,1.19-.35,.15-.06,.31-.05,.45,.03,.14,.08,.22,.23,.23,.39,.5,7.52,.67,16.36,.48,26.27,0,.02,.01,.04,.01,.07,0-.03,.01-.05,.02-.08,.1-5.52,.1-10.82-.02-15.73,0-.16,.07-.32,.21-.41,.03-.02,.07-.04,.1-.05-.03-.01-.07-.03-.1-.05-.14-.09-.23-.23-.23-.4-.1-3.59-.25-6.97-.46-10.03-.07-.19-.02-.39,.13-.53,.54-.47,.79-1.04,.74-1.7-.09-1.27-1.39-2.73-3.41-2.98-.14-.02-.27-.09-.34-.21-3.47-.24-6.91,.3-10.08,.85-.07,.01-.14,0-.21-.01-2.23,.3-2.94,1.32-3.17,1.9-.28,.72-.12,1.55,.43,2.21,.27,.32,.64,.6,1.09,.82,.19,.09,.3,.3,.27,.51,0,2.11-.06,4.35-.11,6.52v.19c-.02,.73-.04,1.47-.06,2.2,0,.14-.07,.28-.18,.37-.11,.09-.25,.13-.4,.1-1.06-.2-2.26-.29-3.77-.29-1.2,0-2.43,.06-3.62,.11l-2.27,.11c-4.71,.21-9.57,.43-14.48,.43-8.31,0-14.72-.64-20.16-2h-.02s-.04,.02-.06,.02c.04,0,.07,.02,.11,.03,5.4,1.36,11.81,1.99,20.12,1.99,4.87,0,9.71-.22,14.38-.43l2.39-.11c1.13-.05,2.41-.12,3.63-.12Zm-55.44,16.15c2.55,2.7,4.92,5.47,6.9,8.04,2.12-2.43,4.54-4.6,5.98-5.83-.01-.08-.02-.15-.01-.23,.43-5.45,.4-11.12,.38-16.61v-.1c-.02-3.29-.04-7.34,.09-11.23-.25,.03-.51,.04-.8,.04-.13,0-.32,0-.51-.09-.21,.01-.43,.03-.64,.05-.53,.04-1.04,.08-1.55,.08-2.92,0-5.59-.38-7.93-1.13-.11,0-.11,0-.15,0-.38-.04-.75-.1-1.1-.18,0,5.86-.05,14.13-.38,20.98l-.12,2.63c-.05,1.21-.11,2.42-.17,3.57Zm61.55,.12c1.59,1.22,3.18,2.72,4.47,3.92,.99,.92,2.03,1.9,3.09,2.81,1.96-2.03,3.61-4.14,4.89-6.26,0-.03,0-.05,0-.08,.18-9.59,.03-18.17-.44-25.53-.24,.08-.49,.14-.75,.19-.03,0-.16,.02-.19,.02-.08,0-.17-.01-.25-.03-.08,.02-.17,.04-.25,.04-.87-.04-1.7-.06-2.55-.06-1.9,0-3.99,.11-6.38,.33-.05,.02-.11,.04-.17,.06-.75,.14-1.38,.17-2.08,.07-.01,1.91-.06,3.87-.1,5.87-.15,6.3-.31,12.82,.7,18.67Zm-46.32-18.58c5.35,1.33,11.65,1.95,19.84,1.95,4.89,0,9.74-.22,14.43-.43l2.28-.11c1.2-.06,2.44-.12,3.67-.12,1.32,0,2.41,.07,3.39,.21,.01-.55,.03-1.1,.04-1.65v-.19c.05-2.08,.11-4.23,.11-6.28-.46-.26-.84-.57-1.13-.92-.78-.94-1-2.13-.59-3.18,.31-.78,1.22-2.14,3.93-2.51,.02,0,.12,0,.14,0,.05,0,.1,0,.15,.01,3.2-.55,6.71-1.05,10.2-.85,.22,.01,.43,.1,.59,.25,2.41,.37,3.96,2.22,4.08,3.84,.07,.88-.23,1.67-.86,2.32,.2,2.91,.35,6.1,.45,9.48,.42,.03,.89,.04,1.37,.04,2.84,0,5.29-.52,6.74-1.43,6.87-4.31,5.32-17.45,4.18-27.04-.31-2.66-.64-5.41-.71-7.55,0-.09,0-.18,.02-.26-.39-3.59-.75-7.15-1.08-10.58l-.09-.94c-.33-3.49-.64-6.78-1.13-9.68v-.02c-.27-.29-.33-.67-.19-1.01-1.59-8.51-4.92-13.34-17.16-13.04-.19,.21-.42,.32-.67,.32-2.12,0-4.76,0-7.2,.1-.65,.03-1.32,.03-1.98,.04-.5,0-.99,0-1.49,.02-.1,.03-.2,.05-.3,.05-.12,0-.19-.02-.23-.04h-.49c-.35,.02-.69,.03-1.04,.04-3.65,.04-7.33,.1-11.01,.17h-.6c-5.85,.11-11.9,.22-17.9,.22-6.52,0-12.16-.13-17.24-.39-.15,0-.29-.05-.42-.12-1.28-.09-2.43-.13-3.53-.13-11.17,0-16.3,4.79-17.68,16.52-.17,1.45-.22,2.94-.27,4.38-.06,1.71-.13,3.83-.49,5.88,.03,3.12-.42,6.94-.89,10.98-1.33,11.28-2.84,24.06,4.72,29.55,1.56,1.13,3.99,1.75,6.85,1.75,.88,0,1.76-.06,2.62-.17,.04-3.23,.04-6.29,.04-8.84,0-.1,.01-.19,.04-.28-.68-.57-1.03-1.33-.98-2.13,.08-1.29,1.26-2.68,3.71-2.94,.17-.13,.38-.21,.6-.21,.61,.06,1.22,.08,2,.08,.44,0,.89,0,1.36-.01,.47,0,.96-.02,1.45-.02,1.96,0,4.21,.12,6.05,.97,.11,0,.18,.02,.24,.04,2.34,.77,3.77,2.34,3.57,3.9-.06,.46-.32,1.29-1.38,1.9-.1,2.86-.12,5.76-.12,8.06Zm45.41-11.07c-.8,.23-1.34,.62-1.53,1.09-.15,.38-.06,.81,.27,1.2,.52,.62,1.43,.95,2.54,.9,.1-.05,.21-.08,.32-.1,3.94-.39,6.92-.5,9.95-.34,.07,0,.14,.01,.2,.03,.02,0,.04-.01,.06-.01,.61-.12,2-.5,1.93-1.52-.07-.93-1.23-2.02-2.79-2.08-.19,0-.38-.07-.53-.19-3.68-.11-7.51,.54-10.23,1.02-.03,0-.15,.02-.18,.01Zm-48.34,2.56c.08,.02,.15,.06,.21,.12,.15-.01,.28-.02,.41-.03-.08-.02-.15-.05-.21-.11v0c-.14,0-.27,.02-.4,.03Zm-10.74-2.18c.11,0,.22,.02,.33,.06,2.89,1.05,6.53,1.44,10.73,1.12,.16,0,.36,.03,.51,.1,1.07-.16,1.6-.52,1.64-.81,.05-.38-.58-1.17-2.07-1.7h0c-.16,0-.31-.04-.45-.11-1.86-.94-4.4-.87-6.76-.84-.93,.02-1.67,.01-2.43-.02-.14,.08-.3,.12-.47,.12h-.27c-1.63,0-2.55,.65-2.58,1.12-.02,.33,.44,.78,1.49,1.01,.11-.04,.22-.06,.33-.06Zm17.55-60.11c1.74,.02,3.49,.04,5.23,.04-.38-8.23,6.14-15.97,12.42-17.46,.76-.18,1.53-.28,2.26-.28,3.88,0,7.06,2.53,8.94,7.13,1.05,2.57,1.04,5.92,1.03,8.88,0,.51,0,.98,0,1.43l1.43-.02c1.36-.02,2.72-.05,4.07-.06,.28,0,.57,0,.85-.02,.38-5.87-.14-10.26-1.64-13.77-2.31-5.41-6.98-8.16-13.86-8.16-2.91,0-6.21,.49-9.79,1.47-10.44,2.84-10.65,10.54-10.93,20.29v.53Zm20.57-23.28c-2.98,0-6.31,.5-9.91,1.48-2.67,.73-4.71,1.76-6.28,3.05,1.57-1.27,3.62-2.28,6.29-3.01,4.4-1.2,8.38-1.68,11.8-1.44-.61-.05-1.25-.07-1.9-.07Zm-13.84,24.29c-.14,0-.27-.06-.36-.16-.09-.1-.14-.24-.13-.37-.62-7.82,5.74-15.52,11.62-16.93,.69-.16,1.38-.25,2.04-.25,3.49,0,6.25,2.25,7.99,6.5,.98,2.39,.96,5.64,.95,8.51,0,.64,0,1.25,0,1.82,.04,.15,.02,.29-.07,.41-.09,.12-.23,.18-.38,.18l-2.05,.03c-.8,.01-1.61,.02-2.42,.04-5,.09-11.22,.2-17.19,.21h0Zm13.17-16.73c-.58,0-1.19,.07-1.81,.22-5.41,1.29-11.25,8.31-10.89,15.53,5.83-.01,11.85-.12,16.71-.21,.81-.02,1.61-.03,2.42-.04l1.54-.02c0-.47,0-.95,0-1.44,.01-2.79,.03-5.94-.88-8.15-1.58-3.86-4.03-5.9-7.09-5.9Z"/></g><g><path class="cls-7" d="M201.5,163.15c.36,7.23,.73,14.7,.05,21.9-.22,2.27-.64,4.61-1.06,6.86-.53,2.85-1.07,5.8-1.2,8.73,0,.15,.06,.28,.16,.38-.03,1.14-.11,2.59-.32,4.24-.13-.05-.27-.05-.4,.02l-.14,.07c-.66,.33-1.29,.65-1.97,.91-8.02,3.16-17.13,5.47-25.64,6.51-7.67,.94-15.47,.85-23.01,.77-2.33-.03-4.66-.05-7.01-.05-3.6,0-7.2-.03-10.79-.07-5.94-.06-12.07-.12-18.13,0-10.56,.22-20.63-.92-31.29-2.13l-1.81-.21c-1.1-.12-2.25-.24-3.42-.35-6.49-.64-13.85-1.36-19.15-4.77-.03-.02-.07-.03-.1-.04-.38-.89-.77-1.77-1.15-2.63-.91-2.03-1.85-4.12-2.55-6.26-2.77-8.51-4.12-17.95-4.23-29.69-.02-1.99-.07-4.01-.13-6.05-.15-5.5-.3-11.16,.27-16.56,.2-.06,.35-.24,.36-.47,.08-2.91,.33-5.84,.58-8.67,.29-3.27,.58-6.65,.61-10.04,.07-8.96,1.24-22.17,6.42-34.21,.51-1.18,1.04-2.47,1.62-3.84,3.27-7.84,7.69-18.42,13.05-24.08-.06,.94-.11,1.87-.14,2.79-.04,1.3-.1,2.64-.23,3.96-.18,.09-.3,.28-.29,.49,.03,.43,.04,.86,.04,1.32-.01,.08-.02,.16-.04,.25-.02,.1,0,.19,.03,.27-.02,3.02-.44,6.64-.89,10.46-1.38,11.69-2.94,24.93,5.33,30.94,2.06,1.5,5.02,2.04,7.76,2.04,1.06,0,2.09-.08,3.03-.22,.01,0,.02,0,.03-.01-.05,3.79-.15,7.73-.32,11.27l-.12,2.64c-.05,1.18-.11,2.35-.16,3.46,0,0-.02,0-.02,.01-.2,.2-.21,.52-.02,.72,2.97,3.12,5.71,6.32,7.9,9.24,.1,.14,.25,.21,.41,.21,.1,0,.21-.03,.3-.1,.03-.02,.04-.05,.07-.07,.13,0,.26-.07,.35-.18,2.39-2.86,5.43-5.52,7.03-6.86,.21-.18,.24-.5,.06-.71-.06-.07-.14-.11-.21-.14,.42-5.49,.4-11.16,.37-16.65,0-.77,0-1.55,0-2.33h.01c6.26,1.58,13.27,2.03,20.29,2.03,4.92,0,9.85-.22,14.52-.43l2.28-.1c2.57-.12,5.23-.25,7.44,.19-.1,5.32-.06,10.68,.78,15.61-.16,.23-.11,.53,.11,.69,.02,.01,.03,.02,.05,.04,.06,.09,.15,.16,.26,.2,1.52,1.15,2.97,2.5,4.51,3.95,1.16,1.09,2.37,2.21,3.61,3.24,.02,.1,.05,.2,.13,.28,.1,.1,.23,.15,.36,.15s.26-.05,.36-.15c2.43-2.4,4.44-4.93,5.99-7.53,.08-.14,.08-.29,.03-.43,.02-.05,.04-.11,.04-.16,.1-5.61,.1-10.87-.02-15.76,.05,.02,.1,.04,.15,.04,.36,.03,.95,.06,1.69,.06,2.08,0,5.29-.26,7.52-1.66,7.67-4.82,6.06-18.49,4.88-28.48-.26-2.21-.5-4.3-.63-6.11,.07-.1,.11-.22,.09-.34-.42-3.71-.83-7.71-1.23-11.91l-.09-.95c-.28-2.92-.54-5.66-.9-8.17,3.65,4.87,6.23,11.11,8.73,17.18,.97,2.34,1.88,4.55,2.84,6.67,4.25,9.33,6.85,19.55,9.36,29.43l.13,.49c.41,1.64,.86,3.28,1.3,4.92,.88,3.28,1.78,6.64,2.48,9.99-.13,.13-.19,.31-.14,.5,2.15,7.43,2.62,15.88,2.81,23.9,.07,3.17,.23,6.41,.39,9.54Zm-25.85,15.01c1.72-2.52,1.55-6.46-.48-11.98-2.52-8.86-7.22-12.82-15.08-12.68-.11-.08-.24-.13-.39-.11-3.16,.44-6.96,.39-10.64,.34-1.85-.02-3.76-.05-5.54,0-6.17,.14-12.34-.18-18.3-.49-5.54-.29-11.26-.58-17.04-.52-2.91,.03-5.93-.1-9.13-.25-6.25-.29-12.68-.56-18.45,.48-10.56,1.5-11.94,4.48-13.32,13.88-.12,.08-.21,.21-.22,.37-.63,7.61,2.3,10.06,7.61,11.15,.26,9.47,.51,16.93,11.3,19.21,1.31,.28,2.69,.33,4.01,.37,1.33,.05,2.7,.1,3.99,.38,.04,0,.07,0,.11,0,.21,0,.39-.13,.47-.33,11.58-.03,23.4,1,34.84,1.97,2.76,.23,5.5,.46,8.23,.68,.69,.06,1.39,.12,2.08,.19,1.67,.16,3.37,.32,5.08,.32,1.27,0,2.54-.1,3.81-.35,.03,.01,.06,.03,.09,.04,1.15,.24,2.24,.33,3.31,.33s2.12-.08,3.2-.17l1.07-.08c15.11-1.06,15.8-7.64,15.66-20.15,1.64-.54,2.9-1.39,3.71-2.59Z"/><path class="cls-4" d="M154.53,214.07c-2.2,0-4.39-.02-6.56-.05-2.33-.02-4.66-.05-7.01-.05h-.73c-3.07,0-6.14-.03-9.21-.06h-.85c-3.34-.04-6.73-.08-10.15-.08-2.93,0-5.54,.03-7.97,.08-10.63,.21-20.67-.92-31.36-2.13l-1.81-.2c-1.1-.12-2.24-.24-3.41-.35-6.55-.64-13.97-1.37-19.36-4.84-.14-.04-.23-.13-.29-.26-.38-.89-.77-1.76-1.15-2.63-.91-2.03-1.86-4.13-2.57-6.31-2.79-8.56-4.14-18.04-4.25-29.84-.02-1.94-.07-3.9-.13-5.89v-.15c-.15-5.49-.3-11.17,.27-16.63,.02-.19,.15-.36,.34-.41,.09-2.95,.35-5.88,.6-8.71,.29-3.25,.58-6.61,.61-10,.07-9,1.25-22.28,6.46-34.4,.47-1.1,.97-2.29,1.5-3.56l.11-.28c3.25-7.81,7.71-18.5,13.15-24.23,.14-.15,.36-.19,.55-.11,.19,.08,.3,.27,.29,.48-.06,.93-.11,1.86-.14,2.77-.04,1.27-.09,2.63-.24,4-.02,.17-.12,.32-.28,.39,.01,.45,.03,.9,.03,1.36,0,.02-.01,.13-.02,.15,0,.06-.02,.13-.03,.19,.02,.06,.04,.12,.04,.18-.02,3.09-.46,6.86-.89,10.51-1.36,11.55-2.91,24.64,5.14,30.49,1.72,1.25,4.38,1.94,7.47,1.94,1,0,2-.07,2.95-.21h0c.13,0,.27,.03,.36,.1,.12,.09,.23,.22,.23,.38-.06,4.35-.17,8.14-.32,11.28l-.12,2.64c-.05,1.18-.11,2.35-.16,3.47,0,.13-.06,.24-.15,.33h-.01c2.98,3.18,5.73,6.39,7.93,9.32,.08-.09,.23-.15,.35-.16,2.45-2.91,5.5-5.59,7.11-6.92-.21-.07-.34-.3-.32-.52,.42-5.51,.4-11.15,.37-16.61v-2.33c0-.16,.07-.31,.2-.4,.13-.09,.3-.11,.45-.05,5.4,1.36,11.81,1.99,20.12,1.99,4.87,0,9.71-.22,14.38-.43l2.39-.11c1.13-.05,2.41-.12,3.63-.12,1.59,0,2.84,.1,3.93,.32,.23,.05,.4,.25,.39,.49-.1,5.14-.07,10.57,.77,15.52,.02,.13,0,.25-.08,.36,.02,.02,.09,.09,.1,.11l.07,.08c.05,.02,.1,.04,.14,.07,1.51,1.15,2.95,2.48,4.55,3.99,1.26,1.18,2.4,2.24,3.58,3.22,.09,.08,.15,.18,.17,.3,2.42-2.35,4.41-4.86,5.94-7.42-.04-.11-.04-.25,0-.36,.1-5.52,.1-10.82-.02-15.73,0-.16,.07-.32,.21-.41,.13-.09,.31-.11,.46-.05,.36,.03,.94,.07,1.66,.07,2.16,0,5.18-.27,7.26-1.58,7.41-4.65,5.82-18.15,4.65-28.01-.26-2.2-.51-4.32-.63-6.13,0-.11,.02-.22,.09-.31-.4-3.68-.82-7.69-1.22-11.92l-.09-.95c-.26-2.75-.53-5.6-.89-8.15-.03-.22,.09-.44,.3-.52,.2-.08,.44-.02,.58,.16,3.71,4.96,6.29,11.22,8.79,17.28l.05,.13c.94,2.29,1.84,4.45,2.78,6.52,4.26,9.36,6.87,19.6,9.39,29.5l.13,.51c.41,1.63,.86,3.28,1.3,4.92,.82,3.07,1.76,6.55,2.49,10.01,.03,.17-.02,.34-.14,.45,2.16,7.49,2.63,15.98,2.82,24.04,.07,3.16,.23,6.38,.39,9.5,.36,7.28,.73,14.77,.05,22-.22,2.32-.67,4.76-1.07,6.9-.53,2.86-1.07,5.78-1.19,8.66,.1,.1,.16,.24,.16,.37-.03,1.36-.14,2.84-.32,4.29-.02,.15-.1,.28-.23,.36-.13,.08-.29,.09-.43,.03l-.16,.07c-.63,.31-1.28,.64-2,.93-8.07,3.17-17.21,5.5-25.76,6.54-5.95,.73-11.94,.82-16.51,.82Zm-13.57-1.07c2.35,0,4.69,.02,7.02,.05,2.17,.02,4.35,.05,6.55,.05,4.54,0,10.5-.09,16.39-.81,8.47-1.03,17.53-3.33,25.52-6.48,.67-.27,1.31-.59,1.93-.9l.15-.07c.06-.03,.12-.05,.18-.07,.14-1.21,.23-2.44,.26-3.58-.11-.17-.16-.36-.15-.56,.13-2.95,.67-5.91,1.2-8.77,.4-2.16,.85-4.57,1.06-6.85,.67-7.16,.3-14.62-.05-21.83-.16-3.16-.32-6.39-.39-9.56-.19-7.99-.65-16.41-2.79-23.78-.07-.26-.04-.52,.09-.75-.72-3.37-1.63-6.75-2.43-9.75-.45-1.65-.89-3.29-1.3-4.93l-.13-.49c-2.51-9.87-5.1-20.07-9.33-29.35-.95-2.09-1.85-4.26-2.79-6.55l-.05-.13c-2.21-5.36-4.48-10.89-7.54-15.47,.25,2.03,.45,4.16,.64,6.24l.09,.95c.4,4.23,.81,8.23,1.23,11.9,.02,.17,0,.34-.08,.5,.13,1.75,.37,3.81,.62,5.94,1.2,10.11,2.83,23.97-5.1,28.95-2.28,1.43-5.49,1.73-7.78,1.73-.55,0-1.01-.02-1.34-.04,.11,4.76,.11,9.88,0,15.22,0,.05,0,.11-.02,.16,.04,.23,0,.46-.12,.66-1.57,2.64-3.62,5.21-6.07,7.63-.37,.37-1.03,.37-1.4,0-.1-.1-.17-.22-.22-.35-1.16-.97-2.28-2.01-3.51-3.16-1.55-1.47-2.96-2.77-4.42-3.88-.14-.06-.27-.16-.37-.29-.36-.29-.48-.75-.32-1.15-.81-4.85-.86-10.12-.77-15.12-.93-.16-2.01-.23-3.34-.23-1.19,0-2.46,.06-3.58,.11l-2.4,.11c-4.69,.21-9.53,.43-14.42,.43-8.09,0-14.41-.6-19.81-1.89v1.7c.03,5.38,.06,10.94-.34,16.4,.03,.03,.06,.05,.08,.08,.35,.42,.29,1.05-.13,1.4-1.58,1.32-4.59,3.94-6.97,6.8-.12,.15-.29,.26-.49,.31-.5,.37-1.09,.24-1.41-.19-2.18-2.91-4.9-6.09-7.86-9.2-.33-.35-.36-.89-.08-1.27,.05-1.06,.1-2.17,.15-3.28l.12-2.64c.14-2.99,.25-6.58,.31-10.68-.81,.1-1.68,.15-2.56,.15-3.3,0-6.16-.76-8.05-2.13-8.5-6.18-6.92-19.57-5.53-31.39,.42-3.59,.86-7.3,.88-10.32-.04-.15-.05-.3-.03-.44l.02-.14c0-.45,0-.88-.04-1.3-.02-.3,.1-.59,.31-.79,.12-1.26,.17-2.52,.21-3.71,.02-.46,.03-.93,.06-1.41-4.9,5.8-9,15.62-12.04,22.91l-.12,.28c-.53,1.27-1.03,2.47-1.5,3.57-5.14,11.97-6.31,25.11-6.38,34.02-.03,3.43-.33,6.81-.61,10.08-.25,2.82-.5,5.73-.58,8.64,0,.3-.15,.58-.38,.75-.54,5.32-.39,10.87-.24,16.25v.15c.06,1.99,.11,3.96,.13,5.9,.11,11.7,1.45,21.09,4.21,29.55,.69,2.13,1.63,4.21,2.53,6.21,.36,.81,.73,1.64,1.08,2.47,5.19,3.34,12.48,4.05,18.91,4.68,1.18,.12,2.33,.23,3.44,.35l1.81,.21c10.65,1.21,20.66,2.35,31.23,2.12,2.44-.05,5.05-.08,7.99-.08,3.42,0,6.82,.03,10.16,.07h.85c3.06,.04,6.13,.07,9.2,.07h.73Zm11.05-11.37c-1.24,0-2.32-.11-3.41-.34,0,0-.02,0-.03,0-1.18,.22-2.41,.33-3.77,.33-1.66,0-3.3-.15-5.12-.33l-.62-.06c-.48-.04-.97-.09-1.45-.13-2.68-.21-5.38-.44-8.09-.67l-1.19-.1c-10.94-.92-22.26-1.88-33.33-1.88h-.16c-.22,.26-.57,.38-.93,.32-1.25-.27-2.58-.32-3.87-.37-1.32-.04-2.76-.09-4.14-.38-11.06-2.33-11.43-10.16-11.68-19.29-5.07-1.12-8.28-3.6-7.62-11.58,.02-.22,.11-.42,.25-.57,1.37-9.21,2.87-12.58,13.71-14.12,2.81-.51,5.94-.75,9.86-.75,2.95,0,6,.14,8.69,.26h.18c3.13,.15,6.08,.28,8.92,.25,5.85-.06,11.57,.24,17.07,.52,5.91,.31,12.06,.63,18.26,.49,1.75-.04,3.63-.02,5.46,0h.1c1.17,.02,2.35,.03,3.51,.03,3.05,0,5.23-.11,7.05-.37,.02,0,.11,0,.13,0,.16,0,.32,.04,.46,.11h.26c7.81,0,12.62,4.14,15.15,13.03,2.08,5.67,2.22,9.73,.41,12.39-.81,1.18-2.02,2.08-3.62,2.66,.12,12.24-.69,19.21-16.12,20.29l-1.07,.08c-1.17,.09-2.18,.17-3.24,.17Zm-3.4-1.34c.06,0,.13,.01,.19,.04,0,0,.04,.02,.05,.02,.97,.2,1.99,.3,3.16,.3,1.02,0,2.02-.08,3.08-.16l1.16-.09c14.73-1.03,15.35-7.45,15.21-19.66,0-.21,.13-.4,.34-.47,1.56-.51,2.72-1.32,3.46-2.4,1.62-2.38,1.44-6.16-.53-11.54-2.43-8.56-6.81-12.36-14.22-12.36h-.39c-.12,0-.22-.03-.31-.1-1.89,.25-4.1,.37-7.2,.37-1.17,0-2.36-.01-3.53-.03h-.1c-1.81-.02-3.69-.05-5.42,0-6.23,.14-12.41-.18-18.33-.49-5.49-.28-11.19-.58-17.01-.52-2.86,.04-5.83-.1-8.98-.24h-.18c-2.68-.13-5.71-.27-8.64-.27-3.85,0-6.93,.24-9.7,.74-10.08,1.43-11.53,3.99-12.92,13.47-.02,.14-.1,.26-.21,.33-.63,7.5,2.3,9.63,7.21,10.63,.22,.05,.38,.24,.39,.46,.25,9.24,.45,16.54,10.91,18.74,1.3,.27,2.69,.32,3.93,.36,1.38,.05,2.76,.1,4.08,.39,.07-.19,.27-.33,.47-.33h.43c11.11,0,22.45,.96,33.42,1.88l1.19,.1c2.71,.23,5.41,.46,8.09,.67,.49,.04,.98,.08,1.46,.13l.62,.06c1.8,.18,3.41,.32,5.03,.32,1.35,0,2.56-.11,3.72-.34,.03,0,.06,0,.09,0Z"/></g><g><path class="cls-2" d="M196.99,207.2c.7-.28,1.36-.6,2-.92-.87,5.83-3.29,13.51-9.89,17.75-1.61,1.03-4,1.91-6.67,2.47-.13-.14-.33-.2-.53-.13-3.44,1.15-6.86,1.07-10.49,.97-1.84-.05-3.74-.1-5.68,.01l-2.86,.17c-12.61,.77-24.53,1.49-37.28,1.19-2.9-.07-5.87-.1-8.87-.12-9.39-.09-19.09-.17-27.98-1.57-.18-.03-.35,.05-.46,.18-.38-.04-.75-.07-1.13-.11-2.4-.23-4.87-.48-7.3-.65-11.83-.83-17.54-4.77-21.77-15.35,0-.03,0-.06,0-.08-.33-1.2-.75-2.37-1.2-3.52,5.38,2.99,12.33,3.67,18.52,4.28,1.17,.11,2.31,.23,3.41,.35l1.81,.2c10.7,1.21,20.81,2.36,31.43,2.14,6.05-.13,12.17-.07,18.1,0,3.59,.03,7.19,.06,10.8,.07,2.34,0,4.67,.02,7,.05,2.18,.02,4.37,.05,6.58,.05,5.48,0,11.05-.15,16.56-.82,8.59-1.05,17.79-3.38,25.89-6.57Z"/><path class="cls-4" d="M131.69,229.26c-2.06,0-4.11-.02-6.09-.07-2.87-.07-5.83-.1-8.86-.12-9.45-.09-19.15-.18-28.05-1.57-.1,.12-.28,.19-.43,.18l-1.55-.15c-2.25-.22-4.59-.44-6.87-.6-12.1-.85-17.9-4.94-22.18-15.66-.02-.04-.03-.09-.03-.14-.28-1.05-.66-2.16-1.18-3.47-.07-.19-.02-.41,.13-.54,.16-.14,.38-.16,.56-.06,5.29,2.94,12.22,3.62,18.33,4.22,1.17,.11,2.31,.23,3.41,.35l1.81,.2c10.69,1.21,20.74,2.36,31.36,2.13,2.39-.05,4.96-.08,7.84-.08,3.46,0,6.9,.03,10.27,.07,3.59,.03,7.19,.06,10.79,.07,2.34,0,4.67,.02,7.01,.05h.8c1.91,.03,3.84,.05,5.78,.05,4.55,0,10.54-.09,16.5-.82,8.55-1.04,17.7-3.37,25.77-6.54,.67-.27,1.31-.58,1.96-.91,.16-.08,.36-.06,.5,.04,.15,.11,.22,.29,.2,.47-.87,5.85-3.33,13.73-10.11,18.09-1.65,1.06-4.08,1.96-6.84,2.53-.17,.03-.34-.02-.46-.14-2.76,.92-5.44,1.04-7.71,1.04-.98,0-1.96-.03-2.97-.05-1.91-.05-3.97-.09-5.63,.01l-2.86,.17c-10.64,.65-20.69,1.26-31.23,1.26Zm-42.99-2.74s.12,0,.14,.01c8.83,1.38,18.5,1.47,27.85,1.56,3.1,.03,6.06,.06,8.94,.12,1.98,.05,4.02,.07,6.06,.07,10.51,0,20.54-.61,31.17-1.26l2.86-.17c1.69-.1,3.78-.07,5.72-.01,.99,.03,1.97,.05,2.94,.05,2.18,0,4.77-.12,7.38-.99,.25-.09,.56-.06,.8,.07,2.56-.55,4.78-1.38,6.29-2.36,6.12-3.94,8.56-10.96,9.52-16.49-.39,.19-.78,.36-1.19,.53-8.14,3.2-17.38,5.55-26.01,6.6-6.01,.73-12.04,.83-16.62,.83-1.94,0-3.87-.02-5.79-.04h-.8c-2.33-.04-4.66-.05-7-.06-3.61,0-7.21-.03-10.8-.07-3.37-.03-6.81-.07-10.26-.07-2.88,0-5.44,.03-7.82,.08-10.68,.22-20.77-.92-31.49-2.14l-1.81-.21c-1.1-.12-2.23-.23-3.4-.35-5.78-.57-12.28-1.2-17.57-3.75,.31,.85,.56,1.62,.77,2.38,0,.02,.01,.06,.02,.1,4.11,10.24,9.7,14.17,21.32,14.98,2.29,.16,4.63,.39,6.89,.61l1.35,.13c.16-.11,.35-.17,.54-.17Z"/></g><g><path class="cls-3" d="M175.17,166.17c2.03,5.52,2.19,9.46,.48,11.98-.81,1.2-2.06,2.05-3.71,2.59,.14,12.51-.55,19.09-15.66,20.15l-1.07,.08c-1.08,.08-2.13,.17-3.2,.17s-2.16-.08-3.31-.33c-.03,0-.06-.02-.09-.04-1.27,.25-2.54,.35-3.81,.35-1.71,0-3.41-.16-5.08-.32-.7-.06-1.39-.13-2.08-.19-2.73-.22-5.48-.45-8.23-.68-11.45-.97-23.26-2-34.84-1.97-.07,.2-.26,.33-.47,.33-.04,0-.07,0-.11,0-1.29-.28-2.66-.33-3.99-.38-1.33-.04-2.7-.1-4.01-.37-10.79-2.27-11.04-9.74-11.3-19.21-5.31-1.09-8.24-3.54-7.61-11.15,.01-.16,.1-.29,.22-.37,1.38-9.4,2.76-12.39,13.32-13.88,5.77-1.05,12.2-.77,18.45-.48,3.19,.14,6.21,.28,9.13,.25,5.78-.06,11.5,.24,17.04,.52,5.96,.31,12.13,.63,18.3,.49,1.78-.04,3.69-.01,5.54,0,3.68,.05,7.48,.1,10.64-.34,.14-.02,.28,.02,.39,.11,7.86-.14,12.56,3.82,15.08,12.68Zm-.36,11.41c1.48-2.18,1.32-5.69-.45-10.66-.01-.03-.04-.04-.05-.07-.03-.13-.07-.24-.11-.37-.08-.2-.14-.39-.22-.6-.03-.07-.03-.15-.03-.22-2.58-8.36-7.17-11.71-15.16-11.11-.07,0-.15,0-.21-.03-1.9,.19-3.94,.24-6.03,.24-1.16,0-2.34-.01-3.5-.03-1.84-.02-3.75-.05-5.5,0-6.21,.14-12.4-.18-18.37-.49-5.52-.29-11.23-.58-16.98-.52-2.94,.03-5.98-.11-9.18-.25-6.02-.28-12.21-.55-17.75,.38-.04,.01-.07,.03-.11,.04-.12,.02-.23,.04-.35,.05-.49,.09-.98,.17-1.46,.28-.09,.02-.17,0-.25-.01-8.87,1.53-9.63,4.42-11.01,14.28,0,.07-.03,.13-.06,.18-.13,5.92,2.42,7.84,7.02,8.73,.04-.01,.09-.03,.13-.03,.12,0,.22,.05,.31,.11,1.26,.22,2.65,.38,4.18,.52,7.87-.34,15.9,.28,23.69,.9,2.95,.23,5.99,.48,8.96,.66,11.16,.68,24.31,1.22,38.02,1.54,3.14,.07,6.31-.18,9.38-.43,2.65-.21,5.36-.45,8.01-.43,.14,0,.26,.06,.35,.14,3.31-.14,5.58-1.07,6.75-2.78Zm-18.6,22.3c14.15-.99,14.85-6.34,14.72-18.69-1.05,.24-2.22,.56-3.55,.56h0c-.14,0-.27-.23-.36-.33-2.35,.03-4.73,.04-7.23,.24-2.72,.22-5.53,.45-8.33,.45-.38,0-.77,0-1.15-.02-13.73-.32-26.89-.85-38.06-1.54-2.98-.18-6.03-.42-8.98-.66-7.55-.6-15.34-1.2-22.95-.92-.07,.04-.15,.07-.24,.07-.02,0-.03,0-.05,0-.14-.01-.27-.03-.4-.04-.35,.01-.7,.02-1.04,.04-.18,.02-.33-.06-.42-.19-.86-.09-1.69-.2-2.46-.33,.26,9.59,.56,15.93,10.49,18.02,1.23,.26,2.5,.31,3.84,.35,1.09,.04,2.21,.08,3.33,.25,.09-.12,.23-.2,.39-.2,11.88-.04,24,.99,35.74,1.98,2.76,.24,5.5,.46,8.23,.68,.7,.06,1.4,.12,2.1,.19,3.04,.29,6.18,.59,9.21-.14,.23-.05,.46,.06,.56,.26,1.9,.3,3.68,.19,5.55,.04l1.08-.08Z"/><path class="cls-4" d="M152.01,201.63c-1.24,0-2.32-.11-3.41-.34,0,0-.02,0-.03,0-1.18,.22-2.41,.33-3.77,.33-1.66,0-3.3-.15-5.12-.33l-.62-.06c-.48-.04-.97-.09-1.45-.13-2.68-.21-5.38-.44-8.09-.67l-1.19-.1c-10.94-.93-22.26-1.88-33.33-1.88h-.16c-.22,.26-.57,.38-.93,.32-1.25-.27-2.58-.32-3.87-.37-1.32-.04-2.76-.09-4.14-.38-11.06-2.33-11.43-10.16-11.68-19.29-5.07-1.12-8.28-3.6-7.62-11.58,.02-.22,.11-.42,.25-.57,1.37-9.21,2.87-12.58,13.71-14.12,2.81-.51,5.94-.75,9.86-.75,2.95,0,6,.14,8.69,.26h.17c3.14,.15,6.07,.28,8.93,.25,5.85-.06,11.57,.24,17.07,.52,5.91,.31,12.06,.63,18.26,.49,1.75-.04,3.63-.01,5.46,0h.1c1.17,.02,2.35,.03,3.51,.03,3.05,0,5.23-.11,7.05-.37,.02,0,.11,0,.13,0,.16,0,.32,.04,.46,.11h.26c7.81,0,12.62,4.14,15.15,13.03,2.08,5.67,2.22,9.73,.41,12.39-.81,1.18-2.02,2.08-3.62,2.66,.12,12.24-.69,19.21-16.12,20.29l-1.07,.08c-1.17,.09-2.18,.17-3.24,.17Zm-3.4-1.34c.06,0,.13,.01,.19,.04,1.02,.23,2.04,.33,3.21,.33,1.02,0,2.02-.08,3.08-.16l1.16-.09c2.69-.19,4.91-.56,6.74-1.1-1.83,.52-4.05,.88-6.74,1.06l-1.08,.08c-.96,.07-1.99,.15-3.01,.15-.95,0-1.82-.06-2.65-.19-.15-.02-.28-.12-.35-.25l-.02-.02h0c-1.29,.31-2.71,.46-4.34,.46s-3.35-.16-4.98-.31c-.74-.07-1.44-.14-2.14-.2-2.73-.22-5.47-.45-8.23-.68h-.17c-11.45-.98-23.28-1.98-34.87-1.98h-.66c-.11,.14-.29,.23-.47,.2-1.12-.17-2.31-.21-3.27-.24-1.36-.05-2.64-.09-3.92-.36-2.24-.47-4.01-1.16-5.4-2.04,1.4,.9,3.16,1.6,5.4,2.08,1.3,.27,2.69,.32,3.93,.36,1.38,.05,2.76,.1,4.08,.39,.07-.19,.27-.33,.47-.33h.43c11.11,0,22.45,.96,33.42,1.88l1.19,.1c2.71,.23,5.4,.46,8.09,.67,.49,.04,.98,.08,1.46,.13l.63,.06c1.8,.18,3.41,.32,5.03,.32,1.35,0,2.56-.11,3.72-.34,.03,0,.06,0,.09,0Zm1.25-.82c1.58,.23,3.5,.14,5.24,0l1.08-.08c13.67-.96,14.38-5.81,14.27-17.6-.91,.21-1.93,.43-3.07,.43-.28,0-.48-.18-.6-.33h-.47c-2.09,.03-4.25,.06-6.49,.24h-.13c-3.06,.26-6.26,.51-9.4,.43-13.75-.32-26.92-.85-38.08-1.54-2.9-.18-5.88-.41-8.76-.64l-.23-.02c-5.86-.46-12.5-.99-18.93-.99-1.33,0-2.63,.02-3.87,.07-.14,.05-.32,.08-.45,.06l-.38-.04h-.27c-.24,.02-.47,.03-.71,.04-.28,.02-.5-.07-.67-.21-.61-.07-1.19-.14-1.74-.22,.25,9.02,.61,14.98,10.09,16.98,1.2,.25,2.44,.3,3.76,.34,.92,.03,2.05,.07,3.15,.22,.16-.11,.35-.17,.55-.17h.66c11.63,0,23.49,1,34.95,1.97h.17c2.76,.25,5.5,.48,8.23,.7,.7,.06,1.41,.12,2.11,.19,1.64,.16,3.3,.31,4.93,.31s2.89-.14,4.12-.44c.39-.08,.71,.04,.94,.29Zm21.08-18.77c.11,0,.21,.04,.3,.1,.11,.09,.18,.23,.18,.38,.03,2.82,.02,5.3-.19,7.47,.25-2.3,.26-4.93,.23-7.91,0-.21,.13-.4,.34-.47,1.56-.51,2.72-1.32,3.46-2.4,1.62-2.38,1.44-6.16-.53-11.54-2.43-8.56-6.81-12.36-14.22-12.36h-.39c-.12,0-.22-.03-.31-.1-1.89,.25-4.1,.37-7.2,.37-1.17,0-2.36-.01-3.53-.03h-.1c-1.81-.02-3.68-.05-5.42,0-6.22,.14-12.41-.18-18.33-.49-5.49-.28-11.19-.58-17.01-.52-2.86,.04-5.83-.1-8.98-.24h-.17c-2.68-.13-5.71-.27-8.64-.27-3.85,0-6.93,.24-9.7,.74-10.08,1.43-11.53,3.99-12.92,13.47-.02,.14-.1,.26-.21,.33-.63,7.5,2.3,9.63,7.21,10.63,.22,.05,.38,.24,.39,.46,.09,3.27,.17,6.31,.7,8.95-.49-2.55-.57-5.48-.66-8.73,0-.15,.06-.28,.17-.38,.11-.1,.26-.14,.4-.11,.73,.12,1.55,.23,2.43,.33,.13,.01,.26,.08,.34,.19,.25-.01,.49-.02,.73-.03h.32l.46,.03c.06-.03,.16-.06,.23-.07,1.28-.05,2.63-.07,4-.07,6.47,0,13.13,.53,19.01,.99l.23,.02c2.87,.23,5.85,.46,8.74,.64,11.15,.68,24.31,1.21,38.04,1.53,3.1,.08,6.26-.18,9.3-.42h.13c2.27-.19,4.45-.22,6.55-.25h.71c.14-.01,.26,.05,.36,.14,.03,.04,.07,.08,.11,.14,0,.01,.02,.03,.03,.04,1.05-.02,1.99-.24,2.89-.45l.42-.1s.07-.01,.11-.01Zm-19.46,.88c-.38,0-.77,0-1.15-.01-13.66-.32-26.82-.85-38.04-1.54-3-.18-6.04-.42-8.97-.66-5.89-.47-12.56-1-19-1-1.6,0-3.16,.03-4.64,.1-1.38-.13-2.9-.29-4.28-.53-.07-.01-.14-.04-.2-.08-.08,.03-.17,.02-.25,0-4.55-.88-7.55-2.79-7.41-9.22,0-.08,.02-.16,.07-.23,1.39-9.91,2.26-13.12,11.41-14.7,.07-.01,.14,0,.21,.01,.39-.08,.78-.15,1.17-.22l.69-.11s.07-.03,.11-.04c2.6-.43,5.6-.65,9.17-.65,2.93,0,5.99,.14,8.69,.26,2.92,.13,5.68,.25,8.38,.25h.78c5.77-.07,11.5,.23,17.01,.52,5.95,.31,12.14,.63,18.34,.49,1.73-.04,3.61-.02,5.42,0h.1c1.16,.02,2.34,.03,3.5,.03,2.42,0,4.32-.08,5.98-.24,.08,0,.16,0,.23,.03,8.21-.63,13,2.85,15.66,11.45,.02,.06,.02,.12,.02,.18,.04,.13,.08,.24,.12,.35l.16,.47s.03,.09,.04,.14c.02,.03,.04,.06,.05,.09,1.84,5.18,1.97,8.81,.4,11.12-1.25,1.84-3.65,2.85-7.13,3-.13,0-.26-.04-.35-.13h-.38c-2.28-.01-4.64,.18-6.93,.36l-.68,.05c-2.73,.22-5.51,.44-8.27,.44Zm-67.16-4.18c6.48,0,13.17,.53,19.07,1,2.93,.23,5.96,.47,8.96,.66,11.21,.69,24.35,1.22,38,1.53,3.1,.08,6.24-.18,9.28-.42l.73-.06c2.3-.19,4.68-.38,7-.38h.37c.17,0,.34,.05,.49,.14,3.07-.16,5.15-1.02,6.2-2.56,1.38-2.03,1.22-5.36-.48-10.17-.03-.05-.06-.11-.07-.15l-.2-.62c-.03-.1-.07-.2-.11-.31-.04-.11-.06-.21-.06-.32-2.54-8.16-6.83-11.29-14.64-10.7-.13,0-.22,0-.3-.03-1.68,.16-3.58,.24-5.98,.24-1.17,0-2.34-.01-3.51-.03h-.1c-1.81-.02-3.67-.05-5.39,0-6.23,.14-12.44-.18-18.41-.5-5.5-.28-11.2-.59-16.95-.52h-.79c-2.72,0-5.49-.12-8.42-.25-2.69-.12-5.73-.26-8.64-.26-3.49,0-6.42,.2-8.95,.62-.05,.02-.11,.04-.19,.05l-.65,.11c-.37,.07-.75,.13-1.11,.22-.04,0-.17,.02-.2,.02-.06,0-.11,0-.17-.02-8.44,1.48-9.15,4.11-10.52,13.85,0,.08-.03,.16-.06,.23-.1,5.66,2.31,7.28,6.51,8.12,.05-.01,.1-.02,.15-.02,.18,0,.34,.05,.49,.14,1.32,.23,2.79,.38,4.05,.5,1.42-.07,3-.1,4.61-.1Z"/></g><g><path class="cls-6" d="M175.35,88.12c1.15,9.72,2.72,23.03-4.41,27.51-2.18,1.37-5.86,1.64-8.59,1.45-.09-.01-.17,.01-.25,.05-.1-3.56-.25-6.93-.46-10.05,0-.05-.02-.08-.04-.13,.64-.56,.97-1.27,.9-2.11-.11-1.5-1.6-3.15-3.84-3.42-.08-.12-.22-.21-.38-.22-3.6-.2-7.29,.37-10.18,.86-.07-.02-.14-.03-.21-.02-2.46,.34-3.27,1.53-3.54,2.2-.34,.89-.15,1.9,.51,2.7,.33,.4,.77,.71,1.26,.95,0,.02-.01,.04-.01,.05,0,2.19-.06,4.49-.11,6.71-.02,.73-.04,1.47-.05,2.2-2.29-.42-4.94-.3-7.5-.18l-2.27,.11c-11.26,.5-24.02,1.07-34.52-1.56-.09-.02-.18-.01-.26,.01,0-2.94,.02-5.91,.13-8.82,1.07-.51,1.32-1.26,1.37-1.66,.17-1.32-1.12-2.68-3.23-3.37-.07-.02-.14-.03-.21-.02-2.14-1.03-4.92-.99-7.38-.95-1.2,.02-2.33,.04-3.32-.06-.17-.02-.33,.06-.43,.19-2.16,.18-3.35,1.33-3.43,2.5-.04,.66,.28,1.42,1.15,1.97-.12,.09-.21,.23-.21,.4,0,2.67,0,5.91-.05,9.3-.06-.01-.13-.02-.19,0-3.14,.46-7.42,.27-10.05-1.64-7.79-5.66-6.26-18.59-4.92-30,.47-4.02,.92-7.85,.9-11.01,.34-1.96,.42-3.92,.48-5.82,.05-1.45,.1-2.95,.27-4.42,1.76-14.9,9.65-17.67,21.86-16.81,.08,.06,.17,.11,.28,.12,5.67,.29,11.44,.39,17.22,.39s12.11-.11,18.07-.21c3.83-.07,7.64-.14,11.44-.17,.53,0,1.07-.03,1.6-.04,.04,.01,.08,.03,.13,.03,.01,0,.03,0,.04,0,.07,0,.14-.02,.2-.05,1.2-.03,2.39,0,3.55-.06,2.36-.1,4.8-.1,7.21-.1h0c.18,0,.34-.17,.43-.31,12.59-.35,16.24,4.51,17.91,13.6-.13,.19-.13,.42,.02,.61,.04,.05,.08,.09,.11,.13,.49,2.89,.8,6.18,1.15,9.85l.09,.94c.35,3.74,.72,7.31,1.09,10.67-.02,.06-.04,.13-.03,.2,.07,2.08,.38,4.72,.71,7.51Zm-39.92-.61c2.46-3.31,5.19-7.84,.53-11.7-.06-.05-.13-.08-.21-.1-.71-.86-1.44-1.73-2.17-2.58-1.13-1.32-2.3-2.68-3.28-3.99-.06-.08-.15-.14-.24-.17-1.63-2.55-3.33-3.16-4.52-3.19-1.79-.01-3.58,1.21-5.13,3.5-.17,0-.33,.09-.41,.25-1.01,1.88-2.5,3.39-4.07,4.99-1,1.02-2.03,2.07-2.93,3.23-.04,.01-.08,.02-.11,.05-1.57,1.1-2.46,2.44-2.64,3.96-.24,2.04,.79,4.37,3.1,7.08,0,.14,.05,.29,.16,.39,1.06,.94,2.1,2.31,3.2,3.76,.39,.51,.79,1.02,1.2,1.53,.03,.13,.1,.25,.22,.33,.03,.02,.06,.05,.1,.07,.05,.06,.08,.11,.13,.17,.09,.11,.21,.16,.34,.17,.69,.53,1.37,1.17,2.02,1.79,1.62,1.53,3.16,2.99,4.87,2.99,.15,0,.3-.01,.45-.03,1.3-.2,2.49-1.28,3.62-3.3,.02-.03,.02-.06,.03-.09,1.33-1.82,2.49-3.73,3.61-5.6,.67-1.13,1.37-2.3,2.08-3.4,.03-.04,.03-.07,.04-.11Z"/><path class="cls-4" d="M121.7,117.71c-8.32,0-14.73-.64-20.18-2.01-.15,.04-.31,.02-.43-.07-.12-.09-.2-.23-.2-.38,0-2.45,0-5.67,.13-8.84,0-.18,.11-.34,.28-.42,.87-.41,1.06-.98,1.1-1.28,.14-1.07-1.05-2.24-2.9-2.85-.08,0-.19,0-.27-.04-1.68-.81-3.84-.92-5.73-.92-.48,0-.96,0-1.43,.01-.47,0-.93,.01-1.38,.01-.82,0-1.45-.03-2-.08-.08,.1-.22,.18-.34,.19-1.97,.16-2.93,1.18-2.98,2.05-.04,.58,.3,1.13,.93,1.53,.14,.09,.22,.23,.23,.39,0,.16-.07,.31-.2,.41-.01,2.68-.02,5.92-.06,9.32,0,.14-.07,.28-.18,.37-.11,.09-.26,.13-.4,.1-1,.14-2,.21-3.01,.21-3.06,0-5.7-.69-7.42-1.94-8.02-5.83-6.48-18.91-5.12-30.45,.47-4.01,.92-7.81,.89-10.95,.35-2.07,.42-4.07,.48-5.84,.05-1.46,.1-2.97,.28-4.46,1.44-12.18,7.02-17.38,18.65-17.38,1.16,0,2.38,.05,3.73,.14,.1,0,.19,.04,.27,.1,5.07,.27,10.69,.4,17.2,.4,5.99,0,12.04-.11,17.88-.21h.61c3.69-.07,7.36-.14,11.01-.18,.34,0,.68-.01,1.02-.02l.57-.02c.05,0,.1,0,.15,.02,.06-.03,.14-.03,.21-.03,.53-.01,1.07-.02,1.6-.02,.66,0,1.31,0,1.95-.03,2.45-.1,5.09-.1,7.21-.1-.01,0,.02-.04,.04-.08,.09-.14,.24-.23,.4-.23,13.18-.34,16.76,5.05,18.41,14,.02,.13,0,.26-.08,.37,.03,.05,.07,.09,.12,.15,.05,.07,.09,.14,.1,.23,.5,2.96,.82,6.32,1.16,9.88l.09,.94c.33,3.46,.69,7.05,1.09,10.66,0,.08,0,.16-.03,.23,.07,2.1,.39,4.83,.71,7.47,1.16,9.85,2.76,23.33-4.63,27.98-2.19,1.37-5.49,1.58-7.26,1.58-.56,0-1.11-.02-1.63-.06-.15,.07-.32,.07-.47-.02-.14-.09-.23-.23-.23-.4-.1-3.59-.25-6.97-.46-10.03-.07-.19-.02-.39,.13-.53,.54-.47,.79-1.04,.74-1.7-.09-1.27-1.39-2.73-3.41-2.98-.14-.02-.27-.09-.34-.21-3.47-.24-6.9,.3-10.08,.85-.07,.01-.14,0-.21-.01-2.23,.3-2.94,1.32-3.17,1.9-.28,.72-.12,1.55,.43,2.21,.27,.32,.64,.6,1.09,.82,.19,.09,.3,.3,.27,.51,0,2.11-.06,4.35-.11,6.52v.19c-.02,.73-.04,1.47-.06,2.2,0,.14-.07,.28-.18,.37-.11,.09-.25,.13-.4,.1-1.06-.19-2.26-.29-3.77-.29-1.2,0-2.43,.06-3.62,.11l-2.27,.11c-4.71,.21-9.57,.43-14.48,.43Zm-19.84-2.92c5.35,1.33,11.65,1.95,19.84,1.95,4.89,0,9.74-.22,14.44-.43l2.27-.11c1.2-.06,2.44-.12,3.66-.12,1.32,0,2.41,.07,3.39,.21,.01-.55,.03-1.1,.04-1.65v-.19c.05-2.08,.11-4.23,.11-6.28-.46-.26-.84-.57-1.13-.92-.78-.94-1-2.13-.59-3.18,.31-.78,1.22-2.14,3.93-2.51,.02,0,.12,0,.14,0,.05,0,.1,0,.15,.01,3.2-.55,6.71-1.05,10.2-.85,.22,.01,.43,.1,.59,.25,2.41,.37,3.96,2.22,4.08,3.84,.07,.88-.23,1.67-.86,2.32,.2,2.91,.35,6.1,.45,9.48,.42,.03,.89,.04,1.37,.04,2.84,0,5.29-.52,6.74-1.43,6.87-4.31,5.32-17.45,4.18-27.04-.31-2.66-.64-5.41-.71-7.55,0-.09,0-.18,.02-.26-.39-3.59-.75-7.15-1.08-10.58l-.09-.94c-.33-3.49-.64-6.78-1.13-9.68v-.02c-.27-.29-.33-.67-.19-1.01-1.59-8.51-4.92-13.36-17.16-13.04-.19,.21-.42,.32-.67,.32-2.12,0-4.76,0-7.2,.1-.65,.03-1.32,.03-1.98,.04-.5,0-.99,0-1.49,.02-.1,.03-.2,.05-.3,.05-.12,0-.19-.02-.23-.04h-.49c-.35,.02-.69,.03-1.04,.04-3.65,.04-7.32,.1-11.01,.17h-.61c-5.85,.11-11.9,.22-17.9,.22-6.52,0-12.16-.13-17.24-.39-.15,0-.29-.05-.42-.12-1.28-.09-2.43-.13-3.53-.13-11.17,0-16.3,4.79-17.68,16.52-.17,1.45-.22,2.94-.27,4.38-.06,1.71-.13,3.83-.49,5.88,.03,3.12-.42,6.94-.89,10.98-1.33,11.28-2.84,24.06,4.72,29.55,1.56,1.13,3.99,1.75,6.85,1.75,.87,0,1.77-.06,2.62-.17,.04-3.23,.04-6.29,.04-8.84,0-.1,.01-.19,.04-.28-.68-.57-1.03-1.33-.98-2.13,.08-1.29,1.26-2.68,3.71-2.94,.17-.13,.38-.21,.6-.21,.61,.06,1.22,.08,2,.08,.44,0,.89,0,1.36-.01,.47,0,.96-.02,1.45-.02,1.96,0,4.21,.12,6.05,.97,.11,0,.18,.02,.24,.04,2.34,.77,3.77,2.34,3.57,3.9-.06,.46-.32,1.29-1.38,1.9-.1,2.86-.12,5.76-.12,8.06Zm23.72-14.24c-1.91,0-3.51-1.52-5.2-3.12-.58-.55-1.24-1.17-1.9-1.69-.2-.05-.38-.16-.5-.32l-.09-.12h0c-.2-.14-.34-.32-.41-.53-.38-.48-.77-.97-1.14-1.46-1.09-1.43-2.12-2.77-3.14-3.69-.16-.14-.27-.34-.31-.55-2.35-2.78-3.37-5.18-3.12-7.34,.2-1.67,1.15-3.12,2.84-4.31,.02-.01,.05-.03,.08-.05,.87-1.1,1.82-2.09,2.89-3.18,1.56-1.59,3.01-3.07,3.99-4.88,.12-.22,.32-.38,.55-.46,1.61-2.33,3.47-3.55,5.39-3.55h.03c1.25,.03,3.1,.62,4.85,3.29,.12,.07,.22,.15,.3,.25,.96,1.28,2.11,2.62,3.23,3.92,.74,.87,1.45,1.7,2.13,2.54,.08,.03,.16,.08,.22,.14,5.36,4.43,1.38,9.9-.4,12.3-.02,.05-.04,.11-.08,.17-.69,1.06-1.37,2.21-2.04,3.32-1.22,2.05-2.32,3.85-3.61,5.62-.01,.03-.03,.08-.06,.12-1.2,2.15-2.5,3.31-3.96,3.54-.18,.03-.36,.04-.53,.04Zm-.08-34.75v.49c-1.6,0-3.27,1.17-4.69,3.29-.09,.13-.23,.21-.38,.21-1.05,1.93-2.55,3.46-4.13,5.07-1.1,1.12-2.06,2.12-2.92,3.22-.06,.07-.13,.13-.22,.16-1.44,1.01-2.26,2.23-2.42,3.61-.22,1.9,.76,4.09,2.99,6.71,.08,.09,.12,.2,.12,.32,1.1,1,2.15,2.38,3.27,3.84,.39,.51,.79,1.02,1.19,1.52,.05,.06,.08,.13,.1,.21l.1,.08s.09,.07,.12,.11l.07,.09c.09,0,.24,.11,.31,.16,.72,.56,1.43,1.23,2.06,1.82,1.68,1.59,3.22,3.07,4.92,2.83,1.14-.18,2.21-1.18,3.26-3.06,.02-.04,.04-.11,.06-.14,1.29-1.75,2.38-3.56,3.58-5.56,.7-1.17,1.38-2.32,2.09-3.41,.02-.05,.03-.1,.06-.14,2.75-3.71,4.73-7.62,.61-11.03-.1-.02-.2-.08-.27-.17-.7-.86-1.43-1.73-2.16-2.58-1.16-1.35-2.32-2.71-3.3-4.01-.11-.03-.2-.1-.26-.2-1.54-2.41-3.09-2.94-4.12-2.96l-.02-.49Z"/></g><g><path class="cls-6" d="M174.36,166.92c1.77,4.97,1.93,8.48,.45,10.66-1.17,1.71-3.44,2.64-6.75,2.78-.09-.08-.21-.14-.35-.14-2.65-.02-5.36,.22-8.01,.43-3.07,.25-6.24,.5-9.38,.43-13.71-.32-26.86-.85-38.02-1.54-2.97-.18-6.02-.42-8.96-.66-7.79-.62-15.82-1.24-23.69-.9-1.53-.14-2.92-.3-4.18-.52-.09-.06-.19-.11-.31-.11-.05,0-.09,.02-.13,.03-4.59-.89-7.15-2.81-7.02-8.73,.03-.05,.06-.11,.06-.18,1.38-9.86,2.14-12.75,11.01-14.28,.08,.02,.16,.03,.25,.01,.48-.11,.97-.19,1.46-.28,.12-.02,.23-.03,.35-.05,.04,0,.07-.02,.11-.04,5.54-.93,11.73-.65,17.75-.38,3.21,.14,6.25,.28,9.18,.25,5.75-.06,11.45,.23,16.98,.52,5.98,.31,12.16,.63,18.37,.49,1.76-.04,3.66-.01,5.5,0,1.16,.02,2.34,.03,3.5,.03,2.09,0,4.14-.06,6.03-.24,.07,.03,.14,.04,.21,.03,8-.6,12.58,2.75,15.16,11.11,0,.07,0,.15,.03,.22,.08,.21,.14,.4,.22,.6,.03,.13,.07,.24,.11,.37,0,.03,.03,.04,.05,.07Zm-1.33,7.56c.23-.98-.03-1.94-.71-2.79,.1-.18,.09-.41-.05-.58-1.19-1.4-2.73-2.02-4.2-1.71-1.35,.29-2.43,1.3-2.83,2.64-.45,1.51,.06,3.15,1.39,4.49,.1,.1,.23,.15,.36,.15,.08,0,.15-.02,.22-.06,.65,.42,1.36,.67,2.11,.67,.32,0,.64-.04,.96-.12,1.38-.35,2.46-1.4,2.76-2.68Zm-91.14-2.36c.23-.98-.03-1.94-.71-2.79,.11-.18,.09-.41-.05-.58-1.19-1.39-2.73-2.02-4.2-1.7-1.35,.29-2.43,1.3-2.83,2.64-.45,1.51,.06,3.15,1.39,4.48,.1,.1,.23,.15,.36,.15,.08,0,.15-.02,.22-.06,.65,.42,1.36,.67,2.11,.67,.32,0,.64-.04,.96-.12,1.38-.35,2.46-1.4,2.76-2.68Z"/><path class="cls-4" d="M151.47,181.58c-.38,0-.77,0-1.15-.01-13.66-.32-26.82-.85-38.04-1.54-3-.18-6.04-.42-8.97-.66-5.89-.47-12.56-1-19-1-1.6,0-3.16,.03-4.64,.1-1.38-.13-2.9-.29-4.28-.53-.07-.01-.14-.04-.2-.08-.08,.03-.17,.02-.25,0-4.55-.88-7.55-2.79-7.41-9.22,0-.08,.02-.16,.07-.23,1.39-9.91,2.26-13.12,11.41-14.7,.07-.01,.14,0,.21,.01,.39-.08,.78-.15,1.17-.22l.69-.11s.07-.03,.11-.04c2.6-.43,5.6-.65,9.17-.65,2.93,0,5.99,.14,8.69,.26,2.92,.13,5.68,.25,8.38,.25h.78c5.78-.07,11.5,.23,17.01,.52,5.95,.31,12.14,.63,18.34,.49,1.73-.04,3.6-.02,5.42,0h.1c1.16,.02,2.34,.03,3.5,.03,2.42,0,4.32-.08,5.98-.24,.08,0,.16,0,.23,.03,8.21-.63,13,2.85,15.66,11.45,.02,.06,.02,.12,.02,.18,.04,.13,.08,.24,.12,.35l.16,.47s.03,.09,.04,.14c.02,.03,.04,.06,.05,.09,1.84,5.18,1.97,8.81,.4,11.12-1.25,1.84-3.65,2.85-7.13,3-.13,0-.26-.04-.35-.13h-.38c-2.28-.01-4.64,.18-6.93,.36l-.68,.05c-2.73,.22-5.51,.44-8.27,.44Zm-67.16-4.18c6.48,0,13.17,.53,19.07,1,2.93,.23,5.96,.47,8.96,.66,11.21,.69,24.35,1.22,38,1.53,3.1,.08,6.25-.18,9.28-.42l.73-.06c2.3-.19,4.68-.38,7-.38h.37c.17,0,.34,.05,.49,.14,3.07-.16,5.15-1.02,6.2-2.56,1.38-2.03,1.22-5.36-.48-10.17-.03-.05-.06-.11-.07-.15l-.2-.62c-.03-.1-.07-.2-.11-.31-.04-.11-.06-.21-.06-.32-2.54-8.16-6.83-11.29-14.64-10.7-.13,0-.22,0-.3-.03-1.68,.16-3.58,.24-5.98,.24-1.17,0-2.34-.01-3.51-.03h-.1c-1.81-.02-3.67-.05-5.39,0-6.23,.14-12.44-.18-18.41-.5-5.49-.28-11.2-.58-16.95-.52h-.79c-2.72,0-5.49-.12-8.42-.25-2.69-.12-5.73-.26-8.64-.26-3.49,0-6.42,.2-8.95,.62-.05,.02-.11,.04-.19,.05l-.65,.11c-.37,.07-.75,.13-1.11,.22-.04,0-.17,.02-.2,.02-.06,0-.11,0-.17-.02-8.44,1.48-9.15,4.11-10.52,13.85,0,.08-.03,.16-.06,.23-.1,5.66,2.31,7.28,6.51,8.12,.05-.01,.1-.02,.15-.02,.18,0,.34,.05,.49,.14,1.33,.23,2.79,.38,4.05,.5,1.42-.07,3-.1,4.61-.1Zm85.02,.37c-.74,0-1.47-.21-2.17-.62-.31,.05-.63-.05-.86-.28-1.46-1.47-2.02-3.28-1.51-4.97,.45-1.51,1.68-2.65,3.2-2.97,1.64-.35,3.37,.34,4.67,1.87,.19,.22,.27,.52,.22,.8,.66,.93,.89,1.96,.64,2.99-.34,1.45-1.56,2.64-3.11,3.04-.37,.09-.73,.14-1.08,.14Zm-2.11-1.64c.1,0,.19,.03,.27,.08,.85,.56,1.73,.72,2.68,.48,1.2-.31,2.14-1.22,2.4-2.32,.19-.82-.02-1.64-.62-2.37-.13-.16-.14-.37-.04-.55-1.06-1.28-2.44-1.85-3.72-1.57-1.17,.25-2.12,1.13-2.47,2.3-.4,1.33,.06,2.79,1.27,4,.07-.04,.15-.05,.23-.05Zm-89.03-.72c-.75,0-1.48-.21-2.17-.62-.31,.05-.63-.05-.86-.27-1.47-1.47-2.02-3.28-1.52-4.97,.45-1.51,1.67-2.65,3.2-2.97,1.63-.35,3.37,.34,4.67,1.86,.19,.23,.27,.52,.22,.81,.66,.93,.89,1.95,.64,2.99-.34,1.45-1.56,2.64-3.11,3.04-.35,.09-.72,.14-1.08,.14Zm-2.12-1.64c.1,0,.2,.03,.28,.08,.86,.56,1.78,.71,2.68,.48,1.2-.31,2.15-1.22,2.4-2.32,.19-.81-.02-1.63-.62-2.37-.13-.16-.14-.38-.04-.55-1.07-1.28-2.44-1.84-3.73-1.57-1.17,.25-2.12,1.13-2.47,2.3-.4,1.34,.07,2.79,1.27,4,.07-.03,.15-.05,.23-.05Z"/></g><g><path class="cls-3" d="M172.33,171.69c.68,.85,.94,1.81,.71,2.79-.3,1.27-1.38,2.32-2.76,2.68-.32,.08-.64,.12-.96,.12-.74,0-1.46-.24-2.11-.67-.07,.04-.15,.06-.22,.06-.13,0-.26-.05-.36-.15-1.33-1.34-1.84-2.98-1.39-4.49,.4-1.34,1.48-2.35,2.83-2.64,1.47-.31,3.01,.31,4.2,1.71,.14,.17,.15,.4,.05,.58Zm-.28,2.56c.2-.85-.14-1.69-1-2.42-.18-.16-.21-.41-.11-.61-.83-.72-1.75-1.01-2.66-.81-.98,.21-1.78,.95-2.07,1.94-.16,.54-.26,1.53,.48,2.66,.13,0,.25,.06,.34,.16,1.14,1.27,2.37,1.19,3,1.02,1-.26,1.81-1.03,2.02-1.93Z"/><path class="cls-4" d="M169.32,177.77c-.74,0-1.47-.21-2.17-.62-.31,.05-.63-.05-.86-.28-1.46-1.47-2.01-3.28-1.51-4.97,.45-1.51,1.68-2.65,3.2-2.97,1.64-.35,3.37,.34,4.67,1.87,.19,.22,.27,.52,.22,.8,.66,.93,.89,1.96,.64,2.99-.34,1.45-1.56,2.64-3.11,3.04-.37,.09-.73,.14-1.08,.14Zm-2.11-1.64c.1,0,.19,.03,.27,.08,.85,.56,1.73,.72,2.68,.48,1.2-.31,2.14-1.22,2.4-2.32,.19-.82-.02-1.64-.62-2.37-.13-.16-.14-.37-.04-.55-1.06-1.28-2.44-1.85-3.72-1.57-1.17,.25-2.12,1.13-2.47,2.3-.4,1.33,.06,2.79,1.27,4,.07-.04,.15-.05,.23-.05Zm2.11,.62h0c-.69,0-1.7-.22-2.65-1.27-.15-.01-.3-.1-.38-.23-.86-1.33-.7-2.49-.53-3.06,.34-1.16,1.27-2.03,2.43-2.27,1.03-.22,2.13,.1,3.08,.92,.17,.15,.22,.39,.11,.59,1.25,1.1,1.32,2.2,1.15,2.92-.25,1.07-1.2,1.99-2.37,2.29-.27,.07-.55,.11-.83,.11Zm-2.32-2.19c.15,.06,.29,.15,.39,.27,.72,.8,1.64,1.1,2.51,.87,.83-.21,1.5-.84,1.67-1.57,.16-.68-.12-1.33-.84-1.95-.24-.2-.35-.5-.34-.8-.65-.49-1.34-.67-2.01-.52-.81,.17-1.46,.78-1.7,1.6-.12,.39-.22,1.16,.32,2.09Z"/></g><g><path class="cls-2" d="M170.93,181.19c.13,12.35-.56,17.7-14.72,18.69l-1.08,.08c-1.87,.15-3.65,.26-5.55-.04-.1-.2-.33-.31-.56-.26-3.03,.73-6.17,.42-9.21,.14-.7-.07-1.4-.14-2.1-.19-2.73-.22-5.47-.45-8.23-.68-11.73-.99-23.86-2.02-35.74-1.98-.16,0-.3,.08-.39,.2-1.11-.17-2.23-.21-3.33-.25-1.34-.05-2.61-.09-3.84-.35-9.93-2.09-10.23-8.43-10.49-18.02,.78,.13,1.6,.24,2.46,.33,.1,.13,.24,.21,.42,.19,.35-.02,.7-.03,1.04-.04,.13,.01,.26,.03,.4,.04,.02,0,.03,0,.05,0,.09,0,.17-.03,.24-.07,7.61-.28,15.4,.32,22.95,.92,2.95,.23,6,.48,8.98,.66,11.17,.68,24.33,1.21,38.06,1.54,.38,0,.76,.02,1.15,.02,2.8,0,5.61-.23,8.33-.45,2.5-.2,4.87-.21,7.23-.24,.09,.1,.22,.33,.36,.33h0c1.32,0,2.5-.32,3.55-.56Z"/><path class="cls-4" d="M152.15,200.6c-.95,0-1.82-.06-2.65-.19-.15-.02-.28-.12-.35-.25-1.32,.3-2.74,.45-4.36,.45s-3.35-.16-4.98-.31c-.74-.07-1.44-.14-2.14-.2-2.73-.22-5.47-.45-8.23-.68h-.16c-11.45-.98-23.28-1.98-34.87-1.98h-.66c-.11,.14-.29,.23-.47,.2-1.12-.17-2.31-.21-3.27-.24-1.36-.05-2.64-.09-3.92-.36-10.43-2.2-10.62-9.03-10.88-18.49,0-.15,.06-.28,.17-.38,.11-.1,.26-.14,.4-.11,.73,.12,1.55,.23,2.43,.33,.13,.01,.26,.08,.34,.19,.25-.01,.49-.02,.73-.03h.32l.46,.03c.06-.03,.16-.06,.23-.07,1.28-.05,2.63-.07,4-.07,6.47,0,13.13,.53,19.01,.99l.23,.02c2.87,.23,5.85,.46,8.74,.64,11.15,.68,24.31,1.21,38.04,1.53,3.1,.08,6.26-.18,9.3-.42h.13c2.27-.19,4.45-.22,6.55-.25h.71c.16,.03,.26,.04,.36,.14,.03,.04,.07,.08,.11,.14,0,.01,.02,.03,.03,.04,1.05-.02,1.99-.24,2.89-.45l.42-.1c.14-.03,.29,0,.41,.09,.11,.09,.18,.23,.18,.38,.13,12.23-.46,18.15-15.17,19.18l-1.08,.08c-.96,.07-1.99,.15-3.01,.15Zm-2.3-1.13c1.58,.23,3.5,.14,5.24,0l1.08-.08c13.67-.96,14.38-5.81,14.27-17.6-.91,.21-1.93,.43-3.07,.43-.28,0-.48-.18-.6-.33h-.47c-2.09,.03-4.25,.06-6.49,.24h-.13c-3.06,.26-6.26,.51-9.4,.43-13.75-.32-26.92-.85-38.08-1.54-2.91-.18-5.88-.41-8.76-.64l-.23-.02c-5.86-.46-12.5-.99-18.93-.99-1.33,0-2.63,.02-3.87,.07-.14,.05-.32,.08-.45,.06l-.39-.04h-.27c-.24,.02-.47,.03-.71,.04-.28,.02-.5-.07-.67-.21-.61-.07-1.19-.14-1.74-.22,.25,9.02,.61,14.98,10.09,16.98,1.2,.25,2.44,.3,3.76,.34,.92,.03,2.04,.07,3.15,.22,.16-.11,.35-.17,.55-.17h.66c11.63,0,23.49,1,34.96,1.97h.16c2.76,.25,5.5,.48,8.23,.7,.7,.06,1.41,.12,2.11,.19,1.64,.16,3.3,.31,4.93,.31s2.89-.14,4.12-.44c.39-.08,.71,.04,.94,.29Z"/></g><g><path class="cls-1" d="M161.49,104.91c.07,.99-.77,1.74-2.32,2.03-.06,.01-.11,.04-.16,.06-.07-.04-.14-.07-.23-.07-2.94-.15-5.98-.05-9.87,.34-.09,0-.16,.04-.23,.09-1.3,.09-2.41-.29-3.06-1.07-.43-.52-.56-1.14-.34-1.68,.25-.64,.94-1.13,1.94-1.4,.02,0,.03,0,.05,0,.03,0,.06,0,.09,0,2.86-.5,6.75-1.16,10.51-1.02,.09,.1,.21,.17,.36,.18,1.84,.08,3.17,1.37,3.25,2.53Z"/><path class="cls-4" d="M148.33,107.87c-1.31,0-2.4-.45-3.07-1.26-.55-.66-.7-1.45-.42-2.17,.3-.78,1.11-1.38,2.27-1.69,.06-.02,.13-.02,.19-.01,2.8-.48,6.77-1.17,10.6-1.02,.14,0,.26,.07,.35,.17,2.18,.1,3.63,1.63,3.73,2.99,.09,1.25-.92,2.2-2.71,2.55-.15,.08-.35,.09-.5,0-2.98-.17-5.91-.05-9.8,.33-.07,.05-.16,.09-.25,.09-.13,0-.27,.01-.4,.01Zm-1.05-4.16c-.8,.23-1.34,.62-1.53,1.09-.15,.38-.06,.81,.26,1.2,.52,.62,1.43,.95,2.54,.9,.1-.05,.21-.08,.32-.1,3.94-.39,6.92-.5,9.95-.34,.07,0,.14,.01,.2,.03,.02,0,.04-.01,.06-.01,.61-.12,2-.5,1.93-1.52-.07-.93-1.23-2.02-2.79-2.08-.19,0-.38-.07-.53-.19-3.69-.12-7.51,.54-10.23,1.02-.03,0-.15,.02-.18,.01Z"/></g><g><path class="cls-2" d="M160.65,107.55c.5,7.52,.67,16.34,.48,26.23,0,.06,.01,.11,.03,.15-1.41,2.35-3.22,4.65-5.37,6.83-1.18-.99-2.34-2.07-3.46-3.12-1.49-1.4-3.02-2.82-4.58-4.01-1.05-5.91-.9-12.54-.74-18.95,.05-2.13,.1-4.33,.11-6.44,.39,.09,.8,.15,1.23,.15,.4,0,.81-.04,1.23-.11,.05-.01,.1-.04,.14-.06,3.5-.32,6.32-.41,9.03-.27,.11,0,.2-.02,.28-.07,.08,.04,.16,.07,.25,.07,.03,0,.06,0,.1,0,.48-.09,.9-.23,1.28-.39Zm-3.53,24.49c.74-.9,.98-2.07,.6-2.98-.33-.81-1.1-1.31-2.15-1.44-1.09-.33-2.13-.14-2.9,.54-.82,.73-1.19,1.92-.92,2.96,.24,.9,.93,1.56,1.9,1.89,.07,.07,.15,.12,.25,.14,.24,.05,.47,.07,.7,.07,.97,0,1.88-.42,2.52-1.19Zm-.91-16c.74-.89,.98-2.06,.6-2.98-.34-.81-1.1-1.31-2.15-1.44-1.09-.33-2.13-.14-2.9,.54-.82,.73-1.19,1.92-.92,2.96,.24,.9,.93,1.56,1.9,1.9,.06,.06,.15,.12,.24,.14,.23,.05,.47,.07,.7,.07,.97,0,1.88-.42,2.52-1.19Zm0,8.05c.74-.89,.98-2.06,.6-2.98-.34-.81-1.1-1.31-2.15-1.44-1.09-.33-2.13-.14-2.9,.54-.82,.73-1.19,1.92-.92,2.96,.24,.91,.93,1.56,1.9,1.9,.07,.07,.15,.12,.25,.14,.23,.05,.47,.07,.7,.07,.97,0,1.88-.42,2.52-1.2Z"/><path class="cls-4" d="M155.78,141.25c-.11,0-.22-.04-.31-.11-1.2-1-2.38-2.1-3.48-3.14-1.31-1.23-2.94-2.76-4.54-3.97-.1-.07-.16-.18-.19-.3-1.07-5.99-.9-12.63-.75-19.05,.05-2.2,.1-4.34,.11-6.43,0-.15,.07-.29,.18-.38,.11-.09,.27-.13,.41-.1,.85,.19,1.49,.16,2.27,.03,.06-.03,.12-.06,.18-.07,3.55-.33,6.39-.41,9.1-.27,.15-.09,.34-.1,.5,0,.43-.07,.82-.19,1.19-.35,.15-.06,.31-.05,.45,.03,.14,.08,.22,.23,.23,.39,.5,7.52,.67,16.36,.48,26.27,.04,.13,.03,.28-.04,.4-1.41,2.36-3.24,4.69-5.45,6.92-.09,.1-.22,.15-.35,.15Zm-7.59-7.88c1.59,1.22,3.18,2.72,4.47,3.92,.99,.92,2.03,1.9,3.09,2.81,1.96-2.03,3.61-4.14,4.89-6.26,0-.03,0-.05,0-.08,.18-9.59,.03-18.17-.44-25.53-.24,.08-.49,.14-.75,.19-.03,0-.16,.02-.19,.02-.08,0-.17-.01-.25-.03-.08,.02-.17,.04-.25,.04-.87-.04-1.7-.06-2.55-.06-1.9,0-3.99,.11-6.38,.33-.05,.02-.11,.04-.17,.06-.75,.14-1.38,.17-2.08,.07-.01,1.91-.06,3.87-.1,5.87-.15,6.3-.31,12.82,.7,18.67Zm6.41,.35c-.27,0-.54-.03-.8-.08-.14-.03-.27-.09-.4-.19-1.1-.4-1.85-1.18-2.12-2.2-.32-1.21,.11-2.6,1.06-3.45,.88-.79,2.12-1.02,3.37-.65,1.15,.13,2.06,.75,2.46,1.72,.45,1.08,.18,2.45-.68,3.48-.72,.87-1.78,1.37-2.89,1.37Zm-.05-5.77c-.59,0-1.13,.2-1.55,.58-.69,.61-1,1.61-.77,2.48,.19,.72,.75,1.27,1.58,1.56,.07,.02,.13,.06,.18,.11,1.05,.28,2.08-.13,2.75-.94,.63-.76,.83-1.73,.52-2.49-.33-.81-1.14-1.07-1.76-1.14-.38-.11-.68-.16-.97-.16Zm-.86-2.18c-.26,0-.53-.03-.8-.09-.14-.03-.28-.09-.4-.19-1.1-.41-1.85-1.18-2.12-2.2-.32-1.21,.11-2.59,1.06-3.45,.89-.79,2.13-1.02,3.37-.65,1.15,.13,2.05,.75,2.45,1.72,.44,1.08,.18,2.45-.67,3.48-.72,.87-1.78,1.37-2.9,1.37Zm-.05-5.77c-.59,0-1.13,.2-1.55,.58-.69,.61-1,1.61-.77,2.47,.19,.72,.75,1.27,1.58,1.56,.07,.02,.13,.06,.18,.11,1.13,.29,2.08-.13,2.76-.95,.63-.75,.83-1.73,.52-2.48-.34-.81-1.14-1.07-1.75-1.14-.38-.11-.68-.16-.97-.16Zm.05-2.28c-.28,0-.55-.03-.81-.08-.14-.03-.27-.09-.39-.19-1.11-.41-1.86-1.18-2.12-2.2-.32-1.21,.11-2.6,1.06-3.45,.89-.79,2.12-1.03,3.37-.65,1.15,.13,2.06,.75,2.46,1.72,.44,1.08,.18,2.45-.67,3.48-.72,.87-1.78,1.37-2.89,1.37Zm-.05-5.77c-.59,0-1.13,.2-1.56,.58-.69,.61-1,1.61-.77,2.47,.19,.72,.75,1.27,1.59,1.56,.07,.02,.13,.06,.18,.11,.19,.05,.4,.07,.61,.07,.84,0,1.6-.36,2.14-1.02,.63-.76,.83-1.73,.52-2.49-.33-.81-1.14-1.07-1.76-1.14-.38-.11-.68-.15-.96-.15Z"/></g><g><path class="cls-3" d="M157.72,129.06c.38,.92,.14,2.09-.6,2.98-.64,.77-1.55,1.19-2.52,1.19-.23,0-.47-.02-.7-.07-.1-.02-.18-.07-.25-.14-.97-.33-1.66-.99-1.9-1.89-.27-1.04,.1-2.23,.92-2.96,.77-.69,1.82-.87,2.9-.54,1.05,.13,1.81,.63,2.15,1.44Zm-1.38,2.33c.5-.6,.67-1.38,.44-1.95-.19-.45-.59-.67-1-.77-.09,.02-.19,.02-.28-.02-.83-.33-1.6-.24-2.16,.26-.54,.48-.79,1.27-.61,1.95,.17,.66,.72,1.12,1.55,1.3,.01,0,.02,.01,.04,.02,.79,.1,1.51-.18,2.03-.79Z"/><path class="cls-4" d="M154.6,133.72c-.27,0-.54-.03-.8-.08-.14-.03-.27-.09-.4-.19-1.1-.4-1.85-1.18-2.12-2.2-.32-1.21,.11-2.6,1.06-3.45,.88-.79,2.12-1.02,3.37-.65,1.15,.13,2.06,.75,2.46,1.72,.45,1.08,.18,2.45-.68,3.48-.72,.87-1.78,1.37-2.89,1.37Zm-.05-5.77c-.59,0-1.13,.2-1.55,.58-.69,.61-1,1.61-.77,2.48,.19,.72,.75,1.27,1.58,1.56,.07,.02,.13,.06,.18,.11,1.05,.28,2.08-.13,2.75-.94,.63-.76,.83-1.73,.52-2.49-.33-.81-1.14-1.07-1.75-1.14-.38-.11-.68-.16-.97-.16Zm.07,4.74c-.12,0-.24,0-.36-.02-.04,0-.07-.01-.1-.02h-.03c-.97-.24-1.65-.84-1.86-1.65-.22-.86,.08-1.83,.76-2.43,.69-.61,1.67-.74,2.66-.35,.07-.01,.15-.02,.22,0,.65,.16,1.11,.52,1.33,1.05,.31,.74,.1,1.7-.52,2.44-.53,.64-1.28,.99-2.1,.99Zm-.18-.98c.6,.06,1.15-.16,1.53-.63,.38-.46,.53-1.05,.36-1.45-.03-.08-.13-.32-.58-.46-.14,0-.29,0-.43-.06-.66-.26-1.24-.2-1.66,.17-.4,.36-.59,.96-.46,1.46,.16,.61,.73,.85,1.18,.95,.02,0,.03,0,.05,.02Z"/></g><g><path class="cls-3" d="M156.81,113.05c.38,.92,.14,2.09-.6,2.98-.64,.77-1.55,1.19-2.52,1.19-.23,0-.47-.02-.7-.07-.1-.02-.18-.08-.24-.14-.97-.33-1.66-.99-1.9-1.9-.27-1.04,.1-2.23,.92-2.96,.77-.69,1.82-.87,2.9-.54,1.05,.13,1.81,.63,2.15,1.44Zm-1.38,2.33c.5-.6,.68-1.38,.44-1.95-.19-.45-.59-.67-1-.77-.09,.02-.19,.02-.28-.02-.83-.33-1.6-.23-2.16,.26-.54,.48-.79,1.27-.61,1.95,.17,.66,.72,1.12,1.55,1.3,.01,0,.02,0,.03,.01,.79,.09,1.51-.18,2.03-.79Z"/><path class="cls-4" d="M153.69,117.72c-.28,0-.55-.03-.81-.08-.14-.03-.27-.09-.39-.19-1.11-.41-1.86-1.18-2.12-2.2-.32-1.21,.11-2.6,1.06-3.45,.89-.79,2.12-1.03,3.37-.65,1.15,.13,2.06,.75,2.46,1.72,.44,1.08,.18,2.45-.67,3.48-.72,.87-1.78,1.37-2.89,1.37Zm-.05-5.77c-.59,0-1.13,.2-1.56,.58-.69,.61-1,1.61-.77,2.47,.19,.72,.75,1.27,1.59,1.56,.07,.02,.13,.06,.18,.11,.19,.05,.4,.07,.61,.07,.84,0,1.6-.36,2.14-1.02,.63-.76,.83-1.73,.52-2.49-.33-.81-1.14-1.07-1.76-1.14-.38-.11-.68-.15-.96-.15Zm.06,4.74h0c-.12,0-.24,0-.36-.02-.04,0-.09-.02-.13-.03-.96-.21-1.64-.8-1.86-1.64-.22-.85,.08-1.83,.76-2.43,.69-.61,1.67-.74,2.66-.35,.07-.01,.15-.02,.22,0,.65,.16,1.11,.53,1.33,1.05,.3,.73,.09,1.71-.52,2.45-.53,.63-1.27,.99-2.1,.99Zm-.19-.98c.06,0,.12,0,.19,0h0c.54,0,1.01-.22,1.35-.63,.38-.46,.53-1.05,.37-1.45-.03-.08-.13-.32-.58-.46-.15,.01-.3,0-.44-.06-.62-.24-1.23-.19-1.65,.18-.4,.36-.59,.96-.46,1.46,.16,.61,.73,.85,1.18,.95,.01,0,.03,0,.04,.01Z"/></g><g><path class="cls-3" d="M156.81,121.1c.38,.92,.14,2.09-.6,2.98-.64,.77-1.55,1.2-2.52,1.2-.23,0-.47-.03-.7-.07-.1-.02-.18-.07-.25-.14-.97-.33-1.66-.99-1.9-1.9-.27-1.04,.1-2.23,.92-2.96,.77-.69,1.82-.88,2.9-.54,1.05,.13,1.81,.63,2.15,1.44Zm-1.38,2.33c.5-.6,.68-1.38,.44-1.95-.19-.45-.59-.67-1-.77-.09,.02-.19,.02-.28-.01-.83-.33-1.6-.24-2.16,.26-.54,.48-.79,1.26-.61,1.95,.17,.66,.72,1.12,1.54,1.3,.01,0,.02,.01,.03,.01,.78,.09,1.52-.18,2.03-.79Z"/><path class="cls-4" d="M153.69,125.77c-.26,0-.53-.03-.8-.09-.14-.03-.28-.09-.4-.19-1.1-.41-1.85-1.18-2.12-2.2-.32-1.21,.11-2.59,1.06-3.45,.89-.79,2.13-1.02,3.37-.65,1.15,.13,2.05,.75,2.45,1.72,.44,1.08,.18,2.45-.67,3.48-.72,.87-1.78,1.37-2.9,1.37Zm-.05-5.77c-.59,0-1.13,.2-1.55,.58-.69,.61-1,1.61-.77,2.47,.19,.72,.75,1.27,1.58,1.56,.07,.02,.13,.06,.18,.11,1.13,.29,2.08-.13,2.76-.95,.63-.75,.83-1.73,.52-2.48-.34-.81-1.14-1.07-1.75-1.14-.38-.11-.68-.16-.97-.16Zm.06,4.74h0c-.12,0-.24,0-.36-.02-.04,0-.09-.02-.13-.04-1-.24-1.64-.82-1.86-1.64-.22-.85,.08-1.83,.76-2.43,.69-.61,1.66-.74,2.66-.35,.07-.01,.16-.02,.23,0,.82,.21,1.17,.69,1.32,1.06,.31,.74,.1,1.7-.52,2.44-.53,.63-1.28,.99-2.1,.99Zm-.19-.98c.05,0,.12,0,.19,0,.54,0,1.01-.22,1.36-.63,.38-.46,.53-1.05,.37-1.45-.03-.08-.13-.32-.58-.46-.15,0-.29,0-.42-.06-.67-.26-1.24-.2-1.66,.17-.4,.36-.6,.96-.46,1.46,.16,.6,.73,.85,1.18,.95,.01,0,.03,0,.04,.01Z"/></g><g><path class="cls-5" d="M156.78,129.44c.23,.57,.06,1.35-.44,1.95-.51,.62-1.24,.89-2.03,.79-.01,0-.02-.01-.04-.02-.82-.18-1.37-.64-1.55-1.3-.18-.68,.07-1.46,.61-1.95,.56-.49,1.33-.59,2.16-.26,.09,.04,.19,.03,.28,.02,.4,.1,.81,.31,1,.77Z"/><path class="cls-4" d="M154.62,132.69c-.12,0-.24,0-.36-.02-.04,0-.07-.01-.1-.02h-.03c-.97-.24-1.65-.84-1.86-1.65-.22-.86,.08-1.83,.76-2.43,.69-.61,1.67-.74,2.66-.35,.07-.01,.15-.02,.22,0,.65,.16,1.11,.52,1.33,1.05,.31,.74,.1,1.7-.52,2.44-.53,.64-1.28,.99-2.1,.99Zm-.18-.98c.6,.06,1.15-.16,1.53-.63,.38-.46,.53-1.05,.36-1.45-.03-.08-.13-.32-.58-.46-.14,0-.29,0-.43-.06-.66-.26-1.24-.2-1.66,.17-.4,.36-.59,.96-.46,1.46,.16,.61,.73,.85,1.18,.95,.02,0,.03,0,.05,.02Z"/></g><g><path class="cls-5" d="M155.87,113.44c.23,.56,.06,1.35-.44,1.95-.51,.62-1.24,.89-2.03,.79-.01,0-.02-.01-.03-.01-.83-.18-1.37-.64-1.55-1.3-.18-.68,.07-1.46,.61-1.95,.56-.49,1.33-.59,2.16-.26,.09,.04,.19,.03,.28,.02,.4,.1,.81,.32,1,.77Z"/><path class="cls-4" d="M153.7,116.69c-.12,0-.24,0-.36-.02-.04,0-.09-.02-.13-.03-.96-.21-1.64-.8-1.86-1.64-.22-.85,.08-1.83,.76-2.43,.69-.61,1.67-.74,2.66-.35,.07-.01,.15-.02,.22,0,.65,.16,1.11,.53,1.33,1.05,.3,.73,.09,1.71-.52,2.45-.53,.63-1.27,.99-2.1,.99Zm-.19-.98c.61,.05,1.15-.16,1.54-.63,.38-.46,.53-1.05,.37-1.45-.03-.08-.13-.32-.58-.46-.15,.01-.3,0-.44-.06-.62-.24-1.23-.19-1.65,.18-.4,.36-.59,.96-.46,1.46,.16,.61,.73,.85,1.18,.95,.01,0,.03,0,.04,.01Z"/></g><g><path class="cls-5" d="M155.87,121.49c.23,.57,.06,1.35-.44,1.95-.51,.62-1.24,.88-2.03,.79-.01,0-.02-.01-.03-.01-.82-.18-1.37-.65-1.54-1.3-.18-.68,.07-1.46,.61-1.95,.56-.5,1.33-.59,2.16-.26,.09,.04,.19,.03,.28,.01,.4,.1,.81,.32,1,.77Z"/><path class="cls-4" d="M153.7,124.73c-.12,0-.24,0-.36-.02-.04,0-.09-.02-.13-.03-1-.24-1.64-.82-1.86-1.64-.22-.85,.08-1.83,.76-2.43,.69-.61,1.66-.74,2.66-.35,.07-.01,.16-.02,.23,0,.82,.21,1.17,.69,1.32,1.06,.31,.74,.1,1.7-.52,2.44-.53,.63-1.28,.99-2.1,.99Zm-.19-.98c.05,0,.12,0,.19,0,.54,0,1.01-.22,1.36-.63,.38-.46,.53-1.05,.37-1.45-.03-.08-.13-.32-.58-.46-.15,0-.29,0-.42-.06-.67-.26-1.24-.2-1.66,.17-.4,.36-.6,.96-.46,1.46,.16,.6,.73,.85,1.18,.95,.01,0,.03,0,.04,.01Z"/></g><g><path class="cls-6" d="M140.77,29.66c1.57,3.68,2.09,8.28,1.65,14.43-.44,.01-.87,.03-1.3,.03-1.99,.02-4.01,.06-6.01,.09,0-.03,.02-.07,.02-.1,0-.57,0-1.17,0-1.8,.01-2.92,.03-6.24-.99-8.73-2.16-5.27-6.03-7.67-10.64-6.56-6.21,1.48-12.67,9.27-12.01,17.47h0c-2.09,0-4.17-.01-6.25-.04l.03-1.02c.28-9.95,.5-17.81,11.29-20.75,8.68-2.36,19.93-3.07,24.22,6.97Z"/><path class="cls-4" d="M111.49,44.99c-2.09,0-4.17-.01-6.26-.05-.13,0-.25-.06-.34-.15-.09-.09-.14-.22-.14-.35l.03-1.02c.28-10.15,.51-18.17,11.64-21.2,3.66-1,7.04-1.5,10.04-1.5,7.31,0,12.28,2.95,14.76,8.75,1.6,3.75,2.14,8.41,1.68,14.66-.02,.25-.22,.44-.47,.45h-.17c-.38,.02-.76,.03-1.14,.03-1.35,.01-2.7,.04-4.06,.06l-1.94,.03c-.17-.01-.29-.06-.38-.17-.09-.11-.13-.26-.1-.41,0-.57,0-1.17,0-1.8,.01-2.9,.03-6.15-.95-8.54-2.05-5.01-5.74-7.31-10.07-6.27-6.02,1.43-12.28,8.99-11.64,16.96,.01,.14-.04,.27-.13,.37-.09,.1-.22,.16-.36,.16Zm-5.75-1.01c1.74,.02,3.49,.04,5.23,.04-.39-8.23,6.14-15.97,12.42-17.46,.76-.18,1.53-.28,2.26-.28,3.88,0,7.06,2.53,8.94,7.13,1.05,2.57,1.04,5.92,1.03,8.88,0,.51,0,.98,0,1.43l1.43-.02c1.36-.02,2.72-.05,4.07-.06,.28,0,.57,0,.85-.02,.38-5.87-.14-10.26-1.64-13.77-2.31-5.41-6.98-8.16-13.86-8.16-2.91,0-6.21,.49-9.79,1.47-10.44,2.84-10.65,10.54-10.93,20.29v.53Z"/></g><g><path class="cls-2" d="M136.39,77.7c2.46,3.08,.33,6.45-2.51,10.19-.08,.11-.11,.25-.1,.38-.46,.75-.91,1.5-1.35,2.24-1.31,2.18-2.65,4.44-4.29,6.5-.09,.11-.12,.25-.1,.38-.72,.98-1.43,1.52-2.16,1.63-1.41,.22-2.9-1.2-4.48-2.69-.79-.75-1.61-1.52-2.47-2.13-.48-.6-.96-1.21-1.41-1.81-1.02-1.34-2-2.6-3.01-3.58-.01-.1-.04-.2-.12-.28-2.3-2.6-3.36-4.83-3.15-6.64,.1-.88,.5-1.66,1.19-2.38,.07,.04,.15,.07,.22,.07,.16,0,.33-.08,.42-.23,1-1.5,2.3-2.83,3.55-4.11,1.3-1.32,2.61-2.7,3.65-4.28,.16-.01,.32-.09,.41-.25,1.47-2.55,3.15-3.97,4.81-3.91,1.54,.03,3.01,1.32,4.27,3.73,.1,.19,.31,.29,.51,.26,.8,1,1.67,2.01,2.52,3,1.06,1.23,2.15,2.51,3.09,3.73,.1,.13,.25,.2,.4,.2,.03,0,.05-.02,.08-.03Zm-7.68,9.11c0-3.18,.02-6.47-.34-9.64-.03-.28-.28-.48-.56-.45-.28,.03-.48,.28-.45,.56,.35,3.12,.35,6.38,.34,9.53v1.57c0,.28,.22,.52,.5,.52,.14,0,.27-.06,.36-.16,.09-.09,.15-.22,.15-.36v-1.57Zm-7.38,2.74c.28-.03,.48-.27,.46-.55-.4-4.21-.62-8.17-.68-11.78,0-.28-.22-.54-.51-.5-.28,0-.5,.24-.5,.52,.05,3.64,.28,7.63,.68,11.86,.02,.26,.24,.46,.5,.46h.05Z"/><path class="cls-4" d="M125.59,99.53c-1.5,0-2.94-1.36-4.47-2.8-.85-.81-1.64-1.54-2.47-2.13-.04-.03-.07-.06-.1-.09-.48-.6-.96-1.21-1.42-1.82-.91-1.19-1.93-2.53-2.96-3.52-.08-.08-.13-.18-.15-.3-2.39-2.72-3.49-5.08-3.26-7.03,.12-.97,.56-1.87,1.33-2.67,.15-.16,.39-.19,.58-.09,1.04-1.54,2.35-2.88,3.63-4.18,1.32-1.35,2.59-2.68,3.59-4.21,.08-.13,.22-.21,.37-.22,1.59-2.72,3.36-4.16,5.15-4.16h.12c1.72,.04,3.34,1.41,4.68,3.99,.17-.02,.35,.05,.46,.18,.8,.99,1.66,2,2.51,2.99,1.09,1.27,2.17,2.52,3.1,3.75h0c.18-.04,.37,.02,.49,.17,2.7,3.38,.35,7.03-2.51,10.79,.01,.11-.01,.25-.07,.34-.46,.74-.91,1.49-1.35,2.23-1.33,2.22-2.68,4.48-4.32,6.55,.02,.12-.02,.27-.09,.37-.8,1.1-1.61,1.7-2.47,1.83-.12,.02-.25,.03-.37,.03Zm-6.32-5.68c.86,.62,1.66,1.36,2.47,2.14,1.52,1.43,2.88,2.74,4.06,2.56,.56-.09,1.14-.53,1.74-1.31,.02-.19,.09-.37,.21-.53,1.6-2.01,2.94-4.25,4.23-6.41,.44-.73,.87-1.44,1.3-2.15,.01-.19,.08-.38,.19-.54,2.66-3.49,4.69-6.62,2.68-9.4-.26-.04-.49-.17-.65-.38-.92-1.2-2-2.45-3.04-3.67-.84-.98-1.66-1.94-2.43-2.89-.3-.05-.56-.24-.7-.52-1.17-2.24-2.5-3.44-3.85-3.46h0c-1.49,0-3.01,1.3-4.37,3.66-.12,.2-.31,.36-.54,.44-1.03,1.53-2.29,2.86-3.6,4.19-1.24,1.26-2.52,2.57-3.5,4.04-.19,.29-.55,.47-.89,.44-.5,.59-.79,1.21-.87,1.89-.19,1.66,.83,3.77,3.03,6.26,.09,.11,.16,.23,.2,.36,.96,.95,1.87,2.11,2.95,3.53,.44,.58,.9,1.17,1.37,1.75Zm2.1-3.81c-.61,0-1.03-.39-1.08-.9-.4-4.26-.63-8.26-.68-11.9,0-.55,.43-1,.98-1.01h.07c.52,0,.94,.44,.94,.98,.05,3.6,.28,7.55,.67,11.74,.05,.55-.35,1.03-.9,1.08h0Zm-.69-10.64c.06,3.02,.27,6.26,.59,9.66-.29-3.39-.49-6.63-.59-9.66Zm7.53,9.99c-.55,0-.99-.45-.99-1v-1.57c0-3.14,.02-6.39-.33-9.47-.06-.54,.33-1.03,.87-1.1,.02,0,.09,0,.11,0,.51,0,.93,.38,.99,.88,.36,3.22,.36,6.51,.35,9.7v1.57c0,.26-.1,.51-.29,.7-.19,.19-.44,.3-.71,.3Zm-.34-12.67v.49c.34,3.16,.33,6.43,.33,9.6v1.58l.04-1.57c0-3.15,.02-6.41-.34-9.58l-.02-.02v-.49Z"/></g><g><path class="cls-3" d="M135.95,75.82c4.66,3.86,1.93,8.39-.53,11.7-.01,.04-.02,.08-.04,.11-.71,1.1-1.41,2.27-2.08,3.4-1.12,1.87-2.27,3.78-3.61,5.6-.01,.03-.01,.06-.03,.09-1.13,2.03-2.32,3.1-3.62,3.3-.15,.02-.31,.03-.45,.03-1.71,0-3.25-1.45-4.87-2.99-.66-.62-1.34-1.26-2.02-1.79-.13-.01-.25-.07-.34-.17-.04-.05-.08-.11-.13-.17-.03-.02-.06-.05-.1-.07-.12-.08-.19-.2-.22-.33-.4-.51-.8-1.02-1.2-1.53-1.1-1.45-2.15-2.81-3.2-3.76-.12-.1-.17-.25-.16-.39-2.32-2.71-3.34-5.04-3.1-7.08,.18-1.52,1.07-2.86,2.64-3.96,.03-.03,.07-.03,.11-.05,.9-1.16,1.93-2.21,2.93-3.23,1.57-1.6,3.05-3.11,4.07-4.99,.09-.16,.25-.25,.41-.25,1.55-2.29,3.34-3.52,5.13-3.5,1.19,.02,2.89,.63,4.52,3.19,.09,.03,.18,.08,.24,.17,.98,1.31,2.15,2.67,3.28,3.99,.73,.85,1.46,1.72,2.17,2.58,.07,.02,.14,.05,.21,.1Zm-2.08,12.07c2.84-3.74,4.98-7.12,2.51-10.19-.03,0-.05,.03-.08,.03-.15,0-.3-.07-.4-.2-.94-1.23-2.04-2.5-3.09-3.73-.85-.99-1.72-2-2.52-3-.2,.03-.41-.07-.51-.26-1.26-2.41-2.73-3.69-4.27-3.73-1.66-.06-3.34,1.36-4.81,3.91-.09,.16-.25,.23-.41,.25-1.04,1.59-2.35,2.96-3.65,4.28-1.26,1.28-2.56,2.61-3.55,4.11-.1,.15-.26,.23-.42,.23-.08,0-.15-.03-.22-.07-.69,.72-1.09,1.51-1.19,2.38-.21,1.81,.85,4.04,3.15,6.64,.07,.08,.1,.18,.12,.28,1.01,.98,1.98,2.24,3.01,3.58,.46,.6,.93,1.21,1.41,1.81,.86,.61,1.68,1.38,2.47,2.13,1.58,1.49,3.06,2.91,4.48,2.69,.73-.11,1.44-.65,2.16-1.63-.02-.14,.01-.27,.1-.38,1.63-2.05,2.98-4.31,4.29-6.5,.44-.74,.89-1.49,1.35-2.24-.02-.13,.01-.27,.1-.38Z"/><path class="cls-4" d="M125.58,100.54c-1.91,0-3.51-1.52-5.2-3.12-.58-.55-1.24-1.17-1.9-1.69-.2-.05-.38-.16-.5-.32l-.09-.12h0c-.2-.14-.34-.32-.41-.53-.38-.48-.77-.97-1.14-1.46-1.09-1.43-2.12-2.77-3.14-3.69-.16-.14-.27-.34-.31-.55-2.35-2.78-3.37-5.18-3.12-7.34,.2-1.67,1.15-3.12,2.84-4.31,.02-.01,.05-.03,.08-.05,.87-1.1,1.82-2.09,2.89-3.18,1.56-1.59,3.01-3.07,3.99-4.88,.12-.22,.32-.38,.55-.46,1.61-2.33,3.47-3.55,5.39-3.55,1.29,.03,3.14,.62,4.88,3.29,.12,.06,.22,.15,.3,.25,.96,1.28,2.11,2.62,3.23,3.92,.74,.87,1.45,1.7,2.13,2.54,.08,.03,.16,.08,.22,.14,5.36,4.43,1.38,9.9-.4,12.3-.02,.05-.04,.11-.08,.17-.69,1.06-1.37,2.21-2.04,3.32-1.23,2.05-2.32,3.85-3.62,5.62-.01,.03-.03,.07-.06,.12-1.2,2.15-2.5,3.31-3.96,3.54-.18,.03-.36,.04-.53,.04Zm-2.77-33.21c-.7,.55-1.38,1.3-2.01,2.23-.09,.13-.23,.21-.38,.21-1.05,1.93-2.55,3.46-4.13,5.07-1.1,1.12-2.06,2.12-2.92,3.22-.06,.07-.13,.13-.22,.16-1.44,1.01-2.26,2.23-2.42,3.61-.22,1.9,.76,4.09,2.99,6.71,.08,.09,.12,.2,.12,.32,1.1,1,2.15,2.38,3.27,3.84,.39,.51,.79,1.02,1.19,1.52,.05,.06,.08,.13,.1,.21l.1,.08s.09,.07,.12,.11l.07,.09c.09,0,.24,.11,.31,.16,.72,.56,1.43,1.23,2.06,1.82,1.68,1.59,3.22,3.07,4.92,2.83,1.14-.18,2.21-1.18,3.26-3.06,.02-.04,.04-.11,.06-.14,1.29-1.75,2.38-3.56,3.58-5.56,.7-1.17,1.38-2.32,2.09-3.41,.02-.05,.03-.1,.06-.14,2.75-3.71,4.73-7.62,.61-11.03-.1-.02-.2-.08-.27-.17-.7-.86-1.43-1.73-2.16-2.58-1.16-1.35-2.32-2.71-3.3-4.01-.11-.03-.2-.1-.26-.2-1.54-2.41-3.09-2.94-4.12-2.96-.56,0-1.13,.14-1.69,.41,.52-.25,1.05-.37,1.57-.37h.12c1.72,.04,3.34,1.41,4.68,3.99,.17-.02,.35,.05,.46,.18,.8,.99,1.66,2,2.51,2.99,1.09,1.27,2.17,2.52,3.1,3.75h0c.18-.04,.37,.02,.49,.17,2.7,3.38,.35,7.03-2.51,10.79,.01,.11-.01,.25-.07,.34-.46,.74-.91,1.49-1.35,2.23-1.33,2.22-2.68,4.48-4.32,6.55,.02,.12-.02,.27-.09,.37-.8,1.1-1.61,1.7-2.47,1.83-1.6,.25-3.19-1.21-4.84-2.77-.85-.81-1.64-1.54-2.47-2.13-.04-.03-.07-.06-.1-.09-.48-.6-.96-1.21-1.42-1.82-.91-1.19-1.93-2.53-2.96-3.52-.08-.08-.13-.18-.15-.3-2.39-2.72-3.49-5.08-3.26-7.03,.12-.97,.56-1.87,1.33-2.67,.15-.16,.39-.19,.58-.09l.04,.02c1-1.56,2.32-2.9,3.59-4.2,1.32-1.35,2.59-2.68,3.59-4.21,.08-.13,.22-.21,.37-.22,.81-1.39,1.67-2.44,2.55-3.14Zm-3.54,26.51c.86,.62,1.66,1.36,2.47,2.14,1.52,1.43,2.89,2.75,4.06,2.56,.56-.09,1.14-.53,1.74-1.31,.02-.19,.09-.37,.21-.53,1.6-2.01,2.94-4.25,4.23-6.41,.44-.73,.87-1.44,1.3-2.15,.01-.19,.08-.38,.19-.54,2.66-3.49,4.69-6.62,2.68-9.4-.26-.04-.49-.17-.65-.38-.92-1.2-2-2.45-3.04-3.67-.84-.98-1.66-1.94-2.43-2.89-.3-.05-.56-.24-.7-.52-1.17-2.24-2.5-3.44-3.85-3.46h0c-1.49,0-3.01,1.3-4.37,3.66-.12,.2-.31,.36-.54,.44-1.03,1.53-2.29,2.86-3.6,4.19-1.24,1.26-2.52,2.57-3.5,4.04-.19,.29-.55,.47-.89,.44-.5,.59-.79,1.21-.87,1.89-.19,1.66,.83,3.77,3.03,6.26,.09,.11,.16,.23,.2,.36,.96,.95,1.87,2.11,2.95,3.53,.44,.58,.9,1.17,1.37,1.75Z"/></g><g><path class="cls-3" d="M128.37,77.17c.36,3.17,.35,6.46,.34,9.64v1.57c0,.14-.06,.27-.15,.36-.09,.1-.22,.16-.36,.16-.28,0-.51-.24-.51-.52v-1.57c0-3.15,.02-6.41-.34-9.53-.03-.28,.17-.53,.45-.56,.27-.03,.53,.17,.56,.45Z"/><path class="cls-4" d="M128.2,89.38c-.55,0-.99-.45-.99-1v-1.57c0-3.14,.02-6.39-.33-9.47-.06-.54,.33-1.03,.87-1.1,.02,0,.09,0,.11,0,.51,0,.93,.38,.99,.88,.36,3.23,.36,6.52,.35,9.7v1.57c0,.26-.1,.51-.29,.7-.19,.2-.44,.3-.71,.3Zm-.32-12.16c.32,3.15,.31,6.42,.3,9.58v1.58l.02,.52v-.49h0l.02-1.6c0-3.15,.02-6.41-.34-9.58Z"/></g><g><path class="cls-3" d="M121.78,88.99c.02,.28-.18,.53-.46,.55h-.05c-.26,0-.48-.19-.5-.46-.4-4.23-.63-8.22-.68-11.86,0-.28,.22-.51,.5-.52,.29-.04,.51,.22,.51,.5,.05,3.61,.28,7.57,.68,11.78Z"/><path class="cls-4" d="M121.33,90.03h-.05c-.52,0-.94-.39-.99-.9-.4-4.26-.63-8.26-.68-11.9,0-.55,.43-1,.98-1.01h0c.58,0,1,.44,1,.98,.05,3.6,.28,7.55,.67,11.74,.05,.55-.35,1.03-.9,1.08-.02,0-.03,0-.05,0Zm-.7-12.81c.01,3.61,.24,7.59,.64,11.82l.07,.5-.05-.48s.02-.01,.02-.03c-.4-4.21-.62-8.19-.68-11.82Z"/></g><g><path class="cls-1" d="M99.37,102.37c1.77,.59,2.6,1.59,2.51,2.27-.08,.63-.92,1.09-2.23,1.25-.1-.08-.23-.13-.36-.12-4.29,.32-7.97-.07-10.94-1.15-.15-.05-.31-.03-.44,.05-1.45-.27-2.07-.94-2.03-1.54,.05-.83,1.31-1.65,3.29-1.58,.15,.01,.27-.04,.37-.13,.8,.03,1.64,.04,2.54,.02,2.5-.04,5.09-.08,7.02,.89,.07,.04,.15,.05,.23,.05,.02,0,.03-.01,.04-.01Z"/><path class="cls-4" d="M99.65,106.37c-.12,0-.23-.04-.32-.12h0c-4.36,.32-8.12-.08-11.14-1.19-.1,.06-.24,.09-.36,.07-1.86-.35-2.47-1.29-2.43-2.05,.07-1.02,1.31-2.04,3.55-2.04h.24c.1-.09,.24-.12,.37-.12,.79,.03,1.62,.04,2.51,.02,.51,0,1-.02,1.48-.02,2,0,4.08,.12,5.75,.95h.01c.07-.01,.14,0,.21,.02,2.12,.71,2.95,1.91,2.84,2.79-.12,.87-1.08,1.47-2.65,1.67-.02,0-.04,0-.06,0Zm-11.46-2.27c.11,0,.22,.02,.33,.06,2.89,1.05,6.53,1.44,10.73,1.12,.2-.01,.36,.03,.51,.1,1.07-.16,1.6-.52,1.64-.81,.05-.38-.58-1.17-2.07-1.7h0c-.16,0-.31-.04-.45-.11-1.86-.94-4.4-.87-6.76-.84-.93,.02-1.67,.01-2.43-.02-.14,.08-.3,.12-.47,.12h-.27c-1.63,0-2.55,.65-2.58,1.12-.02,.33,.44,.78,1.49,1.01,.11-.04,.22-.06,.33-.06Z"/></g><g><path class="cls-2" d="M100.38,118.51c.03,5.52,.06,11.24-.38,16.75,0,.13,.03,.25,.1,.35-1.66,1.4-4.35,3.83-6.58,6.45-2.09-2.76-4.63-5.73-7.4-8.65,0-.03,.02-.07,.02-.1,.06-1.17,.12-2.41,.17-3.66l.12-2.64c.34-7.05,.38-15.7,.38-21.6h0c.45,.15,.99,.28,1.64,.34,.02,0,.03,0,.05,0,.03,0,.06-.01,.09-.01,2.28,.74,4.91,1.14,7.88,1.14,.74,0,1.53-.09,2.31-.14,.09,.09,.22,.1,.36,.1h.03c.5,0,.93-.04,1.3-.12-.14,3.91-.13,7.93-.11,11.8Zm-4.61-1.39c.74-.89,.98-2.06,.6-2.98-.33-.81-1.1-1.31-2.14-1.44-1.09-.33-2.13-.14-2.9,.54-.82,.73-1.19,1.92-.92,2.96,.24,.9,.93,1.56,1.9,1.89,.07,.07,.15,.12,.25,.14,.24,.05,.47,.07,.7,.07,.97,0,1.88-.42,2.52-1.2Zm-.02,7.91c.74-.89,.98-2.06,.6-2.98-.33-.81-1.1-1.32-2.15-1.44-1.09-.33-2.13-.14-2.9,.55-.82,.73-1.19,1.92-.92,2.96,.24,.91,.93,1.57,1.9,1.9,.07,.07,.15,.12,.24,.14,.24,.05,.47,.08,.7,.08,.97,0,1.88-.42,2.52-1.2Zm0,7.73c.74-.89,.98-2.07,.6-2.98-.33-.81-1.1-1.31-2.15-1.44-1.09-.33-2.13-.14-2.9,.55-.82,.73-1.19,1.92-.92,2.96,.24,.91,.93,1.57,1.9,1.9,.07,.06,.15,.12,.24,.14,.24,.05,.47,.07,.7,.07,.97,0,1.88-.42,2.52-1.19Z"/><path class="cls-4" d="M93.53,142.54h-.01c-.15,0-.29-.08-.37-.19-2.07-2.73-4.62-5.71-7.36-8.61-.12-.12-.16-.29-.12-.46,.07-1.18,.13-2.42,.18-3.66l.12-2.64c.34-7.07,.38-15.67,.38-21.54,0-.02,0-.03,0-.05,0-.16,.08-.31,.21-.4,.13-.09,.3-.11,.45-.06,.44,.16,.95,.27,1.52,.32,.08-.01,.17-.02,.24,0,2.27,.74,4.87,1.11,7.73,1.11,.48,0,.97-.04,1.47-.08,.27-.02,.54-.04,.82-.06,.14-.01,.27,.04,.37,.14,.51-.04,.9-.08,1.24-.15,.15-.03,.3,0,.42,.1,.12,.1,.18,.24,.17,.39-.14,4.05-.12,8.34-.11,11.78v.1c.03,5.5,.05,11.2-.38,16.68,.15,.21,.13,.51-.07,.68-1.45,1.22-4.22,3.68-6.52,6.4-.09,.11-.23,.17-.37,.17Zm-6.88-9.3c2.55,2.7,4.92,5.47,6.9,8.04,2.12-2.43,4.54-4.6,5.98-5.83-.01-.08-.02-.15-.01-.23,.43-5.45,.4-11.12,.38-16.61v-.1c-.02-3.29-.04-7.34,.09-11.23-.25,.03-.51,.04-.8,.04-.13,0-.32,0-.51-.09-.21,.01-.43,.03-.64,.05-.53,.04-1.04,.08-1.55,.08-2.92,0-5.59-.38-7.93-1.13-.11,0-.11,0-.15,0-.38-.04-.75-.1-1.1-.18,0,5.86-.05,14.13-.38,20.98l-.12,2.63c-.05,1.21-.11,2.42-.17,3.57Zm6.59,1.2c-.27,0-.54-.03-.81-.09-.13-.02-.27-.09-.39-.19-1.11-.4-1.86-1.18-2.12-2.2-.32-1.21,.11-2.6,1.06-3.45,.89-.79,2.12-1.03,3.37-.65,1.15,.13,2.05,.75,2.45,1.72,.45,1.08,.18,2.44-.67,3.48-.72,.87-1.78,1.37-2.89,1.37Zm-.05-5.77c-.59,0-1.13,.2-1.56,.58-.69,.61-1,1.6-.77,2.47,.19,.72,.75,1.27,1.59,1.56,.07,.02,.13,.06,.18,.11,1.08,.29,2.08-.13,2.75-.94,.63-.76,.83-1.73,.52-2.48-.33-.81-1.14-1.07-1.76-1.14-.38-.11-.68-.16-.97-.16Zm.05-1.95c-.26,0-.53-.03-.8-.09-.14-.03-.27-.09-.39-.19-1.1-.4-1.86-1.18-2.12-2.2-.32-1.21,.11-2.6,1.06-3.45,.89-.79,2.12-1.03,3.37-.65,1.15,.13,2.05,.75,2.45,1.72,.44,1.08,.18,2.44-.67,3.47-.72,.87-1.78,1.37-2.89,1.37Zm-.05-5.78c-.59,0-1.13,.2-1.56,.58-.69,.61-1,1.61-.77,2.47,.19,.72,.75,1.27,1.59,1.56,.07,.02,.13,.06,.19,.12,1.09,.28,2.08-.13,2.75-.95,.63-.76,.83-1.73,.52-2.48-.34-.81-1.14-1.07-1.75-1.14-.38-.11-.68-.16-.97-.16Zm.07-2.14c-.26,0-.53-.03-.8-.08-.15-.03-.28-.09-.4-.19-1.1-.4-1.85-1.18-2.12-2.2-.32-1.22,.11-2.6,1.07-3.45,.88-.79,2.12-1.03,3.37-.64,1.15,.13,2.05,.74,2.45,1.72,.45,1.08,.18,2.44-.67,3.47-.72,.87-1.78,1.37-2.89,1.37Zm-.05-5.77c-.59,0-1.13,.2-1.55,.58-.69,.61-1,1.61-.77,2.48,.19,.72,.75,1.27,1.59,1.56,.07,.02,.13,.06,.18,.11,.21,.05,.41,.08,.61,.08,.84,0,1.6-.36,2.14-1.02,.63-.76,.83-1.73,.52-2.48-.33-.81-1.14-1.07-1.75-1.14-.39-.11-.68-.16-.97-.16Z"/></g><g><path class="cls-3" d="M96.37,114.14c.38,.92,.14,2.08-.6,2.98-.64,.78-1.55,1.2-2.52,1.2-.23,0-.47-.03-.7-.07-.1-.02-.18-.07-.25-.14-.97-.33-1.66-.99-1.9-1.89-.27-1.04,.1-2.23,.92-2.96,.77-.69,1.82-.88,2.9-.54,1.05,.12,1.81,.63,2.14,1.44Zm-1.38,2.33c.5-.6,.67-1.38,.44-1.95-.19-.45-.59-.67-1-.77-.09,.02-.19,.02-.28-.02-.83-.33-1.6-.24-2.16,.26-.54,.48-.79,1.27-.61,1.95,.17,.66,.72,1.12,1.54,1.3,.01,0,.02,.01,.03,.01,.79,.1,1.52-.17,2.03-.79Z"/><path class="cls-4" d="M93.25,118.8c-.26,0-.53-.03-.8-.08-.15-.03-.28-.09-.4-.19-1.1-.4-1.85-1.18-2.12-2.2-.32-1.22,.11-2.6,1.07-3.45,.88-.79,2.12-1.03,3.37-.64,1.15,.13,2.05,.74,2.45,1.72,.45,1.08,.18,2.44-.67,3.47-.72,.87-1.78,1.37-2.89,1.37Zm-.05-5.77c-.59,0-1.13,.2-1.55,.58-.69,.61-1,1.61-.77,2.48,.19,.72,.75,1.27,1.59,1.56,.07,.02,.13,.06,.18,.11,.21,.05,.41,.08,.61,.08,.84,0,1.6-.36,2.14-1.02,.63-.76,.83-1.73,.52-2.48-.33-.81-1.14-1.07-1.75-1.14-.39-.11-.68-.16-.97-.16Zm.07,4.74h0c-.12,0-.24,0-.37-.02-.04,0-.09-.02-.13-.03-1-.25-1.64-.82-1.86-1.64-.22-.85,.08-1.83,.76-2.43,.68-.61,1.66-.74,2.66-.35,.07-.01,.15-.02,.22,0,.65,.16,1.11,.53,1.33,1.06,.3,.74,.1,1.7-.52,2.44-.53,.64-1.27,.99-2.1,.99Zm-.19-.98c.06,0,.13,0,.19,0,.54,0,1-.22,1.35-.63,.38-.46,.53-1.06,.37-1.45-.03-.08-.13-.32-.58-.46-.14,.01-.29,0-.42-.05-.67-.26-1.25-.2-1.67,.17-.41,.37-.6,.95-.46,1.46,.16,.6,.73,.85,1.18,.95h.04Z"/></g><g><path class="cls-3" d="M96.35,122.06c.38,.91,.14,2.08-.6,2.98-.64,.77-1.55,1.2-2.52,1.2-.23,0-.47-.03-.7-.08-.1-.02-.18-.07-.24-.14-.97-.33-1.66-.99-1.9-1.9-.27-1.04,.1-2.23,.92-2.96,.77-.69,1.82-.88,2.9-.55,1.05,.12,1.81,.63,2.15,1.44Zm-1.38,2.33c.5-.6,.68-1.38,.44-1.95-.19-.45-.59-.67-1-.77-.09,.02-.19,.02-.28-.01-.83-.33-1.6-.24-2.16,.26-.54,.48-.79,1.26-.61,1.95,.17,.66,.72,1.12,1.54,1.3,.01,0,.02,.01,.03,.02,.78,.09,1.51-.18,2.03-.79Z"/><path class="cls-4" d="M93.24,126.72c-.26,0-.53-.03-.8-.09-.14-.03-.27-.09-.39-.19-1.1-.4-1.86-1.18-2.12-2.2-.32-1.21,.11-2.6,1.06-3.45,.89-.79,2.12-1.03,3.37-.65,1.15,.13,2.05,.75,2.45,1.72,.44,1.08,.18,2.44-.67,3.47-.72,.87-1.78,1.37-2.89,1.37Zm-.05-5.78c-.59,0-1.13,.2-1.56,.58-.69,.61-1,1.61-.77,2.47,.19,.72,.75,1.27,1.59,1.56,.07,.02,.13,.06,.19,.12,1.09,.28,2.08-.13,2.75-.95,.63-.76,.83-1.73,.52-2.48-.34-.81-1.14-1.07-1.75-1.14-.38-.11-.68-.16-.97-.16Zm.06,4.74h0c-.12,0-.24,0-.36-.02-.04,0-.09-.02-.14-.04-.97-.23-1.64-.82-1.86-1.64-.22-.85,.08-1.83,.76-2.43,.69-.61,1.66-.74,2.66-.35,.07-.01,.15-.02,.22,0,.65,.16,1.11,.53,1.33,1.05,.31,.74,.1,1.7-.52,2.45-.53,.64-1.28,.99-2.1,.99Zm-.17-.98c.61,.05,1.14-.17,1.53-.63,.38-.46,.53-1.05,.37-1.45-.03-.08-.13-.32-.58-.46-.15,.02-.29,0-.42-.06-.67-.26-1.25-.2-1.67,.17-.41,.36-.6,.95-.46,1.46,.16,.61,.73,.85,1.18,.95,.02,0,.04,0,.06,.02Z"/></g><g><path class="cls-3" d="M96.35,129.78c.38,.91,.14,2.09-.6,2.98-.64,.77-1.55,1.19-2.52,1.19-.23,0-.47-.02-.7-.07-.1-.02-.18-.07-.24-.14-.97-.33-1.66-.99-1.9-1.9-.27-1.04,.1-2.23,.92-2.96,.77-.69,1.82-.88,2.9-.55,1.05,.13,1.81,.63,2.15,1.44Zm-1.38,2.33c.5-.6,.68-1.38,.44-1.95-.19-.45-.59-.67-1-.77-.09,.02-.19,.02-.28-.02-.84-.33-1.6-.24-2.16,.26-.54,.48-.79,1.27-.61,1.95,.17,.66,.72,1.12,1.54,1.3,.01,0,.02,0,.03,.02,.79,.09,1.51-.18,2.03-.79Z"/><path class="cls-4" d="M93.24,134.44c-.27,0-.54-.03-.81-.09-.14-.02-.27-.09-.39-.19-1.11-.4-1.86-1.18-2.12-2.2-.32-1.21,.11-2.6,1.06-3.45,.89-.79,2.12-1.03,3.37-.65,1.15,.13,2.05,.75,2.45,1.72,.45,1.08,.18,2.44-.67,3.48-.72,.87-1.78,1.37-2.89,1.37Zm-.05-5.77c-.59,0-1.13,.2-1.56,.58-.69,.61-1,1.6-.77,2.47,.19,.72,.75,1.27,1.59,1.56,.07,.02,.13,.06,.18,.11,1.08,.29,2.08-.13,2.75-.94,.63-.76,.83-1.73,.52-2.48-.33-.81-1.14-1.07-1.76-1.14-.38-.11-.68-.16-.97-.16Zm.06,4.74h0c-.12,0-.24,0-.36-.02-.05,0-.09-.02-.14-.04-.98-.23-1.64-.81-1.86-1.64-.22-.85,.08-1.83,.76-2.43,.69-.61,1.66-.74,2.66-.35,.07-.01,.15-.02,.22,0,.82,.2,1.18,.69,1.33,1.05,.31,.74,.1,1.7-.52,2.44-.53,.64-1.28,.99-2.1,.99Zm-.18-.98c.61,.05,1.15-.17,1.53-.63,.38-.46,.53-1.05,.37-1.45-.03-.08-.13-.32-.58-.46-.15,.01-.29,0-.42-.06-.66-.26-1.24-.2-1.66,.17-.4,.36-.59,.96-.46,1.46,.16,.61,.73,.85,1.18,.95,.01,0,.03,0,.05,.02Z"/></g><g><path class="cls-5" d="M95.44,114.53c.23,.56,.05,1.35-.44,1.95-.51,.62-1.25,.89-2.03,.79-.01,0-.02-.01-.03-.01-.82-.18-1.37-.65-1.54-1.3-.18-.68,.07-1.46,.61-1.95,.56-.5,1.33-.58,2.16-.26,.09,.04,.19,.03,.28,.02,.4,.1,.81,.32,1,.77Z"/><path class="cls-4" d="M93.27,117.77c-.12,0-.24,0-.37-.02-.04,0-.09-.02-.13-.03-1-.25-1.64-.82-1.86-1.64-.22-.85,.08-1.83,.76-2.43,.68-.61,1.66-.74,2.66-.35,.07-.01,.15-.02,.22,0,.65,.16,1.11,.53,1.33,1.06,.3,.74,.1,1.7-.52,2.44-.53,.64-1.27,.99-2.1,.99Zm-.19-.98c.06,0,.13,0,.19,0,.54,0,1-.22,1.35-.63,.38-.46,.53-1.06,.37-1.45-.03-.08-.13-.32-.58-.46-.14,.01-.29,0-.42-.05-.67-.26-1.25-.2-1.67,.17-.41,.37-.6,.95-.46,1.46,.16,.6,.73,.85,1.18,.95h.04Z"/></g><g><path class="cls-5" d="M95.42,122.44c.23,.57,.06,1.35-.44,1.95-.51,.61-1.24,.88-2.03,.79-.01,0-.02-.01-.03-.02-.83-.18-1.37-.64-1.54-1.3-.18-.68,.07-1.46,.61-1.95,.56-.5,1.33-.59,2.16-.26,.09,.03,.19,.03,.28,.01,.4,.1,.81,.32,1,.77Z"/><path class="cls-4" d="M93.25,125.69c-.12,0-.24,0-.36-.02-.04,0-.09-.02-.14-.04-.97-.23-1.64-.82-1.86-1.64-.22-.85,.08-1.83,.76-2.43,.69-.61,1.67-.74,2.66-.35,.07-.01,.15-.02,.22,0,.65,.16,1.11,.53,1.33,1.05,.31,.74,.1,1.7-.52,2.45-.53,.64-1.28,.99-2.1,.99Zm-.17-.98c.61,.05,1.14-.17,1.53-.63,.38-.46,.53-1.05,.37-1.45-.03-.08-.13-.32-.58-.46-.15,.02-.29,0-.42-.06-.67-.26-1.25-.2-1.67,.17-.41,.36-.6,.95-.46,1.46,.16,.61,.73,.85,1.18,.95,.02,0,.04,0,.06,.02Z"/></g><g><path class="cls-5" d="M95.42,130.17c.23,.57,.06,1.35-.44,1.95-.51,.62-1.24,.89-2.03,.79-.01,0-.02-.01-.03-.02-.83-.18-1.37-.64-1.54-1.3-.18-.68,.07-1.46,.61-1.95,.56-.5,1.33-.59,2.16-.26,.09,.04,.19,.03,.28,.02,.4,.1,.81,.32,1,.77Z"/><path class="cls-4" d="M93.25,133.41c-.12,0-.24,0-.36-.02-.05,0-.09-.02-.14-.04-.98-.23-1.64-.81-1.86-1.64-.22-.85,.08-1.83,.76-2.43,.69-.61,1.66-.74,2.66-.35,.07-.01,.15-.02,.22,0,.82,.2,1.18,.69,1.33,1.05,.31,.74,.1,1.7-.52,2.44-.53,.64-1.28,.99-2.1,.99Zm-.18-.98c.61,.05,1.15-.17,1.53-.63,.38-.46,.53-1.05,.37-1.45-.03-.08-.13-.32-.58-.46-.15,.01-.29,0-.42-.06-.66-.26-1.24-.2-1.66,.17-.4,.36-.59,.96-.46,1.46,.16,.61,.73,.85,1.18,.95,.01,0,.03,0,.05,.02Z"/></g><g><path class="cls-3" d="M81.18,169.33c.68,.85,.94,1.81,.71,2.79-.3,1.28-1.38,2.33-2.76,2.68-.32,.08-.64,.12-.96,.12-.74,0-1.46-.24-2.11-.67-.07,.04-.15,.06-.22,.06-.13,0-.26-.05-.36-.15-1.33-1.34-1.84-2.97-1.39-4.48,.4-1.34,1.49-2.35,2.83-2.64,1.47-.32,3.01,.31,4.2,1.7,.14,.17,.15,.4,.05,.58Zm-.27,2.56c.2-.85-.15-1.69-1-2.43-.18-.16-.22-.41-.11-.61-.83-.72-1.75-1.01-2.66-.82-.98,.21-1.78,.95-2.07,1.94-.16,.54-.26,1.53,.48,2.66,.13,0,.25,.06,.34,.16,1.14,1.27,2.37,1.19,3,1.02,1-.26,1.81-1.03,2.02-1.93Z"/><path class="cls-4" d="M78.18,175.41c-.75,0-1.48-.21-2.17-.62-.31,.05-.63-.05-.86-.27-1.47-1.47-2.02-3.28-1.52-4.97,.45-1.51,1.67-2.65,3.2-2.97,1.63-.35,3.37,.34,4.67,1.86,.19,.23,.27,.52,.22,.81,.66,.93,.89,1.95,.64,2.99-.34,1.45-1.56,2.64-3.11,3.04-.35,.09-.72,.14-1.08,.14Zm-2.12-1.64c.1,0,.2,.03,.28,.08,.86,.56,1.78,.71,2.68,.48,1.2-.31,2.15-1.22,2.4-2.32,.19-.81-.02-1.63-.62-2.37-.13-.16-.14-.38-.04-.55-1.07-1.28-2.44-1.84-3.73-1.57-1.17,.25-2.12,1.13-2.47,2.3-.4,1.34,.07,2.79,1.27,4,.07-.03,.15-.05,.23-.05Zm2.12,.62h0c-.69,0-1.7-.22-2.65-1.28-.15,0-.3-.09-.38-.22-.86-1.33-.71-2.49-.54-3.06,.34-1.16,1.28-2.03,2.44-2.27,1.03-.22,2.13,.1,3.08,.92,.17,.15,.22,.4,.11,.6,1.26,1.1,1.32,2.19,1.15,2.92-.25,1.07-1.21,1.99-2.37,2.29-.27,.07-.55,.11-.83,.11Zm-2.32-2.19c.15,.05,.28,.14,.39,.27,.57,.63,1.22,.95,1.93,.95h0c.2,0,.39-.03,.59-.07,.83-.21,1.5-.84,1.67-1.57,.16-.67-.13-1.33-.84-1.95-.24-.2-.36-.5-.34-.8-.65-.48-1.35-.67-2.01-.52-.81,.17-1.46,.78-1.71,1.6-.12,.39-.22,1.16,.32,2.09Z"/></g></g></svg>