<?xml version="1.0" encoding="UTF-8"?><svg id="_ëîé_1" xmlns="http://www.w3.org/2000/svg" viewBox="0 0 250 250"><defs><style>.cls-1{fill:#fff;}.cls-2{fill:#d88d16;}.cls-3{fill:#1c1c1c;}.cls-4{fill:#282828;}.cls-5{fill:#ffdf57;}.cls-6{fill:#ffa506;}</style></defs><g id="cup"><path class="cls-1" d="M238.34,68.58c-.38-.4-.75-.82-1.12-1.22l-.22-.24c-2.04-2.24-4.35-4.78-7.27-7.2-8.97-7.46-19.17-12.39-29.14-17.03-.3-1.47-.63-2.9-.98-4.28-1.3-18.3-25.43-21.23-34.49-22.33l-.54-.07c-5.97-.73-12.19-1.09-19-1.09-14,0-27.93,1.53-41.41,3.01l-.62,.07c-4.61,.5-9.38,1.03-13.98,1.46-.56,.05-1.12,.14-1.67,.27-4.44,.43-8.94,1.25-13.73,2.51-6.79,1.78-28.74,8.74-30.06,24.18-.1,.45-.18,.9-.23,1.35-9.41,3.85-19.35,10.03-26.16,16.5-3.09,2.93-5.48,5.84-7.31,8.87-.25,.41-.47,.83-.67,1.26-2.07,4.06-1.72,9.03,1.06,12.74,2.67,3.6,5.01,7.39,7.28,11.06,4.21,6.8,8.56,13.84,15.38,20.75,10.54,10.68,23.03,22.73,38.04,30.54,5.42,2.81,11.26,4.36,16.44,5.72,.45,.12,.9,.24,1.34,.35,.95,.82,1.89,1.65,2.81,2.46l.25,.22c4.22,3.73,8.55,7.57,14.07,11-.16,1.02-.18,2.07-.06,3.1,.21,2.01,.76,3.92,1.61,5.67-1.34,3.04-2.57,6.04-3.71,8.82-1.02,2.48-2.21,5.38-3.48,8.27-4.38,2.11-8.84,5.57-11.56,10.53-2.69,4.91-3.14,10.46-1.27,15.62,3.23,8.91,11.73,13.42,25.26,13.42,1.51,0,2.97-.05,4.43-.09h.27c.77-.03,1.48-.06,2.04-.06h.3c1.13,.01,2.44,.03,3.9,.03,28.95,0,45.49-5.98,52.03-18.83,3.85-7.56,3.52-15.36-.9-21.41-3.27-4.49-8.43-7.35-14.46-8.1-.78-1.36-1.58-2.76-2.42-4.23-1.78-3.14-3.6-6.34-5.53-9.48,.14-.87,.18-1.76,.12-2.66-.1-1.55-.36-3.05-.78-4.49,3.16-2.8,6.36-5.71,9.59-8.87,16.02-5.47,27.57-16.46,37.2-26.43,6.96-7.21,13.53-14.77,19.88-22.1l1.06-1.22c1.77-2.04,3.54-4.08,5.33-6.11,1.11-1.27,2.34-2.57,3.55-3.84,3.29-3.47,6.98-7.37,10.01-12.35,1.71-2.04,2.7-4.59,2.81-7.31,.13-3.25-1.02-6.35-3.26-8.75Z"/><g><path class="cls-2" d="M186.46,39.11c.12,.41,.23,.84,.34,1.25-.57,8.17-17.91,10.88-24.58,11.92l-.7,.11c-10.2,1.61-20.79,1.94-31.03,2.25-4.06,.13-8.25,.26-12.35,.46-.24,.01-.44,.16-.56,.36-1.68,.14-3.32,.4-4.9,.66-1.35,.23-2.74,.46-4.13,.61-13.41,1.41-28.61,.92-42.79-1.39-.1-.02-.19-.01-.28,.01-5.74-2.18-8.72-4.73-8.62-7.41,.19-5.06,10.73-10.53,20.55-13.11,5.45-1.43,10.39-2.22,15.1-2.41,.2,0,.37-.1,.49-.23,4.18-.41,8.42-.87,12.55-1.32,19.01-2.09,38.66-4.24,57.45-1.94l.53,.06c5.92,.72,21.19,2.58,23.07,9.46-.15,.18-.22,.41-.15,.64Z"/><path class="cls-4" d="M92.93,58.08c-9.03,0-18.45-.76-27.25-2.19-.11,.03-.27,.02-.38-.02-6.06-2.3-9.08-4.98-8.97-7.94,.2-5.38,10.7-10.92,20.96-13.62,5.48-1.44,10.45-2.24,15.21-2.43,.06,0,.09-.03,.11-.05,.09-.1,.22-.16,.35-.18,4.18-.41,8.41-.87,12.54-1.32,13.14-1.44,26.73-2.94,40.08-2.94,6.31,0,12.03,.33,17.5,1l.53,.06c6.45,.78,21.55,2.62,23.53,9.86,.05,.17,0,.36-.11,.5-.02,.02-.06,.08-.05,.13,.08,.28,.16,.57,.23,.85l.11,.42c.02,.06,.02,.12,.02,.18-.6,8.61-18.35,11.38-25.04,12.42l-.7,.11c-10.23,1.62-20.84,1.95-31.1,2.26h-.39c-3.93,.13-7.99,.26-11.95,.46-.06,0-.09,.05-.11,.08-.09,.16-.25,.26-.43,.28-1.73,.15-3.43,.42-4.85,.66-1.21,.21-2.71,.46-4.16,.61-4.99,.53-10.27,.79-15.69,.79Zm-27.27-3.28c.07,0,.14,0,.21,.02,13.97,2.27,29.44,2.78,42.64,1.38,1.41-.15,2.84-.39,4.09-.61,1.38-.23,3.01-.49,4.7-.65,.21-.22,.5-.36,.81-.38,3.98-.2,8.04-.33,11.97-.45h.39c10.23-.33,20.8-.65,30.96-2.26l.7-.11c6.43-1,23.45-3.66,24.11-11.34l-.09-.33c-.07-.28-.14-.55-.22-.82-.09-.29-.06-.6,.08-.88-2.07-6.35-16.92-8.16-22.54-8.84l-.53-.06c-5.42-.66-11.1-.99-17.36-.99-13.3,0-26.85,1.49-39.96,2.93-4.08,.45-8.25,.9-12.38,1.31-.2,.16-.45,.24-.71,.25-4.67,.19-9.57,.97-14.97,2.39-9.76,2.56-19.97,7.98-20.14,12.6-.09,2.39,2.72,4.75,8.13,6.83,.04,0,.07,0,.11,0Z"/></g><g><path class="cls-5" d="M164.89,202.07c1.49,2.04,1.43,4.9-.17,8.04-6.2,12.16-34.97,11.89-44.42,11.8-.88-.02-1.93,.02-3.1,.06-6.07,.2-15.26,.5-17.21-4.88-.62-1.7-.46-3.4,.46-5.08,1.54-2.81,4.95-5,7.93-5.96-.55,1.11-1.1,2.22-1.69,3.29,0,0,0,.02,0,.02-.02,.05-.03,.09-.04,.15-.01,.04-.03,.07-.03,.11,0,.04,0,.08,.01,.13,0,.05,0,.09,.02,.14,.01,.03,.03,.06,.05,.1,.03,.05,.05,.1,.08,.14,0,0,0,.01,.01,.02,3.81,4.25,10.17,5.67,16.94,5.67,10.34,0,21.64-3.3,26.3-4.82,1.02-.34,1.96-.56,2.86-.77,2.41-.58,4.49-1.07,6.72-3.28,.27-.27,.28-.71,0-.98-.02-.02-.04-.03-.06-.04,.05-.2,.02-.42-.12-.59-1.49-1.91-2.9-3.95-4.27-6.08,4.24-.66,7.95,.42,9.71,2.83Z"/><path class="cls-4" d="M113.18,222.6c-5.05,0-11.97-.55-13.7-5.32-.67-1.84-.51-3.7,.49-5.52,1.75-3.19,5.53-5.34,8.24-6.22,.21-.07,.44,0,.58,.16,.14,.17,.17,.4,.08,.6-.55,1.1-1.09,2.2-1.67,3.27-.01,.03-.02,.06-.04,.08l.02,.11,.02,.02c3.27,3.64,8.83,5.48,16.54,5.48,10.35,0,21.72-3.35,26.13-4.79,1.06-.35,2.04-.58,2.91-.79,2.33-.56,4.34-1.04,6.47-3.14,.04-.04,.05-.08,.05-.1s0-.07-.04-.1c-.16-.13-.25-.36-.21-.56,0-.04,.01-.09-.01-.12-1.38-1.77-2.78-3.77-4.3-6.12-.1-.16-.11-.35-.04-.52,.08-.17,.23-.29,.41-.31,.84-.13,1.67-.2,2.48-.2,3.43,0,6.25,1.18,7.75,3.25,1.62,2.22,1.57,5.27-.13,8.6-4.1,8.04-18.05,12.11-41.49,12.11-1.31,0-2.46-.01-3.42-.02h-.44c-.65,0-1.37,.02-2.15,.05l-.48,.02c-1.25,.04-2.62,.09-4.04,.09Zm-5.91-15.55c-2.32,.99-5,2.78-6.34,5.23-.84,1.53-.98,3.09-.42,4.63,1.5,4.13,7.95,4.61,12.67,4.61,1.4,0,2.77-.05,4-.09l.48-.02c.8-.03,1.53-.05,2.19-.05h.46c.95,.01,2.1,.02,3.4,.02,28.63,0,37.84-6.26,40.52-11.52,1.5-2.95,1.58-5.6,.21-7.47-1.5-2.06-4.66-3.09-8.34-2.72,1.32,2.01,2.56,3.76,3.77,5.31,.16,.2,.25,.45,.25,.72,.15,.19,.24,.46,.24,.74,0,.33-.13,.64-.37,.88-2.34,2.31-4.6,2.85-6.98,3.42-.85,.2-1.8,.43-2.82,.76-4.46,1.46-15.96,4.85-26.47,4.85-8.03,0-13.87-1.97-17.35-5.85h0s-.04-.04-.05-.07c-.05-.07-.08-.13-.1-.17-.04-.07-.07-.13-.1-.2-.01-.04-.03-.16-.04-.21-.02-.14-.02-.19-.02-.26,0-.05,.03-.18,.05-.23,.01-.05,.03-.12,.06-.2,0-.02,.01-.04,.02-.05,.37-.69,.73-1.38,1.08-2.07Z"/></g><g><path class="cls-5" d="M139.71,170.02c.21,.96-.23,1.91-1.31,2.83-3.13,2.65-11.08,4.26-15.89,2.33-1.8-.72-2.9-1.83-3.29-3.32,.06-.09,.1-.19,.11-.31,.41-5.05,6.18-8.02,11.62-7.97,3.81,.03,7.95,1.61,8.98,5.8-.17,.16-.27,.4-.21,.65Z"/><path class="cls-4" d="M127.57,176.57c-2,0-3.82-.31-5.27-.88-1.97-.78-3.18-2.03-3.61-3.69-.04-.15-.01-.3,.07-.43,.47-5.57,6.56-8.54,12.05-8.54h.14c3.86,.03,8.39,1.68,9.5,6.21,.05,.19-.01,.39-.16,.53-.03,.02-.07,.07-.05,.13,.26,1.17-.24,2.3-1.49,3.36-2.3,1.95-6.9,3.31-11.18,3.31Zm-7.77-4.66c.38,1.22,1.36,2.15,2.91,2.76,1.32,.53,3,.81,4.86,.81,3.99,0,8.39-1.28,10.48-3.05,.92-.78,1.3-1.55,1.13-2.29-.07-.31-.01-.63,.15-.89-1.34-4.7-6.74-5.12-8.39-5.13h-.13c-5.08,0-10.56,2.79-10.94,7.47,0,.11-.03,.21-.07,.32Z"/></g><g><path class="cls-1" d="M143.82,77.87c10.71,7.04,16.23,23.4,12.05,35.73-4.15,12.22-17.81,17.55-28.79,17.34-11.96-.23-21.9-6.19-27.99-16.79-.45-.78-1.02-1.78-1.55-2.84,.33-.09,.55-.41,.5-.77-1.77-12.44,1.59-22.57,9.98-30.11,9.87-8.87,24.59-9.92,35.79-2.57Zm-3.79,40.87c.38-.05,.64-.4,.59-.79-.39-2.7-.67-5.04-.92-7.83-.03-.38-.38-.67-.75-.63-.02,0-.04-.3-.06-.3-.04,0-.07-.34-.11-.34h-3.67c-1.3-8.09-2.2-16-2.75-22.37,.12-.15,.19-.18,.17-.38-.03-.21-.16-.3-.32-.41-.13-.23-.38-.34-.65-.31-.23,.02-.41,.17-.52,.35-.96,.12-1.92,.25-2.89,.37-2.74,.33-5.58,.68-8.23,1.18-.37,.07-.63,.43-.55,.81,0,.02,.01,.03,.02,.05-1.85,2.47-4.28,4.54-6.64,6.53-.98,.83-1.95,1.65-2.89,2.5-.21,.19-.27,.49-.18,.75-.06,.18-.05,.39,.05,.57,1.09,1.91,2.54,4.05,3.99,5.87,.14,.17,.34,.26,.54,.26,.15,0,.3-.05,.43-.15,.19-.15,.26-.37,.25-.59,.03-.01,.05,0,.08-.02,2.34-1.1,4.51-2.41,6.62-3.97-.02,2.57,.72,6.55,1.52,9.85-1.56,.6-3.39,1.03-4.94,1.12-.16-.17-.39-.26-.63-.21-.38,.07-.62,.44-.54,.82,.56,2.77,1.18,5.58,1.86,8.36,.08,.32,.36,.53,.67,.53,.05,0,.11,0,.17-.02h0c.13,.15,.32,.25,.52,.25,.06,0,.11,0,.17-.02,4.8-1.2,10.64-1.93,18.38-2.29,.17,0,.31-.08,.43-.19,0,.02,0,.03,0,.05,.05,.35,.34,.6,.68,.6,.03,0,.07,0,.1,0Z"/><path class="cls-4" d="M127.71,131.49c-.21,0-.43,0-.64,0-12.16-.24-22.26-6.3-28.45-17.06-.48-.83-1.04-1.82-1.57-2.86-.08-.15-.08-.32-.01-.47,.07-.15,.2-.26,.35-.31,.06-.02,.12-.08,.11-.16-1.8-12.63,1.62-22.92,10.16-30.59,5.44-4.89,12.5-7.58,19.87-7.58,5.9,0,11.63,1.72,16.58,4.96,10.91,7.16,16.52,23.81,12.26,36.36-4.15,12.24-17.39,17.72-28.67,17.72Zm-29.46-19.99c.45,.86,.91,1.68,1.32,2.38,5.98,10.42,15.76,16.28,27.52,16.51,10.65,.22,24.22-5.08,28.26-16.97,4.11-12.11-1.31-28.18-11.83-35.1-4.77-3.13-10.3-4.79-15.98-4.79-7.1,0-13.9,2.59-19.15,7.31-8.25,7.41-11.55,17.38-9.81,29.63,.05,.39-.08,.76-.33,1.03Zm22.01,9.64c-.25,0-.5-.08-.71-.23-.56,0-1.05-.39-1.19-.94-.68-2.78-1.3-5.6-1.86-8.38-.07-.32,0-.66,.18-.93,.18-.27,.46-.46,.79-.53,.3-.06,.64,0,.91,.19,1.27-.1,2.77-.43,4.11-.91-.45-1.92-1.24-5.58-1.4-8.46-1.85,1.3-3.72,2.4-5.67,3.33-.07,.25-.21,.47-.41,.64-.52,.41-1.33,.32-1.74-.2-1.46-1.83-2.93-3.99-4.04-5.94-.14-.25-.19-.55-.14-.83-.09-.43,.05-.87,.38-1.16,.92-.84,1.89-1.66,2.86-2.48,2.19-1.85,4.63-3.91,6.45-6.29,0-.26,.07-.52,.22-.74,.19-.27,.47-.46,.8-.52,2.77-.52,5.82-.89,8.27-1.18,.62-.08,1.25-.16,1.86-.24l.8-.11c.21-.22,.47-.35,.76-.38,.02,0,.13,0,.14,0,.39,0,.73,.17,.95,.46,.18,.12,.42,.33,.47,.73,.04,.3-.04,.49-.14,.63,.44,5.06,1.25,12.82,2.65,21.65h3.2c.46,0,.56,.46,.59,.6h-.01s.03,.07,.04,.1c.47,.16,.8,.57,.85,1.05,.25,2.75,.53,5.08,.92,7.8,.05,.33-.04,.66-.24,.93-.2,.26-.49,.43-.81,.48-.02,0-.15,.01-.18,.01-.39,0-.74-.19-.97-.48-.04,0-.08,.01-.12,.01-7.71,.37-13.51,1.09-18.27,2.28-.11,.02-.2,.04-.3,.04Zm-.52-1.34c.16,0,.31,.07,.41,.19,.03,.04,.07,.06,.11,.06,4.87-1.21,10.75-1.94,18.52-2.31,.15-.13,.4-.2,.59-.13,.19,.06,.37,.2,.4,.39,.02,.15,.08,.2,.16,.2l.12-.06s.04-.06,.03-.11c-.4-2.74-.67-5.09-.93-7.86,0-.09-.09-.15-.15-.14-.39,0-.58-.21-.63-.63,.02,.09,.21,.33,.51,.33-.29-.04-.43-.19-.5-.34h-3.27c-.27,0-.5-.19-.54-.46-1.47-9.19-2.31-17.26-2.76-22.41-.01-.13,.02-.26,.1-.37h0c-.08-.05-.14-.12-.19-.2l-.09-.58-.03,.55s-.08,.04-.12,.09c-.09,.14-.23,.23-.39,.25l-1.02,.13c-.62,.08-1.24,.16-1.87,.24-2.43,.29-5.46,.66-8.2,1.17-.05,0-.08,.04-.1,.06-.01,.02-.03,.06-.02,.11,.02,.14,0,.36-.08,.48-1.91,2.55-4.47,4.71-6.72,6.62-1,.84-1.95,1.65-2.87,2.49-.05,.05-.05,.11-.04,.16,.04,.12,.04,.24,0,.36-.01,.03-.02,.08,0,.13,1.08,1.9,2.52,4.01,3.94,5.8,.04,.05,.1,.06,.12,.06,.13-.06,.14-.12,.13-.16-.02-.23,.12-.45,.34-.54,.02,0,.06-.02,.1-.03,2.24-1.05,4.36-2.33,6.48-3.89,.17-.12,.39-.14,.57-.05,.18,.09,.3,.28,.3,.49-.02,2.15,.55,5.78,1.51,9.72,.06,.27-.08,.54-.33,.64-1.65,.64-3.51,1.06-5.1,1.16-.16,0-.32-.05-.43-.17-.03-.03-.07-.05-.1-.05-.07,.01-.1,.04-.12,.07-.01,.02-.03,.06-.02,.11,.56,2.77,1.18,5.57,1.85,8.34,.02,.08,.09,.11,.14,.11h0c.05,0,.11-.02,.17-.02Zm12.25-33.65l.48,.21-.43-.34s-.05,.08-.05,.13Z"/></g><g><path class="cls-6" d="M228.51,76.85s-.08,.08-.11,.14c-2.38,4.26-5.57,7.63-8.94,11.19-1.28,1.35-2.6,2.75-3.86,4.19-2.15,2.45-4.29,4.91-6.43,7.38-6.26,7.21-12.74,14.67-19.43,21.6-9.25,9.57-18.67,18.53-31.81,23.08,5.24-5.57,10.08-11.21,14.37-16.79,.79-1.04,1.56-2.1,2.32-3.17,11.24-7.04,19.42-17.45,27.33-27.54,2.3-2.93,4.67-5.95,7.08-8.84,1.13-1.36,2.36-2.91,3.56-4.41,1.1-1.38,2.16-2.71,3.08-3.82h0c.03-.06,.06-.11,.08-.16,.02-.03,.03-.06,.05-.09,.01-.04,0-.09,.01-.14,0-.04,.02-.09,.01-.13,0-.04-.02-.07-.03-.1-.01-.05-.02-.11-.05-.16h0c-4.55-8.04-14.23-12.84-22.01-16.7-.74-.37-1.47-.73-2.18-1.09-.2-2.99-.51-5.97-.91-8.88l2.54,1.18c9.87,4.57,20.07,9.3,28.36,16.19,2.23,1.86,4.15,3.96,6,5.99,.34,.37,.67,.73,1,1.09Z"/><path class="cls-4" d="M157.92,144.96c-.18,0-.35-.09-.46-.25-.14-.21-.11-.49,.06-.67,5.31-5.65,10.13-11.28,14.33-16.75,.7-.91,1.43-1.91,2.3-3.15,.04-.06,.09-.11,.16-.15,11.18-7,19.32-17.38,27.19-27.41l.24-.31c2.22-2.83,4.52-5.75,6.85-8.54,1.13-1.35,2.36-2.9,3.55-4.4,1.09-1.37,2.15-2.69,3.07-3.8,.02-.03,.04-.05,.06-.08h0s-.03-.09-.03-.1c-.01-.02-.02-.05-.03-.08-4.5-7.85-14.05-12.59-21.74-16.4l-2.18-1.09c-.17-.09-.29-.26-.3-.45-.2-2.98-.51-5.96-.91-8.85-.03-.2,.06-.39,.22-.51,.16-.12,.37-.14,.55-.06l2.54,1.18c9.91,4.59,20.14,9.33,28.48,16.27,2.27,1.89,4.19,4,6.05,6.04l1,1.09c.2,.22,.19,.55-.02,.76-2.44,4.33-5.65,7.72-9.04,11.31l-.13,.14c-1.23,1.3-2.51,2.65-3.72,4.03-2.13,2.42-4.24,4.86-6.35,7.29l-.19,.22c-6.23,7.17-12.67,14.59-19.33,21.48-9.28,9.61-18.72,18.61-32.03,23.22-.06,.02-.12,.03-.18,.03Zm17.06-20.1c-.86,1.21-1.58,2.2-2.27,3.1-3.8,4.95-8.11,10.04-12.83,15.15,11.97-4.73,20.78-13.17,29.46-22.15,6.64-6.87,13.07-14.28,19.29-21.44l.19-.22c2.11-2.43,4.22-4.87,6.35-7.29,1.23-1.4,2.51-2.75,3.75-4.06l.13-.14c3.3-3.48,6.42-6.78,8.76-10.9l-.71-.78c-1.83-2.01-3.73-4.09-5.94-5.94-8.23-6.84-18.39-11.55-28.22-16.11l-1.65-.76c.33,2.5,.58,5.06,.76,7.62l1.9,.95c7.85,3.89,17.61,8.74,22.24,16.91,0,.02,.02,.04,.03,.05,.05,.09,.07,.19,.08,.25,.01,.03,.03,.09,.04,.16,0,.06,0,.19,0,.25,0,.05,0,.14-.03,.23-.01,.05-.07,.17-.09,.21-.02,.05-.05,.12-.1,.19-.02,.02-.03,.05-.05,.07h0c-.92,1.1-1.98,2.44-3.07,3.81-1.2,1.51-2.43,3.06-3.56,4.42-2.32,2.78-4.61,5.69-6.83,8.52l-.24,.31c-7.91,10.08-16.08,20.5-27.37,27.6Z"/></g><g><path class="cls-6" d="M92.88,143.44c-.57-.15-1.13-.3-1.7-.45-4.73-1.25-9.62-2.54-13.77-4.7-13.34-6.94-24.97-18.17-34.82-28.16-5.81-5.89-9.59-12.01-13.6-18.49-2.34-3.78-4.77-7.69-7.65-11.61,0-.01,.02-.02,.03-.03,1.23-2.05,2.93-4.09,5.18-6.23,7.48-7.1,19.58-13.84,29.01-16.22,.33,3.27,.86,6.57,1.53,9.87-.18-.06-.39-.06-.57,.05-2.25,1.31-4.68,2.52-7.02,3.68-5.33,2.66-10.85,5.41-15.1,9.61-.18,.18-.23,.43-.17,.66-.25,.2-.34,.56-.18,.86,9.09,17.01,18.75,33.19,36.74,44.15,3.62,2.2,7.24,4.18,10.77,5.89,.09,.05,.2,.07,.3,.07,.09,0,.17-.04,.25-.07,3.38,3.94,6.99,7.51,10.78,11.12Z"/><path class="cls-4" d="M92.88,143.98s-.09,0-.14-.02l-1.7-.45c-4.76-1.25-9.67-2.55-13.88-4.74-13.41-6.97-25.08-18.24-34.96-28.26-5.85-5.93-9.65-12.08-13.68-18.59-2.21-3.57-4.72-7.62-7.62-11.58-.14-.19-.14-.45,0-.64,0-.01,.02-.03,.04-.04,1.26-2.08,2.97-4.13,5.24-6.29,7.47-7.09,19.77-13.96,29.25-16.35,.15-.04,.32,0,.45,.08,.13,.09,.21,.23,.23,.39,.3,3.02,.8,6.23,1.52,9.82,.04,.19-.03,.39-.18,.52-.15,.13-.35,.17-.54,.1h-.12c-2.29,1.33-4.71,2.54-7.05,3.71-5.29,2.64-10.77,5.37-14.96,9.51-.04,.04-.04,.1-.03,.14,.05,.21-.02,.42-.18,.56-.05,.04-.08,.11-.05,.18,9.06,16.95,18.67,33.06,36.55,43.94,3.61,2.19,7.22,4.17,10.72,5.87l.12-.02c.21-.08,.45-.02,.6,.16,3.42,3.99,7.14,7.64,10.66,11,.16,.09,.27,.27,.27,.47,0,.3-.26,.56-.55,.54h-.01ZM21.99,80.01c2.84,3.89,5.28,7.84,7.45,11.34,3.99,6.46,7.76,12.55,13.53,18.4,9.82,9.96,21.42,21.16,34.68,28.06,4.01,2.08,8.73,3.35,13.32,4.56-3.02-2.91-6.14-6.05-9.06-9.43-.21,.01-.43-.03-.61-.13-3.52-1.7-7.16-3.69-10.8-5.91-18.11-11.03-27.81-27.28-36.94-44.36-.22-.42-.18-.92,.1-1.3,0-.32,.13-.63,.36-.86,4.31-4.27,9.87-7.03,15.24-9.71,2.33-1.16,4.74-2.36,6.99-3.67,.06-.03,.12-.06,.18-.09-.61-3.13-1.06-5.98-1.35-8.67-9.23,2.48-20.97,9.1-28.16,15.93-2.12,2.01-3.73,3.93-4.92,5.84Z"/></g><g><path class="cls-6" d="M139.07,116.68c-.1-.05-.22,.2-.34,.21-7.8,.37-13.69,1.11-18.57,2.31-.56-2.33-1.08-4.67-1.56-6.99,1.82-.15,3.93-.67,5.63-1.4,.03-.01,.05-.03,.07-.05,.04-.03,.08-.05,.11-.08,.03-.03,.06-.06,.09-.1,.03-.04,.05-.07,.07-.11,.02-.04,.03-.08,.04-.12,.01-.04,.02-.08,.03-.13,0-.05,0-.09,0-.14,0-.03,0-.05,0-.08-.89-3.51-1.83-8.47-1.6-10.87,.04-.38-.24-.72-.62-.76,0,0-.01,0-.02,0-.24-.27-.65-.31-.93-.09-2.23,1.73-4.54,3.14-7.04,4.32-.08,.03-.14,.09-.2,.14-1.17-1.53-2.3-3.21-3.19-4.77,.85-.76,1.72-1.51,2.6-2.25,2.46-2.08,5.01-4.23,6.96-6.89,.06-.09,.1-.18,.12-.28,2.46-.44,5.06-.77,7.6-1.07,.91-.11,1.8-.23,2.69-.34,.58,6.66,1.54,14.46,2.93,23.82,.05,.34,.35,.59,.68,.59,.03,0,.07-.29,.1-.3,.35-.05,.58,.47,.58-.97h3.08c.2,2.89,.42,4.34,.7,6.38Z"/><path class="cls-4" d="M120.17,119.75c-.1,0-.2-.03-.28-.08-.12-.08-.21-.2-.25-.34-.56-2.3-1.08-4.66-1.56-7.01-.03-.15,0-.31,.1-.44,.09-.12,.24-.2,.39-.22,1.79-.15,3.83-.66,5.46-1.36,0,0,.07-.08,.07-.09,0-.02,0-.16,0-.18-.88-3.46-1.84-8.48-1.6-10.96,0-.05-.02-.09-.03-.11-.01-.01-.04-.04-.07-.05-.15,0-.3-.07-.4-.18-.03-.03-.07-.05-.11-.05-2.35,1.78-4.69,3.22-7.23,4.41-.11,.11-.28,.19-.44,.18-.16,0-.32-.07-.42-.2-1.19-1.57-2.34-3.28-3.23-4.83-.13-.22-.08-.51,.11-.68,.85-.76,1.73-1.51,2.61-2.26,2.43-2.05,4.95-4.18,6.88-6.8,.05-.22,.24-.45,.46-.49,2.53-.45,5.26-.79,7.63-1.08,.64-.08,1.27-.16,1.9-.24l.78-.1c.14-.02,.29,.02,.41,.12,.12,.09,.19,.23,.2,.38,.59,6.69,1.54,14.44,2.91,23.68,.05-.03,.1-.04,.16-.06,.03,0,.08,0,.12-.01,0-.1,.01-.24,.01-.43,0-.3,.24-.55,.54-.55h3.08c.29,0,.52,.22,.54,.51,.18,2.58,.37,3.98,.62,5.75l.06,.45c.03,.07,.05,.14,.05,.22,0,.25-.17,.47-.41,.53-.11,.1-.25,.2-.44,.22-7.78,.37-13.65,1.1-18.49,2.3-.04,.01-.09,.02-.13,.02Zm-.9-7.05c.41,1.96,.85,3.92,1.31,5.85,4.76-1.13,10.48-1.83,17.91-2.19l-.03-.2c-.22-1.6-.42-3.01-.59-5.32h-2.05c-.04,.53-.19,1.03-.76,1.03h0c-.09,.14-.23,.25-.45,.25-.61,0-1.13-.45-1.22-1.06-1.35-9.05-2.29-16.68-2.88-23.29l-.22,.03c-.63,.08-1.27,.16-1.91,.24-2.25,.27-4.85,.6-7.27,1.02-.02,.04-.05,.08-.07,.11-2.01,2.73-4.57,4.9-7.06,6.99-.76,.64-1.52,1.29-2.26,1.94,.76,1.28,1.68,2.65,2.64,3.94,2.39-1.14,4.61-2.5,6.77-4.17,.44-.34,1.09-.33,1.52,.01,.27,.07,.49,.21,.66,.41,.21,.26,.31,.58,.28,.91-.21,2.19,.65,6.94,1.59,10.68,.01,.04,.02,.13,.02,.17,0,.06,.01,.14,0,.22-.01,.11-.03,.17-.04,.23-.02,.07-.04,.15-.09,.23-.03,.07-.08,.14-.12,.19-.05,.07-.1,.13-.17,.19-.05,.04-.11,.08-.18,.13-.04,.03-.1,.07-.15,.09-1.54,.66-3.43,1.16-5.18,1.38Z"/></g><g><path class="cls-6" d="M158.35,206.17s.02,0,.02,.02c-1.86,1.72-3.61,2.15-5.8,2.67-.93,.22-1.9,.45-2.97,.81-7.42,2.42-32.11,9.49-41.45-.12,3.02-5.63,5.54-11.72,7.96-17.62,2.09-5.08,4.25-10.32,6.7-15.18,1.43,.44,3.07,.66,4.8,.66,4,0,8.34-1.11,11.03-3.01,.01,.01,.01,.03,.02,.05,3.02,4.32,5.84,9.28,8.56,14.09,3.44,6.07,7,12.35,11.13,17.64Z"/><path class="cls-4" d="M123.69,214.99c-7.31,0-12.67-1.71-15.94-5.07-.17-.17-.2-.43-.09-.64,3.06-5.72,5.65-12.01,7.94-17.57,2.09-5.07,4.25-10.31,6.72-15.22,.12-.24,.39-.35,.65-.28,1.35,.42,2.96,.64,4.64,.64,4,0,8.21-1.14,10.71-2.91,.23-.16,.55-.12,.73,.09,.03,.03,.06,.08,.08,.13,3.02,4.32,5.81,9.25,8.52,14.01,3.47,6.12,7.01,12.36,11.1,17.62,.02,.02,.05,.05,.06,.07,.16,.22,.13,.53-.07,.72-1.99,1.84-3.87,2.28-6.04,2.8-.92,.22-1.88,.45-2.93,.79-4.43,1.45-15.84,4.81-26.07,4.81Zm-14.88-5.55c3.08,2.96,8.08,4.46,14.88,4.46,10.08,0,21.35-3.33,25.73-4.75,1.09-.36,2.07-.59,3.01-.82,1.96-.47,3.54-.84,5.18-2.21-4.01-5.21-7.5-11.36-10.88-17.32-2.67-4.7-5.37-9.47-8.26-13.65-2.71,1.71-6.9,2.8-10.88,2.8-1.61,0-3.17-.19-4.52-.56-2.37,4.75-4.46,9.82-6.48,14.74-2.25,5.47-4.79,11.65-7.79,17.31Z"/></g><g><path class="cls-6" d="M187.48,43.07c2.92,12.39,3.79,27.94,2.14,40.05-1.93,14.1-7.58,28.27-16,40.32-.02,.01-.03,.02-.05,.03-.18,.11-.29,.3-.31,.49-.68,.95-1.36,1.89-2.07,2.81-4.33,5.65-9.24,11.36-14.55,16.99-.12,.03-.23,.08-.32,.18-5.64,5.91-11.27,10.83-17.23,16.03-1.1,.96-2.2,1.92-3.31,2.9-.05,.04-.08-.12-.11-.08-1.38-.52-2.96-1.05-4.7-1.05h-.14c-2.71,0-5.51,.93-7.81,2.25-.04-.22-.17-.32-.39-.42-1.55-.68-2.95-1.41-4.44-2.24-.66-.37-1.33-.72-2.03-1.09-6.04-3.23-10.55-7.21-15.32-11.43-1.07-.95-2.15-1.89-3.25-2.84l-1.02-.97c-5.47-5.18-10.64-10.07-15.26-15.84-8.94-11.16-14.24-23.04-17.71-39.73-.7-3.36-1.52-6.73-2.39-10.31-2.25-9.23-4.55-18.75-4.56-27.8,1.59,2.17,4.84,4.12,9.73,5.81,.08,.03,.15,.04,.23,.04,.2,0,.37-.11,.5-.25,8.49,1.3,17.29,1.98,25.85,1.98,5.42,0,10.73-.27,15.79-.8,1.43-.15,2.84-.39,4.21-.62,2.24-.38,4.56-.77,6.97-.77,.05,0,.11,0,.14,0,.25,0,.45-.14,.58-.33,3.32-.14,6.66-.26,9.93-.36,10.29-.32,20.93-.64,31.21-2.27l.69-.11c6.28-.98,21.57-3.37,25.05-10.59Zm-30.3,70.97c4.37-12.89-1.4-29.98-12.6-37.33-11.73-7.7-27.14-6.59-37.48,2.69-8.69,7.81-12.21,18.24-10.48,31.01-.09,0-.18,.03-.27,.07-.35,.17-.49,.59-.31,.93,.63,1.27,1.32,2.5,1.85,3.43,6.24,10.87,16.87,17.24,29.16,17.48,.22,0,.43,0,.65,0,11.33,0,25.19-5.66,29.48-18.29Z"/><path class="cls-4" d="M123.01,164.54c-.08,0-.16-.02-.23-.05-.15-.07-.27-.21-.3-.38-.01,0-.04-.01-.08-.03-1.4-.62-2.79-1.32-4.48-2.27-.47-.26-.95-.52-1.44-.77l-.58-.31c-6.15-3.29-10.66-7.28-15.43-11.5-1.07-.94-2.15-1.88-3.25-2.83l-1.04-.98c-5.53-5.24-10.69-10.12-15.32-15.9-9-11.23-14.33-23.18-17.82-39.95-.72-3.45-1.57-6.93-2.39-10.29-2.14-8.76-4.56-18.69-4.58-27.93,0-.24,.15-.45,.38-.52,.22-.07,.47,0,.61,.2,1.53,2.09,4.71,3.98,9.47,5.62,.05,0,.08,0,.14-.06,.12-.14,.3-.21,.49-.18,8.57,1.31,17.24,1.97,25.76,1.97,5.42,0,10.71-.27,15.73-.79,1.46-.16,2.9-.4,4.18-.62,2.26-.38,4.59-.78,7.06-.78,.04,0,.09,0,.14,0s.08-.03,.12-.08c.1-.15,.26-.25,.44-.25,3.32-.14,6.67-.26,9.93-.36,10.31-.32,20.91-.65,31.14-2.26l.69-.11c5.82-.91,21.29-3.32,24.64-10.29,.1-.21,.32-.33,.55-.31,.23,.03,.42,.19,.47,.42,2.94,12.49,3.78,28.29,2.15,40.25-1.93,14.06-7.64,28.46-16.09,40.55-.04,.06-.09,.1-.14,.14-.02,.01-.08,.05-.1,.06,0,0-.02,.05-.03,.08-.01,.09-.04,.17-.1,.24-.68,.96-1.37,1.9-2.08,2.83-4.27,5.57-9.18,11.3-14.59,17.03-.07,.07-.16,.13-.25,.15-5.71,5.94-11.33,10.85-17.28,16.04-1.15,1.01-2.26,1.97-3.37,2.95-.19,.17-.51,.18-.74,0-1.28-.48-2.78-.98-4.43-.98h-.14c-2.41,0-5.09,.77-7.54,2.17-.08,.05-.18,.07-.27,.07ZM57.19,52.82c.25,8.69,2.51,17.96,4.52,26.2,.82,3.37,1.67,6.85,2.4,10.32,3.45,16.59,8.72,28.4,17.6,39.5,4.58,5.72,9.71,10.58,15.15,15.72l1.09,1.03c1.08,.93,2.17,1.88,3.24,2.82,4.72,4.18,9.19,8.13,15.22,11.36l.58,.31c.49,.26,.98,.52,1.46,.78,1.67,.94,3.02,1.62,4.39,2.22,.08,.04,.22,.1,.35,.2,2.49-1.34,5.18-2.07,7.63-2.07h.14c1.79,0,3.37,.51,4.72,1.02,1.02-.89,2.04-1.78,3.04-2.66,5.99-5.23,11.59-10.13,17.2-16,.12-.12,.26-.21,.42-.27,5.35-5.67,10.2-11.34,14.43-16.85,.68-.89,1.34-1.79,1.99-2.7,.07-.29,.25-.54,.49-.7,8.32-11.94,13.94-26.14,15.84-39.99,1.56-11.42,.84-26.38-1.82-38.52-4.59,6.53-18.57,8.71-24.74,9.67l-.69,.11c-10.3,1.63-20.94,1.96-31.23,2.27-3.23,.1-6.49,.21-9.73,.35-.22,.21-.51,.34-.82,.34-.04,0-.06,0-.09,0-2.47,0-4.75,.39-6.95,.76-1.29,.22-2.76,.47-4.25,.62-5.06,.53-10.39,.8-15.84,.8-8.5,0-17.14-.66-25.67-1.95-.32,.23-.72,.28-1.08,.15-4.11-1.42-7.12-3.05-8.98-4.86Zm70.51,80.06c-.22,0-.44,0-.66,0-12.49-.24-23.28-6.72-29.62-17.76-.58-1.01-1.26-2.21-1.87-3.46-.15-.29-.17-.63-.06-.94,.09-.28,.28-.52,.54-.67-1.62-12.76,1.99-23.2,10.71-31.05,5.7-5.12,13.08-7.93,20.8-7.93,6.17,0,12.17,1.8,17.34,5.19,11.39,7.48,17.26,24.86,12.82,37.96-4.35,12.82-18.6,18.66-29.99,18.66Zm-.17-60.72c-7.45,0-14.58,2.72-20.07,7.66-8.54,7.68-12.01,17.95-10.3,30.53,.02,.15-.02,.3-.12,.42-.1,.12-.23,.19-.38,.2-.11,.04-.13,.07-.14,.1,0,.03-.01,.07,0,.11,.6,1.22,1.27,2.4,1.84,3.4,6.14,10.7,16.61,16.97,28.7,17.21,.21,0,.43,0,.64,0,11.02,0,24.78-5.61,28.96-17.92,4.3-12.67-1.37-29.47-12.38-36.7-5-3.28-10.79-5.01-16.74-5.01Z"/></g><g><path class="cls-3" d="M215.78,79.23s.03,.07,.03,.1c0,.04,0,.08-.01,.13,0,.05,0,.09-.01,.14-.01,.03-.03,.06-.05,.09-.02,.05-.05,.11-.08,.15h0c-.92,1.12-1.99,2.45-3.08,3.83-1.19,1.5-2.43,3.05-3.56,4.41-2.41,2.89-4.78,5.91-7.08,8.84-7.91,10.08-16.09,20.5-27.33,27.54-.76,1.07-1.52,2.13-2.32,3.17-4.28,5.58-9.13,11.22-14.37,16.79,13.14-4.55,22.56-13.51,31.81-23.08,6.69-6.93,13.16-14.39,19.43-21.6,2.14-2.46,4.27-4.92,6.43-7.38,1.26-1.44,2.59-2.84,3.86-4.19,3.37-3.56,6.56-6.93,8.94-11.19,.03-.06,.07-.1,.11-.14-.33-.36-.66-.73-1-1.09-1.85-2.03-3.76-4.13-6-5.99-8.29-6.89-18.49-11.62-28.36-16.19l-2.54-1.18c.41,2.91,.71,5.89,.91,8.88,.71,.36,1.44,.72,2.18,1.09,7.78,3.86,17.46,8.67,22.01,16.69h0c.03,.06,.04,.12,.05,.17Zm14.2-2.85c.26,.28,.24,.72-.04,.98-.08,.08-.18,.12-.28,.15-.01,.05-.02,.1-.05,.15-2.47,4.41-5.87,8-9.15,11.46-1.27,1.34-2.58,2.73-3.83,4.15-2.15,2.45-4.29,4.91-6.42,7.37-6.27,7.23-12.76,14.7-19.47,21.65-9.51,9.84-20.01,19.82-34.65,24.18-.07,.02-.13,.03-.2,.03-.04,0-.07-.03-.1-.03-5.17,5.26-10.35,9.79-15.8,14.55-.99,.86-1.98,1.73-2.98,2.61,2.67,1.46,4.33,3.95,4.53,7.13,.02,.34-.22,.63-.54,.71-.18,.64-.58,1.35-1.32,2.07,.04,.04,.08,.06,.11,.11,3.06,4.37,5.89,9.37,8.63,14.2,1.94,3.43,3.93,6.93,6.03,10.27,.1-.11,.23-.2,.39-.22,4.8-.78,9.07,.51,11.15,3.37,1.81,2.48,1.79,5.85-.05,9.48-6.59,12.93-34.98,12.66-45.67,12.55-.86-.01-1.9,.03-3.04,.06-1.26,.04-2.64,.09-4.06,.09-5.93,0-12.65-.78-14.5-5.88-.75-2.06-.56-4.2,.55-6.22,2.03-3.7,6.58-6.2,9.96-6.97,2.03-4.25,3.85-8.67,5.63-12.98,2.08-5.06,4.24-10.28,6.68-15.14-2.24-1.04-3.56-2.72-3.79-4.91-.03-.28,.11-.54,.34-.68,.43-2.39,1.88-4.34,3.88-5.76-1.56-.69-2.96-1.47-4.44-2.3-.65-.37-1.32-.74-2-1.1-6.19-3.31-10.76-7.35-15.59-11.63-1.58-1.4-3.18-2.82-4.86-4.22-.11-.09-.17-.22-.21-.34-.16-.15-.31-.3-.47-.45-.13,.15-.29,.26-.5,.26-.06,0-.12-.01-.18-.03-.94-.26-1.91-.51-2.88-.77-4.8-1.27-9.76-2.58-14.06-4.81-13.51-7.03-25.24-18.35-35.17-28.42-5.92-6-9.74-12.18-13.8-18.74-2.39-3.87-4.87-7.87-7.82-11.85-.22-.29-.16-.69,.1-.92,0-.11,.03-.21,.09-.31,1.3-2.16,3.07-4.29,5.41-6.52,7.69-7.3,20.17-14.23,29.84-16.61-.18-2.3-.27-4.59-.18-6.84,0-.22,.13-.41,.29-.54-.04-.29-.06-.57-.05-.87,.25-6.47,13.04-12.16,21.58-14.4,4.7-1.23,9.01-1.97,13.15-2.29,.1-.08,.22-.14,.36-.15,4.9-.46,9.95-1.02,14.83-1.55,19.08-2.1,38.82-4.26,57.77-1.94l.53,.07c6.53,.79,23.85,2.89,24.48,11.78,.02,.27,.01,.53,0,.78,.89,3.3,1.62,6.86,2.19,10.57,.01,0,.03,0,.05,.01l3.32,1.54c9.95,4.61,20.24,9.37,28.66,16.38,2.31,1.92,4.25,4.05,6.13,6.12,.48,.53,.96,1.05,1.44,1.56Zm-18.49,6.42c.98-1.23,1.93-2.42,2.78-3.45-4.43-7.41-13.31-11.83-21.17-15.74-.5-.25-.98-.49-1.47-.73,.4,7.12,.21,14.22-.64,20.42-1.82,13.23-6.85,26.51-14.34,38.11,9.64-6.83,17.03-16.23,24.2-25.35,2.3-2.94,4.68-5.97,7.1-8.87,1.13-1.35,2.35-2.89,3.54-4.39Zm-21.87,.31c1.66-12.11,.78-27.67-2.14-40.05-3.48,7.22-18.77,9.61-25.05,10.59l-.69,.11c-10.28,1.62-20.92,1.95-31.21,2.27-3.26,.1-6.61,.22-9.93,.36-.12,.2-.33,.33-.58,.33-.03,0-.09,0-.14,0-2.41,0-4.73,.39-6.97,.77-1.37,.23-2.78,.47-4.21,.62-5.06,.53-10.37,.8-15.79,.8-8.55,0-17.35-.68-25.85-1.98-.13,.15-.3,.25-.5,.25-.08,0-.15-.01-.23-.04-4.89-1.69-8.14-3.64-9.73-5.81,.02,9.05,2.31,18.57,4.56,27.8,.87,3.57,1.69,6.95,2.39,10.31,3.47,16.69,8.77,28.56,17.71,39.73,4.62,5.77,9.79,10.66,15.26,15.84l1.02,.97c1.1,.95,2.19,1.89,3.25,2.84,4.77,4.23,9.28,8.2,15.32,11.43,.69,.37,1.36,.72,2.03,1.09,1.49,.83,2.89,1.57,4.44,2.24,.22,.1,.36,.2,.39,.42,2.29-1.32,5.09-2.25,7.81-2.25h.14c1.74,0,3.32,.53,4.7,1.05,.03-.05,.06,.12,.11,.08,1.11-.98,2.22-1.94,3.31-2.9,5.96-5.21,11.59-10.12,17.23-16.03,.09-.09,.2-.15,.32-.18,5.31-5.63,10.22-11.34,14.55-16.99,.71-.92,1.39-1.86,2.07-2.81,.03-.2,.13-.38,.31-.49,.02,0,.03-.02,.05-.03,8.42-12.05,14.06-26.21,16-40.32Zm-2.82-42.76c-.11-.42-.22-.85-.34-1.25-.07-.23,0-.47,.15-.64-1.89-6.89-17.15-8.74-23.07-9.46l-.53-.06c-18.79-2.3-38.44-.15-57.45,1.94-4.13,.45-8.37,.91-12.55,1.32-.12,.13-.29,.23-.49,.23-4.71,.19-9.65,.98-15.1,2.41-9.82,2.58-20.36,8.05-20.55,13.11-.1,2.68,2.87,5.23,8.62,7.41,.09-.02,.18-.03,.28-.01,14.19,2.31,29.39,2.8,42.79,1.39,1.38-.15,2.78-.38,4.13-.61,1.58-.27,3.22-.52,4.9-.66,.11-.2,.31-.34,.56-.36,4.1-.21,8.29-.34,12.35-.46,10.24-.31,20.84-.64,31.03-2.25l.7-.11c6.67-1.04,24.01-3.75,24.58-11.92Zm-22.08,169.74c1.6-3.14,1.66-5.99,.17-8.04-1.76-2.41-5.47-3.49-9.71-2.83,1.37,2.12,2.78,4.17,4.27,6.08,.14,.17,.16,.39,.12,.59,.02,.02,.04,.02,.06,.04,.27,.27,.27,.71,0,.98-2.24,2.21-4.32,2.71-6.72,3.28-.9,.21-1.84,.44-2.86,.77-4.66,1.52-15.96,4.82-26.3,4.82-6.77,0-13.13-1.41-16.94-5.67,0,0,0-.01-.01-.02-.04-.04-.05-.09-.08-.14-.02-.03-.04-.06-.05-.1-.01-.04-.01-.09-.02-.14,0-.04-.01-.08-.01-.13,0-.04,.02-.07,.03-.11,.01-.05,.02-.1,.04-.15,0,0,0-.02,0-.02,.58-1.08,1.14-2.19,1.69-3.29-2.98,.96-6.38,3.15-7.93,5.96-.92,1.67-1.07,3.38-.46,5.08,1.95,5.38,11.13,5.08,17.21,4.88,1.17-.04,2.22-.08,3.1-.06,9.45,.09,38.22,.37,44.42-11.8Zm-6.34-3.92s-.02,0-.02-.02c-4.12-5.29-7.68-11.57-11.13-17.64-2.73-4.81-5.54-9.77-8.56-14.09-.01-.02-.01-.03-.02-.05-2.69,1.9-7.03,3.01-11.03,3.01-1.73,0-3.38-.22-4.8-.66-2.45,4.85-4.61,10.1-6.7,15.18-2.42,5.9-4.94,11.99-7.96,17.62,9.34,9.62,34.03,2.54,41.45,.12,1.07-.35,2.04-.58,2.97-.81,2.19-.52,3.94-.95,5.8-2.67Zm-19.97-33.33c1.08-.92,1.52-1.87,1.31-2.83-.05-.25,.04-.49,.21-.65-1.03-4.19-5.17-5.77-8.98-5.8-5.43-.05-11.21,2.92-11.62,7.97,0,.12-.05,.22-.11,.31,.38,1.49,1.48,2.61,3.29,3.32,4.81,1.92,12.76,.32,15.89-2.33Zm-47.22-29.87c.58,.15,1.14,.3,1.7,.45-3.78-3.61-7.4-7.18-10.78-11.12-.08,.03-.16,.07-.25,.07-.1,0-.21-.02-.3-.07-3.53-1.71-7.15-3.69-10.77-5.89-18-10.96-27.65-27.14-36.74-44.15-.16-.3-.07-.65,.18-.86-.06-.23,0-.48,.17-.66,4.25-4.2,9.76-6.95,15.1-9.61,2.34-1.17,4.77-2.38,7.02-3.68,.18-.1,.38-.11,.57-.05-.66-3.3-1.2-6.6-1.53-9.87-9.43,2.37-21.53,9.12-29.01,16.22-2.25,2.14-3.95,4.18-5.18,6.23,0,.01-.02,.02-.03,.03,2.88,3.92,5.31,7.83,7.65,11.61,4.01,6.48,7.8,12.61,13.6,18.49,9.85,9.99,21.48,21.22,34.82,28.16,4.15,2.16,9.04,3.45,13.77,4.7Zm-10.89-12.84s-.05-.07-.08-.1c-9.09-11.34-14.46-23.4-17.98-40.31-.69-3.33-1.51-6.7-2.38-10.26-.88-3.6-1.76-7.25-2.52-10.89-.03,.03-.06,.07-.1,.09-2.29,1.33-4.74,2.54-7.1,3.72-5.24,2.61-10.65,5.31-14.74,9.36,0,0-.02,.01-.03,.02,8.98,16.79,18.52,32.73,36.16,43.47,2.94,1.8,5.89,3.43,8.78,4.9Z"/><path class="cls-4" d="M113.18,223.99c-5.47,0-12.98-.65-15.01-6.24-.8-2.21-.6-4.51,.58-6.66,2.05-3.75,6.6-6.32,10.06-7.18,2.05-4.34,3.96-8.98,5.5-12.72,1.9-4.62,4.04-9.83,6.46-14.69-2.12-1.14-3.36-2.9-3.6-5.1-.04-.39,.1-.78,.39-1.04,.42-2.04,1.56-3.86,3.33-5.34-1.26-.6-2.43-1.25-3.65-1.94-.66-.37-1.32-.74-2-1.1-6.25-3.34-10.84-7.4-15.7-11.7l-.24-.22c-1.48-1.31-3.02-2.67-4.6-3.99-.14-.12-.25-.27-.33-.46l-.05-.05c-.24,.11-.5,.13-.78,.05-.94-.25-1.9-.51-2.87-.76-4.84-1.28-9.83-2.59-14.17-4.85-13.59-7.07-25.35-18.43-35.3-28.52-5.96-6.04-9.8-12.25-13.87-18.83-2.38-3.85-4.85-7.84-7.79-11.82-.34-.45-.31-1.07,.03-1.5,.03-.13,.07-.24,.14-.35,1.32-2.2,3.12-4.37,5.5-6.63,7.58-7.2,19.97-14.14,29.63-16.63-.17-2.36-.22-4.47-.15-6.45,0-.26,.1-.51,.27-.72-.02-.25-.03-.47-.02-.69,.28-7.29,14.5-12.94,21.99-14.9,4.61-1.21,8.9-1.96,13.1-2.3,.16-.1,.33-.15,.51-.17,4.67-.44,9.51-.97,14.19-1.48l.62-.07c13.19-1.45,26.81-2.94,40.22-2.94,6.37,0,12.15,.33,17.67,1.01l.53,.07c6.64,.81,24.3,2.94,24.96,12.29,.02,.26,.02,.51,0,.76,.84,3.15,1.56,6.6,2.13,10.26l3.1,1.44c10,4.63,20.31,9.41,28.78,16.46,2.34,1.95,4.29,4.09,6.19,6.17l.22,.24c.4,.44,.81,.88,1.21,1.32,.23,.24,.34,.56,.33,.89-.01,.33-.15,.64-.4,.86-.06,.06-.14,.12-.23,.17h0c-2.5,4.47-5.91,8.07-9.21,11.56-1.27,1.34-2.58,2.72-3.83,4.14-1.84,2.1-3.68,4.21-5.51,6.31l-.91,1.05c-6.26,7.21-12.73,14.67-19.49,21.68-9.56,9.89-20.13,19.92-34.89,24.33-.1,.03-.18,.04-.26,.05-5.2,5.28-10.51,9.91-15.64,14.38-.8,.7-1.6,1.4-2.41,2.11,2.49,1.61,3.96,4.14,4.15,7.18,.03,.48-.23,.93-.64,1.15-.21,.58-.55,1.14-1.03,1.69,3.03,4.37,5.81,9.27,8.5,14.01,1.99,3.52,3.81,6.7,5.74,9.8,.04-.01,.08-.02,.12-.03,.94-.15,1.88-.23,2.79-.23,3.89,0,7.13,1.39,8.89,3.82,1.94,2.66,1.94,6.23,0,10.05-4.35,8.54-18.59,12.88-42.32,12.88-1.44,0-2.74-.01-3.84-.02h-.31c-.72,0-1.55,.03-2.46,.06h-.25c-1.34,.05-2.69,.1-4.08,.1Zm-18.81-79.67c.14,0,.28,.05,.38,.15l.47,.44c.07,.07,.12,.15,.15,.24,1.63,1.41,3.17,2.78,4.66,4.09l.24,.22c4.81,4.26,9.35,8.28,15.49,11.56,.69,.37,1.35,.74,2.01,1.11,1.47,.82,2.86,1.59,4.39,2.28,.18,.08,.3,.25,.32,.44,.02,.19-.07,.38-.23,.5-2.02,1.44-3.29,3.31-3.66,5.41-.03,.16-.12,.29-.26,.38-.02,.01-.09,.06-.08,.14,.21,2,1.38,3.51,3.48,4.48,.13,.06,.24,.18,.29,.32,.05,.14,.04,.29-.03,.42-2.5,4.96-4.71,10.35-6.67,15.1-1.57,3.82-3.53,8.58-5.64,13.01-.07,.15-.21,.26-.37,.3-3.26,.74-7.66,3.15-9.61,6.7-1.03,1.87-1.2,3.86-.51,5.77,1.79,4.95,8.84,5.52,13.99,5.52,1.38,0,2.72-.04,3.94-.08h.36c.92-.04,1.76-.07,2.49-.07h.32c1.1,.01,2.39,.03,3.83,.03,23.28,0,37.19-4.13,41.35-12.28,1.75-3.44,1.78-6.6,.1-8.91-1.56-2.14-4.48-3.37-8.01-3.37-.85,0-1.73,.07-2.61,.22-.11,.13-.31,.22-.49,.21-.17-.01-.36-.09-.45-.23-2.05-3.26-3.95-6.59-6.04-10.29-2.73-4.81-5.55-9.78-8.6-14.16-.1-.1-.19-.26-.19-.4,0-.15,.03-.3,.14-.4,.6-.59,1-1.21,1.17-1.83,.05-.19,.21-.34,.4-.38,.06-.02,.13-.07,.12-.14-.18-2.92-1.69-5.29-4.25-6.69-.16-.09-.26-.24-.28-.42-.02-.18,.05-.35,.18-.47,1-.88,1.99-1.75,2.98-2.61,5.18-4.52,10.53-9.19,15.77-14.52,.13-.13,.31-.18,.49-.15,.01,0,.03,0,.05,.01,14.52-4.34,24.96-14.25,34.41-24.03,6.74-6.98,13.21-14.43,19.46-21.63l.91-1.05c1.83-2.11,3.67-4.22,5.51-6.32,1.26-1.44,2.58-2.83,3.84-4.16,3.27-3.45,6.63-7.01,9.07-11.36,.05-.19,.19-.36,.38-.41,.11-.07,.11-.18,.06-.23-.41-.44-.81-.88-1.22-1.32l-.22-.24c-1.87-2.05-3.8-4.17-6.08-6.07-8.37-6.96-18.61-11.71-28.52-16.3l-3.29-1.53s-.06-.02-.08-.03c-.17-.08-.29-.23-.32-.42-.58-3.76-1.31-7.29-2.18-10.51-.01-.05-.02-.1-.02-.16,0-.24,.01-.48,0-.73-.6-8.44-17.6-10.5-24-11.28l-.53-.07c-5.48-.67-11.22-1-17.54-1-13.35,0-26.94,1.49-40.09,2.94l-.64,.07c-4.68,.51-9.52,1.04-14.22,1.49-.08,.07-.26,.15-.37,.16-4.19,.33-8.46,1.07-13.05,2.28-8.06,2.12-20.94,7.76-21.18,13.89,0,.23,0,.47,.04,.77,.03,.2-.06,.4-.22,.51-.02,.01-.06,.05-.07,.11-.08,2.07-.02,4.28,.18,6.78,.02,.27-.15,.51-.41,.57-9.57,2.36-22.01,9.29-29.59,16.48-2.31,2.19-4.05,4.29-5.32,6.4,0,.14-.09,.34-.2,.44-.05,.04-.07,.12-.03,.19,2.98,4.02,5.45,8.02,7.85,11.89,4.04,6.53,7.85,12.69,13.72,18.64,9.89,10.03,21.58,21.32,35.03,28.32,4.23,2.2,9.16,3.5,13.93,4.76,.99,.26,1.95,.51,2.9,.77,.04,.01,.07,0,.13-.07,.1-.11,.24-.17,.39-.18h.02Zm18.8,78.28c-5.05,0-11.97-.55-13.7-5.32-.67-1.84-.51-3.7,.49-5.52,1.75-3.19,5.53-5.34,8.24-6.22,.21-.07,.44,0,.58,.16,.14,.17,.17,.4,.08,.6-.55,1.1-1.09,2.2-1.67,3.27-.01,.03-.02,.06-.04,.08,0,0,.02,.1,.02,.11l.02,.02c3.27,3.64,8.83,5.48,16.54,5.48,10.35,0,21.72-3.35,26.13-4.79,1.06-.35,2.04-.58,2.91-.79,2.42-.58,4.34-1.04,6.47-3.14,.04-.04,.05-.08,.05-.1s0-.07-.04-.1c-.16-.13-.25-.36-.21-.56,0-.04,.01-.09-.01-.12-1.38-1.77-2.78-3.77-4.3-6.12-.1-.16-.11-.35-.04-.52,.08-.17,.23-.29,.41-.31,.84-.13,1.67-.2,2.48-.2,3.43,0,6.25,1.18,7.75,3.25,1.62,2.22,1.57,5.27-.13,8.6-4.1,8.04-18.06,12.11-41.48,12.11h0c-1.31,0-2.46-.01-3.42-.02h-.44c-.65,0-1.37,.02-2.15,.05l-.48,.02c-1.25,.04-2.62,.09-4.04,.09Zm-5.91-15.55c-2.32,.99-5,2.78-6.34,5.23-.84,1.53-.98,3.09-.42,4.63,1.5,4.13,7.95,4.61,12.67,4.61,1.41,0,2.77-.05,4-.09l.48-.02c.79-.03,1.53-.05,2.19-.05h.46c.95,.01,2.1,.02,3.4,.02,28.63,0,37.84-6.26,40.52-11.52,1.5-2.95,1.58-5.6,.21-7.47-1.5-2.05-4.66-3.09-8.34-2.72,1.32,2.01,2.56,3.76,3.77,5.31,.16,.2,.25,.45,.25,.72,.15,.19,.24,.46,.24,.74,0,.33-.13,.64-.37,.88-2.34,2.31-4.6,2.85-6.98,3.42-.85,.2-1.8,.43-2.82,.76-4.46,1.46-15.96,4.85-26.47,4.85-8.03,0-13.87-1.97-17.35-5.85h0s-.04-.04-.05-.07c-.05-.07-.08-.13-.1-.17-.04-.07-.07-.13-.1-.2-.01-.04-.03-.16-.04-.21-.02-.14-.02-.2-.02-.26,0-.05,.03-.18,.05-.23,.01-.05,.03-.12,.06-.2,0-.02,.01-.04,.02-.05,.37-.69,.73-1.38,1.08-2.07Zm16.43,7.94h0c-7.31,0-12.67-1.71-15.94-5.07-.17-.17-.2-.43-.09-.64,3.06-5.72,5.65-12.01,7.94-17.57,2.09-5.07,4.25-10.31,6.72-15.22,.12-.24,.39-.35,.65-.28,1.35,.42,2.96,.64,4.64,.64,4,0,8.21-1.14,10.71-2.91,.23-.16,.55-.12,.73,.09,.03,.03,.06,.08,.08,.13,3.02,4.32,5.81,9.25,8.52,14.01,3.47,6.12,7.01,12.36,11.1,17.62,.02,.02,.04,.05,.06,.07,.16,.22,.13,.53-.07,.72-1.99,1.84-3.87,2.28-6.04,2.8-.92,.22-1.88,.45-2.93,.79-4.43,1.45-15.84,4.81-26.07,4.81Zm-14.88-5.55c3.08,2.96,8.08,4.46,14.88,4.46h0c10.07,0,21.35-3.33,25.73-4.75,1.09-.36,2.07-.59,3.01-.82,1.96-.47,3.54-.84,5.18-2.21-4.01-5.21-7.5-11.36-10.88-17.32-2.67-4.7-5.37-9.47-8.26-13.65-2.71,1.71-6.9,2.8-10.88,2.8-1.61,0-3.17-.19-4.52-.56-2.37,4.75-4.46,9.82-6.48,14.74-2.25,5.47-4.79,11.65-7.79,17.31Zm18.75-32.87h0c-2,0-3.82-.31-5.27-.88-1.97-.78-3.18-2.03-3.61-3.69-.04-.15-.01-.3,.07-.43,.47-5.57,6.56-8.54,12.05-8.54h.14c3.86,.03,8.39,1.68,9.5,6.21,.05,.19-.01,.39-.16,.53-.03,.02-.07,.07-.05,.13,.26,1.17-.24,2.3-1.49,3.36-2.3,1.95-6.9,3.31-11.18,3.31Zm-7.77-4.66c.38,1.22,1.36,2.15,2.91,2.76,1.32,.53,3,.81,4.86,.81,3.99,0,8.39-1.28,10.48-3.05,.92-.78,1.3-1.55,1.13-2.29-.07-.31-.01-.63,.15-.89-1.34-4.7-6.74-5.12-8.39-5.13h-.13c-5.08,0-10.56,2.79-10.94,7.47,0,.11-.03,.21-.07,.32Zm3.21-7.37c-.08,0-.16-.02-.23-.05-.15-.07-.27-.21-.3-.38-.01,0-.04-.02-.08-.03-1.4-.62-2.79-1.32-4.48-2.27-.47-.26-.95-.52-1.44-.77l-.58-.31c-6.15-3.29-10.66-7.28-15.43-11.5-1.07-.94-2.15-1.88-3.25-2.83l-1.04-.98c-5.53-5.24-10.69-10.12-15.32-15.9-9-11.23-14.33-23.18-17.82-39.95-.72-3.45-1.57-6.93-2.39-10.29-2.14-8.76-4.56-18.69-4.58-27.93,0-.24,.15-.45,.38-.52,.22-.07,.47,0,.61,.2,1.53,2.09,4.71,3.98,9.47,5.62,.05,0,.08,0,.14-.06,.12-.14,.3-.21,.49-.18,8.57,1.31,17.24,1.97,25.76,1.97,5.42,0,10.71-.27,15.73-.79,1.46-.16,2.9-.4,4.18-.62,2.26-.38,4.59-.78,7.06-.78,.04,0,.09,0,.14,0s.08-.03,.12-.08c.1-.15,.26-.25,.44-.25,3.32-.14,6.67-.26,9.93-.36,10.31-.32,20.91-.65,31.14-2.26l.69-.11c5.82-.91,21.29-3.32,24.64-10.29,.1-.21,.32-.33,.55-.31,.23,.03,.42,.19,.47,.42,2.94,12.49,3.78,28.29,2.15,40.25-1.93,14.06-7.64,28.46-16.09,40.55-.04,.06-.09,.1-.14,.14-.02,0-.08,.05-.1,.06,0,0-.02,.05-.03,.08-.01,.09-.04,.17-.1,.24-.68,.96-1.37,1.9-2.08,2.83-4.27,5.57-9.18,11.3-14.59,17.03-.07,.07-.16,.13-.25,.15-5.71,5.94-11.33,10.85-17.28,16.04-1.16,1.01-2.26,1.97-3.37,2.95-.1,.09-.24,.14-.37,.14h0c-.12,0-.25-.06-.36-.15-1.28-.48-2.78-.98-4.43-.98h-.14c-2.41,0-5.09,.77-7.54,2.17-.08,.05-.18,.07-.27,.07ZM57.19,52.82c.25,8.69,2.51,17.96,4.52,26.2,.82,3.37,1.67,6.85,2.4,10.32,3.45,16.59,8.72,28.4,17.6,39.5,4.58,5.72,9.71,10.58,15.15,15.72l1.09,1.03c1.08,.93,2.17,1.88,3.24,2.82,4.72,4.18,9.19,8.13,15.22,11.36l.57,.31c.49,.26,.98,.52,1.46,.78,1.67,.94,3.02,1.62,4.39,2.22,.08,.04,.22,.1,.35,.2,2.49-1.34,5.18-2.07,7.63-2.07h.14c1.79,0,3.37,.51,4.72,1.02,1.02-.89,2.04-1.78,3.04-2.66,5.99-5.23,11.59-10.13,17.2-16,.12-.12,.26-.21,.42-.27,5.35-5.67,10.2-11.34,14.42-16.85,.68-.89,1.34-1.79,1.99-2.7,.07-.29,.25-.54,.49-.7,8.32-11.94,13.94-26.14,15.84-39.99,1.56-11.42,.84-26.38-1.82-38.52-4.59,6.53-18.57,8.71-24.74,9.67l-.69,.11c-10.3,1.63-20.94,1.96-31.23,2.27-3.23,.1-6.49,.21-9.73,.35-.22,.21-.51,.34-.82,.34-.03,0-.06,0-.09,0-2.47,0-4.75,.39-6.95,.76-1.29,.22-2.76,.47-4.25,.62-5.06,.53-10.39,.8-15.84,.8-8.5,0-17.14-.66-25.67-1.95-.32,.23-.72,.28-1.08,.15-4.11-1.42-7.12-3.05-8.98-4.86Zm100.73,92.15c-.18,0-.35-.09-.46-.25-.14-.21-.11-.49,.06-.67,5.31-5.65,10.13-11.28,14.33-16.75,.7-.91,1.43-1.91,2.3-3.15,.04-.06,.09-.11,.16-.15,11.18-7,19.32-17.38,27.19-27.41l.24-.31c2.22-2.83,4.52-5.75,6.85-8.54,1.13-1.35,2.36-2.9,3.55-4.4,1.09-1.37,2.15-2.69,3.07-3.8,.02-.03,.04-.05,.06-.08h0s-.02-.09-.03-.1c-.01-.02-.02-.05-.03-.08-4.5-7.85-14.05-12.59-21.74-16.4l-2.18-1.09c-.17-.09-.29-.26-.3-.45-.2-2.98-.51-5.96-.91-8.85-.03-.2,.06-.39,.22-.51,.16-.12,.37-.14,.55-.06l2.54,1.18c9.91,4.59,20.14,9.33,28.48,16.27,2.27,1.89,4.19,4,6.05,6.04l1,1.09c.2,.22,.19,.55-.02,.76-2.44,4.33-5.65,7.72-9.04,11.31l-.13,.14c-1.23,1.3-2.51,2.65-3.72,4.03-2.13,2.42-4.24,4.86-6.35,7.29l-.19,.22c-6.23,7.17-12.67,14.59-19.33,21.49-9.28,9.61-18.72,18.61-32.03,23.22-.06,.02-.12,.03-.18,.03Zm17.06-20.1c-.85,1.21-1.58,2.2-2.27,3.1-3.8,4.95-8.11,10.04-12.83,15.15,11.97-4.73,20.78-13.17,29.46-22.15,6.64-6.87,13.07-14.28,19.29-21.44l.12-.13c2.18-2.52,4.3-4.95,6.43-7.38,1.23-1.4,2.51-2.75,3.75-4.06l.13-.14c3.3-3.48,6.42-6.78,8.76-10.9l-.71-.78c-1.83-2.01-3.73-4.09-5.94-5.94-8.23-6.84-18.39-11.55-28.22-16.11l-1.65-.76c.33,2.5,.58,5.06,.76,7.62l1.9,.95c7.85,3.89,17.61,8.74,22.24,16.91,0,.02,.02,.04,.03,.05,.05,.09,.07,.19,.08,.25,0,0,.03,.07,.04,.16,0,.06,0,.19,0,.25,0,.05,0,.14-.03,.23-.01,.05-.07,.16-.09,.21-.02,.05-.05,.12-.1,.19-.02,.02-.03,.05-.05,.07h0c-.92,1.1-1.98,2.44-3.07,3.81-1.2,1.51-2.43,3.06-3.56,4.42-2.32,2.78-4.61,5.7-6.83,8.52l-.24,.31c-7.91,10.08-16.08,20.5-27.37,27.6Zm-82.11,19.12s-.09,0-.14-.02l-1.7-.45c-4.76-1.25-9.67-2.55-13.88-4.74-13.41-6.97-25.08-18.24-34.96-28.26-5.85-5.93-9.65-12.08-13.68-18.59-2.21-3.57-4.72-7.62-7.62-11.58-.14-.19-.14-.45,0-.64,0-.01,.02-.03,.04-.04,1.26-2.08,2.97-4.13,5.24-6.29,7.47-7.09,19.77-13.96,29.25-16.35,.15-.04,.32,0,.45,.08,.13,.09,.21,.23,.23,.39,.3,3.02,.8,6.23,1.52,9.82,.04,.19-.03,.39-.18,.52-.15,.13-.35,.17-.54,.1h-.12c-2.29,1.33-4.71,2.54-7.05,3.71-5.29,2.64-10.77,5.37-14.96,9.51-.04,.04-.04,.1-.03,.14,.05,.21-.02,.42-.18,.56-.05,.04-.08,.11-.05,.18,9.06,16.95,18.67,33.06,36.55,43.94,3.61,2.19,7.22,4.17,10.72,5.87l.12-.02c.21-.08,.45-.02,.6,.16,3.45,4.02,7.2,7.7,10.74,11.08,.18,.17,.22,.44,.1,.66-.1,.18-.28,.28-.48,.28ZM21.99,80.01c2.84,3.89,5.28,7.84,7.45,11.34,3.99,6.46,7.76,12.55,13.53,18.4,9.82,9.96,21.42,21.16,34.68,28.06,4.01,2.08,8.73,3.35,13.32,4.56-3.02-2.91-6.14-6.05-9.06-9.43-.21,.01-.43-.03-.61-.13-3.52-1.71-7.16-3.7-10.8-5.91-18.11-11.03-27.81-27.28-36.94-44.36-.22-.42-.18-.92,.1-1.3,0-.32,.13-.63,.36-.86,4.31-4.27,9.87-7.03,15.24-9.71,2.33-1.16,4.74-2.36,6.99-3.67,.06-.03,.12-.06,.18-.09-.61-3.13-1.06-5.98-1.35-8.67-9.23,2.48-20.97,9.1-28.16,15.93-2.12,2.01-3.73,3.93-4.92,5.84Zm58.24,50.67c-.06,0-.13-.01-.19-.05-3.01-1.53-5.98-3.18-8.82-4.92-17.81-10.84-27.36-26.85-36.36-43.68-.12-.23-.07-.51,.13-.68,4.14-4.09,9.6-6.81,14.87-9.44,2.35-1.17,4.79-2.39,7.07-3.71,.15-.13,.35-.19,.54-.13,.19,.06,.33,.2,.37,.4,.76,3.63,1.65,7.3,2.51,10.85,.83,3.41,1.69,6.92,2.4,10.3,3.5,16.82,8.85,28.81,17.88,40.08,.16,.2,.2,.54,.04,.73-.12,.14-.27,.24-.44,.24Zm-44.22-48.79c8.87,16.56,18.33,32.28,35.77,42.9,2.12,1.29,4.3,2.54,6.52,3.72-8.26-10.87-13.28-22.59-16.62-38.66-.7-3.37-1.55-6.86-2.38-10.24-.81-3.34-1.64-6.75-2.37-10.15-2.16,1.22-4.41,2.34-6.59,3.43-5.09,2.54-10.34,5.16-14.34,9Zm140.63,40.08c-.14,0-.27-.05-.38-.15-.19-.18-.22-.47-.08-.69,7.53-11.64,12.46-24.74,14.26-37.89,.82-6,1.04-13.03,.64-20.32-.01-.19,.08-.38,.24-.49,.16-.11,.37-.12,.54-.03l1.46,.73c7.91,3.93,16.88,8.38,21.39,15.94,.12,.2,.1,.45-.05,.63-.85,1.03-1.8,2.22-2.77,3.45l-.18,.22c-1.14,1.43-2.3,2.89-3.38,4.18-2.45,2.94-4.92,6.09-7.09,8.86-7.16,9.13-14.57,18.57-24.31,25.46-.1,.07-.21,.1-.31,.1Zm15.58-58.17c.34,7.02,.1,13.78-.69,19.59-1.7,12.38-6.14,24.73-12.89,35.87,8.5-6.62,15.24-15.2,21.77-23.53,2.18-2.78,4.65-5.93,7.11-8.88,1.07-1.28,2.23-2.73,3.36-4.16l.18-.22c.89-1.12,1.75-2.2,2.54-3.16-4.42-7.09-13.08-11.4-20.74-15.2l-.63-.31Zm-99.3-5.71h0c-9.03,0-18.45-.76-27.25-2.19h-.02s-.02,0-.03,0c-.11,.03-.23,.02-.33-.02-6.06-2.3-9.08-4.98-8.97-7.94,.2-5.38,10.7-10.92,20.96-13.62,5.48-1.44,10.45-2.24,15.21-2.43,.06,0,.09-.03,.11-.05,.09-.1,.22-.16,.35-.18,4.18-.41,8.41-.87,12.54-1.32,13.14-1.44,26.73-2.94,40.08-2.94,6.31,0,12.03,.33,17.5,1l.53,.06c6.45,.78,21.55,2.62,23.53,9.86,.05,.17,0,.36-.11,.5-.02,.02-.06,.08-.05,.13,.08,.28,.16,.57,.23,.85l.11,.42c.02,.06,.02,.12,.02,.18-.6,8.61-18.35,11.38-25.04,12.42l-.7,.11c-10.23,1.62-20.84,1.95-31.1,2.26h-.39c-3.93,.13-7.98,.26-11.95,.46-.06,0-.09,.05-.11,.08-.09,.16-.25,.26-.43,.28-1.73,.15-3.43,.42-4.85,.66-1.21,.21-2.71,.46-4.16,.61-4.99,.53-10.27,.79-15.69,.79Zm-27.27-3.28c.07,0,.14,0,.21,.02,8.73,1.42,18.09,2.17,27.07,2.17h0c5.38,0,10.62-.26,15.57-.79,1.41-.15,2.9-.4,4.09-.61,1.38-.23,3.01-.49,4.7-.65,.21-.22,.5-.36,.81-.38,3.98-.2,8.04-.33,11.97-.45h.39c10.23-.33,20.8-.65,30.96-2.26l.7-.11c6.43-1,23.45-3.66,24.11-11.34l-.09-.33c-.07-.28-.15-.55-.22-.82-.09-.29-.06-.6,.08-.88-2.07-6.35-16.92-8.16-22.54-8.84l-.53-.06c-5.42-.66-11.1-.99-17.36-.99-13.3,0-26.85,1.49-39.96,2.93-4.08,.45-8.25,.9-12.38,1.31-.2,.16-.45,.24-.71,.25-4.67,.19-9.57,.97-14.97,2.39-9.76,2.56-19.97,7.98-20.14,12.6-.09,2.39,2.72,4.75,8.13,6.83,.04,0,.07,0,.11,0Z"/></g><g><path class="cls-3" d="M144.58,76.71c11.2,7.35,16.97,24.45,12.6,37.33-4.29,12.63-18.15,18.29-29.48,18.29-.22,0-.43,0-.65,0-12.29-.24-22.92-6.61-29.16-17.48-.53-.93-1.23-2.15-1.85-3.43-.17-.34-.03-.76,.31-.93,.09-.04,.18-.06,.27-.07-1.73-12.77,1.79-23.2,10.48-31.01,10.34-9.28,25.75-10.39,37.48-2.69Zm11.29,36.89c4.19-12.33-1.33-28.69-12.05-35.73-11.21-7.35-25.92-6.3-35.79,2.57-8.4,7.54-11.76,17.67-9.98,30.11,.05,.35-.17,.67-.5,.77,.54,1.05,1.11,2.05,1.55,2.84,6.09,10.59,16.02,16.55,27.99,16.79,10.98,.21,24.64-5.12,28.79-17.34Z"/><path class="cls-4" d="M127.7,132.87c-.22,0-.44,0-.66,0-12.49-.24-23.28-6.72-29.62-17.76-.58-1.01-1.26-2.21-1.87-3.46-.15-.29-.17-.63-.06-.94,.09-.28,.28-.52,.54-.67-1.62-12.76,1.99-23.2,10.71-31.05,5.7-5.12,13.08-7.93,20.8-7.93,6.17,0,12.17,1.8,17.34,5.19,11.39,7.48,17.26,24.86,12.82,37.96-4.35,12.82-18.6,18.66-29.99,18.66Zm-.17-60.72c-7.45,0-14.58,2.72-20.07,7.66-8.54,7.68-12.01,17.95-10.3,30.53,.02,.15-.02,.3-.12,.42-.1,.12-.23,.19-.38,.2-.11,.04-.13,.07-.14,.1,0,.03-.01,.07,0,.11,.6,1.22,1.27,2.4,1.84,3.4,6.14,10.7,16.61,16.97,28.7,17.21,.21,0,.43,0,.64,0,11.02,0,24.78-5.61,28.96-17.92,4.3-12.67-1.37-29.47-12.38-36.7-5-3.28-10.79-5.01-16.74-5.01Zm.17,59.33h0c-.21,0-.43,0-.64,0-12.16-.24-22.26-6.3-28.45-17.06-.48-.83-1.04-1.82-1.57-2.86-.08-.15-.08-.32-.01-.47,.07-.15,.2-.26,.35-.31,.06-.02,.12-.08,.11-.16-1.8-12.63,1.62-22.92,10.16-30.59,5.44-4.89,12.5-7.58,19.87-7.58,5.9,0,11.63,1.72,16.58,4.96,10.91,7.16,16.52,23.81,12.26,36.36-4.15,12.24-17.39,17.72-28.67,17.72Zm-29.46-19.99c.45,.86,.91,1.67,1.32,2.38,5.98,10.42,15.76,16.28,27.52,16.51,10.67,.23,24.22-5.08,28.26-16.97,4.11-12.11-1.31-28.18-11.83-35.1-4.77-3.13-10.3-4.79-15.98-4.79-7.1,0-13.9,2.59-19.15,7.31-8.25,7.41-11.55,17.38-9.81,29.63,.05,.39-.08,.76-.33,1.03Z"/></g><g><path class="cls-3" d="M123.03,99.14c-.23,2.4,.72,7.36,1.6,10.87,0,.03,0,.05,0,.08,0,.05,0,.09,0,.14,0,.04-.02,.09-.03,.13-.01,.04-.02,.08-.04,.12-.02,.04-.04,.07-.07,.11-.03,.04-.05,.07-.09,.1-.04,.03-.07,.06-.11,.08-.02,.01-.04,.04-.07,.05-1.7,.73-3.81,1.25-5.63,1.4,.48,2.32,1,4.66,1.56,6.99,4.87-1.21,10.77-1.95,18.57-2.31,.12-.01,.23-.26,.34-.21-.28-2.04-.5-3.49-.7-6.38h-3.08c0,1.44-.23,.92-.58,.97-.03,0-.07,.3-.1,.3-.34,0-.63-.25-.68-.59-1.39-9.36-2.35-17.16-2.93-23.82-.89,.11-1.78,.23-2.69,.34-2.53,.31-5.14,.64-7.6,1.07-.02,.1-.06,.19-.12,.28-1.96,2.66-4.5,4.81-6.96,6.89-.88,.75-1.75,1.49-2.6,2.25,.9,1.56,2.03,3.24,3.19,4.77,.05-.06,.12-.11,.2-.14,2.5-1.18,4.81-2.59,7.04-4.32,.29-.22,.69-.17,.93,.09,0,0,.01,0,.02,0,.38,.04,.66,.38,.62,.76Zm17.58,18.8c.05,.38-.21,.73-.59,.79-.04,0-.07,0-.1,0-.34,0-.64-.25-.68-.6,0-.02,0-.04,0-.05-.12,.1-.26,.18-.43,.19-7.74,.37-13.58,1.1-18.38,2.29-.06,.01-.11,.02-.17,.02-.2,0-.39-.1-.52-.25h0c-.06,.01-.11,.02-.17,.02-.31,0-.6-.21-.67-.53-.68-2.78-1.3-5.59-1.86-8.36-.08-.38,.17-.74,.54-.82,.24-.05,.47,.04,.63,.21,1.55-.1,3.37-.52,4.94-1.12-.8-3.3-1.54-7.28-1.52-9.85-2.1,1.56-4.27,2.88-6.62,3.97-.03,.01-.05,0-.08,.02,.01,.22-.06,.44-.25,.59-.13,.1-.28,.15-.43,.15-.21,0-.41-.09-.54-.26-1.45-1.82-2.91-3.96-3.99-5.87-.1-.18-.11-.39-.05-.57-.09-.26-.03-.56,.18-.75,.93-.85,1.91-1.67,2.89-2.5,2.36-1.99,4.79-4.06,6.64-6.53,0-.02-.01-.03-.02-.05-.07-.38,.18-.74,.55-.81,2.66-.5,5.49-.85,8.23-1.18,.97-.12,1.93-.25,2.89-.37,.11-.18,.29-.33,.52-.35,.27-.03,.52,.08,.65,.31,.17,.1,.29,.19,.32,.41,.03,.2-.04,.23-.17,.38,.55,6.37,1.46,14.28,2.75,22.37h3.67s.07,.33,.11,.34c.02,0,.04,.3,.06,.3,.37-.04,.72,.25,.75,.63,.25,2.79,.53,5.13,.92,7.83Z"/><path class="cls-4" d="M120.25,121.14c-.25,0-.5-.08-.71-.23-.56,0-1.05-.39-1.19-.94-.68-2.78-1.3-5.6-1.86-8.38-.07-.32,0-.66,.18-.93,.18-.27,.46-.46,.79-.53,.3-.06,.64,0,.91,.19,1.27-.1,2.77-.43,4.11-.91-.45-1.92-1.24-5.58-1.4-8.46-1.85,1.3-3.72,2.4-5.67,3.33-.07,.25-.21,.47-.41,.64-.52,.41-1.33,.32-1.74-.2-1.46-1.83-2.93-3.99-4.04-5.94-.14-.25-.19-.55-.14-.83-.09-.43,.05-.87,.38-1.16,.92-.84,1.89-1.66,2.86-2.48,2.19-1.85,4.63-3.91,6.45-6.29,0-.26,.07-.52,.22-.74,.19-.27,.47-.46,.8-.52,2.77-.52,5.82-.89,8.27-1.18,.62-.08,1.25-.16,1.86-.24l.8-.11c.21-.22,.47-.35,.76-.38,.02,0,.13,0,.14,0,.39,0,.73,.17,.95,.46,.18,.12,.42,.33,.47,.73,.04,.3-.04,.49-.14,.63,.44,5.06,1.25,12.82,2.65,21.65h3.2c.46,0,.56,.46,.59,.6h-.01s.03,.07,.04,.1c.47,.16,.8,.57,.85,1.05,.25,2.75,.53,5.08,.92,7.8,.05,.33-.04,.66-.24,.93-.2,.26-.49,.43-.81,.48-.02,0-.15,.01-.18,.01-.39,0-.74-.19-.97-.48-.04,0-.08,.01-.12,.01-7.71,.37-13.51,1.09-18.27,2.28-.11,.02-.2,.04-.3,.04Zm-.52-1.34c.16,0,.31,.07,.41,.19,.04,.05,.06,.08,.15,.05,4.83-1.2,10.7-1.94,18.48-2.31,.15-.13,.4-.2,.59-.13,.19,.06,.37,.2,.4,.39,.02,.15,.08,.2,.16,.2l.12-.06s.04-.06,.03-.11c-.4-2.74-.67-5.09-.93-7.86,0-.09-.09-.15-.15-.14-.06,0-.11,0-.16-.01,.04,.07,.07,.15,.08,.24,.18,2.58,.37,3.98,.62,5.75l.08,.6c.03,.2-.06,.4-.23,.52-.04,.03-.09,.06-.14,.07-.11,.1-.25,.21-.45,.23-7.78,.37-13.65,1.1-18.49,2.3-.14,.03-.29,.01-.41-.06-.12-.08-.21-.2-.25-.34-.56-2.3-1.08-4.65-1.56-7.01-.03-.15,0-.31,.1-.44,.09-.12,.24-.2,.39-.22,1.79-.15,3.83-.66,5.46-1.36,0,0,.07-.08,.07-.09,0-.02,0-.16,0-.18-.88-3.46-1.84-8.48-1.6-10.96,0-.05-.02-.09-.03-.11-.01-.01-.04-.04-.07-.05-.15,0-.3-.07-.4-.18-.03-.03-.07-.05-.11-.05-2.35,1.78-4.69,3.22-7.23,4.41-.11,.11-.28,.19-.44,.18-.16,0-.32-.07-.42-.2-1.19-1.57-2.34-3.28-3.23-4.83-.13-.22-.08-.51,.11-.68,.85-.76,1.73-1.51,2.61-2.26,2.43-2.05,4.95-4.18,6.88-6.8,.05-.22,.24-.45,.46-.49,2.53-.45,5.26-.79,7.63-1.08,.64-.08,1.27-.16,1.9-.24l.78-.1c.15-.02,.29,.02,.41,.12,.12,.09,.19,.23,.2,.38,.59,6.69,1.54,14.44,2.91,23.68,.05-.03,.1-.04,.16-.06,.03,0,.08,0,.12-.01,0-.1,.01-.24,.01-.43,0-.14,.06-.28,.16-.39,.1-.1,.24-.16,.39-.16h3.08s.07,0,.1,0c-.05-.09-.09-.21-.11-.36,.02,.09,.21,.33,.51,.33-.29-.04-.43-.19-.5-.34h-3.27c-.27,0-.5-.19-.54-.46-1.47-9.19-2.31-17.26-2.76-22.41-.01-.13,.02-.26,.1-.37h0c-.08-.05-.14-.12-.19-.2l-.09-.58-.03,.55s-.08,.04-.12,.09c-.09,.14-.23,.23-.39,.25l-1.02,.13c-.62,.08-1.24,.16-1.87,.24-2.43,.29-5.46,.66-8.2,1.17-.05,0-.08,.04-.1,.06-.01,.02-.03,.06-.02,.11,.02,.14,0,.36-.08,.48-1.91,2.55-4.47,4.71-6.72,6.62-1,.84-1.95,1.65-2.87,2.49-.05,.05-.05,.11-.04,.16,.04,.12,.04,.24,0,.36-.01,.03-.02,.08,0,.13,1.08,1.9,2.52,4.01,3.94,5.8,.04,.05,.1,.06,.12,.06,.13-.06,.14-.12,.13-.16-.02-.23,.12-.45,.34-.54,.02,0,.06-.02,.1-.03,2.24-1.05,4.36-2.33,6.48-3.89,.17-.12,.39-.14,.57-.05,.18,.09,.3,.28,.3,.49-.02,2.15,.55,5.78,1.51,9.72,.06,.27-.08,.54-.33,.64-1.65,.64-3.51,1.06-5.1,1.16-.16,0-.32-.05-.43-.17-.03-.03-.07-.05-.1-.05-.07,.01-.1,.04-.12,.07-.01,.02-.03,.06-.02,.11,.56,2.77,1.18,5.57,1.85,8.34,.02,.08,.09,.11,.14,.11h0c.05,0,.11-.02,.17-.02Zm-.47-7.1c.41,1.96,.85,3.92,1.31,5.85,4.76-1.13,10.48-1.83,17.91-2.19l-.03-.2c-.22-1.6-.42-3.01-.59-5.32h-2.05c-.04,.53-.19,1.03-.76,1.03h0c-.09,.14-.23,.25-.45,.25-.61,0-1.13-.45-1.22-1.06-1.35-9.05-2.29-16.68-2.88-23.29l-.22,.03c-.63,.08-1.27,.16-1.91,.24-2.25,.27-4.85,.6-7.27,1.02-.02,.04-.05,.08-.07,.11-2.01,2.73-4.57,4.9-7.06,6.99-.76,.64-1.52,1.29-2.26,1.94,.76,1.28,1.68,2.65,2.64,3.94,2.39-1.14,4.61-2.5,6.77-4.17,.44-.34,1.08-.33,1.51,0,.26,.06,.5,.21,.67,.42,.21,.26,.31,.58,.28,.91-.21,2.19,.65,6.94,1.59,10.68,.01,.04,.02,.13,.02,.17,0,.06,.01,.14,0,.22-.01,.11-.03,.17-.04,.23-.02,.07-.04,.15-.09,.23-.03,.07-.08,.14-.12,.19-.05,.07-.1,.13-.17,.19-.05,.04-.11,.08-.18,.13-.04,.03-.1,.07-.15,.09-1.54,.66-3.43,1.16-5.18,1.38Zm12.72-26.56l.48,.21-.43-.34s-.05,.08-.05,.13Z"/></g></g></svg>