<?xml version="1.0" encoding="UTF-8"?><svg id="_ëîé_1" xmlns="http://www.w3.org/2000/svg" viewBox="0 0 250 250"><defs><style>.cls-1{fill:#fff;}.cls-2{fill:#5986c6;}.cls-3{fill:#e9eef4;}.cls-4{fill:#282828;}.cls-5{fill:#f45353;}</style></defs><g id="book"><path class="cls-1" d="M249.03,189.33l-.1-1.23c-.6-7.39-.98-15.17-1.36-22.77v-.19c-.54-10.89-1.1-22.15-2.3-32.95-.04-.38-.1-.76-.17-1.14-.21-2.66-.49-5.21-.78-7.79-.23-2.02-.52-4.53-.71-6.95l-.08-.96c-1.67-21.28-3.4-43.29-3.76-63.87,0-.2,0-.41-.01-.61-.28-6.45-5.5-11.51-11.97-11.63-1.71-2.37-4.27-4.1-7.26-4.78-2.46-1.13-4.78-1.84-6.74-2.43-1.02-.31-2.08-.63-3.01-.97-9.18-3.4-26.03-9.64-41.32-10.02-3.24-1.92-7.21-2.94-11.64-2.94-6.15,0-13.66,2.02-19,6.43-7.18,1.26-14.91,4.72-23.74,10.63-5.07-2.19-10.62-3.73-16.82-4.68-11.12-1.71-20.74-2.55-29.4-2.55-5.13,0-9.98,.28-14.83,.86-14.84,1.76-27.42,7.58-37.86,13.24-4.13,1.35-7.25,4.83-8.14,9.06-1.51,.63-2.9,1.55-4.05,2.73C1.33,56.38-.05,60.09,.33,63.81c.82,7.83,1.1,16.11,1.37,24.2,.23,6.67,.46,13.56,1.01,20.43,.45,5.71,.76,11.59,1.06,17.35,0,.04,0,.07,0,.11,0,.01,0,.03,0,.04,.47,9.12,.96,18.55,2.08,27.94l.4,3.32c.54,4.5,1.11,9.14,1.54,13.89,0,.15-.02,.3-.02,.45-.37,11.41,.84,22.76,2.02,33.72l.25,2.34c.13,1.2,.35,3.06,.54,4.74-.11,.69-.16,1.39-.15,2.08,.06,6.26,4.74,11.45,10.69,12.2,1.52,.29,3.19,.25,4.62-.08,.38-.09,.76-.19,1.13-.31,20.61-.27,41.28-.97,61.33-1.65l8.15-.29c3.25-.11,7.12-.22,11.16-.22,1.31,0,2.57,.01,3.79,.03,4.33,3.85,10.23,6.53,16.71,7.45,1.57,.23,3.16,.34,4.72,.34,7.11,0,13.5-2.43,17.98-6.84,.93-.91,1.77-1.91,2.53-2.97,5.63-.37,11.2-.71,16.52-1.03l.31-.02c16.05-.98,32.65-1.99,49.04-3.59,1.23-.12,2.68-.16,4.21-.2,1.6-.04,3.6-.09,5.63-.27,.42-.04,1.03-.05,1.76-.07,1.03-.04,1.96-.07,2.81-.12,.63,0,1.27-.04,1.89-.13,.69,.12,1.4,.19,2.11,.19,6.57,0,11.91-5.16,12.17-11.76v-.11c.16-5.6-.26-10.71-.66-15.66Z"/><g><path class="cls-3" d="M112.34,196.35c4.41,1.63,10.3,3.79,13.67,6.92-4.56,.77-9.51,.71-14.33,.65-1.34-.02-2.67-.04-4-.04-10.89,0-21.83,.27-32.41,.53l-8.2,.3c-10.92,.25-22.04,.35-32.79,.35h-2.04c9.56-6.8,21.51-11.23,34.7-12.6,18.5-1.93,32.66-.82,44.55,3.6l.84,.29Z"/><path class="cls-4" d="M34.28,205.61h-2.04c-.24,0-.45-.15-.52-.38-.07-.23,.01-.47,.2-.61,9.75-6.94,21.84-11.33,34.96-12.7,5.89-.61,11.19-.91,16.21-.91,11,0,20.36,1.49,28.59,4.55l.95,.33c4.35,1.61,10.32,3.81,13.74,6.99,.15,.14,.21,.36,.15,.56-.06,.2-.23,.35-.43,.38-3.63,.61-7.51,.69-10.48,.69-1.32,0-2.63-.02-3.94-.03-1.34-.02-2.67-.04-4-.04-10.92,0-21.84,.27-32.4,.53l-8.19,.3c-10,.23-21.04,.35-32.81,.35Zm-.29-1.09h.29c11.76,0,22.79-.12,32.78-.35l8.19-.3c10.58-.26,21.5-.53,32.43-.53,1.33,0,2.67,.02,4.01,.04,1.31,.02,2.62,.03,3.93,.03,2.61,0,5.93-.06,9.13-.5-3.36-2.64-8.58-4.57-12.49-6.01l-.94-.33c-8.12-3.02-17.35-4.48-28.22-4.48-4.98,0-10.24,.3-16.09,.9-12.3,1.28-23.68,5.25-33.01,11.51Z"/></g><g><path class="cls-3" d="M223.87,196.76c-3.73-.06-7.47,.31-11.1,.68-2.76,.28-5.6,.57-8.37,.66-7.88,.24-15.64,.84-23.13,1.42-5.95,.46-12.09,.93-18.32,1.23-4.2,.2-8.7,.66-13.04,1.1-7.25,.73-14.72,1.49-21.37,1.16,9.15-11.12,25.19-14,34.15-14.71,17.35-1.38,32.3-.53,45.73,2.6l1.7,.39c4.79,1.08,10.15,2.29,13.76,5.48Z"/><path class="cls-4" d="M131.94,203.63c-1.19,0-2.35-.03-3.43-.08-.2-.01-.39-.14-.47-.32-.08-.19-.05-.41,.08-.57,9.31-11.32,25.63-14.2,34.53-14.91,5.34-.42,10.53-.64,15.42-.64,11.11,0,21.08,1.06,30.48,3.25l1.7,.39c4.78,1.08,10.2,2.3,13.92,5.53,.17,.09,.29,.27,.29,.48,0,.3-.24,.55-.55,.55,0,0-.01,0-.02,0h0c-3.7-.06-7.44,.31-11.04,.67-2.62,.27-5.58,.57-8.41,.66-7.92,.25-15.64,.84-23.11,1.42-5.93,.46-12.06,.93-18.34,1.24-4.21,.2-8.68,.66-13.01,1.1-6.01,.61-12.23,1.24-18.02,1.24Zm-2.26-1.12c.73,.02,1.49,.04,2.26,.04,5.73,0,11.92-.63,17.91-1.23,4.34-.44,8.83-.9,13.07-1.1,6.26-.3,12.39-.78,18.31-1.23,7.48-.58,15.21-1.17,23.16-1.42,2.79-.09,5.73-.39,8.33-.65,3.12-.31,6.33-.64,9.58-.68-3.45-2.41-8.12-3.46-12.3-4.4l-1.7-.39c-9.32-2.17-19.2-3.22-30.23-3.22-4.87,0-10.03,.21-15.34,.64-8.5,.68-23.89,3.36-33.05,13.67Z"/></g><g><path class="cls-1" d="M226.05,187.01c.2,2.39,.8,8.53,1.02,10.57h-.15c-.11-.68-.29-.46-.48-.47-.15,0-.3-.13-.44-.14-3.86-4.33-10.07-5.8-15.57-7.05l-1.68-.41c-13.58-3.16-28.69-4.04-46.18-2.65-9.06,.72-25.18,3.61-34.74,14.73-.19-4.91-.74-9.86-1.27-14.67-.59-5.35-1.2-10.88-1.34-16.43-.21-8.35-.73-16.65-1.23-24.68-.33-5.21-.66-10.61-.91-15.96-.08-1.67-.09-3.44-.1-5.32-.02-3.93-.04-7.95-.67-11.58,0-.04,0-.08,0-.12-.18-2.55-.56-5.58-.94-8.53-.18-1.41-.36-2.82-.51-4.15-.81-7.03-1.13-14.51-1.45-21.74-.41-9.58-.84-19.49-2.4-28.83,10.7-7.98,19.34-12.13,26.38-12.65,.42,5.08,.89,10.11,1.37,15.13,.84,8.95,1.71,18.21,2.24,27.47,.27,4.7,.52,9.35,.77,13.99,.69,12.88,1.35,25.05,2.38,37.77,.15,1.88,.29,3.83,.42,5.82,.5,7.22,1.01,14.68,2.5,20.97h0c.02,.08,.05,.15,.09,.21,0,.01,.01,.02,.02,.03,.04,.06,.08,.1,.13,.15h.01s.11,.08,.17,.1c.01,0,.03,.02,.05,.03,.08,.03,.15,.14,.24,.14,.05,0,.11,.07,.16,.07h0s.04-.11,.05-.11c.03,0,.06-.06,.09-.08,.04-.02,.09-.07,.12-.1,.01-.01,.02-.03,.04-.04,.02-.02,.05-.05,.08-.08,0,0,0-.01,.01-.01,1.4-1.66,4.57-4.89,7.09-7.35,1.97,1.73,4.21,3.41,6.38,5.03,1.08,.81,2.15,1.62,3.2,2.42,.13,.1,.29,.15,.45,.15,.2,0,.4-.09,.54-.25,.33-.02,.62-.28,.66-.62,.58-4.34-.05-9.5-.67-14.49-.32-2.64-.63-5.13-.77-7.5-.22-3.85-.46-7.69-.71-11.51-.85-13.56-1.73-27.58-1.72-41.52,.01-15.82-.83-32.53-2.42-48.33-.02-.15-.07-.28-.17-.39,0-.02,0-.03-.02-.05,13.62-.6,30.81,5.76,40.12,9.2,1.28,.47,2.54,.86,3.76,1.23,2.47,.75,4.8,1.46,6.99,2.81,.05,.03,.11,.06,.17,.07,.33,12.32,1.32,24.93,2.28,37.13,.79,10.04,1.6,20.41,2.05,30.59,.16,3.66,.44,7.34,.71,10.88,.25,3.39,.52,6.89,.68,10.34-1.07,11.4,.36,24.46,1.75,37.1,.51,4.73,1.01,9.43,1.35,13.69Z"/><path class="cls-4" d="M127.83,202.14c-.06,0-.12,0-.18-.03-.21-.07-.36-.27-.37-.49-.19-4.88-.73-9.82-1.26-14.59-.6-5.39-1.21-10.92-1.35-16.52-.21-8.28-.72-16.52-1.22-24.48v-.17c-.37-5.65-.68-10.75-.92-15.97-.08-1.6-.09-3.29-.1-5.08v-.26c-.02-3.88-.04-7.89-.66-11.49,0-.06,0-.12,0-.18-.19-2.61-.6-5.88-.94-8.5l-.04-.32c-.17-1.31-.33-2.6-.47-3.84-.82-7.09-1.14-14.56-1.45-21.78-.41-9.56-.83-19.45-2.39-28.77-.03-.2,.05-.4,.21-.53,10.79-8.06,19.51-12.23,26.66-12.76,.29-.03,.56,.2,.58,.5,.42,5.06,.9,10.15,1.36,15.08,.85,8.99,1.72,18.24,2.25,27.53,.27,4.67,.52,9.29,.76,13.89,.7,12.93,1.35,25.05,2.38,37.85,.15,1.89,.29,3.84,.42,5.82,.5,7.2,1.01,14.63,2.48,20.86,0,.02,.02,.05,.04,.08l.04,.05s.09,.05,.11,.05c.01,0,.03,.01,.05,.02,.01-.02,.03-.03,.04-.05,.01-.01,.02-.02,.04-.04h0c1.44-1.72,4.71-5.04,7.13-7.4,.2-.2,.53-.21,.74-.02,1.97,1.73,4.19,3.39,6.35,5,1.08,.81,2.16,1.62,3.2,2.43,.07,.05,.17,.05,.25-.03,.09-.1,.23-.17,.37-.18,.08,0,.15-.07,.16-.15,.57-4.25-.05-9.35-.66-14.29-.33-2.71-.64-5.21-.78-7.6-.22-3.85-.46-7.69-.71-11.51-.85-13.53-1.74-27.52-1.73-41.56,.01-15.75-.82-32.44-2.42-48.28-.04-.04-.1-.18-.12-.23-.01-.03-.03-.09-.04-.12-.04-.16,0-.34,.09-.47,.1-.13,.25-.22,.41-.23,13.73-.61,31.17,5.84,40.33,9.24,1.25,.46,2.49,.84,3.69,1.2,2.57,.78,4.92,1.5,7.16,2.88,.23,.07,.42,.29,.43,.52,.33,12.39,1.32,24.95,2.28,37.1l.04,.52c.77,9.87,1.57,20.07,2.01,30.09,.16,3.63,.44,7.26,.7,10.78,.25,3.29,.52,6.93,.68,10.44-1.07,11.45,.36,24.48,1.75,37.07,.58,5.3,1.03,9.67,1.35,13.71,.19,2.26,.76,8.17,1,10.4,.03,.06,.04,.13,.04,.21,0,.3-.24,.54-.55,.54,0,0-.01,0-.02,0h-.15c-.27,0-.49-.19-.54-.45v-.03c-.18-.02-.29-.07-.38-.11-.14,0-.32-.1-.41-.21-3.82-4.29-10.18-5.72-15.29-6.88l-1.69-.41c-9.46-2.2-19.47-3.27-30.61-3.27-4.89,0-10.07,.22-15.4,.64-8.77,.7-24.89,3.51-34.37,14.54-.11,.12-.26,.19-.41,.19Zm-4.97-89.2c.62,3.66,.65,7.69,.66,11.59v.26c.01,1.78,.02,3.46,.1,5.04,.24,5.22,.56,10.31,.91,15.95v.17c.51,7.98,1.02,16.23,1.23,24.52,.13,5.55,.75,11.06,1.34,16.38,.48,4.39,.98,8.89,1.21,13.37,9.82-10.5,25.54-13.23,34.21-13.92,5.35-.43,10.56-.64,15.48-.64,11.22,0,21.32,1.08,30.86,3.3l1.69,.41c5.2,1.18,11.68,2.64,15.74,7.09,.04,.01,.08,.03,.12,.05-.28-2.66-.74-7.48-.9-9.47-.32-4.03-.77-8.38-1.35-13.68-1.39-12.65-2.82-25.72-1.75-37.21-.16-3.42-.44-7.05-.68-10.25-.27-3.61-.55-7.26-.71-10.9-.44-9.99-1.24-20.19-2.01-30.05l-.04-.52c-.95-12.06-1.93-24.52-2.28-36.83-2.09-1.27-4.35-1.96-6.75-2.69-1.29-.39-2.55-.78-3.83-1.25-8.93-3.31-25.72-9.57-39.19-9.19,1.59,15.84,2.43,32.52,2.41,48.26,0,14,.87,27.97,1.72,41.49,.24,3.83,.48,7.66,.71,11.52,.14,2.36,.45,4.84,.77,7.47,.62,5.07,1.25,10.24,.66,14.63-.07,.52-.45,.94-.95,1.06-.46,.37-1.12,.37-1.57,.02-1.04-.8-2.11-1.61-3.19-2.42-2.03-1.52-4.13-3.09-6.03-4.73-2.36,2.31-5.34,5.35-6.69,6.95-.03,.03-.06,.06-.09,.09h0s-.06,.08-.09,.11c-.04,.04-.09,.08-.13,.11-.14,.28-.39,.32-.5,.32-.09,0-.23-.04-.33-.09-.15-.04-.26-.12-.32-.17-.12-.06-.21-.11-.3-.18-.02-.02-.05-.04-.07-.06-.06-.05-.14-.14-.2-.24-.02-.03-.06-.1-.07-.13-.01,0-.06-.1-.09-.22,0-.02-.01-.04-.01-.06h0c-1.49-6.33-2.01-13.8-2.5-21.03-.14-2-.28-3.96-.42-5.84-1.04-12.81-1.69-24.94-2.38-37.78-.25-4.7-.5-9.32-.77-13.98-.53-9.28-1.4-18.51-2.24-27.45-.45-4.8-.92-9.71-1.32-14.6-6.78,.67-15.06,4.7-25.29,12.3,1.52,9.29,1.94,19.09,2.35,28.57,.31,7.2,.63,14.65,1.44,21.71,.14,1.23,.31,2.52,.47,3.82l.04,.32c.34,2.64,.75,5.92,.94,8.56,0,.05,0,.1,0,.14Z"/></g><g><path class="cls-1" d="M125.12,187.08c.53,4.78,1.07,9.7,1.26,14.57-3.59-3-9.03-5.02-13.53-6.69l-.84-.31c-12.11-4.5-26.47-5.69-45.2-3.74-13.49,1.4-25.71,5.83-35.49,12.83,0-.04,.01-.08,.01-.12-.15-4.36-.57-8.79-.98-13.07-.5-5.21-1.01-10.57-1.01-15.85,.19-.14,.31-.38,.29-.64-.32-4.78-.79-9.67-1.23-14.39-.33-3.47-.66-6.95-.95-10.45-.53-6.55-1.03-13.1-1.53-19.66-.77-10.08-1.57-20.5-2.46-30.74-.77-8.97-1.27-18.31-1.75-27.35-.3-5.72-.61-11.61-.99-17.25,9.79-5.41,21.57-11.08,34.84-12.65,11.79-1.4,24.36-.89,40.76,1.63,7.57,1.17,13.89,3.36,19.3,6.71,1.53,9.23,1.95,19.05,2.36,28.55,.32,7.26,.64,14.77,1.46,21.85,.15,1.34,.33,2.75,.51,4.17,.21,1.62,.42,3.27,.59,4.85-.3,.16-.46,.52-.35,.86,1.3,4.14,1.33,9.33,1.36,14.35,0,1.89,.02,3.68,.1,5.38,.25,5.36,.58,10.76,.91,15.98,.5,8.01,1.02,16.3,1.22,24.62,.14,5.61,.75,11.17,1.35,16.55Z"/><path class="cls-4" d="M31.31,204.29c-.1,0-.2-.03-.29-.08-.19-.12-.29-.34-.25-.55v-.03c-.14-4.26-.55-8.61-.96-12.82l-.02-.2c-.47-4.93-1.01-10.52-1.01-15.9,0-.17,.08-.34,.22-.44,.05-.04,.08-.1,.08-.17-.31-4.64-.76-9.39-1.2-13.99l-.14-1.49c-.29-3.1-.59-6.22-.84-9.35-.53-6.55-1.03-13.1-1.54-19.66-.73-9.5-1.55-20.28-2.46-30.73-.78-9.03-1.27-18.35-1.75-27.37-.33-6.19-.62-11.76-.99-17.25-.01-.21,.1-.41,.28-.51,9.77-5.39,21.57-11.12,35.04-12.72,4.36-.52,8.74-.77,13.37-.77,8.03,0,17.04,.79,27.53,2.4,7.65,1.18,14.03,3.4,19.5,6.78,.13,.08,.23,.22,.25,.38,1.53,9.28,1.96,19.11,2.37,28.62v.17c.32,7.19,.64,14.63,1.45,21.64,.15,1.34,.33,2.75,.51,4.16,.21,1.63,.42,3.28,.59,4.86,.02,.22-.09,.44-.29,.54-.07,.03-.12,.12-.09,.21,1.33,4.21,1.36,9.43,1.38,14.48,0,1.91,.02,3.68,.1,5.38,.24,5.17,.55,10.29,.91,15.97l.03,.41c.49,7.89,1,16.04,1.2,24.23,.14,5.62,.75,11.15,1.35,16.5,.5,4.46,1.06,9.5,1.26,14.46,.02,.05,.03,.11,.03,.17,0,.3-.24,.55-.55,.55h-.02c-.13,0-.25-.04-.35-.13-3.54-2.96-8.99-4.97-13.37-6.59l-.84-.31c-8.34-3.1-17.79-4.61-28.87-4.61-5,0-10.26,.3-16.09,.9-13.35,1.39-25.53,5.79-35.23,12.73-.09,.07-.21,.1-.32,.1Zm-1.44-29.35c.02,5.26,.55,10.73,1.01,15.57l.02,.2c.38,3.93,.76,7.99,.93,12.01,9.71-6.71,21.76-10.97,34.91-12.34,5.86-.61,11.16-.91,16.2-.91,11.22,0,20.79,1.53,29.25,4.68l.84,.31c4.09,1.51,9.1,3.36,12.74,6.04-.23-4.59-.75-9.22-1.21-13.35-.59-5.38-1.21-10.93-1.35-16.6-.2-8.17-.7-16.31-1.19-24.19l-.03-.41c-.36-5.69-.67-10.82-.91-15.99-.08-1.72-.09-3.51-.1-5.4-.03-4.99-.05-10.13-1.33-14.19-.14-.45-.01-.93,.3-1.26-.17-1.48-.36-3.02-.56-4.54-.18-1.42-.36-2.84-.51-4.18-.81-7.05-1.14-14.5-1.45-21.71v-.17c-.41-9.39-.83-19.1-2.32-28.24-5.3-3.23-11.48-5.36-18.88-6.5-10.44-1.61-19.39-2.39-27.36-2.39-4.59,0-8.93,.25-13.25,.76-13.14,1.56-24.72,7.13-34.33,12.42,.36,5.38,.65,10.85,.97,16.91,.48,9.01,.97,18.32,1.74,27.33,.91,10.46,1.73,21.23,2.46,30.74,.5,6.55,1.01,13.11,1.53,19.65,.25,3.12,.55,6.23,.84,9.33l.14,1.49c.44,4.6,.89,9.36,1.2,14.02,.02,.33-.09,.65-.29,.9Z"/></g><g><path class="cls-2" d="M236.17,190.38c.37,4.48,.71,8.73,.64,13.27-.57-.05-1.23-.05-1.84,0-.26-.24-.62-.38-.83-.45-.39-.13-.79,.07-.93,.45-.02,.07-.04,.15-.04,.23-.85,.07-2.06,.11-2.89,.14-.96,.03-1.88,.07-2.5,.12-1.58,.14-3.21,.18-4.79,.22-1.68,.04-3.43,.09-5.13,.26-16.25,1.58-32.84,2.59-48.89,3.57-7.59,.46-15.44,.94-23.14,1.47-.1-.1-.23-.17-.38-.19-.4-.06-.77,.2-.84,.59-.39,2.26-1.43,4.32-2.94,5.81-2.6,2.56-6.9,3.63-11.81,2.93-5.4-.77-10.31-3.6-12.22-7.02h0s-.03-.06-.05-.09c-.01-.01-.02-.03-.03-.04-.02-.02-.05-.04-.07-.07-.01,0-.02-.02-.04-.03-.02-.02-.06-.04-.09-.06-.01,0-.02-.01-.03-.02-.03-.01-.06-.02-.09-.03-.01,0-.03-.01-.04-.02-.02,0-.05-.01-.08-.01-.02,0-.04,0-.07,0h0c-7.45-.39-14.86-.23-21.12-.01l-4.65,.16c-22.1,.75-44.94,1.52-67.59,1.77-.04-.4-.1-.89-.17-1.5-.22-1.83-.5-4.18-.64-5.59l-.25-2.32c-1.06-9.97-2.16-20.26-1.99-30.19,.19-.14,.3-.37,.28-.63-.46-5.98-1.14-11.61-1.86-17.58l-.38-3.17c-1.07-8.98-1.55-18.22-2.01-27.15-.3-5.83-.61-11.85-1.08-17.78-.53-6.55-.76-13.35-.98-19.94-.27-8.02-.56-16.31-1.37-24.38,.1,0,.19,0,.3,0,1.56,0,4.2-.41,6.21-1.08,.18,3.19,.35,6.39,.52,9.54,.48,9.05,.97,18.4,1.75,27.4,.89,10.23,1.69,20.65,2.46,30.73,.5,6.55,1,13.11,1.53,19.66,.29,3.51,.62,7,.95,10.47,.36,3.76,.73,7.61,1.02,11.44-.02,.05-.03,.11-.03,.17-.27,6.4,.36,12.94,.96,19.26,.38,4,.68,8.13,.85,12.2-.13,.13-.31,.31-.31,.51v1.64c0,.13-.15,.32-.15,.54,0,.4,.37,.78,.78,.78l4.22,.06h4.08c9.48,0,19.19-.08,28.75-.3l8.2-.23c10.57-.26,21.5-.54,32.38-.54,1.32,0,2.66,.01,3.99,.03,5.08,.07,10.31,.13,15.16-.77,.03,0,.06,0,.09,0,.12,0,.25-.04,.36-.1,.16-.03,.33-.07,.49-.1,1.36,.08,2.75,.12,4.17,.12,5.81,0,12.04-.63,18.11-1.25,4.33-.44,8.81-.89,12.97-1.09,6.25-.3,12.4-.77,18.36-1.23,7.48-.58,15.22-1.17,23.07-1.42,2.82-.09,5.7-.38,8.47-.66,4.07-.41,8.27-.83,12.4-.62,0,.01,.02,.02,.02,.03,.2,.25,.52,.34,.81,.24,.07,.03,.15,.06,.24,.06h1.21c.39,0,.7-.32,.72-.7,.19-.17,.29-.44,.23-.7-.11-.52-.79-7.31-1.05-10.53-.35-4.29-.84-8.76-1.36-13.51-1.32-12.02-2.68-24.43-1.87-35.34,.12-.14,.2-.32,.19-.52-.01-.35-.04-.7-.05-1.05,.02-.18,.03-.36,.05-.54,.02-.16-.02-.31-.09-.43-.16-3.19-.4-6.4-.64-9.52-.27-3.54-.55-7.2-.7-10.84-.45-10.21-1.27-20.6-2.06-30.64-.83-10.56-1.68-21.42-2.11-32.13,1.21,.05,2.58,.07,4,.07s2.73-.02,4.05-.06c.38,20.89,2.12,43.05,3.81,64.49l.05,.71c.2,2.52,.48,4.98,.75,7.36,.39,3.45,.8,7.02,.94,10.71,0,.21,.11,.39,.25,.52,1,9.8,1.5,20.04,1.99,29.98,.38,7.69,.77,15.64,1.38,23.21l.1,1.25Z"/><path class="cls-4" d="M132.73,219.55c-.96,0-1.96-.07-2.96-.22-5.55-.8-10.62-3.73-12.61-7.29l-.02-.03s-.04-.03-.05-.05c-.03-.01-.07-.03-.08-.03-3.03-.15-6.2-.22-9.71-.22-4.27,0-8.31,.12-11.36,.22l-4.65,.16c-20.95,.71-44.69,1.52-67.6,1.77h0c-.28,0-.51-.21-.54-.49-.04-.4-.1-.89-.17-1.49-.22-1.83-.5-4.19-.64-5.59l-.25-2.32c-1.06-9.98-2.16-20.3-1.99-30.25,0-.17,.08-.32,.21-.42,.05-.04,.08-.1,.07-.16-.44-5.81-1.1-11.28-1.8-17.09l-.44-3.63c-1.07-8.99-1.55-18.23-2.01-27.16-.29-5.54-.61-11.78-1.08-17.8-.52-6.47-.75-13.19-.98-19.68v-.28c-.27-7.59-.56-16.19-1.37-24.34-.02-.16,.04-.31,.15-.43,.11-.11,.24-.18,.42-.17,1.31,.06,4.1-.31,6.32-1.05,.16-.05,.34-.03,.48,.07,.14,.1,.23,.25,.24,.42,.18,3.19,.35,6.39,.52,9.54,.47,9,.96,18.3,1.75,27.38,.87,9.99,1.66,20.24,2.46,30.73l.12,1.61c.46,6.02,.92,12.04,1.41,18.05,.27,3.3,.58,6.58,.89,9.85l.06,.61c.35,3.69,.73,7.61,1.02,11.45,0,.08,0,.15-.03,.23-.27,6.41,.36,12.91,.96,19.19,.4,4.18,.69,8.3,.85,12.23,0,.15-.05,.3-.16,.41-.04,.04-.14,.14-.16,.18v1.58c0,.17-.05,.3-.09,.41-.02,.04-.04,.11-.05,.13,0,.1,.13,.23,.23,.23l4.22,.06h4.08c10.64,0,20.04-.1,28.73-.3l9.75-.26c10.07-.25,20.49-.51,30.84-.51,1.32,0,2.66,.01,4,.03,1.31,.02,2.62,.03,3.94,.03,3.36,0,7.31-.09,11.11-.8,.05-.01,.11-.01,.17,0,.05-.03,.21-.07,.26-.08l.49-.1s.1-.02,.15-.01c1.31,.08,2.7,.12,4.13,.12,5.84,0,12.05-.63,18.05-1.25,4.11-.42,8.77-.89,13-1.09,6.38-.31,12.74-.8,18.34-1.23,7.46-.58,15.17-1.17,23.09-1.42,2.8-.09,5.66-.38,8.42-.66,3.84-.39,8.25-.84,12.5-.63,.17,0,.32,.1,.42,.23,.06,.06,.11,.09,.16,.09,.12-.04,.3-.05,.42,0l1.25,.02c.09,0,.17-.09,.18-.19,0-.14,.07-.27,.18-.37,.05-.04,.08-.12,.06-.18-.12-.58-.81-7.55-1.06-10.61-.34-4.19-.82-8.57-1.33-13.21l-.03-.29c-1.32-12.03-2.69-24.47-1.88-35.44,0-.12,.06-.23,.14-.32,.03-.04,.05-.09,.05-.14l-.05-1.05,.05-.61c-.04-.07-.09-.27-.09-.36-.16-3.24-.41-6.47-.64-9.5l-.02-.26c-.26-3.46-.53-7.04-.69-10.6-.46-10.34-1.31-21.12-2.06-30.62-.83-10.5-1.68-21.37-2.11-32.15,0-.15,.05-.3,.16-.41,.11-.11,.25-.18,.41-.16,2.21,.08,5.25,.09,8.01,0,.11,0,.29,.05,.39,.15,.1,.1,.16,.24,.17,.38,.38,20.89,2.12,43.04,3.81,64.46l.06,.71c.2,2.53,.48,4.97,.75,7.34,.39,3.46,.8,7.04,.94,10.75,0,.07,.04,.11,.06,.13,.11,.09,.17,.22,.18,.36,1,9.83,1.51,20.09,2,30.01,.38,7.71,.77,15.64,1.38,23.19l.1,1.25c.35,4.26,.71,8.66,.64,13.32,0,.15-.07,.3-.18,.4-.11,.1-.25,.15-.42,.14-.54-.05-1.16-.05-1.75,0-.14,.01-.31-.04-.42-.15-.18-.17-.48-.27-.64-.33-.12,0-.2,.03-.23,.12,0,.28-.22,.57-.5,.59-.87,.07-2.11,.11-2.92,.14-.95,.03-1.86,.07-2.47,.12-1.56,.14-3.18,.18-4.74,.22-1.75,.05-3.48,.09-5.18,.26-16.41,1.59-32.93,2.6-48.91,3.57-7.13,.44-15.22,.93-23.14,1.47-.15,0-.31-.05-.42-.15l-.12-.05c-.09,0-.16,.06-.18,.15-.41,2.37-1.51,4.54-3.1,6.1-2.15,2.12-5.46,3.29-9.31,3.29Zm-14.62-8.04c1.83,3.29,6.58,6,11.82,6.75,4.69,.67,8.9-.36,11.35-2.77,1.43-1.4,2.42-3.36,2.79-5.51,.12-.68,.76-1.15,1.46-1.04,.16,.03,.32,.08,.46,.17,7.85-.54,15.87-1.03,22.94-1.46,15.97-.97,32.48-1.97,48.87-3.57,1.74-.17,3.49-.22,5.17-.26,1.63-.04,3.23-.08,4.76-.22,.63-.05,1.56-.09,2.53-.12,.71-.02,1.69-.06,2.48-.11,.27-.58,.96-.88,1.57-.68,.19,.07,.53,.19,.84,.41,.38-.03,.76-.03,1.13-.02,.03-4.4-.31-8.59-.64-12.64l-.1-1.25c-.61-7.56-1-15.5-1.38-23.19-.49-9.88-.99-20.06-1.98-29.81-.16-.21-.26-.47-.27-.73-.14-3.67-.55-7.23-.94-10.67-.27-2.38-.55-4.83-.75-7.38l-.05-.71c-1.67-21.25-3.4-43.21-3.8-63.97-2.4,.06-4.95,.06-6.94,0,.44,10.57,1.28,21.22,2.08,31.52,.75,9.51,1.61,20.3,2.07,30.66,.15,3.55,.42,7.11,.68,10.56l.02,.26c.23,3,.47,6.2,.63,9.42,.09,.2,.12,.42,.1,.63l-.05,.53,.05,.98c0,.27-.06,.52-.2,.74-.78,10.83,.58,23.16,1.88,35.08l.03,.29c.51,4.64,.99,9.03,1.33,13.24,.28,3.37,.94,10.02,1.04,10.46,.08,.37-.01,.76-.25,1.06-.13,.57-.64,.99-1.24,.99h-1.21c-.1,0-.19-.02-.27-.04-.37,.06-.77-.05-1.05-.31-4.1-.18-8.37,.25-12.1,.63-2.8,.29-5.68,.58-8.51,.67-7.89,.24-15.6,.84-23.04,1.41-5.61,.43-11.98,.92-18.37,1.24-4.21,.2-8.85,.67-12.94,1.09-6.03,.61-12.27,1.25-18.16,1.25-1.43,0-2.82-.04-4.13-.12l-.35,.07c-.17,.08-.36,.13-.54,.13-.01,0-.04,0-.07,0-3.86,.71-7.84,.8-11.23,.8-1.32,0-2.65-.02-3.96-.03-1.33-.02-2.66-.03-3.98-.03-10.34,0-20.75,.26-30.81,.51l-9.75,.26c-8.71,.2-18.11,.3-28.76,.3h-4.08l-4.22-.06c-.7,0-1.32-.62-1.32-1.33,0-.23,.08-.41,.13-.54l.02-1.64c0-.3,.15-.55,.3-.72-.16-3.85-.44-7.86-.83-11.95-.61-6.32-1.24-12.86-.97-19.34,0-.07,.01-.13,.03-.19-.29-3.81-.66-7.69-1.01-11.34l-.06-.62c-.31-3.27-.62-6.56-.89-9.87-.49-6.01-.95-12.04-1.41-18.06l-.12-1.61c-.8-10.49-1.59-20.73-2.46-30.72-.78-9.1-1.27-18.41-1.75-27.41-.15-2.92-.31-5.88-.48-8.84-1.91,.55-4.03,.86-5.41,.9,.78,8.01,1.06,16.39,1.31,23.81v.28c.23,6.48,.46,13.18,.98,19.63,.48,6.03,.8,12.28,1.08,17.8,.46,8.95,.94,18.17,2.01,27.12l.44,3.63c.7,5.81,1.36,11.3,1.81,17.14,.02,.33-.08,.65-.29,.9-.15,9.82,.94,20.03,1.99,29.9l.25,2.32c.14,1.41,.42,3.76,.64,5.58,.04,.38,.08,.71,.12,1.01,22.75-.26,46.29-1.06,67.08-1.77l4.65-.16c3.06-.1,7.11-.22,11.4-.22,3.53,0,6.72,.08,9.77,.24,.02,0,.1,.01,.13,.01,.06,0,.12,.02,.17,.04,.1,.04,.14,.05,.18,.07,.02,0,.04,.02,.05,.03,0,0,.02,0,.03,.01,.04,.02,.1,.06,.17,.11,.01,0,.03,.02,.03,.03,.02,.03,.15,.15,.17,.18,.02,.02,.06,.08,.09,.13v.02h.02Z"/></g><g><path class="cls-5" d="M170.55,143.45c.57,4.63,1.16,9.41,.75,13.42-.86-.66-1.73-1.32-2.62-1.98-2.21-1.65-4.48-3.35-6.43-5.09-.03-.14-.09-.28-.19-.38-.17-.18-.42-.25-.65-.21-.23-.04-.48,.04-.65,.23-.11,.12-.17,.26-.18,.41-2.12,2.05-4.71,4.68-6.38,6.51-1.23-5.87-1.7-12.71-2.16-19.35-.14-1.99-.27-3.94-.43-5.83-1.03-12.7-1.68-24.86-2.37-37.73-.25-4.64-.5-9.29-.77-13.99-.54-9.28-1.4-18.56-2.25-27.52-.45-4.76-.9-9.54-1.3-14.35,.06-.09,.12-.04,.14-.15,.78-3.55,7.51-6.18,12.78-6.18h.01c1.89,0,6.32,.25,7.1,3.76,0,.03,.01-.02,.02,0,1.57,15.64,2.39,32.11,2.38,47.75-.01,13.99,.87,28.02,1.73,41.6,.24,3.82,.48,7.65,.71,11.5,.14,2.41,.46,5.04,.77,7.59Z"/><path class="cls-4" d="M171.3,157.42c-.12,0-.24-.04-.33-.11-.7-.54-1.42-1.08-2.14-1.62l-.47-.36c-2.08-1.56-4.44-3.32-6.47-5.12-.09-.08-.15-.19-.17-.31l-.06-.11s-.08-.05-.13-.05c-.06,0-.15,.01-.21,0-.06,0-.12,0-.16,.05-.01,.13-.11,.34-.21,.43-2.33,2.26-4.83,4.81-6.36,6.49-.14,.15-.35,.21-.55,.16-.2-.05-.35-.21-.39-.41-1.23-5.89-1.7-12.74-2.16-19.36-.14-2.05-.28-4-.43-5.89-1.04-12.86-1.72-25.51-2.37-37.74-.25-4.64-.5-9.29-.77-13.99-.54-9.34-1.41-18.57-2.25-27.5-.43-4.53-.88-9.41-1.3-14.36-.01-.13,.03-.26,.1-.37,.02-.02,.05-.05,.08-.08,.96-3.71,7.74-6.47,13.27-6.47s7.13,2.16,7.6,4.04h0c.03,.08,.05,.15,.06,.22,1.57,15.66,2.39,32.2,2.38,47.81,0,13.94,.87,27.94,1.72,41.48,.25,3.91,.49,7.74,.71,11.59,.14,2.43,.47,5.15,.77,7.55,.57,4.64,1.17,9.45,.75,13.54-.02,.2-.14,.37-.33,.45-.07,.03-.14,.04-.22,.04Zm-8.57-7.92c1.97,1.73,4.25,3.44,6.28,4.96l.47,.36c.45,.34,.9,.68,1.35,1.02,.23-3.76-.31-8.1-.83-12.32-.3-2.42-.64-5.16-.78-7.62-.23-3.85-.47-7.67-.71-11.5-.86-13.64-1.74-27.66-1.73-41.64,.01-15.52-.8-31.96-2.36-47.55-.02-.05-.03-.1-.04-.15-.6-2.7-3.9-3.28-6.55-3.28-5.09,0-11.54,2.51-12.25,5.75-.02,.09-.06,.18-.11,.25,.41,4.85,.85,9.64,1.28,14.09,.84,8.94,1.71,18.18,2.25,27.54,.27,4.7,.52,9.36,.77,14,.66,12.23,1.33,24.87,2.37,37.71,.15,1.89,.29,3.85,.43,5.84,.43,6.25,.88,12.65,1.94,18.23,1.51-1.61,3.58-3.72,5.55-5.63,.05-.19,.15-.37,.29-.51,.26-.28,.65-.44,1.05-.4,.39-.04,.78,.11,1.04,.39,.12,.12,.22,.28,.28,.46Z"/></g><g><path class="cls-4" d="M227.6,198.6h-1.21c-.09,0-.17-.03-.24-.06-.28,.1-.61,0-.81-.24,0-.01-.02-.02-.02-.03-4.13-.21-8.33,.21-12.4,.62-2.78,.28-5.65,.58-8.47,.66-7.85,.24-15.59,.84-23.07,1.42-5.96,.46-12.11,.93-18.36,1.23-4.16,.2-8.64,.65-12.97,1.09-6.07,.62-12.3,1.25-18.11,1.25-1.42,0-2.81-.04-4.17-.12-.16,.03-.33,.07-.49,.1-.11,.06-.23,.1-.36,.1-.03,0-.06,0-.09,0-4.85,.9-10.08,.84-15.16,.77-1.33-.02-2.67-.03-3.99-.03-10.88,0-21.81,.28-32.38,.54l-8.2,.23c-9.55,.22-19.26,.3-28.75,.3h-4.08l-4.22-.06c-.4,0-.78-.38-.78-.78,0-.21,.15-.41,.15-.54v-1.64c0-.2,.18-.38,.31-.51-.17-4.07-.46-8.2-.85-12.2-.61-6.32-1.23-12.86-.96-19.26,0-.06,.01-.12,.03-.17-.29-3.83-.66-7.68-1.02-11.44-.33-3.48-.66-6.97-.95-10.47-.53-6.55-1.03-13.11-1.53-19.66-.77-10.08-1.57-20.5-2.46-30.73-.78-9-1.27-18.35-1.75-27.4-.17-3.15-.33-6.35-.52-9.54-2.02,.67-4.65,1.08-6.21,1.08-.11,0-.21,0-.3,0,.81,8.07,1.1,16.36,1.37,24.38,.23,6.58,.46,13.39,.98,19.94,.47,5.93,.78,11.95,1.08,17.78,.46,8.94,.94,18.17,2.01,27.15l.38,3.17c.72,5.97,1.41,11.6,1.86,17.58,.02,.26-.1,.49-.28,.63-.17,9.92,.93,20.21,1.99,30.19l.25,2.32c.14,1.41,.42,3.76,.64,5.59,.07,.6,.13,1.1,.17,1.5,22.65-.25,45.49-1.02,67.59-1.77l4.65-.16c6.26-.21,13.67-.37,21.12,.01h0s.05,0,.07,0c.03,0,.05,0,.08,.01,.01,0,.03,0,.04,.02,.03,.01,.06,.02,.09,.03,.01,0,.02,.02,.03,.02,.03,.02,.06,.03,.09,.06,.01,0,.02,.02,.04,.03,.02,.02,.05,.04,.07,.07,0,.01,.01,.02,.03,.04,.02,.02,.04,.05,.05,.08h0c1.91,3.43,6.82,6.26,12.22,7.03,4.9,.7,9.21-.36,11.81-2.93,1.51-1.48,2.55-3.54,2.94-5.81,.07-.39,.44-.66,.84-.59,.15,.02,.28,.1,.38,.19,7.7-.53,15.55-1.01,23.14-1.47,16.05-.98,32.64-1.99,48.89-3.57,1.71-.17,3.45-.21,5.13-.26,1.58-.04,3.22-.08,4.79-.22,.62-.05,1.54-.09,2.5-.12,.83-.03,2.05-.07,2.89-.14,0-.07,.01-.15,.04-.23,.13-.38,.54-.57,.93-.45,.21,.07,.58,.21,.83,.45,.62-.05,1.27-.06,1.84,0,.07-4.53-.27-8.78-.64-13.27l-.1-1.25c-.61-7.56-1-15.52-1.38-23.21-.49-9.94-1-20.18-1.99-29.98-.15-.13-.24-.31-.25-.52-.14-3.69-.55-7.25-.94-10.71-.27-2.38-.55-4.84-.75-7.36l-.05-.71c-1.69-21.44-3.43-43.6-3.81-64.49-1.32,.04-2.7,.06-4.05,.06-1.42,0-2.78-.02-4-.07,.43,10.71,1.28,21.57,2.11,32.13,.79,10.04,1.61,20.43,2.06,30.64,.16,3.64,.44,7.3,.7,10.84,.24,3.12,.48,6.32,.64,9.52,.07,.13,.11,.28,.09,.43-.02,.18-.03,.36-.05,.54,.02,.35,.04,.7,.05,1.05,0,.2-.07,.38-.19,.52-.8,10.9,.55,23.31,1.87,35.34,.52,4.74,1.01,9.22,1.36,13.51,.26,3.22,.94,10.01,1.05,10.53,.06,.26-.04,.53-.23,.7-.02,.38-.34,.7-.72,.7Zm-.67-1.02h.15c-.23-2.04-.83-8.18-1.02-10.57-.34-4.27-.84-8.97-1.35-13.69-1.39-12.64-2.82-25.7-1.75-37.1-.16-3.46-.42-6.95-.68-10.34-.27-3.55-.55-7.22-.71-10.88-.45-10.18-1.27-20.56-2.05-30.59-.96-12.2-1.95-24.81-2.28-37.13-.06-.02-.12-.04-.17-.07-2.19-1.35-4.52-2.06-6.99-2.81-1.22-.37-2.48-.75-3.76-1.23-9.31-3.45-26.5-9.8-40.12-9.2,0,.02,0,.04,.02,.05,.09,.11,.15,.24,.17,.39,1.59,15.8,2.44,32.51,2.42,48.33,0,13.94,.87,27.96,1.72,41.52,.24,3.83,.48,7.66,.71,11.51,.14,2.37,.45,4.86,.77,7.5,.61,4.99,1.25,10.15,.67,14.49-.05,.34-.33,.6-.66,.62-.14,.16-.34,.25-.54,.25-.16,0-.31-.05-.45-.15-1.04-.81-2.12-1.61-3.2-2.42-2.17-1.63-4.41-3.3-6.38-5.03-2.52,2.46-5.7,5.69-7.09,7.35,0,0,0,.01-.01,.01-.02,.03-.05,.06-.08,.08-.02,.01-.03,.03-.04,.04-.04,.03-.08,.08-.12,.1-.03,.02-.06,.07-.09,.08-.01,0-.03,.11-.05,.11h0c-.05,0-.11-.07-.16-.07-.09,0-.17-.11-.24-.14-.02,0-.04-.02-.05-.03-.06-.03-.12-.06-.17-.1h-.01c-.05-.05-.09-.1-.13-.15,0,0-.02-.02-.02-.03-.04-.06-.06-.13-.09-.2h0c-1.48-6.3-2-13.76-2.5-20.98-.14-1.98-.28-3.94-.42-5.82-1.03-12.72-1.69-24.89-2.38-37.77-.25-4.63-.5-9.29-.77-13.99-.53-9.26-1.4-18.51-2.24-27.47-.47-5.02-.95-10.05-1.37-15.13-7.04,.52-15.68,4.67-26.38,12.65,1.56,9.34,1.98,19.25,2.4,28.83,.31,7.24,.63,14.72,1.45,21.74,.15,1.33,.33,2.74,.51,4.15,.38,2.94,.76,5.98,.94,8.53,0,.04,0,.08,0,.12,.63,3.63,.65,7.65,.67,11.58,.01,1.88,.02,3.66,.1,5.32,.25,5.35,.58,10.75,.91,15.96,.5,8.03,1.02,16.33,1.23,24.68,.13,5.55,.75,11.08,1.34,16.43,.53,4.8,1.08,9.75,1.27,14.67,9.55-11.12,25.68-14.01,34.74-14.73,17.49-1.4,32.6-.52,46.18,2.65l1.68,.41c5.51,1.24,11.71,2.71,15.57,7.05,.15,0,.3,.13,.44,.14,.19,.02,.37-.21,.48,.47ZM23.26,215.37l-.1-.36c-.18,0-.36,.25-.54,.25h-.01c-.4,0-.72-.56-.72-.96,0-.27,.14-.74,.36-.87-.05-.41-.11-.9-.17-1.44-.22-1.84-.5-4.19-.65-5.61l-.24-2.32c-1.13-10.61-2.3-21.58-1.96-32.15,0-.13,.05-.25,.11-.35-.45-5.34-1.07-10.47-1.72-15.87l-.38-3.17c-1.08-9.03-1.55-18.29-2.02-27.25-.3-5.82-.61-11.83-1.08-17.74-.53-6.58-.76-13.41-.99-20-.28-8.21-.57-16.7-1.42-24.91-.03-.29,.11-.56,.34-.69,.19-.3,.57-.43,.9-.29,.5,.14,4.02-.13,6.68-1.12-.12-2.19-.26-4.36-.41-6.5-.02-.09-.03-.19-.02-.28,0-.04,0-.07,0-.1-.03-.4,.28-.74,.67-.77,.09,0,.16,0,.24,.03,9.9-5.45,21.78-11.16,35.25-12.75,11.92-1.42,24.61-.91,41.15,1.64,7.63,1.17,14.02,3.37,19.53,6.71,11.36-8.5,20.53-12.76,28.02-13.05,.06,0,.12,0,.18,.02,2.09-3.55,8.35-5.92,13.58-5.92h.01c3.59,0,6.25,1.07,7.62,3,14.03-.85,31.79,5.71,41.35,9.25,1.24,.46,2.48,.83,3.68,1.2,2.44,.74,4.75,1.45,6.99,2.77,.12-.09,.26-.15,.42-.15,.44,.04,.73,.31,.75,.71,.04,1.46,.08,2.92,.14,4.39,2.56,.09,5.88,.09,8.79-.01,.41-.03,.74,.3,.75,.7,0,.05,0,.11-.01,.16,0,.03,.01,.07,.02,.1,.36,20.99,2.12,43.31,3.82,64.9l.06,.7c.2,2.49,.47,4.95,.74,7.31,.31,2.75,.63,5.59,.82,8.5,.07,.1,.11,.21,.12,.33,1.17,10.56,1.72,21.7,2.25,32.47,.38,7.68,.77,15.62,1.38,23.16l.1,1.24c.39,4.83,.77,9.43,.63,14.4-.01,.4-.33,.74-.73,.74h-.02c-.22,0-.41-.14-.54-.3-.08,.02-.16,0-.24-.01-.92-.09-2.18,0-2.86,.21-.07,.02-.15,.03-.22,.03-.06,0-.13-.01-.19-.03-.73,.08-1.74,.11-3.14,.16-.92,.03-1.81,.06-2.41,.11-1.62,.15-3.28,.19-4.89,.23-1.66,.04-3.37,.09-5.03,.25-16.27,1.58-32.88,2.59-48.94,3.57-7.61,.46-15.47,.95-23.19,1.47-.53,2.24-1.64,4.28-3.18,5.79-2.35,2.31-5.88,3.55-9.95,3.55-1,0-2.03-.07-3.08-.22-5.74-.82-10.8-3.7-13.07-7.4-7.26-.36-14.48-.19-20.61,.02l-4.65,.17c-22.09,.75-44.91,1.55-67.55,1.8-.04,.37-.2,.48-.51,.55Zm189.52-17.93c3.63-.37,7.37-.74,11.1-.68-3.61-3.19-8.96-4.4-13.76-5.48l-1.7-.39c-13.43-3.12-28.39-3.98-45.73-2.6-8.96,.71-25,3.59-34.15,14.71,6.65,.33,14.12-.42,21.37-1.16,4.34-.44,8.84-.9,13.04-1.1,6.23-.3,12.38-.78,18.32-1.23,7.5-.58,15.25-1.17,23.13-1.42,2.77-.08,5.62-.37,8.37-.66Zm-41.48-40.57c.41-4.02-.18-8.79-.75-13.42-.31-2.54-.64-5.17-.77-7.59-.23-3.85-.47-7.68-.71-11.5-.85-13.58-1.74-27.61-1.73-41.6,.01-15.64-.81-32.11-2.38-47.75-.01-.02-.02,.02-.02,0-.78-3.51-5.21-3.76-7.1-3.76h-.01c-5.27,0-12,2.63-12.78,6.18-.02,.11-.08,.06-.14,.15,.4,4.81,.85,9.59,1.3,14.35,.84,8.96,1.71,18.24,2.25,27.52,.27,4.7,.52,9.36,.77,13.99,.69,12.87,1.35,25.03,2.37,37.73,.15,1.89,.29,3.84,.43,5.83,.46,6.63,.93,13.47,2.16,19.35,1.67-1.83,4.27-4.46,6.38-6.51,.01-.15,.07-.29,.18-.41,.17-.19,.42-.26,.65-.23,.23-.04,.47,.03,.65,.21,.11,.11,.17,.24,.19,.38,1.96,1.74,4.23,3.44,6.43,5.09,.88,.66,1.76,1.32,2.62,1.98Zm-44.92,44.78c-.19-4.87-.73-9.79-1.26-14.57-.59-5.38-1.21-10.94-1.35-16.55-.2-8.32-.72-16.61-1.22-24.62-.33-5.22-.67-10.62-.91-15.98-.08-1.7-.09-3.49-.1-5.38-.03-5.02-.05-10.21-1.36-14.35-.1-.34,.05-.7,.35-.86-.18-1.58-.38-3.23-.59-4.85-.18-1.42-.36-2.83-.51-4.17-.82-7.08-1.14-14.59-1.46-21.85-.41-9.5-.83-19.33-2.36-28.55-5.41-3.34-11.73-5.54-19.3-6.71-16.4-2.52-28.97-3.03-40.76-1.63-13.27,1.57-25.04,7.25-34.84,12.65,.38,5.64,.69,11.54,.99,17.25,.48,9.03,.97,18.38,1.75,27.35,.89,10.23,1.69,20.66,2.46,30.74,.5,6.55,1.01,13.11,1.53,19.66,.28,3.5,.62,6.98,.95,10.45,.45,4.72,.91,9.61,1.23,14.39,.02,.26-.1,.49-.29,.64,0,5.28,.51,10.63,1.01,15.85,.41,4.28,.83,8.7,.98,13.07,0,.04,0,.08-.01,.12,9.78-6.99,22-11.42,35.49-12.83,18.73-1.96,33.1-.77,45.2,3.74l.84,.31c4.5,1.66,9.94,3.68,13.53,6.69Zm-.36,1.62c-3.37-3.13-9.26-5.29-13.67-6.92l-.84-.29c-11.89-4.42-26.05-5.53-44.55-3.6-13.19,1.38-25.15,5.8-34.7,12.6h2.04c10.75,0,21.87-.1,32.79-.35l8.2-.3c10.58-.26,21.52-.53,32.41-.53,1.33,0,2.67,.02,4,.04,4.81,.06,9.76,.12,14.33-.65Z"/><path class="cls-4" d="M132.73,221c-1.04,0-2.1-.08-3.16-.23-5.8-.83-10.86-3.66-13.3-7.41-2.74-.13-5.61-.19-8.76-.19-4.23,0-8.2,.12-11.53,.23l-8.17,.29c-20.81,.71-42.33,1.44-63.64,1.67-.19,.36-.53,.48-.79,.54-.19,.04-.37-.02-.5-.14-.08,.03-.16,.05-.26,.05-.79,0-1.28-.88-1.28-1.5,0-.24,.08-.73,.33-1.07l-.18-1.55c-.21-1.78-.46-3.93-.61-5.25l-.24-2.32c-1.13-10.61-2.31-21.58-1.96-32.23,0-.15,.04-.3,.1-.44-.46-5.44-1.09-10.65-1.71-15.7l-.38-3.17c-1.08-9.02-1.55-18.27-2.02-27.21l.54-.18-.54,.03c-.3-5.79-.61-11.77-1.08-17.65-.53-6.66-.76-13.45-.99-20.03-.28-8.2-.57-16.68-1.42-24.87-.04-.44,.15-.88,.5-1.14,.33-.44,.96-.62,1.48-.41-.02,0,.08,0,.27,0,1.14,0,3.65-.31,5.65-.99-.12-2.05-.25-4.08-.38-6.08-.02-.05-.03-.18-.02-.32,0-.04,0-.08,0-.09-.04-.66,.49-1.27,1.18-1.32,.06,0,.13,0,.18,0,9.82-5.4,21.68-11.11,35.28-12.73,4.42-.53,8.85-.78,13.55-.78,8.1,0,17.17,.79,27.74,2.42,7.55,1.16,13.9,3.32,19.41,6.6,11.27-8.38,20.41-12.61,27.93-12.94,2.42-3.7,8.88-5.91,13.87-5.91,3.59,0,6.37,1.06,7.89,2.98,.75-.04,1.52-.06,2.3-.06,13.7,0,30.14,6.09,38.98,9.36,1.26,.46,2.53,.85,3.65,1.19,2.26,.69,4.59,1.4,6.85,2.67,.13-.05,.27-.07,.4-.08,.78,.06,1.28,.56,1.3,1.24,.03,1.29,.07,2.58,.12,3.88,2.5,.07,5.62,.06,8.25-.03h0c.74,0,1.28,.54,1.31,1.23,0,.06,0,.12,0,.17v.05c.37,20.92,2.11,43.14,3.8,64.62l.08,.98c.2,2.58,.5,5.19,.74,7.3,.32,2.81,.62,5.57,.82,8.4,.07,.14,.11,.28,.13,.44,1.17,10.52,1.71,21.62,2.24,32.34v.16c.38,7.64,.77,15.55,1.39,23.14l.1,1.24c.4,4.87,.77,9.46,.63,14.46-.03,.7-.6,1.27-1.27,1.27-.29,0-.56-.11-.79-.3h-.02c-.27-.03-.52-.04-.78-.04-.73,0-1.48,.09-1.9,.22-.18,.06-.38,.08-.61,.04-.76,.07-1.79,.11-3.08,.15-.94,.03-1.8,.06-2.38,.11-1.66,.15-3.4,.19-4.92,.23-1.68,.04-3.37,.09-4.99,.25-16.17,1.57-32.68,2.58-48.64,3.55l-.32,.02c-7.3,.44-15.07,.92-22.79,1.45-.59,2.19-1.72,4.18-3.23,5.66-2.43,2.39-6.1,3.71-10.33,3.71Zm-25.22-8.92c3.28,0,6.25,.07,9.1,.21,.18,0,.34,.11,.44,.26,2.18,3.55,7.15,6.35,12.68,7.14,1.01,.15,2.02,.22,3,.22,3.95,0,7.35-1.21,9.57-3.4,1.45-1.42,2.52-3.39,3.03-5.53,.05-.23,.25-.4,.49-.42,7.86-.54,15.77-1.02,23.2-1.48l.32-.02c15.95-.97,32.44-1.98,48.6-3.55,1.66-.16,3.37-.21,5.02-.25,1.56-.04,3.27-.08,4.9-.23,.6-.05,1.48-.08,2.41-.11,1.36-.05,2.41-.08,3.14-.16,.06,0,.13,0,.2,.02,.86-.23,2.15-.33,3.17-.23l.08,.56,.04-.54c.21-.05,.34,.03,.48,.19,.05,.07,.11,.09,.12,.1,.11,0,.2-.1,.2-.21,.14-4.94-.24-9.5-.63-14.33l-.1-1.25c-.62-7.62-1.01-15.53-1.38-23.18v-.16c-.54-10.71-1.08-21.79-2.25-32.28-.05-.08-.12-.26-.12-.35-.19-2.85-.5-5.64-.82-8.47-.24-2.11-.54-4.74-.74-7.33l-.08-.99c-1.69-21.5-3.44-43.73-3.8-64.65-.01-.07-.02-.14,0-.21,0-.13-.07-.21-.14-.21-2.91,.1-6.32,.11-8.87,.02-.29-.01-.51-.24-.53-.52-.05-1.47-.1-2.93-.14-4.39,0-.04,0-.16-.25-.18-.18,.14-.46,.2-.65,.08-2.22-1.3-4.59-2.02-6.88-2.72-1.13-.34-2.42-.73-3.71-1.21-8.77-3.25-25.1-9.29-38.6-9.29-.86,0-1.71,.02-2.53,.07-.19,.01-.37-.08-.48-.23-1.26-1.78-3.81-2.77-7.17-2.77-5.41,0-11.29,2.53-13.12,5.65-.11,.19-.34,.3-.56,.26-7.45,.28-16.52,4.51-27.78,12.93-.18,.13-.42,.14-.61,.03-5.45-3.31-11.78-5.48-19.33-6.64-10.51-1.62-19.53-2.41-27.58-2.41-4.65,0-9.04,.25-13.42,.77-13.5,1.6-25.29,7.31-35.05,12.69-.12,.07-.26,.08-.4,.05-.16,0-.24,.08-.23,.18,.01,.06,.01,.16,0,.22,0,.03,.02,.12,.02,.16,.14,2.14,.28,4.31,.4,6.5,.01,.24-.13,.46-.35,.54-2.21,.82-5.08,1.19-6.41,1.19-.37,0-.52-.03-.61-.06l-.13-.03c-.06,0-.12,.03-.16,.09-.05,.07-.11,.14-.18,.18-.05,.03-.09,.09-.08,.17,.86,8.23,1.15,16.73,1.43,24.94,.22,6.56,.45,13.34,.98,19.98,.47,5.89,.78,11.88,1.08,17.68v.16c.47,8.92,.94,18.15,2.02,27.14l.38,3.17c.62,5.1,1.26,10.37,1.72,15.89,0,.11-.02,.23-.07,.32-.38,10.66,.79,21.59,1.92,32.17l.24,2.32c.14,1.32,.39,3.46,.6,5.23l.21,1.81c.02,.21-.08,.42-.27,.53-.01,.03-.09,.26-.09,.39,0,.13,.09,.3,.16,.39,.17-.11,.34-.21,.55-.21,.07,0,.15,.01,.21,.04,.09-.13,.23-.23,.4-.23,21.43-.23,43.08-.97,64.02-1.68l8.17-.29c3.34-.11,7.32-.23,11.56-.23Zm25.22,7.47c-.96,0-1.96-.07-2.96-.22-5.55-.8-10.62-3.73-12.61-7.29l-.02-.03s-.04-.03-.05-.05c-.03-.01-.07-.03-.08-.03-3.03-.15-6.2-.22-9.71-.22-4.27,0-8.31,.12-11.36,.22l-4.65,.16c-20.95,.71-44.69,1.52-67.6,1.77h0c-.28,0-.51-.21-.54-.49-.04-.4-.1-.89-.17-1.49-.22-1.83-.5-4.19-.64-5.59l-.25-2.32c-1.06-9.98-2.16-20.3-1.99-30.25,0-.17,.08-.32,.21-.42,.05-.04,.08-.1,.07-.16-.44-5.81-1.1-11.29-1.8-17.09l-.44-3.63c-1.07-8.99-1.55-18.23-2.01-27.16-.29-5.54-.61-11.78-1.08-17.8-.52-6.47-.75-13.19-.98-19.68v-.28c-.27-7.59-.56-16.19-1.37-24.34-.02-.16,.04-.31,.15-.43,.11-.12,.27-.17,.42-.17,1.33,.06,4.1-.31,6.32-1.05,.16-.05,.34-.03,.48,.07,.14,.1,.23,.25,.24,.42,.18,3.19,.35,6.39,.52,9.54,.47,9,.96,18.3,1.75,27.38,.87,9.99,1.66,20.24,2.46,30.73l.12,1.59c.46,6.02,.93,12.05,1.41,18.07,.27,3.3,.58,6.58,.89,9.85l.06,.61c.35,3.69,.73,7.61,1.02,11.45,0,.08,0,.15-.03,.23-.27,6.41,.36,12.91,.96,19.19,.4,4.18,.69,8.3,.85,12.23,0,.15-.05,.3-.16,.41-.04,.04-.14,.14-.16,.18v1.58c0,.17-.05,.3-.09,.41-.02,.04-.04,.11-.05,.13,0,.1,.13,.23,.23,.23l4.22,.06h4.08c10.64,0,20.04-.1,28.73-.3l9.75-.26c10.07-.25,20.49-.51,30.84-.51,1.32,0,2.66,.01,4,.03,1.31,.02,2.62,.03,3.94,.03,3.36,0,7.31-.09,11.11-.8,.05-.01,.11-.01,.17,0,.05-.03,.21-.07,.26-.08l.49-.1s.1-.02,.15-.01c1.31,.08,2.7,.12,4.13,.12,5.84,0,12.05-.63,18.05-1.25,4.11-.42,8.77-.89,13-1.09,6.38-.31,12.74-.8,18.34-1.23,7.46-.58,15.17-1.17,23.09-1.42,2.8-.09,5.66-.38,8.42-.66,3.84-.39,8.25-.84,12.5-.63,.17,0,.32,.1,.42,.23,.06,.06,.11,.09,.16,.09,.12-.04,.3-.05,.42,0h.29c-.12-.08-.21-.2-.24-.36v-.03c-.18-.02-.29-.07-.38-.11-.14,0-.32-.1-.41-.21-3.82-4.29-10.18-5.72-15.29-6.88l-1.69-.41c-9.46-2.2-19.47-3.27-30.61-3.27-4.89,0-10.07,.22-15.4,.64-8.77,.7-24.89,3.51-34.37,14.54-.15,.17-.38,.23-.59,.16-.21-.07-.36-.27-.37-.49-.19-4.88-.73-9.82-1.26-14.59-.6-5.39-1.21-10.92-1.35-16.51-.21-8.28-.72-16.52-1.22-24.48v-.17c-.37-5.65-.68-10.75-.92-15.97-.08-1.6-.09-3.29-.1-5.08v-.26c-.02-3.88-.04-7.89-.66-11.49,0-.06,0-.12,0-.18-.19-2.61-.6-5.88-.94-8.5l-.04-.32c-.17-1.31-.33-2.61-.47-3.84-.82-7.09-1.14-14.56-1.45-21.78-.41-9.56-.83-19.45-2.39-28.77-.03-.2,.05-.4,.21-.53,10.79-8.06,19.51-12.23,26.66-12.76,.29-.03,.56,.2,.58,.5,.42,5.06,.9,10.15,1.36,15.08,.85,8.99,1.72,18.24,2.25,27.54,.27,4.68,.52,9.31,.77,13.93,.69,12.9,1.35,25.02,2.38,37.81,.15,1.89,.29,3.84,.42,5.82,.5,7.2,1.01,14.63,2.48,20.86,0,.02,.02,.05,.04,.08l.04,.05s.09,.05,.11,.05c.01,0,.03,.01,.05,.02,.03-.05,.06-.07,.11-.1,1.41-1.71,4.68-5.02,7.11-7.39,.2-.2,.53-.21,.74-.02,1.97,1.73,4.19,3.39,6.35,5,1.08,.81,2.16,1.62,3.2,2.43,.07,.05,.17,.05,.25-.03,.09-.1,.23-.17,.37-.18,.08,0,.15-.07,.16-.15,.57-4.25-.05-9.35-.66-14.29-.33-2.71-.64-5.21-.78-7.6-.22-3.85-.46-7.69-.71-11.51-.85-13.53-1.74-27.52-1.73-41.56,.01-15.75-.82-32.44-2.42-48.28-.04-.04-.1-.18-.12-.23-.01-.03-.03-.09-.04-.12-.04-.16,0-.34,.09-.47,.1-.13,.25-.22,.41-.23,13.75-.59,31.17,5.84,40.33,9.24,1.25,.46,2.49,.84,3.69,1.21,2.57,.78,4.92,1.5,7.16,2.88,.23,.07,.42,.29,.43,.52,.33,12.39,1.32,24.95,2.28,37.1l.04,.53c.77,9.87,1.57,20.07,2.01,30.09,.16,3.63,.44,7.27,.7,10.79,.25,3.29,.52,6.93,.68,10.44-1.07,11.45,.36,24.48,1.75,37.07,.58,5.31,1.03,9.67,1.35,13.71,.19,2.31,.79,8.45,1.02,10.55,.02,.15-.03,.31-.14,.42-.04,.04-.08,.08-.13,.11h.25c.09,0,.17-.08,.18-.18,0-.14,.07-.27,.18-.37,.05-.04,.08-.12,.06-.18-.12-.58-.81-7.55-1.06-10.61-.34-4.19-.82-8.57-1.33-13.21l-.03-.28c-1.32-12.03-2.69-24.47-1.88-35.44,0-.12,.06-.23,.14-.32,.03-.04,.05-.09,.05-.14l-.05-1.05,.05-.61c-.04-.07-.09-.27-.09-.36-.16-3.24-.41-6.47-.64-9.5l-.02-.26c-.26-3.46-.53-7.03-.69-10.6-.46-10.34-1.31-21.12-2.06-30.62-.83-10.51-1.68-21.37-2.11-32.15,0-.15,.05-.3,.16-.41,.11-.11,.25-.18,.41-.16,2.21,.08,5.24,.09,8.01,0,.11,0,.29,.05,.39,.15,.1,.1,.16,.24,.17,.38,.38,20.89,2.12,43.04,3.81,64.46l.05,.71c.2,2.53,.48,4.97,.75,7.34,.39,3.46,.8,7.04,.94,10.75,0,.07,.04,.11,.06,.13,.11,.09,.17,.22,.18,.36,1,9.83,1.51,20.09,2,30.01,.38,7.71,.77,15.64,1.38,23.19l.1,1.25c.35,4.26,.71,8.66,.64,13.32,0,.15-.07,.3-.18,.4-.11,.1-.25,.15-.42,.14-.54-.05-1.16-.05-1.75,0-.14,.01-.31-.04-.42-.15-.18-.17-.48-.27-.64-.33-.12,0-.2,.03-.23,.12,0,.28-.22,.57-.5,.59-.87,.07-2.11,.11-2.92,.14-.95,.03-1.86,.07-2.47,.12-1.57,.14-3.18,.18-4.74,.22-1.75,.05-3.47,.09-5.18,.26-16.41,1.59-32.93,2.6-48.91,3.57-7.13,.43-15.22,.93-23.14,1.47-.15,0-.31-.05-.42-.15l-.12-.05c-.09,0-.16,.06-.18,.15-.41,2.37-1.51,4.54-3.1,6.1-2.15,2.12-5.46,3.29-9.31,3.29Zm-14.62-8.04c1.83,3.29,6.58,6,11.82,6.75,4.69,.67,8.9-.36,11.35-2.77,1.43-1.4,2.42-3.36,2.79-5.51,.12-.68,.76-1.15,1.46-1.04,.16,.03,.32,.08,.46,.17,7.86-.54,15.87-1.03,22.94-1.46,15.97-.97,32.48-1.97,48.87-3.57,1.74-.17,3.57-.22,5.17-.26,1.63-.04,3.23-.08,4.76-.22,.63-.05,1.56-.09,2.53-.12,.71-.02,1.69-.06,2.48-.11,.27-.58,.96-.88,1.57-.68,.19,.07,.53,.19,.84,.41,.38-.03,.76-.03,1.13-.02,.03-4.4-.31-8.59-.64-12.64l-.1-1.25c-.61-7.56-1-15.5-1.38-23.19-.49-9.88-.99-20.06-1.98-29.81-.16-.21-.26-.47-.27-.73-.14-3.67-.55-7.23-.94-10.67-.27-2.38-.55-4.83-.75-7.38l-.05-.71c-1.67-21.25-3.4-43.21-3.8-63.97-2.4,.06-4.96,.06-6.94,0,.44,10.57,1.28,21.22,2.08,31.52,.75,9.51,1.61,20.3,2.07,30.66,.15,3.54,.42,7.11,.68,10.56l.02,.26c.23,3,.47,6.2,.63,9.42,.09,.2,.12,.42,.1,.63l-.05,.53,.05,.98c0,.27-.06,.52-.2,.74-.78,10.83,.58,23.16,1.88,35.08l.03,.28c.51,4.64,.99,9.03,1.33,13.24,.28,3.37,.94,10.02,1.04,10.46,.08,.37-.01,.76-.25,1.06-.13,.57-.64,.99-1.24,.99h-1.21c-.1,0-.19-.02-.27-.04-.37,.06-.77-.05-1.05-.31-4.1-.18-8.38,.25-12.1,.63-2.8,.28-5.67,.58-8.51,.67-7.89,.24-15.59,.84-23.04,1.41-5.61,.43-11.98,.92-18.37,1.24-4.21,.2-8.85,.67-12.94,1.09-6.03,.61-12.27,1.25-18.16,1.25-1.43,0-2.82-.04-4.13-.12l-.35,.07c-.17,.08-.36,.13-.54,.13-.01,0-.04,0-.07,0-3.86,.71-7.84,.8-11.23,.8-1.32,0-2.65-.02-3.96-.03-1.33-.02-2.66-.03-3.98-.03-10.34,0-20.75,.26-30.82,.51l-9.75,.26c-8.71,.2-18.11,.3-28.76,.3h-4.08l-4.22-.06c-.7,0-1.32-.62-1.32-1.33,0-.23,.08-.41,.13-.54l.02-1.64c0-.3,.15-.55,.3-.72-.16-3.85-.44-7.86-.83-11.95-.61-6.32-1.24-12.86-.97-19.34,0-.07,.01-.13,.03-.19-.29-3.81-.66-7.69-1.01-11.34l-.06-.61c-.31-3.28-.62-6.56-.89-9.87-.49-6.02-.95-12.05-1.41-18.07l-.12-1.59c-.8-10.49-1.59-20.73-2.46-30.72-.78-9.1-1.27-18.41-1.75-27.41-.15-2.92-.31-5.88-.48-8.84-1.91,.55-4.03,.86-5.41,.9,.78,8.01,1.06,16.39,1.31,23.81v.28c.23,6.48,.46,13.19,.98,19.63,.48,6.03,.8,12.28,1.08,17.8,.46,8.95,.94,18.17,2.01,27.12l.44,3.63c.7,5.81,1.36,11.3,1.81,17.14,.02,.33-.08,.65-.29,.9-.15,9.82,.94,20.03,1.99,29.9l.25,2.32c.14,1.41,.42,3.76,.64,5.58,.04,.38,.08,.71,.12,1.01,22.75-.26,46.29-1.06,67.08-1.77l4.65-.16c3.06-.1,7.11-.22,11.4-.22,3.53,0,6.72,.08,9.77,.24,.02,0,.1,.01,.13,.01,.06,0,.12,.02,.17,.04,.02,0,.08,.03,.1,.04h0s.04,.01,.08,.03c.02,0,.04,.02,.05,.03h.03s.1,.07,.17,.13c.01,0,.02,.02,.03,.03,.03,.03,.15,.15,.17,.18,.02,.02,.06,.07,.09,.13v.02h.02Zm4.76-98.55c.62,3.66,.65,7.69,.66,11.59v.26c.01,1.78,.02,3.46,.1,5.04,.24,5.22,.56,10.31,.91,15.95v.17c.51,7.98,1.02,16.23,1.23,24.53,.13,5.55,.75,11.06,1.34,16.38,.48,4.39,.98,8.89,1.21,13.37,9.82-10.5,25.54-13.23,34.21-13.92,5.35-.43,10.56-.64,15.48-.64,11.22,0,21.32,1.08,30.86,3.3l1.69,.41c5.2,1.18,11.68,2.64,15.74,7.09,.04,.01,.08,.03,.12,.05-.28-2.66-.74-7.48-.9-9.47-.32-4.03-.77-8.38-1.35-13.68-1.39-12.65-2.82-25.72-1.75-37.21-.16-3.42-.44-7.05-.68-10.25-.27-3.61-.55-7.26-.71-10.9-.44-9.99-1.24-20.19-2.01-30.05l-.04-.53c-.95-12.06-1.93-24.52-2.28-36.83-2.09-1.27-4.35-1.96-6.75-2.69-1.29-.39-2.55-.78-3.83-1.25-8.93-3.31-25.74-9.53-39.19-9.19,1.59,15.84,2.43,32.52,2.41,48.26,0,14,.87,27.97,1.72,41.49,.24,3.83,.48,7.66,.71,11.52,.14,2.36,.45,4.84,.77,7.47,.62,5.07,1.25,10.24,.66,14.63-.07,.52-.45,.94-.95,1.06-.46,.37-1.12,.37-1.57,.02-1.04-.8-2.11-1.61-3.19-2.42-2.03-1.52-4.13-3.09-6.03-4.73-2.36,2.31-5.34,5.35-6.69,6.95-.02,.03-.05,.06-.08,.09l-.04,.04s-.09,.09-.1,.1c-.02,.02-.05,.05-.09,.08-.14,.28-.39,.32-.5,.32-.09,0-.23-.04-.33-.09-.15-.04-.26-.12-.32-.17-.12-.06-.21-.11-.3-.18-.02-.02-.05-.04-.07-.06-.06-.05-.14-.14-.2-.24-.02-.03-.06-.1-.07-.13-.01,0-.06-.1-.09-.22,0-.02-.01-.04-.01-.06h0c-1.49-6.33-2.01-13.8-2.5-21.03-.14-2-.28-3.96-.42-5.84-1.04-12.81-1.69-24.94-2.38-37.78-.25-4.68-.5-9.31-.77-13.98-.53-9.28-1.4-18.51-2.24-27.45-.45-4.8-.92-9.71-1.32-14.6-6.78,.67-15.06,4.7-25.29,12.3,1.52,9.29,1.94,19.09,2.35,28.57,.31,7.2,.63,14.65,1.44,21.71,.14,1.23,.31,2.52,.47,3.83l.04,.32c.34,2.64,.75,5.92,.94,8.56,0,.05,0,.1,0,.14ZM34.28,205.61h-2.04c-.24,0-.45-.15-.52-.38-.07-.23,.01-.47,.2-.61,9.75-6.94,21.84-11.33,34.96-12.7,5.89-.61,11.19-.91,16.21-.91,11,0,20.36,1.49,28.59,4.55l.95,.33c4.35,1.61,10.32,3.81,13.74,6.99,.15,.14,.21,.36,.15,.56-.06,.2-.23,.35-.43,.38-3.63,.61-7.51,.69-10.49,.69-1.32,0-2.63-.02-3.94-.03-1.33-.02-2.67-.04-4-.04-10.92,0-21.84,.27-32.4,.53l-8.19,.3c-10,.23-21.04,.35-32.81,.35Zm-.29-1.09h.29c11.76,0,22.79-.12,32.78-.35l8.19-.3c10.58-.26,21.5-.53,32.43-.53,1.33,0,2.67,.02,4.01,.04,1.3,.02,2.61,.03,3.92,.03,2.61,0,5.93-.06,9.13-.5-3.36-2.64-8.58-4.57-12.49-6.01l-.94-.33c-8.12-3.02-17.35-4.48-28.22-4.48-4.98,0-10.24,.3-16.09,.91-12.3,1.28-23.68,5.25-33.01,11.51Zm-2.69-.23c-.1,0-.2-.03-.29-.08-.19-.12-.29-.34-.25-.55-.14-4.29-.55-8.64-.96-12.85l-.02-.2c-.47-4.93-1.01-10.52-1.01-15.9,0-.17,.08-.34,.22-.44,.05-.04,.08-.1,.08-.16-.31-4.64-.76-9.39-1.2-13.99l-.14-1.49c-.29-3.11-.59-6.22-.84-9.35-.53-6.55-1.03-13.1-1.53-19.66-.73-9.5-1.55-20.28-2.46-30.73-.78-9.03-1.27-18.35-1.75-27.37-.33-6.19-.62-11.76-.99-17.25-.01-.21,.1-.41,.28-.51,9.77-5.39,21.57-11.12,35.04-12.72,4.36-.52,8.74-.77,13.37-.77,8.03,0,17.04,.79,27.53,2.4,7.65,1.18,14.03,3.4,19.5,6.78,.13,.08,.23,.22,.25,.38,1.53,9.28,1.96,19.11,2.37,28.62v.17c.32,7.19,.64,14.63,1.45,21.64,.15,1.34,.33,2.75,.51,4.16,.21,1.63,.42,3.28,.59,4.86,.02,.22-.09,.44-.29,.54-.07,.03-.12,.12-.09,.21,1.33,4.21,1.36,9.43,1.38,14.48,0,1.91,.02,3.68,.1,5.38,.24,5.16,.55,10.29,.91,15.97l.03,.41c.49,7.89,1,16.04,1.2,24.23,.14,5.62,.75,11.15,1.35,16.5,.5,4.5,1.07,9.61,1.26,14.61,0,.21-.11,.42-.3,.51-.19,.1-.43,.07-.59-.07-3.54-2.96-8.99-4.97-13.37-6.59l-.84-.31c-8.34-3.1-17.79-4.61-28.87-4.61-4.93,0-10.34,.3-16.09,.9-13.35,1.39-25.53,5.79-35.23,12.73-.09,.07-.21,.1-.32,.1Zm-1.44-29.35c.02,5.26,.55,10.73,1.01,15.57l.02,.2c.38,3.93,.76,7.99,.93,12.01,9.71-6.71,21.76-10.97,34.91-12.34,5.78-.6,11.23-.91,16.2-.91,11.22,0,20.79,1.53,29.25,4.68l.84,.31c4.09,1.51,9.1,3.36,12.74,6.04-.23-4.59-.75-9.22-1.21-13.35-.59-5.38-1.21-10.93-1.35-16.6-.2-8.17-.7-16.31-1.19-24.19l-.03-.41c-.36-5.69-.67-10.82-.91-15.99-.08-1.72-.09-3.51-.1-5.4-.03-4.99-.05-10.13-1.33-14.19-.14-.45-.01-.93,.3-1.26-.17-1.48-.36-3.02-.56-4.54-.18-1.42-.36-2.84-.51-4.18-.81-7.05-1.14-14.5-1.45-21.71v-.17c-.41-9.39-.83-19.1-2.32-28.24-5.3-3.23-11.48-5.36-18.88-6.5-10.44-1.61-19.39-2.39-27.36-2.39-4.59,0-8.93,.25-13.25,.76-13.14,1.56-24.72,7.13-34.33,12.42,.36,5.38,.65,10.85,.97,16.91,.48,9.01,.97,18.32,1.74,27.33,.91,10.46,1.73,21.23,2.46,30.74,.5,6.55,1.01,13.11,1.53,19.65,.25,3.13,.55,6.23,.84,9.33l.14,1.49c.44,4.6,.89,9.36,1.2,14.02,.02,.33-.09,.65-.29,.9Zm102.06,28.69c-1.2,0-2.35-.03-3.43-.08-.2-.01-.39-.14-.47-.32-.08-.19-.05-.41,.08-.57,9.31-11.32,25.63-14.2,34.53-14.91,5.34-.42,10.53-.64,15.42-.64,11.11,0,21.08,1.06,30.48,3.25l1.7,.39c4.82,1.09,10.29,2.32,14,5.61,.17,.15,.23,.39,.15,.61-.08,.21-.29,.35-.52,.35-3.71-.07-7.44,.31-11.04,.67-2.62,.27-5.58,.57-8.41,.66-7.92,.25-15.64,.84-23.11,1.42-5.93,.46-12.06,.93-18.34,1.24-4.21,.2-8.68,.66-13.01,1.1-6.01,.61-12.23,1.24-18.02,1.24Zm-2.26-1.12c.73,.02,1.49,.04,2.26,.04,5.73,0,11.92-.63,17.91-1.23,4.34-.44,8.83-.9,13.07-1.1,6.26-.3,12.39-.78,18.31-1.23,7.48-.58,15.21-1.17,23.16-1.42,2.79-.09,5.73-.39,8.33-.65,3.12-.31,6.33-.64,9.58-.68-3.45-2.41-8.12-3.46-12.3-4.4l-1.7-.39c-9.32-2.17-19.2-3.22-30.23-3.22-4.87,0-10.03,.21-15.34,.64-8.5,.68-23.89,3.36-33.05,13.67Zm41.62-45.09c-.12,0-.24-.04-.33-.11-.7-.54-1.42-1.08-2.13-1.62l-.48-.36c-2.08-1.56-4.44-3.32-6.47-5.12-.09-.08-.15-.19-.17-.31l-.06-.11s-.08-.05-.13-.05h-.04c-.06,.01-.11,.01-.17,0-.05,0-.12,0-.16,.05-.01,.13-.11,.34-.21,.43-2.33,2.26-4.83,4.81-6.36,6.49-.14,.15-.35,.21-.55,.16-.2-.05-.35-.21-.39-.41-1.23-5.89-1.71-12.74-2.16-19.36-.14-2.05-.28-4-.43-5.89-1.04-12.86-1.72-25.51-2.37-37.74-.25-4.64-.5-9.29-.77-13.99-.54-9.34-1.41-18.57-2.25-27.5-.43-4.53-.88-9.41-1.3-14.36-.01-.13,.03-.26,.1-.37,.02-.02,.05-.05,.08-.08,.96-3.71,7.74-6.47,13.27-6.47s7.13,2.16,7.6,4.04h0c.03,.08,.05,.15,.06,.22,1.57,15.66,2.39,32.2,2.38,47.81,0,13.94,.87,27.94,1.72,41.48,.25,3.91,.49,7.74,.71,11.59,.14,2.43,.47,5.15,.77,7.55,.57,4.64,1.17,9.45,.75,13.54-.02,.2-.14,.37-.33,.45-.07,.03-.14,.04-.22,.04Zm-8.57-7.92c1.97,1.73,4.25,3.44,6.28,4.96l.48,.36c.45,.34,.9,.68,1.35,1.02,.23-3.76-.31-8.1-.83-12.32-.3-2.42-.64-5.16-.78-7.62-.23-3.85-.47-7.67-.71-11.5-.86-13.64-1.74-27.66-1.73-41.64,.01-15.52-.8-31.96-2.36-47.55-.02-.05-.03-.1-.04-.15-.6-2.7-3.9-3.28-6.55-3.28-5.09,0-11.54,2.51-12.25,5.75-.02,.09-.06,.18-.11,.25,.41,4.85,.85,9.63,1.28,14.09,.84,8.94,1.71,18.18,2.25,27.54,.27,4.7,.52,9.36,.77,14,.66,12.22,1.33,24.87,2.37,37.71,.15,1.89,.29,3.85,.43,5.84,.43,6.25,.88,12.65,1.94,18.23,1.51-1.61,3.58-3.72,5.55-5.63,.05-.19,.15-.37,.29-.51,.26-.28,.67-.44,1.05-.4,.39-.04,.78,.11,1.04,.39,.12,.12,.22,.28,.28,.46Z"/></g></g></svg>