<?xml version="1.0" encoding="UTF-8"?><svg id="_ëîé_1" xmlns="http://www.w3.org/2000/svg" viewBox="0 0 250 250"><defs><style>.cls-1{fill:#fff;}.cls-2{fill:#5986c6;}.cls-3{fill:#282828;}.cls-4{fill:#ef3535;}</style></defs><g id="scissors"><path class="cls-1" d="M228.73,51.61c-3.13-7.04-9.28-11.85-17.31-13.55-4.88-1.03-10.37-.97-16.76,.19-.06,.01-.12,.02-.17,.03,.46-5.82-.32-11.54-3.02-16.58-5.38-10.05-16.56-14.71-31.58-12.56-15.81,2.26-32.44,15.26-41.37,32.34-6.36,12.18-7.93,24.5-4.6,35.31-.91,1.82-1.92,3.73-2.92,5.61-2.77,5.23-5.84,11.04-8.15,17.16-.98,1.11-1.78,2.4-2.35,3.84-4.83,12.21-15.23,24.13-25.3,35.65-3.04,3.48-6.49,7.43-9.66,11.3-15.23,18.57-27.36,34.94-37.09,50.03-.33,.51-.7,1.05-1.1,1.65l-.25,.37c-4.06,6-10.19,15.07-7.35,25.12,.99,3.51,2.97,6.59,5.78,9.03,1.87,2.31,4.48,3.91,7.41,4.53,2.13,.45,4.3,.36,6.34-.24,.31-.07,.61-.15,.91-.24,11.44-.28,23.37-11.52,41.34-32.27,1.02-1.18,1.9-2.19,2.57-2.94,9.51-10.66,19.19-21.98,27.77-32.03l.61-.72,.08-.09c4.52-5.29,9.2-10.76,13.84-16.13,5.56-6.43,12.25-14.36,19.88-23.56,.25-.31,.49-.62,.72-.95,1.55-.95,3.18-1.96,4.92-3.04,4.06-2.51,8.21-5.08,12.21-7.44,1.98,.84,4,1.47,6.06,1.91,11.1,2.35,22.79-1.16,34.75-10.42,13.41-10.38,32.62-41.55,23.8-61.33Z"/><g><path class="cls-4" d="M215.93,57.31c5.02,11.26-8.55,36.01-19.57,44.55-12.13,9.39-22.08,10.7-31.32,4.11-.22-.16-.48-.21-.73-.18-.3-.18-.68-.21-1.01-.02-6,3.31-12.53,7.35-18.84,11.25-3.47,2.14-6.85,4.24-10.03,6.14-.04-.02-.08-.04-.11-.05-7.07-2.39-15.86-7.9-19.58-14.78,0-.02-.02-.03-.03-.05,1.93-6.53,5.36-13.03,8.69-19.31,2.15-4.06,4.18-7.9,5.64-11.47,.17-.4,.06-.84-.24-1.12-.01-.04-.03-.08-.05-.12-3.98-7.91-3.2-17.95,2.19-28.28,6.83-13.07,19.55-23.33,30.93-24.95,8.87-1.27,14.67,.52,17.23,5.3,5.13,9.59-3.81,29.38-12.23,38.8-7.53,8.42-17.83,17.38-30.82,12.08-.12-.24-.32-.44-.59-.53-.54-.21-1.1,.1-1.28,.62-1.17,3.41-2.5,6.82-3.8,10.11-1.85,4.72-3.77,9.6-5.19,14.5-.09,.32-.02,.64,.17,.88-.03,.22,0,.46,.14,.66,1.14,1.83,4.24,4.51,7.03,6.11,0,.14,.02,.29,.08,.43,.13,.31,.41,.52,.72,.59,.19,.04,.4,.02,.6-.06,2.3-.99,4.74-1.99,7.23-3.01,6.01-2.46,12.22-5.01,17.55-7.76,.17,.1,.39,.14,.6,.1,.55-.07,.94-.59,.86-1.14-2.62-18.74,17.44-45.12,36.99-48.68,10.08-1.83,16.39-.06,18.76,5.27Zm-22.02,33.55c6-6.51,13.85-22.84,9.26-28.97-2.45-3.26-7.57-2.99-15.22,.81-7.5,3.72-19.41,17.36-19.9,27.86-.21,4.38,1.61,7.89,5.26,10.14,.15,.09,.32,.14,.49,.15,.03,.01,.06,.02,.09,.03,.47,.14,.92,.25,1.37,.34,7.98,1.69,12.24-3.13,16.74-8.21,.63-.71,1.27-1.43,1.93-2.15Zm-35.98-23.47c7.39-5.89,16.4-22.52,12.73-30.36-1.23-2.64-4.41-5.43-12.56-3.76-8.6,1.77-19.83,12.86-23.1,22.83-1.73,5.27-1.27,9.88,1.31,13.43,.02,.2,.1,.41,.25,.57,2.03,2.24,4.08,3.42,6.13,3.85,5.55,1.17,10.98-3.16,15.25-6.56Z"/><path class="cls-3" d="M134.36,123.44s-.05-.01-.07-.02h-.02s-.04-.03-.07-.04c-7.11-2.41-15.97-7.95-19.74-14.91-.02-.02-.04-.07-.05-.09-.02-.06-.02-.12,0-.18,1.95-6.6,5.39-13.09,8.71-19.37,2.14-4.05,4.16-7.87,5.63-11.45,.11-.27,.05-.59-.17-.79-.04-.03-.06-.07-.08-.12-.01-.03-.02-.06-.04-.09-4.01-7.98-3.23-18.12,2.2-28.53,6.87-13.15,19.68-23.47,31.15-25.11,8.97-1.29,14.92,.57,17.53,5.45,5.19,9.7-3.8,29.66-12.27,39.13-6.69,7.48-15.85,15.76-27.34,13.33h0c-1.26-.27-2.54-.66-3.81-1.18-.07-.03-.12-.08-.15-.15-.06-.13-.18-.3-.42-.38-.05-.02-.08-.03-.12-.04-.33-.07-.68,.14-.79,.48-1.17,3.41-2.5,6.81-3.79,10.1-1.86,4.74-3.77,9.61-5.19,14.5-.06,.21-.02,.44,.12,.63,.05,.06,.06,.13,.06,.21-.02,.12-.01,.3,.09,.46,1.11,1.78,4.15,4.42,6.93,6.01,.09,.05,.15,.16,.15,.26,0,.11,.02,.21,.06,.3,.15,.35,.58,.53,.94,.38,2.31-.99,4.81-2.02,7.23-3.01,5.69-2.33,12.13-4.97,17.53-7.75,.08-.05,.19-.04,.27,0,.12,.07,.27,.09,.42,.07,.19-.03,.36-.12,.47-.28,.12-.15,.17-.34,.14-.53-2.63-18.86,17.55-45.43,37.23-49.01,10.19-1.85,16.66,0,19.08,5.44,5.07,11.37-8.57,36.3-19.66,44.9-8.76,6.78-16.43,9.36-23.44,7.88-2.79-.59-5.56-1.85-8.22-3.76-.15-.11-.33-.15-.51-.12-.07,.01-.14,0-.19-.04-.22-.13-.49-.14-.71-.02-5.99,3.3-12.52,7.34-18.82,11.24l-.46,.28c-3.37,2.08-6.55,4.05-9.59,5.86-.06,.04-.14,.05-.21,.03Zm-19.35-15.19c3.72,6.79,12.41,12.21,19.39,14.58,3-1.79,6.13-3.73,9.45-5.78l.45-.28c6.32-3.91,12.85-7.95,18.86-11.26,.37-.21,.83-.21,1.21-.02,.29-.02,.59,.06,.83,.24,2.6,1.85,5.29,3.08,8.01,3.66,6.83,1.45,14.34-1.09,22.96-7.77,10.96-8.49,24.46-33.04,19.49-44.2-2.3-5.17-8.58-6.89-18.45-5.1-19.43,3.53-39.35,29.74-36.75,48.35,.05,.35-.04,.69-.25,.97-.21,.28-.51,.45-.86,.5-.21,.03-.43,.01-.64-.07-5.39,2.77-11.79,5.39-17.45,7.7-2.41,.99-4.91,2.01-7.22,3-.65,.27-1.44-.05-1.71-.68-.05-.12-.08-.24-.1-.37-2.82-1.64-5.87-4.31-6.99-6.13-.14-.21-.2-.46-.19-.73-.2-.31-.25-.69-.15-1.04,1.43-4.91,3.35-9.8,5.2-14.53,1.3-3.31,2.63-6.71,3.79-10.1,.24-.69,.97-1.07,1.66-.8,.29,.1,.53,.3,.69,.57,1.2,.48,2.42,.86,3.61,1.11h0c11.21,2.37,20.2-5.78,26.79-13.15,8.36-9.35,17.27-28.99,12.19-38.47-2.49-4.65-8.24-6.39-16.93-5.15-11.29,1.61-23.92,11.81-30.71,24.8-5.35,10.24-6.13,20.19-2.19,28.01,.01,.03,.03,.06,.04,.08,.35,.37,.46,.92,.26,1.39-1.48,3.6-3.51,7.44-5.66,11.5-3.29,6.22-6.7,12.65-8.64,19.15Zm60.16-6.75c-.49-.1-.94-.22-1.39-.35l-.06-.02c-.21-.02-.41-.08-.58-.19-3.74-2.31-5.61-5.91-5.39-10.4,.49-10.61,12.51-24.37,20.06-28.11,7.78-3.86,13.06-4.09,15.59-.72,4.68,6.24-3.22,22.77-9.27,29.34-.66,.71-1.3,1.43-1.92,2.14-4.57,5.16-8.88,10.03-17.02,8.31Zm-1.34-.95s.02,0,.03,0l.09,.03c.42,.12,.86,.24,1.34,.34,7.81,1.65,12.01-3.1,16.46-8.12,.63-.71,1.27-1.44,1.93-2.15,5.94-6.45,13.75-22.58,9.24-28.59-2.35-3.14-7.4-2.81-14.86,.89-7.43,3.68-19.26,17.2-19.74,27.61-.2,4.27,1.57,7.68,5.12,9.87,.1,.06,.22,.1,.35,.11,.01,0,.03,0,.04,0Zm-31.23-26.32c-2.23-.47-4.34-1.8-6.28-3.94-.17-.19-.27-.42-.31-.66-2.6-3.62-3.05-8.33-1.31-13.63,3.3-10.05,14.64-21.24,23.32-23.03,2.86-.58,5.33-.67,7.34-.24,2.61,.55,4.53,1.99,5.54,4.17,3.72,7.96-5.35,24.77-12.81,30.71-4.37,3.49-9.81,7.83-15.5,6.62Zm22.65-40.93c-1.94-.41-4.33-.33-7.1,.24-8.52,1.75-19.64,12.75-22.89,22.64-1.69,5.14-1.25,9.7,1.27,13.17,.03,.04,.05,.09,.06,.14,.02,.15,.08,.29,.18,.41,1.85,2.04,3.86,3.31,5.96,3.75,5.42,1.15,10.74-3.1,15.01-6.51,7.32-5.83,16.26-22.28,12.65-30.01-.95-2.03-2.67-3.32-5.13-3.84Z"/></g><g><path class="cls-2" d="M115.96,127.92c.48,.53,1,1.3,.73,2.02-.26,.69-1.2,1.25-2.35,1.39-.97,.12-2.18-.05-3.26-.73-1.04-2.22-.69-4.2,.25-4.83,1.03-.69,2.81,.13,4.64,2.14Z"/><path class="cls-3" d="M112.64,131.55c-.61-.13-1.19-.36-1.71-.69-.05-.03-.09-.07-.11-.13-1.15-2.46-.68-4.51,.35-5.2,1.15-.77,3.09,.08,5.02,2.19,.77,.84,1.04,1.64,.79,2.32-.3,.8-1.32,1.42-2.59,1.58-.56,.07-1.16,.04-1.74-.08Zm-1.33-1.14c.89,.53,2,.76,3,.64,1.03-.12,1.9-.62,2.12-1.2s-.25-1.26-.67-1.72c-1.68-1.85-3.38-2.68-4.26-2.1-.81,.54-1.1,2.36-.18,4.38Z"/></g><g><path class="cls-1" d="M134.44,125.19h.01c-7.2,8.66-13.47,16.09-18.64,22.07-4.89,5.66-9.74,11.33-14.58,16.99-8.97,10.5-18.25,21.36-27.58,31.81-.72,.8-1.63,1.86-2.72,3.11-6.84,7.9-24.37,28.13-31.56,27.41,3.16-2.87,5.84-6.1,8.45-9.25,2.02-2.44,4.11-4.97,6.43-7.33l7.17-7.3c11.21-11.39,22.81-23.18,33.78-35.24,6.78-7.46,12.79-15.66,18.59-23.58,5.02-6.85,10.2-13.92,15.85-20.48,1.38,.64,2.73,1.18,4.03,1.62,.04,.01,.07,.03,.12,.04,.11,.02,.23,.03,.34,0,.1,.06,.2,.11,.31,.13Z"/><path class="cls-3" d="M39.31,226.86c-.1-.02-.18-.1-.22-.2-.04-.11,0-.23,.08-.31,3.16-2.87,5.83-6.1,8.42-9.22l.09-.11c2-2.41,4.07-4.91,6.35-7.24l7.17-7.3c11.2-11.38,22.77-23.14,33.77-35.23,6.79-7.47,12.78-15.65,18.57-23.56,5-6.83,10.18-13.9,15.87-20.5,.08-.1,.23-.13,.34-.08,1.36,.63,2.7,1.17,4,1.61,.12,.04,.21,.05,.32,.03,.07-.01,.14,0,.2,.04,.07,.04,.13,.07,.19,.09,.13,0,.22,.09,.26,.2,.03,.1,.01,.2-.05,.28-7.26,8.74-13.54,16.17-18.64,22.07-4.82,5.57-9.65,11.22-14.58,16.99-8.95,10.48-18.21,21.31-27.58,31.81-.57,.64-1.26,1.44-2.07,2.36l-.65,.75c-7.32,8.45-24.46,28.25-31.81,27.51-.01,0-.02,0-.03,0Zm90.4-103.11c-5.62,6.53-10.74,13.53-15.69,20.29-5.8,7.92-11.8,16.11-18.61,23.61-11,12.1-22.58,23.87-33.78,35.25l-7.17,7.3c-2.27,2.31-4.33,4.8-6.32,7.2l-.09,.11c-2.45,2.96-4.98,6.01-7.93,8.78,7.45-.59,24.17-19.89,30.59-27.31l.65-.75c.81-.93,1.5-1.74,2.07-2.37,9.37-10.5,18.62-21.33,27.58-31.8,4.94-5.78,9.77-11.43,14.59-17,5.03-5.82,11.2-13.12,18.33-21.7-.13,0-.25-.03-.36-.07-1.25-.42-2.54-.94-3.85-1.53Z"/></g><g><path class="cls-1" d="M127.76,122.49c-5.57,6.5-10.67,13.46-15.6,20.19-5.77,7.89-11.74,16.04-18.46,23.42-10.94,12.04-22.52,23.81-33.72,35.18l-7.17,7.3c-2.37,2.42-4.49,4.98-6.54,7.46-3.25,3.93-6.34,7.66-10.3,10.79-1.47-.83-2.36-1.85-2.72-3.13-1.07-3.78,2.56-9.15,5.49-13.48,.53-.79,1.04-1.54,1.5-2.24,9.43-14.63,21.26-30.58,36.15-48.75,2.95-3.6,6.07-7.17,9.38-10.96,10.57-12.11,21.5-24.62,27.33-38.63,.03,.01,.06,.02,.09,.04,3.04,5.32,8.82,9.82,14.58,12.8Zm-9.18,8.16c.28-.75,.5-2.28-1.13-4.08-3.83-4.21-6.52-2.95-7.25-2.46-1.35,.9-1.95,2.66-1.73,4.64-.11,.03-.21,.08-.31,.14-.46,.31-.57,.94-.26,1.4,1.19,1.73,2.82,2.62,4.38,2.95,.81,.17,1.6,.19,2.3,.11,1.94-.24,3.48-1.27,4-2.7Z"/><path class="cls-3" d="M35.91,227.12s-.06-.02-.08-.03c-1.54-.87-2.48-1.95-2.85-3.3-1.11-3.91,2.57-9.35,5.52-13.71,.54-.8,1.04-1.54,1.5-2.24,9.44-14.64,21.27-30.59,36.17-48.77,2.96-3.6,6.08-7.18,9.39-10.97,10.55-12.09,21.47-24.59,27.28-38.56,.03-.07,.09-.13,.16-.16s.15-.03,.23,0c.05,.02,.07,.03,.1,.04,.05,.03,.09,.07,.12,.12,2.69,4.7,7.96,9.32,14.46,12.69,.08,.04,.14,.12,.15,.2,.02,.09,0,.18-.07,.25-5.61,6.55-10.68,13.47-15.59,20.17-5.77,7.88-11.74,16.03-18.48,23.45-11.1,12.21-23.12,24.42-33.73,35.19l-7.17,7.3c-2.33,2.37-4.41,4.89-6.43,7.33l-.09,.11c-3.27,3.95-6.35,7.68-10.34,10.84-.07,.06-.16,.07-.24,.06ZM113.17,110.24c-5.9,13.86-16.72,26.25-27.18,38.24-3.31,3.79-6.43,7.36-9.38,10.95-14.89,18.16-26.7,34.1-36.13,48.72-.45,.7-.96,1.45-1.49,2.24-2.89,4.28-6.48,9.59-5.45,13.24,.32,1.15,1.11,2.08,2.41,2.85,3.87-3.1,6.89-6.75,10.1-10.63l.09-.11c2.03-2.45,4.12-4.97,6.47-7.36l7.17-7.3c10.61-10.77,22.63-22.98,33.72-35.18,6.72-7.39,12.68-15.53,18.44-23.4,4.84-6.61,9.85-13.45,15.38-19.93-6.27-3.3-11.38-7.77-14.14-12.34Zm-.95,23.29c-1.31-.28-3.16-1.03-4.56-3.07-.2-.29-.27-.63-.21-.98,.07-.34,.26-.64,.54-.83,.05-.04,.1-.07,.16-.09-.16-2.05,.53-3.79,1.89-4.69,.39-.27,1.48-.85,3.08-.51,1.48,.31,3.01,1.33,4.55,3.02,1.73,1.91,1.49,3.56,1.19,4.38-.56,1.53-2.19,2.63-4.24,2.88-.78,.1-1.61,.06-2.4-.11Zm.78-9.6c-1.38-.29-2.3,.2-2.63,.43-1.22,.81-1.82,2.44-1.61,4.37,.02,.14-.08,.28-.22,.31-.07,.02-.15,.05-.22,.1-.16,.11-.26,.27-.3,.46-.04,.19,0,.38,.11,.54,1.29,1.88,2.99,2.57,4.2,2.83,.72,.15,1.49,.19,2.2,.1,1.83-.23,3.27-1.19,3.76-2.51,.25-.69,.45-2.1-1.07-3.78-1.45-1.6-2.88-2.55-4.24-2.84Z"/></g><g><path class="cls-3" d="M217.77,56.49c5.54,12.41-8.67,38.04-20.18,46.96-9.11,7.05-17.34,9.77-24.92,8.16-2.99-.63-5.88-1.94-8.68-3.92-5.88,3.26-12.28,7.21-18.47,11.04-2.89,1.79-5.73,3.55-8.44,5.18,.3,.37,.31,.9,0,1.27-7.65,9.23-14.29,17.1-19.73,23.39-4.89,5.65-9.73,11.32-14.57,16.98-8.98,10.51-18.27,21.37-27.6,31.84-.71,.8-1.63,1.85-2.7,3.1-13.45,15.53-26.77,29.49-33.94,27.98-.34-.07-.66-.18-.97-.33-.06,.05-.12,.1-.19,.15-.01,.09-.03,.19-.07,.29-.18,.41-.61,.63-1.04,.58h0c-.24,.18-.54,.23-.81,.18-.23-.05-.45-.18-.6-.39-.13-.17-.19-.37-.2-.57-1.73-1.07-2.85-2.45-3.32-4.13-1.32-4.69,2.61-10.49,5.76-15.16,.52-.77,1.02-1.51,1.47-2.2,9.48-14.7,21.34-30.7,36.29-48.93,2.97-3.62,6.1-7.21,9.42-11.01,10.73-12.29,21.83-25,27.42-39.13,.2-.5,.74-.74,1.24-.58,2.01-6.56,5.41-12.99,8.71-19.22,2.03-3.84,3.95-7.46,5.36-10.82,0-.01-.02-.02-.02-.04-4.28-8.51-3.5-19.2,2.21-30.12,7.11-13.61,20.45-24.31,32.43-26.02,9.8-1.4,16.3,.74,19.3,6.35,5.51,10.3-3.14,30.21-11.97,40.48-.18,.21-.36,.41-.53,.61-7.17,8.02-16.74,16.47-28.89,13.9-1.25-.26-2.53-.65-3.85-1.17-1.07,3.02-2.24,6.02-3.38,8.93-1.82,4.63-3.7,9.42-5.09,14.2,.01,.02,.02,.03,.04,.05,.88,1.42,3.82,4.07,6.61,5.6,.12,.07,.23,.16,.31,.26,2.01-.85,4.12-1.71,6.26-2.59,6.07-2.48,12.34-5.06,17.65-7.81-.96-10.18,3.87-22.01,11.55-31.62,7.32-9.17,17.24-16.34,27.22-18.15,11.11-2.02,18.17,.14,20.97,6.43Zm-21.42,45.37c11.03-8.54,24.6-33.28,19.57-44.55-2.37-5.32-8.68-7.1-18.76-5.27-19.56,3.56-39.61,29.94-36.99,48.68,.08,.55-.31,1.06-.86,1.14-.22,.03-.43,0-.6-.1-5.33,2.75-11.54,5.3-17.55,7.76-2.49,1.02-4.93,2.02-7.23,3.01-.2,.08-.41,.1-.6,.06-.31-.07-.59-.28-.72-.59-.06-.14-.09-.29-.08-.43-2.79-1.6-5.89-4.28-7.03-6.11-.13-.2-.17-.44-.14-.66-.18-.25-.26-.57-.17-.88,1.43-4.9,3.34-9.78,5.19-14.5,1.29-3.29,2.63-6.7,3.8-10.11,.18-.52,.74-.83,1.28-.62,.27,.09,.47,.29,.59,.53,12.99,5.3,23.29-3.65,30.82-12.08,8.42-9.42,17.36-29.21,12.23-38.8-2.56-4.78-8.36-6.57-17.23-5.3-11.38,1.62-24.1,11.88-30.93,24.95-5.39,10.33-6.17,20.36-2.19,28.28,.02,.04,.03,.08,.05,.12,.3,.28,.41,.72,.24,1.12-1.46,3.57-3.49,7.41-5.64,11.47-3.33,6.29-6.76,12.79-8.69,19.31,0,.02,.02,.03,.03,.05,3.72,6.88,12.51,12.38,19.58,14.78,.04,.01,.07,.03,.11,.05,3.18-1.9,6.56-3.99,10.03-6.14,6.31-3.9,12.84-7.94,18.84-11.25,.33-.18,.71-.16,1.01,.02,.25-.04,.51,.02,.73,.18,9.23,6.59,19.18,5.28,31.32-4.11Zm-61.9,23.33h-.01c-.11-.02-.21-.07-.31-.13-.11,.02-.23,.02-.34,0-.04,0-.08-.02-.12-.04-1.3-.44-2.65-.98-4.03-1.62-5.65,6.56-10.84,13.63-15.85,20.48-5.81,7.93-11.81,16.12-18.59,23.58-10.97,12.06-22.57,23.85-33.78,35.24l-7.17,7.3c-2.31,2.36-4.4,4.89-6.43,7.33-2.61,3.15-5.29,6.38-8.45,9.25,7.19,.73,24.71-19.5,31.56-27.41,1.08-1.25,2-2.31,2.72-3.11,9.33-10.45,18.61-21.31,27.58-31.81,4.84-5.67,9.69-11.34,14.58-16.99,5.17-5.98,11.44-13.4,18.64-22.07Zm-22.29,17.49c4.93-6.74,10.04-13.69,15.6-20.19-5.76-2.98-11.54-7.48-14.58-12.8-.03-.01-.06-.02-.09-.04-5.83,14.01-16.76,26.52-27.33,38.63-3.31,3.79-6.43,7.36-9.38,10.96-14.89,18.17-26.72,34.11-36.15,48.75-.45,.7-.96,1.45-1.5,2.24-2.92,4.32-6.56,9.7-5.49,13.48,.36,1.28,1.25,2.3,2.72,3.13,3.96-3.13,7.05-6.86,10.3-10.79,2.05-2.47,4.17-5.04,6.54-7.46l7.17-7.3c11.2-11.38,22.78-23.15,33.72-35.18,6.71-7.38,12.69-15.54,18.46-23.42Z"/><path class="cls-3" d="M35.37,229.63c-.32-.07-.59-.24-.78-.5-.12-.17-.21-.36-.24-.57-1.73-1.1-2.85-2.52-3.33-4.22-1.36-4.81,2.6-10.67,5.78-15.37l.27-.4c.43-.64,.84-1.25,1.21-1.83,9.49-14.72,21.37-30.73,36.31-48.96,3.03-3.69,6.28-7.41,9.43-11.01,10.72-12.27,21.8-24.96,27.37-39.05,.21-.54,.75-.86,1.31-.81,2.03-6.5,5.39-12.87,8.65-19.02,1.9-3.6,3.87-7.31,5.3-10.67-4.28-8.62-3.47-19.36,2.25-30.3,7.15-13.69,20.58-24.45,32.65-26.18,9.89-1.42,16.55,.8,19.6,6.5,5.7,10.65-3.48,30.89-12.01,40.81-.11,.13-.22,.26-.34,.39l-.2,.23c-7.06,7.9-16.76,16.62-29.17,14-1.18-.25-2.38-.61-3.61-1.07-1.03,2.91-2.14,5.76-3.29,8.66-1.79,4.56-3.64,9.28-5.04,14.03,.9,1.4,3.74,3.95,6.47,5.44,.09,.05,.17,.1,.24,.17,1.84-.78,3.76-1.57,5.71-2.37l.36-.15c5.99-2.45,12.19-4.99,17.45-7.71-.83-9.65,3.5-21.46,11.63-31.64,7.87-9.87,17.86-16.52,27.39-18.26,11.21-2.04,18.45,.21,21.29,6.6,5.58,12.52-8.68,38.34-20.27,47.31-9.24,7.15-17.47,9.84-25.16,8.22-2.95-.62-5.86-1.92-8.64-3.86-5.86,3.25-12.18,7.16-18.3,10.94-2.95,1.83-5.61,3.48-8.2,5.03,.2,.45,.14,.98-.19,1.36-7.59,9.16-14.23,17.03-19.73,23.39-4.68,5.41-9.4,10.93-13.96,16.26l-.61,.72c-8.51,9.96-18.16,21.25-27.61,31.84-.71,.8-1.63,1.85-2.7,3.09-13.42,15.5-26.86,29.63-34.22,28.07-.28-.06-.56-.15-.84-.26-.02,.07-.04,.14-.07,.21-.22,.48-.7,.78-1.23,.76-.28,.17-.62,.23-.95,.16ZM112.75,107.5c-.34-.07-.69,.11-.81,.43-5.61,14.18-16.72,26.91-27.47,39.22-3.14,3.6-6.39,7.32-9.41,11-14.93,18.21-26.79,34.2-36.27,48.9-.37,.58-.79,1.2-1.22,1.84l-.25,.37c-3.13,4.63-7.01,10.37-5.72,14.91,.45,1.6,1.53,2.93,3.19,3.96,.08,.05,.14,.14,.14,.24,0,.15,.05,.28,.14,.4,.22,.31,.7,.38,1,.15h0c.07-.05,.15-.07,.24-.05,.29,.03,.59-.13,.71-.41,.03-.06,.04-.12,.05-.19,0-.08,.05-.16,.12-.21,.06-.05,.12-.09,.18-.14,.09-.07,.21-.09,.31-.04,.31,.14,.61,.24,.91,.31,7.06,1.49,20.35-12.52,33.66-27.88,1.07-1.24,1.99-2.3,2.71-3.1,9.45-10.59,19.09-21.87,27.6-31.83l.61-.72c4.56-5.34,9.28-10.85,13.96-16.27,5.5-6.35,12.13-14.22,19.73-23.38,.22-.26,.22-.64,0-.9-.05-.07-.08-.15-.06-.24,.02-.08,.07-.16,.14-.2,2.66-1.6,5.4-3.29,8.44-5.18,6.18-3.82,12.56-7.77,18.48-11.05,.1-.06,.22-.05,.31,.02,2.76,1.95,5.65,3.25,8.58,3.87,7.5,1.59,15.58-1.07,24.68-8.11,11.45-8.87,25.58-34.32,20.09-46.61-2.73-6.13-9.75-8.24-20.65-6.26-9.4,1.71-19.25,8.28-27.04,18.04-8.09,10.13-12.38,21.87-11.48,31.41,.01,.12-.05,.23-.16,.29-5.32,2.77-11.6,5.34-17.67,7.82l-.36,.15c-2.01,.83-3.99,1.64-5.89,2.45-.12,.05-.26,.02-.34-.09-.06-.08-.14-.14-.22-.18-2.85-1.56-5.83-4.25-6.73-5.7-.06-.07-.09-.19-.07-.28,1.41-4.83,3.29-9.6,5.1-14.22,1.18-2.99,2.32-5.93,3.38-8.92,.03-.07,.08-.14,.15-.17,.07-.03,.15-.03,.23,0,1.3,.51,2.56,.89,3.75,1.14,12.17,2.58,21.71-6.02,28.66-13.8l.2-.22c.11-.13,.22-.26,.33-.39,8.42-9.8,17.51-29.73,11.94-40.16-2.93-5.47-9.39-7.57-19-6.2-11.89,1.7-25.14,12.34-32.21,25.87-5.66,10.83-6.44,21.43-2.2,29.85,.05,.08,.07,.2,.03,.28-1.44,3.42-3.44,7.19-5.37,10.84-3.29,6.21-6.68,12.64-8.68,19.17-.02,.08-.07,.14-.14,.17-.07,.04-.14,.05-.22,.02l-.07-.02ZM35.91,227.12s-.06-.02-.08-.03c-1.54-.87-2.48-1.95-2.85-3.3-1.11-3.91,2.57-9.35,5.52-13.71,.54-.8,1.04-1.54,1.5-2.24,9.44-14.64,21.27-30.59,36.17-48.77,2.96-3.6,6.08-7.18,9.39-10.97,10.55-12.09,21.47-24.59,27.28-38.56,.03-.07,.09-.13,.16-.16s.15-.03,.23,0l-.12,.27,.14-.26s.07,.03,.08,.03c.05,.03,.09,.07,.12,.12,2.69,4.7,7.96,9.32,14.46,12.69,.08,.04,.14,.12,.15,.2,.02,.09,0,.18-.07,.25-5.61,6.55-10.68,13.47-15.59,20.17-5.77,7.88-11.74,16.04-18.48,23.45-11.1,12.21-23.12,24.42-33.73,35.19l-7.17,7.3c-2.33,2.37-4.41,4.89-6.43,7.33l-.09,.11c-3.27,3.95-6.35,7.68-10.34,10.84-.07,.06-.16,.07-.24,.06ZM113.17,110.24c-5.9,13.86-16.71,26.25-27.18,38.24-3.31,3.79-6.43,7.36-9.38,10.95-14.89,18.16-26.7,34.1-36.13,48.72-.45,.7-.96,1.45-1.49,2.24-2.89,4.28-6.49,9.59-5.45,13.24,.32,1.15,1.11,2.08,2.41,2.85,3.87-3.1,6.89-6.75,10.1-10.63l.09-.11c2.03-2.44,4.12-4.97,6.47-7.36l7.17-7.3c10.61-10.77,22.63-22.98,33.72-35.18,6.72-7.39,12.68-15.53,18.44-23.4,4.84-6.61,9.85-13.45,15.38-19.93-6.27-3.3-11.38-7.77-14.14-12.34ZM39.31,226.86c-.1-.02-.18-.1-.22-.2-.04-.11,0-.23,.08-.31,3.16-2.87,5.83-6.1,8.42-9.22l.09-.11c2-2.41,4.07-4.91,6.35-7.24l7.17-7.3c11.2-11.38,22.77-23.14,33.77-35.23,6.79-7.47,12.78-15.65,18.57-23.56,5-6.83,10.18-13.9,15.87-20.5,.08-.1,.23-.13,.34-.08,1.36,.63,2.7,1.17,4,1.61,.12,.04,.21,.05,.32,.03,.07-.01,.14,0,.2,.04,.07,.04,.13,.07,.19,.09,.13,0,.22,.09,.26,.2,.03,.1,.01,.2-.05,.28-7.27,8.74-13.54,16.17-18.64,22.07-4.81,5.56-9.64,11.21-14.58,16.99-8.95,10.48-18.21,21.31-27.58,31.81-.57,.63-1.26,1.44-2.07,2.36l-.65,.75c-7.32,8.45-24.46,28.25-31.81,27.51-.01,0-.02,0-.03,0Zm90.4-103.11c-5.62,6.53-10.74,13.53-15.69,20.29-5.8,7.92-11.8,16.11-18.61,23.61-11,12.1-22.58,23.87-33.78,35.25l-7.17,7.3c-2.27,2.31-4.33,4.8-6.32,7.2l-.09,.11c-2.45,2.96-4.98,6.01-7.93,8.78,7.45-.59,24.17-19.89,30.59-27.31l.65-.75c.81-.93,1.5-1.73,2.07-2.37,9.37-10.5,18.62-21.33,27.58-31.8,4.94-5.78,9.77-11.43,14.59-17,5.03-5.82,11.2-13.12,18.33-21.7-.13,0-.25-.03-.36-.07-1.25-.42-2.54-.94-3.85-1.53Zm4.65-.31s-.05-.01-.07-.02c-.04-.02-.06-.03-.08-.04-7.11-2.41-15.97-7.95-19.74-14.91-.02-.02-.04-.07-.05-.09-.02-.06-.02-.12,0-.18,1.95-6.6,5.39-13.09,8.71-19.37,2.14-4.05,4.16-7.87,5.63-11.45,.11-.27,.05-.59-.17-.79-.04-.03-.06-.07-.08-.12-.01-.03-.02-.06-.04-.09-4.01-7.98-3.23-18.12,2.2-28.53,6.87-13.15,19.68-23.47,31.15-25.11,8.97-1.29,14.92,.57,17.53,5.45,5.19,9.7-3.8,29.66-12.27,39.13-6.69,7.49-15.85,15.76-27.34,13.33-1.26-.27-2.54-.66-3.81-1.18-.07-.03-.12-.08-.15-.15-.06-.13-.18-.3-.42-.38-.05-.02-.08-.03-.12-.04-.33-.07-.68,.14-.79,.48-1.17,3.41-2.5,6.81-3.79,10.1-1.86,4.74-3.77,9.61-5.19,14.5-.06,.21-.02,.44,.12,.63,.05,.06,.06,.13,.06,.21-.02,.12-.01,.3,.09,.46,1.11,1.78,4.15,4.42,6.93,6.01,.09,.05,.15,.16,.15,.26,0,.11,.02,.21,.06,.3,.15,.35,.58,.53,.94,.38,2.31-.99,4.81-2.02,7.23-3.01,5.69-2.33,12.13-4.97,17.53-7.75,.08-.05,.19-.04,.27,0,.12,.07,.27,.09,.42,.07,.19-.03,.36-.12,.47-.28,.12-.15,.17-.34,.14-.53-2.63-18.86,17.55-45.43,37.23-49.01,10.19-1.85,16.66,0,19.08,5.44,5.07,11.37-8.57,36.3-19.66,44.9-8.76,6.78-16.43,9.36-23.44,7.88h0c-2.79-.59-5.56-1.86-8.22-3.76-.15-.11-.33-.15-.51-.12-.07,.01-.14,0-.19-.04-.22-.13-.49-.14-.71-.02-5.99,3.3-12.52,7.34-18.82,11.24l-.46,.28c-3.37,2.08-6.55,4.05-9.59,5.86-.06,.04-.14,.05-.21,.03Zm-19.35-15.19c3.72,6.79,12.41,12.21,19.39,14.58,3-1.79,6.14-3.73,9.45-5.78l.44-.27c6.32-3.91,12.85-7.95,18.86-11.26,.37-.21,.83-.21,1.21-.02,.29-.02,.59,.06,.83,.24,2.6,1.85,5.29,3.08,8.01,3.66h0c6.83,1.45,14.34-1.09,22.96-7.77,10.96-8.49,24.46-33.04,19.49-44.2-2.31-5.17-8.58-6.89-18.45-5.1-19.43,3.53-39.35,29.74-36.75,48.35,.05,.35-.04,.69-.25,.97-.21,.28-.51,.45-.86,.5-.21,.03-.43,.01-.64-.07-5.39,2.77-11.79,5.39-17.45,7.7-2.41,.99-4.91,2.01-7.22,3-.65,.27-1.44-.05-1.71-.68-.05-.12-.08-.24-.1-.37-2.82-1.64-5.87-4.31-6.99-6.13-.14-.21-.2-.46-.19-.73-.2-.31-.25-.69-.15-1.04,1.43-4.91,3.35-9.8,5.2-14.53,1.3-3.31,2.63-6.71,3.79-10.1,.24-.69,.97-1.07,1.66-.8,.29,.1,.53,.3,.69,.57,1.2,.48,2.42,.86,3.61,1.11,11.2,2.37,20.2-5.78,26.79-13.15,8.36-9.35,17.27-28.99,12.19-38.47-2.49-4.65-8.24-6.39-16.93-5.15-11.29,1.61-23.92,11.81-30.71,24.8-5.35,10.24-6.13,20.19-2.19,28.01,.01,.03,.03,.06,.04,.08,.35,.37,.46,.92,.26,1.39-1.48,3.6-3.51,7.44-5.66,11.5-3.29,6.22-6.7,12.65-8.64,19.15Z"/></g><g><path class="cls-3" d="M203.16,61.89c4.59,6.12-3.26,22.45-9.26,28.97-.66,.71-1.3,1.44-1.93,2.15-4.5,5.08-8.76,9.9-16.74,8.21-.45-.1-.9-.21-1.37-.34-.03,0-.06-.02-.09-.03-.17-.01-.34-.06-.49-.15-3.64-2.25-5.46-5.76-5.26-10.14,.49-10.51,12.4-24.15,19.9-27.86,7.65-3.8,12.77-4.07,15.22-.81Zm-10.74,27.6c6.66-7.24,12.5-21.89,9.12-26.39-2.22-2.95-8.13-.86-12.71,1.41-7.11,3.53-18.34,16.64-18.78,26.15-.16,3.61,1.24,6.38,4.18,8.25,.04,0,.09,.01,.13,.02l.07,.02c7.64,2.21,11.35-1.97,16.04-7.27,.64-.72,1.28-1.45,1.95-2.18Z"/><path class="cls-3" d="M175.18,101.51c-.49-.1-.94-.22-1.39-.35l-.06-.02c-.21-.02-.41-.08-.58-.19-3.74-2.31-5.61-5.91-5.39-10.4,.49-10.61,12.51-24.37,20.06-28.11,7.78-3.86,13.06-4.09,15.59-.72,4.68,6.24-3.22,22.77-9.27,29.34-.66,.71-1.3,1.43-1.92,2.14-4.57,5.16-8.88,10.03-17.02,8.31Zm-1.34-.95s.02,0,.03,0l.09,.03c.42,.12,.86,.24,1.34,.34,7.81,1.65,12.01-3.1,16.46-8.12,.63-.71,1.27-1.44,1.93-2.15,5.94-6.45,13.75-22.58,9.24-28.59-2.35-3.14-7.4-2.81-14.86,.89-7.43,3.68-19.26,17.2-19.74,27.61-.2,4.27,1.57,7.68,5.12,9.87,.1,.06,.22,.1,.35,.11,.01,0,.03,0,.04,0Zm1.74-1.03h0c-.4-.08-.81-.19-1.23-.31v-.3l-.05,.29s-.06-.01-.09-.02c-.05,0-.1-.02-.14-.05-3.03-1.92-4.48-4.78-4.32-8.51,.45-9.6,11.78-22.84,18.95-26.4,6.72-3.33,11.22-3.79,13.07-1.32,3.45,4.6-2.41,19.45-9.14,26.77-.65,.71-1.28,1.42-1.9,2.12-4.57,5.16-8.15,9.2-15.15,7.72Zm-1.16-.89l.07,.02c.43,.12,.82,.22,1.21,.3,6.67,1.41,10.15-2.51,14.55-7.48,.67-.76,1.3-1.47,1.96-2.18,6.6-7.17,12.41-21.61,9.1-26.02-1.65-2.2-6.04-1.63-12.35,1.49-7.04,3.49-18.19,16.49-18.62,25.9-.16,3.48,1.19,6.15,3.99,7.95,.03,0,.06,.01,.09,.02Z"/></g><g><path class="cls-3" d="M170.65,37.03c3.67,7.84-5.34,24.47-12.73,30.36-4.27,3.41-9.7,7.74-15.25,6.56-2.04-.43-4.1-1.61-6.13-3.85-.14-.17-.23-.37-.25-.57-2.58-3.56-3.04-8.17-1.31-13.43,3.28-9.97,14.51-21.07,23.1-22.83,8.15-1.67,11.33,1.12,12.56,3.76Zm-13.98,28.78c6.75-5.38,15.3-21.21,12.16-27.93-1.35-2.88-4.82-3.77-10.33-2.64-8.01,1.64-18.5,12.08-21.59,21.48-1.16,3.53-1.8,8.57,1.73,12.49,.09,.1,.16,.22,.21,.35,5.53,5.25,11.14,1.58,17.83-3.76Z"/><path class="cls-3" d="M142.61,74.24c-2.23-.47-4.34-1.8-6.28-3.94-.17-.19-.27-.42-.31-.66-2.6-3.62-3.05-8.33-1.31-13.63,3.3-10.05,14.64-21.24,23.32-23.03,2.86-.58,5.33-.67,7.34-.24,2.61,.55,4.53,1.99,5.54,4.17,3.72,7.96-5.35,24.77-12.81,30.71-4.37,3.49-9.81,7.83-15.5,6.62Zm22.65-40.93c-1.94-.41-4.33-.33-7.1,.24-8.52,1.75-19.64,12.75-22.89,22.64-1.69,5.14-1.25,9.7,1.27,13.17,.03,.04,.05,.09,.06,.14,.02,.15,.08,.29,.18,.41,1.85,2.04,3.86,3.31,5.96,3.75,5.42,1.15,10.74-3.1,15.01-6.51,7.32-5.83,16.26-22.28,12.65-30.01-.95-2.03-2.67-3.32-5.13-3.84Zm-22.24,38.94h0c-1.54-.33-2.98-1.13-4.38-2.47-.03-.03-.06-.07-.08-.12-.03-.09-.08-.17-.15-.25-3.62-4.03-2.97-9.17-1.79-12.78,3.12-9.48,13.72-20.02,21.81-21.68,5.63-1.16,9.25-.2,10.65,2.8,3.2,6.83-5.42,22.85-12.24,28.28-4.77,3.8-9.42,7.14-13.83,6.21Zm-3.93-2.85c1.31,1.23,2.63,1.97,4.05,2.27,4.17,.88,8.69-2.38,13.35-6.09,6.68-5.32,15.17-20.96,12.07-27.58-1.28-2.74-4.69-3.57-10-2.47-7.92,1.62-18.31,11.97-21.37,21.29-1.14,3.46-1.77,8.38,1.67,12.21,.1,.12,.18,.24,.24,.37Z"/></g><g><path class="cls-3" d="M117.45,126.56c1.63,1.8,1.41,3.33,1.13,4.08-.53,1.43-2.06,2.46-4,2.7-.7,.08-1.49,.07-2.3-.11-1.56-.33-3.19-1.22-4.38-2.95-.31-.46-.2-1.09,.26-1.4,.1-.07,.2-.11,.31-.14-.22-1.98,.39-3.74,1.73-4.64,.73-.49,3.42-1.76,7.25,2.46Zm-.76,3.38c.27-.72-.25-1.5-.73-2.02-1.83-2.01-3.61-2.83-4.64-2.14-.94,.63-1.29,2.61-.25,4.83,1.08,.67,2.29,.84,3.26,.73,1.15-.14,2.1-.7,2.35-1.39Z"/><path class="cls-3" d="M112.22,133.52c-1.31-.28-3.16-1.03-4.56-3.07-.2-.29-.27-.63-.21-.98,.07-.34,.26-.64,.54-.83,.05-.04,.1-.07,.16-.09-.16-2.05,.53-3.79,1.89-4.69,.39-.27,1.48-.85,3.08-.51,1.48,.31,3.01,1.33,4.55,3.02,1.73,1.91,1.49,3.56,1.19,4.38-.56,1.53-2.19,2.63-4.24,2.88-.78,.1-1.61,.06-2.4-.11Zm.78-9.6c-1.38-.29-2.3,.2-2.63,.43-1.22,.81-1.82,2.44-1.61,4.37,.02,.14-.08,.28-.22,.31-.07,.02-.15,.05-.22,.1-.16,.11-.26,.27-.3,.46-.04,.19,0,.38,.11,.54,1.29,1.88,2.99,2.57,4.2,2.83,.72,.15,1.49,.19,2.2,.1,1.83-.23,3.27-1.19,3.76-2.51,.25-.69,.45-2.1-1.07-3.78-1.45-1.6-2.88-2.55-4.24-2.84Zm-.36,7.62h0c-.61-.13-1.19-.36-1.71-.69-.05-.03-.09-.07-.11-.13-1.15-2.46-.68-4.51,.35-5.2,1.15-.77,3.09,.08,5.02,2.19,.77,.84,1.04,1.64,.79,2.32-.3,.8-1.32,1.42-2.59,1.58-.56,.07-1.16,.04-1.74-.08Zm-1.33-1.14c.45,.27,.93,.46,1.45,.57h0c.51,.11,1.05,.13,1.54,.07,1.03-.12,1.9-.62,2.12-1.2s-.25-1.26-.67-1.72c-1.68-1.85-3.38-2.68-4.26-2.1-.81,.54-1.1,2.36-.18,4.38Z"/></g></g></svg>