<?xml version="1.0" encoding="UTF-8"?><svg id="_ëîé_1" xmlns="http://www.w3.org/2000/svg" viewBox="0 0 250 250"><defs><style>.cls-1{fill:#fff;}.cls-2{fill:#6b6b6b;}.cls-3{fill:#282828;}.cls-4{fill:#8c6745;}.cls-5{fill:#515151;}.cls-6{fill:#83bdd6;}</style></defs><g id="globe"><path class="cls-1" d="M201.29,63.13c-4.94-10.17-11.21-19.63-19.48-29.33,2.67-5.04,4.28-11.24-.12-16.62-2.23-2.71-5.55-4.27-9.1-4.27-3.81,0-7.29,1.76-10.19,3.48-4.61,2.73-8.54,8.4-12.29,15.05-11.14-4.67-23.36-7.22-34.88-7.22-6.48,0-12.68,.78-18.43,2.32-15.7,4.2-29.4,13.33-39.68,26.43-.67,.6-1.27,1.28-1.78,2.04-13.56,19.9-19.28,41.12-17.01,63.08,.03,.33,.07,.67,.11,1.01-.12,.72-.18,1.46-.16,2.2,.05,1.98,.6,3.85,1.57,5.48,2.82,11.4,8.72,21.88,17.32,30.83-5.8,5.93-9.29,10.56-9.79,15.96-1.1,11.35,5.99,14.83,8.21,15.63,1.29,.47,2.65,.7,4.04,.7,2.87,0,5.45-.99,7.74-2.46,12.2,8.18,28.64,11.43,40.22,12.72,.08,.85,.16,1.67,.24,2.46-8.77,3.8-13.6,9.7-13.52,16.83,.06,5.86,3.34,13.49,18.61,16.53,3.4,.68,8.6,1.12,13.25,1.12,11.19,0,19.04-2.2,23.99-6.72,3.98-3.64,5.94-8.62,5.5-14.03-.41-5.01-3.03-12.84-14.93-15.69-.01-.29-.02-.57-.03-.85-.02-.4-.03-.79-.05-1.18,14.39-3.54,28.48-11.12,42.84-23.01,8.52-7.05,13.91-14.31,19.59-22.41,.58-.83,1.04-1.72,1.37-2.66,4.86-8.83,6.37-19.36,7.14-27.66,1.99-21.46-1.48-41.56-10.32-59.75Z"/><g><path class="cls-3" d="M192.17,67.75c7.98,16.43,11.11,34.64,9.3,54.15-.73,7.85-2.15,17.5-6.54,24.69,.03,.2,0,.41-.13,.58-5.42,7.71-10.16,14.11-17.71,20.36-15.9,13.16-31.03,20.45-46.83,22.47,.02,3.42,.14,6.86,.27,10.2,.12,3.2,.25,6.48,.27,9.75,3.9,.05,14.15,.21,14.72,7.24,.17,2.14-.55,3.97-2.15,5.43-3.46,3.16-10.7,4.07-17.2,4.07-4.74,0-9.08-.48-11.31-.92-6.86-1.37-10.35-3.54-10.38-6.45-.05-4.2,7.29-7.77,14.17-9.32-.11-2.61-.36-5.17-.62-7.66-.39-3.82-.79-7.76-.63-11.83-8.86-.39-37.53-2.73-50.35-16.75-2.28,2.7-5.31,5.74-7.43,5.74-.23,0-.45-.04-.65-.11-1.86-.67-1.56-3.79-1.47-4.81,.29-3.09,5.26-8.15,11.22-13.95,1.35-1.32,2.56-2.49,3.42-3.4-12.27-9.51-20.28-21.92-22.97-35.45-.38-.04-.7-.34-.71-.74,0-.32,.18-.6,.45-.73-.19-1.1-.34-2.21-.46-3.32-2.01-19.39,3.12-38.25,15.25-56.04,.12-.18,.29-.29,.48-.32,9.02-11.98,21.12-20.25,35.21-24.02,15.22-4.07,34.15-1.77,50.61,6.14,1.53,.73,2.98,1.53,4.38,2.39,.34-.62,.72-1.36,1.16-2.19,2.96-5.67,7.91-15.15,11.98-17.56,3.6-2.14,5.51-2.59,6.39-1.52,1.37,1.68-2,6.93-4.96,10.92,10.33,11.13,17.72,21.61,23.24,32.97Zm7.8,54c1.79-19.21-1.29-37.15-9.15-53.31-5.42-11.15-12.69-21.47-22.82-32.42-.88,1.14-1.66,2.11-2.19,2.74-1,1.21-1.92,2.48-2.82,3.71-1.37,1.87-2.78,3.81-4.48,5.57,4.16,3.3,7.72,7.37,10.89,12.41,.06,.09,.1,.2,.11,.3,9.41,12.03,12.57,26.47,14.01,38.56,.08,.15,.12,.33,.09,.51,0,.02-.01,.05-.02,.07,.12,1.03,.22,2.04,.32,3.03,1.87,19.05-2.84,35.65-13.63,48-5.41,6.19-12.03,10.02-18.21,12.86-.06,.13-.16,.24-.29,.32-2.62,1.53-5.42,2.45-8.13,3.34-1.12,.37-2.25,.74-3.37,1.16-7.27,2.69-13.52,3.78-19.61,3.91-.09,.08-.2,.13-.32,.16-.05,.01-.1,.02-.15,.02-.17,0-.33-.06-.46-.16-.15,0-.29,0-.43,0-6.88,0-13.63-1.15-21.52-2.49l-.95-.16c-.14,.15-.34,.24-.55,.24-.07,0-.14,0-.21-.03-6.88-2-13.31-5.24-20.6-10.4-.96,1.53-1.75,3.18-2.52,4.8-.83,1.74-1.69,3.53-2.76,5.19-.02,.04-.89,1.29-2.17,2.89,10.28,11.39,33.85,15.98,50.98,16.45,19.63,.55,37.79-6.67,57.13-22.68,6.64-5.5,11.09-11.14,15.79-17.73-.02-.19,.03-.4,.16-.56,5.47-7.01,7.08-17.73,7.88-26.29Zm-28.64,25.48c11.22-14.66,12.28-31.93,11.08-44.15-.09-.9-.18-1.82-.29-2.74-1.49-.28-2.98-.54-4.47-.8-5.46-.96-11.08-1.95-16.56-3.62-2,12.6-6.57,24.06-13.33,33.57,.58,.45,1.16,.91,1.74,1.36,3.82,2.97,7.62,5.93,11.38,8.81,1.47,1.13,3.05,2.22,4.58,3.27,1.97,1.36,4.02,2.76,5.8,4.24,.03,.02,.05,.05,.07,.08Zm6.57-49.22c1.34,.23,2.68,.47,4.03,.72-1.5-12.1-4.82-26.43-14.49-38.13-.15-.18-.2-.41-.16-.63-2.93-4.4-6.2-7.99-9.98-10.93-.03,0-.07,0-.11,0-.2,0-.4-.08-.55-.25-.1-.12-.17-.26-.19-.4-.05-.03-.1-.07-.14-.11-.05,.1-.1,.2-.15,.31,4.28,12.13,6.27,23.38,6.07,34.31-.07,3.9-.37,7.73-.9,11.46,5.46,1.67,11.1,2.67,16.58,3.64Zm-5.14-72.93c0-.09-.01-.18-.04-.23-.04,0-.85-.26-4.46,1.87-3.7,2.19-8.71,11.79-11.41,16.95-.45,.87-.86,1.64-1.21,2.29,.05,.03,.11,.07,.16,.11,.2-.12,.45-.14,.68-.04,.32,.14,.49,.48,.44,.82,.12,.09,.24,.18,.36,.27,1.68-1.71,3.05-3.59,4.49-5.56,.91-1.25,1.85-2.54,2.88-3.78,4.44-5.37,8.11-11.15,8.11-12.69Zm-2.37,123.34s-.06-.04-.09-.06c-1.73-1.44-3.65-2.76-5.69-4.16-1.55-1.06-3.15-2.17-4.65-3.32-3.76-2.88-7.56-5.84-11.38-8.82-.57-.45-1.15-.9-1.73-1.34-3.81,5.11-8.26,9.63-13.31,13.41-6.91,5.19-13.86,8.2-20.93,10.04l.73,1.18c3.12,5,6.07,9.73,7.41,15.64,5.9-.14,11.91-1.22,19-3.84,1.14-.42,2.29-.8,3.43-1.17,1.62-.54,3.19-1.06,4.71-1.69,.05-.23,.21-.44,.44-.54,6.84-2.9,14.67-6.82,20.81-13.84,.43-.49,.84-.99,1.25-1.49Zm-9.68-65.53c.19-10.36-1.63-21.03-5.55-32.5-2.17,3.64-5.07,6.77-7.89,9.81-1.85,2-3.76,4.07-5.43,6.23-3.54,4.6-7.04,9.35-10.48,14.08,8.44,6.02,18.27,9.65,26.68,12.75,.61,.23,1.21,.43,1.83,.64,.5-3.59,.79-7.27,.86-11.02Zm-1.09,12.57c-.71-.23-1.41-.47-2.11-.73-8.51-3.14-18.47-6.81-27.06-12.96-1.74,2.4-3.46,4.79-5.17,7.15-3.7,5.14-7.47,10.36-11.31,15.54,10.72,7.19,21.78,15.7,32.57,24.09,6.65-9.36,11.13-20.66,13.07-33.09Zm-5.13-46.97c-.09-.24-.17-.48-.26-.72-12.22-.11-22.53,2.07-31.5,6.66-2.52,1.29-5.5,2.92-8.72,4.87,2.16,4.36,4.62,8.36,7.26,11.73,2.6,3.32,5.61,6.15,8.85,8.59,3.45-4.75,6.96-9.51,10.52-14.13,1.71-2.22,3.65-4.32,5.53-6.34,3.05-3.29,6.19-6.68,8.32-10.66Zm-1.31-2.26c-1.23-.74-2.5-1.44-3.83-2.08-13.81-6.64-29.36-9.25-42.89-7.38,1.33,7.15,3.76,14.51,6.89,21.14,3.22-1.94,6.19-3.56,8.71-4.85,8.92-4.56,19.12-6.79,31.12-6.82Zm-10.82,175.25c1.25-1.14,1.78-2.49,1.65-4.15-.41-5.04-7.72-5.74-13.21-5.82,0,.95-.02,1.9-.04,2.85-.01,.38-.29,.69-.65,.74-1.35,1.58-3.14,2.48-5.08,2.55-.08,0-.16,0-.24,0-2.16,0-4.3-1.01-5.9-2.79-.16-.18-.22-.42-.19-.64,0-.05-.01-.11-.01-.16,.03-.83,.03-1.65,.02-2.47-7.19,1.68-12.74,5.04-12.71,7.74,.02,1.99,3.36,3.79,9.16,4.95,4.37,.87,21.6,2.35,27.21-2.78Zm-9.7-78.58c4.93-3.7,9.28-8.11,13-13.11-10.6-8.24-21.45-16.59-31.97-23.68-.02,0-.03,0-.04,0-.18,0-.35-.06-.5-.19-.05-.05-.11-.09-.16-.14-2.91,3.9-5.86,7.75-8.86,11.5-3.64,4.55-7.14,9.07-10.49,13.52,7.77,5.65,13.43,14.44,18.15,22.03,7.06-1.78,13.93-4.74,20.87-9.95Zm-3.4,70.85c.1-4.49-.07-9.06-.24-13.48-.13-3.29-.25-6.7-.27-10.08-2.55,.27-5.12,.41-7.71,.41-.69,0-1.38,0-2.08-.03h-.06c-.16,3.95,.22,7.68,.62,11.62,.39,3.79,.79,7.71,.66,11.82,1.35,1.38,3.09,2.13,4.78,2.09,1.63-.06,3.08-.84,4.19-2.25,.03-.04,.06-.07,.1-.1Zm-5.19-125.74c1.7-2.36,3.42-4.75,5.15-7.14-3.33-2.52-6.43-5.43-9.12-8.87-2.68-3.43-5.18-7.49-7.38-11.9-9.06,5.62-19.76,13.74-27.63,24.22,1.39,.97,2.78,1.93,4.17,2.89,4.86,3.36,9.89,6.84,14.6,10.37,1.4,1.05,2.89,2.01,4.34,2.94,1.59,1.02,3.12,2.01,4.52,3.09,3.86-5.19,7.63-10.44,11.35-15.59Zm-4.86,83.01c-1.32-5.51-4.15-10.05-7.14-14.83l-.85-1.37c-.05-.08-.1-.17-.15-.25-7.98,1.89-16.11,2.37-24.48,2.87-3.45,.21-7,.42-10.63,.73,6.75,4.82,12.72,7.96,18.98,9.97,.14-.07,.29-.09,.45-.06l2.63,.44c7.98,1.36,14.57,2.48,21.19,2.5Zm-7.16-112.31c-3.23-6.81-5.74-14.37-7.09-21.71-1.77,.29-3.51,.66-5.21,1.12-14.94,4-27.59,13.18-36.59,26.56-.06,.09-.15,.16-.24,.21-.32,.5-.63,1.01-.93,1.51,6.56,6.11,14.18,11.69,21.85,17.05,8.04-10.74,18.98-19.02,28.2-24.74Zm-.24,46.12c-1.36-1.04-2.85-2.01-4.41-3.01-1.47-.94-2.99-1.92-4.43-3-4.69-3.51-9.7-6.98-14.55-10.34-1.41-.97-2.81-1.95-4.23-2.93-1.37,1.92-2.65,3.91-3.81,5.98-4.78,8.59-7.63,19.15-8.5,30.8,5.7,1.21,11.12,2.93,15.94,5.09,1.6,.72,3.11,1.57,4.56,2.53,3.37-4.49,6.9-9.05,10.57-13.63,3-3.75,5.94-7.6,8.85-11.49Zm-1.58,48.39c-4.59-7.37-10.1-15.79-17.51-21.18-6.42,8.6-12.21,16.91-17.13,24.6,3.73-.32,7.38-.54,10.92-.75,8.37-.5,16.17-.96,23.73-2.68Zm-18.76-22.04c-1.35-.89-2.77-1.69-4.25-2.35-4.68-2.09-9.92-3.76-15.44-4.95-.59,10,.28,20.77,2.63,31.79,4.91-7.66,10.68-15.94,17.05-24.49Zm-12.39-40.41c1.17-2.11,2.47-4.13,3.87-6.08-7.61-5.32-15.18-10.87-21.74-16.95-9.22,15.73-13,32.22-11.26,49.11,.12,1.14,.28,2.27,.47,3.4,6.71-.1,13.5,.52,19.98,1.79,.9-11.81,3.82-22.52,8.68-31.27Zm-4.84,68.05c-.26-.19-.52-.37-.78-.57-.03-.02-.06-.05-.1-.07-.89,.96-2.16,2.19-3.6,3.58-4.18,4.07-10.49,10.21-10.76,12.98-.2,2.17,.12,3.08,.47,3.21,1.64,.61,7.27-5.72,9.47-9.11,1.02-1.57,1.85-3.32,2.66-5.02,.8-1.67,1.62-3.39,2.64-5Zm-1.31-2.9c-2.39-11.2-3.25-22.16-2.63-32.34-6.34-1.26-13.01-1.88-19.58-1.8,2.66,13,10.4,24.93,22.22,34.14Z"/><path class="cls-3" d="M126.17,227.19c-4.64,0-9.07-.47-11.4-.93-7.12-1.42-10.74-3.75-10.77-6.93-.05-4.41,7.01-8.03,14.15-9.72-.12-2.56-.39-5.13-.6-7.22-.36-3.49-.76-7.42-.65-11.41-9.07-.44-36.91-2.89-49.83-16.48-3.64,4.23-6.37,6.04-8.26,5.36-2.22-.8-1.89-4.21-1.79-5.33,.31-3.26,5.11-8.18,11.37-14.26,1.12-1.09,2.19-2.13,3.02-2.99-12.07-9.5-19.9-21.62-22.65-35.1-.45-.19-.77-.62-.78-1.13,0-.37,.14-.72,.4-.97-.17-1.02-.31-2.05-.41-3.04-2.02-19.52,3.14-38.48,15.33-56.38,.15-.22,.36-.38,.59-.47,9.06-11.98,21.29-20.3,35.37-24.07,4.95-1.32,10.32-1.99,15.97-1.99,11.6,0,24.01,2.9,34.97,8.17,1.38,.67,2.72,1.39,3.99,2.15,.17-.32,.35-.66,.54-1.02l.37-.71c2.98-5.71,7.97-15.27,12.16-17.76,2.5-1.48,4.14-2.14,5.33-2.14,.71,0,1.28,.25,1.68,.73,.46,.57,1.86,2.27-4.7,11.2,10.22,11.06,17.55,21.48,23.04,32.78,8.02,16.51,11.17,34.82,9.35,54.41-.71,7.68-2.1,17.42-6.53,24.77,0,.27-.08,.53-.23,.75-5.44,7.75-10.21,14.18-17.8,20.46-15.79,13.06-31.05,20.43-46.65,22.52,.02,3.19,.14,6.43,.27,9.74,.11,2.85,.23,6.07,.26,9.28,4.29,.07,14.14,.48,14.72,7.68,.18,2.3-.59,4.27-2.31,5.84-3.8,3.47-11.63,4.2-17.53,4.2Zm-59.11-53.92c.13,0,.26,.06,.35,.16,12.73,13.92,41.5,16.22,50.01,16.59,.27,.01,.47,.24,.46,.51-.16,4.09,.26,8.16,.62,11.76,.23,2.22,.51,4.97,.62,7.69,0,.24-.15,.45-.38,.5-6.89,1.56-13.83,5.09-13.79,8.84,.03,2.61,3.48,4.67,9.99,5.97,2.28,.46,6.63,.91,11.21,.91,8.1,0,14.1-1.4,16.88-3.94,1.48-1.35,2.15-3.04,1.99-5.02-.53-6.59-10.49-6.73-14.24-6.78-.26,0-.48-.22-.48-.49-.02-3.36-.15-6.75-.27-9.74-.13-3.47-.25-6.87-.27-10.21,0-.25,.18-.46,.42-.49,15.56-1.99,30.8-9.3,46.58-22.36,7.5-6.21,12.23-12.58,17.62-20.27,.05-.08,.05-.16,.05-.21-.02-.12,0-.24,.07-.34,4.39-7.19,5.76-16.86,6.47-24.47,1.8-19.41-1.31-37.54-9.25-53.88-5.5-11.31-12.86-21.75-23.16-32.85-.16-.18-.18-.45-.03-.64,5.92-7.97,5.3-9.9,4.98-10.3-.71-.86-2.51-.31-5.77,1.63-3.96,2.35-8.86,11.75-11.8,17.37l-.37,.71c-.29,.55-.55,1.04-.79,1.48-.06,.12-.17,.2-.3,.24-.13,.03-.26,.02-.38-.06-1.36-.84-2.82-1.64-4.33-2.37-10.83-5.21-23.1-8.08-34.55-8.08-5.57,0-10.86,.66-15.72,1.96-13.92,3.73-26,11.97-34.94,23.85-.07,.1-.18,.16-.3,.19-.07,.01-.13,.05-.17,.12-12.06,17.69-17.16,36.44-15.16,55.71,.11,1.07,.26,2.18,.45,3.29,.04,.22-.08,.45-.28,.54-.1,.04-.16,.15-.16,.26,0,.16,.14,.25,.27,.26,.21,.02,.39,.18,.43,.39,2.68,13.52,10.56,25.68,22.79,35.15,.11,.09,.18,.22,.19,.36,.01,.14-.04,.28-.13,.38-.88,.93-2.12,2.14-3.43,3.41-5.68,5.52-10.8,10.73-11.07,13.64-.24,2.49,.15,3.94,1.15,4.3,.16,.06,.32,.08,.49,.08,1.53,0,4.04-1.98,7.06-5.57,.09-.11,.22-.17,.36-.17h0Zm59.3,52.37h0c-4.67,0-9.13-.47-11.29-.9-6.13-1.22-9.53-3.15-9.55-5.43-.04-3.38,6.55-6.7,13.08-8.22,.14-.03,.29,0,.41,.09,.12,.09,.18,.23,.19,.38,.01,.83,.01,1.66-.02,2.49,0,.05,.01,.17,0,.22-.01,.09,.01,.17,.07,.23,1.51,1.67,3.53,2.63,5.55,2.63h.22c1.8-.07,3.48-.91,4.74-2.38,.08-.09,.18-.15,.3-.16,.13-.02,.23-.13,.23-.26,.02-.94,.03-1.89,.04-2.84,0-.13,.05-.26,.15-.35,.09-.09,.21-.13,.35-.14,5.66,.08,13.24,.83,13.68,6.28,.15,1.83-.45,3.32-1.81,4.56-3.43,3.14-10.78,3.8-16.34,3.8Zm-8.13-13.44c-7.3,1.82-11.77,5.07-11.74,7.11,.01,1.32,2.33,3.19,8.77,4.47,1.77,.35,6.19,.88,11.11,.88h0c5.39,0,12.49-.62,15.69-3.54,1.14-1.04,1.61-2.23,1.49-3.74-.36-4.51-7.02-5.25-12.25-5.36,0,.79-.02,1.57-.04,2.36-.02,.55-.37,1.02-.88,1.17-1.43,1.6-3.31,2.52-5.32,2.59h-.26c-2.29,0-4.57-1.07-6.26-2.94-.24-.26-.35-.61-.32-.97,0-.06,0-.12,0-.18,.02-.61,.02-1.22,.02-1.83Zm6.62,4.39c-1.79,0-3.61-.81-4.99-2.23-.09-.1-.15-.23-.14-.37,.13-4.1-.27-7.99-.66-11.76-.39-3.76-.78-7.65-.62-11.69,.01-.27,.22-.47,.48-.47h.06c.71,.02,1.39,.03,2.08,.03,2.52,0,5.1-.14,7.66-.4,.14-.02,.27,.03,.37,.12,.1,.09,.16,.23,.16,.37,.02,3.37,.14,6.68,.27,10.06,.17,4.4,.34,8.96,.24,13.51,0,.14-.06,.27-.16,.36-1.24,1.57-2.82,2.41-4.6,2.48h-.15Zm-4.16-2.78c1.18,1.14,2.69,1.8,4.16,1.8h.12c1.48-.05,2.8-.77,3.82-2.06,.09-4.46-.08-8.93-.24-13.25-.12-3.08-.24-6.35-.27-9.56-2.98,.29-5.96,.41-8.9,.34-.11,3.79,.27,7.49,.64,11.06,.38,3.73,.78,7.59,.67,11.67Zm.41-24.26h0c-.7,0-1.4,0-2.1-.03-17.18-.47-40.94-5.1-51.32-16.61-.16-.18-.17-.46-.02-.65,1.29-1.62,2.14-2.85,2.14-2.86,1.06-1.64,1.91-3.41,2.72-5.13,.73-1.53,1.55-3.26,2.54-4.85,.07-.11,.18-.19,.31-.22,.13-.03,.26,0,.37,.08,7.28,5.15,13.58,8.33,20.46,10.33,.15,0,.22-.02,.27-.08,.11-.12,.27-.17,.43-.15l.95,.16c7.85,1.34,14.61,2.49,21.44,2.49h.43c.12,0,.21,.03,.3,.1,.04,.03,.09,.06,.16,.06,.09-.02,.13-.03,.16-.06,.08-.07,.19-.11,.3-.11,6.52-.15,12.71-1.38,19.46-3.88,1.14-.42,2.28-.8,3.39-1.16,2.69-.89,5.46-1.8,8.04-3.3,.05-.03,.08-.08,.1-.11,.05-.1,.13-.19,.24-.23,4.96-2.28,12.23-6.07,18.05-12.73,10.7-12.25,15.37-28.72,13.51-47.62-.1-.99-.21-2-.32-3.02,0-.06,0-.13,.01-.19,.02-.1,0-.16-.02-.2-.03-.06-.05-.12-.06-.18-1.24-10.4-4.02-25.68-13.91-38.31-.05-.07-.09-.15-.1-.23,0-.04-.02-.08-.04-.1-3.16-5.03-6.68-9.04-10.79-12.29-.11-.09-.18-.22-.19-.36,0-.14,.04-.28,.14-.38,1.68-1.74,3.08-3.66,4.44-5.52,.92-1.26,1.84-2.52,2.84-3.73,.38-.46,1.18-1.43,2.18-2.73,.09-.11,.22-.18,.36-.19,.15-.01,.28,.05,.37,.15,10.19,11,17.46,21.34,22.9,32.54,7.9,16.25,10.99,34.28,9.2,53.58-.8,8.62-2.43,19.43-7.98,26.55-.06,.07-.06,.15-.06,.19,.01,.12-.02,.25-.09,.35-5.03,7.06-9.45,12.51-15.88,17.83-18.81,15.57-36.4,22.82-55.35,22.82Zm-52.42-17c10.33,11.06,33.51,15.52,50.35,15.98,19.52,.54,37.5-6.58,56.81-22.57,6.31-5.22,10.66-10.58,15.61-17.51,.01-.26,.11-.51,.27-.71,5.39-6.91,6.99-17.54,7.77-26.03,1.78-19.12-1.29-36.97-9.1-53.05-5.33-10.97-12.44-21.11-22.36-31.89-.85,1.09-1.51,1.9-1.85,2.31-.98,1.19-1.89,2.44-2.77,3.65-1.3,1.78-2.61,3.58-4.17,5.26,4.01,3.26,7.47,7.25,10.58,12.2,.07,.1,.12,.22,.15,.35,9.96,12.78,12.78,28.14,14.03,38.63,.1,.23,.14,.49,.09,.74v.02c.11,1,.21,1.98,.31,2.94,1.89,19.19-2.87,35.92-13.75,48.38-5.89,6.74-13.2,10.59-18.23,12.91-.1,.15-.24,.28-.39,.37-2.66,1.55-5.48,2.48-8.21,3.38-1.12,.37-2.25,.74-3.36,1.15-6.8,2.52-13.04,3.77-19.62,3.94-.12,.07-.25,.12-.38,.15-.23,.05-.58,.02-.85-.13h-.3c-6.91,0-13.7-1.15-21.56-2.49l-.77-.13c-.29,.19-.64,.26-1,.17-6.86-1.99-13.15-5.14-20.34-10.18-.85,1.42-1.57,2.95-2.22,4.31-.83,1.75-1.69,3.55-2.79,5.25,0,.01-.77,1.12-1.93,2.6Zm-8.95,5.93h0c-.15,0-.29-.02-.41-.07-.91-.33-.93-2.21-.78-3.72,.26-2.72,5.28-7.82,10.85-13.24,1.56-1.51,2.78-2.7,3.63-3.62,.16-.18,.43-.21,.63-.06l.08,.06,.8,.59c.21,.15,.27,.45,.13,.67-1.01,1.59-1.82,3.3-2.61,4.95-.81,1.71-1.65,3.47-2.69,5.07-1.82,2.8-7.29,9.38-9.62,9.38Zm13.7-19.66c-.85,.89-1.97,1.98-3.32,3.29-3.91,3.81-10.36,10.09-10.61,12.67-.21,2.25,.19,2.72,.2,2.72,1.49-.01,6.46-5.26,8.85-8.95,1-1.54,1.83-3.28,2.63-4.95,.74-1.55,1.5-3.14,2.42-4.66l-.16-.12Zm45.8,12.69h0c-6.7-.02-13.45-1.17-21.27-2.5l-2.68-.45s-.07,0-.11,.03c-.11,.05-.23,.06-.35,.02-6.28-2.01-12.35-5.2-19.12-10.03-.17-.12-.24-.33-.19-.53,.05-.2,.22-.35,.43-.36,3.73-.32,7.4-.54,10.65-.73,8.07-.48,16.42-.97,24.4-2.86,.21-.05,.41,.04,.52,.23l1,1.61c3.01,4.83,5.86,9.39,7.2,14.98,.04,.15,0,.3-.09,.42-.09,.12-.23,.19-.38,.19Zm-23.95-3.94c.07,0,.15,0,.23,.02l2.61,.44c7.53,1.28,14.07,2.4,20.49,2.49-1.36-5.16-4.06-9.49-6.92-14.06l-.83-1.32c-7.95,1.84-16.22,2.33-24.22,2.8-2.84,.17-6.02,.36-9.27,.62,6.18,4.3,11.8,7.19,17.58,9.07,.11-.03,.22-.05,.33-.05Zm25.5,3.93c-.23,0-.42-.16-.47-.38-1.32-5.85-4.25-10.53-7.34-15.48l-.73-1.18c-.08-.13-.1-.3-.04-.45,.06-.15,.18-.26,.33-.3,7.73-2.01,14.52-5.27,20.76-9.96,4.94-3.71,9.39-8.19,13.21-13.31,.16-.22,.46-.26,.68-.09l2.48,1.93c3.57,2.77,7.11,5.53,10.63,8.23,1.48,1.13,3.06,2.22,4.59,3.27,2.1,1.44,4.02,2.77,5.77,4.21,.12,.07,.22,.21,.25,.35,.02,.14,0,.3-.09,.41-.41,.5-.82,1-1.26,1.5-6.21,7.11-14.09,11.05-20.99,13.97-.08,.03-.14,.11-.16,.2-.04,.16-.14,.29-.29,.35-1.55,.64-3.17,1.18-4.74,1.7-1.15,.38-2.29,.75-3.41,1.17-6.72,2.49-12.8,3.72-19.15,3.87h-.01Zm-7.37-17l.38,.6c3.07,4.92,5.98,9.57,7.38,15.4,6.1-.19,11.97-1.4,18.45-3.8,1.13-.42,2.29-.8,3.41-1.17,1.52-.5,3.06-1.01,4.52-1.6,.13-.28,.36-.5,.64-.62,6.79-2.88,14.56-6.76,20.64-13.72,.31-.36,.62-.72,.91-1.08-1.62-1.32-3.43-2.56-5.34-3.87-1.6-1.1-3.19-2.2-4.69-3.35-3.51-2.7-7.06-5.46-10.63-8.23l-2.1-1.63c-3.81,5.04-8.22,9.45-13.11,13.12-6.17,4.64-12.87,7.9-20.45,9.95Zm-37.8,2.65c-.17,0-.33-.09-.42-.24-.1-.16-.09-.37,.01-.52,4.93-7.7,10.7-15.99,17.15-24.63,.16-.21,.45-.26,.67-.1,7.35,5.34,12.74,13.46,17.64,21.31,.09,.14,.1,.31,.04,.45-.06,.15-.19,.26-.34,.29-7.6,1.72-15.47,2.19-23.8,2.69-3.43,.2-7.1,.42-10.9,.75-.01,0-.03,0-.04,0Zm17.23-24.41c-6.09,8.17-11.56,16.02-16.28,23.34,3.46-.28,6.8-.49,9.94-.67,8.05-.48,15.66-.93,22.97-2.52-4.66-7.45-9.79-15.05-16.63-20.16Zm-19.9,23.68c-.1,0-.21-.03-.29-.1-11.95-9.31-19.69-21.21-22.4-34.43-.03-.14,0-.3,.1-.41,.09-.12,.23-.18,.37-.19,6.59-.09,13.23,.53,19.68,1.81,.24,.05,.41,.27,.39,.52-.63,10.3,.26,21.13,2.62,32.2,.04,.2-.04,.41-.21,.52-.08,.05-.17,.08-.26,.08Zm-21.62-34.14c2.68,12.36,9.87,23.53,20.87,32.43-2.14-10.54-2.95-20.87-2.39-30.71-6.06-1.17-12.29-1.73-18.48-1.71Zm23.11,33.9s-.06,0-.09,0c-.19-.04-.34-.19-.39-.38-2.35-10.99-3.24-21.73-2.64-31.92,0-.14,.08-.28,.19-.36,.11-.09,.26-.12,.39-.09,5.63,1.21,10.86,2.89,15.54,4.98,1.44,.64,2.89,1.44,4.32,2.39,.11,.07,.19,.19,.21,.33,.02,.13-.01,.27-.09,.38-6.43,8.62-12.16,16.85-17.04,24.46-.09,.14-.24,.22-.41,.22Zm-2.18-31.68c-.51,9.57,.3,19.63,2.41,29.92,4.67-7.23,10.08-14.99,16.12-23.1-1.24-.79-2.5-1.47-3.74-2.02-4.47-2-9.44-3.61-14.79-4.8Zm39.56,28.86c-.16,0-.32-.08-.41-.23-5.04-8.11-10.59-16.48-18.02-21.89-.11-.08-.18-.2-.2-.33-.02-.13,.01-.27,.09-.37,3.34-4.45,6.87-9,10.5-13.54,2.74-3.42,5.63-7.18,8.85-11.49,.08-.11,.2-.18,.34-.19,.13,0,.27,.03,.37,.12l.16,.14c.05,.05,.13,.06,.21,.06,.1,0,.2,.02,.28,.08,10.48,7.06,21.11,15.24,31.99,23.7,.21,.16,.25,.48,.09,.69-3.77,5.07-8.18,9.51-13.09,13.2-6.47,4.86-13.15,8.05-21.04,10.03-.04,0-.08,.01-.12,.01Zm-17.46-22.63c7.28,5.45,12.73,13.62,17.68,21.57,7.61-1.96,14.09-5.07,20.36-9.78,4.71-3.54,8.95-7.78,12.6-12.62-10.69-8.31-21.15-16.34-31.44-23.28-.17-.02-.31-.06-.44-.12-3.11,4.16-5.92,7.8-8.58,11.13-3.51,4.39-6.93,8.79-10.18,13.11Zm77,17.01h0c-.15,0-.29-.07-.38-.2-1.81-1.49-3.9-2.93-5.76-4.2-1.56-1.07-3.13-2.16-4.6-3.28-3.41-2.62-6.85-5.3-10.32-7.99l-2.8-2.18c-.21-.16-.25-.47-.1-.68,6.69-9.41,11.27-20.94,13.24-33.35,.02-.14,.1-.27,.22-.34,.12-.07,.26-.1,.4-.06,5.44,1.66,11.05,2.65,16.48,3.6,1.52,.27,3.01,.53,4.5,.81,.21,.04,.37,.21,.39,.43,.11,.93,.2,1.85,.29,2.75,1.19,12.09,.21,29.62-11.18,44.5-.09,.12-.23,.19-.38,.19Zm-22.91-18.35l2.43,1.89c3.46,2.69,6.9,5.37,10.31,7.98,1.45,1.11,3.02,2.19,4.53,3.23,1.79,1.23,3.78,2.6,5.56,4.03,10.9-14.54,11.83-31.59,10.67-43.39-.08-.78-.16-1.57-.25-2.37-1.37-.25-2.74-.5-4.11-.74-5.3-.93-10.76-1.89-16.09-3.47-2.01,12.18-6.52,23.51-13.05,32.83Zm-56.03,1.06c-.09,0-.18-.03-.26-.08-1.48-.98-2.99-1.82-4.49-2.49-4.77-2.13-10.1-3.84-15.85-5.06-.24-.05-.4-.27-.38-.52,.88-11.79,3.84-22.51,8.56-31,1.1-1.98,2.39-4.01,3.84-6.03,.15-.21,.45-.27,.66-.12l4.36,3.02c4.81,3.33,9.78,6.77,14.43,10.25,1.44,1.08,3.01,2.09,4.4,2.98,1.5,.96,3.05,1.96,4.45,3.03,.1,.08,.17,.2,.19,.33,.02,.13-.02,.26-.09,.37-3.23,4.32-6.13,8.08-8.86,11.51-3.58,4.47-7.13,9.05-10.56,13.62-.09,.13-.24,.19-.38,.19Zm-19.99-8.51c5.66,1.23,10.91,2.92,15.62,5.03,1.42,.64,2.85,1.42,4.25,2.32,3.35-4.45,6.82-8.92,10.31-13.28,2.65-3.31,5.44-6.94,8.54-11.08-1.26-.94-2.65-1.83-3.99-2.69-1.4-.9-2.98-1.92-4.46-3.02-4.64-3.47-9.6-6.91-14.4-10.23l-3.97-2.75c-1.31,1.86-2.49,3.73-3.5,5.54-4.6,8.27-7.5,18.69-8.41,30.16Zm74.15,7.11c-.11,0-.21-.04-.29-.1-11.06-8.6-21.88-16.91-32.55-24.06-.11-.08-.19-.19-.21-.33-.02-.14,.01-.27,.09-.38,3.97-5.35,7.87-10.76,11.3-15.53l.35-.48c1.59-2.21,3.2-4.43,4.82-6.67,.16-.22,.45-.27,.67-.11,8.55,6.12,18.32,9.72,26.95,12.89,.69,.26,1.39,.5,2.09,.73,.23,.07,.37,.31,.33,.55-1.94,12.4-6.49,23.91-13.16,33.3-.08,.11-.19,.18-.32,.2-.02,0-.05,0-.07,0Zm-31.87-24.7c10.42,7.02,20.98,15.12,31.77,23.51,6.35-9.08,10.71-20.14,12.63-32.05-.58-.19-1.16-.4-1.73-.61-8.55-3.15-18.23-6.71-26.79-12.74-1.52,2.11-3.04,4.2-4.54,6.28l-.35,.48c-3.35,4.65-7.13,9.91-11,15.12Zm-44.28,18.18s-.06,0-.09,0c-6.52-1.28-13.22-1.89-19.88-1.78h0c-.23,0-.44-.17-.48-.41-.2-1.16-.36-2.32-.48-3.43-1.76-16.97,2.06-33.6,11.32-49.42,.07-.13,.2-.21,.35-.23,.14-.03,.29,.02,.4,.12,6.7,6.21,14.38,11.8,21.69,16.91,.11,.08,.18,.19,.2,.32,.02,.13,0,.27-.09,.38-1.44,2.02-2.73,4.05-3.84,6.04-4.74,8.52-7.72,19.26-8.62,31.06-.01,.14-.08,.27-.19,.35-.09,.07-.19,.1-.29,.1Zm-18.6-2.79c6.09,0,12.2,.58,18.16,1.71,.96-11.73,3.97-22.41,8.7-30.92,1.05-1.89,2.26-3.81,3.61-5.72-7.05-4.94-14.44-10.33-20.94-16.3-8.94,15.48-12.6,31.72-10.89,48.29,.1,.96,.23,1.95,.4,2.95,.33,0,.65,0,.98,0Zm60.92-15.64c-.1,0-.2-.03-.29-.1-1.39-1.07-2.89-2.04-4.48-3.06-1.37-.88-2.92-1.87-4.37-2.96-4.66-3.5-9.65-6.95-14.47-10.28l-.12-.08c-1.38-.95-2.77-1.92-4.17-2.89-.11-.08-.18-.2-.21-.33-.02-.13,.01-.27,.09-.38,6.63-8.83,15.97-17.02,27.76-24.34,.12-.07,.25-.09,.38-.05,.13,.04,.24,.13,.3,.25,2.22,4.47,4.69,8.45,7.32,11.82,2.49,3.18,5.53,6.14,9.03,8.78,.1,.08,.17,.2,.19,.33,.02,.13-.01,.26-.09,.37-1.73,2.39-3.45,4.78-5.15,7.14-3.48,4.83-7.42,10.31-11.35,15.59-.1,.13-.24,.2-.39,.2Zm-26.93-19.89c1.25,.87,2.5,1.73,3.74,2.59l.12,.08c4.83,3.34,9.82,6.79,14.5,10.3,1.42,1.07,2.96,2.05,4.31,2.92,1.47,.95,2.86,1.84,4.17,2.82,3.83-5.16,7.66-10.48,11.05-15.19,1.6-2.23,3.23-4.49,4.87-6.75-3.41-2.62-6.38-5.54-8.83-8.67-2.58-3.3-5-7.17-7.19-11.51-11.3,7.07-20.29,14.94-26.74,23.41Zm96.13,15.03s-.06,0-.09,0c-1.34-.25-2.68-.49-4.02-.72-5.47-.96-11.13-1.96-16.64-3.65-.23-.07-.37-.3-.34-.54,.53-3.73,.83-7.56,.9-11.4,.2-10.89-1.78-22.05-6.05-34.14-.04-.12-.04-.26,.02-.38,.05-.11,.11-.22,.16-.33,.07-.13,.18-.22,.32-.25,.14-.03,.28,0,.4,.08l.05,.04,.09,.06c.11,.08,.18,.2,.2,.33,0,.05,.03,.1,.07,.14,.07,.07,.15,.09,.2,.09,.14-.03,.29,0,.4,.09,3.81,2.97,7.11,6.58,10.08,11.04,.07,.11,.1,.24,.08,.36,0,.05-.01,.14,.05,.22,10.38,12.55,13.3,27.92,14.6,38.39,.02,.16-.03,.31-.15,.42-.09,.09-.21,.14-.33,.14Zm-20.07-5.2c5.33,1.6,10.82,2.57,16.13,3.5,1.13,.2,2.25,.4,3.38,.6-1.33-10.33-4.31-25.13-14.3-37.21-.19-.23-.29-.52-.29-.82-2.85-4.25-6.01-7.71-9.63-10.56-.05,0-.1,0-.15-.02,4.04,11.78,5.92,22.72,5.72,33.4-.07,3.73-.35,7.46-.85,11.1Zm-2,.38s-.1,0-.15-.02c-.62-.2-1.23-.41-1.84-.64-8.14-3-18.27-6.72-26.79-12.81-.11-.08-.18-.19-.2-.33-.02-.13,.01-.27,.09-.37,4.18-5.75,7.42-10.1,10.49-14.09,1.67-2.18,3.59-4.24,5.44-6.24,2.81-3.03,5.69-6.14,7.85-9.76,.1-.16,.28-.26,.46-.23,.19,.02,.34,.15,.41,.33,3.95,11.55,5.77,22.23,5.58,32.67-.07,3.71-.36,7.43-.86,11.08-.02,.14-.1,.27-.22,.35-.08,.05-.17,.08-.26,.08Zm-27.81-13.99c8.32,5.83,17.78,9.32,26.15,12.4,.42,.16,.84,.3,1.26,.45,.45-3.42,.71-6.91,.77-10.38,.18-10.03-1.52-20.29-5.2-31.35-2.14,3.33-4.81,6.22-7.41,9.02-1.86,2.01-3.76,4.06-5.4,6.2-3,3.9-6.15,8.12-10.18,13.66Zm-48.19,3.52c-.09,0-.19-.03-.27-.09-7.39-5.17-15.17-10.81-21.9-17.1-.17-.16-.21-.42-.09-.63,.31-.5,.62-1.01,.94-1.51,.04-.06,.09-.12,.16-.16,.06-.04,.08-.06,.09-.07,9.06-13.48,21.81-22.73,36.86-26.75,1.66-.45,3.42-.82,5.25-1.12,.26-.05,.51,.13,.55,.4,1.33,7.22,3.77,14.68,7.05,21.59,.11,.23,.03,.51-.18,.64-11.93,7.39-21.37,15.67-28.07,24.61-.1,.13-.24,.19-.39,.19Zm-21.22-17.64c6.51,6.02,13.98,11.47,21.12,16.47,6.68-8.81,15.99-16.96,27.68-24.25-3.15-6.72-5.51-13.94-6.85-20.96-1.63,.28-3.21,.63-4.7,1.03-14.83,3.97-27.38,13.08-36.31,26.36-.07,.11-.17,.2-.28,.29-.22,.36-.44,.71-.66,1.07Zm67.5,13.82c-.1,0-.2-.03-.29-.1-3.47-2.62-6.48-5.55-8.94-8.68-2.63-3.36-5.09-7.34-7.31-11.82-.12-.23-.03-.52,.19-.65,2.82-1.71,5.77-3.36,8.75-4.89,8.83-4.52,18.92-6.72,30.83-6.72h.89c.2,0,.38,.13,.45,.33l.26,.72c.05,.13,.04,.28-.03,.41-2.17,4.05-5.33,7.46-8.39,10.76-1.86,2.01-3.78,4.08-5.5,6.31-3.1,4.03-6.34,8.38-10.51,14.12-.1,.13-.24,.2-.39,.2Zm-15.47-20.63c2.13,4.25,4.49,8.03,7,11.23,2.31,2.95,5.13,5.71,8.37,8.21,4.04-5.55,7.21-9.8,10.24-13.75,1.74-2.26,3.77-4.45,5.56-6.38,2.97-3.2,6.03-6.51,8.14-10.36l-.07-.19h-.54c-11.76,0-21.7,2.16-30.4,6.61-2.82,1.45-5.61,3-8.3,4.61Zm-1.31-1.08s-.09,0-.14-.02c-.13-.04-.24-.13-.3-.26-3.22-6.81-5.62-14.16-6.93-21.26-.02-.13,0-.27,.08-.38,.08-.11,.2-.18,.33-.2,2.85-.39,5.83-.59,8.85-.59,11.37,0,23.55,2.85,34.31,8.02,1.32,.63,2.62,1.34,3.87,2.1,.19,.11,.28,.34,.22,.56-.06,.21-.25,.36-.47,.36-11.96,.04-22.07,2.25-30.9,6.77-2.92,1.5-5.85,3.12-8.68,4.84-.08,.05-.16,.07-.25,.07Zm-6.32-21.21c1.29,6.69,3.54,13.59,6.53,20.02,2.71-1.62,5.49-3.17,8.28-4.6,8.52-4.36,18.2-6.61,29.53-6.85-.74-.41-1.49-.8-2.24-1.16-10.63-5.11-22.67-7.92-33.89-7.92-2.8,0-5.56,.17-8.21,.52Zm50.25,10.43c-.1,0-.2-.03-.28-.09l-.36-.26c-.15-.11-.23-.29-.2-.48,.02-.12-.04-.24-.15-.29-.08-.03-.17-.03-.24,.01-.16,.1-.37,.09-.53-.02-.04-.03-.08-.06-.12-.08-.23-.13-.31-.43-.18-.67,.35-.65,.75-1.42,1.2-2.29,2.72-5.2,7.77-14.88,11.59-17.15,2.73-1.61,3.99-1.95,4.58-1.95,.09,0,.15,0,.18,.01,.18,0,.29,.1,.37,.26,.07,.13,.1,.29,.1,.47,0,1.88-4.27,8.22-8.22,13.01-1.03,1.25-2,2.58-2.86,3.76-1.45,1.99-2.82,3.87-4.54,5.62-.09,.09-.22,.14-.34,.14Zm-.84-2.11c.08,.02,.15,.04,.23,.08,.33,.15,.57,.43,.68,.76,1.48-1.58,2.72-3.28,4.03-5.07,.86-1.19,1.84-2.53,2.9-3.81,4.28-5.18,7.54-10.38,7.95-12.07-.52,.12-1.62,.51-3.73,1.77-3.58,2.12-8.55,11.64-11.22,16.76-.3,.58-.58,1.11-.84,1.59Z"/></g><g><path class="cls-6" d="M182.41,103.08c1.2,12.22,.14,29.49-11.08,44.15-.02-.03-.05-.05-.07-.08-1.79-1.48-3.83-2.88-5.8-4.24-1.53-1.05-3.11-2.14-4.58-3.27-3.76-2.88-7.56-5.84-11.38-8.81-.58-.45-1.16-.9-1.74-1.36,6.76-9.51,11.33-20.96,13.33-33.57,5.48,1.67,11.1,2.66,16.56,3.62,1.49,.26,2.98,.53,4.47,.8,.11,.93,.2,1.85,.29,2.74Z"/><path class="cls-3" d="M171.33,147.72h0c-.15,0-.29-.07-.38-.19-1.81-1.5-3.91-2.94-5.76-4.21-1.56-1.07-3.13-2.16-4.6-3.28-3.41-2.62-6.86-5.3-10.32-7.99l-2.8-2.18c-.21-.16-.25-.47-.1-.68,6.69-9.41,11.27-20.94,13.24-33.35,.02-.14,.1-.27,.22-.34,.12-.07,.26-.1,.4-.06,5.44,1.66,11.05,2.65,16.48,3.6,1.52,.27,3.01,.53,4.5,.81,.21,.04,.37,.21,.39,.43,.11,.93,.2,1.85,.29,2.75,1.19,12.09,.21,29.62-11.18,44.5-.09,.12-.23,.19-.38,.19Zm-22.91-18.35l2.43,1.89c3.46,2.69,6.9,5.37,10.31,7.99,1.45,1.11,3.02,2.19,4.53,3.23,1.79,1.23,3.78,2.6,5.56,4.03,10.9-14.54,11.83-31.59,10.67-43.39-.08-.78-.16-1.57-.25-2.37-1.37-.25-2.74-.5-4.11-.74-5.3-.93-10.76-1.89-16.09-3.47-2.01,12.18-6.52,23.51-13.05,32.83Z"/></g><g><path class="cls-6" d="M181.93,98.73c-1.34-.25-2.68-.48-4.03-.72-5.48-.97-11.12-1.96-16.58-3.64,.53-3.73,.83-7.56,.9-11.46,.2-10.94-1.79-22.18-6.07-34.31,.05-.1,.1-.21,.15-.31,.05,.04,.1,.07,.14,.11,.02,.15,.09,.29,.19,.4,.15,.16,.35,.25,.55,.25,.04,0,.07,0,.11,0,3.78,2.94,7.05,6.53,9.98,10.93-.04,.22,.01,.45,.16,.63,9.68,11.7,12.99,26.04,14.49,38.13Z"/><path class="cls-3" d="M181.93,99.22s-.06,0-.09,0c-1.34-.25-2.68-.49-4.02-.72-5.47-.96-11.13-1.96-16.64-3.65-.23-.07-.37-.3-.34-.54,.53-3.73,.83-7.56,.9-11.4,.2-10.89-1.78-22.05-6.05-34.14-.04-.12-.04-.26,.02-.38,.05-.11,.11-.22,.16-.33,.07-.13,.18-.22,.32-.25,.14-.03,.28,0,.4,.08l.14,.1c.11,.08,.18,.2,.2,.33,0,.05,.03,.1,.07,.14,.07,.07,.15,.09,.2,.09,.14-.03,.29,0,.4,.09,3.81,2.97,7.11,6.58,10.08,11.04,.07,.11,.1,.24,.08,.36,0,.05-.01,.14,.05,.22,10.33,12.49,13.28,27.79,14.59,38.26,.03,.06,.04,.13,.04,.2,0,.28-.2,.48-.49,.49h0Zm-20.07-5.2c5.33,1.6,10.82,2.57,16.13,3.5,1.13,.2,2.25,.4,3.38,.6-1.33-10.33-4.31-25.13-14.3-37.21-.19-.23-.29-.52-.29-.82-2.85-4.25-6.01-7.71-9.63-10.56-.05,0-.1,0-.15-.02,4.04,11.78,5.92,22.72,5.72,33.4-.07,3.73-.35,7.46-.85,11.1Z"/></g><g><path class="cls-4" d="M172.72,24.84c.03,.06,.04,.14,.04,.23,0,1.54-3.67,7.31-8.11,12.69-1.03,1.24-1.97,2.54-2.88,3.78-1.44,1.97-2.81,3.85-4.49,5.56-.12-.09-.24-.18-.36-.27,.05-.34-.12-.68-.44-.82-.23-.1-.48-.08-.68,.04-.05-.04-.1-.07-.16-.11,.35-.65,.75-1.42,1.21-2.29,2.69-5.16,7.71-14.76,11.41-16.95,3.62-2.14,4.42-1.87,4.46-1.87Z"/><path class="cls-3" d="M157.29,47.61c-.1,0-.2-.03-.28-.09l-.36-.26c-.15-.11-.23-.29-.2-.48,.02-.12-.04-.24-.15-.29-.08-.04-.17-.03-.24,.01-.16,.1-.37,.09-.53-.02-.04-.03-.08-.06-.12-.08-.23-.13-.31-.43-.18-.67,.35-.65,.75-1.42,1.2-2.29,2.72-5.2,7.77-14.88,11.59-17.15,2.73-1.61,3.99-1.95,4.58-1.95,.09,0,.15,0,.18,.01,.18,0,.29,.1,.37,.26,.07,.13,.1,.29,.1,.47,0,1.88-4.27,8.22-8.22,13.01-1.03,1.25-2,2.58-2.86,3.76-1.45,1.99-2.82,3.87-4.54,5.62-.09,.09-.22,.14-.34,.14Zm-.84-2.11c.08,.02,.15,.04,.23,.08,.33,.15,.57,.43,.68,.76,1.48-1.58,2.72-3.28,4.03-5.07,.86-1.19,1.84-2.53,2.9-3.81,4.28-5.18,7.54-10.38,7.95-12.07-.52,.12-1.62,.51-3.73,1.77-3.58,2.12-8.55,11.64-11.22,16.76-.3,.58-.58,1.11-.84,1.59Z"/></g><g><path class="cls-6" d="M170.31,148.35s.06,.04,.09,.06c-.4,.5-.82,.99-1.25,1.49-6.14,7.03-13.97,10.94-20.81,13.84-.23,.1-.39,.31-.44,.54-1.52,.63-3.09,1.15-4.71,1.69-1.14,.37-2.29,.75-3.43,1.17-7.09,2.62-13.09,3.7-19,3.84-1.34-5.91-4.29-10.64-7.41-15.64l-.73-1.18c7.07-1.84,14.02-4.86,20.93-10.04,5.05-3.79,9.5-8.3,13.31-13.41,.58,.45,1.15,.9,1.73,1.34,3.82,2.97,7.62,5.93,11.38,8.82,1.5,1.15,3.1,2.25,4.65,3.32,2.04,1.4,3.96,2.72,5.69,4.16Z"/><path class="cls-3" d="M120.77,171.48c-.23,0-.42-.16-.47-.38-1.32-5.85-4.25-10.53-7.34-15.48l-.73-1.18c-.08-.13-.1-.3-.04-.45,.06-.15,.18-.26,.33-.3,7.73-2.01,14.52-5.27,20.76-9.96,4.94-3.71,9.39-8.19,13.21-13.31,.16-.22,.46-.26,.68-.09l2.49,1.94c3.56,2.77,7.11,5.53,10.61,8.22,1.48,1.13,3.06,2.22,4.58,3.27,2.1,1.44,4.03,2.77,5.77,4.21,.12,.07,.22,.21,.25,.35,.02,.14,0,.3-.09,.41-.41,.5-.82,1-1.26,1.5-6.21,7.11-14.09,11.05-20.99,13.97-.08,.03-.14,.11-.16,.2-.04,.16-.14,.29-.29,.35-1.55,.64-3.17,1.18-4.74,1.7-1.15,.38-2.29,.75-3.41,1.17-6.72,2.49-12.8,3.72-19.15,3.87h-.01Zm-7.37-17l.38,.6c3.07,4.92,5.98,9.57,7.38,15.4,6.1-.19,11.97-1.4,18.45-3.8,1.13-.42,2.29-.8,3.4-1.17,1.53-.5,3.06-1.01,4.52-1.6,.13-.28,.36-.5,.64-.62,6.79-2.88,14.56-6.76,20.64-13.72,.31-.36,.62-.72,.91-1.08-1.62-1.32-3.43-2.56-5.34-3.87-1.6-1.1-3.19-2.2-4.69-3.35-3.51-2.69-7.05-5.45-10.62-8.22l-2.11-1.64c-3.81,5.04-8.22,9.45-13.11,13.12-6.17,4.64-12.87,7.9-20.45,9.95Z"/></g><g><path class="cls-6" d="M155.17,50.39c3.92,11.47,5.74,22.13,5.55,32.5-.07,3.75-.36,7.43-.86,11.02-.61-.2-1.22-.41-1.83-.64-8.41-3.1-18.24-6.72-26.68-12.75,3.44-4.73,6.94-9.48,10.48-14.08,1.67-2.17,3.58-4.24,5.43-6.23,2.83-3.05,5.72-6.18,7.89-9.81Z"/><path class="cls-3" d="M159.86,94.4s-.1,0-.15-.02c-.62-.2-1.23-.41-1.84-.64-8.14-3-18.27-6.72-26.79-12.81-.11-.08-.18-.19-.2-.33-.02-.13,.01-.27,.09-.37,4.18-5.75,7.42-10.1,10.49-14.09,1.67-2.18,3.59-4.25,5.44-6.25,2.81-3.03,5.69-6.14,7.85-9.76,.1-.16,.28-.26,.46-.23,.19,.02,.34,.15,.41,.33,3.95,11.55,5.77,22.23,5.58,32.67-.07,3.71-.36,7.43-.86,11.08-.02,.14-.1,.27-.22,.35-.08,.05-.17,.08-.26,.08Zm-27.81-13.99c8.32,5.83,17.78,9.32,26.15,12.4,.42,.16,.84,.3,1.26,.45,.45-3.42,.71-6.91,.77-10.38,.18-10.03-1.52-20.29-5.2-31.35-2.14,3.33-4.81,6.22-7.41,9.02-1.86,2.01-3.76,4.06-5.4,6.2-3,3.9-6.15,8.12-10.18,13.66Z"/></g><g><path class="cls-6" d="M157.52,94.72c.7,.26,1.4,.5,2.11,.73-1.94,12.43-6.42,23.73-13.07,33.09-10.79-8.39-21.85-16.9-32.57-24.09,3.84-5.17,7.61-10.4,11.31-15.54,1.7-2.37,3.43-4.75,5.17-7.15,8.59,6.15,18.55,9.82,27.06,12.96Z"/><path class="cls-3" d="M146.56,129.04c-.11,0-.21-.04-.29-.1-11.06-8.6-21.88-16.91-32.55-24.06-.11-.08-.19-.19-.21-.33-.02-.14,.01-.27,.09-.38,3.68-4.95,7.15-9.76,11.3-15.53l.34-.47c1.6-2.21,3.21-4.45,4.83-6.69,.16-.22,.45-.27,.67-.11,8.55,6.12,18.32,9.72,26.95,12.89,.69,.26,1.39,.5,2.09,.73,.23,.07,.37,.31,.33,.55-1.94,12.4-6.49,23.91-13.16,33.3-.08,.11-.19,.18-.32,.2-.02,0-.05,0-.07,0Zm-31.87-24.7c10.42,7.02,20.98,15.12,31.77,23.51,6.35-9.08,10.71-20.14,12.63-32.05-.58-.19-1.16-.4-1.73-.61-8.55-3.15-18.23-6.71-26.79-12.74-1.53,2.11-3.05,4.22-4.55,6.3l-.34,.47c-4.04,5.61-7.43,10.31-11,15.12Z"/></g><g><path class="cls-6" d="M154.24,47.76c.09,.24,.17,.48,.26,.72-2.13,3.97-5.27,7.36-8.32,10.66-1.88,2.03-3.81,4.12-5.53,6.34-3.55,4.63-7.07,9.39-10.52,14.13-3.24-2.45-6.25-5.27-8.85-8.59-2.64-3.37-5.1-7.38-7.26-11.73,3.22-1.95,6.2-3.58,8.72-4.87,8.96-4.59,19.28-6.77,31.5-6.66Z"/><path class="cls-3" d="M130.13,80.11c-.1,0-.2-.03-.29-.1-3.47-2.62-6.48-5.55-8.94-8.68-2.63-3.36-5.09-7.34-7.31-11.82-.12-.23-.03-.52,.19-.65,2.82-1.71,5.77-3.36,8.75-4.89,8.83-4.52,18.92-6.72,30.83-6.72h.89c.2,0,.38,.13,.45,.33l.26,.72c.05,.13,.04,.28-.03,.41-2.17,4.05-5.33,7.46-8.39,10.76-1.86,2.01-3.78,4.08-5.5,6.31-3.1,4.03-6.34,8.38-10.51,14.12-.1,.13-.24,.2-.39,.2Zm-15.47-20.63c2.13,4.25,4.49,8.03,7,11.23,2.31,2.95,5.13,5.71,8.37,8.21,4.04-5.55,7.21-9.8,10.24-13.75,1.74-2.26,3.77-4.45,5.56-6.38,2.97-3.2,6.03-6.51,8.14-10.36l-.07-.19h-.54c-11.76,0-21.7,2.16-30.4,6.61-2.82,1.45-5.61,3-8.3,4.61Z"/></g><g><path class="cls-6" d="M149.35,44.14c1.33,.64,2.6,1.34,3.83,2.08-12,.04-22.2,2.26-31.12,6.82-2.52,1.29-5.49,2.91-8.71,4.85-3.13-6.63-5.57-13.99-6.89-21.14,13.53-1.87,29.07,.74,42.89,7.38Z"/><path class="cls-3" d="M113.36,58.39s-.09,0-.14-.02c-.13-.04-.24-.13-.3-.26-3.22-6.81-5.62-14.16-6.93-21.26-.02-.13,0-.27,.08-.38,.08-.11,.2-.18,.33-.2,2.85-.39,5.83-.59,8.85-.59,11.37,0,23.55,2.85,34.31,8.02,1.32,.63,2.62,1.34,3.87,2.1,.19,.11,.28,.34,.22,.56-.06,.21-.25,.36-.47,.36-11.96,.04-22.07,2.25-30.9,6.77-2.93,1.5-5.85,3.12-8.68,4.84-.08,.05-.16,.07-.25,.07Zm-6.32-21.21c1.29,6.69,3.54,13.59,6.53,20.02,2.71-1.62,5.49-3.17,8.28-4.6,8.52-4.36,18.2-6.61,29.53-6.85-.74-.41-1.49-.8-2.24-1.16-10.63-5.11-22.67-7.92-33.89-7.92-2.8,0-5.56,.17-8.21,.52Z"/></g><g><path class="cls-5" d="M144.02,217.32c.13,1.66-.4,3.02-1.65,4.15-5.61,5.13-22.84,3.66-27.21,2.78-5.8-1.15-9.14-2.96-9.16-4.95-.03-2.69,5.52-6.05,12.71-7.74,.01,.82,.01,1.64-.02,2.47,0,.06,0,.11,.01,.16-.03,.22,.03,.46,.19,.64,1.61,1.78,3.74,2.79,5.9,2.79,.08,0,.16,0,.24,0,1.94-.07,3.73-.97,5.08-2.55,.36-.05,.64-.35,.65-.74,.02-.95,.03-1.9,.04-2.85,5.49,.08,12.8,.78,13.21,5.82Z"/><path class="cls-3" d="M126.35,225.63c-4.67,0-9.13-.46-11.29-.9-6.13-1.22-9.53-3.15-9.55-5.43-.04-3.38,6.55-6.7,13.08-8.22,.14-.03,.29,0,.41,.09,.12,.09,.18,.23,.19,.38,.01,.83,.01,1.66-.02,2.49,0,.05,.01,.17,0,.22-.01,.09,.01,.17,.07,.23,1.51,1.67,3.53,2.63,5.55,2.63h.22c1.8-.07,3.48-.91,4.74-2.38,.08-.09,.18-.15,.3-.16,.13-.02,.23-.13,.23-.26,.02-.94,.03-1.89,.04-2.84,0-.13,.05-.26,.15-.35,.09-.09,.21-.13,.35-.14,5.66,.08,13.24,.83,13.69,6.28,.15,1.83-.45,3.32-1.81,4.56-3.43,3.14-10.78,3.8-16.34,3.8Zm-8.13-13.44c-7.3,1.82-11.77,5.07-11.74,7.11,.01,1.32,2.33,3.19,8.77,4.47,1.77,.35,6.19,.88,11.11,.88,5.39,0,12.49-.62,15.69-3.54,1.14-1.04,1.61-2.23,1.49-3.74-.36-4.51-7.02-5.25-12.25-5.36,0,.79-.02,1.57-.04,2.36-.02,.55-.37,1.02-.88,1.17-1.43,1.6-3.31,2.52-5.32,2.59h-.26c-2.29,0-4.57-1.07-6.26-2.94-.24-.26-.35-.61-.32-.97,0-.06,0-.12,0-.18,.02-.61,.02-1.22,.02-1.83Z"/></g><g><path class="cls-6" d="M145.66,129.78c-3.72,4.99-8.07,9.4-13,13.11-6.94,5.21-13.8,8.17-20.87,9.95-4.72-7.59-10.38-16.38-18.15-22.03,3.35-4.46,6.85-8.98,10.49-13.52,3-3.75,5.95-7.6,8.86-11.5,.05,.05,.1,.09,.16,.14,.14,.13,.32,.19,.5,.19,.01,0,.03,0,.04,0,10.52,7.09,21.37,15.44,31.97,23.68Z"/><path class="cls-3" d="M111.8,153.33c-.16,0-.32-.08-.41-.23-5.04-8.11-10.59-16.48-18.02-21.89-.11-.08-.18-.2-.2-.33-.02-.13,.01-.27,.09-.37,3.34-4.45,6.87-9,10.5-13.54,2.74-3.42,5.63-7.18,8.85-11.49,.08-.11,.2-.18,.34-.19,.13,0,.27,.03,.37,.12l.16,.14c.05,.05,.13,.06,.21,.06,.1,0,.2,.02,.28,.08,10.48,7.06,21.11,15.24,31.99,23.7,.21,.16,.25,.48,.09,.69-3.77,5.07-8.18,9.51-13.09,13.2-6.47,4.86-13.15,8.05-21.04,10.03-.04,0-.08,.01-.12,.01Zm-17.46-22.63c7.28,5.45,12.73,13.62,17.68,21.57,7.61-1.96,14.09-5.07,20.36-9.78,4.71-3.54,8.95-7.78,12.6-12.62-10.69-8.31-21.15-16.34-31.44-23.28-.17-.02-.31-.06-.44-.12-3.11,4.16-5.92,7.8-8.58,11.13-3.51,4.39-6.93,8.79-10.18,13.11Z"/></g><g><path class="cls-2" d="M129.03,200.26c.17,4.42,.34,8.98,.24,13.48-.04,.03-.07,.06-.1,.1-1.11,1.41-2.56,2.19-4.19,2.25-1.7,.04-3.44-.71-4.78-2.09,.13-4.12-.27-8.04-.66-11.82-.4-3.94-.78-7.67-.62-11.62h.06c.7,.02,1.39,.03,2.08,.03,2.59,0,5.16-.14,7.71-.41,.02,3.39,.14,6.79,.27,10.08Z"/><path class="cls-3" d="M124.84,216.58c-1.79,0-3.61-.81-4.99-2.23-.09-.1-.15-.23-.14-.37,.13-4.1-.27-7.99-.66-11.76-.39-3.76-.78-7.65-.62-11.69,.01-.27,.22-.47,.48-.47,.77,.02,1.45,.03,2.14,.03,2.52,0,5.1-.14,7.66-.4,.14-.02,.27,.03,.37,.12,.1,.09,.16,.23,.16,.37,.02,3.37,.14,6.82,.27,10.06,.17,4.4,.34,8.96,.24,13.51,0,.14-.06,.27-.16,.36-1.24,1.57-2.82,2.41-4.6,2.48h-.15Zm-4.16-2.78c1.18,1.14,2.69,1.8,4.16,1.8h.12c1.48-.05,2.8-.77,3.82-2.06,.09-4.46-.08-8.93-.24-13.25-.12-3.08-.24-6.35-.27-9.56-2.98,.29-5.96,.41-8.9,.34-.11,3.79,.27,7.49,.64,11.06,.38,3.73,.78,7.59,.67,11.67Z"/></g><g><path class="cls-6" d="M129.23,80.86c-1.73,2.39-3.46,4.78-5.15,7.14-3.71,5.15-7.49,10.4-11.35,15.59-1.4-1.08-2.93-2.06-4.52-3.09-1.45-.93-2.94-1.89-4.34-2.94-4.71-3.53-9.74-7.01-14.6-10.37-1.38-.95-2.77-1.92-4.17-2.89,7.86-10.48,18.56-18.6,27.63-24.22,2.19,4.42,4.69,8.48,7.38,11.9,2.69,3.44,5.79,6.36,9.12,8.87Z"/><path class="cls-3" d="M112.73,104.09c-.1,0-.2-.03-.29-.1-1.39-1.07-2.89-2.04-4.48-3.06-1.37-.88-2.92-1.87-4.37-2.96-4.67-3.5-9.65-6.95-14.47-10.28l-.12-.08c-1.38-.95-2.77-1.92-4.17-2.89-.11-.08-.18-.2-.21-.33-.02-.13,.01-.27,.09-.38,6.63-8.83,15.97-17.02,27.76-24.34,.12-.07,.25-.09,.38-.05,.13,.04,.24,.13,.3,.25,2.22,4.47,4.69,8.45,7.32,11.82,2.49,3.18,5.53,6.14,9.03,8.78,.1,.08,.17,.2,.19,.33,.02,.13-.01,.26-.09,.37-1.73,2.39-3.45,4.78-5.15,7.14-3.48,4.83-7.42,10.31-11.35,15.59-.1,.13-.24,.2-.39,.2Zm-26.93-19.89c1.25,.87,2.5,1.73,3.74,2.59l.12,.08c4.83,3.34,9.82,6.8,14.5,10.3,1.42,1.07,2.96,2.05,4.31,2.92,1.47,.95,2.86,1.84,4.17,2.82,3.83-5.16,7.66-10.49,11.05-15.19,1.6-2.23,3.23-4.49,4.87-6.75-3.41-2.62-6.38-5.54-8.83-8.67-2.58-3.3-5-7.17-7.19-11.51-11.3,7.07-20.29,14.94-26.74,23.41Z"/></g><g><path class="cls-6" d="M112.09,156.18c2.99,4.78,5.82,9.32,7.14,14.83-6.62-.02-13.22-1.14-21.19-2.5l-2.63-.44c-.16-.03-.31,0-.45,.06-6.26-2.01-12.24-5.15-18.98-9.97,3.63-.31,7.19-.53,10.63-.73,8.36-.49,16.5-.98,24.48-2.87,.05,.08,.1,.17,.15,.25l.85,1.37Z"/><path class="cls-3" d="M119.22,171.5h0c-6.7-.02-13.45-1.17-21.27-2.5l-2.63-.44c-.09,0-.13,0-.17,.02-.11,.05-.23,.06-.35,.02-6.28-2.01-12.35-5.2-19.12-10.03-.17-.12-.24-.33-.19-.53,.05-.2,.22-.35,.43-.36,3.73-.32,7.4-.54,10.65-.73,8.07-.48,16.42-.97,24.4-2.86,.2-.05,.41,.04,.52,.23l1,1.61c2.99,4.79,5.82,9.31,7.17,14.85,.04,.07,.06,.16,.06,.25,0,.28-.2,.53-.49,.49h0Zm-23.95-3.94c.07,0,.15,0,.23,.02l2.61,.44c7.53,1.28,14.07,2.4,20.49,2.49-1.36-5.16-4.06-9.49-6.92-14.06l-.83-1.32c-7.95,1.84-16.22,2.33-24.22,2.8-2.84,.17-6.02,.36-9.27,.62,6.18,4.3,11.8,7.19,17.58,9.07,.11-.03,.22-.05,.33-.05Z"/></g><g><path class="cls-6" d="M104.97,36.98c1.36,7.34,3.86,14.9,7.09,21.71-9.23,5.71-20.17,14-28.2,24.74-7.67-5.36-15.29-10.94-21.85-17.05,.31-.5,.62-1.01,.93-1.51,.09-.05,.17-.12,.24-.21,9-13.38,21.65-22.56,36.59-26.56,1.69-.45,3.43-.82,5.21-1.12Z"/><path class="cls-3" d="M83.86,83.93c-.09,0-.19-.03-.27-.09-7.39-5.17-15.17-10.82-21.9-17.1-.17-.16-.21-.42-.09-.63,.31-.5,.62-1.01,.94-1.51,.04-.06,.09-.12,.16-.16,.06-.04,.08-.06,.09-.07,9.06-13.48,21.81-22.73,36.86-26.75,1.66-.45,3.42-.82,5.25-1.12,.26-.05,.51,.13,.55,.4,1.33,7.22,3.77,14.68,7.05,21.59,.11,.23,.03,.51-.18,.64-11.93,7.39-21.37,15.67-28.07,24.61-.1,.13-.24,.19-.39,.19Zm-21.22-17.64c6.51,6.02,13.98,11.47,21.12,16.47,6.68-8.81,15.99-16.96,27.68-24.25-3.15-6.72-5.51-13.94-6.85-20.96-1.63,.28-3.21,.63-4.7,1.03-14.83,3.97-27.38,13.08-36.31,26.36-.07,.11-.17,.2-.28,.29-.22,.36-.44,.71-.66,1.07Z"/></g><g><path class="cls-6" d="M107.41,101.81c1.56,1,3.06,1.97,4.41,3.01-2.91,3.89-5.86,7.75-8.85,11.49-3.67,4.58-7.2,9.14-10.57,13.63-1.45-.96-2.96-1.81-4.56-2.53-4.83-2.16-10.24-3.88-15.94-5.09,.87-11.65,3.73-22.2,8.5-30.8,1.15-2.07,2.43-4.06,3.81-5.98,1.41,.98,2.82,1.96,4.23,2.93,4.85,3.36,9.86,6.82,14.55,10.34,1.44,1.08,2.96,2.06,4.43,3Z"/><path class="cls-3" d="M92.4,130.43c-.09,0-.18-.03-.26-.08-1.48-.98-2.99-1.82-4.49-2.49-4.77-2.13-10.1-3.84-15.85-5.06-.24-.05-.4-.27-.38-.52,.88-11.79,3.84-22.51,8.56-31,1.1-1.98,2.39-4.01,3.84-6.03,.15-.21,.45-.27,.66-.12l4.36,3.02c4.81,3.33,9.78,6.77,14.43,10.25,1.45,1.08,3.01,2.09,4.4,2.98,1.5,.96,3.05,1.96,4.45,3.03,.1,.08,.17,.2,.19,.33,.02,.13-.02,.26-.09,.37-3.23,4.32-6.13,8.08-8.86,11.51-3.58,4.47-7.13,9.05-10.56,13.62-.09,.13-.24,.19-.38,.19Zm-19.99-8.51c5.66,1.23,10.91,2.92,15.62,5.03,1.42,.64,2.85,1.42,4.25,2.32,3.35-4.45,6.82-8.92,10.31-13.28,2.64-3.31,5.44-6.94,8.54-11.08-1.26-.94-2.65-1.83-3.99-2.69-1.4-.9-2.98-1.92-4.46-3.02-4.63-3.47-9.6-6.91-14.4-10.23l-3.98-2.76c-1.31,1.86-2.49,3.73-3.5,5.54-4.6,8.27-7.5,18.69-8.41,30.16Z"/></g><g><path class="cls-6" d="M92.73,132.04c7.41,5.38,12.92,13.8,17.51,21.18-7.56,1.71-15.36,2.18-23.73,2.68-3.53,.21-7.18,.43-10.92,.75,4.92-7.69,10.72-16.01,17.13-24.6Z"/><path class="cls-3" d="M75.6,157.13c-.17,0-.33-.09-.42-.24-.1-.16-.09-.37,.01-.52,4.93-7.7,10.7-15.99,17.15-24.63,.16-.21,.45-.26,.67-.1,7.35,5.34,12.74,13.46,17.64,21.31,.09,.14,.1,.31,.04,.45-.06,.15-.19,.26-.34,.29-7.59,1.72-15.47,2.19-23.8,2.69-3.43,.2-7.1,.42-10.9,.75-.01,0-.03,0-.04,0Zm17.23-24.41c-6.09,8.17-11.56,16.02-16.28,23.34,3.46-.28,6.8-.49,9.94-.67,8.05-.48,15.66-.93,22.97-2.52-4.66-7.45-9.79-15.05-16.63-20.16Z"/></g><g><path class="cls-6" d="M87.23,128.82c1.48,.66,2.89,1.46,4.25,2.35-6.38,8.55-12.15,16.83-17.05,24.49-2.36-11.01-3.22-21.78-2.63-31.79,5.52,1.19,10.77,2.86,15.44,4.95Z"/><path class="cls-3" d="M74.42,156.15s-.06,0-.09,0c-.19-.04-.34-.19-.39-.38-2.35-10.99-3.24-21.73-2.64-31.92,0-.14,.08-.28,.19-.36,.11-.09,.26-.12,.39-.09,5.63,1.21,10.86,2.89,15.54,4.98,1.44,.64,2.89,1.44,4.32,2.39,.11,.07,.19,.19,.21,.33,.02,.13-.01,.27-.09,.38-6.43,8.62-12.16,16.85-17.04,24.46-.09,.14-.24,.22-.41,.22Zm-2.18-31.68c-.51,9.57,.3,19.63,2.41,29.92,4.67-7.23,10.08-14.99,16.12-23.1-1.24-.79-2.5-1.47-3.74-2.02-4.47-2-9.44-3.61-14.79-4.8Z"/></g><g><path class="cls-6" d="M82.96,84.67c-1.4,1.95-2.7,3.98-3.87,6.08-4.86,8.75-7.78,19.46-8.68,31.27-6.47-1.27-13.27-1.89-19.98-1.79-.2-1.13-.36-2.26-.47-3.4-1.75-16.89,2.04-33.38,11.26-49.11,6.56,6.08,14.13,11.63,21.74,16.95Z"/><path class="cls-3" d="M70.4,122.52s-.06,0-.09,0c-6.52-1.28-13.22-1.89-19.88-1.78h0c-.23,0-.44-.17-.48-.41-.2-1.16-.36-2.32-.48-3.43-1.76-16.97,2.06-33.6,11.32-49.42,.07-.13,.2-.21,.35-.23,.14-.03,.29,.02,.4,.12,6.7,6.21,14.38,11.8,21.69,16.91,.11,.08,.18,.19,.2,.32,.02,.13,0,.27-.09,.38-1.44,2.02-2.73,4.05-3.84,6.04-4.74,8.52-7.72,19.26-8.62,31.06-.01,.14-.08,.27-.19,.35-.09,.07-.19,.1-.29,.1Zm-18.6-2.79c6.09,0,12.2,.58,18.16,1.71,.96-11.73,3.97-22.41,8.7-30.92,1.05-1.89,2.26-3.81,3.61-5.72-7.05-4.94-14.44-10.33-20.94-16.3-8.94,15.48-12.6,31.72-10.89,48.29,.1,.96,.23,1.95,.4,2.95,.33,0,.65,0,.98,0Z"/></g><g><path class="cls-4" d="M73.46,158.23c.26,.2,.52,.38,.78,.57-1.02,1.61-1.84,3.33-2.64,5-.81,1.69-1.64,3.44-2.66,5.02-2.2,3.39-7.83,9.72-9.47,9.11-.34-.12-.67-1.04-.47-3.21,.26-2.77,6.58-8.92,10.76-12.98,1.43-1.39,2.7-2.63,3.6-3.58,.03,.02,.06,.05,.1,.07Z"/><path class="cls-3" d="M59.72,178.47c-.15,0-.29-.02-.41-.07-.91-.33-.93-2.21-.78-3.72,.26-2.72,5.28-7.82,10.85-13.24,1.56-1.51,2.78-2.7,3.63-3.62,.16-.18,.43-.21,.63-.06l.11,.08,.78,.57c.21,.15,.27,.45,.13,.67-1.01,1.59-1.82,3.3-2.61,4.95-.81,1.71-1.66,3.47-2.69,5.07-1.82,2.8-7.29,9.38-9.62,9.38Zm13.7-19.66c-.85,.89-1.97,1.98-3.32,3.29-3.91,3.81-10.36,10.09-10.61,12.67-.21,2.25,.19,2.72,.2,2.72h.04c1.46-.01,6.42-5.26,8.81-8.95,1-1.54,1.83-3.28,2.63-4.95,.74-1.55,1.5-3.14,2.42-4.66l-.16-.12Z"/></g><g><path class="cls-6" d="M70.3,123.56c-.62,10.18,.24,21.14,2.63,32.34-11.82-9.2-19.56-21.14-22.22-34.14,6.57-.08,13.24,.54,19.58,1.8Z"/><path class="cls-3" d="M72.95,156.4s-.01,0-.02,0c-.1,0-.21-.03-.29-.1-11.95-9.31-19.69-21.21-22.4-34.43-.03-.14,0-.3,.1-.41,.09-.12,.23-.18,.37-.19,6.6-.08,13.23,.53,19.68,1.81,.24,.05,.41,.27,.39,.52-.62,10.26,.25,21.05,2.59,32.07,.04,.07,.06,.15,.06,.24,0,.27-.22,.49-.48,.49Zm-21.64-34.14c2.68,12.36,9.87,23.53,20.87,32.43-2.14-10.55-2.95-20.87-2.39-30.71-6.06-1.17-12.27-1.76-18.48-1.71Z"/></g></g></svg>