<?xml version="1.0" encoding="UTF-8"?><svg id="_ëîé_1" xmlns="http://www.w3.org/2000/svg" viewBox="0 0 250 250"><defs><style>.cls-1{fill:#fff;}.cls-2{fill:#282828;}.cls-3{fill:#34d679;}</style></defs><g id="laboratory_flask"><path class="cls-1" d="M198.82,195.83c-1-1.76-2.02-3.44-2.86-4.82-1.5-2.47-2.96-4.99-4.72-8.04-2.49-4.31-5.06-8.76-7.74-12.88l-.06-.09c-.14-.21-.28-.41-.43-.6-1.62-2.62-3.17-5.28-4.61-7.77-1.17-2.03-2.34-4.07-3.54-6.07-1.17-1.97-2.37-3.96-3.59-5.97l-.03-.06s-.03-.04-.04-.07c-7.98-13.22-16.21-26.88-20.79-40.35,.08-2.48,.12-5.77,.07-7.87-.1-4.19-.36-8.43-.61-12.58v-.17c-.25-3.9-.5-7.89-.59-11.75,.61-.59,1.17-1.23,1.68-1.93,.46-.6,.86-1.23,1.18-1.91,.71-1.36,1.23-2.82,1.55-4.41,.14-.7,.21-1.42,.21-2.14,.88-6.67-1.36-11.27-3.49-14.04-1.35-1.74-2.93-3.07-4.64-4.12,3.59-2.71,6.27-6.63,7.54-11.41,2.17-8.08-.11-19.39-10.27-25.15-3.75-2.13-7.58-3.2-11.39-3.2-4.54,0-8.79,1.52-12.3,4.4-3.99,3.27-6.6,7.98-7.57,13.21-.53-.05-1.06-.09-1.59-.09-2.04,0-4.04,.4-5.91,1.17-5.46,2.24-9.41,7.46-10.07,13.3-.3,2.7,.12,5.35,1.15,7.75-4.56,2.31-7.57,6.2-8.96,11.65-1.19,4.69-.96,11.47,3.26,16.44,.45,.54,.94,1.04,1.47,1.5-.04,4.55-.26,9.45-.47,14.23-.19,4.22-.35,8.01-.44,11.67-.03,1.6,0,3.23,.06,4.77-6.83,9.68-11.97,20.58-16.96,31.19-2.81,5.98-5.72,12.16-8.76,17.65-.79,1.43-1.79,3.02-2.73,4.52l-.08,.12c-1.83,2.91-3.74,6.02-5.31,9.42-.18,.29-.35,.6-.5,.91-.04,.08-.08,.15-.11,.23-3.39,7.29-5.6,14.78-7.73,22.02-.96,3.27-1.8,6.03-2.67,8.71-.27,.62-.49,1.27-.65,1.94-.02,.09-.04,.18-.06,.28-.18,.64-.31,1.29-.38,1.94-2.42,13.85,4.22,24.37,17.84,28.19,2.31,.65,4.49,.94,6.23,1.16,8.13,2.78,16.95,3.42,25.31,3.42,1.77,0,3.55,.21,5.32,.21h.12c1.8,0,3.57-.29,5.29-.29,3.5,0,6.06-.03,8.31,.17,10.21,.92,19.19,1.31,27.45,1.31,7,0,13.52-.37,19.36-1.03,8.24-.94,16.64-2.2,23.03-3.18,.03,0,.07-.02,.1-.02,.3-.05,.6-.11,.89-.19,4.54-.35,8.28-1.41,11.38-3.21,5.8-3.38,9.51-8.35,10.74-14.38,1.86-9.16-2.61-17.82-6.9-23.7Z"/><g><path class="cls-3" d="M137.03,22.32c4.51,2.55,5.5,7.7,4.5,11.4-.86,3.22-3.59,6.64-8.55,6.58-3.26-.03-6.18-1.72-8.69-5.01,0-.09-.01-.18-.04-.27-1.55-4.75-.36-10.09,2.83-12.71,2.62-2.15,6.16-2.15,9.95,0Z"/><path class="cls-2" d="M133.09,40.81h-.11c-3.42-.03-6.48-1.79-9.09-5.21-.07-.09-.1-.2-.1-.31,0-.04,0-.08-.02-.11-1.61-4.94-.36-10.51,2.99-13.25,2.77-2.27,6.56-2.3,10.52-.05,4.75,2.68,5.78,8.09,4.74,11.98-.9,3.36-3.72,6.96-8.93,6.96Zm-8.31-5.71c2.39,3.09,5.15,4.67,8.2,4.69h.1c4.64,0,7.15-3.21,7.95-6.21,.95-3.52,.02-8.41-4.26-10.83-3.58-2.03-6.93-2.05-9.38-.05-3.04,2.49-4.16,7.6-2.67,12.16,.03,.08,.04,.16,.05,.24Z"/></g><g><path class="cls-3" d="M113.61,41.4c1.29,1.84,.43,3.06-.2,3.62-1.25,1.12-3.56,1.52-5.14,.47-.04-.17-.14-.33-.29-.44-1.53-1.07-1.73-2.37-1.63-3.26,.16-1.42,1.22-2.81,2.58-3.36,1.22-.51,2.52-.28,3.65,.63,.57,.46,.92,.87,1.14,1.34-.26,.27-.32,.69-.1,1Z"/><path class="cls-2" d="M110.42,46.61c-.9,0-1.74-.24-2.43-.69-.1-.07-.18-.17-.21-.29-.02-.09-.07-.13-.1-.15-1.73-1.22-1.96-2.7-1.84-3.73,.18-1.6,1.37-3.15,2.89-3.77,1.37-.57,2.9-.31,4.16,.71,.65,.52,1.03,.98,1.28,1.52,.09,.19,.05,.41-.1,.56-.08,.09-.13,.23-.05,.36,1.57,2.24,.33,3.75-.27,4.29-.84,.76-2.09,1.21-3.33,1.21Zm-1.73-1.45c1.24,.73,3.3,.46,4.38-.51,.9-.8,.94-1.79,.12-2.95-.28-.39-.3-.91-.08-1.33-.18-.3-.46-.58-.86-.91-.97-.79-2.09-.99-3.14-.56-1.2,.49-2.13,1.7-2.27,2.95-.12,1.11,.35,2.05,1.42,2.79,.19,.13,.33,.31,.42,.52Z"/></g><g><path class="cls-1" d="M140.76,59.8c1.38,1.78,1.5,4.41,.38,7.8-.7,.97-1.9,1.21-3.74,1.49-.36,.05-.73,.11-1.1,.17-6.45,1.11-13.13,.73-19.58,.35-4.9-.28-9.95-.54-14.92-.19-.15-.13-.36-.2-.57-.18-.96,.08-1.7-.19-2.25-.84-1.09-1.28-1.2-3.76-.74-5.54,.9-3.56,2.72-4.35,6.72-4.85,.07-.01,.12-.04,.18-.06,6.21-1.11,11.77-1.75,18.2-1.31,1.01,.07,2.27,.07,3.6,.08,4.85,.02,11.48,.05,13.83,3.08Z"/><path class="cls-2" d="M126.63,70.49c-3.35,0-6.7-.2-9.94-.38-3.29-.19-6.51-.36-9.72-.36-1.85,0-3.53,.06-5.13,.17-.13,.01-.26-.03-.36-.12-.04-.03-.1-.07-.17-.07-.16,.01-.27,.02-.39,.02-.96,0-1.74-.35-2.32-1.03-1.25-1.48-1.32-4.15-.85-6,.97-3.83,2.99-4.7,7.15-5.22,.03-.01,.13-.05,.16-.06,5.69-1.02,9.93-1.46,14.18-1.46,1.37,0,2.76,.05,4.14,.14,1.01,.07,2.31,.07,3.57,.08,4.95,.02,11.73,.05,14.22,3.28,1.48,1.92,1.64,4.7,.46,8.27-.02,.05-.04,.09-.07,.14-.81,1.13-2.14,1.4-4.08,1.69-.36,.05-.72,.1-1.09,.17-2.89,.5-6.08,.74-9.76,.74Zm-19.65-1.75c3.23,0,6.47,.17,9.78,.36,3.22,.19,6.56,.38,9.88,.38,3.62,0,6.75-.24,9.59-.73,.38-.06,.75-.12,1.11-.17,1.69-.25,2.77-.46,3.36-1.22,1.04-3.19,.93-5.63-.32-7.26-2.2-2.84-8.69-2.87-13.43-2.89-1.27,0-2.59-.01-3.63-.08-1.36-.09-2.73-.14-4.07-.14-4.19,0-8.38,.43-14,1.44,0,.01-.09,.05-.2,.06-3.94,.49-5.49,1.24-6.31,4.47-.41,1.62-.33,3.95,.64,5.09,.44,.52,1.02,.73,1.82,.67,.01,0,.1,0,.12,0,.22,0,.44,.06,.64,.17,1.58-.11,3.22-.16,5.03-.16Z"/></g><g><path class="cls-1" d="M90.87,197.28c.98,.52,2.05,1.65,1.58,4.06-.04,.21,0,.43,.12,.59-.25,1.03-1,1.58-1.71,1.86-1.78,.7-4.51,.22-5.85-1.52-.8-1.75-.68-3.22,.37-4.26,1.3-1.29,3.81-1.63,5.49-.73Z"/><path class="cls-2" d="M89.11,204.61c-1.81,0-3.53-.78-4.49-2.02-.02-.03-.04-.06-.06-.1-1.13-2.48-.36-3.99,.48-4.83,.87-.87,2.25-1.38,3.69-1.38,.88,0,1.71,.19,2.39,.56,.93,.49,2.4,1.75,1.84,4.61-.02,.1,.02,.18,.04,.21,.08,.12,.11,.26,.07,.4-.32,1.29-1.27,1.91-2.02,2.21-.57,.23-1.24,.35-1.94,.35Zm-3.66-2.6c.78,.98,2.18,1.59,3.66,1.59,.57,0,1.11-.1,1.57-.28,.7-.27,1.15-.72,1.36-1.33-.1-.23-.13-.49-.08-.74,.33-1.69-.11-2.88-1.32-3.52-1.42-.76-3.8-.44-4.89,.65-.88,.88-.98,2.1-.29,3.64Z"/></g><g><path class="cls-1" d="M102.26,168.66c1.77,1.41,2.33,2.66,1.93,4.32-.03,.13-.02,.26,.01,.39-.49,2.73-3.14,5.75-5.82,6.39-1.85,.44-3.26-.34-4.2-2.31h0c-1.77-3.1-.67-6.86,1.48-8.77,.94-.83,3.46-2.5,6.59-.02Z"/><path class="cls-2" d="M97.42,180.38c-1.58,0-2.82-.9-3.68-2.69h0c-1.9-3.32-.68-7.39,1.59-9.39,.61-.54,1.89-1.45,3.6-1.45,1.24,0,2.46,.48,3.64,1.41,1.93,1.53,2.56,2.97,2.11,4.84,0,.03,0,.08,.01,.14,.02,.07,.02,.14,0,.22-.54,3.01-3.38,6.12-6.2,6.79-.37,.09-.74,.13-1.08,.13Zm-2.81-3.21s.02,.04,.03,.06c.84,1.76,2.01,2.42,3.62,2.03,2.4-.57,4.91-3.31,5.42-5.89-.03-.18-.03-.35,.01-.51,.35-1.46-.14-2.53-1.75-3.81-1-.79-2.01-1.2-3.02-1.2-1.37,0-2.42,.75-2.93,1.2-1.96,1.74-3.02,5.24-1.4,8.11Z"/></g><g><path class="cls-1" d="M130.57,191.06c2.07,3.38,2.15,7.56,.3,11.12-.12,.06-.22,.15-.3,.28-.73,1.26-1.62,1.94-2.74,2.82-.31,.24-.63,.49-.96,.76-2.5,2.05-5.3,2.92-8.12,2.53-2.72-.39-5.28-1.96-7.31-4.46,.01-.16,0-.33-.1-.48-2.48-3.98-2.79-8.16-.86-11.75,1.98-3.69,6.15-6.26,10.37-6.38,4.04-.11,7.44,1.86,9.72,5.57Z"/><path class="cls-2" d="M120.07,209.16c-.46,0-.93-.03-1.39-.1-2.86-.41-5.5-2.01-7.63-4.64-.08-.1-.12-.23-.11-.36,0-.08,0-.14-.03-.18-2.58-4.14-2.89-8.49-.87-12.26,2.06-3.85,6.4-6.52,10.81-6.65h.33c4.04,0,7.54,2.06,9.84,5.81,2.16,3.51,2.27,7.85,.32,11.61-.05,.09-.12,.16-.2,.21-.07,.04-.09,.07-.1,.09-.77,1.33-1.73,2.07-2.84,2.94-.33,.26-.65,.51-.98,.77-2.18,1.79-4.64,2.74-7.12,2.74Zm-8.13-5.24c1.95,2.34,4.33,3.77,6.88,4.14,2.65,.37,5.36-.48,7.73-2.42,.33-.27,.66-.53,.98-.77,1.14-.88,1.94-1.51,2.61-2.67,.09-.15,.2-.27,.35-.37,1.73-3.41,1.6-7.33-.34-10.5-2.14-3.49-5.25-5.33-8.98-5.33h-.3c-4.05,.12-8.05,2.58-9.94,6.12-1.84,3.43-1.54,7.42,.84,11.24,.11,.17,.16,.36,.18,.57Z"/></g><g><path class="cls-1" d="M189.5,203.77c2.29,3.29,5.22,8.61,4.26,13.32-.52,2.57-2.18,4.67-4.92,6.27-2.5,1.45-6.09,1.66-8.57,1.69-.28,0-.51,.16-.65,.38-6.15,.94-13.91,2.07-21.42,2.93-11.9,1.36-26.4,1.23-44.34-.39-4.64-.42-9.6-.37-14.84-.3-9.27,.1-18.82,.18-26.67-2.51-.13-.15-.3-.26-.51-.29-.19-.03-.39-.05-.58-.07-.07-.03-.15-.05-.23-.08-.16-.07-.33-.06-.49-.02-.07-.01-.14-.02-.21-.03-1.62-.2-3.28-.41-4.85-.84-7.86-2.21-10.71-7.09-8.94-15.32,1.17-3.48,2.23-7.06,3.26-10.54,1.87-6.33,3.82-12.84,6.48-18.89,.1-.08,.19-.18,.23-.3,1.33-3.61,3.48-7.03,5.56-10.34,1.07-1.71,2.18-3.47,3.15-5.22,3.26-5.89,6.27-12.29,9.19-18.49,5.34-11.34,10.85-23.07,18.23-32.49,.24-.31,.21-.74-.05-1.02-.01-.39-.03-.79-.05-1.22-.08-1.94-.17-4.14-.13-6.05,.08-3.64,.26-7.58,.43-11.38,.33-7.4,.66-15.04,.39-21.64,4.45-.22,8.98,.01,13.38,.27,3.3,.19,6.65,.39,10.01,.39s6.64-.19,9.93-.76c.18-.03,.35-.05,.52-.08-.17,6,.21,12.36,.59,18.52,.25,4.06,.51,8.25,.6,12.28,.05,2.41-.02,6.75-.13,8.71-.06,.16-.08,.34-.03,.51,0,.11-.02,.2-.03,.28-.04,.32,.11,.61,.37,.77,4.94,15.17,13.77,29.83,22.34,44.02,1.22,2.01,2.41,4,3.59,5.97,1.17,1.96,2.31,3.93,3.44,5.91,1.99,3.45,4.04,7.02,6.23,10.42,.05,.08,.13,.13,.2,.19,2.16,3.43,4.32,7.14,6.42,10.77,1.61,2.79,3.23,5.58,4.85,8.25,1.03,1.69,2.43,4,3.55,6.09,.09,.17,.24,.27,.41,.34Zm-12.17,9.14c1.35-3.63,.85-7.67-1.24-11.05-.03-.11-.08-.21-.15-.3-.05-.06-.09-.12-.14-.18-.3-.45-.64-.88-1.01-1.31-5.81-7.51-9.75-16.72-13.53-25.68-1.81-4.27-3.68-8.69-5.72-12.85l-.83-1.71c-1.65-3.39-3.35-6.89-5.48-9.75-.26-.35-.76-.42-1.11-.16-.29,.22-.38,.59-.26,.91-3.47,2.57-7.37,1.84-11.4,.75-2.99-.82-6.96-2.99-11.17-5.3-12-6.58-26.94-14.76-34.63-1.06-.22,.38-.08,.86,.29,1.07-2.86,8.85-7.13,17.66-11.28,26.19-3.04,6.25-6.19,12.72-8.74,19.13-1.16,2.91-2.51,5.73-3.86,8.47-.11,.09-.2,.21-.25,.36-.04,.13-.07,.24-.1,.37-.04,.07-.07,.15-.11,.22l-.14,.28c-.09,.18-.09,.38-.05,.55-1.05,4.13-.81,7.41,.77,9.96,3.1,5.02,11.02,6.3,18.01,7.43l1.42,.33c2.74,.46,5.58,1.08,8.47,1.08h.02c6.25,0,12.59,.57,18.75,.42,2.91-.07,5.92-.2,8.87-.17,4.39,.05,8.92,.43,13.3,.82,4.7,.42,9.53,.85,14.32,.85,1.37,0,2.73-.04,4.09-.12,3.86-.23,7.9-.95,11.8-1.64l2.09-.37s.06-.03,.09-.03c4.17-.9,7.45-3.63,8.91-7.53Z"/><path class="cls-2" d="M140.22,229.79c-7.9,0-16.54-.43-26.41-1.33-2.62-.24-5.51-.34-9.37-.34-1.77,0-3.58,.02-5.42,.04-1.71,.02-3.43,.04-5.14,.04-7.37,0-15.11-.31-21.7-2.58-.09-.03-.16-.08-.22-.15-.04-.05-.1-.1-.18-.11-.2-.03-.39-.05-.58-.07-.05,0-.1-.02-.15-.04-.11-.03-.16-.05-.2-.07-.1-.01-.13,0-.17,0-.07,.02-.14,.02-.21,.01l-.18-.02c-1.68-.21-3.35-.42-4.93-.86-8.07-2.27-11.11-7.47-9.29-15.91,1.21-3.62,2.3-7.31,3.27-10.58,2.04-6.9,3.93-13.09,6.51-18.95,.03-.07,.07-.13,.13-.18,.07-.06,.09-.09,.09-.1,1.35-3.66,3.51-7.1,5.6-10.43,1.1-1.76,2.19-3.49,3.14-5.2,3.25-5.87,6.26-12.26,9.16-18.44,5.35-11.38,10.88-23.13,18.3-32.6,.1-.12,.05-.27-.03-.36-.08-.09-.13-.21-.13-.33-.01-.39-.03-.79-.05-1.21v-.15c-.08-1.9-.17-4.05-.13-5.94,.08-3.57,.25-7.43,.42-11.17v-.23c.32-7,.68-14.94,.4-21.59-.01-.28,.2-.51,.48-.53,1.2-.06,2.43-.09,3.76-.09,3.23,0,6.42,.17,9.68,.36,3.26,.19,6.63,.39,9.98,.39,3.7,0,6.92-.25,9.84-.75l.54-.08c.15-.02,.3,.02,.41,.12,.11,.1,.17,.24,.17,.39-.18,6.09,.23,12.67,.59,18.47,.24,3.84,.51,8.2,.6,12.3,.05,2.35-.01,6.69-.14,8.75,0,.05-.01,.11-.03,.15-.04,.11-.02,.17-.02,.19,.02,.06,.02,.12,.02,.19l-.02,.25c-.02,.18,.05,.28,.13,.33,.1,.06,.18,.16,.21,.27,4.93,15.15,13.75,29.77,22.29,43.91l.08,.13c1.19,1.97,2.36,3.92,3.51,5.84,1.17,1.95,2.3,3.92,3.43,5.88l.13,.22c1.95,3.38,3.97,6.88,6.11,10.21l.09,.07s.08,.08,.12,.13c2.12,3.35,4.16,6.87,6.43,10.78,1.58,2.73,3.21,5.55,4.84,8.24,1.16,1.9,2.48,4.09,3.57,6.12,0,.02,.03,.06,.15,.11,.09,.04,.17,.1,.23,.18,2.52,3.62,5.31,8.94,4.34,13.71-.55,2.71-2.29,4.93-5.16,6.6-2.6,1.51-6.28,1.73-8.82,1.76-.13,0-.2,.1-.23,.14-.08,.12-.21,.21-.35,.23-5.44,.83-13.59,2.04-21.44,2.93-5.42,.62-11.48,.94-18.03,.94Zm-35.78-2.68c3.89,0,6.81,.11,9.46,.35,9.84,.89,18.45,1.32,26.32,1.32,6.51,0,12.54-.31,17.92-.93,7.74-.88,15.78-2.07,21.21-2.9,.24-.26,.57-.41,.92-.42,2.43-.03,5.94-.23,8.33-1.62,2.61-1.52,4.19-3.51,4.68-5.93,.89-4.37-1.72-9.36-4.1-12.82-.23-.12-.4-.29-.52-.5-1.08-2-2.39-4.18-3.54-6.07-1.64-2.7-3.27-5.53-4.85-8.26-2.24-3.88-4.27-7.36-6.36-10.68-.09-.07-.17-.15-.25-.26-2.16-3.35-4.18-6.86-6.14-10.26l-.11-.19c-1.15-1.99-2.28-3.96-3.44-5.9-1.15-1.92-2.32-3.87-3.51-5.84l-.08-.13c-8.53-14.14-17.36-28.76-22.33-43.97-.33-.28-.5-.71-.44-1.14l.02-.18c-.04-.21-.03-.43,.04-.65,.12-2.04,.18-6.34,.13-8.6-.1-4.09-.37-8.43-.6-12.26-.35-5.63-.74-11.99-.61-17.95-2.96,.5-6.21,.75-9.93,.75-3.38,0-6.77-.2-10.04-.39-3.24-.19-6.42-.35-9.62-.35-1.13,0-2.19,.02-3.21,.06,.24,6.59-.1,14.33-.41,21.18v.23c-.18,3.73-.35,7.58-.43,11.14-.04,1.85,.04,3.99,.12,5.87v.15c.02,.36,.04,.72,.05,1.06,.31,.46,.3,1.07-.05,1.51-7.35,9.38-12.85,21.08-18.17,32.39-2.92,6.22-5.94,12.63-9.2,18.52-.96,1.74-2.06,3.48-3.11,5.16-2.12,3.37-4.25,6.76-5.56,10.33-.07,.18-.18,.32-.29,.43-2.53,5.78-4.41,11.9-6.42,18.73-.97,3.27-2.06,6.97-3.26,10.56-1.69,7.87,1.04,12.55,8.59,14.67,1.51,.42,3.14,.62,4.72,.82,.07,0,.12,.01,.17,.02,.25-.05,.49-.03,.71,.06,.06,.02,.11,.03,.15,.05,.18,.02,.35,.04,.53,.07,.26,.03,.52,.16,.72,.35,6.43,2.18,14.01,2.48,21.25,2.48,1.71,0,3.42-.02,5.13-.04,1.85-.02,3.66-.04,5.44-.04Zm45.9-4c-4.9,0-9.93-.45-14.36-.85-4.52-.41-8.93-.77-13.26-.82h-.85c-1.95,0-3.93,.05-5.85,.11l-2.15,.06c-3.45,.08-7-.06-10.44-.2-2.73-.11-5.56-.22-8.32-.22-2.41,0-4.75-.41-7.01-.82-.53-.09-1.05-.19-1.57-.27l-1.45-.34c-7.07-1.14-15.1-2.45-18.32-7.66-1.64-2.65-1.92-6-.86-10.24-.04-.26,0-.53,.11-.76l.25-.52v-.04c.02-.08,.04-.17,.07-.26,.05-.18,.16-.35,.32-.51,1.29-2.63,2.64-5.44,3.8-8.35,2.55-6.42,5.7-12.89,8.75-19.15,3.89-7.98,8.27-17,11.16-25.82-.35-.4-.43-1-.15-1.48,2.91-5.17,6.98-7.69,12.43-7.69,7.27,0,15.57,4.55,22.89,8.56,4.18,2.29,8.13,4.45,11.06,5.25,1.87,.51,3.87,.98,5.76,.98,1.89,0,3.52-.48,4.95-1.46-.02-.42,.16-.83,.51-1.09,.57-.42,1.4-.29,1.82,.26,2.17,2.91,3.88,6.43,5.53,9.84l.83,1.7c2.02,4.11,3.87,8.47,5.66,12.69l.07,.18c3.56,8.43,7.6,17.99,13.47,25.57,.4,.47,.74,.91,1.03,1.33h0s.03,.04,.06,.08c.14,.18,.22,.32,.27,.47,2.18,3.56,2.63,7.72,1.25,11.43-1.51,4.05-4.89,6.91-9.27,7.85-.06,.03-.09,.04-.15,.04l-2.05,.36c-3.95,.7-7.99,1.41-11.86,1.64-1.36,.08-2.74,.13-4.12,.13Zm-28.48-2.69h.86c4.36,.05,8.8,.42,13.34,.83,5.65,.51,12.21,1.1,18.33,.72,3.82-.23,7.82-.94,11.7-1.62l2.14-.38c4.11-.9,7.23-3.53,8.61-7.25,1.28-3.44,.84-7.3-1.2-10.61-.03-.04-.05-.09-.06-.14-.01-.04-.03-.08-.06-.11l-.07-.09s-.09-.11-.1-.13c-.27-.39-.58-.81-.97-1.26-5.96-7.7-10.02-17.32-13.61-25.81l-.07-.18c-1.78-4.21-3.63-8.56-5.64-12.64l-.83-1.71c-1.63-3.36-3.32-6.84-5.43-9.67-.08-.11-.2-.21-.4-.06-.11,.08-.12,.22-.09,.33,.08,.21,0,.45-.17,.58-1.68,1.24-3.58,1.85-5.81,1.85-2.01,0-4.08-.49-6.03-1.02-3.05-.83-7.05-3.02-11.28-5.34-7.21-3.95-15.39-8.44-22.4-8.44-5.06,0-8.84,2.35-11.55,7.18-.08,.14-.03,.31,.1,.38,.21,.12,.3,.37,.23,.59-2.91,9-7.37,18.17-11.31,26.26-3.05,6.26-6.19,12.71-8.72,19.1-1.18,2.97-2.56,5.83-3.87,8.51-.03,.06-.07,.12-.12,.16-.05,.05-.08,.08-.09,.12-.03,.08-.04,.15-.06,.22l-.15,.4-.17,.34c-.03,.07-.02,.15-.01,.2,.02,.08,.02,.17,0,.26-1.02,4.01-.79,7.14,.71,9.57,2.98,4.82,10.77,6.08,17.64,7.2l1.47,.34c.49,.08,1.02,.17,1.55,.27,2.22,.39,4.51,.8,6.81,.8,2.8,0,5.64,.11,8.38,.23,3.43,.14,6.96,.28,10.38,.2l2.14-.06c1.93-.06,3.92-.12,5.88-.12Z"/></g><g><path class="cls-3" d="M174.53,202.33c2.05,3.04,2.56,6.67,1.31,10.02-1.4,3.74-4.73,6.26-8.93,6.75-.02,0-.04,.01-.06,.02l-.89,.16c-3.86,.68-7.85,1.39-11.63,1.61-5.99,.36-12.18-.2-18.17-.74-4.41-.4-8.97-.81-13.42-.85-2.98-.03-6,.04-8.93,.12-6.58,.17-13.39,.34-19.98-.7-.18-.03-.34,.02-.49,.1-2.15-.16-4.26-.5-6.48-.87l-1.42-.23c-6.65-1.08-14.19-2.3-16.91-6.7-1.45-2.34-1.55-5.5-.34-9.63,1.45-2.95,2.93-5.99,4.2-9.17,2.52-6.36,5.66-12.8,8.69-19.03,4.38-9.01,8.92-18.32,11.8-27.73,.07-.23,.02-.47-.11-.66,7.13-10.59,20.18-3.44,31.74,2.89,4.29,2.35,8.35,4.58,11.52,5.44,2.1,.57,4.26,1.07,6.39,1.07s4.28-.52,6.3-2c1.69,2.53,3.15,5.47,4.55,8.35l.84,1.71c2.03,4.11,3.89,8.51,5.69,12.77,3.78,8.95,7.71,18.16,13.55,25.78v.02s.06,.07,.09,.11c.37,.47,.71,.95,1.09,1.41Zm-42.73,1.46c2.62-4.22,2.66-9.42,.12-13.56-2.59-4.21-6.53-6.43-11.12-6.33-4.85,.14-9.45,2.97-11.73,7.21-2,3.73-1.9,7.97,.21,12.08-.11,.24-.11,.53,.06,.77,2.39,3.48,5.65,5.67,9.18,6.17,.52,.07,1.04,.11,1.56,.11,2.73,0,5.39-1.02,7.79-2.98,.32-.26,.63-.5,.93-.74,.91-.7,1.77-1.39,2.53-2.38,.19-.05,.36-.17,.47-.34Zm-26.51-31.44h0c0-2.36-1-3.87-2.34-4.94-2.78-2.21-5.94-2.17-8.48,.08-2.64,2.35-4.06,6.99-1.62,10.98,0,0,.05,0,.06,.02,1.04,1.93,2.63,2.97,4.51,2.97,.42,0,.58-.05,1.03-.16,3.76-.9,6.85-5.24,6.85-8.94Zm-13.85,32.92c2.16-.85,3.17-2.81,2.7-5.25,0,0,0-.01,0-.02-.08-1.82-.94-3.28-2.51-4.12-2.31-1.24-5.54-.79-7.35,1.01-1.4,1.39-1.71,3.35-.92,5.49,0,.16,.02,.32,.11,.46,.07,.11,.15,.2,.23,.31,.05,.1,.09,.2,.14,.31,.09,.17,.25,.28,.42,.34,1.28,1.27,3.12,1.9,4.86,1.9,.83,0,1.64-.14,2.35-.42Z"/><path class="cls-2" d="M150.34,221.51c-4.73,0-9.53-.43-14.18-.85-4.46-.4-9-.81-13.42-.86-2.94-.03-5.93,.04-8.8,.12h-.1c-2.3,.06-4.9,.13-7.45,.13-5,0-9.01-.27-12.62-.84-.07,0-.12,.01-.17,.04-.09,.05-.18,.06-.28,.06-2.1-.15-4.11-.47-6.52-.88l-1.42-.23c-6.76-1.09-14.41-2.33-17.26-6.94-1.52-2.47-1.65-5.75-.39-10.04,1.39-2.84,2.92-5.97,4.21-9.21,2.54-6.39,5.67-12.83,8.71-19.06,4.4-9.04,8.91-18.31,11.78-27.66,.03-.1-.01-.19-.04-.23-.12-.17-.12-.39,0-.57,2.55-3.79,5.95-5.63,10.39-5.63,6.75,0,14.85,4.44,22.01,8.37,4.26,2.34,8.29,4.55,11.41,5.39,2.02,.55,4.17,1.05,6.26,1.05,2.29,0,4.25-.62,6-1.9,.11-.08,.25-.12,.39-.09,.14,.02,.26,.1,.33,.22,1.68,2.51,3.13,5.41,4.58,8.41l.84,1.71c2.04,4.15,3.9,8.55,5.7,12.79,3.57,8.44,7.61,18,13.48,25.67h0l.02,.02s.04,.05,.06,.07l.38,.5c.24,.31,.47,.62,.72,.92,2.19,3.24,2.68,7.06,1.4,10.52-1.46,3.92-4.96,6.57-9.34,7.08l-.92,.17c-3.93,.69-7.91,1.39-11.68,1.62-1.27,.08-2.63,.12-4.03,.12Zm-29.04-2.72c.48,0,.97,0,1.45,0,4.46,.04,9.02,.46,13.43,.85,4.69,.42,9.47,.85,14.16,.85,1.38,0,2.72-.04,3.97-.11,3.72-.22,7.66-.92,11.48-1.59l.98-.17c4.09-.48,7.27-2.89,8.6-6.44,1.17-3.15,.71-6.64-1.26-9.56-.23-.27-.47-.59-.72-.92l-.36-.47s-.06-.08-.09-.12c-5.95-7.77-10.02-17.4-13.61-25.89-1.79-4.23-3.64-8.61-5.67-12.74l-.84-1.71c-1.36-2.8-2.7-5.5-4.23-7.86-1.82,1.21-3.84,1.79-6.16,1.79-2.2,0-4.44-.52-6.52-1.09-3.23-.88-7.31-3.12-11.63-5.48-7.05-3.86-15.04-8.24-21.52-8.24-3.99,0-7.06,1.62-9.39,4.95,.08,.25,.09,.51,.01,.76-2.89,9.42-7.42,18.73-11.8,27.73-3.06,6.29-6.19,12.72-8.71,19.07-1.3,3.28-2.85,6.43-4.21,9.21-1.14,3.91-1.05,6.93,.32,9.14,2.61,4.21,10.02,5.41,16.56,6.47l1.43,.23c2.34,.39,4.29,.7,6.3,.86,.22-.09,.44-.12,.67-.08,3.55,.56,7.51,.82,12.46,.82,2.54,0,5.13-.07,7.42-.13h.1c2.41-.06,4.91-.13,7.39-.13Zm-1.21-8.04c-.54,0-1.09-.04-1.63-.11-3.67-.52-7.05-2.79-9.53-6.39-.2-.3-.27-.66-.19-1.01-2.1-4.2-2.14-8.58-.11-12.36,2.36-4.39,7.13-7.33,12.16-7.48h.33c4.64,0,8.63,2.33,11.23,6.57,2.64,4.31,2.6,9.71-.12,14.09-.14,.22-.34,.4-.59,.5-.75,.95-1.59,1.63-2.53,2.35l-.12,.09c-.26,.2-.53,.41-.8,.64-2.48,2.03-5.28,3.1-8.11,3.1Zm1.03-26.34h-.3c-4.67,.14-9.11,2.87-11.29,6.95-1.92,3.59-1.85,7.6,.22,11.61,.07,.14,.07,.3,.01,.44-.02,.04-.06,.16,.01,.27,2.31,3.36,5.45,5.48,8.83,5.96,3.07,.43,6.23-.53,8.96-2.77,.28-.23,.55-.44,.82-.65l.12-.09c.95-.74,1.74-1.37,2.44-2.29,.07-.09,.16-.15,.26-.18,.04-.01,.13-.04,.17-.12,2.52-4.06,2.56-9.05,.12-13.03-2.41-3.93-6.09-6.09-10.37-6.09Zm-32.02,21.79c-1.97,0-3.84-.72-5.14-1.97-.33-.15-.5-.37-.59-.54-.03-.06-.06-.13-.09-.2l-.09-.15c-.06-.07-.11-.15-.16-.22-.12-.19-.18-.41-.19-.65-.82-2.32-.45-4.42,1.07-5.93,1.19-1.18,2.93-1.86,4.79-1.86,1.14,0,2.23,.26,3.16,.76,1.69,.9,2.68,2.5,2.78,4.49,0,.03,0,.06,0,.09,.51,2.59-.61,4.77-3.02,5.72-.75,.3-1.63,.46-2.53,.46Zm-.4-10.51c-1.57,0-3.09,.58-4.08,1.56-1.24,1.24-1.53,2.99-.8,4.95,.02,.06,.03,.13,.03,.2,0,.12,.02,.16,.03,.17,.03,.05,.07,.09,.1,.14l.22,.37s.04,.09,.06,.13c.02,.05,.07,.08,.15,.11,.07,.02,.13,.06,.18,.12,1.1,1.1,2.79,1.75,4.5,1.75,.78,0,1.52-.13,2.16-.38,1.94-.77,2.81-2.46,2.39-4.65-.01-.05-.02-.1-.02-.14-.07-1.65-.85-2.93-2.25-3.68-.78-.42-1.71-.64-2.68-.64Zm8.72-13.73c-2.02,0-3.75-1.1-4.87-3.09h0s-.09-.09-.12-.14c-2.61-4.25-1.06-9.15,1.71-11.62,2.68-2.37,6.22-2.41,9.13-.09,1.71,1.35,2.54,3.1,2.54,5.33,0,4.11-3.38,8.52-7.24,9.44l-.18,.04c-.34,.08-.55,.13-.97,.13Zm-4.21-3.88c.05,.04,.1,.08,.13,.13,.96,1.78,2.4,2.74,4.08,2.74,.3,0,.42-.03,.73-.1l.18-.04c3.38-.81,6.46-4.84,6.46-8.45,0-1.94-.68-3.38-2.15-4.54-2.54-2.01-5.52-1.99-7.83,.06-2.44,2.17-3.81,6.47-1.59,10.22Z"/></g><g><path class="cls-2" d="M190.02,201.79c2.49,3.33,6.48,9.78,5.29,15.62-.62,3.03-2.53,5.49-5.67,7.32-2.45,1.42-5.68,1.79-8.24,1.88-.11,.11-.25,.19-.41,.22-6.33,.97-14.62,2.2-22.62,3.11-5.48,.62-11.51,.94-18.16,.94-7.91,0-16.7-.44-26.5-1.33-4.57-.41-9.48-.36-14.68-.29-9.76,.1-19.85,.21-28.13-2.91-.26-.03-.51-.07-.77-.1-1.67-.21-3.4-.42-5.08-.89-8.56-2.4-11.89-7.86-10.16-16.66-.01-.11,0-.22,.03-.33,.03-.09,.06-.18,.09-.27,.03-.15,.05-.3,.09-.45,.03-.12,.08-.22,.15-.3,1.07-3.25,2.07-6.57,3.03-9.82,2.03-6.88,4.13-13.99,7.17-20.54,.06-.11,.14-.2,.23-.27,1.37-3.19,3.22-6.2,5.05-9.1,1.06-1.69,2.16-3.43,3.11-5.15,3.23-5.84,6.23-12.22,9.14-18.4,5.28-11.23,10.75-22.82,18.05-32.29-.02-.53-.04-1.09-.06-1.7-.08-1.96-.17-4.19-.13-6.15,.08-3.66,.26-7.6,.43-11.42,.33-7.36,.66-14.95,.39-21.47-.36,.03-.72,.03-1.08,.06-.31,.03-.6-.13-.75-.39-.8-.2-1.5-.62-2.05-1.27-1.51-1.78-1.63-4.78-1.07-6.96,1.03-4.03,3.23-5.27,7.06-5.88,.01,0,.02,0,.03-.01,5.85-1.08,12.29-2.01,19.66-1.51,.96,.06,2.19,.07,3.5,.08,5.17,.03,12.25,.06,15.07,3.7,1.4,1.82,1.79,4.23,1.18,7.17,.07,.14,.1,.31,.07,.48-.14,.72-.38,1.28-.67,1.76,0,.02,0,.04-.02,.06,0,.03-.04,.04-.05,.07-.89,1.38-2.33,1.84-3.85,2.11-.19,6.01,.2,12.45,.59,18.67,.25,4.07,.51,8.28,.61,12.34,.06,2.57-.02,7.13-.15,9.08,4.83,15.26,13.78,30.09,22.43,44.44,1.22,2.01,2.42,4,3.59,5.97,1.17,1.97,2.32,3.95,3.46,5.93,1.68,2.92,3.42,5.9,5.24,8.8,.06,.05,.12,.1,.16,.16,2.52,3.87,5.03,8.21,7.46,12.41,1.61,2.78,3.21,5.56,4.83,8.22,.88,1.45,2.04,3.36,3.07,5.21,.02,.02,.05,.03,.07,.06Zm3.74,15.3c.96-4.71-1.97-10.03-4.26-13.32-.17-.07-.32-.17-.41-.34-1.13-2.1-2.53-4.41-3.55-6.09-1.62-2.67-3.23-5.46-4.85-8.25-2.1-3.63-4.26-7.34-6.42-10.77-.07-.06-.15-.11-.2-.19-2.19-3.4-4.25-6.97-6.23-10.42-1.13-1.97-2.27-3.95-3.44-5.91-1.17-1.97-2.37-3.95-3.59-5.97-8.56-14.19-17.4-28.85-22.34-44.02-.25-.16-.41-.45-.37-.77,0-.08,.02-.17,.03-.28-.05-.18-.03-.35,.03-.51,.12-1.96,.19-6.31,.13-8.71-.1-4.03-.35-8.23-.6-12.28-.38-6.16-.76-12.52-.59-18.52-.18,.03-.35,.05-.52,.08-3.29,.57-6.62,.76-9.93,.76s-6.71-.2-10.01-.39c-4.41-.25-8.94-.49-13.38-.27,.28,6.6-.06,14.24-.39,21.64-.17,3.81-.35,7.74-.43,11.38-.04,1.92,.05,4.11,.13,6.05,.02,.42,.04,.83,.05,1.22,.26,.28,.3,.71,.05,1.02-7.38,9.42-12.9,21.15-18.23,32.49-2.92,6.2-5.93,12.6-9.19,18.49-.97,1.75-2.08,3.52-3.15,5.22-2.08,3.31-4.23,6.72-5.56,10.34-.05,.13-.14,.22-.23,.3-2.66,6.05-4.62,12.56-6.48,18.89-1.03,3.47-2.09,7.06-3.26,10.54-1.77,8.23,1.07,13.11,8.94,15.32,1.56,.44,3.23,.64,4.85,.84,.07,0,.13,.02,.21,.03,.16-.04,.33-.05,.49,.02,.07,.03,.15,.04,.23,.08,.19,.02,.39,.05,.58,.07,.21,.03,.38,.14,.51,.29,7.85,2.7,17.4,2.61,26.67,2.51,5.25-.06,10.2-.12,14.84,.3,17.93,1.62,32.44,1.76,44.34,.39,7.51-.86,15.27-1.99,21.42-2.93,.14-.22,.37-.38,.65-.38,2.49-.03,6.08-.23,8.57-1.69,2.74-1.59,4.4-3.7,4.92-6.27Zm-52.62-149.49c1.12-3.39,1-6.02-.38-7.8-2.35-3.03-8.98-3.06-13.83-3.08-1.33,0-2.59-.01-3.6-.08-6.43-.44-11.99,.19-18.2,1.31-.06,.02-.12,.05-.18,.06-4,.5-5.82,1.29-6.72,4.85-.45,1.78-.34,4.26,.74,5.54,.55,.65,1.28,.92,2.25,.84,.22-.02,.42,.05,.57,.18,4.97-.35,10.02-.09,14.92,.19,6.45,.38,13.13,.76,19.58-.35,.37-.06,.74-.12,1.1-.17,1.84-.27,3.05-.52,3.74-1.49Z"/><path class="cls-2" d="M140.21,231.37c-7.96,0-16.64-.44-26.54-1.33-2.56-.23-5.4-.34-9.22-.34-1.77,0-3.57,.02-5.41,.04-1.77,.02-3.54,.04-5.32,.04-7.82,0-16-.36-22.94-2.96l-.71-.09c-1.6-.2-3.42-.42-5.15-.91-8.84-2.48-12.29-8.1-10.54-17.18,0-.16,.02-.31,.06-.45l.11-.4c.02-.09,.03-.19,.06-.28,.03-.15,.1-.29,.19-.42,1-3.02,1.92-6.08,3-9.72,2.03-6.89,4.13-14.01,7.2-20.61,.07-.14,.16-.26,.27-.37,1.37-3.15,3.17-6.09,5.05-9.07l.07-.11c1.03-1.65,2.1-3.35,3.02-5.01,3.21-5.8,6.2-12.14,9.08-18.28,5.3-11.25,10.73-22.8,18.03-32.32l-.06-1.52c-.08-1.96-.17-4.19-.13-6.18,.08-3.53,.24-7.27,.43-11.43,.32-7.13,.64-14.5,.41-20.92-.18,0-.37,.02-.55,.04-.02,0-.11,0-.13,0-.38,0-.73-.17-.98-.46-.85-.25-1.57-.71-2.13-1.38-1.63-1.92-1.76-5.1-1.18-7.41,1.11-4.37,3.66-5.64,7.42-6.24,.02,0,.03-.01,.05-.01,4.45-.82,9.78-1.66,15.64-1.66,1.39,0,2.79,.05,4.16,.14,.96,.06,2.23,.07,3.47,.07,5.28,.03,12.5,.06,15.47,3.9,1.46,1.89,1.9,4.39,1.31,7.44,.07,.21,.08,.42,.04,.62-.14,.69-.37,1.3-.7,1.87,0,.02-.02,.05-.02,.05-.03,.09-.1,.16-.12,.19h0c-.97,1.43-2.4,1.94-3.75,2.22-.16,5.92,.22,12.17,.6,18.22v.17c.26,4.02,.51,8.18,.61,12.2,.06,2.47-.02,6.97-.15,9.03,4.81,15.15,13.71,29.9,22.32,44.18l-.36,.38,.43-.26c1.2,1.99,2.4,3.97,3.56,5.92,1.18,1.97,2.32,3.95,3.46,5.94,1.61,2.79,3.35,5.77,5.19,8.72,.07,.06,.14,.13,.2,.21,2.54,3.9,5.05,8.24,7.47,12.44,1.79,3.09,3.27,5.66,4.82,8.21,.92,1.52,2.02,3.34,3.04,5.16,.03,.03,.06,.06,.07,.07,2.54,3.39,6.61,9.99,5.38,16.02-.64,3.17-2.63,5.75-5.92,7.66-2,1.16-4.71,1.79-8.3,1.94-.16,.11-.33,.19-.52,.22-6.31,.97-14.57,2.19-22.65,3.12-5.47,.62-11.6,.94-18.22,.94Zm-35.76-2.68c3.85,0,6.72,.1,9.31,.34,9.87,.89,18.52,1.33,26.45,1.33,6.58,0,12.67-.31,18.1-.93,8.06-.92,16.31-2.15,22.6-3.11,.01,0,.06-.01,.14-.08,.09-.08,.21-.13,.33-.14,3.5-.12,6.12-.72,8-1.81,3.02-1.76,4.85-4.11,5.43-6.98,1.15-5.65-2.76-11.96-5.2-15.21-.02-.02-.09-.09-.1-.12-1.02-1.83-2.13-3.67-3.03-5.15-1.58-2.6-3.07-5.18-4.86-8.28-2.42-4.19-4.92-8.52-7.44-12.39l-.08-.07s-.06-.07-.09-.11c-1.86-2.98-3.62-6-5.25-8.81-1.14-1.98-2.28-3.96-3.45-5.92-1.16-1.95-2.35-3.92-3.55-5.91l-.07-.12c-8.66-14.35-17.61-29.19-22.45-44.48-.02-.06-.03-.12-.02-.19,.13-1.99,.21-6.55,.15-9.03-.09-4-.35-8.15-.59-12.16v-.17c-.4-6.21-.79-12.63-.6-18.72,0-.24,.18-.44,.42-.48,1.34-.24,2.7-.63,3.51-1.89,0,0,.01-.02,.02-.03,.01-.03,.03-.07,.04-.09,.29-.49,.49-.99,.61-1.6,.01-.05-.01-.12-.03-.16-.05-.1-.06-.21-.04-.32,.57-2.81,.21-5.08-1.09-6.76-2.66-3.44-9.6-3.48-14.67-3.5-1.25,0-2.55-.01-3.53-.08-1.35-.09-2.72-.14-4.09-.14-5.76,0-11.02,.83-15.4,1.64-.04,.01-.08,.02-.11,.03-3.52,.56-5.63,1.61-6.62,5.5-.52,2.06-.43,4.87,.97,6.51,.47,.55,1.07,.93,1.79,1.11,.13,.03,.25,.12,.31,.23,.05,.09,.14,.15,.24,.15,.25-.02,.48-.03,.7-.04,.14,0,.29-.01,.43-.02,.13-.01,.27,.04,.37,.13,.1,.09,.16,.22,.17,.36,.27,6.58-.06,14.17-.39,21.52-.19,4.16-.35,7.89-.43,11.41-.04,1.96,.05,4.17,.13,6.12l.06,1.7c0,.12-.03,.23-.1,.33-7.29,9.47-12.73,21.02-17.99,32.2-2.94,6.24-5.93,12.6-9.16,18.43-.94,1.69-2.01,3.4-3.05,5.06l-.07,.11c-1.88,2.98-3.67,5.92-5.02,9.04-.03,.08-.08,.14-.15,.19-.04,.03-.07,.07-.09,.11-3.03,6.52-5.12,13.61-7.14,20.46-1.09,3.69-2.02,6.77-3.03,9.83-.02,.06-.05,.12-.1,.17l-.04,.1c-.02,.08-.03,.15-.05,.22l-.15,.54s-.01,.07,0,.12c0,.05,0,.1,0,.14-1.66,8.5,1.54,13.76,9.8,16.08,1.66,.47,3.36,.67,5,.88l.77,.1s.08,.01,.11,.03c6.8,2.56,14.9,2.91,22.64,2.91,1.77,0,3.54-.02,5.3-.04,1.84-.02,3.65-.04,5.42-.04Zm35.77,1.1h0c-7.9,0-16.54-.43-26.41-1.33-2.62-.24-5.51-.34-9.37-.34-1.77,0-3.58,.02-5.42,.04-1.71,.02-3.43,.04-5.14,.04-7.37,0-15.11-.31-21.7-2.58-.09-.03-.16-.08-.22-.15-.04-.05-.1-.1-.18-.11-.2-.03-.39-.05-.58-.07-.05,0-.1-.02-.15-.04-.11-.03-.16-.05-.2-.07-.1-.01-.13,0-.17,0-.07,.02-.14,.02-.21,.01l-.18-.02c-1.68-.21-3.35-.42-4.93-.86-8.07-2.27-11.11-7.47-9.29-15.91,1.21-3.62,2.3-7.31,3.27-10.58,2.04-6.9,3.93-13.09,6.51-18.95,.03-.07,.07-.13,.13-.18,.07-.06,.09-.09,.09-.1,1.35-3.66,3.51-7.1,5.6-10.43l.05-.09c1.05-1.67,2.14-3.4,3.09-5.11,3.25-5.87,6.25-12.26,9.16-18.44,5.35-11.38,10.88-23.13,18.3-32.61,.1-.12,.05-.27-.03-.36-.08-.09-.13-.21-.13-.33-.01-.39-.03-.79-.05-1.21v-.15c-.08-1.9-.17-4.05-.13-5.94,.08-3.57,.25-7.44,.42-11.17v-.22c.32-7,.68-14.94,.4-21.59-.01-.28,.2-.51,.48-.53,1.2-.06,2.43-.09,3.76-.09,3.23,0,6.42,.17,9.68,.36,3.26,.19,6.63,.39,9.98,.39,3.7,0,6.92-.25,9.84-.75l.54-.08c.15-.02,.3,.02,.41,.12,.11,.1,.17,.24,.17,.39-.18,6.09,.23,12.67,.59,18.47,.24,3.84,.51,8.2,.6,12.3,.05,2.35-.01,6.69-.14,8.75,0,.05-.01,.11-.03,.15-.04,.11-.02,.17-.02,.19,.02,.06,.02,.12,.02,.19l-.02,.25c-.02,.18,.05,.28,.13,.32,.1,.06,.18,.16,.21,.27,4.93,15.15,13.75,29.77,22.29,43.91l.09,.15c1.19,1.97,2.36,3.9,3.5,5.82,1.16,1.95,2.3,3.92,3.43,5.88l.13,.22c1.95,3.38,3.97,6.88,6.11,10.21l.09,.07s.08,.08,.12,.13c2.12,3.35,4.16,6.87,6.43,10.78,1.58,2.73,3.21,5.55,4.84,8.24,1.16,1.9,2.48,4.09,3.57,6.12,0,.02,.03,.06,.15,.11,.09,.04,.17,.1,.23,.18,2.52,3.62,5.31,8.94,4.34,13.71-.55,2.71-2.29,4.93-5.16,6.6-2.6,1.51-6.28,1.73-8.82,1.76-.13,0-.2,.1-.23,.14-.08,.12-.21,.21-.35,.23-5.44,.83-13.59,2.04-21.44,2.93-5.41,.62-11.48,.94-18.03,.94Zm-35.78-2.68c3.89,0,6.81,.11,9.46,.35,9.84,.89,18.45,1.32,26.32,1.32h0c6.51,0,12.54-.31,17.91-.93,7.75-.88,15.78-2.07,21.21-2.9,.24-.26,.57-.41,.92-.42,2.43-.03,5.94-.23,8.33-1.62,2.61-1.52,4.19-3.51,4.68-5.93,.89-4.37-1.72-9.36-4.1-12.82-.23-.12-.4-.29-.52-.5-1.08-2-2.39-4.18-3.54-6.07-1.64-2.7-3.27-5.53-4.85-8.26-2.24-3.88-4.27-7.36-6.36-10.68-.09-.07-.17-.15-.25-.26-2.16-3.35-4.18-6.86-6.14-10.26l-.11-.19c-1.15-1.99-2.28-3.96-3.44-5.9-1.15-1.92-2.32-3.86-3.5-5.82l-.09-.15c-8.53-14.14-17.36-28.76-22.33-43.97-.33-.28-.5-.71-.44-1.14l.02-.18c-.04-.21-.03-.43,.04-.65,.12-2.04,.18-6.34,.13-8.6-.1-4.09-.37-8.43-.6-12.26-.35-5.63-.74-11.99-.61-17.95-2.96,.5-6.21,.75-9.93,.75-3.38,0-6.77-.2-10.04-.39-3.24-.19-6.42-.35-9.62-.35-1.13,0-2.19,.02-3.21,.06,.24,6.59-.1,14.33-.41,21.18v.22c-.18,3.73-.35,7.58-.43,11.15-.04,1.85,.04,3.99,.12,5.88v.15c.02,.36,.04,.72,.05,1.06,.31,.46,.3,1.07-.05,1.51-7.35,9.38-12.85,21.08-18.17,32.39-2.93,6.22-5.94,12.63-9.2,18.52-.96,1.74-2.06,3.48-3.11,5.16l-.05,.09c-2.06,3.28-4.2,6.68-5.51,10.24-.07,.18-.18,.32-.29,.43-2.53,5.78-4.41,11.9-6.42,18.73-.97,3.27-2.06,6.97-3.26,10.56-1.69,7.87,1.04,12.55,8.59,14.67,1.51,.42,3.14,.62,4.72,.82,.07,0,.12,.01,.17,.02,.25-.05,.49-.03,.71,.06,.06,.02,.11,.03,.15,.05,.18,.02,.35,.04,.53,.07,.26,.03,.52,.16,.72,.35,6.43,2.18,14.01,2.48,21.25,2.48,1.71,0,3.42-.02,5.13-.04,1.85-.02,3.66-.04,5.44-.04Zm22.19-156.61h0c-3.35,0-6.7-.2-9.94-.38-3.29-.19-6.51-.36-9.72-.36-1.85,0-3.53,.06-5.13,.17-.13,.01-.26-.03-.36-.12-.04-.03-.1-.07-.17-.07-.16,.01-.27,.02-.39,.02-.96,0-1.74-.35-2.32-1.03-1.25-1.48-1.32-4.15-.85-6,.97-3.83,2.99-4.7,7.15-5.22,.03-.01,.13-.05,.16-.06,5.69-1.02,9.93-1.46,14.18-1.46,1.37,0,2.76,.05,4.14,.14,1.01,.07,2.31,.07,3.57,.08,4.95,.02,11.73,.05,14.22,3.28,1.48,1.92,1.64,4.7,.46,8.27-.02,.05-.04,.09-.07,.14-.81,1.13-2.14,1.4-4.08,1.69-.36,.05-.72,.1-1.09,.17-2.89,.5-6.08,.74-9.76,.74Zm-19.66-1.75c3.23,0,6.47,.17,9.78,.36,3.22,.19,6.56,.38,9.88,.38,3.62,0,6.75-.24,9.59-.73,.38-.06,.75-.12,1.11-.17,1.69-.25,2.77-.46,3.36-1.22,1.04-3.19,.93-5.63-.32-7.25-2.2-2.84-8.69-2.87-13.43-2.89-1.27,0-2.59-.01-3.63-.08-1.36-.09-2.73-.14-4.07-.14-4.19,0-8.38,.43-14,1.44,0,.01-.09,.05-.2,.06-3.94,.49-5.49,1.24-6.31,4.47-.41,1.62-.33,3.95,.64,5.09,.44,.52,1.02,.73,1.82,.67,.01,0,.1,0,.12,0,.22,0,.44,.06,.64,.17,1.58-.11,3.22-.16,5.03-.16Z"/></g><g><path class="cls-2" d="M176.08,201.86c2.09,3.38,2.59,7.41,1.24,11.05-1.46,3.9-4.74,6.64-8.91,7.53-.03,0-.06,.03-.09,.03l-2.09,.37c-3.9,.69-7.94,1.4-11.8,1.64-1.36,.08-2.72,.12-4.09,.12-4.79,0-9.62-.43-14.32-.85-4.38-.39-8.91-.78-13.3-.82-2.95-.03-5.96,.1-8.87,.17-6.16,.15-12.5-.42-18.75-.42h-.02c-2.89,0-5.73-.62-8.47-1.08l-1.42-.33c-6.98-1.13-14.9-2.41-18.01-7.43-1.58-2.56-1.83-5.83-.77-9.96-.05-.18-.04-.37,.05-.55l.14-.28c.03-.07,.07-.15,.11-.22,.04-.13,.06-.24,.1-.37,.04-.15,.14-.26,.25-.36,1.34-2.74,2.7-5.56,3.86-8.47,2.55-6.41,5.7-12.88,8.74-19.13,4.15-8.53,8.42-17.34,11.28-26.19-.37-.21-.51-.69-.29-1.07,7.7-13.69,22.64-5.51,34.63,1.06,4.21,2.31,8.18,4.48,11.17,5.3,4.03,1.1,7.93,1.82,11.4-.75-.12-.32-.03-.69,.26-.91,.35-.26,.85-.19,1.11,.16,2.14,2.87,3.84,6.37,5.48,9.75l.83,1.71c2.05,4.15,3.91,8.58,5.72,12.85,3.78,8.95,7.72,18.17,13.53,25.68,.36,.42,.7,.85,1.01,1.31,.05,.05,.09,.12,.14,.18,.07,.09,.12,.19,.15,.3Zm-.24,10.5c1.25-3.35,.74-6.98-1.31-10.02-.38-.46-.73-.94-1.09-1.41-.03-.04-.05-.07-.08-.11v-.02c-5.84-7.62-9.77-16.83-13.56-25.78-1.8-4.26-3.66-8.65-5.69-12.77l-.84-1.71c-1.4-2.88-2.85-5.82-4.55-8.35-2.02,1.48-4.14,2-6.3,2s-4.29-.5-6.39-1.07c-3.17-.86-7.23-3.09-11.52-5.44-11.56-6.34-24.61-13.48-31.74-2.89,.13,.19,.18,.43,.11,.66-2.89,9.41-7.42,18.72-11.8,27.73-3.03,6.23-6.17,12.67-8.69,19.03-1.26,3.18-2.75,6.22-4.2,9.17-1.21,4.13-1.11,7.28,.34,9.63,2.73,4.41,10.26,5.63,16.91,6.7l1.42,.23c2.21,.37,4.32,.71,6.48,.87,.15-.08,.31-.13,.49-.1,6.59,1.04,13.4,.88,19.98,.7,2.92-.07,5.95-.15,8.93-.12,4.45,.04,9.01,.46,13.42,.85,5.99,.54,12.18,1.1,18.17,.74,3.77-.23,7.77-.93,11.63-1.61l.89-.16s.03-.01,.06-.02c4.2-.49,7.53-3.01,8.93-6.75Z"/><path class="cls-2" d="M150.34,223.11c-4.9,0-9.93-.45-14.36-.85-4.52-.41-8.93-.77-13.26-.82h-.85c-1.95,0-3.93,.05-5.85,.11l-2.15,.06c-3.44,.08-7-.06-10.44-.2-2.73-.11-5.56-.22-8.32-.22-2.41,0-4.75-.41-7.01-.82-.53-.09-1.05-.19-1.57-.27l-1.45-.34c-7.07-1.14-15.1-2.45-18.32-7.66-1.64-2.65-1.92-6-.86-10.24-.04-.26,0-.53,.11-.76l.25-.52v-.04c.02-.08,.04-.17,.07-.26,.05-.18,.16-.35,.32-.51,1.29-2.63,2.64-5.44,3.8-8.35,2.55-6.42,5.7-12.89,8.74-19.15,3.89-7.98,8.27-17,11.17-25.82-.35-.4-.43-1-.15-1.48,2.87-5.1,7.05-7.69,12.43-7.69,7.27,0,15.57,4.55,22.89,8.56,4.18,2.29,8.13,4.45,11.06,5.25,1.87,.51,3.87,.98,5.76,.98s3.52-.48,4.95-1.46c-.02-.42,.16-.83,.51-1.09,.57-.42,1.4-.29,1.82,.26,2.17,2.91,3.88,6.43,5.53,9.84l.83,1.7c2.02,4.11,3.87,8.47,5.66,12.7l.07,.18c3.56,8.43,7.6,17.99,13.47,25.57,.4,.47,.74,.91,1.03,1.33h0s.03,.04,.06,.08c.14,.18,.22,.32,.27,.47,2.18,3.56,2.63,7.72,1.25,11.43-1.51,4.05-4.89,6.91-9.27,7.85-.06,.03-.09,.04-.15,.04l-2.05,.36c-3.95,.7-7.99,1.41-11.86,1.64-1.36,.08-2.74,.13-4.12,.13Zm-28.48-2.69h.86c4.36,.05,8.8,.42,13.34,.83,5.65,.51,12.21,1.1,18.33,.72,3.82-.23,7.82-.94,11.7-1.62l2.14-.38c4.11-.9,7.23-3.53,8.61-7.25,1.28-3.44,.84-7.3-1.2-10.61-.03-.04-.05-.09-.06-.14-.01-.04-.03-.08-.06-.11l-.07-.09s-.09-.11-.1-.13c-.27-.39-.58-.81-.97-1.26-5.96-7.7-10.02-17.32-13.61-25.81l-.07-.18c-1.78-4.21-3.63-8.56-5.64-12.65l-.83-1.71c-1.63-3.36-3.32-6.84-5.43-9.67-.08-.11-.2-.21-.4-.06-.11,.08-.12,.22-.09,.33,.08,.21,0,.45-.17,.58-1.68,1.24-3.58,1.85-5.81,1.85-2.01,0-4.08-.49-6.03-1.02-3.05-.83-7.05-3.02-11.28-5.34-7.21-3.95-15.39-8.44-22.4-8.44-5.06,0-8.84,2.35-11.55,7.18-.08,.14-.03,.31,.1,.38,.21,.12,.3,.37,.23,.59-2.91,9-7.37,18.17-11.31,26.26-3.05,6.26-6.19,12.71-8.72,19.1-1.18,2.97-2.56,5.83-3.87,8.51-.03,.06-.07,.12-.12,.16-.05,.05-.08,.08-.09,.12-.03,.08-.04,.15-.06,.22l-.15,.4-.17,.34c-.03,.07-.02,.15-.01,.2,.02,.08,.02,.17,0,.26-1.02,4.01-.79,7.14,.71,9.57,2.98,4.82,10.77,6.08,17.64,7.2l1.47,.34c.49,.08,1.02,.17,1.55,.27,2.22,.39,4.51,.8,6.81,.8,2.8,0,5.64,.11,8.38,.23,3.43,.14,6.96,.28,10.38,.2l2.14-.06c1.93-.06,3.92-.12,5.88-.12Zm28.47,1.09h0c-4.73,0-9.54-.43-14.18-.85-4.46-.4-9-.81-13.42-.86-2.93-.03-5.93,.04-8.8,.12h-.1c-2.3,.06-4.9,.13-7.45,.13-5,0-9.01-.27-12.62-.84-.07,0-.12,.01-.17,.04-.09,.05-.18,.06-.28,.06-2.1-.15-4.11-.47-6.52-.88l-1.42-.23c-6.76-1.09-14.41-2.33-17.26-6.94-1.52-2.47-1.65-5.75-.39-10.04,1.39-2.84,2.92-5.97,4.21-9.21,2.54-6.39,5.67-12.83,8.71-19.06,4.4-9.04,8.91-18.31,11.78-27.66,.03-.1-.01-.19-.04-.23-.12-.17-.12-.39,0-.57,2.55-3.79,5.95-5.63,10.39-5.63,6.75,0,14.85,4.44,22.01,8.37,4.26,2.34,8.29,4.55,11.41,5.39,2.02,.55,4.17,1.05,6.26,1.05,2.29,0,4.25-.62,6-1.9,.11-.08,.25-.12,.39-.09,.14,.02,.26,.1,.33,.22,1.68,2.51,3.13,5.41,4.58,8.41l.84,1.71c2.04,4.15,3.9,8.54,5.7,12.79,3.57,8.44,7.61,18,13.48,25.67h0l.02,.02s.04,.05,.06,.07l.38,.5c.24,.31,.47,.62,.72,.92,2.19,3.24,2.68,7.06,1.4,10.52-1.46,3.92-4.96,6.57-9.34,7.08l-.92,.17c-3.93,.69-7.91,1.39-11.68,1.62-1.27,.08-2.63,.12-4.03,.12Zm-29.04-2.72c.48,0,.97,0,1.45,0,4.46,.04,9.03,.46,13.44,.85,4.69,.42,9.47,.85,14.16,.85h0c1.38,0,2.72-.04,3.97-.11,3.72-.22,7.66-.92,11.48-1.59l.98-.17c4.09-.48,7.27-2.89,8.6-6.44,1.17-3.15,.71-6.64-1.26-9.56-.23-.27-.47-.59-.72-.92l-.36-.47s-.06-.08-.09-.13c-5.95-7.77-10.02-17.4-13.61-25.89-1.79-4.23-3.64-8.61-5.67-12.74l-.84-1.71c-1.36-2.8-2.7-5.5-4.23-7.86-1.82,1.21-3.84,1.79-6.16,1.79-2.2,0-4.44-.52-6.52-1.09-3.23-.88-7.31-3.12-11.63-5.48-7.05-3.86-15.04-8.24-21.52-8.24-3.99,0-7.06,1.62-9.39,4.95,.08,.25,.09,.51,.01,.76-2.89,9.42-7.42,18.73-11.8,27.73-3.06,6.29-6.19,12.72-8.71,19.07-1.3,3.28-2.85,6.43-4.21,9.21-1.14,3.91-1.05,6.93,.32,9.14,2.61,4.21,10.02,5.41,16.56,6.47l1.43,.23c2.34,.39,4.29,.7,6.3,.86,.22-.09,.44-.12,.67-.08,3.55,.56,7.51,.82,12.46,.82,2.54,0,5.13-.07,7.43-.13h.1c2.42-.06,4.91-.13,7.39-.13Z"/></g><g><path class="cls-2" d="M137.82,20.9c5.24,2.97,6.4,8.88,5.25,13.15-1.01,3.76-4.16,7.68-9.98,7.68h-.11c-4.04,0-7.58-2.12-10.52-6.35-.2-.29-.18-.62,0-.89-1.32-5.15,.1-10.54,3.62-13.42,1.83-1.5,5.8-3.54,11.73-.17Zm3.72,12.82c.99-3.7,0-8.85-4.5-11.4-3.79-2.15-7.33-2.15-9.95,0-3.19,2.62-4.38,7.96-2.83,12.71,.03,.09,.04,.18,.04,.27,2.51,3.3,5.43,4.98,8.69,5.01,4.96,.05,7.69-3.37,8.55-6.58Z"/><path class="cls-2" d="M133.09,42.23h-.11c-4.22,0-7.9-2.21-10.94-6.57-.26-.38-.3-.85-.12-1.25-1.29-5.3,.24-10.8,3.84-13.74,1.18-.96,3.15-2.11,5.9-2.11,2.03,0,4.19,.64,6.4,1.89,5.47,3.1,6.68,9.29,5.49,13.72-1.04,3.89-4.34,8.05-10.47,8.05Zm-1.43-22.65c-2.45,0-4.21,1.02-5.26,1.88-3.34,2.73-4.73,7.92-3.45,12.9,.04,.15,0,.3-.08,.42-.07,.1-.07,.2,0,.3,2.83,4.07,6.23,6.13,10.11,6.13h.11c5.55,0,8.54-3.77,9.49-7.3,1.09-4.07,0-9.75-5.01-12.58-2.06-1.17-4.05-1.76-5.9-1.76Zm1.43,21.23h-.12c-3.42-.03-6.48-1.79-9.09-5.21-.07-.09-.1-.2-.1-.31,0-.04,0-.08-.02-.11-1.61-4.94-.36-10.51,2.99-13.25,2.77-2.27,6.56-2.3,10.52-.05,4.75,2.68,5.78,8.09,4.74,11.98-.9,3.36-3.72,6.96-8.93,6.96Zm-8.31-5.71c2.39,3.09,5.15,4.67,8.2,4.69h.1c4.64,0,7.15-3.21,7.95-6.21,.95-3.52,.02-8.41-4.26-10.83-3.58-2.03-6.93-2.05-9.38-.05-3.04,2.49-4.16,7.6-2.67,12.16,.03,.08,.04,.16,.05,.24Z"/></g><g><path class="cls-2" d="M131.92,190.23c2.54,4.14,2.5,9.34-.12,13.56-.11,.18-.28,.29-.47,.34-.76,.99-1.62,1.68-2.53,2.38-.3,.24-.61,.48-.93,.74-2.4,1.97-5.07,2.98-7.79,2.98-.52,0-1.04-.04-1.56-.11-3.53-.5-6.79-2.69-9.18-6.17-.16-.24-.17-.53-.06-.77-2.11-4.1-2.21-8.34-.21-12.08,2.27-4.24,6.88-7.07,11.73-7.21,4.58-.11,8.53,2.11,11.12,6.33Zm-1.05,11.94c1.85-3.56,1.78-7.74-.3-11.12-2.28-3.71-5.68-5.68-9.72-5.57-4.23,.12-8.4,2.69-10.37,6.38-1.93,3.6-1.63,7.77,.86,11.75,.09,.15,.12,.32,.1,.48,2.03,2.5,4.59,4.07,7.31,4.46,2.82,.39,5.62-.48,8.12-2.53,.33-.27,.65-.52,.96-.76,1.12-.87,2.01-1.56,2.74-2.82,.07-.13,.18-.21,.3-.28Z"/><path class="cls-2" d="M120.08,210.74c-.54,0-1.09-.04-1.63-.11-3.67-.52-7.05-2.79-9.53-6.39-.2-.3-.27-.66-.19-1.01-2.1-4.2-2.14-8.58-.11-12.36,2.36-4.39,7.13-7.33,12.16-7.48h.33c4.64,0,8.63,2.33,11.23,6.57,2.64,4.31,2.6,9.71-.12,14.09-.14,.22-.34,.4-.59,.5-.75,.95-1.59,1.63-2.53,2.35l-.12,.09c-.26,.2-.53,.41-.8,.64-2.48,2.03-5.28,3.1-8.11,3.1Zm1.03-26.34h-.3c-4.67,.14-9.11,2.87-11.29,6.95-1.92,3.59-1.85,7.6,.22,11.61,.07,.14,.07,.3,.01,.44-.02,.04-.06,.16,.01,.27,2.31,3.36,5.45,5.48,8.83,5.96,3.07,.43,6.23-.53,8.96-2.77,.28-.23,.55-.44,.82-.65l.12-.09c.95-.74,1.74-1.37,2.44-2.29,.07-.09,.16-.15,.26-.18,.04-.01,.13-.04,.17-.12,2.52-4.06,2.56-9.05,.12-13.03-2.41-3.93-6.09-6.09-10.37-6.09Zm-1.05,24.75h0c-.46,0-.93-.03-1.39-.1-2.86-.41-5.5-2.01-7.63-4.64-.08-.1-.12-.23-.11-.36,0-.08,0-.14-.03-.18-2.58-4.14-2.89-8.49-.87-12.26,2.06-3.85,6.4-6.52,10.81-6.65h.33c4.04,0,7.54,2.06,9.84,5.81,2.16,3.51,2.27,7.85,.32,11.61-.05,.09-.12,.16-.2,.21-.07,.04-.09,.07-.1,.09-.77,1.33-1.73,2.07-2.84,2.94-.33,.26-.65,.51-.98,.77-2.18,1.79-4.64,2.74-7.12,2.74Zm-8.13-5.24c1.95,2.34,4.33,3.77,6.88,4.14,2.65,.37,5.36-.48,7.73-2.42,.33-.27,.66-.53,.98-.77,1.14-.88,1.94-1.51,2.61-2.67,.09-.15,.2-.27,.35-.37,1.73-3.41,1.6-7.33-.34-10.5-2.14-3.49-5.25-5.33-8.98-5.33h-.3c-4.05,.12-8.05,2.58-9.94,6.12-1.84,3.43-1.54,7.42,.84,11.24,.11,.17,.16,.36,.18,.57Z"/></g><g><path class="cls-2" d="M115.57,41.77c.6,1.62,.23,3.24-1.1,4.43-1.04,.93-2.56,1.49-4.09,1.49-1.26,0-2.52-.38-3.52-1.27-.13-.11-.2-.26-.23-.42-1.38-1.16-2.05-2.7-1.86-4.39,.22-2,1.65-3.88,3.55-4.65,1.76-.72,3.67-.4,5.24,.87,1.42,1.15,1.95,2.19,2.01,3.94Zm-2.16,3.26c.63-.56,1.49-1.78,.2-3.62-.23-.32-.17-.73,.1-1-.22-.47-.56-.88-1.14-1.34-1.13-.91-2.42-1.14-3.65-.63-1.36,.55-2.42,1.94-2.58,3.36-.1,.89,.1,2.19,1.63,3.26,.16,.11,.25,.27,.29,.44,1.58,1.05,3.89,.65,5.14-.47Z"/><path class="cls-2" d="M110.38,48.2c-1.49,0-2.82-.48-3.85-1.4-.15-.13-.27-.31-.34-.51-1.44-1.26-2.12-2.94-1.92-4.74,.24-2.18,1.8-4.22,3.86-5.07,1.91-.79,4.05-.44,5.75,.94,1.51,1.22,2.11,2.38,2.19,4.24,.64,1.83,.19,3.61-1.27,4.91-1.14,1.02-2.79,1.62-4.42,1.62Zm-.17-11.12c-.58,0-1.15,.12-1.7,.34-1.73,.71-3.04,2.42-3.24,4.24-.17,1.52,.41,2.89,1.68,3.95,.08,.07,.14,.17,.17,.28,.02,.07,.04,.12,.08,.15,1.07,.94,2.32,1.14,3.18,1.14,1.39,0,2.79-.51,3.75-1.37,1.16-1.04,1.5-2.42,.96-3.88-.02-.05-.03-.1-.03-.16-.05-1.61-.51-2.51-1.82-3.56-.92-.74-1.97-1.13-3.03-1.13Zm.2,9.53h0c-.9,0-1.74-.24-2.43-.69-.1-.07-.18-.17-.21-.29-.02-.09-.07-.13-.1-.15-1.73-1.22-1.96-2.7-1.84-3.73,.18-1.6,1.37-3.15,2.89-3.77,1.37-.57,2.9-.31,4.16,.71,.65,.52,1.03,.98,1.28,1.52,.09,.19,.05,.41-.1,.56-.08,.09-.13,.23-.05,.36,1.57,2.24,.33,3.75-.27,4.29-.84,.76-2.09,1.21-3.33,1.21Zm-1.73-1.45c1.24,.73,3.3,.46,4.38-.51,.9-.8,.94-1.79,.12-2.95-.28-.39-.3-.91-.08-1.33-.18-.3-.46-.58-.86-.91-.97-.79-2.09-.99-3.14-.56-1.2,.49-2.13,1.7-2.27,2.95-.12,1.11,.35,2.05,1.42,2.79,.19,.13,.33,.31,.42,.52Z"/></g><g><path class="cls-2" d="M105.29,172.35h0c0,3.71-3.09,8.05-6.85,8.95-.45,.11-.61,.16-1.03,.16-1.87,0-3.47-1.04-4.51-2.97,0,0-.05-.01-.06-.02-2.45-3.98-1.03-8.63,1.62-10.98,2.54-2.25,5.7-2.28,8.48-.08,1.35,1.07,2.34,2.58,2.34,4.93Zm-1.11,.63c.4-1.66-.16-2.92-1.93-4.32-3.13-2.48-5.65-.81-6.59,.02-2.15,1.91-3.25,5.67-1.48,8.77h0c.94,1.97,2.35,2.75,4.2,2.31,2.68-.64,5.33-3.66,5.82-6.39-.03-.12-.05-.25-.01-.39Z"/><path class="cls-2" d="M97.42,181.96c-2.02,0-3.75-1.1-4.87-3.09h0s-.09-.09-.12-.14c-2.61-4.25-1.06-9.15,1.71-11.62,2.68-2.37,6.22-2.41,9.13-.09,1.71,1.35,2.54,3.1,2.54,5.33,0,4.11-3.38,8.52-7.24,9.44l-.18,.04c-.34,.08-.55,.13-.97,.13Zm-4.21-3.88c.05,.04,.1,.08,.13,.13,.96,1.78,2.4,2.74,4.08,2.74,.3,0,.42-.03,.73-.1l.18-.04c3.03-.72,5.81-4.04,6.36-7.32-.56,3-3.39,6.09-6.19,6.76-.37,.09-.74,.13-1.08,.13h0c-1.58,0-2.82-.9-3.68-2.69h0c-1.9-3.32-.68-7.39,1.59-9.39,.61-.54,1.89-1.45,3.6-1.45,1.24,0,2.46,.48,3.64,1.41,1.07,.85,1.74,1.68,2.05,2.56-.28-1.2-.93-2.18-1.99-3.01-2.54-2.01-5.52-1.99-7.83,.06-2.44,2.17-3.81,6.47-1.59,10.22Zm1.39-.92s.02,.04,.03,.06c.68,1.44,1.59,2.14,2.78,2.14h0c.27,0,.55-.04,.85-.11,2.4-.57,4.91-3.31,5.42-5.89-.03-.18-.03-.35,.01-.51,.35-1.46-.14-2.53-1.75-3.81-1-.79-2.01-1.2-3.02-1.2-1.37,0-2.42,.75-2.93,1.2-1.96,1.74-3.02,5.24-1.4,8.11Zm10.18-4.66c-.02,.19-.06,.39-.11,.59,0,.03,0,.08,.01,.14s.02,.12,.01,.18c.05-.3,.08-.61,.08-.91Z"/></g><g><path class="cls-2" d="M94.14,200.02c.47,2.43-.54,4.39-2.7,5.25-.7,.28-1.51,.42-2.35,.42-1.74,0-3.58-.63-4.86-1.9-.17-.06-.33-.17-.42-.34-.06-.1-.09-.2-.14-.31-.07-.1-.16-.2-.23-.31-.09-.14-.11-.3-.11-.46-.79-2.14-.48-4.09,.92-5.49,1.81-1.8,5.04-2.25,7.35-1.01,1.57,.84,2.44,2.3,2.51,4.12,0,0,0,.01,0,.02Zm-1.69,1.32c.47-2.41-.6-3.54-1.58-4.06-1.67-.9-4.19-.56-5.49,.73-1.05,1.04-1.17,2.51-.37,4.26,1.34,1.74,4.07,2.22,5.85,1.52,.71-.28,1.46-.83,1.71-1.86-.11-.17-.16-.38-.12-.59Z"/><path class="cls-2" d="M89.1,206.2c-1.97,0-3.84-.72-5.14-1.97-.33-.15-.5-.37-.59-.54-.03-.06-.06-.13-.09-.2l-.09-.15c-.06-.07-.11-.15-.16-.22-.12-.19-.18-.41-.19-.65-.82-2.32-.45-4.42,1.07-5.93,1.19-1.18,2.93-1.86,4.79-1.86,1.14,0,2.23,.26,3.16,.76,1.69,.9,2.68,2.5,2.78,4.49,0,.03,0,.06,0,.09,.51,2.59-.61,4.77-3.02,5.72-.75,.3-1.63,.46-2.53,.46Zm-.4-10.51c-1.57,0-3.09,.58-4.08,1.56-1.24,1.24-1.53,2.99-.8,4.95,.02,.06,.03,.13,.03,.2,0,.12,.02,.16,.03,.17,.03,.05,.07,.09,.1,.14l.22,.37s.04,.09,.06,.13c.02,.05,.07,.08,.15,.11,.07,.02,.13,.06,.18,.12,1.1,1.1,2.79,1.75,4.5,1.75,.78,0,1.52-.13,2.16-.38,1.94-.77,2.81-2.46,2.39-4.65-.01-.05-.02-.1-.02-.14-.07-1.65-.85-2.93-2.25-3.68-.78-.42-1.71-.64-2.68-.64Zm.41,8.92h0c-1.81,0-3.53-.78-4.49-2.02-.02-.03-.04-.06-.06-.1-1.13-2.48-.36-3.99,.48-4.83,.87-.87,2.25-1.38,3.69-1.38,.88,0,1.71,.19,2.39,.56,.93,.49,2.4,1.75,1.84,4.61-.02,.1,.02,.18,.04,.21,.08,.12,.11,.26,.07,.4-.32,1.29-1.27,1.91-2.02,2.21-.57,.23-1.24,.35-1.94,.35Zm-3.66-2.6c.78,.98,2.18,1.59,3.66,1.59,.57,0,1.11-.1,1.57-.28,.7-.27,1.15-.72,1.36-1.33-.1-.23-.13-.49-.08-.74,.33-1.69-.11-2.88-1.32-3.52-1.42-.76-3.8-.44-4.89,.65-.88,.88-.98,2.1-.29,3.64Z"/></g></g></svg>