<?xml version="1.0" encoding="UTF-8"?><svg id="_ëîé_1" xmlns="http://www.w3.org/2000/svg" viewBox="0 0 250 250"><defs><style>.cls-1{fill:#ffad29;}.cls-2{fill:#fff;}.cls-3{fill:#282828;}.cls-4{fill:#ff6a5f;}.cls-5{fill:#f7dfc1;}.cls-6{fill:#474747;}.cls-7{fill:#7f7d7d;}</style></defs><g id="pencil"><path class="cls-2" d="M206.85,33.38c-.96-1.63-2.23-3.03-3.72-4.13-3.54-3.64-9.47-8.77-16.18-10.52-2.62-.69-5.32-1.03-8.03-1.03-21.24,0-37.59,21.15-44.34,31.56-.15,.17-.29,.33-.43,.51-2.22,2.41-4.28,5.06-6.06,7.76-5.42,5.18-9.9,11.01-13.9,16.22l-.14,.18c-1.33,1.73-2.67,3.46-4.03,5.16-12.61,15.7-22.34,27.93-32.67,42.26-2.71,3.75-5.88,7.71-8.98,11.57-6.99,8.71-14.19,17.68-19.35,28.01-1.9,1.98-3.2,4.51-3.68,7.33-.81,4.63-1.9,9.51-2.97,14.32l-.08,.35c-2.47,11.07-5.03,22.51-5.36,34.65-.15,4.43,1.74,8.58,5.12,11.36,1.68,1.39,3.7,2.39,5.84,2.88,1.42,.33,2.86,.49,4.27,.49,3.25,0,5.7-.86,6.95-1.32,.39-.09,.79-.2,1.18-.32,.72-.17,1.45-.35,2.18-.54,.67-.01,1.35-.07,1.99-.18,1.77-.29,3.46-.91,4.97-1.81,12.34-3.91,22.84-9.35,31.27-16.2,1.62-.93,3.04-2.18,4.17-3.66,.22-.2,.43-.41,.65-.62,.08-.07,.15-.15,.22-.22,1.14-1.16,2.07-2.5,2.75-3.96,4.63-6.41,9.86-12.84,14.95-19.09,4.22-5.19,8.6-10.56,12.7-16.01,5.74-7.62,12.1-15.45,18.31-23.1,.02-.02,.04-.05,.06-.07,0-.01,.02-.03,.03-.04,4.57-5.63,9.3-11.45,13.79-17.21,5.75-7.36,11.41-14.55,17.19-21.9,.54-.68,1.01-1.4,1.41-2.17,2.47-3.25,4.76-6.7,6.83-10.28,.4-.69,.73-1.4,1-2.14,.9-1.19,1.87-2.44,2.92-3.77,9.42-12.05,23.65-30.26,9.13-54.31Z"/><g><path class="cls-3" d="M195.68,40.01c9.95,16.48,.72,28.28-8.2,39.7-1.65,2.1-3.34,4.27-4.87,6.42,.13,.32,.12,.69-.07,1-2.08,3.6-4.42,7.03-6.93,10.2,0,.23-.08,.45-.23,.65-5.81,7.38-11.48,14.59-17.24,21.96-4.44,5.69-9.15,11.49-13.71,17.1-6.25,7.7-12.72,15.66-18.63,23.5-3.97,5.26-8.28,10.56-12.45,15.68-5.61,6.9-11.4,14.02-16.5,21.23,.01,.31-.1,.62-.33,.86-.57,.55-1.14,1.08-1.72,1.6-.1,.5-.53,.87-1.04,.91-9.17,7.86-20.53,12.68-30.49,15.61-.15,.35-.47,.62-.86,.68-.31,.05-.61-.03-.85-.2-1.72,.48-3.38,.9-4.98,1.27-.11,.06-.23,.11-.37,.13-.51,.08-.97,.25-1.45,.43-1.03,.38-2.2,.81-3.95,.4-.18-.04-.33-.12-.47-.23-.27-.22-.43-.55-.42-.92,.3-10.95,2.72-21.78,5.06-32.25,1.11-5.01,2.27-10.19,3.16-15.25,.1-.58,.61-.97,1.17-.94,4.5-10.2,11.96-19.51,19.19-28.52,3.17-3.96,6.46-8.06,9.38-12.09,10.19-14.13,19.81-26.21,32.27-41.73,1.48-1.84,2.92-3.72,4.37-5.6,3.96-5.15,8.05-10.48,12.89-15.03,.07-.07,.16-.12,.24-.17,.11-.15,.24-.28,.41-.37,1.68-2.79,3.8-5.55,6.1-7.99,.09-.18,.23-.32,.41-.43,.06-.06,.12-.12,.18-.18h0c4.4-7.01,20.89-30.86,38.91-26.15,3.82,1,8.45,5.07,11.25,8.17,.31,.06,.59,.24,.77,.53Zm-10.01,38.28c8.62-11.02,16.77-21.44,8.69-35.99-.08-.06-.15-.12-.21-.19-2.85-3.51-7.7-7.71-11.07-8.58-13.31-3.47-27.96,11.47-36.63,25.54,3.63,14.28,20.27,22.93,34.01,26.14,1.64-2.33,3.45-4.66,5.21-6.91Zm-11.42,17.06c1.96-2.51,3.8-5.18,5.48-7.97-8.26-1.97-17.51-5.84-24.61-11.68-4.84-3.98-8.67-8.89-10.5-14.73-1.75,2.01-3.35,4.19-4.67,6.39,3.27,8.4,9.19,17.17,17.62,22.61,.33-.13,.73-.1,1.05,.12,.29,.2,.46,.51,.49,.83,4.4,2.53,9.43,4.17,15.07,4.42,.02,0,.04,0,.06,0Zm-1.45,2.19c-5.5-.44-10.42-2.11-14.74-4.58-12.33,18.11-26.59,35.7-40.41,52.72-6.59,8.12-13.41,16.52-19.87,24.81-2.68,3.44-5.41,7.84-8.05,12.1-1.79,2.89-3.52,5.66-5.1,7.93,3.23-.54,5.9-.1,7.71,1.33,.03,.03,.06,.05,.09,.07,1.29,1.07,2.08,2.57,2.37,4.48,5.19-7.37,11.08-14.61,16.79-21.64,4.15-5.1,8.45-10.38,12.39-15.61,5.93-7.87,12.41-15.84,18.67-23.56,4.56-5.6,9.25-11.39,13.69-17.07,5.5-7.04,10.92-13.94,16.47-20.98Zm-16.7-5.78c-1.22-.8-2.39-1.66-3.5-2.58-1.96-1.62-3.75-3.4-5.4-5.29-6.87,7.68-13.16,16.12-19.25,24.28-2.94,3.94-5.97,8.01-9.03,11.94-6.56,8.44-13.32,16.54-19.85,24.38-4.08,4.89-8.16,9.78-12.25,14.82-2.52,3.11-4.96,6.48-7.33,9.74-2.42,3.34-4.91,6.77-7.53,9.98,2.64-.21,5.1,.5,7.07,2.1,2.36,1.86,3.65,4.69,3.81,7.93,1.53-2.19,3.19-4.88,4.93-7.68,2.68-4.31,5.44-8.76,8.2-12.29,6.47-8.3,13.3-16.71,19.9-24.85,13.76-16.95,27.97-34.47,40.23-52.47Zm-10.38-9.66c-3.15-4.01-5.64-8.42-7.45-12.77-.12,0-.24,0-.35-.02-4.24,4.19-7.97,9.02-11.58,13.71-1.46,1.89-2.91,3.78-4.39,5.63-12.45,15.49-22.04,27.55-32.2,41.63-2.95,4.09-6.25,8.21-9.45,12.19-7.57,9.43-15.39,19.19-19.64,29.81-.12,.3-.35,.51-.62,.63,0,.04-.01,.07-.02,.11,2.47-.63,4.5-.38,6.06,.73,1.51,1.07,2.45,2.89,2.79,5.4,3.05-3.58,5.95-7.57,8.76-11.45,2.38-3.29,4.84-6.68,7.41-9.84,4.1-5.04,8.19-9.95,12.26-14.84,6.52-7.83,13.27-15.91,19.81-24.32,3.05-3.91,6.07-7.97,9-11.9,6.19-8.3,12.58-16.87,19.61-24.7Zm-53.11,116.7c.13-2.42-.4-4.21-1.7-5.15-1.77-1.41-5.08-1.42-9.08-.04-.04,.02-.08,.02-.11,.03-.01,0-.02,0-.03,0-.07,.01-.13,.02-.19,.02h-.06c-.06,0-.12,0-.18-.01h-.02s0,0-.02,0c-.09-.02-.17-.04-.25-.08,0,0,0,0-.01,0-.08-.04-.15-.06-.22-.12v.04c-.08-.06-.15-.22-.22-.3h0c-.06-.1-.11-.18-.14-.28h0s0-.02,0-.02c-.02-.06-.04-.12-.04-.19,0-.01,0-.02,0-.04,0-.06,0-.13,0-.2,0-.01,0-.03,0-.04,0-.03,0-.07,.01-.11,.74-3.87-.27-7.36-2.7-9.37-.01,0-.02-.02-.04-.03-2.11-1.71-5-2.08-8.04-1.05-.01,.01-.02,.02-.03,.03-.16,.18-.37,.3-.59,.35-.16,.45-.59,.76-1.09,.76-.27,0-.51-.1-.7-.26-.26-.21-.43-.54-.42-.91,.05-3.1-.64-5.25-1.98-6.22-1.17-.84-2.92-.86-5.21-.06-.72,3.58-1.52,7.17-2.3,10.68-1.39,6.23-2.81,12.59-3.78,19,4.67,.73,8.19,4.01,9.55,8.88,9.74-2.91,20.8-7.64,29.62-15.32Zm-31.83,15.96c-1.11-4.01-3.88-6.64-7.66-7.24-.43,3.16-.73,6.32-.86,9.49,.5,0,.92-.14,1.4-.31,.16-.17,.36-.29,.6-.34,2.04-.44,4.24-.98,6.52-1.61Z"/><path class="cls-3" d="M52.18,219.92c-.49,0-.99-.06-1.51-.18-.27-.06-.51-.18-.72-.36-.42-.35-.66-.86-.64-1.41,.3-11.01,2.73-21.87,5.07-32.36l.08-.35c1.09-4.89,2.21-9.94,3.08-14.88,.12-.72,.67-1.27,1.37-1.42,4.55-10.16,11.96-19.39,19.13-28.33,3.18-3.97,6.46-8.05,9.36-12.07,10.17-14.11,19.8-26.2,32.29-41.75,1.44-1.8,2.85-3.63,4.27-5.47l.09-.12c3.97-5.17,8.07-10.51,12.95-15.1,.07-.07,.15-.13,.25-.19,.11-.13,.24-.25,.38-.35,1.67-2.75,3.76-5.48,6.05-7.91,.13-.21,.3-.4,.51-.54l.09-.09c4.03-6.41,18.27-26.99,34.65-26.99,1.65,0,3.3,.21,4.9,.63,3.82,1,8.38,4.87,11.43,8.22,.41,.13,.74,.4,.96,.76,10.17,16.84,.81,28.81-8.24,40.39-1.72,2.19-3.26,4.17-4.69,6.17,.08,.41,0,.83-.21,1.19-2.05,3.54-4.36,6.95-6.87,10.13-.05,.29-.17,.56-.35,.79-5.81,7.38-11.48,14.59-17.24,21.96-4.43,5.67-9.12,11.45-13.66,17.04l-.56-.29,.48,.39c-6.24,7.68-12.69,15.63-18.59,23.45-3.97,5.26-8.27,10.54-12.42,15.65-5.58,6.86-11.31,13.91-16.41,21.1-.04,.41-.21,.8-.5,1.09-.54,.52-1.07,1.02-1.61,1.5-.2,.59-.7,1.03-1.32,1.16-7.82,6.66-18.02,11.89-30.34,15.54-.27,.41-.7,.69-1.18,.77-.36,.06-.71,0-1.03-.14-1.61,.44-3.19,.84-4.69,1.19-.13,.06-.29,.12-.48,.15-.45,.07-.88,.23-1.33,.4-.73,.27-1.64,.6-2.8,.6Zm7.11-49.75c-.28,0-.49,.18-.53,.42-.87,4.96-2,10.03-3.09,14.93l-.08,.35c-2.33,10.44-4.74,21.23-5.04,32.13,0,.17,.06,.32,.19,.42,.07,.05,.14,.09,.22,.11,1.43,.33,2.59-.01,3.6-.38,.49-.18,1-.37,1.57-.46,.05,0,.1-.03,.19-.07,.04-.02,.09-.04,.14-.05,1.59-.37,3.25-.79,4.95-1.26,.18-.05,.37-.02,.52,.09,.09,.06,.2,.1,.3,.1,.26-.03,.41-.15,.48-.32,.07-.17,.22-.3,.4-.35,12.32-3.63,22.51-8.84,30.26-15.48,.1-.09,.23-.14,.36-.15,.23-.02,.43-.19,.47-.41,.03-.13,.09-.25,.19-.34,.57-.52,1.14-1.04,1.7-1.59,.09-.1,.15-.24,.14-.39,0-.14,.03-.27,.11-.38,5.15-7.28,10.93-14.39,16.53-21.26,4.19-5.15,8.48-10.42,12.43-15.66,5.91-7.84,12.37-15.79,18.62-23.48l.08-.1c4.54-5.59,9.23-11.36,13.64-17.02,5.76-7.37,11.43-14.58,17.24-21.96,.07-.08,.1-.18,.1-.28,0-.13,.05-.26,.13-.37,2.52-3.17,4.83-6.58,6.88-10.13,.08-.14,.09-.31,.03-.46-.08-.2-.06-.42,.07-.6,1.5-2.1,3.1-4.16,4.89-6.45,8.8-11.25,17.89-22.88,8.16-39-.1-.16-.24-.22-.35-.24-.13-.02-.25-.09-.34-.19-2.79-3.1-7.33-7.05-10.95-7.99-1.5-.39-3.04-.59-4.59-.59-15.79,0-29.74,20.26-33.63,26.47-.03,.04-.06,.08-.1,.12l-.17,.17s-.08,.07-.12,.1c-.08,.05-.15,.12-.19,.2-.03,.05-.06,.09-.1,.13-2.29,2.42-4.37,5.14-6.02,7.88-.06,.1-.14,.18-.24,.23-.08,.04-.14,.1-.2,.17-.06,.08-.13,.15-.21,.19-.05,.03-.08,.05-.11,.07-4.81,4.53-8.88,9.83-12.82,14.96l-.09,.12c-1.42,1.84-2.83,3.68-4.28,5.49-12.47,15.54-22.09,27.62-32.25,41.7-2.92,4.04-6.21,8.14-9.38,12.1-7.21,8.98-14.65,18.26-19.12,28.4-.1,.23-.34,.39-.6,.37h0Zm-7.04,47.45c-.17,0-.33-.07-.44-.19-.12-.12-.18-.29-.18-.46,.13-3.03,.41-6.16,.87-9.55,.02-.16,.11-.31,.24-.41,.13-.1,.3-.14,.47-.11,4.01,.63,6.99,3.43,8.16,7.68,.04,.16,.02,.33-.06,.47s-.21,.25-.37,.29c-2.15,.59-4.35,1.14-6.56,1.62-.11,.02-.2,.07-.28,.16-.07,.07-.15,.13-.25,.16-.48,.17-.99,.33-1.6,.34h0Zm1.39-9.38c-.37,2.83-.61,5.47-.74,8.04,.13-.03,.27-.08,.42-.13,.23-.21,.51-.34,.81-.41,1.96-.43,3.94-.91,5.87-1.43-1.08-3.26-3.3-5.39-6.36-6.08Zm9.34,6.5c-.1,0-.21-.03-.3-.08-.15-.08-.25-.22-.3-.38-1.3-4.67-4.6-7.74-9.04-8.43-.34-.05-.57-.37-.52-.7,.97-6.41,2.39-12.79,3.77-18.96l.04-.17c.77-3.46,1.57-7.03,2.28-10.58,.04-.21,.2-.39,.4-.46,2.49-.88,4.45-.83,5.78,.14,1.52,1.1,2.29,3.42,2.24,6.73,0,.17,.06,.32,.19,.42,.07,.05,.18,.12,.32,.12h0c.23,0,.43-.14,.5-.35,.07-.2,.24-.34,.44-.39,.1-.02,.2-.08,.27-.16,.07-.08,.19-.17,.29-.21,3.21-1.09,6.37-.67,8.61,1.14,.02,.01,.03,.02,.04,.03,2.62,2.16,3.71,5.88,2.92,9.97,0,.03,0,.05,0,.08,0,.02,0,.06-.01,.09h.02v.02h0s.03,.08,.04,.12l-.02,.02s.06,.07,.09,.11c.02,.03,.04,.07,.07,.1,0,0,.01,0,.02,.01,.04,.01,.07,.02,.11,.04,.03,0,.14,.04,.19,.05v-.02c.07-.04,.14-.04,.22-.03,4.18-1.45,7.71-1.4,9.65,.15,1.43,1.02,2.09,2.94,1.94,5.67,0,.17-.08,.32-.21,.43-7.59,6.61-17.63,11.81-29.85,15.45-.06,.02-.12,.03-.18,.03Zm-8.84-10c4.39,.9,7.79,4.07,9.26,8.61,11.68-3.55,21.29-8.54,28.6-14.85,.08-2.14-.41-3.6-1.46-4.35-1.6-1.28-4.81-1.24-8.52,.04-.02,0-.11,.03-.13,.04h-.03s-.06,.02-.09,.03c-.1,.02-.21,.03-.3,.03-.15,0-.23,0-.31-.02-.07,0-.1,0-.17-.03-.08-.02-.14-.03-.2-.05-.06-.01-.11-.03-.16-.06-.03-.01-.05-.02-.08-.04-.09-.02-.17-.05-.24-.11-.14-.11-.22-.26-.28-.36-.02-.03-.05-.07-.07-.11-.06-.09-.14-.22-.19-.39,0-.02-.01-.03-.02-.05-.03-.1-.05-.19-.07-.3-.02-.14-.02-.24-.02-.33,0-.05,0-.1,.03-.15,.7-3.73-.23-7.01-2.48-8.86-1.94-1.57-4.58-1.91-7.34-1.01-.15,.15-.32,.26-.51,.34-.31,.53-.89,.88-1.52,.88-.43,0-.8-.14-1.12-.4-.42-.35-.66-.86-.64-1.4,.05-2.83-.57-4.86-1.73-5.7-.93-.67-2.41-.7-4.32-.08-.7,3.44-1.47,6.9-2.22,10.25l-.64,.04,.6,.13c-1.33,5.96-2.7,12.12-3.66,18.28Zm40.65-7.72s-.1,0-.14-.02c-.25-.06-.43-.26-.47-.51-.27-1.76-.99-3.14-2.15-4.1-.02-.02-.13-.11-.15-.13-1.56-1.22-4.09-1.67-7.16-1.15-.24,.04-.49-.07-.63-.28-.13-.21-.13-.48,.02-.68,1.52-2.17,3.13-4.75,5.08-7.9,2.69-4.32,5.41-8.71,8.09-12.15,6.34-8.13,13.03-16.37,19.5-24.35l.38-.47c13.78-16.98,28.04-34.55,40.38-52.68,.18-.27,.54-.35,.82-.19,4.5,2.58,9.37,4.09,14.49,4.5,.23,.02,.43,.16,.52,.37,.09,.21,.06,.45-.08,.63-5.55,7.04-10.97,13.94-16.47,20.98-4.44,5.68-9.2,11.55-13.7,17.08l-.25,.31c-6.18,7.61-12.57,15.48-18.41,23.24-3.97,5.27-8.26,10.54-12.41,15.63-5.4,6.63-11.52,14.15-16.76,21.6-.12,.17-.31,.26-.51,.26Zm-7.64-7.35c2.27,0,4.14,.57,5.56,1.69l.1,.08c1.07,.88,1.84,2.05,2.28,3.47,5.08-7.11,10.88-14.23,16.01-20.54,4.14-5.09,8.42-10.35,12.38-15.6,5.86-7.77,12.25-15.65,18.44-23.27l.25-.31c4.49-5.52,9.25-11.39,13.68-17.06,5.27-6.74,10.46-13.36,15.77-20.09-4.69-.53-9.18-1.96-13.37-4.28-12.3,18.01-26.44,35.44-40.12,52.29l-.38,.47c-6.47,7.97-13.15,16.21-19.48,24.33-2.64,3.39-5.35,7.75-7.97,11.96-1.68,2.7-3.08,4.95-4.39,6.9,.43-.04,.84-.05,1.24-.05Zm-4.31,0c-.06,0-.12,0-.17-.02-.25-.07-.43-.3-.45-.56-.16-3.13-1.43-5.79-3.58-7.48-1.82-1.48-4.13-2.17-6.64-1.97-.24,.02-.48-.11-.6-.33-.11-.22-.09-.49,.07-.68,2.6-3.18,5.08-6.6,7.48-9.92l.11-.15c2.34-3.23,4.76-6.56,7.26-9.65,3.94-4.85,7.72-9.39,12.26-14.83,6.53-7.83,13.28-15.92,19.84-24.36,2.99-3.83,5.95-7.8,8.81-11.64l.21-.29c6.06-8.14,12.33-16.55,19.28-24.33,.12-.13,.28-.21,.46-.21h0c.18,0,.35,.08,.46,.21,1.68,1.93,3.47,3.69,5.32,5.22,1.11,.91,2.27,1.77,3.45,2.54,.14,.09,.23,.23,.27,.4,.03,.16,0,.33-.1,.47-12.33,18.1-26.53,35.59-40.26,52.51-6.57,8.09-13.36,16.46-19.89,24.84-2.72,3.48-5.46,7.89-8.11,12.16l-.32,.52c-1.66,2.67-3.22,5.18-4.68,7.27-.12,.17-.31,.26-.51,.26Zm-9.57-11.29c2.3,.08,4.42,.86,6.15,2.26,2.02,1.59,3.36,3.93,3.85,6.68,1.17-1.76,2.41-3.76,3.71-5.84l.27-.44c2.72-4.37,5.47-8.81,8.23-12.35,6.54-8.38,13.33-16.76,19.91-24.86,13.59-16.74,27.63-34.04,39.85-51.92-1.03-.7-2.05-1.47-3.03-2.27-1.74-1.44-3.42-3.06-5.01-4.84-6.73,7.59-12.84,15.79-18.75,23.72l-.21,.29c-2.87,3.85-5.83,7.82-8.82,11.66-6.58,8.45-13.33,16.56-19.87,24.4-4.53,5.43-8.31,9.97-12.25,14.82-2.48,3.05-4.89,6.38-7.22,9.59l-.09,.12c-2.17,3-4.39,6.06-6.71,8.97Zm-4.41,1.39c-.06,0-.12,0-.18-.03-.23-.07-.41-.27-.44-.51-.32-2.34-1.17-4.02-2.53-4.98-1.4-1.01-3.27-1.22-5.55-.64-.2,.05-.42,0-.57-.14-.15-.14-.23-.35-.2-.55l.03-.15c.04-.19,.18-.35,.36-.43,.14-.06,.24-.16,.29-.3,4.29-10.71,12.14-20.5,19.74-29.97,3.19-3.97,6.48-8.08,9.43-12.16,10.23-14.17,19.81-26.21,32.22-41.66,1.45-1.81,2.87-3.66,4.3-5.51l.09-.11c3.43-4.46,7.31-9.51,11.63-13.77,.15-.15,.35-.21,.55-.17,.05,0,.1,.02,.15,.02,.25,0,.56,.15,.66,.38,1.88,4.53,4.43,8.89,7.36,12.63,.19,.24,.18,.57-.03,.8-7.05,7.85-13.41,16.39-19.57,24.66-3.19,4.28-6.06,8.13-9.01,11.91-6.46,8.3-13.12,16.29-19.56,24.02l-.95,1.15c-3.79,4.55-7.71,9.26-11.57,14.01-2.49,3.07-4.9,6.38-7.22,9.58l-.17,.24c-2.66,3.68-5.68,7.84-8.79,11.49-.12,.14-.29,.22-.47,.22Zm-6.35-7.71c1.51,0,2.83,.4,3.93,1.19,1.37,.97,2.31,2.48,2.79,4.5,2.78-3.36,5.48-7.09,7.89-10.41l.17-.24c2.33-3.21,4.74-6.54,7.26-9.63,3.87-4.76,7.79-9.47,11.58-14.02l.95-1.15c6.43-7.72,13.08-15.7,19.53-23.99,2.94-3.78,5.81-7.62,8.99-11.89,6.08-8.15,12.35-16.58,19.3-24.36-2.75-3.57-5.14-7.67-6.97-11.92-4.09,4.11-7.66,8.75-11.11,13.24l-.09,.11c-1.43,1.86-2.85,3.71-4.31,5.53-12.4,15.44-21.97,27.46-32.18,41.61-2.96,4.11-6.27,8.23-9.47,12.21-7.45,9.28-15.15,18.88-19.4,29.28,.39-.05,.76-.07,1.13-.07Zm111.73-76.1s-.06,0-.1,0c-5.42-.25-10.59-1.76-15.35-4.5-.17-.1-.29-.28-.31-.47,0-.09-.05-.26-.23-.38-.2-.14-.35-.1-.47-.05-.18,.07-.39,.05-.56-.06-10.39-6.7-15.65-17.23-17.86-22.9-.07-.18-.05-.38,.05-.54,1.32-2.2,2.96-4.44,4.74-6.48,.15-.17,.37-.24,.59-.2,.22,.05,.4,.21,.46,.42,1.67,5.32,5.14,10.18,10.3,14.43,8.56,7.05,18.94,10.26,24.36,11.55,.19,.05,.35,.18,.43,.36,.08,.18,.06,.39-.04,.56-1.68,2.78-3.54,5.48-5.52,8.03-.12,.15-.3,.24-.49,.24Zm-14.59-5.45c4.45,2.52,9.25,3.92,14.3,4.19,1.71-2.22,3.32-4.54,4.8-6.93-5.71-1.44-15.7-4.74-24.03-11.6-5.02-4.13-8.49-8.83-10.34-13.97-1.39,1.67-2.67,3.45-3.75,5.22,2.2,5.55,7.26,15.47,17.03,21.88,.44-.08,.91,.02,1.29,.28,.33,.23,.58,.56,.69,.94Zm20.8-4.71s-.09,0-.14-.02c-14.24-3.33-30.77-12.07-34.46-26.59-.04-.16-.02-.33,.07-.48,7.84-12.73,20.67-26.34,33.15-26.34,1.42,0,2.82,.18,4.16,.53,3.5,.91,8.48,5.21,11.39,8.79,.02,.03,.05,.05,.1,.09,.07,.05,.12,.12,.17,.19,8.28,14.91,0,25.48-8.74,36.67-1.65,2.11-3.52,4.5-5.19,6.88-.12,.17-.31,.26-.51,.26Zm-33.34-26.66c3.65,13.71,19.97,22.18,33.08,25.34,1.63-2.29,3.41-4.57,4.99-6.59,8.47-10.83,16.48-21.07,8.7-35.2-.07-.06-.14-.13-.21-.22-2.78-3.42-7.5-7.52-10.74-8.37-1.24-.33-2.54-.49-3.85-.49-11.9,0-24.28,13.14-31.96,25.53Z"/></g><g><path class="cls-4" d="M194.36,42.3c8.08,14.55-.07,24.97-8.69,35.99-1.76,2.25-3.57,4.58-5.21,6.91-13.73-3.21-30.38-11.86-34.01-26.14,8.67-14.07,23.32-29.01,36.63-25.54,3.37,.88,8.22,5.08,11.07,8.58,.06,.08,.13,.14,.21,.19Z"/><path class="cls-3" d="M180.46,85.82s-.09,0-.14-.02c-14.24-3.33-30.77-12.07-34.46-26.59-.04-.16-.02-.33,.07-.48,7.84-12.73,20.67-26.34,33.15-26.34,1.42,0,2.82,.18,4.16,.53,3.5,.91,8.48,5.21,11.39,8.79,.02,.03,.05,.05,.1,.09,.07,.05,.12,.12,.17,.19,8.28,14.91,0,25.48-8.74,36.67-1.65,2.11-3.52,4.5-5.19,6.88-.12,.17-.31,.26-.51,.26Zm-33.34-26.66c3.65,13.71,19.97,22.18,33.08,25.34,1.63-2.29,3.41-4.57,4.99-6.59,8.47-10.83,16.48-21.07,8.7-35.2-.07-.06-.14-.13-.21-.22-2.78-3.42-7.5-7.52-10.74-8.37-1.24-.33-2.54-.49-3.85-.49-11.9,0-24.28,13.14-31.96,25.53Z"/></g><g><path class="cls-7" d="M179.73,87.38c-1.69,2.79-3.53,5.46-5.48,7.97-.02,0-.04,0-.06,0-5.65-.25-10.68-1.89-15.07-4.42-.03-.32-.2-.63-.49-.83-.32-.22-.72-.25-1.05-.12-8.43-5.44-14.34-14.2-17.62-22.61,1.32-2.2,2.92-4.38,4.67-6.39,1.83,5.84,5.66,10.74,10.5,14.73,7.1,5.84,16.34,9.71,24.61,11.68Z"/><path class="cls-3" d="M174.24,95.97s-.06,0-.09,0l.09-.61-.1,.61c-5.41-.24-10.58-1.76-15.34-4.5-.17-.1-.29-.28-.31-.47,0-.09-.05-.26-.23-.38-.2-.14-.35-.1-.47-.05-.18,.07-.39,.05-.56-.06-10.39-6.7-15.65-17.23-17.86-22.9-.07-.18-.05-.38,.05-.54,1.32-2.2,2.96-4.44,4.74-6.48,.15-.17,.37-.24,.59-.2,.22,.05,.4,.21,.46,.42,1.67,5.32,5.14,10.18,10.3,14.43,8.56,7.05,18.94,10.26,24.36,11.55,.19,.05,.35,.18,.43,.36,.08,.18,.06,.39-.04,.56-1.68,2.78-3.54,5.48-5.52,8.03-.12,.15-.3,.24-.49,.24Zm-14.59-5.45c4.45,2.52,9.25,3.92,14.3,4.19,1.71-2.22,3.32-4.54,4.8-6.93-5.71-1.44-15.7-4.74-24.03-11.6-5.02-4.13-8.49-8.83-10.34-13.97-1.39,1.67-2.67,3.45-3.75,5.22,2.2,5.55,7.26,15.47,17.03,21.88,.44-.08,.91,.02,1.29,.28,.33,.23,.58,.56,.69,.94Z"/></g><g><path class="cls-1" d="M158.05,92.96c4.33,2.48,9.25,4.14,14.74,4.58-5.55,7.04-10.97,13.95-16.47,20.98-4.43,5.67-9.13,11.47-13.69,17.07-6.26,7.72-12.74,15.69-18.67,23.56-3.95,5.23-8.24,10.52-12.39,15.61-5.71,7.02-11.6,14.27-16.79,21.64-.29-1.91-1.08-3.42-2.37-4.48-.03-.02-.06-.04-.09-.07-1.81-1.43-4.48-1.88-7.71-1.33,1.58-2.27,3.31-5.04,5.1-7.93,2.65-4.26,5.37-8.66,8.05-12.1,6.46-8.28,13.28-16.69,19.87-24.81,13.82-17.03,28.08-34.61,40.41-52.72Z"/><path class="cls-3" d="M94.78,197.03s-.1,0-.14-.02c-.25-.06-.43-.26-.47-.51-.27-1.76-.99-3.14-2.15-4.1-.02-.02-.13-.11-.15-.13-1.56-1.22-4.09-1.67-7.16-1.15-.24,.04-.49-.07-.63-.28-.13-.21-.13-.48,.02-.68,1.52-2.17,3.13-4.75,5.08-7.9,2.69-4.32,5.41-8.71,8.09-12.15,6.34-8.13,13.03-16.37,19.5-24.34l.38-.47c13.78-16.98,28.04-34.55,40.38-52.68,.18-.27,.54-.35,.82-.19,4.5,2.58,9.37,4.09,14.49,4.5,.23,.02,.43,.16,.52,.37,.09,.21,.06,.45-.08,.63-5.55,7.04-10.97,13.94-16.47,20.98-4.44,5.68-9.2,11.55-13.7,17.08l-.25,.31c-6.18,7.61-12.57,15.48-18.41,23.24-3.97,5.27-8.26,10.54-12.41,15.63-5.4,6.63-11.52,14.15-16.76,21.6-.12,.17-.31,.26-.51,.26Zm-7.64-7.35c2.27,0,4.14,.57,5.56,1.69l.1,.08c1.07,.88,1.84,2.05,2.28,3.47,5.08-7.11,10.88-14.23,16.01-20.54,4.14-5.09,8.42-10.35,12.38-15.6,5.86-7.77,12.25-15.65,18.44-23.27l.25-.31c4.49-5.52,9.25-11.39,13.68-17.06,5.27-6.74,10.46-13.36,15.77-20.09-4.69-.53-9.18-1.96-13.37-4.28-12.3,18.01-26.44,35.44-40.12,52.29l-.38,.47c-6.47,7.97-13.15,16.21-19.48,24.32-2.64,3.39-5.35,7.75-7.97,11.96-1.68,2.7-3.08,4.95-4.39,6.9,.43-.04,.84-.05,1.24-.05Z"/></g><g><path class="cls-1" d="M152.59,89.18c1.12,.92,2.29,1.78,3.5,2.58-12.26,18-26.47,35.52-40.23,52.47-6.6,8.13-13.42,16.54-19.9,24.85-2.76,3.53-5.52,7.99-8.2,12.29-1.74,2.8-3.41,5.49-4.93,7.68-.16-3.25-1.45-6.08-3.81-7.93-1.97-1.6-4.43-2.3-7.07-2.1,2.62-3.2,5.1-6.63,7.53-9.98,2.37-3.26,4.81-6.64,7.33-9.74,4.1-5.04,8.18-9.94,12.25-14.82,6.54-7.84,13.29-15.94,19.85-24.38,3.06-3.93,6.1-8,9.03-11.94,6.09-8.17,12.38-16.6,19.25-24.28,1.65,1.89,3.44,3.68,5.4,5.29Z"/><path class="cls-3" d="M82.83,189.68c-.06,0-.12,0-.17-.02-.25-.07-.43-.3-.45-.56-.16-3.13-1.43-5.79-3.58-7.48-1.82-1.48-4.14-2.17-6.64-1.97-.24,.02-.48-.11-.6-.33-.11-.22-.09-.49,.07-.68,2.6-3.18,5.08-6.6,7.48-9.92l.11-.16c2.34-3.23,4.76-6.56,7.26-9.65,3.94-4.85,7.72-9.39,12.26-14.83,6.53-7.83,13.28-15.92,19.84-24.36,2.98-3.83,5.95-7.8,8.81-11.64l.21-.29c6.06-8.14,12.33-16.55,19.28-24.33,.12-.13,.28-.21,.46-.21h0c.18,0,.35,.08,.46,.21,1.68,1.93,3.47,3.69,5.32,5.22,1.11,.91,2.27,1.77,3.45,2.54,.14,.09,.23,.23,.27,.4,.03,.16,0,.33-.1,.47-12.33,18.1-26.53,35.59-40.26,52.51-6.57,8.09-13.36,16.46-19.89,24.84-2.72,3.48-5.46,7.89-8.11,12.16l-.32,.52c-1.66,2.67-3.22,5.18-4.68,7.28-.12,.17-.31,.26-.51,.26Zm-9.57-11.29c2.3,.08,4.42,.86,6.15,2.26,2.02,1.59,3.36,3.93,3.85,6.68,1.17-1.76,2.41-3.76,3.71-5.84l.27-.43c2.72-4.38,5.47-8.81,8.23-12.35,6.54-8.39,13.33-16.76,19.91-24.86,13.59-16.74,27.63-34.04,39.85-51.92-1.03-.7-2.05-1.47-3.03-2.27-1.74-1.44-3.42-3.06-5.01-4.84-6.73,7.59-12.84,15.79-18.75,23.72l-.21,.29c-2.87,3.85-5.83,7.82-8.82,11.66-6.58,8.46-13.33,16.56-19.87,24.4-4.53,5.43-8.31,9.98-12.25,14.82-2.48,3.05-4.89,6.38-7.22,9.59l-.09,.12c-2.17,3-4.39,6.06-6.71,8.97Z"/></g><g><path class="cls-1" d="M138.27,69.33c1.81,4.36,4.3,8.77,7.45,12.77-7.03,7.83-13.42,16.4-19.61,24.7-2.93,3.93-5.95,7.99-9,11.9-6.54,8.41-13.29,16.5-19.81,24.32-4.07,4.89-8.17,9.8-12.26,14.84-2.57,3.16-5.03,6.56-7.41,9.84-2.81,3.88-5.71,7.87-8.76,11.45-.34-2.51-1.27-4.33-2.79-5.4-1.56-1.12-3.59-1.36-6.06-.73,0-.04,0-.07,.02-.11,.27-.12,.5-.34,.62-.63,4.25-10.63,12.08-20.38,19.64-29.81,3.19-3.98,6.5-8.1,9.45-12.19,10.16-14.08,19.75-26.14,32.2-41.63,1.49-1.85,2.94-3.74,4.39-5.63,3.61-4.69,7.33-9.52,11.58-13.71,.12,.02,.24,.03,.35,.02Z"/><path class="cls-3" d="M68.86,179.78c-.06,0-.12,0-.18-.03-.23-.07-.41-.27-.44-.51-.32-2.34-1.17-4.02-2.53-4.98-1.4-1.01-3.27-1.22-5.55-.64-.2,.05-.42,0-.57-.14-.15-.14-.23-.35-.2-.55l.03-.15c.04-.19,.18-.35,.36-.43,.14-.06,.24-.16,.29-.3,4.29-10.71,12.14-20.5,19.74-29.97,3.19-3.97,6.48-8.08,9.43-12.16,10.23-14.17,19.81-26.21,32.22-41.66,1.45-1.81,2.87-3.66,4.29-5.51l.09-.12c3.43-4.46,7.31-9.51,11.63-13.77,.15-.15,.35-.21,.55-.17,.05,0,.1,.02,.15,.02,.25,0,.56,.15,.66,.38,1.88,4.53,4.43,8.89,7.36,12.63,.19,.24,.18,.57-.03,.8-7.05,7.85-13.41,16.39-19.57,24.66-3.19,4.28-6.06,8.13-9.01,11.91-6.46,8.31-13.12,16.29-19.56,24.02l-.95,1.14c-3.79,4.55-7.71,9.26-11.57,14.01-2.49,3.07-4.89,6.38-7.21,9.58l-.18,.24c-2.66,3.68-5.68,7.84-8.79,11.49-.12,.14-.29,.22-.47,.22Zm-6.35-7.71c1.51,0,2.83,.4,3.93,1.19,1.37,.97,2.31,2.48,2.79,4.5,2.78-3.36,5.48-7.09,7.89-10.41l.18-.24c2.33-3.21,4.74-6.53,7.26-9.63,3.87-4.76,7.79-9.47,11.58-14.02l.95-1.14c6.43-7.72,13.09-15.7,19.53-23.99,2.94-3.77,5.81-7.62,8.99-11.89,6.08-8.15,12.35-16.58,19.3-24.36-2.75-3.57-5.14-7.67-6.97-11.92-4.09,4.11-7.66,8.75-11.11,13.24l-.09,.12c-1.43,1.86-2.85,3.71-4.31,5.53-12.4,15.44-21.97,27.46-32.18,41.61-2.96,4.11-6.27,8.23-9.47,12.21-7.45,9.28-15.15,18.88-19.4,29.28,.39-.05,.76-.07,1.13-.07Z"/></g><g><path class="cls-5" d="M80.71,193.49v-.04c.07,.06,.15,.08,.22,.12,0,0,0,0,.01,0,.08,.04,.17,.06,.25,.08,0,0,0,0,.02,0h.02c.06,0,.12,.02,.18,.01h.06c.06,0,.13,0,.19-.02,0,0,.02,0,.03,0,.03-.01,.08-.02,.11-.03,4-1.38,7.31-1.37,9.08,.04,1.3,.93,1.84,2.72,1.7,5.15-8.83,7.69-19.88,12.42-29.62,15.32-1.36-4.87-4.88-8.15-9.55-8.88,.97-6.41,2.39-12.77,3.78-19,.78-3.51,1.58-7.1,2.3-10.68,2.29-.81,4.05-.79,5.21,.06,1.34,.97,2.03,3.12,1.98,6.22,0,.36,.15,.69,.42,.91,.19,.16,.43,.26,.7,.26,.51,0,.93-.31,1.09-.76,.22-.05,.43-.17,.59-.35,0,0,.02-.02,.03-.03,3.04-1.03,5.93-.67,8.04,1.05,.01,0,.02,.02,.04,.03,2.43,2,3.44,5.5,2.7,9.37,0,.04,0,.08-.01,.11,0,.01,0,.03,0,.04,0,.07,0,.13,0,.2,0,.02,0,.03,0,.04,0,.06,.02,.13,.04,.19,0,0,0,.01,0,.02h0c.03,.1,.08,.19,.14,.27h0c.06,.09,.13,.25,.21,.31Z"/><path class="cls-3" d="M62.98,214.74c-.1,0-.21-.03-.3-.08-.15-.08-.25-.22-.3-.38-1.3-4.67-4.6-7.74-9.04-8.43-.34-.05-.57-.37-.52-.7,.97-6.41,2.39-12.79,3.77-18.96l.04-.17c.77-3.46,1.57-7.03,2.28-10.57,.04-.21,.2-.39,.4-.46,2.49-.88,4.45-.83,5.78,.14,1.52,1.1,2.29,3.42,2.24,6.73,0,.17,.06,.32,.19,.42,.07,.05,.18,.12,.32,.12h0c.23,0,.43-.14,.5-.35,.07-.2,.24-.34,.44-.39,.1-.02,.2-.08,.27-.16,.07-.08,.19-.17,.29-.21,3.21-1.09,6.37-.67,8.61,1.14,.02,.01,.03,.02,.04,.03,2.62,2.16,3.71,5.88,2.92,9.97,0,.03,0,.05,0,.08,0,.02,0,.06-.01,.09h.02v.02h0s.03,.08,.04,.12l-.02,.02s.06,.07,.09,.11c.02,.03,.04,.07,.07,.1,0,0,.01,0,.02,.01,.04,.01,.07,.02,.11,.04,.03,0,.14,.04,.19,.05v-.02c.07-.04,.14-.04,.22-.03,4.18-1.45,7.71-1.4,9.65,.15,1.43,1.02,2.09,2.94,1.94,5.67,0,.17-.08,.32-.21,.43-7.59,6.61-17.63,11.81-29.85,15.45-.06,.02-.12,.03-.18,.03Zm-8.84-10c4.39,.91,7.79,4.07,9.26,8.61,11.68-3.55,21.29-8.54,28.6-14.85,.08-2.14-.41-3.6-1.46-4.35-1.61-1.28-4.81-1.24-8.52,.04-.02,0-.11,.03-.13,.04h-.03s-.06,.02-.09,.03c-.1,.02-.21,.03-.3,.03-.15,0-.23,0-.31-.02-.07,0-.1,0-.17-.03-.08-.02-.14-.03-.2-.05-.06-.01-.11-.03-.16-.06-.03-.01-.05-.02-.08-.04-.09-.02-.17-.05-.24-.11-.14-.11-.22-.26-.28-.36-.02-.03-.05-.07-.07-.11-.06-.09-.14-.22-.19-.39,0-.02-.01-.03-.02-.05-.03-.1-.05-.2-.07-.3-.02-.14-.02-.24-.02-.33,0-.05,0-.1,.03-.16,.7-3.73-.23-7.01-2.48-8.86-1.94-1.57-4.58-1.91-7.34-1.01-.15,.15-.32,.26-.51,.34-.31,.53-.89,.88-1.52,.88-.43,0-.8-.14-1.12-.4-.42-.35-.66-.86-.64-1.4,.05-2.83-.57-4.86-1.73-5.7-.93-.67-2.41-.7-4.32-.08-.7,3.44-1.47,6.9-2.22,10.25l-.64,.04,.6,.13c-1.33,5.96-2.7,12.12-3.66,18.29Z"/></g><g><path class="cls-6" d="M53.11,207.52c3.79,.6,6.55,3.22,7.66,7.24-2.28,.63-4.48,1.16-6.52,1.61-.24,.05-.44,.17-.6,.34-.48,.17-.91,.3-1.4,.31,.13-3.17,.43-6.33,.86-9.49Z"/><path class="cls-3" d="M52.25,217.63c-.17,0-.33-.07-.44-.19-.12-.12-.18-.29-.18-.46,.13-3.03,.41-6.16,.87-9.55,.02-.16,.11-.31,.24-.41,.13-.1,.3-.14,.47-.12,4.01,.63,6.99,3.43,8.16,7.69,.04,.16,.02,.33-.06,.47s-.21,.25-.37,.29c-2.15,.59-4.35,1.14-6.56,1.62-.11,.02-.2,.07-.28,.16-.07,.07-.15,.13-.25,.16-.48,.17-.99,.33-1.6,.34h0Zm1.39-9.38c-.37,2.83-.61,5.47-.74,8.04,.13-.03,.27-.08,.42-.13,.23-.21,.51-.34,.81-.41,1.96-.43,3.94-.91,5.87-1.43-1.08-3.26-3.3-5.39-6.36-6.08Z"/></g></g></svg>