<?xml version="1.0" encoding="UTF-8"?><svg id="_ëîé_1" xmlns="http://www.w3.org/2000/svg" viewBox="0 0 250 250"><defs><style>.cls-1{fill:#fff;}.cls-2{fill:#ffcb27;}.cls-3{fill:#282828;}</style></defs><g id="ruler"><path class="cls-1" d="M219.97,35.54c-1.2-.67-2.49-1.16-3.83-1.46-9.6-6.04-20.39-14.37-30.01-21.79l-.94-.73c-1.65-1.27-3.26-2.51-4.81-3.7-2.43-1.86-5.46-2.89-8.54-2.89-4.34,0-8.5,2.03-11.13,5.44-.74,.96-1.35,2-1.82,3.09-2.72,4.09-6.05,8.22-9.29,12.24-4.72,5.86-9.61,11.93-13.68,18.88-.25,.42-.48,.85-.69,1.3-2.76,3.58-5.79,7.11-9.02,10.88-3.08,3.59-6.26,7.31-9.37,11.27-8.62,11.04-16.7,22.62-24.56,33.89l-.21,.3c-7.84,11.25-15.95,22.89-24.4,33.66-3.5,4.45-7.37,9.08-11.14,13.59-11.12,13.29-22.6,27.01-30.56,43.03-4.62,5.7-4.08,14.12,1.41,19.2,1.88,1.73,3.92,3.49,6.06,5.23,7.36,5.97,15.15,11.09,22.69,16.05,3.89,2.55,7.22,4.75,10.4,6.96,.58,.69,1.22,1.33,1.93,1.9,.04,.03,.08,.07,.13,.1,.81,.64,1.7,1.19,2.63,1.64,.06,.03,.13,.06,.19,.09,1.86,.86,3.85,1.3,5.9,1.3,5.44,0,10.43-3.18,12.73-8.09,4.3-9.18,12.49-18.62,20.42-27.76l.12-.14c4.2-4.85,8.54-9.86,12.48-15.01,5.88-7.7,11.65-15.84,16.73-23.03,0,0,.07-.1,.08-.11l.08-.12c6.8-9.61,13.83-19.54,21.18-28.64,2.66-3.29,5.58-6.69,8.21-9.75,4.23-4.93,8.6-10.02,12.68-15.49,1.45-1.5,2.53-3.28,3.19-5.21,5.09-7.24,10.39-14.69,15.12-21.34l.88-1.24c4.67-6.56,9.34-13.14,13.95-19.67,.93-1.32,1.9-2.62,2.87-3.93,2.26-3.04,5.08-6.83,7.35-10.87,3.76-6.76,1.33-15.33-5.41-19.1Z"/><g><path class="cls-2" d="M211.01,48.88c-1.44,2.33-3.12,4.63-4.8,6.88-.07-.09-.15-.17-.24-.23-2.38-1.71-5.91-3.88-8.21-5.02-.61-.3-1.36-.05-1.66,.56-.27,.53-.12,1.15,.33,1.51,.07,.06,.15,.11,.22,.15,2.17,1.08,5.63,3.19,7.88,4.81,.08,.06,.17,.11,.26,.14-.72,.98-1.44,1.95-2.13,2.94-1.54,2.18-3.09,4.37-4.63,6.55-.04-.03-.09-.07-.14-.1-3.01-1.68-5.97-3.9-8.53-6.41-.5-.48-1.28-.47-1.75,.02-.48,.49-.47,1.27,.01,1.75,.98,.95,1.99,1.86,3.05,2.72,1.89,1.53,3.89,2.9,5.92,4.04-2.61,3.68-5.23,7.36-7.85,11.04-.22,.31-.44,.62-.66,.93-2.5-1.96-5.36-3.9-7.97-5.39-.59-.34-1.35-.13-1.69,.46-.3,.54-.17,1.2,.3,1.58,.05,.04,.1,.08,.16,.12,2.53,1.45,5.32,3.34,7.76,5.25-2.22,3.12-4.46,6.27-6.69,9.42-.09-.3-.29-.57-.59-.74-5.49-2.99-11.4-7.07-15.81-10.92-.48-.36-1.3-.4-1.75,.12-.45,.51-.4,1.3,.12,1.75,.63,.55,1.28,1.09,1.96,1.64,4.25,3.45,9.43,6.93,14.29,9.58,.21,.12,.44,.16,.66,.14-2.52,3.56-5.03,7.12-7.51,10.65-2.59-2.33-5.55-4.08-8.66-5.13-.65-.22-1.35,.13-1.57,.78-.17,.51,0,1.04,.39,1.36,.11,.09,.24,.16,.38,.21,2.87,.97,5.62,2.62,8.02,4.82-.54,.77-1.08,1.54-1.61,2.3-.17,.24-.23,.51-.21,.78-2.17,2.8-4.47,5.57-6.77,8.29-2.27-3.25-5.95-5.73-9.33-6.25-.67-.1-1.3,.36-1.41,1.03-.07,.45,.11,.89,.44,1.15,.17,.14,.37,.23,.59,.26,2.84,.44,6.11,2.76,7.96,5.64,.03,.04,.05,.07,.08,.11-.67,.78-1.33,1.56-2,2.34-1.84,2.14-3.71,4.33-5.57,6.55-2.39-2.15-5.45-4.1-7.86-4.98-.65-.23-1.36,.1-1.59,.74-.18,.51-.02,1.06,.38,1.38,.11,.09,.22,.16,.36,.2,2.13,.77,4.99,2.59,7.12,4.56-.42,.51-.84,1.02-1.25,1.53-1.97,2.44-3.91,4.92-5.82,7.43-.05-.04-.1-.07-.15-.11-6.96-3.94-12.93-9.05-17.37-13.05-.47-.44-1.29-.42-1.75,.09-.46,.51-.42,1.29,.09,1.75,1.8,1.62,3.84,3.42,6.1,5.25,3.41,2.77,7.31,5.61,11.59,8.05-2.52,3.36-5,6.74-7.43,10.14-2.37-1.91-5.17-3.79-7.7-5.14-.61-.32-1.36-.1-1.68,.51-.29,.53-.14,1.18,.31,1.54,.06,.05,.13,.1,.2,.13,2.44,1.3,5.15,3.12,7.42,4.97-1.91,2.68-3.81,5.34-5.68,8-.53,.75-1.07,1.5-1.6,2.26-2.34-2.41-5.52-4.69-8.28-5.89-.63-.27-1.36,.02-1.63,.64-.23,.52-.07,1.12,.35,1.46,.09,.07,.18,.13,.29,.18,2.57,1.12,5.68,3.38,7.8,5.67-2.72,3.84-5.49,7.71-8.3,11.54-2.54-2.55-5.63-4.81-8.58-6.28-.61-.3-1.35-.05-1.66,.56-.26,.53-.11,1.16,.32,1.51,.07,.06,.15,.11,.24,.15,2.81,1.39,5.77,3.61,8.17,6.08-1.19,1.6-2.39,3.19-3.59,4.77-1.03,1.35-2.1,2.7-3.2,4.05-.05-.04-.1-.09-.16-.12l-.77-.45c-6.26-3.67-13.35-7.83-17.62-13.72-.4-.54-1.17-.67-1.73-.27-.56,.4-.68,1.17-.28,1.73,1.75,2.41,3.9,4.52,6.25,6.43,3.81,3.09,8.13,5.63,12.13,7.97l.6,.35c-1.67,2-3.37,4-5.08,5.97-.02-.01-.03-.03-.05-.04-2.37-1.45-5.29-3-7.8-4.14-.62-.28-1.36,0-1.64,.61-.24,.52-.08,1.13,.34,1.48,.08,.07,.17,.12,.27,.17,2.32,1.06,5,2.47,7.23,3.82-.17,.2-.33,.39-.51,.59-2.17,2.5-4.35,5.02-6.49,7.58-2.15-1.9-5.91-4.58-7.08-5.1-.62-.28-1.35,0-1.63,.62-.24,.52-.07,1.13,.35,1.47,.08,.07,.18,.12,.28,.17,.81,.37,4.44,2.9,6.5,4.74-2.66,3.22-5.21,6.49-7.55,9.83-1.91-1.68-4.04-3.45-6.07-5.06-.54-.43-1.32-.33-1.74,.21-.42,.53-.28,1.28,.21,1.74,2.08,1.66,4.26,3.47,6.2,5.19-1.78,2.67-3.4,5.38-4.8,8.14-4.01-2.85-8.15-5.57-12.52-8.44-8.83-5.8-17.94-11.79-25.82-18.88,7.12-15.21,18.53-28.84,29.56-42.03,3.82-4.57,7.77-9.29,11.43-13.95,8.72-11.11,16.96-22.94,24.93-34.37,7.78-11.15,15.82-22.69,24.27-33.51,2.92-3.74,6.02-7.35,9.03-10.86,4.71-5.49,9.58-11.17,13.71-17.3,.24-.36,.27-.79,.12-1.16,3.01-4.47,6.43-8.71,9.76-12.84,3.71-4.6,7.53-9.35,10.78-14.39,1.46,1.12,2.96,2.28,4.49,3.46,10.9,8.41,23.22,17.91,34.22,24.47Z"/><path class="cls-3" d="M77.04,229.29c-.13,0-.25-.04-.35-.11-3.89-2.76-7.79-5.34-12.5-8.43-8.82-5.79-17.94-11.78-25.89-18.93-.2-.18-.26-.47-.15-.71,7.16-15.28,18.59-28.94,29.64-42.16l.45-.54c3.67-4.39,7.46-8.93,10.97-13.4,8.69-11.07,16.9-22.86,24.85-34.25l.22-.32c7.73-11.09,15.73-22.55,24.13-33.31,2.92-3.74,6.03-7.36,9.03-10.86,4.71-5.49,9.56-11.15,13.68-17.25,.12-.18,.14-.39,.06-.58-.08-.19-.05-.4,.06-.57,3.01-4.47,6.43-8.71,9.74-12.82,3.55-4.41,7.52-9.33,10.8-14.4,.09-.14,.24-.24,.41-.27,.17-.03,.34,.01,.48,.12l4.49,3.46c10.84,8.37,23.12,17.85,34.16,24.43,.14,.08,.24,.22,.28,.38,.04,.16,.01,.33-.07,.47-1.46,2.35-3.18,4.71-4.83,6.93-.11,.15-.29,.24-.48,.25-.19-.01-.37-.08-.49-.23-.03-.04-.07-.08-.1-.1-2.39-1.72-5.89-3.86-8.15-4.99-.31-.15-.69-.02-.84,.28-.14,.27-.07,.58,.16,.77,.05,.04,.11,.08,.14,.09,2.15,1.07,5.65,3.21,7.94,4.85,.04,.03,.08,.05,.14,.07,.17,.07,.3,.22,.35,.4,.05,.18,.02,.38-.1,.53l-.1,.13c-.69,.93-1.37,1.86-2.03,2.8-1.53,2.17-3.06,4.34-4.6,6.51-.1,.13-.26,.25-.42,.27-.17,.03-.34,0-.48-.09-3.15-1.76-6.14-4.01-8.74-6.56-.24-.23-.65-.23-.89,0-.12,.12-.19,.28-.18,.45,0,.17,.07,.32,.19,.44,.98,.95,1.99,1.86,3.01,2.68,1.87,1.52,3.84,2.86,5.84,3.98,.15,.08,.26,.23,.3,.4,.04,.17,0,.35-.1,.49-2.61,3.68-5.23,7.36-7.85,11.04l-.66,.93c-.1,.14-.24,.23-.41,.25-.17,.02-.33-.02-.47-.12-2.49-1.95-5.3-3.85-7.89-5.34-.3-.17-.69-.06-.86,.24-.15,.27-.09,.61,.15,.8,2.62,1.51,5.41,3.4,7.91,5.36,.26,.2,.31,.57,.12,.83-2.22,3.12-4.45,6.27-6.69,9.42-.13,.19-.36,.29-.6,.25-.23-.04-.42-.2-.49-.42-.04-.12-.12-.28-.32-.39-5.52-3.01-11.48-7.12-15.91-10.98-.09-.07-.26-.12-.44-.12-.11,0-.31,.02-.45,.18-.11,.13-.17,.29-.16,.46,.01,.17,.09,.32,.21,.43,.62,.54,1.27,1.09,1.95,1.63,4.25,3.45,9.43,6.92,14.2,9.52,.09,.05,.18,.07,.28,.07,.23,0,.48,.13,.59,.33,.1,.2,.13,.45,0,.63-2.52,3.56-5.03,7.12-7.51,10.65-.1,.14-.26,.24-.43,.26-.17,.02-.35-.04-.48-.15-2.51-2.26-5.43-3.99-8.45-5-.33-.11-.69,.08-.79,.4-.08,.25,0,.52,.2,.69,.05,.05,.12,.08,.19,.1,2.93,.98,5.78,2.7,8.24,4.95,.23,.21,.26,.55,.09,.8l-1.61,2.3c-.1,.14-.11,.29-.11,.4,0,.14-.04,.29-.13,.4-1.89,2.44-4.05,5.08-6.79,8.31-.12,.14-.31,.22-.49,.21-.19,0-.36-.1-.47-.26-2.21-3.15-5.71-5.5-8.92-6h-.02c-.39,0-.65,.23-.7,.53-.03,.22,.05,.44,.23,.58,.09,.07,.19,.12,.3,.13,3.01,.47,6.45,2.9,8.39,5.91,.19,.23,.23,.61,.03,.84l-.59,.69c-.47,.55-.94,1.1-1.42,1.65-1.83,2.14-3.71,4.32-5.56,6.54-.11,.13-.26,.21-.43,.22-.17,0-.33-.04-.45-.15-2.34-2.11-5.35-4.02-7.66-4.86-.32-.12-.69,.06-.81,.38-.09,.25-.01,.54,.19,.7,.06,.05,.11,.08,.18,.1,2.21,.8,5.16,2.69,7.33,4.69,.24,.22,.26,.59,.06,.84l-.19,.23c-.36,.43-.71,.86-1.06,1.3-1.9,2.36-3.86,4.85-5.8,7.42-.1,.13-.24,.21-.4,.24-.16,.02-.32-.02-.45-.12-7.06-4.01-13.09-9.16-17.56-13.19-.24-.22-.68-.19-.89,.05-.11,.12-.17,.28-.16,.45,0,.17,.08,.32,.21,.43,1.57,1.42,3.69,3.3,6.07,5.23,4.01,3.25,7.78,5.87,11.51,7.99,.15,.09,.26,.23,.29,.41,.04,.17,0,.35-.11,.49-2.4,3.2-4.9,6.6-7.42,10.13-.1,.14-.25,.23-.41,.25-.16,.02-.33-.02-.46-.13-2.39-1.93-5.16-3.78-7.6-5.07-.3-.16-.7-.04-.85,.25-.14,.27-.08,.6,.16,.79,2.53,1.36,5.27,3.19,7.62,5.1,.25,.2,.3,.57,.11,.83-1.91,2.67-3.8,5.34-5.68,7.99l-1.6,2.26c-.1,.15-.27,.24-.45,.26-.18,.01-.36-.05-.49-.18-2.32-2.39-5.42-4.59-8.09-5.75-.31-.14-.69,.02-.83,.33-.11,.26-.04,.56,.18,.74,.05,.04,.1,.07,.15,.09,2.62,1.14,5.83,3.47,8.01,5.81,.19,.21,.22,.53,.05,.77-3.31,4.67-5.87,8.23-8.31,11.55-.11,.14-.27,.23-.45,.25-.17,.01-.35-.05-.48-.18-2.48-2.49-5.54-4.73-8.42-6.16-.3-.14-.69-.01-.84,.28-.13,.27-.07,.59,.16,.77l.12,.08c2.84,1.41,5.88,3.67,8.34,6.2,.21,.21,.23,.55,.05,.79-1.19,1.6-2.39,3.2-3.6,4.78-1.03,1.35-2.11,2.71-3.22,4.06-.11,.13-.26,.21-.43,.22-.16,.01-.33-.05-.46-.16l-.82-.49c-6.32-3.7-13.46-7.89-17.81-13.89-.19-.25-.61-.33-.88-.14-.14,.1-.23,.24-.25,.41-.03,.17,.01,.33,.11,.47,1.58,2.18,3.59,4.24,6.14,6.31,3.79,3.07,8.18,5.65,12.06,7.92l.6,.35c.15,.09,.26,.25,.29,.42,.03,.18-.02,.36-.13,.49-1.67,2-3.38,4-5.09,5.98-.2,.24-.56,.28-.82,.09-2.34-1.44-5.23-2.97-7.74-4.12-.31-.14-.69,0-.83,.31-.12,.26-.05,.57,.17,.75,.04,.04,.09,.07,.13,.09,2.33,1.06,5.05,2.5,7.3,3.86,.15,.09,.26,.25,.29,.42,.03,.18-.02,.36-.14,.49-.17,.2-.34,.4-.52,.6l-.3,.35c-2.06,2.38-4.14,4.78-6.18,7.21-.11,.13-.26,.2-.42,.22-.16,.01-.33-.04-.45-.15-2.18-1.92-5.86-4.53-6.92-5-.33-.14-.69,0-.83,.32-.12,.26-.04,.56,.18,.74,.04,.03,.09,.06,.14,.08,.91,.41,4.6,3.01,6.66,4.85,.24,.22,.27,.59,.06,.84-2.97,3.6-5.43,6.81-7.52,9.79-.1,.14-.25,.24-.43,.26-.17,.02-.35-.03-.48-.15-1.85-1.63-3.94-3.37-6.05-5.04-.27-.21-.68-.16-.88,.11-.23,.28-.1,.68,.14,.91,2.17,1.72,4.32,3.52,6.19,5.18,.23,.2,.27,.54,.1,.79-1.88,2.82-3.44,5.47-4.76,8.08-.08,.16-.23,.27-.4,.32-.05,.01-.1,.02-.15,.02Zm-37.59-28.08c7.81,6.95,16.75,12.83,25.41,18.52,4.48,2.94,8.25,5.43,11.96,8.05,1.2-2.31,2.59-4.66,4.22-7.13-1.76-1.54-3.74-3.2-5.78-4.81-.79-.73-.91-1.84-.3-2.6,.61-.77,1.82-.92,2.6-.3,1.93,1.53,3.85,3.13,5.58,4.64,1.93-2.72,4.16-5.63,6.81-8.85-2.1-1.79-5.22-3.95-5.9-4.26-.14-.06-.29-.15-.41-.25-.65-.52-.86-1.43-.52-2.19,.41-.91,1.53-1.34,2.44-.93,1.17,.52,4.59,2.95,6.76,4.79,1.92-2.28,3.89-4.55,5.79-6.76l.31-.36s.02-.02,.03-.04c-2.08-1.22-4.48-2.48-6.55-3.42-.14-.06-.28-.15-.4-.25-.65-.53-.87-1.44-.51-2.2,.4-.9,1.54-1.33,2.45-.91,2.42,1.1,5.18,2.56,7.48,3.94,1.43-1.66,2.87-3.34,4.27-5.02-3.91-2.29-8.33-4.88-12.19-8.01-2.63-2.14-4.71-4.28-6.36-6.54-.29-.4-.41-.9-.33-1.38,.08-.49,.35-.91,.74-1.2,.78-.57,1.98-.38,2.57,.4,4.21,5.79,11.23,9.92,17.43,13.55l.51,.3c.98-1.2,1.93-2.41,2.85-3.61,1.1-1.44,2.19-2.89,3.27-4.34-2.3-2.29-5.06-4.31-7.64-5.59-.14-.07-.26-.14-.37-.24-.65-.52-.85-1.48-.47-2.25,.43-.88,1.57-1.28,2.47-.84,2.84,1.41,5.74,3.49,8.23,5.9,2.24-3.05,4.61-6.35,7.59-10.55-2.05-2.11-4.91-4.15-7.26-5.17-.15-.07-.29-.15-.42-.25-.65-.53-.87-1.42-.54-2.18,.39-.91,1.52-1.35,2.43-.96,2.61,1.13,5.6,3.21,7.96,5.5l1.18-1.67c1.76-2.5,3.55-5.01,5.34-7.53-2.18-1.73-4.66-3.37-6.87-4.55-.09-.04-.19-.11-.3-.19-.69-.56-.88-1.53-.47-2.31,.45-.87,1.62-1.23,2.5-.76,2.34,1.24,4.96,2.97,7.29,4.8,2.26-3.14,4.49-6.19,6.65-9.08-3.59-2.09-7.22-4.64-11.07-7.76-2.41-1.95-4.54-3.84-6.12-5.27-.37-.33-.58-.79-.61-1.28-.03-.49,.14-.97,.48-1.33,.66-.72,1.92-.78,2.62-.13,4.36,3.93,10.21,8.93,16.96,12.8,1.84-2.42,3.69-4.77,5.49-7,.29-.36,.59-.72,.89-1.09-2.01-1.75-4.55-3.35-6.49-4.05-.19-.07-.36-.16-.53-.3-.61-.5-.84-1.33-.58-2.07,.34-.93,1.44-1.45,2.37-1.11,2.33,.85,5.19,2.62,7.59,4.69,1.72-2.06,3.46-4.09,5.17-6.07,.47-.55,.94-1.1,1.41-1.65l.28-.33c-1.78-2.62-4.77-4.7-7.37-5.1-.32-.05-.63-.18-.88-.39-.51-.42-.76-1.06-.66-1.72,.16-1,1.08-1.7,2.11-1.55,3.31,.51,6.87,2.79,9.27,5.87,2.43-2.88,4.4-5.29,6.13-7.52,.02-.34,.13-.65,.32-.92l1.3-1.86c-2.25-1.97-4.79-3.46-7.4-4.34-.2-.07-.4-.18-.58-.32-.6-.5-.83-1.29-.59-2.02,.32-.95,1.39-1.49,2.34-1.17,2.96,1,5.84,2.65,8.35,4.8,2.18-3.11,4.39-6.24,6.61-9.38-4.82-2.63-10.04-6.13-14.33-9.62-.69-.56-1.35-1.11-1.98-1.66-.37-.32-.59-.77-.63-1.27-.04-.49,.13-.97,.45-1.34,.6-.69,1.83-.77,2.58-.2,4.4,3.84,10.27,7.89,15.73,10.87,.11,.06,.21,.14,.31,.22,1.96-2.75,3.91-5.5,5.85-8.23-2.34-1.8-4.89-3.51-7.22-4.84-.11-.07-.18-.12-.26-.18-.69-.55-.88-1.54-.43-2.34,.49-.86,1.67-1.18,2.53-.69,2.47,1.42,5.12,3.19,7.53,5.04l.29-.41c2.49-3.5,4.98-7,7.46-10.49-1.86-1.08-3.68-2.34-5.42-3.76-1.05-.85-2.09-1.78-3.09-2.76-.36-.35-.55-.81-.56-1.3,0-.49,.19-.96,.53-1.31,.68-.7,1.88-.72,2.6-.03,2.44,2.39,5.22,4.5,8.08,6.14,1.46-2.06,2.89-4.07,4.31-6.09,.57-.81,1.16-1.62,1.75-2.42-2.23-1.58-5.48-3.55-7.53-4.57-.13-.07-.24-.14-.36-.24-.66-.53-.86-1.46-.47-2.25,.43-.88,1.58-1.27,2.47-.83,2.24,1.12,5.66,3.2,8.08,4.92,1.38-1.87,2.81-3.84,4.05-5.8-10.96-6.6-23.06-15.94-33.75-24.19l-3.97-3.05c-3.24,4.93-7.07,9.68-10.46,13.89-3.29,4.08-6.63,8.23-9.57,12.57,.09,.48,0,.98-.28,1.39-4.16,6.17-9.04,11.86-13.76,17.36-3.01,3.5-6.11,7.11-9.01,10.83-8.39,10.73-16.37,22.19-24.09,33.26l-.16,.23c-8.02,11.5-16.25,23.31-24.95,34.4-3.52,4.49-7.32,9.03-11,13.43l-.45,.53c-10.91,13.04-22.19,26.52-29.28,41.49Z"/></g><g><path class="cls-3" d="M213.7,46.72c.6,.33,.81,1.09,.48,1.69-1.83,3.25-4.17,6.41-6.44,9.46-1.04,1.39-2.07,2.78-3.06,4.19-4.6,6.52-9.26,13.08-13.92,19.63-5.85,8.23-11.88,16.69-17.69,24.99,.17,.45,.07,.98-.3,1.34-.08,.08-.17,.14-.27,.19,0,0-.01,.03-.03,.04-4.01,5.47-8.56,10.77-12.96,15.9-2.77,3.23-5.64,6.56-8.36,9.93-7.64,9.46-14.83,19.61-21.78,29.43-5.32,7.52-10.82,15.29-16.51,22.73-3.74,4.88-8,9.79-12.11,14.55-8.5,9.8-17.28,19.94-22.33,30.7-.29,.62-1.03,.88-1.65,.59-.09-.04-.18-.1-.25-.16-.28-.22-.44-.55-.45-.9-4.11-2.94-8.38-5.75-12.91-8.72-7.29-4.79-14.77-9.71-21.64-15.28-1.87-1.52-3.69-3.09-5.46-4.71-.5-.46-.53-1.25-.07-1.75,.15-.16,.33-.27,.52-.34,7.27-15.46,18.75-29.2,29.87-42.48,3.81-4.55,7.75-9.26,11.39-13.9,8.68-11.05,16.9-22.85,24.84-34.25,7.8-11.18,15.85-22.75,24.35-33.63,2.95-3.78,6.08-7.42,9.09-10.94,3.78-4.41,7.39-8.62,10.71-13.09-.02-.24,.02-.5,.16-.73,3.66-6.23,8.24-11.93,12.68-17.43,3.81-4.73,7.74-9.61,11-14.75,0-.26,.07-.53,.25-.76,.42-.54,1.2-.65,1.74-.23,1.85,1.42,3.76,2.89,5.73,4.41,10.87,8.39,23.17,17.88,34.07,24.36,.38-.27,.9-.33,1.33-.08Zm-7.49,9.04c1.67-2.25,3.36-4.56,4.8-6.88-11-6.56-23.32-16.06-34.22-24.47-1.53-1.18-3.03-2.33-4.49-3.46-3.25,5.04-7.07,9.79-10.78,14.39-3.33,4.13-6.75,8.38-9.76,12.84,.15,.37,.12,.8-.12,1.16-4.14,6.13-9.01,11.81-13.71,17.3-3.01,3.5-6.11,7.12-9.03,10.86-8.45,10.82-16.49,22.36-24.27,33.51-7.97,11.44-16.21,23.26-24.93,34.37-3.66,4.66-7.61,9.38-11.43,13.95-11.04,13.19-22.44,26.82-29.56,42.03,7.88,7.08,16.99,13.08,25.82,18.88,4.37,2.87,8.51,5.6,12.52,8.44,1.4-2.76,3.02-5.47,4.8-8.14-1.94-1.71-4.11-3.53-6.2-5.19-.49-.45-.63-1.21-.21-1.74,.43-.54,1.2-.63,1.74-.21,2.03,1.61,4.16,3.38,6.07,5.06,2.33-3.33,4.89-6.6,7.55-9.83-2.06-1.84-5.69-4.38-6.5-4.74-.1-.04-.2-.1-.28-.17-.43-.34-.59-.94-.35-1.47,.28-.62,1.01-.91,1.63-.62,1.17,.52,4.93,3.2,7.08,5.1,2.14-2.56,4.33-5.07,6.49-7.58,.17-.2,.34-.39,.51-.59-2.23-1.35-4.91-2.77-7.23-3.82-.1-.04-.19-.1-.27-.17-.43-.34-.58-.95-.34-1.48,.28-.62,1.02-.89,1.64-.61,2.51,1.14,5.43,2.69,7.8,4.14,.02,0,.03,.02,.05,.04,1.71-1.98,3.42-3.97,5.08-5.97l-.6-.35c-4-2.34-8.33-4.88-12.13-7.97-2.35-1.91-4.5-4.02-6.25-6.43-.4-.56-.28-1.33,.28-1.73,.55-.4,1.32-.27,1.73,.27,4.28,5.89,11.37,10.05,17.62,13.72l.77,.45c.06,.03,.11,.07,.16,.12,1.1-1.35,2.17-2.7,3.2-4.05,1.21-1.58,2.4-3.17,3.59-4.77-2.4-2.48-5.36-4.69-8.17-6.08-.09-.04-.17-.09-.24-.15-.44-.35-.59-.98-.32-1.51,.3-.61,1.04-.86,1.66-.56,2.95,1.47,6.04,3.73,8.58,6.28,2.81-3.83,5.58-7.7,8.3-11.54-2.12-2.29-5.23-4.55-7.8-5.67-.11-.05-.2-.11-.29-.18-.42-.34-.58-.93-.35-1.46,.27-.62,1-.91,1.63-.64,2.76,1.2,5.94,3.47,8.28,5.89,.53-.76,1.07-1.51,1.6-2.26,1.87-2.65,3.77-5.32,5.68-8-2.27-1.85-4.97-3.67-7.42-4.97-.07-.04-.14-.08-.2-.13-.45-.37-.6-1.01-.31-1.54,.32-.6,1.07-.83,1.68-.51,2.53,1.34,5.33,3.22,7.7,5.14,2.44-3.39,4.91-6.78,7.43-10.14-4.28-2.44-8.18-5.28-11.59-8.05-2.26-1.83-4.3-3.63-6.1-5.25-.51-.46-.55-1.24-.09-1.75,.46-.51,1.28-.53,1.75-.09,4.44,4.01,10.42,9.11,17.37,13.05,.05,.03,.1,.07,.15,.11,1.91-2.51,3.85-4.99,5.82-7.43,.41-.51,.83-1.02,1.25-1.53-2.14-1.97-4.99-3.79-7.12-4.56-.13-.05-.25-.12-.36-.2-.4-.33-.57-.88-.38-1.38,.23-.64,.95-.98,1.59-.74,2.41,.88,5.47,2.83,7.86,4.98,1.85-2.22,3.73-4.41,5.57-6.55,.67-.77,1.33-1.55,2-2.34-.03-.04-.06-.07-.08-.11-1.85-2.88-5.12-5.2-7.96-5.64-.23-.03-.43-.13-.59-.26-.33-.27-.51-.7-.44-1.15,.11-.67,.74-1.14,1.41-1.03,3.38,.52,7.06,3.01,9.33,6.25,2.31-2.72,4.6-5.49,6.77-8.29-.01-.27,.05-.54,.21-.78,.53-.76,1.07-1.53,1.61-2.3-2.4-2.2-5.15-3.86-8.02-4.82-.14-.05-.27-.12-.38-.21-.39-.32-.56-.85-.39-1.36,.22-.65,.92-1,1.57-.78,3.11,1.05,6.07,2.8,8.66,5.13,2.48-3.53,4.99-7.09,7.51-10.65-.22,.02-.45-.03-.66-.14-4.86-2.65-10.05-6.14-14.29-9.58-.68-.55-1.34-1.1-1.96-1.64-.52-.45-.57-1.23-.12-1.75,.45-.52,1.27-.48,1.75-.12,4.41,3.85,10.32,7.93,15.81,10.92,.3,.17,.5,.44,.59,.74,2.24-3.15,4.47-6.3,6.69-9.42-2.44-1.91-5.22-3.8-7.76-5.25-.06-.04-.11-.07-.16-.12-.47-.37-.6-1.04-.3-1.58,.34-.59,1.1-.8,1.69-.46,2.6,1.49,5.46,3.43,7.97,5.39,.22-.31,.44-.62,.66-.93,2.62-3.68,5.24-7.36,7.85-11.04-2.03-1.14-4.04-2.51-5.92-4.04-1.06-.86-2.08-1.77-3.05-2.72-.49-.48-.5-1.26-.01-1.75,.47-.49,1.25-.49,1.75-.02,2.57,2.51,5.52,4.73,8.53,6.41,.05,.03,.1,.06,.14,.1,1.55-2.19,3.1-4.37,4.63-6.55,.69-.99,1.41-1.96,2.13-2.94-.09-.04-.18-.08-.26-.14-2.25-1.62-5.71-3.73-7.88-4.81-.08-.04-.16-.09-.22-.15-.44-.36-.59-.99-.33-1.51,.3-.61,1.04-.86,1.66-.56,2.31,1.15,5.84,3.31,8.21,5.02,.09,.06,.17,.14,.24,.23Z"/><path class="cls-3" d="M77.3,232.81c-.27,0-.53-.06-.78-.17-.14-.07-.26-.14-.38-.24-.33-.26-.55-.63-.64-1.03-3.91-2.79-7.9-5.42-12.68-8.56-7.31-4.81-14.81-9.74-21.7-15.32-1.93-1.57-3.78-3.17-5.49-4.74-.75-.69-.8-1.86-.11-2.61,.15-.16,.32-.29,.51-.39,7.31-15.47,18.77-29.17,29.85-42.41,3.84-4.59,7.76-9.28,11.38-13.88,8.67-11.04,16.88-22.83,24.82-34.23l.21-.31c7.73-11.09,15.73-22.56,24.15-33.35,2.95-3.77,6.06-7.4,9.06-10.9,3.78-4.41,7.32-8.53,10.61-12.94,.01-.3,.1-.59,.25-.84,3.68-6.27,8.28-11.98,12.72-17.5,3.76-4.67,7.65-9.5,10.87-14.56,.03-.35,.16-.67,.37-.95,.59-.78,1.8-.94,2.59-.34,1.59,1.21,3.22,2.47,4.9,3.77l.83,.64c10.74,8.28,22.89,17.66,33.71,24.14,.52-.22,1.13-.18,1.62,.09,.88,.5,1.2,1.62,.71,2.52-1.87,3.32-4.32,6.62-6.48,9.52-1.03,1.39-2.06,2.77-3.05,4.18-4.6,6.52-9.26,13.08-13.92,19.63l-.88,1.24c-5.5,7.72-11.18,15.71-16.64,23.51,.11,.6-.09,1.22-.53,1.66-.09,.08-.18,.15-.28,.22-4.03,5.5-8.53,10.74-12.89,15.82-2.67,3.1-5.62,6.54-8.4,9.98-7.6,9.4-14.75,19.5-21.66,29.27l-.09,.13c-5.04,7.13-10.75,15.2-16.52,22.75-3.71,4.85-7.94,9.72-12.02,14.44l-.12,.14c-8.47,9.76-17.22,19.85-22.24,30.56-.3,.65-.96,1.06-1.68,1.06ZM171.82,18.39c-.2,0-.38,.09-.5,.25-.11,.14-.13,.28-.13,.38,0,.12-.03,.23-.09,.33-3.27,5.17-7.22,10.07-11.04,14.81-4.42,5.49-8.99,11.16-12.63,17.36-.07,.11-.09,.23-.08,.36,.01,.15-.03,.3-.12,.42-3.36,4.52-6.94,8.7-10.74,13.12-3.05,3.56-6.15,7.17-9.08,10.92-8.41,10.76-16.39,22.22-24.12,33.29l-.21,.31c-7.95,11.41-16.17,23.21-24.86,34.28-3.63,4.62-7.55,9.31-11.35,13.84-11.14,13.31-22.6,27-29.84,42.42-.07,.15-.19,.26-.34,.32-.11,.04-.2,.1-.28,.18-.23,.25-.22,.65,.04,.89,1.69,1.55,3.52,3.13,5.43,4.69,6.83,5.54,14.31,10.46,21.54,15.21,4.94,3.24,8.99,5.91,12.99,8.77,.15,.11,.24,.28,.25,.46,0,.18,.09,.34,.23,.45,.04,.03,.09,.06,.13,.08,.28,.13,.69,0,.83-.3,5.1-10.86,13.91-21.02,22.42-30.85l.12-.14c4.07-4.7,8.28-9.56,11.97-14.38,5.75-7.53,11.46-15.6,16.49-22.72l.09-.13c6.93-9.78,14.09-19.9,21.71-29.33,2.79-3.46,5.75-6.9,8.37-9.95,4.43-5.16,8.96-10.43,12.93-15.86,.05-.09,.13-.16,.22-.21,.07-.04,.12-.08,.16-.11,.17-.16,.23-.43,.13-.67-.07-.19-.04-.4,.07-.57,5.52-7.88,11.26-15.95,16.81-23.75l.88-1.24c4.66-6.55,9.32-13.1,13.92-19.62,1-1.41,2.03-2.81,3.07-4.2,2.25-3.02,4.57-6.14,6.4-9.39,.17-.3,.06-.69-.24-.86-.21-.12-.48-.1-.67,.04-.2,.14-.46,.16-.67,.03-10.95-6.51-23.26-16.01-34.13-24.4l-.83-.64c-1.67-1.29-3.3-2.55-4.9-3.76-.11-.09-.24-.13-.38-.13ZM77.04,229.29c-.13,0-.25-.04-.35-.11-3.89-2.76-7.8-5.34-12.5-8.43-8.82-5.79-17.94-11.78-25.89-18.93-.2-.18-.26-.47-.15-.71,7.15-15.28,18.59-28.94,29.64-42.16l.45-.54c3.67-4.39,7.47-8.93,10.97-13.41,8.69-11.07,16.9-22.86,24.85-34.25l.22-.32c7.73-11.09,15.73-22.55,24.13-33.31,2.92-3.74,6.03-7.36,9.03-10.86,4.71-5.49,9.56-11.15,13.68-17.25,.12-.18,.14-.39,.06-.58-.08-.19-.05-.4,.06-.57,3.01-4.47,6.43-8.71,9.74-12.82,3.55-4.41,7.52-9.33,10.8-14.41,.09-.14,.24-.24,.41-.27,.17-.03,.34,.01,.48,.12l4.49,3.46c10.84,8.37,23.12,17.85,34.16,24.43,.14,.08,.24,.22,.28,.38,.04,.16,.01,.33-.07,.47-1.46,2.35-3.18,4.71-4.83,6.93-.11,.15-.29,.24-.48,.25-.19-.01-.37-.08-.49-.23-.03-.04-.07-.08-.1-.1-2.39-1.72-5.89-3.86-8.15-4.99-.31-.15-.69-.02-.84,.28-.14,.27-.07,.58,.16,.77,.05,.04,.11,.08,.14,.09,2.15,1.07,5.65,3.21,7.94,4.85,.04,.03,.08,.05,.14,.07,.17,.07,.3,.22,.35,.4,.05,.18,.02,.38-.1,.53l-.1,.13c-.69,.93-1.37,1.86-2.03,2.8-1.53,2.17-3.06,4.34-4.6,6.51-.1,.13-.26,.25-.42,.27-.17,.03-.34,0-.48-.09-3.15-1.76-6.14-4.01-8.74-6.56-.24-.23-.65-.23-.89,0-.12,.12-.19,.28-.18,.45,0,.17,.07,.32,.19,.44,.98,.95,1.99,1.86,3.01,2.68,1.87,1.52,3.84,2.86,5.84,3.98,.15,.08,.26,.23,.3,.4,.04,.17,0,.35-.1,.49-2.61,3.68-5.23,7.36-7.85,11.04l-.66,.93c-.1,.14-.24,.23-.41,.25-.17,.02-.33-.02-.47-.12-2.49-1.95-5.3-3.85-7.89-5.34-.3-.17-.69-.06-.86,.24-.15,.27-.09,.61,.15,.8,2.62,1.51,5.41,3.4,7.91,5.36,.26,.2,.31,.57,.12,.83-2.22,3.12-4.45,6.27-6.69,9.42-.13,.19-.36,.29-.6,.25-.23-.04-.42-.2-.49-.42-.04-.12-.12-.28-.32-.39-5.52-3.01-11.48-7.12-15.91-10.99-.09-.07-.26-.12-.43-.12-.11,0-.31,.02-.45,.18-.11,.13-.17,.29-.16,.46,.01,.17,.09,.32,.21,.43,.62,.54,1.27,1.09,1.95,1.63,4.25,3.45,9.43,6.92,14.2,9.52,.09,.05,.18,.07,.28,.07,.23,0,.48,.13,.59,.33,.1,.2,.13,.45,0,.63-2.52,3.56-5.03,7.12-7.51,10.65-.1,.14-.26,.24-.43,.26-.17,.02-.35-.04-.48-.15-2.51-2.26-5.43-3.99-8.45-5-.33-.11-.69,.08-.8,.4-.08,.25,0,.52,.2,.69,.05,.05,.12,.08,.19,.1,2.93,.98,5.78,2.7,8.24,4.95,.23,.21,.26,.55,.09,.8l-1.61,2.3c-.1,.14-.11,.29-.11,.4,0,.14-.04,.29-.13,.4-1.89,2.44-4.05,5.08-6.79,8.31-.12,.14-.31,.22-.49,.21-.19,0-.36-.1-.47-.26-2.21-3.15-5.71-5.5-8.92-6h-.02c-.39,0-.65,.23-.7,.53-.03,.22,.05,.44,.23,.58,.09,.07,.19,.12,.3,.13,3.01,.47,6.45,2.9,8.39,5.91,.19,.23,.23,.61,.03,.84l-.59,.69c-.47,.55-.94,1.1-1.42,1.65-1.83,2.14-3.71,4.32-5.56,6.54-.11,.13-.26,.21-.43,.22-.17,0-.33-.04-.45-.15-2.34-2.11-5.35-4.02-7.66-4.86-.32-.12-.69,.06-.81,.38-.09,.25-.01,.53,.19,.7,.06,.05,.11,.08,.18,.1,2.21,.8,5.16,2.69,7.33,4.69,.24,.22,.26,.59,.06,.84l-.19,.23c-.35,.43-.71,.86-1.06,1.3-1.91,2.36-3.86,4.85-5.8,7.42-.1,.13-.24,.21-.4,.24-.16,.02-.32-.02-.45-.12-7.06-4.01-13.09-9.16-17.56-13.19-.24-.22-.68-.19-.89,.05-.11,.12-.17,.28-.16,.45,0,.17,.08,.32,.21,.43,1.58,1.42,3.69,3.3,6.07,5.23,4.01,3.25,7.78,5.87,11.51,7.99,.15,.09,.26,.23,.29,.41,.04,.17,0,.35-.11,.49-2.4,3.2-4.9,6.6-7.42,10.13-.1,.14-.25,.23-.41,.25-.16,.02-.33-.02-.46-.13-2.39-1.93-5.16-3.78-7.6-5.07-.3-.16-.7-.04-.85,.25-.14,.27-.08,.6,.16,.79,2.53,1.36,5.27,3.19,7.62,5.1,.25,.2,.3,.57,.11,.83-1.91,2.67-3.8,5.34-5.68,7.99l-1.6,2.26c-.1,.15-.27,.24-.45,.26-.18,.01-.36-.05-.49-.18-2.32-2.39-5.42-4.59-8.09-5.75-.31-.14-.69,.02-.83,.33-.11,.26-.04,.56,.18,.74,.05,.04,.1,.07,.15,.09,2.62,1.14,5.83,3.47,8.01,5.81,.19,.21,.22,.53,.05,.77-3.31,4.67-5.87,8.23-8.31,11.55-.11,.14-.27,.23-.45,.25-.17,.01-.35-.05-.48-.18-2.48-2.49-5.54-4.73-8.42-6.16-.3-.14-.69-.01-.84,.28-.13,.27-.07,.59,.16,.77l.12,.08c2.84,1.41,5.88,3.67,8.34,6.2,.21,.21,.23,.55,.05,.79-1.19,1.6-2.39,3.2-3.6,4.78-1.03,1.35-2.11,2.71-3.22,4.06-.11,.13-.26,.21-.43,.22-.16,.01-.33-.05-.46-.16l-.82-.49c-6.32-3.7-13.46-7.89-17.81-13.89-.19-.25-.61-.33-.88-.14-.14,.1-.23,.24-.25,.41-.03,.17,.01,.33,.11,.47,1.58,2.18,3.59,4.24,6.14,6.31,3.79,3.08,8.18,5.65,12.06,7.92l.6,.35c.15,.09,.26,.25,.29,.42,.03,.18-.02,.36-.13,.49-1.67,2-3.38,4-5.09,5.98-.21,.24-.56,.28-.82,.09-2.34-1.44-5.23-2.97-7.74-4.12-.31-.14-.69,0-.83,.31-.12,.26-.05,.57,.17,.75,.04,.04,.09,.07,.13,.09,2.33,1.06,5.05,2.5,7.3,3.86,.15,.09,.26,.25,.29,.42,.03,.18-.02,.36-.14,.49-.17,.2-.34,.4-.52,.6l-.31,.35c-2.06,2.38-4.14,4.78-6.18,7.21-.11,.13-.26,.2-.42,.22-.16,.01-.33-.04-.45-.15-2.18-1.92-5.86-4.53-6.92-5-.33-.14-.69,0-.83,.32-.12,.26-.04,.56,.18,.74,.04,.03,.09,.06,.14,.08,.91,.41,4.6,3.01,6.66,4.85,.24,.22,.27,.59,.06,.84-2.97,3.6-5.43,6.81-7.52,9.79-.1,.14-.25,.24-.43,.26-.17,.02-.35-.03-.48-.15-1.85-1.63-3.94-3.37-6.05-5.04-.27-.21-.68-.16-.88,.11-.23,.28-.1,.68,.14,.91,2.17,1.72,4.32,3.52,6.19,5.18,.23,.2,.27,.54,.1,.8-1.88,2.82-3.44,5.47-4.76,8.08-.08,.16-.23,.27-.4,.32-.05,.01-.1,.02-.15,.02Zm-37.59-28.08c7.81,6.95,16.75,12.83,25.41,18.52,4.48,2.94,8.25,5.43,11.96,8.05,1.2-2.31,2.59-4.66,4.22-7.13-1.76-1.54-3.74-3.2-5.78-4.81-.79-.73-.91-1.84-.3-2.6,.61-.77,1.82-.92,2.6-.3,1.93,1.53,3.85,3.13,5.58,4.64,1.93-2.72,4.16-5.63,6.81-8.85-2.1-1.79-5.22-3.95-5.9-4.26-.14-.06-.29-.15-.41-.25-.65-.52-.86-1.42-.52-2.19,.41-.91,1.53-1.34,2.44-.93,1.17,.52,4.59,2.95,6.76,4.79,1.91-2.28,3.88-4.55,5.79-6.75l.31-.36s.02-.02,.03-.04c-2.08-1.22-4.48-2.48-6.55-3.42-.14-.06-.28-.15-.4-.25-.65-.53-.87-1.44-.51-2.2,.4-.9,1.54-1.33,2.45-.91,2.42,1.1,5.18,2.56,7.48,3.94,1.43-1.66,2.87-3.34,4.27-5.02-3.91-2.29-8.33-4.88-12.19-8.01-2.63-2.14-4.71-4.28-6.36-6.54-.29-.4-.41-.9-.33-1.38,.08-.49,.35-.91,.74-1.2,.78-.57,1.98-.38,2.57,.4,4.21,5.79,11.23,9.92,17.43,13.55l.51,.3c.98-1.21,1.93-2.41,2.85-3.61,1.1-1.44,2.19-2.89,3.27-4.34-2.3-2.29-5.06-4.31-7.64-5.59-.14-.07-.26-.14-.37-.24-.65-.52-.85-1.48-.47-2.25,.43-.88,1.57-1.28,2.47-.84,2.84,1.41,5.74,3.49,8.23,5.9,2.24-3.05,4.61-6.35,7.59-10.55-2.05-2.11-4.91-4.15-7.26-5.17-.15-.07-.29-.15-.42-.25-.65-.53-.87-1.42-.54-2.18,.39-.91,1.52-1.35,2.43-.96,2.61,1.13,5.6,3.21,7.96,5.5l1.18-1.67c1.76-2.5,3.55-5.01,5.34-7.53-2.18-1.73-4.66-3.37-6.87-4.55-.09-.04-.19-.11-.3-.2-.69-.56-.88-1.53-.47-2.31,.45-.87,1.62-1.23,2.5-.76,2.34,1.24,4.96,2.97,7.29,4.8,2.26-3.14,4.5-6.19,6.65-9.08-3.59-2.09-7.22-4.64-11.07-7.76-2.4-1.95-4.54-3.84-6.12-5.27-.37-.33-.58-.79-.61-1.28-.03-.49,.14-.97,.48-1.33,.66-.72,1.92-.78,2.62-.13,4.36,3.93,10.21,8.93,16.96,12.8,1.84-2.42,3.69-4.77,5.49-7,.29-.36,.59-.72,.89-1.09-2.01-1.75-4.55-3.35-6.49-4.05-.19-.07-.36-.17-.53-.3-.61-.5-.84-1.33-.58-2.07,.34-.93,1.44-1.45,2.37-1.11,2.33,.85,5.19,2.62,7.59,4.69,1.72-2.06,3.46-4.09,5.17-6.07,.47-.55,.94-1.1,1.41-1.65l.28-.33c-1.78-2.62-4.77-4.7-7.37-5.1-.32-.05-.63-.18-.88-.39-.51-.42-.76-1.06-.66-1.72,.16-1,1.08-1.7,2.11-1.55,3.31,.51,6.87,2.79,9.27,5.87,2.43-2.88,4.4-5.29,6.13-7.52,.02-.34,.13-.65,.32-.92l1.3-1.86c-2.25-1.97-4.79-3.46-7.4-4.34-.2-.07-.4-.18-.58-.32-.6-.5-.83-1.29-.59-2.02,.32-.95,1.39-1.49,2.34-1.17,2.96,1,5.84,2.65,8.35,4.8,2.18-3.11,4.39-6.24,6.61-9.38-4.82-2.63-10.04-6.13-14.33-9.62-.69-.56-1.35-1.11-1.98-1.66-.37-.32-.59-.77-.63-1.26-.04-.49,.13-.97,.45-1.34,.6-.7,1.83-.78,2.58-.2,4.4,3.84,10.27,7.89,15.73,10.87,.11,.06,.21,.14,.31,.22,1.96-2.75,3.91-5.5,5.85-8.23-2.34-1.8-4.89-3.51-7.22-4.84-.11-.07-.18-.12-.26-.18-.69-.55-.88-1.54-.43-2.34,.49-.86,1.67-1.18,2.53-.69,2.47,1.42,5.12,3.19,7.53,5.04l.29-.41c2.49-3.5,4.98-7,7.46-10.49-1.86-1.08-3.68-2.34-5.42-3.76-1.05-.85-2.09-1.78-3.09-2.76-.36-.35-.55-.81-.56-1.3,0-.49,.19-.96,.53-1.31,.68-.7,1.88-.72,2.6-.03,2.44,2.39,5.22,4.5,8.08,6.14,1.46-2.06,2.89-4.07,4.31-6.09,.57-.81,1.16-1.62,1.75-2.42-2.23-1.58-5.48-3.55-7.53-4.57-.13-.07-.24-.14-.36-.24-.66-.53-.86-1.46-.47-2.25,.43-.88,1.58-1.27,2.47-.83,2.24,1.12,5.66,3.2,8.08,4.92,1.38-1.87,2.81-3.84,4.05-5.8-10.96-6.6-23.06-15.94-33.75-24.19l-3.97-3.05c-3.24,4.93-7.07,9.68-10.46,13.89-3.29,4.08-6.63,8.23-9.57,12.57,.09,.48,0,.98-.28,1.39-4.16,6.17-9.04,11.85-13.76,17.36-3.01,3.5-6.11,7.11-9.01,10.83-8.39,10.73-16.37,22.18-24.09,33.26l-.16,.23c-8.02,11.51-16.25,23.31-24.95,34.4-3.52,4.49-7.32,9.04-11,13.44l-.44,.53c-10.91,13.04-22.19,26.52-29.28,41.49Z"/></g></g></svg>