<?xml version="1.0" encoding="UTF-8"?><svg id="_ëîé_1" xmlns="http://www.w3.org/2000/svg" viewBox="0 0 250 250"><defs><style>.cls-1{fill:#fff;}.cls-2{fill:#3d6484;}.cls-3{fill:#5b86a3;}.cls-4{fill:#282828;}.cls-5{fill:#f44545;}</style></defs><g id="book"><path class="cls-1" d="M197.98,60.15c-.04-.21-.08-.41-.13-.61-.27-1.13-.64-1.97-.9-2.51-.24-.5-.7-1.35-1.35-2.18-.23-.29-.46-.56-.71-.83,.73-8.47,.62-15.9-2.5-21.34-.37-.82-.83-1.6-1.37-2.33-1.94-2.59-4.78-4.27-7.96-4.74l-2.46-.36c-5.99-.89-12.19-1.81-18.58-2.24-6.79-.46-13.2-.35-19.12-.35-1.62,0-3.26,.18-5.01,.18h-.18c-3.6,0-7.25-.14-11-.19-6.81-.08-13.7-.35-21.36-.56-4.22-.12-8.41-.27-12.57-.36-.36-.04-.72-.08-1.08-.08-1.01-.01-2.04-.05-3.06-.07-1.53-.04-3.09-.08-4.65-.08-1.88,0-3.53,.05-5.05,.16-15.46,1.11-22.05,9.67-24.86,16.65-2.78,6.91-2.79,14.69-2.63,21.19-.09,.58-.13,1.17-.13,1.76,0,4.88-.16,9.91-.31,14.78l-.02,.6c-.2,6.27-.41,12.75-.31,19.25,.1,6.55-.11,13.12-.3,19.5v.32c-.17,5.25-.34,10.69-.34,16.23,0,3.6,.31,6.95,.6,10.21,.16,1.69,.3,3.35,.4,4.98-.14,.89-.18,1.8-.12,2.69,.5,7.76,.55,15.76,.59,23.57,.03,5.53,.06,11.25,.25,17.12,.1,3.1,.22,6.6,.59,10,.03,5.15,1.99,8.67,3.68,10.75,4.75,5.85,11.65,6.45,15.78,6.81,.02,0,.05,0,.07,0,1.23,.41,2.53,.63,3.84,.63,.08,0,.3,0,.54-.02,1.15,.07,2.29-.02,3.41-.27,.1,0,.2-.01,.3-.02,.24,4.76,.94,8.76,2.41,11.99,1.13,2.49,4.57,10.05,13,10.65,2.56,.19,4.79-.33,6.63-1.21,.51,.35,.97,.65,1.39,.91,1.91,1.17,4.11,1.79,6.36,1.79,1.3,0,2.58-.21,3.91-.64,3.5-1.19,6.23-3.84,7.5-7.3,1.88-5.05,2.34-10.3,2.34-15.34,4.69,.22,9.33,.49,13.64,.75l.42,.02c7.09,.42,14.43,.84,21.74,1.04,5.17,.14,10.23-.17,14.62-.43,2.34-.14,5.16-.31,7.94-.38,2.59,.43,5.35,0,7.68-1.23,4.17-1.99,6.94-6.24,6.94-10.98,0-1.12-.15-2.21-.44-3.26,0-2.52,.29-5.36,.55-8.67,1.35-17.3,1.7-35.23,1.7-52.03v-2.54c0-.7-.22-1.39-.35-2.07,.05-1.43,.05-2.69,.16-3.95,.24-2.71,.34-5.15,.39-7.44,.13-5.37,.37-11,.61-15.8,.87-17.59,1.75-35.79-1.12-52.09Z"/><g><path class="cls-4" d="M186.65,62.22c2.61,14.85,1.76,32.44,.92,49.46-.28,5.65-.52,10.99-.64,16.08-.06,2.3-.21,4.55-.4,6.72-.21,2.33-.3,4.58-.34,6.88,.01,.04,.24,.09,.24,.14v2.54c0,16.9-.19,34.37-1.5,51.13-.26,3.34-.45,6.83-.42,10.21,0,.68,0,1.35,0,2.02,.25,.09,.43,.32,.43,.6,0,.34-.26,.6-.59,.63-.12,.14-.29,.22-.48,.22s-.35-.07-.47-.2c-3.47,.03-6.9,.23-10.22,.43-3.63,.22-7.37,.45-11.19,.45-.8,0-1.6-.01-2.41-.03-7.25-.2-14.63-.63-21.77-1.05-7.61-.45-15.48-.92-23.18-1.09-1-.02-2.04-.06-3.06-.09,.03,1.66,.09,3.36,.18,5.17,.3,6.27,.6,12.75-1.4,18.11-.07,.18-.21,.32-.39,.38-.07,.02-.14,.03-.21,.03-.12,0-.23-.03-.34-.1-1.71-1.05-5.63-3.85-7.31-8.32-.75,1.06-1.39,2.1-1.98,3.04-1.45,2.32-2.5,4.02-3.92,3.92-1.14-.07-2.11-1.21-3.34-3.92-1.93-4.24-1.49-14.16-1.28-19-4.86-.07-9.63,.01-14.18,.41-.11,.09-.25,.15-.4,.15-.06,0-.11,0-.17-.02-.08-.02-.16-.03-.24-.05-.27,.03-.55,.04-.81,.07-.27,.03-.52-.11-.64-.34-.74-.1-1.53-.18-2.35-.25-3.03-.26-6.16-.53-7.83-2.59-.82-1.01-1.16-2.35-1.09-4.01-.38-3.18-.5-6.57-.61-9.86-.19-5.68-.22-11.36-.25-16.85-.04-7.94-.09-16.16-.61-24.21-.01-.2,.08-.38,.22-.51-.07-2.53-.29-5.03-.52-7.47-.27-2.98-.56-6.05-.56-9.13,0-5.47,.17-10.94,.33-16.22,.2-6.49,.41-13.21,.31-20-.09-6.25,.11-12.61,.31-18.77,.16-5.13,.34-10.44,.34-15.68,0-.16,.06-.31,.17-.42-.36-13.82-.04-26.47,16.75-27.68,2.82-.2,5.75-.13,8.58-.06,1.09,.03,2.18,.05,3.25,.06,.07,0,.12,.02,.18,.04,4.38,.09,8.8,.21,13.25,.34,7.07,.2,14.38,.4,21.54,.48,3.81,.04,7.51,.03,11.17,.02,7.98-.03,15.52-.05,23.49,.48,5.95,.41,11.94,1.3,17.73,2.15l2.4,.35c.35,.05,.59,.37,.54,.73,2.65,3.02,1.89,12.22,.93,20.76-.12,1.04-.22,1.93-.28,2.59-.01,.15-.08,.27-.17,.37,1.21,.04,2.43,.1,3.67,.22,.01,0,.03,0,.04,.01,.05,0,.09,.02,.13,.04,.04,.02,.08,.03,.11,.05,.03,.02,.06,.05,.09,.07,.03,.03,.06,.06,.09,.09,.02,.03,.04,.07,.05,.1,.02,.04,.04,.08,.05,.13,0,.01,.01,.03,.01,.04Zm-.39,49.39c.83-16.76,1.68-34.07-.8-48.68-6.38-.54-12.34,.01-18.64,.6l-.86,.08c-7.23,.67-14.82,1.01-22.49,1.01-5.84,0-11.74-.2-17.56-.59-5.83-.39-11.89-.48-17.75-.57-6.46-.1-13.14-.2-19.61-.7-.09,0-.18-.04-.26-.08-.71-.04-1.42-.09-2.12-.13-2.71-.14-5.33-.29-7.61-.83,1.41,17.47,1.35,35.68,1.28,53.3-.01,3.69-.03,7.36-.03,11.01,0,4.63,.02,10.74,.21,16.95,0,.22-.11,.41-.28,.53-.15,8.85,.18,17.72,.54,26.33,.29,7.18,.6,14.6,.6,21.95,0,.69,0,1.38,0,2.07-.02,3.74-.04,7.6,.64,11.01,.04,.21-.03,.41-.18,.56,7.42-.36,15.29-.05,22.96,.27,2.01,.08,4.06,.17,6.09,.24,.12-.18,.3-.3,.53-.3,.24,0,.44,.14,.55,.33,1.07,.03,2.15,.07,3.2,.1,7.73,.17,15.61,.64,23.23,1.09,7.12,.42,14.5,.86,21.73,1.05,4.6,.13,9.12-.15,13.48-.41,3.28-.2,6.67-.39,10.11-.43,0-.66,0-1.33,0-1.99-.02-3.41-.05-6.93,.22-10.32,1.31-16.69,1.3-34.12,1.3-50.98-.15-3.37,.14-6.6,.42-9.73,.19-2.15,.39-4.38,.44-6.64,.13-5.11,.39-10.46,.67-16.11Zm-4.68-53.25c.62-5.48,2.07-18.31-1.04-20.15,0,0-.01-.01-.02-.02l-1.72-.26c-5.77-.86-11.73-1.74-17.63-2.14-7.93-.54-15.44-.51-23.4-.48-3.67,.02-7.38,.03-11.2-.01-7.17-.09-14.48-.29-21.56-.49-5.01-.14-9.99-.28-14.91-.38-.05,0-.1-.02-.15-.03-.54-.01-1.07-.02-1.62-.03-2.8-.07-5.7-.14-8.46,.06-16.26,1.17-15.91,13.65-15.51,28.09,0,.2-.09,.38-.24,.51-.03,4.68-.17,9.38-.31,13.95-.2,6.15-.4,12.5-.31,18.71,.1,6.83-.11,13.55-.31,20.06-.16,5.27-.33,10.73-.33,16.18,0,3.02,.28,6.07,.55,9.02,.34,3.66,.68,7.44,.52,11.3,0,.06-.02,.11-.04,.16,.34,6.97,.4,14,.44,20.83,.03,5.48,.06,11.15,.25,16.77,.1,2.95,.21,5.95,.49,8.78,.11,.13,.17,.31,.15,.49-.02,.21-.02,.4-.03,.6,.01,.1,.02,.21,.03,.32,.01,.12-.01,.24-.06,.34,.02,1.09,.3,1.96,.83,2.62,1.33,1.63,4.18,1.88,6.94,2.12,1.29,.11,2.6,.24,3.77,.5,1.24-.12,2.5-.21,3.77-.29-.11-.09-.18-.21-.21-.36-.71-3.54-.69-7.47-.66-11.27v-2.07c0-7.32-.3-14.73-.59-21.9-.4-9.84-.82-20.02-.47-30.14,0-.13,.05-.24,.12-.34-.1-4.94-.12-9.65-.12-13.39s.02-7.33,.03-11.02c.07-17.75,.13-36.09-1.31-53.66-1.55-.52-2.9-1.29-3.94-2.47-1.68-1.9-2.36-4.65-2.07-8.4,0-.1,.04-.18,.09-.26-.02-3.64,.86-6.26,2.7-7.94,2.1-1.91,5.32-2.5,9.8-1.81,.04,0,.09-.02,.13-.02,9.34,.94,19.33,.9,29,.87,1.77,0,3.53-.01,5.28-.01h5.23c10.17-.02,20.68-.03,30.82,.43,1.82,.08,3.71,.09,5.72,.1,4.56,.01,9.28,.03,13.31,.99,.28,.07,.48,.31,.49,.58,.14,.12,.25,.29,.25,.48,0,1.96,.14,4.57,.24,7.34,.11,3.01,.3,6.11,.32,8.93,0,.01,.18,.02,.18,.03v1.29c0,.05-.2,.1-.21,.14,2.33-.14,4.49-.22,6.86-.18-.1-.12-.15-.28-.14-.46,.06-.67,.16-1.57,.28-2.62Zm-7.93,3.11v-.64c0-2.97-.37-6.32-.49-9.56-.1-2.72-.45-5.29-.45-7.25-3.83-.87-8.35-.89-12.74-.9-2.02,0-3.93,0-5.77-.09-10.1-.46-20.6-.45-30.75-.44h-5.23c-1.75,0-3.51,0-5.27,.02-9.2,.03-18.69,.05-27.67-.75-.13,.08-.28,.11-.44,.08-4.66-.92-8-.48-9.95,1.29-1.89,1.73-2.63,4.89-2.16,9.38,.02,.22-.07,.41-.23,.55,.15,2.08,.73,3.69,1.77,4.88,2.41,2.73,7.05,2.97,11.97,3.22,1.05,.05,2.11,.11,3.16,.19-.25-1.76-.13-3.36,.4-4.73-.04,0-.09-.04-.13-.05-.06,.02-.12,0-.19,0-3.67,.13-6.66,.11-9.67,.11h0c-.35,0-.64-.19-.64-.54,0-.36,.28-.55,.64-.55,3-.02,5.98-.1,9.64-.23,.09,0,.17-.02,.25,0,.06-.02,.13-.11,.2-.11h.22c.1,0,.2,.09,.29,.14,.59-.96,1.4-1.72,2.44-2.37,3.56-2.21,9.04-1.9,12.46,.7,.87,.67,1.54,1.44,2.03,2.29,4.63-.77,9.62-.54,14.44-.33,4.17,.19,8.48,.38,12.45-.08,.36-.04,.67,.21,.71,.56,.04,.35-.21,.67-.56,.71-4.08,.47-8.44,.28-12.66,.09-4.64-.21-9.43-.41-13.82,.26,.48,1.44,.5,3.05,0,4.77,0,.03-.04,.05-.05,.09,.12,0,.25,0,.37,0,5.88,.09,11.97,.18,17.83,.57,13.38,.91,27.19,.76,39.87-.41l.92-.08c2.19-.2,4.47-.4,6.61-.55-.03-.07,.21-.14,.21-.23ZM109.42,229.35c1.62-4.97,1.33-11,1.06-16.84-.09-1.84-.16-3.6-.18-5.3-2.02-.07-4.05-.18-6.05-.27-3.76-.16-7.57-.37-11.36-.44-.21,4.72-.64,14.35,1.16,18.32,1.23,2.71,1.94,2.93,2.25,2.93h.03c.66,0,1.66-1.37,2.71-3.07,.78-1.26,1.67-2.46,2.79-3.91,.15-.2,.39-.29,.64-.24,.24,.05,.43,.23,.5,.47,.8,3.08,3.19,6.16,6.46,8.35Zm-2.76-167.62c.81-2.78,.05-5.23-2.13-6.89-2.98-2.26-7.92-2.54-11-.63-1.7,1.05-3.54,3.2-2.8,7.4,5.29,.34,10.68,.46,15.97,.54-.06-.13-.08-.28-.03-.43Z"/><path class="cls-4" d="M109.76,231.52c-.22,0-.44-.06-.62-.18-1.57-.96-5.23-3.55-7.14-7.65-.53,.79-1,1.55-1.39,2.19-1.56,2.5-2.67,4.31-4.42,4.17-1.37-.09-2.47-1.32-3.8-4.24-1.91-4.22-1.57-13.67-1.35-18.68-.82-.01-1.64-.02-2.45-.02-4.11,0-7.7,.14-10.96,.42-.26,.16-.54,.21-.89,.12v-.56l-.07,.34,.02,.18s-.04,0-.06,0h-.04c-.11,.01-.22,.02-.33,.03-.13,.01-.26,.02-.39,.03-.02,0-.11,0-.13,0-.33,0-.65-.14-.87-.38-.67-.09-1.37-.15-2.09-.21-3.15-.27-6.39-.56-8.21-2.79-.9-1.1-1.29-2.54-1.21-4.38-.39-3.16-.5-6.7-.61-9.81-.19-5.73-.22-11.39-.25-16.86-.04-7.91-.09-16.08-.61-24.17-.02-.26,.06-.52,.21-.74-.08-2.44-.29-4.81-.51-7.23-.28-3.03-.56-6.1-.56-9.19,0-5.37,.16-10.72,.32-15.9v-.33c.21-6.48,.42-13.18,.32-19.98-.09-6.24,.11-12.6,.31-18.75l.02-.59c.16-4.95,.32-10.08,.32-15.13,0-.21,.06-.41,.16-.59-.33-12.59-.61-26.77,17.27-28.06,1.26-.09,2.65-.14,4.26-.14,1.47,0,2.94,.04,4.38,.07,1.09,.03,2.17,.05,3.24,.06,.11,0,.2,.02,.27,.04,4.36,.09,8.75,.21,13.17,.33,7.71,.22,14.65,.4,21.53,.48,3.8,.04,7.51,.03,11.17,.02h.17c1.67,0,3.33-.01,4.98-.01,5.73,0,11.91,.06,18.38,.5,5.95,.41,11.93,1.29,17.71,2.15l2.46,.36c.31,.05,.59,.21,.78,.46,.14,.18,.21,.39,.23,.61,2.65,3.36,1.87,12.59,.92,21.02l-.02,.18c-.1,.86-.18,1.61-.24,2.21,1.1,.05,2.06,.11,2.98,.19,.05,0,.12,.02,.17,.04,0,0,.05,.01,.11,.03,.1,.04,.17,.07,.25,.12,.07,.04,.14,.11,.18,.15,.02,.02,.08,.07,.13,.13,.03,.03,.09,.15,.11,.18,.04,.09,.08,.16,.1,.25,2.66,15.09,1.79,32.66,.95,49.65-.24,4.87-.51,10.58-.64,16.07-.05,2.06-.18,4.27-.4,6.76-.18,2-.28,4.02-.33,6.52,.16,.12,.23,.27,.23,.45v2.54c0,16.58-.18,34.25-1.51,51.18-.3,3.87-.44,7.19-.42,10.16v1.71c.28,.22,.44,.55,.44,.91,0,.55-.37,1.01-.88,1.14-.4,.32-.99,.34-1.4,.06-3.52,.04-7.1,.26-9.99,.43-4.48,.27-8.98,.54-13.64,.41-7.14-.19-14.4-.62-21.43-1.03l-.36-.02c-7.19-.43-15.34-.92-23.16-1.09-.82-.02-1.65-.05-2.49-.07,.03,1.28,.08,2.69,.17,4.58,.3,6.33,.6,12.86-1.44,18.32-.12,.33-.39,.59-.73,.71-.13,.04-.26,.06-.39,.06Zm-7.65-9.51s.05,0,.07,0c.2,.03,.37,.16,.44,.35,1.63,4.34,5.5,7.07,7.08,8.05h.05s.02,.01,.04,0c2.01-5.3,1.71-11.72,1.42-17.92-.1-2.2-.16-3.75-.18-5.21,0-.15,.06-.29,.16-.4,.11-.11,.26-.17,.4-.16h.29c.93,.04,1.86,.07,2.76,.09,7.84,.18,16,.66,23.2,1.09l.36,.02c7.02,.41,14.27,.84,21.39,1.03,4.61,.12,9.11-.14,13.44-.41,3.06-.18,6.73-.41,10.34-.44,.17,.02,.3,.06,.41,.18,.09-.11,.35-.19,.49-.2,.04,0,.09-.03,.09-.09-.22-.08-.43-.37-.43-.6v-2.02c-.03-3,.11-6.36,.42-10.26,1.32-16.88,1.5-34.53,1.5-51.09v-2.22c-.09-.07-.18-.16-.22-.31-.01-.05-.02-.1-.02-.15,.05-2.68,.15-4.81,.34-6.92,.21-2.46,.34-4.65,.39-6.69,.13-5.5,.4-11.22,.64-16.1,.84-16.93,1.7-34.44-.91-49.34l.12-.58-.22,.51c-1.07-.11-2.23-.17-3.62-.22-.21,0-.4-.14-.49-.33h0c-.1,.17-.27,.3-.47,.3h0c-2.18-.04-4.15,.01-6.81,.18-.17,.01-.34-.06-.45-.19-.03-.04-.06-.09-.08-.14-.06,.08-.13,.13-.18,.17-.09,.14-.25,.23-.42,.24-2.14,.15-4.41,.35-6.6,.55l-.92,.08c-7.18,.67-14.73,1.01-22.41,1.01h0c-5.87,0-11.77-.2-17.54-.59-5.86-.39-11.93-.48-17.8-.57h-.37c-.19,0-.36-.11-.46-.27-.1-.16-.11-.36-.03-.53,0-.02,.02-.04,.04-.07,.45-1.56,.44-3.04,0-4.38-.05-.15-.03-.32,.05-.46,.08-.14,.23-.23,.39-.26,2.06-.32,4.39-.47,7.14-.47,2.31,0,4.69,.11,6.79,.2,2.25,.1,4.57,.21,6.86,.21,2.16,0,4.03-.09,5.71-.29,.05,0,.09-.05,.08-.1,0-.05-.04-.08-.09-.08-1.69,.19-3.55,.29-5.7,.29-2.29,0-4.61-.1-6.86-.21-2.25-.1-4.58-.2-6.86-.2-2.92,0-5.3,.17-7.46,.53-.22,.04-.45-.07-.56-.27-.47-.82-1.11-1.53-1.89-2.13-1.72-1.31-4.11-2.06-6.55-2.06-1.97,0-3.85,.49-5.29,1.39-1,.62-1.74,1.34-2.26,2.19-.15,.24-.46,.33-.72,.2-.02,0-.1-.06-.13-.08-.06,.04-.13,.07-.17,.08-.12,.03-.24,.03-.35-.01-3.89,.16-6.57,.23-9.08,.25h1.38c2.27,0,4.74,0,7.66-.11,.03,0,.1,0,.15,.01,.09,0,.18,0,.26,.04,.01,0,.09,.04,.1,.05,.16,.03,.26,.12,.34,.26,.08,.14,.05,.3,0,.45-.49,1.27-.61,2.77-.37,4.46,.02,.17-.03,.33-.14,.45-.11,.12-.28,.18-.44,.17-1.05-.08-2.1-.13-3.15-.19-5.06-.26-9.8-.51-12.35-3.41-1.13-1.28-1.75-2.98-1.91-5.2-.01-.17,.06-.34,.19-.45-.44-4.75,.35-8.06,2.38-9.92,2.08-1.89,5.6-2.37,10.42-1.42,.1-.06,.27-.1,.38-.09,7.47,.67,15.31,.76,22.67,.76,1.66,0,3.31,0,4.96,0,1.77,0,3.53-.02,5.27-.02h10.57c8.22,0,17,.05,25.44,.43,1.81,.09,3.69,.09,5.69,.09,4.46,.02,9.02,.03,12.92,.92,.25,.06,.43,.28,.43,.54,0,1.03,.1,2.25,.2,3.54,.1,1.18,.19,2.41,.24,3.69,.03,.82,.08,1.64,.13,2.47-.04-.83-.07-1.65-.1-2.47l-.09-2.26c-.08-1.89-.15-3.68-.15-5.1-.11-.1-.23-.29-.24-.44,0-.03-.03-.07-.08-.08-3.97-.95-8.66-.96-13.18-.98-2.18,0-3.98-.02-5.74-.1-8.43-.39-17.18-.44-25.39-.44h-10.63c-1.74,0-3.48,.01-5.23,.02-1.84,0-3.65,.01-5.47,.01-7.69,0-15.88-.11-23.62-.88-.06,0-.1,.02-.16,.01-4.33-.66-7.38-.12-9.35,1.68-1.72,1.57-2.54,4.03-2.53,7.53,0,.1-.03,.2-.08,.29-.28,3.61,.35,6.23,1.93,8.02,.9,1.03,2.11,1.78,3.7,2.32,.21,.07,.35,.26,.37,.48,1.45,17.58,1.38,35.94,1.31,53.69v1.89c-.02,3.06-.03,6.11-.03,9.15,0,3.25,.01,8.18,.12,13.37,0,.12-.03,.23-.1,.32-.37,10.22,.04,20.35,.45,30.14v.15c.3,7.12,.6,14.49,.6,21.77v2.07c-.03,3.76-.06,7.66,.64,11.16,.04,.03,.07,.07,.1,.11,.02-.03,.04-.05,.06-.07-.66-3.53-.64-7.42-.62-11.17,0-.71,0-1.4,0-2.09,0-7.32-.31-14.72-.6-21.87-.37-9-.68-17.74-.54-26.42,0-.17,.09-.34,.23-.44-.14-6.25-.17-12.38-.17-17.03,0-3.65,.01-7.33,.03-11.01,.07-17.55,.14-35.7-1.28-53.26-.01-.17,.06-.35,.19-.46,.13-.11,.31-.16,.48-.12,2.3,.54,5.07,.69,7.52,.81,.5,.02,1,.06,1.51,.09l.63,.04c.09,0,.17,.03,.24,.07,6.43,.51,13.06,.61,19.47,.71h.24c5.83,.09,11.86,.18,17.67,.58,5.77,.39,11.67,.59,17.52,.59,7.72,0,15.27-.34,22.44-1.01l.86-.08c4.53-.42,8.81-.82,13.27-.82,1.91,0,3.7,.07,5.46,.22,.25,.02,.45,.21,.5,.45,2.49,14.7,1.64,32.03,.81,48.79-.25,5.06-.54,10.81-.67,16.1-.06,2.3-.25,4.52-.44,6.68-.28,3.1-.56,6.31-.41,9.66,0,16.9,.01,34.33-1.3,51.04-.26,3.34-.24,6.82-.22,10.19v2.07c.01,.3-.23,.55-.53,.55-3.32,.04-6.53,.22-10.08,.43h-.11c-4.33,.27-8.83,.54-13.42,.41-7.43-.2-15.03-.65-21.74-1.05-7.6-.45-15.46-.92-23.21-1.09-.79-.02-1.59-.05-2.39-.07l-.81-.03c-.19,0-.36-.11-.46-.27l-.08-.06s-.06,.03-.07,.05c-.11,.16-.29,.25-.48,.24-1.85-.06-3.7-.14-5.54-.21l-.56-.02c-4.89-.2-10.44-.43-15.74-.43-2.6,0-4.94,.05-7.16,.16-.18,0-.35-.07-.46-.21-.09,.15-.24,.25-.41,.26-1.26,.08-2.51,.17-3.75,.29-.06,0-.12,0-.17-.01-1.13-.25-2.39-.37-3.7-.49-2.88-.25-5.85-.51-7.32-2.32-.61-.75-.93-1.74-.95-2.95,0-.08,.02-.17,.05-.25l-.02-.36v-.29c.01-.14,.02-.28,.03-.44-.07-.08-.14-.26-.15-.37-.28-2.82-.39-5.78-.49-8.82-.19-5.69-.22-11.59-.25-16.79-.04-7.09-.1-14.02-.44-20.81,0-.07,0-.13,.03-.19,.18-3.89-.18-7.8-.5-11.25-.27-2.95-.55-6-.55-9.07,0-5.52,.18-11.19,.33-16.2,.2-6.48,.41-13.19,.31-20.03-.09-6.2,.11-12.53,.3-18.65,.15-4.55,.28-9.32,.32-14.03,0-.16,.07-.32,.2-.42-.37-14.79-.73-27.51,16.06-28.72,1.23-.09,2.59-.13,4.17-.13,1.45,0,2.91,.04,4.35,.07l1.61,.03s.08,0,.11,.01c4.94,.11,9.91,.25,14.9,.39,7.75,.22,14.68,.41,21.6,.49,3.81,.04,7.52,.03,11.19,.01h.28c1.66,0,3.3-.01,4.93-.01,5.68,0,11.82,.06,18.23,.5,5.95,.41,11.91,1.29,17.67,2.14l1.72,.26c.07,.01,.15,.04,.21,.08,.02,0,.03,.02,.05,.03,2.96,1.84,2.3,11.46,1.27,20.63l-.04,.38c-.1,.9-.19,1.66-.24,2.26,.04,.05,.07,.1,.09,.16,.02-.03,.04-.06,.07-.09,.09-.68,.18-1.51,.29-2.48l.02-.18c.68-6.02,1.94-17.22-.79-20.33-.11-.12-.15-.28-.13-.44,0-.04-.04-.1-.08-.1l-2.4-.35c-5.82-.86-11.78-1.75-17.69-2.15-6.43-.44-12.6-.5-18.31-.5-1.64,0-3.3,0-4.97,.01h-.17c-3.66,.01-7.38,.03-11.18-.02-6.89-.08-13.84-.27-21.55-.48-4.45-.12-8.87-.24-13.25-.34-.06,0-.11-.01-.17-.03-1.09-.02-2.17-.05-3.27-.07-1.43-.04-2.89-.07-4.35-.07-1.58,0-2.94,.04-4.18,.13-15.71,1.13-16.64,11.96-16.24,27.12,0,.14-.05,.28-.14,.38-.03,5.13-.19,10.26-.35,15.22l-.02,.54c-.2,6.19-.4,12.53-.31,18.75,.1,6.82-.11,13.53-.31,20.03v.33c-.17,5.17-.33,10.52-.33,15.87,0,3.04,.28,6.08,.55,9.02,.24,2.56,.45,5.02,.53,7.57,0,.16-.06,.31-.18,.42,.49,8.19,.53,16.39,.57,24.31,.03,5.46,.06,11.12,.25,16.83,.1,3.09,.22,6.6,.6,9.81-.06,1.65,.25,2.85,.97,3.73,1.52,1.87,4.53,2.13,7.44,2.39,.84,.07,1.64,.15,2.39,.25,.18,.02,.33,.13,.41,.29,.23,.03,.37,.02,.52,.01,.13,0,.26-.02,.39-.03,.07,0,.13,0,.2,.02l.24,.06c.08-.07,.27-.13,.38-.14,3.34-.3,7-.44,11.2-.44,1.01,0,2.02,0,3.03,.02,.15,0,.29,.06,.39,.17,.1,.11,.16,.25,.15,.4-.21,4.74-.65,14.6,1.23,18.74,1.12,2.47,1.98,3.54,2.88,3.6h0c1.14,0,2.14-1.61,3.41-3.66,.54-.87,1.22-1.96,2-3.07,.1-.15,.27-.23,.45-.23Zm9.63-16.56l.56,.02c.8,.03,1.6,.05,2.38,.07,7.77,.17,15.64,.64,23.25,1.09,6.7,.4,14.3,.85,21.71,1.05,4.54,.12,9.02-.14,13.32-.4h.11c3.37-.21,6.44-.38,9.59-.43v-1.44c-.03-3.48-.05-6.98,.21-10.37,1.31-16.66,1.3-34.08,1.29-50.92-.15-3.41,.14-6.65,.42-9.79,.19-2.14,.38-4.34,.44-6.61,.13-5.31,.42-11.06,.67-16.13,.82-16.54,1.66-33.65-.72-48.14-1.6-.12-3.22-.18-4.95-.18-4.41,0-8.66,.39-13.17,.81l-.86,.08c-7.2,.67-14.78,1.01-22.54,1.01-5.88,0-11.8-.2-17.59-.59-5.78-.39-11.79-.48-17.61-.57h-.24c-6.43-.1-13.07-.2-19.51-.7-.12,0-.24-.04-.36-.09l-.52-.03c-.5-.03-.99-.06-1.49-.09-2.25-.12-4.76-.25-6.98-.68,1.36,17.38,1.29,35.29,1.22,52.61-.01,3.69-.03,7.36-.03,11.01,0,4.64,.02,10.76,.21,16.93,.01,.29-.09,.57-.28,.79-.14,8.57,.18,17.22,.54,26.07,.29,7.22,.6,14.63,.6,21.98,0,.69,0,1.38,0,2.08-.02,3.72-.04,7.55,.63,10.9,0,.03,.01,.06,.01,.08,2.02-.09,4.14-.13,6.46-.13,5.33,0,10.88,.23,15.79,.43l.56,.02c1.75,.07,3.51,.14,5.27,.2,.45-.39,1.17-.36,1.59,.05Zm-46.04-4.8c.04,.92,.27,1.63,.71,2.17,1.18,1.45,3.92,1.69,6.56,1.92,1.26,.11,2.59,.23,3.76,.49,.97-.09,1.95-.17,2.93-.23-.67-3.54-.65-7.4-.62-11.13v-2.07c0-7.26-.3-14.61-.59-21.73v-.15c-.41-9.82-.83-19.97-.48-30.18,0-.16,.04-.31,.12-.46-.11-5.15-.12-10.02-.12-13.24,0-3.04,.01-6.09,.02-9.15v-1.87c.07-17.62,.14-35.83-1.27-53.26-1.61-.59-2.86-1.41-3.83-2.51-1.78-2.02-2.51-4.9-2.21-8.81,.01-.12,.04-.24,.09-.35,0-3.76,.95-6.45,2.88-8.22,2.22-2.02,5.52-2.66,10.17-1.96,.04,0,.08,0,.12,0,7.77,.77,15.92,.88,23.58,.88,1.82,0,3.63,0,5.42-.01,1.8,0,3.54-.01,5.28-.01h10.63c8.22,0,16.99,.05,25.44,.43,1.74,.08,3.53,.09,5.7,.1,4.59,.01,9.34,.03,13.44,1.01,.43,.1,.76,.43,.88,.84,.19,.22,.29,.48,.29,.75,0,1.39,.07,3.17,.15,5.05l.09,2.27c.04,1.01,.08,2.02,.13,3.03,.08,1.85,.17,3.76,.19,5.55,.17,.15,.19,.35,.19,.4v.84c2.04-.11,3.69-.16,5.42-.14,.05-.6,.14-1.35,.24-2.23l.04-.35c.5-4.43,2-17.78-.72-19.58l-1.59-.24c-5.74-.85-11.68-1.73-17.59-2.14-6.37-.44-12.49-.5-18.15-.5-1.63,0-3.27,0-4.93,.01h-.28c-3.67,.02-7.39,.03-11.21-.01-6.92-.08-13.86-.27-21.57-.49-5.04-.14-10-.28-14.91-.38-.05,0-.2-.03-.24-.04l-1.52-.02c-1.43-.04-2.88-.07-4.32-.07-1.55,0-2.89,.04-4.09,.13-15.74,1.14-15.41,12.78-15,27.53,0,.27-.08,.53-.24,.74-.03,4.65-.17,9.35-.31,13.75-.2,6.2-.4,12.52-.31,18.69,.1,6.87-.11,13.59-.31,20.08-.15,5-.33,10.66-.33,16.17,0,3.02,.28,6.04,.55,8.96,.32,3.48,.69,7.43,.52,11.38,0,.08-.02,.15-.04,.21,.33,6.78,.39,13.69,.43,20.76,.03,5.19,.06,11.08,.25,16.76,.1,2.97,.21,5.86,.48,8.6,.13,.23,.19,.49,.16,.75-.01,.12-.02,.23-.02,.35v.22l.02,.21c.02,.17,0,.34-.05,.51ZM108.58,61.63c5.77,.09,11.72,.18,17.5,.57,5.75,.39,11.62,.59,17.47,.59h0c7.66,0,15.16-.34,22.32-1l.92-.08c2.09-.19,4.26-.38,6.32-.53v-.34c0-1.71-.12-3.53-.25-5.45-.09-1.36-.19-2.73-.23-4.09-.05-1.26-.14-2.47-.24-3.64-.09-1.14-.18-2.22-.2-3.19-3.69-.77-8.01-.78-12.2-.8-2.06,0-3.96,0-5.79-.1-8.42-.39-17.18-.44-25.39-.44h-10.57c-1.75,0-3.5,.01-5.27,.02-1.65,0-3.3,.01-4.96,.01-7.33,0-15.14-.09-22.61-.75-.2,.08-.42,.1-.64,.06-4.46-.88-7.68-.48-9.48,1.16-1.76,1.61-2.43,4.61-1.99,8.92,.03,.28-.05,.56-.21,.79,.16,1.86,.69,3.28,1.62,4.33,2.25,2.55,6.77,2.79,11.55,3.04,.86,.04,1.71,.09,2.54,.14-.12-1.32-.03-2.54,.28-3.64-2.72,.09-5.07,.1-7.25,.1h-1.99c-.69,0-1.19-.46-1.2-1.09,0-.29,.1-.56,.3-.75,.22-.22,.53-.35,.89-.35,2.68-.02,5.47-.09,9.62-.23,.06,0,.1,0,.15,0,.08-.05,.19-.09,.32-.09h.22s.05,0,.08,0c.59-.83,1.36-1.53,2.36-2.15,1.62-1,3.71-1.56,5.87-1.56,2.67,0,5.3,.83,7.21,2.28,.79,.6,1.46,1.32,1.98,2.13,2.13-.33,4.45-.48,7.28-.48,2.31,0,4.65,.1,6.91,.21,2.23,.1,4.55,.21,6.81,.21,2.11,0,3.93-.09,5.56-.28,.02,0,.12,0,.14,0,.61,0,1.11,.46,1.18,1.06,.07,.65-.39,1.24-1.05,1.32-1.73,.2-3.63,.3-5.84,.3-2.31,0-4.65-.11-6.91-.21-2.09-.09-4.46-.2-6.74-.2-2.42,0-4.5,.12-6.35,.37,.29,1.22,.29,2.51-.02,3.86Zm65.62-1.1c0,.1,0,.2,0,.3v.38s.02-.02,.04-.03v-.62s-.03-.02-.04-.04ZM109.42,229.9c-.11,0-.21-.03-.31-.09-3.41-2.29-5.84-5.45-6.68-8.67l-.1-.07s-.05,.01-.07,.03c-1.15,1.49-2.01,2.66-2.77,3.87-1.5,2.43-2.36,3.33-3.18,3.33-.62,0-1.46-.37-2.78-3.25-1.87-4.11-1.42-13.88-1.21-18.58,.01-.3,.28-.54,.56-.52,2.72,.06,5.48,.18,8.16,.3,1.07,.05,2.14,.1,3.21,.14l2.1,.1c1.31,.06,2.63,.12,3.95,.17,.29,0,.53,.25,.53,.54,.02,1.47,.08,3.1,.18,5.28,.28,5.89,.56,11.97-1.08,17.03-.05,.16-.18,.29-.34,.35-.06,.02-.12,.03-.18,.03Zm-7.08-9.93c.08,0,.16,0,.24,.03,.44,.09,.8,.43,.92,.86,.71,2.73,2.79,5.53,5.62,7.61,1.34-4.73,1.07-10.41,.81-15.91-.09-1.95-.15-3.46-.17-4.81-1.15-.04-2.3-.1-3.44-.15l-2.09-.1c-1.07-.04-2.14-.09-3.21-.14-2.49-.11-5.07-.23-7.6-.29-.21,4.78-.55,13.82,1.14,17.54,1.17,2.58,1.74,2.61,1.75,2.61,.15-.02,.69-.27,2.27-2.81,.78-1.26,1.66-2.45,2.83-3.96,.22-.29,.57-.47,.94-.47Zm4.35-157.26h0c-5.14-.08-10.64-.2-16-.54-.25-.02-.46-.2-.5-.45-.8-4.52,1.22-6.83,3.05-7.96,1.41-.87,3.25-1.35,5.18-1.35,2.41,0,4.76,.73,6.44,2.01,2.38,1.81,3.21,4.47,2.33,7.48,.08,.17,.06,.39-.04,.55-.1,.15-.27,.27-.45,.27Zm-15.5-1.61c4.99,.31,10.11,.43,14.93,.51v-.02c.75-2.55,.06-4.79-1.93-6.3-1.5-1.14-3.6-1.79-5.78-1.79-1.73,0-3.37,.42-4.6,1.19-1.49,.92-3.11,2.78-2.62,6.42Z"/></g><g><path class="cls-3" d="M185.46,62.94c2.48,14.6,1.63,31.92,.8,48.68-.28,5.66-.55,11-.67,16.11-.05,2.26-.25,4.49-.44,6.64-.28,3.13-.56,6.36-.42,9.73,0,16.86,.01,34.29-1.3,50.98-.27,3.39-.24,6.91-.22,10.32,0,.66,0,1.32,0,1.99-3.44,.04-6.83,.24-10.11,.43-4.36,.26-8.88,.53-13.48,.41-7.23-.2-14.6-.63-21.73-1.05-7.62-.45-15.5-.92-23.23-1.09-1.05-.03-2.13-.07-3.2-.1-.11-.19-.31-.33-.55-.33-.23,0-.41,.12-.53,.3-2.04-.07-4.08-.15-6.09-.24-7.67-.32-15.54-.63-22.96-.27,.14-.15,.22-.34,.18-.56-.68-3.41-.66-7.27-.64-11.01,0-.7,0-1.38,0-2.07,0-7.35-.31-14.77-.6-21.95-.35-8.61-.68-17.48-.54-26.33,.17-.12,.28-.31,.28-.53-.19-6.21-.21-12.32-.21-16.95,0-3.65,.01-7.32,.03-11.01,.07-17.62,.13-35.83-1.28-53.3,2.29,.54,4.91,.69,7.61,.83,.71,.03,1.42,.08,2.12,.13,.08,.05,.17,.08,.26,.08,6.47,.51,13.15,.6,19.61,.7,5.86,.09,11.92,.18,17.75,.57,5.82,.39,11.71,.59,17.56,.59,7.67,0,15.25-.33,22.49-1.01l.86-.08c6.3-.59,12.26-1.14,18.64-.6Zm-14.46,52.1c0-.29-.18-.44-.44-.53-.08-4.94,0-10.05,.1-15.02,.07-4,.14-7.77,.13-11.41,0-.35-.29-.64-.65-.64h0c-.18,0-.34,.08-.46,.2-4.28-.22-8.68-.22-12.93-.2h-3.09c-4.13,.03-8.32,0-12.47-.01-15.42-.03-31.37-.08-46.8,.45-.36,0-.63,.31-.62,.66,0,.11,.04,.21,.1,.3-.06,.09-.1,.2-.1,.32,0,4.68,.17,9.3,.33,13.77,.13,3.63,.27,7.38,.31,11.12h0v.03s.02,.07,.03,.11c.01,.04,.01,.09,.03,.13,.02,.05,.06,.09,.09,.13,.02,.02,.03,.05,.05,.06,.05,.06,.12,.1,.19,.13,0,0,0,0,.01,0,.06,.02,.12,.04,.18,.05,.02,0,.05,.02,.07,.02h.02s0-.01,.01-.02c12.44-.64,25.34-.06,37.81,.51,7.5,.34,15.26,.69,22.86,.78,.33,0,.67,0,1,0,1.99,0,3.98-.06,5.91-.12,2.18-.07,4.43-.3,6.67-.27,.09,.25,.32,.26,.6,.26h.01c.29,0,.52-.03,.59-.29,.26-.08,.46-.22,.46-.51Z"/><path class="cls-4" d="M162.02,208.81c-.8,0-1.6,0-2.41-.03-7.43-.2-15.03-.65-21.74-1.05-7.6-.45-15.46-.92-23.21-1.09-.79-.02-1.59-.05-2.4-.07l-.81-.03c-.19,0-.36-.11-.46-.27-.11,.16-.44,.26-.63,.24-1.84-.06-3.69-.14-5.52-.21l-.57-.02c-4.89-.2-10.44-.43-15.74-.43-2.6,0-4.94,.05-7.17,.16-.23,.01-.43-.12-.53-.32-.09-.21-.05-.45,.11-.61-.66-3.53-.64-7.42-.62-11.18,0-.71,0-1.4,0-2.09,0-7.32-.31-14.72-.6-21.87-.37-9-.68-17.75-.54-26.42,0-.17,.09-.34,.23-.44-.14-6.25-.17-12.38-.17-17.03,0-3.65,.01-7.33,.03-11.01,.07-17.55,.14-35.7-1.28-53.26-.01-.17,.06-.35,.19-.46,.13-.11,.31-.16,.48-.12,2.3,.54,5.07,.69,7.52,.81,.5,.02,1,.06,1.51,.09l.63,.04c.09,0,.17,.03,.24,.07,6.43,.51,13.06,.61,19.47,.71h.25c5.83,.09,11.86,.18,17.67,.58,5.77,.39,11.67,.59,17.52,.59,7.72,0,15.27-.34,22.44-1.01l.86-.08c4.53-.42,8.81-.82,13.27-.82,1.91,0,3.7,.07,5.46,.22,.25,.02,.45,.21,.5,.45,2.49,14.7,1.64,32.03,.81,48.79-.25,5.06-.54,10.8-.67,16.1-.06,2.3-.25,4.52-.44,6.68-.28,3.1-.56,6.31-.41,9.66,0,16.9,.01,34.34-1.3,51.04-.26,3.34-.24,6.82-.22,10.19v2.07c.01,.3-.23,.55-.53,.55-3.32,.04-6.53,.22-10.08,.43h-.11c-3.57,.22-7.26,.44-11.01,.44Zm-50.28-3.36l.56,.02c.8,.03,1.6,.05,2.38,.07,7.77,.17,15.64,.64,23.25,1.09,6.7,.4,14.3,.85,21.71,1.05,4.55,.13,9.02-.14,13.32-.4h.11c3.37-.21,6.44-.38,9.59-.43v-1.44c-.03-3.48-.05-6.98,.21-10.37,1.31-16.66,1.3-34.08,1.29-50.92-.15-3.41,.14-6.65,.42-9.79,.19-2.14,.38-4.34,.44-6.61,.13-5.31,.42-11.06,.67-16.13,.82-16.54,1.66-33.65-.72-48.14-1.6-.12-3.22-.18-4.95-.18-4.41,0-8.66,.39-13.17,.81l-.86,.08c-7.2,.67-14.78,1.01-22.54,1.01-5.88,0-11.8-.2-17.59-.59-5.78-.39-11.79-.48-17.61-.57h-.25c-6.43-.1-13.07-.2-19.51-.7-.12,0-.24-.04-.36-.09l-.52-.03c-.5-.03-.99-.06-1.49-.09-2.25-.12-4.76-.25-6.98-.68,1.36,17.38,1.29,35.29,1.22,52.61-.01,3.69-.03,7.36-.03,11.01,0,4.64,.02,10.76,.21,16.93,.01,.29-.09,.57-.28,.79-.14,8.57,.18,17.22,.54,26.07,.29,7.23,.6,14.64,.6,21.98,0,.69,0,1.38,0,2.08-.02,3.72-.04,7.55,.63,10.9,0,.03,.01,.06,.01,.08,2.02-.09,4.14-.13,6.47-.13,5.33,0,10.88,.23,15.79,.43l.57,.02c1.74,.07,3.5,.14,5.26,.2,.45-.39,1.17-.36,1.59,.05Zm45-88.92c-.33,0-.67,0-1,0-7.74-.09-15.78-.45-22.88-.78-8.54-.39-17.37-.79-26.09-.79-4.17,0-7.95,.09-11.57,.27-.1,.03-.22,.03-.35-.01-.06,0-.17-.03-.28-.08h-.03c-.15-.08-.27-.16-.36-.27-.02-.02-.08-.09-.09-.12-.03-.03-.09-.11-.14-.22-.02-.04-.05-.16-.06-.2-.01-.05-.04-.13-.04-.23,0-.02,0-.04,0-.05-.04-3.66-.18-7.33-.3-10.88v-.23c-.17-4.45-.34-9.05-.34-13.79,0-.11,.02-.22,.05-.32-.03-.1-.05-.19-.05-.29,0-.32,.11-.62,.32-.85,.22-.23,.51-.36,.83-.37,12.1-.42,24.4-.47,34.84-.47,3.8,0,7.59,0,11.34,.02h3.98c3.05,.03,6.1,.04,9.12,.02h5.93c2.97-.01,6.47,.01,9.92,.19,.19-.12,.41-.19,.63-.19,.66,0,1.19,.53,1.2,1.19,.01,3.73-.06,7.64-.13,11.43-.1,5.27-.17,10.03-.1,14.67,.41,.29,.45,.7,.45,.89,0,.2-.08,.67-.62,.93-.28,.4-.8,.4-.99,.4-.23,0-.62,0-.9-.26h-.03c-1.25,0-2.52,.07-3.76,.15-.87,.05-1.73,.1-2.59,.13-1.92,.06-3.91,.12-5.93,.12Zm-49.97-2.67c8.74,0,17.59,.4,26.14,.79,7.08,.32,15.11,.69,22.84,.78,2.37,.03,4.66-.05,6.88-.12,.84-.03,1.7-.07,2.56-.13,1.25-.07,2.54-.15,3.82-.15h.32c.19,0,.36,.1,.46,.26,.12,0,.21,0,.26,0,.07-.13,.19-.23,.33-.27-.22-.07-.37-.27-.37-.5-.08-4.76,0-9.63,.1-15.04,.07-3.78,.14-7.68,.13-11.4,0-.05-.04-.09-.1-.09-.11,.11-.32,.19-.49,.19-3.5-.18-7.05-.21-10.07-.21h-5.92c-3.02,.03-6.08,.02-9.13,0h-3.98c-3.76-.02-7.54-.03-11.34-.03-10.43,0-22.72,.06-34.8,.47l-.09,.1c.1,.17,.12,.43,.02,.6-.02,4.76,.15,9.35,.31,13.79v.23c.14,3.54,.27,7.21,.31,10.87,0,.02,0,.03,0,.05,0,0,.03,.04,.05,.07h.01s.04,0,.05,.01c3.66-.19,7.49-.28,11.71-.28Z"/></g><g><path class="cls-2" d="M180.54,38.22c3.11,1.84,1.66,14.67,1.04,20.15-.12,1.05-.22,1.95-.28,2.62-.01,.17,.04,.33,.14,.46-2.37-.05-4.53,.03-6.86,.18,.01-.05,.21-.09,.21-.14v-1.29s-.18-.02-.18-.03c-.01-2.82-.21-5.92-.32-8.93-.1-2.77-.24-5.39-.24-7.34,0-.19-.11-.36-.25-.48-.02-.27-.22-.51-.49-.58-4.03-.96-8.75-.98-13.31-.99-2.01,0-3.9-.01-5.72-.1-10.13-.46-20.65-.45-30.82-.43h-5.23c-1.75,0-3.51,0-5.28,.01-9.66,.03-19.66,.07-29-.87-.05,0-.09,0-.13,.02-4.48-.69-7.7-.1-9.8,1.81-1.84,1.68-2.72,4.3-2.7,7.94-.05,.08-.08,.17-.09,.26-.29,3.75,.39,6.5,2.07,8.4,1.04,1.18,2.39,1.96,3.94,2.47,1.45,17.56,1.38,35.91,1.31,53.66-.01,3.69-.03,7.36-.03,11.02s.02,8.44,.12,13.39c-.07,.1-.12,.21-.12,.34-.35,10.12,.07,20.3,.47,30.14,.29,7.17,.6,14.57,.6,21.9v2.07c-.03,3.8-.05,7.73,.65,11.27,.03,.15,.11,.27,.21,.36-1.27,.08-2.52,.17-3.77,.29-1.16-.26-2.48-.39-3.77-.5-2.76-.24-5.61-.49-6.94-2.12-.53-.66-.81-1.52-.83-2.62,.05-.1,.08-.22,.06-.34-.01-.1-.02-.21-.03-.32,.01-.2,0-.39,.03-.6,.02-.18-.04-.35-.15-.49-.28-2.83-.4-5.83-.49-8.78-.19-5.62-.22-11.29-.25-16.77-.04-6.83-.09-13.86-.44-20.83,.02-.05,.04-.1,.04-.16,.16-3.87-.18-7.65-.52-11.3-.27-2.95-.55-5.99-.55-9.02,0-5.45,.17-10.91,.33-16.18,.2-6.5,.41-13.23,.31-20.06-.09-6.22,.11-12.57,.31-18.71,.15-4.56,.28-9.27,.31-13.95,.15-.12,.24-.3,.24-.51-.4-14.45-.75-26.92,15.51-28.09,2.76-.2,5.66-.13,8.46-.06,.54,.01,1.08,.02,1.62,.03,.05,.01,.09,.03,.15,.03,4.92,.1,9.91,.24,14.91,.38,7.08,.2,14.4,.4,21.56,.49,3.81,.04,7.53,.03,11.2,.01,7.96-.03,15.47-.06,23.4,.48,5.9,.4,11.86,1.28,17.63,2.14l1.72,.26s.01,.01,.02,.02Z"/><path class="cls-4" d="M76.7,206.33s-.08,0-.12-.01c-1.13-.25-2.39-.37-3.7-.49-2.88-.25-5.85-.51-7.32-2.32-.61-.75-.93-1.74-.95-2.95,0-.08,.02-.17,.05-.25l-.02-.36v-.29c.01-.14,.02-.28,.03-.44-.07-.08-.14-.26-.15-.37-.28-2.82-.39-5.78-.49-8.82-.19-5.69-.22-11.59-.25-16.79-.04-7.09-.1-14.02-.44-20.81,0-.07,0-.13,.03-.19,.18-3.89-.18-7.8-.5-11.25-.27-2.95-.55-6-.55-9.07,0-5.52,.18-11.19,.33-16.2,.2-6.48,.41-13.19,.31-20.03-.09-6.2,.11-12.53,.3-18.65,.15-4.55,.28-9.32,.32-14.03,0-.16,.07-.32,.2-.42-.37-14.79-.73-27.51,16.06-28.72,1.23-.09,2.59-.13,4.17-.13,1.45,0,2.91,.04,4.35,.07l1.61,.03s.08,0,.11,.01c4.94,.11,9.91,.25,14.91,.39,7.75,.22,14.68,.41,21.6,.49,3.81,.04,7.52,.03,11.19,.01h.28c1.66,0,3.3-.01,4.93-.01,5.68,0,11.82,.06,18.23,.5,5.95,.41,11.91,1.29,17.67,2.14l1.72,.26c.07,.01,.15,.04,.21,.08,.02,0,.03,.02,.05,.04,2.96,1.84,2.3,11.46,1.27,20.63l-.04,.39c-.1,.89-.19,1.66-.24,2.25,.02,.02,.03,.04,.05,.07,.07,.09,.12,.21,.12,.34,0,.31-.21,.54-.56,.55,0,0-.01,0-.02,0-2.18-.04-4.15,.01-6.81,.18-.17,.01-.34-.06-.45-.19-.11-.13-.15-.31-.12-.48,.03-.14,.11-.24,.19-.31v-.62c-.09-.08-.15-.18-.18-.31-.02-1.96-.11-3.99-.2-5.96-.05-1.01-.09-2.03-.13-3.04l-.09-2.26c-.08-1.89-.15-3.68-.15-5.1-.11-.1-.23-.29-.24-.44,0-.03-.03-.07-.08-.08-3.97-.95-8.66-.96-13.18-.98-2.18,0-3.98-.02-5.74-.1-8.43-.39-17.18-.44-25.39-.44h-10.63c-1.74,0-3.48,.01-5.24,.02-1.84,0-3.65,.01-5.47,.01-7.69,0-15.88-.11-23.62-.88-.06,0-.1,.02-.16,.01-4.33-.66-7.38-.12-9.35,1.68-1.72,1.57-2.54,4.03-2.53,7.53,0,.1-.03,.2-.08,.29-.28,3.61,.35,6.23,1.93,8.02,.9,1.03,2.11,1.78,3.7,2.32,.21,.07,.35,.26,.37,.48,1.45,17.58,1.38,35.94,1.31,53.69v1.89c-.02,3.06-.03,6.11-.03,9.14,0,3.25,.01,8.18,.12,13.37,0,.12-.03,.23-.1,.32-.37,10.22,.04,20.35,.45,30.14v.15c.3,7.12,.6,14.49,.6,21.77v2.07c-.03,3.76-.06,7.66,.64,11.16,.17,.15,.25,.4,.18,.62-.07,.21-.25,.38-.47,.4-1.26,.08-2.51,.17-3.75,.29-.02,0-.03,0-.05,0Zm-10.99-5.69c.04,.92,.27,1.63,.71,2.17,1.18,1.45,3.91,1.69,6.56,1.92,1.26,.11,2.59,.23,3.76,.49,.97-.09,1.95-.17,2.93-.23-.67-3.54-.65-7.4-.62-11.13v-2.07c0-7.26-.3-14.62-.59-21.73v-.14c-.41-9.82-.83-19.97-.48-30.18,0-.16,.04-.31,.12-.46-.11-5.15-.12-10.02-.12-13.24,0-3.04,.01-6.09,.02-9.15v-1.87c.07-17.62,.14-35.83-1.27-53.26-1.61-.59-2.86-1.41-3.83-2.51-1.78-2.02-2.51-4.9-2.21-8.81,.01-.12,.04-.24,.09-.35,0-3.76,.95-6.45,2.88-8.22,2.22-2.02,5.52-2.66,10.17-1.96,.04,0,.08,0,.12,0,7.77,.77,15.92,.88,23.58,.88,1.82,0,3.63,0,5.42-.01,1.79,0,3.54-.01,5.28-.01h10.63c8.22,0,16.99,.05,25.44,.43,1.74,.08,3.53,.09,5.7,.1,4.59,.01,9.34,.03,13.44,1.01,.43,.1,.76,.43,.88,.84,.19,.22,.29,.48,.29,.75,0,1.39,.07,3.17,.15,5.05l.09,2.27c.04,1.01,.08,2.02,.13,3.03,.08,1.85,.17,3.76,.19,5.55,.17,.15,.19,.35,.19,.4v.84c2.04-.11,3.69-.16,5.42-.14,.05-.59,.14-1.35,.24-2.22l.04-.36c.5-4.44,2-17.78-.72-19.58l-1.59-.24c-5.74-.85-11.68-1.73-17.59-2.14-6.37-.44-12.49-.5-18.15-.5-1.63,0-3.27,0-4.93,.01h-.28c-3.67,.02-7.39,.03-11.21-.01-6.92-.08-13.86-.27-21.57-.49-5.04-.14-10-.28-14.91-.38-.05,0-.2-.03-.24-.04l-1.52-.02c-1.43-.04-2.88-.07-4.32-.07-1.55,0-2.88,.04-4.09,.13-15.74,1.14-15.41,12.78-15,27.53,0,.27-.08,.53-.24,.74-.03,4.65-.17,9.35-.31,13.75-.2,6.2-.4,12.52-.31,18.69,.1,6.87-.11,13.59-.31,20.08-.15,5-.33,10.66-.33,16.17,0,3.02,.28,6.04,.55,8.96,.32,3.48,.69,7.43,.52,11.38,0,.08-.02,.15-.04,.21,.33,6.78,.39,13.69,.43,20.76,.03,5.19,.06,11.08,.25,16.76,.1,2.97,.21,5.86,.48,8.6,.13,.23,.19,.49,.16,.75-.01,.12-.02,.23-.02,.34v.22l.02,.21c.02,.17,0,.34-.05,.51Z"/></g><g><path class="cls-1" d="M173.65,60.83v.64c0,.08-.24,.15-.21,.23-2.14,.15-4.42,.35-6.61,.55l-.92,.08c-12.68,1.18-26.49,1.32-39.87,.41-5.86-.39-11.95-.49-17.83-.57-.12,0-.25,0-.37,0,.01-.03,.04-.05,.05-.09,.5-1.72,.49-3.33,0-4.77,4.4-.68,9.18-.47,13.82-.26,4.22,.19,8.58,.39,12.66-.09,.35-.04,.6-.36,.56-.71-.04-.35-.35-.61-.71-.56-3.97,.46-8.28,.27-12.45,.08-4.83-.22-9.82-.44-14.44,.33-.49-.85-1.16-1.62-2.03-2.29-3.43-2.6-8.9-2.91-12.46-.7-1.04,.65-1.85,1.4-2.44,2.37-.09-.05-.18-.14-.29-.14h-.22c-.07,0-.13,.09-.2,.11-.08-.03-.17-.01-.25,0-3.66,.13-6.63,.21-9.64,.23-.35,0-.64,.2-.64,.55,0,.36,.29,.54,.64,.54h0c3.02,0,6,.02,9.67-.11,.07,0,.13,.03,.19,0,.04,.02,.08,.05,.13,.05-.53,1.37-.65,2.98-.4,4.73-1.05-.08-2.11-.13-3.16-.19-4.92-.26-9.56-.49-11.97-3.22-1.04-1.18-1.62-2.79-1.77-4.88,.15-.13,.25-.33,.23-.55-.46-4.5,.27-7.65,2.16-9.38,1.95-1.77,5.29-2.21,9.95-1.29,.16,.03,.31,0,.44-.08,8.98,.8,18.47,.78,27.67,.75,1.77,0,3.53-.02,5.27-.02h5.23c10.15-.02,20.65-.03,30.75,.43,1.84,.09,3.75,.09,5.77,.09,4.38,.02,8.91,.03,12.74,.9,0,1.97,.35,4.53,.45,7.25,.12,3.24,.49,6.59,.49,9.56Z"/><path class="cls-4" d="M143.54,63.89c-5.87,0-11.77-.2-17.54-.59-5.86-.39-11.93-.48-17.8-.57h-.37c-.19,0-.36-.11-.46-.27-.1-.16-.11-.36-.03-.53,0-.02,.02-.04,.04-.07,.45-1.56,.44-3.04,0-4.38-.05-.15-.03-.32,.05-.46,.08-.14,.23-.23,.39-.26,2.06-.32,4.39-.47,7.14-.47,2.31,0,4.69,.11,6.79,.2,2.25,.1,4.57,.21,6.86,.21,2.16,0,4.02-.09,5.71-.29,.05,0,.09-.05,.08-.1,0-.05-.04-.08-.09-.08-1.69,.19-3.55,.29-5.7,.29-2.29,0-4.61-.1-6.86-.21-2.25-.1-4.58-.2-6.86-.2-2.92,0-5.3,.17-7.46,.53-.23,.04-.45-.07-.56-.27-.47-.82-1.11-1.53-1.89-2.13-1.72-1.31-4.11-2.06-6.55-2.06-1.97,0-3.85,.49-5.29,1.39-1,.62-1.74,1.34-2.26,2.19-.15,.24-.46,.33-.72,.2-.02,0-.1-.06-.13-.08-.06,.04-.13,.07-.17,.08-.11,.03-.24,.03-.35-.01-3.89,.16-6.57,.23-9.08,.25h1.38c2.27,0,4.74,0,7.67-.11,.03,0,.1,0,.15,.01,.09,0,.18,0,.26,.04,.01,0,.09,.04,.1,.05,.16,.03,.26,.12,.34,.26,.08,.14,.05,.3,0,.45-.49,1.27-.61,2.77-.37,4.46,.02,.17-.03,.33-.14,.45-.11,.12-.28,.18-.44,.17-1.05-.08-2.1-.13-3.15-.19-5.06-.26-9.8-.51-12.35-3.41-1.13-1.28-1.75-2.98-1.9-5.2-.01-.17,.06-.34,.19-.45-.44-4.75,.35-8.06,2.38-9.92,2.08-1.89,5.6-2.37,10.42-1.42,.1-.06,.27-.1,.38-.09,7.47,.67,15.31,.76,22.67,.76,1.66,0,3.31,0,4.96,0,1.77,0,3.53-.02,5.27-.02h10.57c8.22,0,17,.05,25.44,.43,1.81,.09,3.7,.09,5.69,.09,4.46,.02,9.01,.03,12.91,.92,.25,.06,.43,.28,.43,.54,0,1.03,.1,2.25,.2,3.54,.1,1.18,.19,2.41,.24,3.69,.05,1.34,.14,2.71,.23,4.05,.13,1.94,.26,3.77,.26,5.52v.64c0,.28-.19,.45-.3,.53-.09,.14-.25,.23-.42,.24-2.14,.15-4.41,.35-6.6,.55l-.92,.08c-7.18,.67-14.73,1.01-22.42,1.01Zm-34.96-2.26c5.77,.09,11.72,.18,17.5,.57,5.75,.39,11.62,.59,17.47,.59,7.66,0,15.17-.34,22.32-1l.92-.08c2.09-.19,4.26-.38,6.32-.53v-.34c0-1.71-.12-3.53-.25-5.45-.09-1.36-.19-2.73-.23-4.09-.05-1.26-.14-2.47-.24-3.64-.09-1.14-.18-2.22-.2-3.19-3.69-.77-8.01-.78-12.2-.8-2.06,0-3.95,0-5.79-.1-8.42-.39-17.18-.44-25.39-.44h-10.57c-1.75,0-3.5,.01-5.27,.02-1.65,0-3.3,.01-4.96,.01-7.33,0-15.14-.09-22.61-.75-.2,.08-.42,.1-.64,.06-4.46-.88-7.68-.48-9.48,1.16-1.76,1.61-2.43,4.61-1.99,8.92,.03,.28-.05,.56-.21,.79,.16,1.86,.69,3.28,1.62,4.33,2.25,2.55,6.77,2.79,11.55,3.04,.86,.04,1.71,.09,2.54,.14-.12-1.32-.03-2.54,.28-3.64-2.72,.09-5.08,.1-7.25,.1h-1.99c-.69,0-1.19-.46-1.2-1.09,0-.29,.1-.56,.3-.75,.22-.22,.53-.35,.89-.35,2.68-.02,5.47-.09,9.62-.23,.06,0,.1,0,.15,0,.08-.05,.19-.09,.32-.09h.22s.05,0,.08,0c.59-.83,1.36-1.53,2.36-2.15,1.62-1,3.71-1.56,5.87-1.56,2.67,0,5.3,.83,7.21,2.28,.79,.6,1.46,1.32,1.98,2.13,2.13-.33,4.45-.48,7.28-.48,2.31,0,4.65,.1,6.91,.21,2.23,.1,4.55,.21,6.81,.21,2.11,0,3.93-.09,5.56-.28,.02,0,.12,0,.14,0,.61,0,1.11,.46,1.18,1.06,.07,.65-.39,1.24-1.05,1.32-1.73,.2-3.63,.3-5.84,.3-2.32,0-4.65-.11-6.91-.21-2.09-.09-4.46-.2-6.74-.2-2.42,0-4.5,.12-6.35,.37,.29,1.22,.29,2.51-.02,3.86Z"/></g><g><path class="cls-4" d="M170.56,114.51c.26,.09,.45,.24,.44,.53,0,.29-.2,.43-.46,.51-.08,.26-.31,.29-.59,.29h-.01c-.28,0-.51,0-.6-.26-2.24-.02-4.49,.21-6.67,.27-1.93,.06-3.92,.12-5.91,.12-.33,0-.66,0-1,0-7.6-.08-15.36-.43-22.86-.78-12.47-.57-25.37-1.15-37.81-.51,0,0,0,0-.01,0h-.02s-.04,0-.07,0c-.06,0-.12-.02-.18-.05,0,0,0,0-.01,0-.07-.03-.13-.07-.19-.13-.02-.02-.03-.04-.05-.06-.03-.04-.07-.08-.09-.13-.02-.04-.02-.09-.03-.13,0-.04-.03-.07-.03-.11h0v-.03c-.05-3.75-.18-7.5-.31-11.12-.16-4.47-.33-9.09-.33-13.77,0-.12,.04-.23,.1-.32-.05-.09-.09-.19-.1-.3-.01-.35,.27-.65,.62-.66,15.43-.53,31.38-.49,46.8-.45,4.15,.01,8.34,.05,12.47,.02h3.09c4.25-.02,8.65-.03,12.93,.2,.12-.12,.28-.2,.46-.2h0c.36,0,.64,.29,.65,.64,.01,3.64-.05,7.42-.13,11.41-.09,4.97-.18,10.08-.1,15.02Zm-1.19-15.04c.07-3.69,.13-7.18,.12-10.56-4.21-.21-8.54-.21-12.74-.2h-3.1c-4.14,.02-8.32,0-12.47-.01-15.21-.03-30.92-.07-46.14,.44,0,0,0,0,0,.02,0,4.66,.17,9.27,.33,13.73,.13,3.42,.25,6.95,.3,10.49,12.3-.59,24.99-.02,37.27,.54,7.49,.34,15.24,.69,22.81,.78,2.3,.03,4.61-.05,6.85-.11,2.17-.07,4.41-.12,6.65-.1-.08-4.94,.01-10.05,.1-15Z"/><path class="cls-4" d="M156.74,116.53c-.33,0-.67,0-1,0-7.74-.09-15.78-.45-22.88-.78-8.54-.39-17.37-.79-26.09-.79-4.17,0-7.95,.09-11.57,.27-.1,.03-.22,.03-.35-.01-.06,0-.17-.03-.28-.08h-.03c-.15-.08-.27-.16-.36-.27-.02-.02-.08-.09-.09-.12-.03-.03-.09-.11-.14-.22-.02-.04-.05-.16-.06-.2-.01-.05-.04-.13-.04-.23,0-.02,0-.04,0-.05-.04-3.66-.18-7.33-.3-10.88v-.23c-.17-4.45-.34-9.05-.34-13.79,0-.11,.02-.22,.05-.32-.03-.1-.05-.19-.05-.29,0-.32,.11-.62,.32-.85,.22-.23,.51-.36,.83-.37,12.1-.42,24.4-.47,34.84-.47,3.8,0,7.59,0,11.34,.02h3.98c3.05,.03,6.1,.04,9.12,.02h5.93c2.97-.01,6.47,.01,9.92,.19,.19-.12,.41-.19,.63-.19,.66,0,1.19,.53,1.2,1.19,.01,3.73-.06,7.64-.13,11.43-.1,5.27-.17,10.03-.1,14.67,.41,.29,.45,.7,.45,.89,0,.2-.08,.67-.62,.93-.28,.4-.8,.4-.99,.4-.23,0-.62,0-.9-.26h-.03c-1.25,0-2.53,.07-3.76,.15-.87,.05-1.73,.1-2.59,.13-1.92,.06-3.91,.12-5.93,.12Zm-49.97-2.67c8.74,0,17.59,.4,26.14,.79,7.08,.32,15.11,.69,22.84,.78,2.37,.03,4.66-.05,6.88-.12,.84-.03,1.7-.07,2.56-.13,1.25-.07,2.54-.15,3.82-.15h.32c.19,0,.36,.1,.46,.26,.12,0,.21,0,.26,0,.07-.13,.19-.23,.33-.27-.22-.07-.37-.27-.37-.5-.08-4.76,0-9.63,.1-15.04,.07-3.78,.14-7.68,.13-11.4,0-.05-.04-.09-.1-.09-.11,.11-.32,.19-.49,.19-3.5-.18-7.05-.21-10.07-.21h-5.92c-3.02,.03-6.08,.02-9.13,0h-3.98c-3.75-.02-7.54-.03-11.34-.03-10.43,0-22.72,.06-34.8,.47l-.09,.1c.1,.17,.12,.43,.02,.6-.02,4.76,.15,9.35,.31,13.79v.23c.14,3.54,.27,7.21,.31,10.87,0,.02,0,.04,0,.05,0,0,.03,.04,.05,.07h.01s.03,0,.05,.01c3.66-.19,7.49-.28,11.71-.28Zm50.01,1.38c-.34,0-.69,0-1.03,0-7.58-.08-15.33-.44-22.82-.78-8.54-.39-17.36-.79-26.1-.79-4,0-7.64,.08-11.14,.25-.15,0-.29-.05-.4-.15-.11-.1-.17-.24-.17-.39-.05-3.6-.18-7.15-.3-10.48-.16-4.48-.33-9.07-.33-13.71,0-.02,0-.04,0-.06,0-.3,.23-.54,.53-.55,12.07-.4,24.27-.45,34.62-.45,3.87,0,7.72,0,11.54,.02h2.62c2.48,.02,4.97,.02,7.44,.02l8.24-.02c3,0,6.54,.02,10.03,.2,.29,.01,.52,.26,.52,.55,0,3.27-.05,6.58-.12,10.57-.08,4.4-.18,9.87-.1,14.98,0,.15-.06,.29-.16,.39-.1,.11-.25,.17-.39,.16h-.91c-1.65,0-3.47,.03-5.72,.1h-.33c-1.8,.06-3.66,.12-5.52,.12Zm-49.95-2.67c8.76,0,17.59,.4,26.14,.79,7.49,.34,15.23,.69,22.8,.78,2.18,.03,4.38-.04,6.5-.1h.33c2.26-.08,4.09-.12,5.75-.12h.36c-.06-4.96,.03-10.21,.11-14.46,.07-3.77,.12-6.93,.12-10.02-3.3-.15-6.62-.17-9.45-.17l-8.24,.02c-2.48,0-4.97,0-7.45-.02h-2.62c-3.82-.02-7.67-.03-11.54-.03-10.18,0-22.16,.05-34.05,.43,.01,4.46,.17,8.88,.33,13.15,.12,3.2,.23,6.56,.29,9.98,3.34-.15,6.82-.23,10.62-.23Z"/></g><g><path class="cls-1" d="M169.5,88.91c0,3.38-.06,6.87-.12,10.56-.09,4.96-.18,10.06-.1,15-2.24-.02-4.48,.03-6.65,.1-2.24,.07-4.55,.14-6.85,.11-7.58-.08-15.32-.44-22.81-.78-12.29-.56-24.98-1.13-37.27-.54-.05-3.54-.17-7.07-.3-10.49-.16-4.46-.33-9.07-.33-13.73,0,0,0-.01,0-.02,15.22-.5,30.93-.47,46.14-.44,4.15,.01,8.33,.03,12.47,.02h3.1c4.2-.02,8.53-.03,12.74,.19Z"/><path class="cls-4" d="M156.79,115.24c-.34,0-.69,0-1.03,0-7.58-.08-15.33-.44-22.82-.78-8.54-.39-17.36-.79-26.1-.79-4,0-7.64,.08-11.14,.25-.15,0-.29-.05-.4-.15-.11-.1-.17-.24-.17-.39-.05-3.6-.18-7.15-.3-10.48-.16-4.48-.33-9.07-.33-13.71,0-.02,0-.04,0-.06,0-.3,.23-.54,.53-.55,12.07-.4,24.27-.45,34.62-.45,3.87,0,7.72,0,11.54,.02h2.62c2.48,.02,4.97,.02,7.44,.02l8.24-.02c3,0,6.54,.02,10.03,.2,.29,.01,.52,.26,.52,.55,0,3.27-.05,6.58-.12,10.57-.08,4.4-.18,9.87-.1,14.98,0,.15-.06,.29-.16,.39-.1,.11-.25,.17-.39,.16h-.91c-1.65,0-3.47,.03-5.72,.1h-.33c-1.8,.06-3.67,.12-5.52,.12Zm-49.95-2.67c8.76,0,17.59,.4,26.14,.79,7.49,.34,15.23,.69,22.8,.78,2.18,.03,4.38-.04,6.5-.1h.32c2.26-.08,4.09-.12,5.75-.12h.36c-.06-4.96,.03-10.21,.11-14.46,.07-3.77,.12-6.93,.12-10.02-3.3-.15-6.62-.17-9.45-.17l-8.24,.02c-2.48,0-4.97,0-7.45-.02h-2.62c-3.82-.02-7.67-.03-11.54-.03-10.18,0-22.16,.05-34.05,.43,.01,4.46,.17,8.88,.33,13.15,.12,3.2,.23,6.56,.29,9.98,3.34-.15,6.82-.23,10.62-.23Z"/></g><g><path class="cls-5" d="M110.48,212.51c.27,5.84,.56,11.87-1.06,16.84-3.26-2.2-5.65-5.27-6.46-8.35-.06-.24-.26-.42-.5-.47-.24-.05-.49,.04-.64,.24-1.12,1.45-2.01,2.65-2.79,3.91-1.05,1.7-2.05,3.07-2.71,3.07h-.03c-.31,0-1.02-.22-2.25-2.93-1.81-3.98-1.38-13.61-1.16-18.32,3.78,.08,7.59,.29,11.36,.44,2,.09,4.03,.19,6.05,.27,.03,1.7,.09,3.46,.18,5.3Z"/><path class="cls-4" d="M109.42,229.9c-.11,0-.21-.03-.31-.09-3.41-2.29-5.84-5.45-6.68-8.67l-.1-.07c-1.22,1.53-2.08,2.69-2.83,3.91-1.5,2.43-2.36,3.33-3.18,3.33-.62,0-1.46-.37-2.78-3.25-1.87-4.11-1.42-13.88-1.21-18.58,.01-.3,.28-.54,.56-.52,2.72,.06,5.49,.18,8.16,.3,1.07,.05,2.14,.1,3.21,.14l2.1,.1c1.31,.06,2.63,.12,3.95,.17,.29,0,.53,.25,.53,.54,.02,1.47,.08,3.1,.18,5.28,.28,5.89,.56,11.97-1.08,17.03-.05,.16-.18,.29-.34,.35-.06,.02-.12,.03-.18,.03Zm-7.08-9.93c.08,0,.16,0,.24,.03,.44,.09,.8,.43,.92,.86,.71,2.73,2.79,5.53,5.62,7.61,1.34-4.74,1.07-10.41,.81-15.91-.09-1.95-.15-3.46-.17-4.81-1.15-.04-2.3-.1-3.44-.15l-2.09-.1c-1.07-.04-2.14-.09-3.21-.14-2.49-.11-5.07-.23-7.6-.29-.21,4.78-.55,13.82,1.14,17.54,1.17,2.58,1.74,2.61,1.75,2.61,.15-.02,.69-.27,2.27-2.81,.78-1.26,1.66-2.45,2.83-3.96,.22-.29,.57-.47,.94-.47Z"/></g><g><path class="cls-5" d="M104.53,54.83c2.19,1.66,2.94,4.11,2.13,6.89-.04,.15-.02,.3,.03,.43-5.29-.08-10.68-.2-15.97-.54-.74-4.2,1.1-6.35,2.8-7.4,3.09-1.91,8.02-1.64,11,.63Z"/><path class="cls-4" d="M106.72,62.7s-.02,0-.02,0h0c-5.14-.08-10.64-.2-16-.54-.25-.02-.46-.2-.5-.45-.8-4.52,1.22-6.83,3.05-7.96,1.41-.87,3.25-1.35,5.18-1.35,2.41,0,4.76,.73,6.44,2.01,2.38,1.81,3.21,4.46,2.33,7.47,.05,.08,.08,.18,.08,.28,0,.3-.25,.55-.55,.55Zm-15.52-1.61c5,.31,10.11,.43,14.93,.51v-.02c.75-2.55,.06-4.79-1.93-6.3-1.5-1.14-3.6-1.79-5.78-1.79-1.73,0-3.37,.42-4.6,1.19-1.49,.92-3.11,2.78-2.62,6.42Z"/></g></g></svg>