<?xml version="1.0" encoding="UTF-8"?><svg id="_ëîé_1" xmlns="http://www.w3.org/2000/svg" viewBox="0 0 250 250"><defs><style>.cls-1{fill:#fff;}.cls-2{fill:#5986c6;}.cls-3{fill:#282828;}.cls-4{fill:#f2ab55;}.cls-5{fill:#f45353;}.cls-6{fill:#77aae8;}</style></defs><g id="calculator"><path class="cls-1" d="M213.98,181.02l-.09-.85c0-.5-.04-1-.1-1.49-.67-5.84-1.59-11.85-2.32-16.67l-.05-.3c-.69-4.55-1.41-9.26-1.95-13.8-2.15-17.7-3.44-34.82-4.8-52.95l-.4-5.3c-.67-8.86-2.23-17.77-3.74-26.39l-.02-.14c-1.81-10.34-3.68-21.04-3.61-30.16,.02-3.96-1.57-7.84-4.35-10.65-2.81-2.83-6.55-4.39-10.52-4.39-.92,0-1.84,.09-2.74,.27-8.04,1.01-15.91,1.68-24.04,2.05-12.21,.56-24.52,1.46-36.43,2.34l-1.2,.09c-16.69,1.22-33.92,2.49-50.55,2.79-.91-.17-1.84-.26-2.78-.26-4.63,0-9.06,2.19-11.9,5.91-1.32,1.76-3.18,3.9-4.98,5.98-2.76,3.19-5.6,6.48-7.96,9.85-2.8,2.86-4.4,6.79-4.27,10.89-.01,1.02,.08,2.03,.28,3.03,.92,8.98,1.38,18.27,1.83,27.28,.42,8.42,.85,17.14,1.65,25.98,.84,9.2,1.91,18.56,2.94,27.64l.07,.64c1.26,11.01,2.56,22.4,3.46,33.58,.79,9.74,1.86,19.43,3.49,31.42,.06,.45,.14,.9,.25,1.34,.16,1.72,.53,3.97,1.18,7.4-.01,.24-.02,.48-.02,.73-.15,8.08,6.27,14.85,14.47,15.14,1.68,.04,3.35,.07,5.02,.07,12.76,0,25.1-1.21,37.05-2.39,2.85-.28,5.7-.56,8.55-.83,13.96-1.29,28.75-2.18,45.23-2.73,5.4-.18,10.91-.21,16.23-.24h.59c1.39,0,2.77-.02,4.16-.03,3.24,.63,6.76,.13,9.72-1.4,2.98-1.38,5.4-3.71,6.91-6.56,1.5-1.74,3.27-3.58,5-5.38,2.58-2.69,5.24-5.47,7.59-8.44,2.47-2.66,3.89-6.13,3.97-9.86,.08-4.86-.38-9.12-.83-13.2Z"/><g><path class="cls-6" d="M110.79,176.18c.48,3.21,.93,6.25,1.05,9.52-2.1,.16-4.29,.28-6.6,.38-4.16,.2-8.45,.41-12.41,1.01-1.47-7.23-1.99-13-1.68-18.56,1.88-.15,3.72-.35,5.5-.55,4.35-.49,8.46-.95,13.1-.61,.19,3.07,.62,5.98,1.04,8.8Z"/><path class="cls-3" d="M92.83,187.76c-.31,0-.59-.22-.65-.53-1.49-7.31-2.01-13.08-1.69-18.73,.02-.33,.28-.6,.61-.62,1.84-.14,3.64-.34,5.48-.54,3.19-.36,6.49-.73,9.93-.73,1.13,0,2.21,.04,3.29,.12,.33,.02,.59,.29,.62,.62,.19,3.05,.62,5.95,1.03,8.74,.46,3.07,.93,6.25,1.06,9.59,.01,.36-.26,.66-.61,.69-2.16,.17-4.45,.28-6.62,.39-3.92,.19-8.37,.4-12.34,1-.03,0-.07,0-.1,0Zm-1.04-18.61c-.24,5.19,.25,10.54,1.57,17.2,3.88-.54,8.1-.75,11.85-.93,1.94-.09,3.99-.19,5.94-.34-.16-3.04-.59-5.97-1.02-8.81-.39-2.65-.8-5.38-1-8.27-.86-.05-1.72-.07-2.62-.07-3.37,0-6.63,.37-9.79,.72-1.65,.19-3.28,.36-4.94,.5Z"/></g><g><path class="cls-6" d="M146.39,175.07c.34,2.18,.69,4.43,.91,6.76-2.31,.4-4.69,.69-7.01,.96-3.75,.44-7.61,.9-11.26,1.87-.46-4.15-1.15-8.16-1.88-12.39-.33-1.94-.66-3.9-.98-5.88,2.37-.15,4.76-.49,7.26-.85,3.84-.55,7.8-1.11,11.82-.94,.08,3.74,.61,7.16,1.14,10.47Z"/><path class="cls-3" d="M129.04,185.32c-.13,0-.26-.04-.37-.12-.16-.11-.26-.28-.29-.47-.46-4.16-1.15-8.14-1.87-12.35-.33-1.94-.66-3.9-.98-5.89-.03-.19,.02-.37,.14-.52s.29-.24,.48-.25c2.32-.15,4.66-.48,7.13-.83,3.72-.54,7.87-1.14,12.01-.96,.35,.02,.63,.3,.64,.65,.08,3.75,.63,7.28,1.13,10.38,.3,1.94,.68,4.36,.92,6.8,.03,.35-.21,.66-.55,.72-2.32,.4-4.75,.7-7.05,.96-3.73,.44-7.57,.89-11.16,1.85-.06,.01-.11,.02-.17,.02Zm-2.08-18.32c.28,1.73,.57,3.45,.86,5.15,.68,3.98,1.33,7.75,1.8,11.67,3.46-.85,7.08-1.28,10.59-1.69,2.09-.24,4.28-.51,6.38-.85-.23-2.19-.57-4.34-.85-6.1-.47-2.98-1-6.33-1.13-9.93-3.82-.08-7.68,.47-11.07,.96-2.31,.33-4.45,.64-6.58,.8Z"/></g><g><path class="cls-6" d="M141.71,142.88c.3,2.45,.61,4.98,.74,7.37-3.57,.66-7.54,.91-11.38,1.15-2.09,.13-4.25,.27-6.35,.47-.27-2.53-.64-5.09-1.02-7.58-.51-3.38-1.03-6.88-1.28-10.4,6.02-.92,12.23-1.81,18.5-1.23-.07,3.16,.37,6.75,.79,10.23Z"/><path class="cls-3" d="M124.71,152.52c-.34,0-.62-.25-.66-.59-.28-2.63-.67-5.28-1.02-7.55-.51-3.38-1.03-6.88-1.29-10.46-.02-.35,.22-.65,.56-.7,5.1-.78,9.71-1.42,14.43-1.42,1.46,0,2.88,.06,4.24,.19,.35,.03,.61,.33,.6,.68-.07,3.12,.36,6.69,.79,10.13,.27,2.19,.6,4.92,.74,7.41,.02,.33-.21,.63-.54,.69-3.63,.67-7.61,.92-11.46,1.16-2.12,.13-4.25,.27-6.33,.46-.02,0-.04,0-.06,0Zm-1.59-18.08c.26,3.32,.75,6.58,1.23,9.74,.32,2.1,.68,4.51,.96,6.96,1.89-.17,3.8-.29,5.66-.4,3.66-.23,7.38-.46,10.78-1.04-.15-2.29-.45-4.74-.7-6.73-.4-3.27-.81-6.64-.8-9.7-1.13-.09-2.3-.13-3.5-.13-4.44,0-8.81,.59-13.62,1.31Z"/></g><g><path class="cls-6" d="M108.14,144.57c.27,2.66,.54,5.41,.62,8.27-3.42-.13-6.7,.4-9.88,.92-2.77,.46-5.63,.92-8.62,.96-1.16-6.18-1.81-12.45-1.88-18.24,4.55-.04,8.83-.65,12.98-1.24,2.11-.31,4.12-.59,6.15-.81-.03,3.55,.3,6.89,.63,10.14Z"/><path class="cls-3" d="M90.26,155.38c-.32,0-.59-.23-.65-.54-1.17-6.23-1.82-12.57-1.89-18.35,0-.18,.07-.35,.19-.47,.12-.13,.29-.2,.47-.2,4.51-.04,8.77-.65,12.89-1.24,1.97-.28,4.07-.58,6.17-.81,.19-.02,.38,.04,.52,.17,.14,.13,.22,.31,.22,.5-.03,3.51,.3,6.84,.63,10.07,.25,2.48,.53,5.28,.62,8.14,.02,.06,.03,.13,.03,.2,0,.37-.34,.66-.68,.66-.01,0-.02,0-.04,0-3.39-.13-6.63,.4-9.74,.91-2.64,.43-5.62,.93-8.71,.97h0Zm-1.21-18.25c.11,5.35,.71,11.17,1.76,16.91,2.79-.09,5.53-.54,7.96-.94,2.82-.46,6.02-.98,9.3-.94-.1-2.64-.36-5.22-.59-7.52-.3-3.03-.62-6.16-.63-9.47-1.84,.21-3.66,.47-5.39,.72-3.96,.57-8.05,1.15-12.4,1.24Z"/></g><g><path class="cls-6" d="M107.24,120.85c.01,.09,.04,.17,.07,.24-3.45,.18-6.79,.46-10.02,.74-3.12,.27-6.35,.54-9.64,.72-.23-1.99-.55-3.93-.86-5.81-.55-3.33-1.06-6.49-1.18-10,2.82-.17,5.55-.52,8.2-.86,3.81-.49,7.75-.99,11.86-.93-.08,4.59,.52,8.74,1.16,13.11,.13,.92,.27,1.85,.4,2.78Z"/><path class="cls-3" d="M87.65,123.21c-.33,0-.62-.25-.66-.59-.23-1.99-.55-3.94-.85-5.77-.52-3.2-1.06-6.5-1.18-10.09-.01-.36,.26-.66,.62-.68,2.86-.17,5.67-.53,8.15-.86,3.61-.46,7.32-.94,11.2-.94h.76c.18,0,.34,.08,.47,.21,.12,.13,.19,.3,.19,.47-.08,4.6,.55,8.87,1.15,13.01l.07,.5c.11,.76,.22,1.52,.33,2.29,.09,.2,.09,.46-.03,.65-.11,.19-.3,.34-.52,.35-3.33,.17-6.5,.43-10,.73-3.4,.29-6.48,.55-9.66,.72-.01,0-.02,0-.04,0Zm-1.34-15.85c.15,3.24,.63,6.18,1.14,9.27,.27,1.66,.56,3.41,.78,5.21,2.95-.17,5.83-.41,9-.68,3.25-.28,6.21-.52,9.28-.7-.09-.6-.17-1.21-.26-1.81l-.07-.5c-.58-3.99-1.19-8.1-1.17-12.55h-.08c-3.79,0-7.46,.47-11,.92-2.34,.3-4.94,.64-7.62,.83Z"/></g><g><path class="cls-6" d="M139.09,102.77c.05,5.1,.11,10.36,1.39,14.88-5.82,1.45-12.05,1.71-18.46,1.83-.29-4.81-1.14-9.06-2.05-13.55-.16-.83-.34-1.67-.5-2.51,4.31-.07,8.41-.63,12.39-1.18,2.35-.33,4.77-.66,7.2-.88l.02,1.43Z"/><path class="cls-3" d="M122.02,120.14c-.35,0-.64-.27-.66-.62-.29-4.82-1.18-9.22-2.04-13.46l-.5-2.52c-.04-.19,.01-.39,.14-.54,.12-.15,.31-.24,.5-.25,4.28-.07,8.36-.63,12.31-1.18,2.31-.32,4.77-.66,7.23-.89,.19-.02,.37,.04,.51,.17,.14,.12,.22,.3,.22,.48l.02,1.43c.05,5.04,.1,10.24,1.37,14.71,.05,.17,.03,.36-.06,.51-.09,.16-.24,.27-.41,.31-6.02,1.5-12.49,1.74-18.61,1.85h-.01Zm-1.74-16.09l.34,1.74c.83,4.1,1.68,8.34,2.02,13.01,5.63-.11,11.53-.36,17.02-1.64-1.14-4.47-1.19-9.51-1.24-14.38v-.7c-2.2,.22-4.39,.52-6.46,.81-3.75,.52-7.61,1.05-11.68,1.17Z"/></g><g><path class="cls-6" d="M174.52,131.25c3.51,12.4,5.59,31.11,5.34,48.06-5.47,2.27-12.29,2.27-18.38,2.02-4.07-11.85-6.09-35.22-6.04-48.18,4.73-1.44,10.66-1.63,15.93-1.79,1.1-.04,2.16-.07,3.15-.11Z"/><path class="cls-3" d="M166.11,182.1c-1.37,0-2.85-.03-4.66-.11-.27-.01-.51-.19-.6-.45-4.23-12.32-6.13-36.17-6.08-48.4,0-.29,.19-.55,.47-.63,4.85-1.48,10.83-1.66,16.1-1.82l.88-.03c.78-.03,1.54-.05,2.26-.08,.32-.02,.59,.19,.67,.48,3.51,12.41,5.62,31.35,5.36,48.25,0,.27-.16,.5-.41,.6-3.59,1.49-8.04,2.18-14.01,2.18Zm-4.15-1.42c1.59,.06,2.91,.09,4.15,.09,5.56,0,9.74-.61,13.09-1.92,.21-16.44-1.81-34.73-5.18-46.92-.57,.02-1.15,.04-1.75,.06l-.88,.03c-5.02,.15-10.69,.32-15.29,1.62,0,12.14,1.84,34.91,5.86,47.04Z"/></g><g><path class="cls-5" d="M173.79,109.93c.19,1.92,.39,3.9,.49,5.86-2.1,.07-4.31,.05-6.45,.01-4.72-.06-9.59-.13-14.1,.79-1.27-4.34-1.59-9.55-1.9-14.6l-.05-.76c3.67-.11,7.11-.6,10.45-1.07,3.55-.51,7.25-.99,11.08-1.06-.23,3.68,.13,7.32,.49,10.83Z"/><path class="cls-3" d="M153.72,117.26c-.29,0-.55-.19-.64-.48-1.29-4.4-1.61-9.64-1.93-14.71l-.05-.8c-.01-.18,.05-.36,.17-.49,.12-.13,.29-.21,.47-.22,3.65-.11,7.07-.6,10.38-1.07,3.52-.5,7.29-1,11.16-1.06,.21,.01,.36,.07,.49,.2,.13,.13,.19,.32,.18,.5-.23,3.71,.15,7.44,.49,10.72,.18,1.82,.39,3.88,.49,5.89,0,.18-.05,.35-.18,.48-.12,.13-.29,.21-.47,.21-2.11,.07-4.33,.05-6.49,.01-1.25-.02-2.46-.03-3.66-.03-3.13,0-6.8,.1-10.29,.81-.04,0-.09,.01-.13,.01Zm-1.25-15.39v.08c.3,4.8,.61,9.73,1.72,13.87,3.41-.63,6.93-.71,9.95-.71,1.21,0,2.42,.02,3.62,.03,2.01,.03,3.92,.05,5.81,0-.11-1.77-.29-3.55-.45-5.15-.32-3.13-.68-6.65-.53-10.22-3.55,.11-7.02,.57-10.29,1.03-3.13,.45-6.37,.91-9.84,1.06Z"/></g><g><path class="cls-6" d="M174.09,195.83c7.72-.63,15.93-1.26,24.13-1.24-1.84,2.29-4.07,4.62-6.42,7.06-2.61,2.72-5.3,5.53-7.52,8.4-2.29,.02-4.57,.04-6.86,.05-5.65,.03-11.5,.06-17.29,.25-16.85,.56-31.95,1.47-46.15,2.79-2.89,.27-5.77,.55-8.65,.83-12.57,1.24-25.55,2.52-38.61,2.28,2.59-3.79,7.83-10.94,13.29-15.38,.01-.01,.03-.02,.04-.03,2.99,.3,6.03,.43,9.08,.43,6.99,0,14.08-.64,21-1.26,4.73-.43,9.62-.87,14.3-1.09,17.85-.81,34.57-1.85,49.67-3.08Z"/><path class="cls-3" d="M69.93,216.94c-1.08,0-2.16-.01-3.23-.03-.24,0-.47-.14-.58-.36-.11-.22-.1-.48,.04-.68,2.65-3.87,7.91-11.04,13.42-15.52,.14-.15,.32-.2,.52-.18,2.84,.28,5.79,.42,9.01,.42,7,0,14.09-.64,20.94-1.26l.25-.02c4.65-.42,9.46-.85,14.07-1.07,17.8-.81,34.51-1.85,49.65-3.08,8.07-.66,15.97-1.24,23.92-1.24h.26c.26,0,.49,.15,.6,.38,.11,.23,.08,.5-.08,.7-1.86,2.31-4.09,4.64-6.45,7.1-2.32,2.41-5.2,5.41-7.48,8.35-.12,.16-.32,.26-.52,.26-2.29,.02-4.58,.04-6.87,.05-5.63,.03-11.45,.06-17.27,.25-16.83,.56-31.91,1.47-46.11,2.78-2.89,.27-5.77,.55-8.64,.83-11.52,1.14-23.44,2.31-35.45,2.31Zm-1.97-1.34c12.6,.13,25.17-1.1,37.29-2.3,2.88-.28,5.76-.56,8.65-.83,14.23-1.32,29.33-2.23,46.19-2.79,5.84-.19,11.67-.22,17.31-.25,2.18-.01,4.36-.03,6.54-.04,2.29-2.91,5.1-5.83,7.37-8.2,1.97-2.06,3.85-4.02,5.48-5.93-7.51,.05-15.01,.61-22.66,1.24-15.16,1.23-31.88,2.27-49.7,3.08-4.58,.21-9.38,.64-14.02,1.06l-.25,.02c-6.88,.62-14,1.26-21.06,1.26-3.16,0-6.06-.13-8.87-.4-4.86,4.01-9.54,10.17-12.28,14.08Z"/></g><g><path class="cls-6" d="M76.42,179.98c.48,6.75,.93,13.12,2.04,19.76-4.96,4.14-9.66,10.3-12.44,14.25-.78-4.11-1.18-6.72-1.18-7.36,.07-.22,.06-.48-.04-.7-.06-.12-.14-.22-.25-.31,.03-.11,.04-.22,.02-.34-1.59-11.74-2.64-21.17-3.4-30.57-.92-11.36-2.24-22.96-3.52-34.17-1.04-9.16-2.13-18.64-2.97-27.87-.77-8.46-1.2-17.04-1.61-25.33-.48-9.61-.97-19.54-2.01-29.25,1.84-3.2,5.12-6.99,8.29-10.66,1.63-1.88,3.19-3.68,4.56-5.41,2.45,14.49,3.17,30.35,3.87,45.71,.32,7.13,.62,13.86,1.09,20.5,.82,11.63,2.28,23.44,3.71,34.86,1.12,9.04,2.28,18.38,3.13,27.62,.28,3.13,.5,6.21,.71,9.26Z"/><path class="cls-3" d="M66.02,214.65s-.09,0-.14-.01c-.26-.06-.46-.26-.51-.53-.73-3.84-1.19-6.71-1.19-7.48,0-.07,.01-.14,.03-.21,.02-.07,.02-.14-.01-.2-.2-.16-.36-.51-.29-.75-1.59-11.84-2.64-21.28-3.39-30.69-.92-11.34-2.24-22.92-3.51-34.11l-.06-.53c-1.03-9.01-2.09-18.32-2.91-27.38-.78-8.49-1.2-17.07-1.61-25.36v-.15c-.48-9.55-.98-19.43-2.01-29.07-.01-.14,.01-.28,.08-.4,1.88-3.27,5.18-7.08,8.37-10.77l.13-.15c1.59-1.83,3.08-3.57,4.41-5.24,.16-.21,.43-.3,.69-.23,.25,.07,.44,.27,.49,.53,2.46,14.59,3.18,30.46,3.87,45.79l.03,.64c.31,6.9,.61,13.41,1.06,19.84,.82,11.68,2.29,23.45,3.7,34.83,1.12,9.01,2.28,18.34,3.13,27.64,.27,2.98,.48,5.93,.68,8.84l.03,.43c.47,6.72,.92,13.06,2.03,19.7,.04,.23-.05,.47-.23,.62-4.79,4-9.34,9.89-12.32,14.12-.13,.18-.33,.28-.54,.28Zm-.51-7.95c.03,.6,.31,2.52,.88,5.62,2.93-4.06,7.03-9.17,11.35-12.86-1.08-6.56-1.52-12.83-1.99-19.45l-.03-.43c-.21-2.91-.41-5.84-.68-8.82-.85-9.28-2-18.59-3.12-27.6-1.42-11.4-2.89-23.18-3.71-34.9-.45-6.45-.75-12.97-1.06-19.88l-.03-.64c-.67-14.79-1.36-30.07-3.62-44.18-1.1,1.33-2.28,2.7-3.51,4.13l-.13,.15c-3.09,3.57-6.28,7.26-8.11,10.37,1.02,9.61,1.51,19.43,1.99,28.92v.15c.42,8.28,.84,16.85,1.62,25.31,.83,9.05,1.89,18.36,2.91,27.35l.06,.5c1.28,11.24,2.6,22.83,3.52,34.19,.75,9.38,1.8,18.8,3.39,30.53,.01,.06,.02,.13,.02,.2,.06,.08,.11,.16,.15,.24,.16,.33,.2,.72,.12,1.07Z"/></g><g><path class="cls-2" d="M81.58,94.76s.03,0,.05,0c.08,0,.17-.02,.24-.04,12.57-1.19,25.13-1.84,37.28-2.46,11.85-.61,24.11-1.24,36.4-2.37,2.54-.23,5.05-.63,7.48-1.01,3.34-.52,6.78-1.06,10.3-1.19,.17,.17,.4,.28,.66,.28h.06c.26-.01,.48-.13,.64-.32,.48-.04,.85-.44,.85-.92,0-.43-.29-.78-.69-.89l-.11-1.83c-.69-11.35-1.35-22.07-2.92-32.95-.07-.51-.54-.87-1.05-.78-.23,.03-.42,.15-.57,.31-4.2,.06-8.42,.44-12.51,.81-1.59,.15-3.17,.29-4.76,.41-6.34,.5-12.71,.96-19.09,1.41-17.86,1.27-36.32,2.53-54.1,4.97-.17-.16-.39-.31-.64-.31h0c-.51,0-.92,.48-.92,.98,.04,6.92,.71,14.13,1.37,21.07,.43,4.62,.84,9.02,1.07,13.25-.18,.19-.29,.46-.27,.74,.05,.48,.45,.84,.92,.84,.03,0,.06,0,.09,0,.03,0,.06,0,.1,0,.04,0,.08,.01,.12,.01Zm5.56,29.67h.05c3.52-.18,6.95-.47,10.26-.75,3.56-.3,7.24-.62,11.06-.79,.51-.02,.9-.46,.88-.97-.01-.31-.18-.59-.42-.75,.09-.17,.13-.36,.1-.57-.13-.94-.27-1.87-.4-2.8-.65-4.49-1.28-8.74-1.13-13.42,0-.34-.17-.65-.44-.81-.16-.26-.44-.44-.76-.45-4.48-.12-8.68,.41-12.74,.93-3.1,.4-6.29,.82-9.56,.92-.51,.02-.91,.45-.9,.96,.01,.4,.28,.73,.64,.85,.12,3.66,.66,7.02,1.2,10.27,.35,2.12,.71,4.31,.94,6.56,.05,.47,.45,.83,.92,.83,.04,0,.06,0,.1,0,.02,0,.03,0,.05-.01,.05,0,.1,.01,.16,.01Zm111.88,68.3c-8.54-.02-17.07,.6-25.08,1.25-15.08,1.23-31.78,2.26-49.61,3.08-4.72,.22-9.63,.66-14.38,1.09-9.87,.89-20.06,1.81-29.74,.84-1.04-6.4-1.49-12.59-1.95-19.14-.21-3.06-.43-6.16-.72-9.3-.84-9.26-2-18.62-3.13-27.68-1.42-11.4-2.88-23.18-3.7-34.77-.46-6.62-.77-13.34-1.09-20.45-.7-15.57-1.44-31.65-3.96-46.37,17.68-.26,35.8-1.58,53.34-2.87,12.11-.89,24.64-1.81,36.95-2.37,8.68-.4,16.91-1.09,25.14-2.12,.05,10.19,1.97,21.23,3.84,31.92,1.45,8.3,2.95,16.87,3.57,25l.4,5.3c1.38,18.34,2.68,35.67,4.87,53.67,.59,4.86,1.34,9.8,2.07,14.57,.67,4.45,1.36,9.02,1.93,13.56v.03c.14,1.61,.31,3.18,.49,4.74,.37,3.38,.73,6.58,.75,10.01Zm-17.31-12.96c.31-17.55-1.89-37.07-5.6-49.72-.13-.45-.57-.72-1.02-.66-.07-.01-.15-.02-.22-.01-1.11,.05-2.31,.09-3.56,.13-5.35,.17-12.01,.37-17.09,2.08-.01,0-.02,0-.03,.01-.04,.01-.07,.03-.1,.04-.02,.01-.05,.02-.07,.04-.03,.02-.05,.03-.07,.05-.03,.02-.05,.04-.07,.06-.02,.02-.04,.04-.06,.06-.02,.02-.04,.04-.06,.07-.02,.03-.03,.05-.05,.08-.01,.02-.03,.05-.04,.08-.02,.03-.02,.06-.03,.09-.01,.03-.02,.05-.03,.08,0,.03-.01,.06-.01,.08,0,.03-.01,.06-.01,.1,0,.01,0,.02,0,.03-.13,13,1.95,37.44,6.19,49.65,0,.03-.01,.05-.01,.08-.02,.51,.37,.95,.89,.97,1.78,.08,3.62,.15,5.49,.15,5.04,0,10.25-.47,14.69-2.38,.18-.08,.33-.21,.43-.37,.26-.16,.44-.44,.44-.77Zm-5.88-62.99c.2-.18,.33-.44,.32-.73-.1-2.12-.31-4.24-.52-6.3-.4-3.93-.77-7.64-.42-11.5,.05-.51-.33-.96-.84-1.01-.08,0-.16,0-.23,.02-.05-.01-.1-.02-.16-.02-4.27-.01-8.21,.55-12.03,1.09-3.47,.5-7.06,1.01-10.86,1.07-.33,0-.62,.19-.78,.45-.28,.17-.46,.49-.44,.84l.09,1.41c.33,5.34,.67,10.85,2.11,15.5,.07,.23,.22,.4,.41,.51,.17,.28,.46,.44,.79,.44,.07,0,.14,0,.21-.02,4.47-1.01,9.47-.94,14.31-.87,2.37,.03,4.82,.07,7.16-.03,.47-.02,.85-.4,.88-.85Zm-26.71,66.54c.32-.2,.51-.58,.43-.97-.05-.25-.19-.46-.39-.6-.23-2.42-.58-4.74-.94-6.97-.58-3.68-1.13-7.18-1.13-11.13,0-.51-.41-.96-.93-.96-.11,0-.21,.05-.31,.09-.08-.03-.17-.04-.26-.04-4.27-.23-8.41,.38-12.42,.96-3.01,.43-5.86,.85-8.66,.9-.51,.01-.92,.44-.91,.95,.01,.42,.31,.78,.7,.88,.33,2.07,.68,4.12,1.02,6.15,.75,4.36,1.46,8.48,1.91,12.74-.21,.23-.3,.57-.2,.89,.12,.4,.49,.65,.89,.65,.05,0,.1,0,.15-.01,.05,0,.1,.01,.15,.01,.04,0,.06,0,.09,0,.2-.02,.37-.1,.51-.22,3.71-1.06,7.75-1.55,11.66-2,2.42-.29,4.91-.58,7.32-1.02,.15,.1,.32,.16,.5,.16,.03,0,.05,0,.07,0,.31-.02,.57-.2,.72-.45Zm-4.87-32.62c.04-.11,.06-.23,.06-.36-.13-2.51-.46-5.15-.77-7.69-.44-3.62-.86-7.05-.78-10.11,.16-.14,.28-.35,.3-.58,.06-.51-.3-.97-.81-1.03-7.16-.88-14.12,.19-20.86,1.22l.02,.32s-.02,0-.03,0c-.51,.03-.9,.47-.87,.98,.24,3.79,.8,7.51,1.34,11.1,.45,3,.88,5.83,1.14,8.7,.04,.48,.45,.84,.92,.84,.03,0,.05,0,.08,0,.28-.02,.51-.17,.66-.37,2.14-.21,4.36-.35,6.52-.48,4.18-.26,8.5-.53,12.39-1.32,.5-.1,.83-.59,.72-1.1,0-.04-.02-.08-.04-.12Zm-2.17-31.63c.49-.14,.78-.62,.64-1.11-.06-.22-.19-.37-.36-.49-1.31-4.35-1.37-9.63-1.42-14.73l-.03-2.44v-.03s0-.02,0-.03c0-.01,0-.02,0-.04-.06-.46-.4-.85-.94-.81-.01,0-.02,0-.03,0,0,0-.02,0-.02,0-2.82,.23-5.6,.62-8.3,.99-4.35,.6-8.84,1.22-13.56,1.17-.53-.08-.93,.4-.94,.92,0,.34,.17,.64,.44,.8,.2,1.01,.4,2.02,.6,3.01,.93,4.6,1.8,8.95,2.05,13.86,.01,.32,.19,.53,.45,.68,.16,.27,.46,.38,.79,.38h.02c7.15,0,14.11-.32,20.63-2.14Zm-29.22,68.39c.51-.05,.89-.49,.84-1.01,0-.02,0-.04,0-.06,0-.06,.02-.12,.02-.19-.09-3.59-.6-7-1.09-10.31-.45-3.04-.92-6.19-1.07-9.49-.02-.51-.46-.94-.97-.88-.09,0-.18,.03-.26,.06-.08-.03-.16-.05-.24-.06-4.89-.37-9.34,.13-13.64,.61-2.12,.24-4.32,.48-6.57,.63-.51,.03-.9,.48-.87,.99,.01,.25,.13,.47,.3,.63-.34,5.95,.24,12.1,1.88,19.9,.09,.44,.48,.74,.91,.74,.05,0,.1,0,.14-.01,.05,.01,.11,.01,.17,.01,.05,0,.1,0,.15-.01,4.01-.65,8.47-.87,12.79-1.07,2.64-.12,5.14-.25,7.54-.46Zm-3.16-32.7c.51,0,.92-.45,.92-.96-.03-3.29-.34-6.41-.64-9.42-.37-3.64-.71-7.09-.6-10.88,0-.07,.01-.14,0-.21h0c0-.07,0-.13,0-.19,.02-.51-.38-.94-.89-.96-.33,0-.61,.14-.78,.38-2.23,.23-4.46,.54-6.62,.86-4.24,.61-8.62,1.24-13.23,1.24-.14,0-.26,0-.42,0-.51,0-.92,.41-.93,.92,0,.12,.02,.22,.06,.32-.04,.1-.06,.2-.06,.31,.05,6.42,.81,13.43,2.18,20.27,.09,.44,.48,.74,.91,.74,.06,0,.12,0,.18-.02,.34-.07,.59-.31,.69-.61,3.05-.06,5.91-.52,8.7-.97,3.44-.57,6.7-1.09,10.15-.87,.09,0,.17,.03,.25,.01,.04,0,.08,.04,.12,.04h.01Z"/><path class="cls-3" d="M89.14,200.07c-3.24,0-6.19-.14-8.99-.42-.3-.03-.54-.26-.59-.55-1.06-6.49-1.51-12.95-1.95-19.2-.21-2.97-.43-6.13-.72-9.29-.85-9.37-2.06-19.08-3.13-27.65-1.43-11.49-2.89-23.24-3.7-34.8-.46-6.53-.76-13.16-1.07-20.17v-.3c-.72-15.53-1.44-31.59-3.97-46.29-.03-.19,.02-.39,.14-.54,.12-.15,.31-.24,.5-.24,17.69-.26,35.79-1.58,53.3-2.87,11.47-.84,24.46-1.8,36.97-2.37,8.65-.39,16.85-1.09,25.09-2.12,.19-.02,.38,.04,.52,.16,.14,.12,.22,.31,.23,.49,.05,10.19,1.97,21.18,3.84,31.81,1.46,8.32,2.96,16.91,3.58,25.06l.4,5.3c1.38,18.3,2.68,35.59,4.86,53.64,.61,5.03,1.42,10.31,2.07,14.55,.67,4.42,1.36,8.99,1.94,13.58,.14,1.67,.32,3.23,.49,4.78,.37,3.35,.72,6.5,.75,9.9,.02,.06,.03,.13,.03,.19,0,.37-.3,.66-.66,.66,0,0-.02,0-.03,0h-.5c-8.43,0-16.74,.62-24.53,1.25-15.08,1.23-31.78,2.26-49.63,3.08-4.72,.22-9.61,.66-14.35,1.09-6.82,.62-13.88,1.26-20.87,1.26Zm-8.35-1.69c2.61,.24,5.35,.36,8.35,.36,6.93,0,13.96-.64,20.75-1.25,4.75-.43,9.66-.87,14.41-1.09,17.84-.81,34.52-1.85,49.58-3.07,7.76-.63,16.04-1.24,24.46-1.25-.06-3.14-.39-6.12-.74-9.26-.17-1.57-.35-3.15-.49-4.77-.57-4.58-1.26-9.14-1.93-13.55-.65-4.25-1.46-9.54-2.07-14.59-2.19-18.08-3.49-35.38-4.87-53.7l-.4-5.3c-.61-8.09-2.11-16.64-3.56-24.91-1.83-10.45-3.72-21.22-3.85-31.3-8.02,.98-16.03,1.65-24.45,2.03-12.49,.57-25.47,1.53-36.93,2.37-17.27,1.27-35.12,2.57-52.6,2.86,2.43,14.57,3.15,30.38,3.84,45.69v.3c.33,7,.63,13.62,1.09,20.14,.81,11.52,2.27,23.26,3.68,34.6,1.09,8.71,2.3,18.43,3.15,27.83,.29,3.17,.51,6.34,.72,9.31,.44,6.34,.87,12.33,1.86,18.57Zm11.6-8.69s-.11,0-.17,0c-.85,.09-1.53-.48-1.69-1.25-1.62-7.75-2.21-13.87-1.91-19.81-.17-.24-.27-.52-.29-.82-.03-.41,.11-.82,.39-1.14,.28-.32,.67-.51,1.1-.54,2.24-.14,4.43-.39,6.54-.62,3.25-.36,6.62-.74,10.22-.74,1.21,0,2.4,.04,3.54,.13,.07,0,.13,.02,.19,.03,.07-.02,.15-.03,.24-.03h.01c.93,0,1.62,.68,1.65,1.52,.15,3.27,.62,6.39,1.06,9.41,.5,3.4,1.01,6.8,1.1,10.39,0,.08,0,.15-.01,.21,0,.02,0,.05,0,.06,.04,.36-.09,.78-.36,1.1-.27,.33-.66,.53-1.08,.57-2.37,.21-4.83,.33-7.57,.46-4.29,.21-8.73,.42-12.71,1.07-.08,.02-.19,.02-.26,.02Zm14.19-23.61c-3.53,0-6.86,.37-10.07,.73-2.13,.24-4.33,.49-6.61,.63-.1,0-.16,.06-.18,.09-.03,.03-.07,.09-.06,.19,0,.1,.05,.15,.08,.18,.15,.13,.23,.33,.22,.53-.33,5.9,.24,11.98,1.87,19.73,.03,.12,.13,.21,.26,.21,.08-.01,.19-.02,.27,0,4.14-.66,8.61-.88,12.94-1.09,2.73-.13,5.18-.25,7.52-.46,.1,0,.15-.06,.18-.09,.03-.04,.07-.1,.06-.19,0-.06-.01-.17,0-.23-.09-3.58-.58-6.94-1.06-10.19-.47-3.16-.94-6.32-1.09-9.66,0-.15-.12-.25-.22-.25-.15,.05-.44,.07-.59,.02-1.18-.1-2.31-.14-3.5-.14Zm21.65,21.45s-.1,0-.15,0c-.82,.08-1.46-.4-1.68-1.11-.13-.42-.08-.88,.15-1.26-.45-4.09-1.13-8.08-1.85-12.29l-.03-.15c-.33-1.92-.66-3.85-.97-5.8-.45-.28-.75-.77-.77-1.32-.02-.88,.68-1.61,1.56-1.63,2.73-.05,5.52-.46,8.47-.88l.25-.04c3.98-.57,8.13-1.17,12.41-.94,.06,0,.11,0,.17,.01,.11-.04,.23-.06,.36-.06,.88,0,1.59,.73,1.59,1.63,0,3.94,.57,7.54,1.12,11.03,.34,2.14,.69,4.41,.92,6.75,.21,.22,.35,.49,.4,.8,.12,.59-.12,1.21-.6,1.57-.28,.37-.7,.6-1.16,.63-.28,0-.52-.04-.72-.12-2.41,.42-4.92,.72-7.14,.99-3.63,.42-7.74,.9-11.44,1.95-.22,.16-.48,.25-.75,.28-.02,0-.14,0-.16,0Zm-.15-1.34s.08,0,.11,0h.05c.08,0,.13-.02,.17-.06,.07-.06,.16-.11,.25-.14,3.83-1.1,8.05-1.59,11.77-2.02,2.27-.27,4.85-.57,7.28-1.01,.17-.03,.34,0,.49,.1,.04,.03,.09,.04,.13,.04,.11,0,.18-.06,.23-.13,.05-.09,.13-.17,.22-.22,.08-.05,.14-.15,.12-.27-.02-.1-.07-.15-.11-.18-.16-.11-.27-.29-.29-.48-.23-2.4-.59-4.74-.93-6.93-.56-3.53-1.14-7.19-1.14-11.23,0-.16-.13-.3-.26-.3-.15,.06-.39,.11-.54,.05-.68-.03-1.29-.05-1.9-.05-3.52,0-6.97,.5-10.32,.98l-.14,.02c-3.1,.45-5.93,.85-8.74,.91-.14,0-.26,.13-.26,.27,0,.11,.09,.22,.2,.25,.26,.07,.45,.28,.49,.54,.33,2.07,.68,4.11,1.02,6.14l.03,.15c.74,4.32,1.44,8.4,1.89,12.63,.02,.19-.04,.38-.17,.52-.05,.05-.09,.15-.06,.24,.04,.14,.16,.19,.26,.19,.04,0,.1,0,.15,0Zm38.06-2.22c-1.98,0-3.9-.07-5.52-.15-.42-.01-.81-.2-1.1-.51-.28-.31-.43-.7-.42-1.12-4.23-12.33-6.31-36.76-6.18-49.73,0-.03,0-.07,.01-.11,0-.04,0-.07,0-.09,0-.06,.02-.13,.04-.19,0-.04,.05-.15,.07-.19,0-.02,.03-.08,.06-.14l.09-.15s.08-.11,.1-.14c.04-.05,.14-.16,.2-.2,.01-.01,.17-.13,.19-.14,.02-.01,.14-.08,.16-.08l.36,.57-.24-.62c5.22-1.76,11.93-1.97,17.31-2.14,1.27-.04,2.47-.08,3.58-.13,.07,0,.2,0,.27,0,.05,0,.09,0,.11,0,.71,0,1.33,.46,1.53,1.14,3.73,12.72,5.94,32.31,5.63,49.92,0,.49-.24,.95-.63,1.24-.17,.22-.39,.4-.64,.51-3.87,1.66-8.62,2.44-14.96,2.44Zm-11.9-51.44c-.12,12.94,1.95,37.24,6.16,49.36,.03,.09,.04,.18,.04,.27-.01,.16,.03,.22,.06,.25,.03,.04,.09,.08,.18,.08,1.61,.07,3.52,.15,5.47,.15,6.15,0,10.74-.74,14.43-2.33,.05-.02,.09-.06,.12-.11,.06-.09,.13-.16,.22-.22,.06-.04,.12-.11,.13-.22,.31-17.49-1.88-36.93-5.58-49.53-.04-.14-.16-.19-.25-.19-.06,0-.17,.01-.23,0h-.06v0c-1.15,.05-2.35,.09-3.6,.13-5.33,.16-11.92,.37-16.9,2.05,0,0-.06,.04-.11,.08-.01,.01-.02,.02-.04,.04,0,0-.03,.12-.03,.13,0,.02,0,.05,0,.07Zm-64.64,25.33c-.75,0-1.41-.53-1.56-1.27-1.38-6.88-2.14-13.93-2.19-20.39,0-.1,0-.21,.03-.32-.02-.11-.03-.23-.03-.35,0-.85,.72-1.53,1.61-1.55h.4c4.55,0,8.89-.62,13.09-1.22,2.08-.3,4.26-.61,6.44-.84,.29-.26,.67-.41,1.08-.41,.47,.02,.86,.2,1.15,.51,.29,.31,.44,.72,.42,1.14v.19s0,.15,0,.25c-.11,3.75,.25,7.3,.6,10.75,.3,3.03,.62,6.15,.64,9.48,0,.42-.16,.85-.47,1.16-.3,.31-.7,.47-1.11,.47-.06,0-.15-.02-.23-.04-.05,0-.11,0-.17-.02-.57-.04-1.1-.06-1.63-.06-2.85,0-5.67,.46-8.39,.91-2.68,.44-5.44,.88-8.41,.97-.23,.31-.57,.53-.95,.61-.1,.03-.22,.03-.32,.03Zm-2.17-22.56c-.14,0-.25,.12-.26,.26,.06,.16,.07,.41,0,.57,.04,6.43,.79,13.4,2.16,20.2,.02,.12,.13,.21,.26,.21,.14-.02,.21-.09,.25-.18,.09-.26,.34-.45,.62-.45,3.02-.06,5.86-.52,8.6-.96,3.3-.54,6.73-1.1,10.3-.88l.16,.02c.08-.01,.09,0,.17,0,.03,0,.05,.01,.07,.02,.05-.02,.08-.04,.1-.06,.06-.06,.09-.13,.09-.21-.03-3.27-.34-6.37-.64-9.36-.35-3.48-.72-7.08-.61-10.96,0-.02,0-.17,0-.19v-.19c0-.15-.12-.29-.25-.3-.13,0-.19,.07-.22,.11-.11,.15-.28,.25-.47,.27-2.24,.23-4.48,.55-6.59,.85-4.29,.61-8.68,1.24-13.32,1.24-.14,0-.26,0-.43,0Zm36.47,19.47c-.82,0-1.52-.64-1.58-1.45-.25-2.86-.68-5.68-1.13-8.66-.54-3.6-1.11-7.32-1.34-11.16-.03-.42,.11-.83,.4-1.15,.15-.17,.32-.3,.52-.39,.07-.23,.28-.42,.53-.45,5.02-.77,10.16-1.56,15.42-1.56,1.97,0,3.81,.11,5.62,.33,.42,.05,.8,.27,1.06,.6,.26,.34,.37,.75,.32,1.17-.03,.27-.14,.54-.3,.76-.06,2.97,.35,6.27,.78,9.77,.32,2.57,.64,5.21,.78,7.74,0,.13,0,.26-.03,.39,.17,.85-.38,1.69-1.24,1.87-3.92,.8-8.26,1.07-12.45,1.33-1.98,.12-4.19,.26-6.28,.46-.26,.23-.57,.37-.92,.4-.02,0-.12,0-.14,0Zm-2.5-21.63c-.09,0-.14,.06-.17,.09-.03,.03-.07,.1-.06,.19,.24,3.79,.79,7.48,1.33,11.05,.45,3,.88,5.84,1.14,8.74,.01,.14,.13,.24,.26,.24,.1,0,.16-.04,.21-.11,.11-.15,.28-.25,.47-.26,2.19-.21,4.5-.36,6.54-.48,4.18-.26,8.47-.53,12.3-1.31,.14-.03,.24-.17,.21-.32-.06-.15-.07-.32-.01-.47-.11-2.58-.43-5.2-.75-7.73-.45-3.66-.87-7.1-.78-10.23,0-.19,.09-.36,.23-.48,.03-.02,.07-.07,.08-.16,.01-.1-.03-.17-.05-.2-.02-.03-.08-.09-.18-.1-1.75-.22-3.54-.32-5.46-.32-4.99,0-9.92,.73-14.69,1.46-.03,.07-.08,.14-.13,.2-.12,.13-.3,.21-.48,.21h0Zm-34.59-8.04c-.82,0-1.5-.61-1.58-1.42-.23-2.23-.59-4.4-.94-6.51-.49-3-1.05-6.37-1.19-9.98-.39-.28-.64-.73-.66-1.23-.03-.88,.66-1.61,1.54-1.65,3.24-.1,6.41-.52,9.48-.91,4.1-.52,8.33-1.06,12.87-.94,.49,.02,.94,.25,1.23,.64,.4,.3,.64,.79,.63,1.3-.14,4.61,.47,8.81,1.12,13.26l.11,.74c.1,.7,.21,1.41,.3,2.12,.02,.16,.02,.31,0,.47,.2,.26,.31,.58,.33,.91,.02,.43-.13,.83-.41,1.15-.29,.31-.68,.5-1.1,.52-3.7,.17-7.27,.47-10.73,.76l-.3,.02c-3.36,.29-6.78,.58-10.29,.75-.08,0-.16,0-.21,0-.02,0-.03,0-.04,0-.01,0-.12,0-.14,0Zm.14-1.34s.08,0,.11,0h.06c3.5-.17,6.91-.46,10.2-.74l.36-.03c3.47-.29,7.06-.6,10.78-.77,.12,0,.25-.15,.25-.28,0-.09-.06-.18-.13-.23-.28-.19-.37-.56-.21-.87,.02-.04,.04-.09,.03-.15-.1-.71-.2-1.42-.3-2.11l-.1-.69c-.67-4.56-1.29-8.82-1.14-13.54,0-.11-.06-.19-.12-.22-.09-.06-.17-.14-.23-.23-.05-.08-.12-.12-.22-.13-4.39-.11-8.61,.42-12.64,.93-3.12,.4-6.33,.82-9.63,.93-.14,0-.26,.13-.25,.27,0,.13,.1,.21,.19,.24,.27,.09,.45,.33,.46,.61,.12,3.67,.69,7.13,1.19,10.19,.35,2.14,.71,4.33,.95,6.6,.01,.13,.13,.23,.26,.23,.05-.01,.09-.02,.14-.02Zm34.49-1.87c-.54,0-.99-.2-1.27-.56-.5-.35-.63-.81-.64-1.14-.24-4.84-1.11-9.14-2.02-13.7-.2-.98-.38-1.91-.56-2.84-.32-.3-.51-.73-.5-1.18,0-.87,.68-1.58,1.49-1.58,.03,0,.17,.01,.2,.01h.43c4.52,0,8.8-.6,12.94-1.17l.25-.04c2.62-.36,5.34-.74,8.08-.96,.02,0,.03,0,.05,0,.02,0,.04,0,.07,0,.87,0,1.49,.57,1.59,1.39,.03,.09,.03,.12,.01,.19l.03,2.42c.05,4.97,.1,10.11,1.34,14.36,.21,.2,.35,.43,.42,.7,.11,.4,.06,.82-.14,1.18-.21,.37-.55,.64-.97,.75-6.8,1.9-14.02,2.16-20.81,2.16Zm-3.51-20.33v.66c-.07,0-.16,.13-.16,.27,0,.09,.04,.18,.12,.22,.16,.1,.27,.26,.31,.44,.2,1.01,.4,2.01,.6,3.01,.94,4.67,1.82,9.02,2.06,13.96,0,.04,0,.07,.12,.15,.09,.05,.17,.13,.22,.22,.04,.06,.17,.07,.22,.07,6.71,0,13.82-.26,20.47-2.11,.08-.02,.13-.06,.17-.12,.03-.05,.03-.11,.02-.17,0-.03-.02-.07-.11-.13-.12-.09-.21-.21-.25-.35-1.34-4.47-1.4-9.78-1.45-14.92l-.03-2.44h0s0-.08,0-.11c-.01-.07-.08-.14-.19-.15-.05,0-.11,.01-.17,0-2.65,.22-5.33,.59-7.93,.94l-.25,.03c-4.19,.58-8.52,1.18-13.13,1.18h-.53l-.1-.67Zm35.33,17.67c-.51,0-.97-.23-1.27-.63-.27-.2-.46-.47-.56-.79-1.47-4.73-1.82-10.29-2.14-15.66l-.09-1.41c-.03-.53,.2-1.04,.62-1.36,.29-.39,.74-.63,1.24-.64,3.77-.07,7.33-.58,10.78-1.07,3.85-.55,7.74-1.1,11.96-1.1h.17c.06,0,.12,0,.17,.01,.06,0,.13-.01,.19-.01,.97,.09,1.61,.87,1.53,1.74-.35,3.77,.02,7.43,.41,11.31,.2,2,.42,4.2,.52,6.4,.02,.39-.11,.77-.36,1.07-.17,.67-.76,1.18-1.47,1.21-2.22,.09-4.53,.06-6.78,.03h-.41c-1.28-.02-2.46-.04-3.65-.04-3.25,0-7.04,.11-10.51,.89-.12,.03-.25,.04-.35,.04Zm20.54-21.32c-4.13,0-7.97,.54-11.68,1.07-3.58,.51-7.19,1.03-11.03,1.09-.09,0-.17,.05-.22,.13-.06,.09-.13,.17-.22,.23-.06,.04-.13,.12-.12,.23l.09,1.41c.32,5.29,.66,10.77,2.09,15.34,.02,.06,.06,.11,.12,.14,.09,.06,.17,.13,.23,.22,.05,.08,.13,.12,.22,.12,3.66-.82,7.54-.93,10.86-.93,1.19,0,2.37,.02,3.55,.03h.52c2.23,.03,4.52,.06,6.71-.03,.13,0,.23-.11,.24-.24,.01-.17,.09-.33,.22-.45,.03-.03,.1-.1,.09-.2-.1-2.16-.32-4.34-.51-6.26-.4-4-.78-7.73-.42-11.63,.01-.15-.09-.27-.24-.29-.08,.01-.24,.02-.31,0h-.18Zm-92.24-2.47c-.05,0-.1,0-.15,0-.05,0-.15,0-.16,0-.83,0-1.51-.62-1.59-1.44-.03-.36,.06-.71,.25-1.01-.23-4.25-.65-8.69-1.05-12.98-.65-6.94-1.33-14.12-1.37-21.13,0-1.2,1.35-2.11,2.42-1.38,17-2.32,34.64-3.57,51.71-4.78l2.14-.15c6.37-.46,12.74-.91,19.08-1.41,1.58-.13,3.16-.27,4.75-.41,4-.36,8.13-.73,12.31-.81,.22-.17,.47-.27,.74-.31,.06-.01,.15-.02,.23-.02,.78,0,1.45,.59,1.56,1.37,1.57,10.88,2.22,21.58,2.92,32.9l.09,1.54c.44,.29,.71,.78,.71,1.32,0,.73-.5,1.36-1.2,1.54-.26,.22-.58,.34-.92,.36h0c-.39,0-.71-.09-.97-.27-3.36,.14-6.68,.66-9.88,1.15-2.4,.38-5.01,.79-7.61,1.03-12.27,1.13-24.5,1.76-36.33,2.37-11.59,.59-24.63,1.26-37.34,2.46,.01,0-.12,.04-.27,.05-.03,0-.06,0-.09,0Zm-2.48-36.88c-.13,0-.26,.16-.26,.32,.04,6.94,.71,14.09,1.37,21.01,.41,4.39,.83,8.92,1.07,13.28,0,.18-.06,.36-.18,.5-.03,.03-.1,.11-.09,.22,.01,.13,.13,.24,.26,.24h.19s.04,0,.07,0h.04s.2-.03,.24-.04c12.75-1.21,25.79-1.88,37.31-2.46,11.91-.61,24.13-1.24,36.37-2.37,2.56-.24,5.15-.65,7.44-1.01,3.42-.53,6.85-1.07,10.38-1.19,.19-.03,.37,.07,.5,.2,.04,.04,.1,.08,.19,.08,.09,0,.15-.03,.2-.09,.11-.13,.27-.21,.44-.22,.14-.01,.24-.12,.24-.26,0-.14-.1-.22-.19-.25-.28-.07-.48-.32-.49-.6l-.11-1.83c-.7-11.4-1.35-22.07-2.91-32.9-.02-.13-.12-.23-.25-.23-.12,.01-.17,.04-.21,.09-.12,.14-.3,.22-.49,.23-4.21,.06-8.41,.44-12.47,.81-1.59,.15-3.18,.29-4.76,.42-6.34,.5-12.71,.96-19.09,1.41l-2.15,.15c-17.14,1.22-34.87,2.48-51.91,4.81-.2,.03-.4-.04-.54-.17-.13-.12-.19-.13-.19-.13Z"/></g><g><path class="cls-4" d="M172.88,84.12l.1,1.72c-3.53,.15-6.94,.68-10.25,1.2-2.4,.38-4.89,.77-7.36,.99-12.25,1.13-24.49,1.76-36.32,2.36-11.93,.62-24.25,1.25-36.6,2.4-.23-4.18-.64-8.48-1.06-13.02-.61-6.51-1.23-13.23-1.34-19.72,17.7-2.42,36.11-3.73,53.92-5,6.38-.46,12.75-.91,19.1-1.41,1.59-.13,3.18-.27,4.78-.42,4.02-.36,8.17-.74,12.27-.8,1.45,10.43,2.09,20.77,2.75,31.69Z"/><path class="cls-3" d="M82.45,93.46c-.16,0-.31-.06-.43-.16-.14-.12-.22-.29-.23-.47-.24-4.22-.66-8.68-1.06-12.99-.58-6.17-1.23-13.17-1.34-19.77,0-.34,.24-.62,.57-.67,17.7-2.42,36.11-3.73,53.9-5l1.13-.08c6.02-.43,12.04-.86,18.03-1.33,1.59-.13,3.18-.27,4.77-.42,4.01-.36,8.16-.74,12.32-.81h.01c.33,0,.61,.24,.66,.57,1.46,10.52,2.09,20.82,2.76,31.74l.1,1.72c.01,.18-.05,.35-.17,.49-.12,.13-.29,.21-.47,.22-3.54,.15-7.06,.7-10.17,1.19-2.28,.36-4.87,.77-7.4,1-12.25,1.13-24.48,1.76-36.31,2.36-11.94,.62-24.25,1.25-36.62,2.4-.02,0-.04,0-.06,0Zm-1.72-32.82c.13,6.38,.77,13.11,1.32,19.07,.38,4.09,.78,8.31,1.02,12.35,12.16-1.11,24.25-1.74,35.94-2.34,11.86-.61,24.08-1.23,36.3-2.36,2.49-.23,5.06-.63,7.32-.99,2.95-.46,6.26-.99,9.65-1.17l-.06-1.05c-.65-10.68-1.27-20.79-2.67-31.05-3.91,.09-7.83,.45-11.63,.79-1.6,.15-3.2,.29-4.79,.42-5.99,.47-12.01,.9-18.04,1.33l-1.07,.08c-17.64,1.26-35.81,2.56-53.29,4.92Z"/></g><g><path class="cls-3" d="M200.11,182.52c.42,3.83,.83,7.45,.76,11.47,0,.33-.19,.61-.45,.78-.02,.03-.03,.05-.05,.08-2.02,2.66-4.56,5.29-7.23,8.09-2.46,2.57-5,5.21-7.11,7.88,0,.05,.02,.09,.02,.14,0,.5-.37,.9-.86,.93-.18,.2-.43,.32-.69,.32-.19,0-.39-.06-.55-.19-.05-.03-.09-.08-.12-.12-2.13,.02-4.26,.04-6.4,.05-5.64,.03-11.46,.06-17.24,.26-16.82,.56-31.88,1.47-46.04,2.78-2.88,.27-5.76,.55-8.63,.83-11.62,1.14-23.58,2.32-35.68,2.32-1.55,0-3.1-.02-4.65-.06-.51-.02-.92-.44-.9-.95,0-.04,0-.08,.02-.12-.04-.23,0-.48,.14-.68,.04-.06,.08-.12,.12-.18-1.36-6.91-1.67-9.18-1.5-10.04-.17-.14-.28-.34-.31-.58-1.6-11.78-2.65-21.23-3.41-30.66-.92-11.33-2.24-22.91-3.52-34.11-1.04-9.18-2.13-18.66-2.97-27.91-.78-8.5-1.2-17.1-1.61-25.41-.48-9.55-.97-19.41-2-29.03-.1-.2-.13-.44-.07-.66,0-.09-.02-.19-.03-.28-.05-.48,.27-.92,.75-1.01,1.97-3.19,5.07-6.77,8.07-10.24,2.06-2.38,4-4.62,5.58-6.72,.31-.41,.89-.49,1.3-.18,.05,.04,.09,.08,.13,.12,17.84-.23,36.18-1.58,53.92-2.88,12.12-.89,24.67-1.82,37-2.38,8.77-.4,17.09-1.13,25.41-2.18,.15-.02,.29-.04,.42,.01,.1-.04,.2-.14,.32-.14h0c.51,0,.92,.5,.92,1.01-.08,10.29,1.9,21.69,3.82,32.64,1.46,8.34,2.97,16.96,3.59,25.18l.4,5.3c1.38,18.32,2.68,35.62,4.86,53.59,.58,4.83,1.33,9.75,2.06,14.51,.81,5.29,1.64,10.76,2.26,16.16,.01,.12,0,.24-.03,.35,.07,.64,.14,1.27,.21,1.9Zm-26.18,11.46c8.02-.65,16.54-1.27,25.08-1.25-.02-3.43-.38-6.64-.75-10.01-.17-1.56-.35-3.13-.49-4.74v-.03c-.57-4.54-1.26-9.11-1.93-13.56-.73-4.77-1.48-9.71-2.07-14.57-2.18-18-3.49-35.33-4.87-53.67l-.4-5.3c-.62-8.13-2.12-16.71-3.57-25-1.87-10.69-3.8-21.73-3.84-31.92-8.23,1.03-16.46,1.73-25.14,2.12-12.31,.56-24.83,1.48-36.95,2.37-17.54,1.29-35.66,2.61-53.34,2.87,2.53,14.72,3.26,30.8,3.96,46.37,.32,7.11,.62,13.84,1.09,20.45,.81,11.59,2.28,23.37,3.7,34.77,1.13,9.05,2.29,18.41,3.13,27.68,.29,3.14,.51,6.24,.72,9.3,.46,6.55,.9,12.74,1.95,19.14,9.67,.96,19.87,.05,29.74-.84,4.75-.43,9.66-.87,14.38-1.09,17.83-.81,34.52-1.85,49.61-3.08Zm24.28,.61c-8.19-.01-16.4,.61-24.13,1.24-15.11,1.23-31.82,2.27-49.67,3.08-4.68,.21-9.57,.66-14.3,1.09-6.93,.63-14.01,1.26-21,1.26-3.05,0-6.08-.13-9.08-.43-.01,.01-.02,.02-.04,.03-5.46,4.44-10.7,11.59-13.29,15.38,13.06,.24,26.05-1.04,38.61-2.28,2.88-.28,5.76-.56,8.65-.83,14.2-1.31,29.3-2.23,46.15-2.79,5.79-.19,11.64-.22,17.29-.25,2.29-.01,4.57-.03,6.86-.05,2.23-2.87,4.91-5.68,7.52-8.4,2.35-2.45,4.57-4.77,6.42-7.06Zm-119.76,5.15c-1.11-6.64-1.57-13.02-2.04-19.76-.22-3.05-.43-6.13-.71-9.26-.84-9.24-2-18.58-3.13-27.62-1.42-11.42-2.89-23.23-3.71-34.86-.47-6.64-.77-13.37-1.09-20.5-.69-15.36-1.42-31.22-3.87-45.71-1.38,1.73-2.93,3.52-4.56,5.41-3.17,3.67-6.45,7.46-8.29,10.66,1.04,9.71,1.53,19.64,2.01,29.25,.41,8.3,.84,16.87,1.61,25.33,.84,9.23,1.93,18.71,2.97,27.87,1.28,11.21,2.6,22.81,3.52,34.17,.76,9.4,1.8,18.83,3.4,30.57,.02,.12,0,.23-.02,.34,.1,.08,.19,.18,.25,.31,.11,.23,.12,.48,.04,.7,0,.64,.4,3.26,1.18,7.36,2.77-3.95,7.47-10.11,12.44-14.25Z"/><path class="cls-3" d="M69.82,218.8c-1.55,0-3.11-.02-4.67-.06-.88-.03-1.57-.76-1.55-1.63,0-.02,0-.06,0-.1-.04-.35,.04-.7,.23-1-1.29-6.56-1.57-8.67-1.49-9.68-.15-.21-.24-.45-.27-.7-1.59-11.74-2.65-21.21-3.41-30.7-.92-11.43-2.24-22.95-3.51-34.09l-.06-.57c-1.02-8.99-2.08-18.29-2.91-27.35-.78-8.57-1.21-17.14-1.62-25.44-.47-9.47-.96-19.27-1.98-28.88-.11-.27-.14-.58-.09-.87l-.02-.17c-.08-.73,.33-1.38,.98-1.64,2.01-3.19,5.06-6.71,8-10.12,1.94-2.24,3.95-4.56,5.55-6.68,.51-.67,1.52-.82,2.21-.33,17.66-.24,35.82-1.57,53.39-2.86l1.2-.09c11.82-.87,24.04-1.77,36.06-2.31,8.58-.39,16.87-1.1,25.35-2.17,.14-.02,.27-.03,.39-.02,.11-.06,.25-.11,.43-.11,.41,0,.79,.16,1.09,.47,.32,.32,.51,.77,.5,1.22-.08,10.3,1.9,21.6,3.81,32.52l.02,.13c1.45,8.31,2.96,16.9,3.58,25.11l.4,5.3c1.38,18.29,2.68,35.56,4.86,53.56,.57,4.72,1.3,9.54,2.01,14.19l.05,.3c.72,4.72,1.62,10.6,2.26,16.19,.02,.16,.01,.32-.02,.47l.19,1.79c.43,3.93,.83,7.53,.76,11.55,0,.49-.24,.94-.63,1.24-2.04,2.68-4.56,5.31-7.24,8.1-2.44,2.54-4.9,5.11-6.97,7.69-.02,.71-.53,1.32-1.21,1.48-.55,.44-1.36,.46-1.93,.06-2.05,.02-4.09,.04-6.14,.04h-.62c-5.43,.04-11.04,.07-16.6,.25-16.73,.56-31.78,1.46-46,2.78-2.88,.27-5.76,.55-8.63,.83-11.64,1.14-23.63,2.32-35.74,2.32Zm-5.4-2.48l.55,.37c-.05,.07-.05,.15-.04,.2,.01,.08,.01,.16,0,.23-.01,.17,.1,.29,.25,.29,13.61,.36,27.16-.97,40.2-2.25,2.92-.29,5.8-.57,8.68-.84,14.25-1.31,29.33-2.22,46.08-2.78,5.57-.19,11.19-.22,16.63-.25h.62c2.13-.01,4.26-.03,6.39-.05,.18,0,.37,.08,.5,.22,.23,.2,.29,.08,.38-.01,.11-.13,.28-.21,.45-.22,.14,0,.24-.12,.24-.26-.03-.18,.01-.42,.13-.57,2.14-2.7,4.69-5.35,7.15-7.93,2.7-2.82,5.2-5.43,7.19-8.04,.05-.06,.16-.2,.23-.24,.04-.03,.13-.1,.14-.23,.07-3.93-.32-7.49-.74-11.26l-.22-2.02c0-.08,0-.17,.02-.25-.63-5.66-1.53-11.53-2.25-16.24l-.05-.3c-.71-4.67-1.44-9.49-2.01-14.23-2.19-18.03-3.49-35.31-4.87-53.62l-.4-5.3c-.62-8.15-2.11-16.71-3.56-24.98l-.02-.13c-1.92-10.99-3.91-22.35-3.83-32.76,0-.09-.05-.2-.12-.27-.01-.01-.04-.04-.07-.05-.06,.03-.11,.06-.16,.08-.15,.05-.31,.05-.46,0,0,.01-.05,.02-.1,.03-8.52,1.08-16.85,1.79-25.46,2.18-12,.55-24.21,1.44-36.02,2.31l-1.2,.09c-17.67,1.3-35.94,2.64-53.72,2.87-.2-.01-.37-.08-.5-.21-.1-.08-.16-.09-.2-.09-.09,0-.16,.04-.21,.11-1.62,2.15-3.65,4.49-5.6,6.75-2.98,3.44-6.06,7-8.01,10.16-.1,.16-.26,.27-.44,.3-.14,.03-.23,.15-.21,.28l.02,.23c0,.08,0,.22-.01,.29-.02,.07-.01,.14,.02,.2,.04,.07,.06,.15,.07,.23,1.03,9.69,1.52,19.54,2,29.06,.41,8.28,.83,16.84,1.61,25.38,.83,9.05,1.89,18.34,2.91,27.32l.06,.57c1.27,11.15,2.59,22.68,3.52,34.13,.76,9.47,1.81,18.91,3.4,30.63,0,.07,.04,.12,.09,.16,.18,.16,.26,.4,.22,.63-.16,.77,.25,3.42,1.5,9.78,.03,.18,0,.36-.1,.5l-.67-.2Zm5.51,.62h0c-1.08,0-2.16-.01-3.24-.03-.24,0-.47-.14-.58-.36-.11-.22-.1-.48,.04-.68,2.65-3.87,7.91-11.04,13.42-15.52,.14-.15,.32-.2,.52-.18,2.84,.28,5.79,.42,9.01,.42,7,0,14.09-.64,20.94-1.26l.25-.02c4.65-.42,9.46-.85,14.07-1.07,17.8-.81,34.51-1.85,49.65-3.08,8.07-.66,15.97-1.24,23.92-1.24h.26c.26,0,.49,.15,.6,.38,.11,.23,.08,.5-.08,.7-1.86,2.31-4.09,4.64-6.45,7.1-2.32,2.41-5.2,5.41-7.48,8.35-.12,.16-.32,.26-.52,.26-2.29,.02-4.58,.04-6.87,.05-5.63,.03-11.45,.06-17.27,.25-16.83,.56-31.91,1.47-46.11,2.78-2.89,.27-5.77,.55-8.64,.83-11.52,1.14-23.44,2.31-35.45,2.31Zm-1.97-1.34c12.62,.14,25.17-1.1,37.29-2.3,2.88-.28,5.76-.56,8.65-.83,14.23-1.32,29.33-2.23,46.19-2.79,5.84-.19,11.67-.22,17.31-.25,2.18-.01,4.36-.03,6.54-.04,2.29-2.91,5.1-5.83,7.37-8.2,1.97-2.06,3.85-4.02,5.48-5.93-7.51,.05-15.01,.61-22.66,1.24-15.16,1.23-31.88,2.27-49.7,3.08-4.58,.21-9.38,.64-14.02,1.06l-.25,.02c-6.88,.62-14,1.26-21.06,1.26-3.16,0-6.06-.13-8.87-.4-4.87,4.03-9.55,10.18-12.28,14.08Zm-1.94-.95s-.09,0-.14-.01c-.26-.06-.46-.26-.51-.53-.73-3.84-1.19-6.71-1.19-7.48,0-.07,.01-.14,.03-.21,.02-.07,.02-.14-.01-.2-.2-.16-.36-.51-.29-.75-1.59-11.84-2.64-21.28-3.39-30.69-.92-11.34-2.24-22.92-3.51-34.11l-.06-.53c-1.03-9.01-2.09-18.32-2.91-27.38-.78-8.49-1.2-17.07-1.61-25.36v-.15c-.48-9.55-.98-19.43-2.01-29.07-.01-.14,.01-.28,.08-.4,1.88-3.27,5.18-7.08,8.37-10.77l.13-.15c1.59-1.83,3.08-3.57,4.41-5.24,.16-.21,.43-.3,.69-.23,.25,.07,.44,.27,.49,.53,2.46,14.59,3.18,30.46,3.87,45.79l.03,.64c.31,6.9,.61,13.41,1.06,19.84,.82,11.68,2.29,23.45,3.7,34.83,1.12,9.01,2.28,18.34,3.13,27.64,.27,2.98,.48,5.93,.68,8.84l.03,.43c.47,6.72,.92,13.06,2.03,19.7,.04,.23-.05,.47-.23,.62-4.79,4-9.34,9.89-12.32,14.12-.13,.18-.33,.28-.54,.28Zm-.51-7.95c.03,.6,.31,2.52,.88,5.62,2.93-4.06,7.03-9.17,11.35-12.86-1.08-6.56-1.52-12.83-1.99-19.45l-.03-.43c-.21-2.91-.41-5.84-.68-8.82-.85-9.28-2-18.59-3.12-27.6-1.42-11.4-2.89-23.18-3.71-34.9-.45-6.45-.75-12.97-1.06-19.88l-.03-.64c-.67-14.79-1.36-30.07-3.62-44.18-1.1,1.33-2.28,2.7-3.51,4.13l-.13,.15c-3.09,3.57-6.28,7.26-8.11,10.37,1.02,9.61,1.51,19.43,1.99,28.92v.15c.42,8.28,.84,16.85,1.62,25.31,.83,9.05,1.89,18.36,2.91,27.35l.06,.5c1.28,11.24,2.6,22.83,3.52,34.19,.75,9.38,1.8,18.8,3.39,30.53,.01,.06,.02,.13,.02,.2,.06,.08,.11,.16,.15,.24,.16,.33,.2,.72,.12,1.07Zm23.63-6.64h0c-3.24,0-6.19-.14-8.99-.42-.3-.03-.54-.26-.59-.55-1.06-6.49-1.51-12.95-1.95-19.2-.21-2.97-.43-6.13-.72-9.29-.85-9.37-2.06-19.08-3.13-27.65-1.43-11.49-2.89-23.24-3.7-34.8-.46-6.53-.76-13.15-1.07-20.16v-.31c-.72-15.53-1.44-31.59-3.97-46.29-.03-.19,.02-.39,.14-.54,.12-.15,.31-.24,.5-.24,17.69-.26,35.79-1.58,53.3-2.87,11.47-.84,24.46-1.8,36.97-2.37,8.65-.39,16.85-1.09,25.09-2.12,.19-.02,.38,.04,.52,.16,.14,.12,.22,.31,.23,.49,.05,10.19,1.97,21.18,3.84,31.81,1.46,8.32,2.96,16.91,3.58,25.06l.4,5.3c1.38,18.3,2.68,35.59,4.86,53.64,.61,5.03,1.42,10.31,2.07,14.55,.67,4.42,1.36,8.99,1.94,13.58,.14,1.67,.32,3.23,.49,4.78,.38,3.41,.73,6.62,.75,10.08,0,.18-.07,.35-.19,.47-.12,.12-.29,.2-.47,.2h-.5c-8.43,0-16.74,.62-24.53,1.25-15.08,1.23-31.78,2.26-49.63,3.08-4.72,.22-9.61,.66-14.35,1.09-6.82,.62-13.88,1.26-20.87,1.26Zm-8.35-1.69c2.61,.24,5.35,.36,8.35,.36,6.93,0,13.96-.64,20.75-1.25,4.75-.43,9.66-.87,14.41-1.09,17.84-.81,34.52-1.85,49.58-3.07,7.76-.63,16.04-1.24,24.46-1.25-.06-3.14-.39-6.12-.74-9.26-.17-1.57-.35-3.15-.49-4.77-.57-4.58-1.26-9.14-1.93-13.55-.65-4.25-1.46-9.54-2.07-14.59-2.19-18.08-3.49-35.38-4.87-53.7l-.4-5.3c-.61-8.09-2.11-16.64-3.56-24.91-1.83-10.45-3.72-21.22-3.85-31.3-8.02,.98-16.03,1.65-24.45,2.03-12.49,.57-25.47,1.53-36.93,2.37-17.27,1.27-35.12,2.57-52.6,2.86,2.43,14.56,3.15,30.38,3.84,45.69v.31c.33,7,.63,13.62,1.09,20.13,.81,11.52,2.27,23.26,3.68,34.6,1.09,8.71,2.3,18.43,3.15,27.83,.29,3.17,.51,6.34,.72,9.31,.44,6.34,.87,12.33,1.86,18.57Z"/></g><g><path class="cls-3" d="M176.15,116.05c.01,.29-.11,.55-.32,.73-.03,.46-.41,.83-.88,.85-2.34,.1-4.79,.06-7.16,.03-4.84-.06-9.84-.14-14.31,.87-.07,.02-.14,.02-.21,.02-.32,0-.62-.17-.79-.44-.19-.11-.33-.29-.41-.51-1.45-4.64-1.79-10.16-2.11-15.5l-.09-1.41c-.02-.35,.16-.67,.44-.84,.16-.26,.44-.44,.78-.45,3.8-.07,7.39-.58,10.86-1.07,3.83-.54,7.76-1.1,12.03-1.09,.06,0,.11,0,.16,.02,.07-.01,.15-.02,.23-.02,.51,.05,.89,.5,.84,1.01-.36,3.86,.02,7.57,.42,11.5,.21,2.05,.42,4.17,.52,6.3Zm-1.87-.25c-.1-1.96-.29-3.94-.49-5.86-.36-3.52-.72-7.15-.49-10.83-3.83,.06-7.53,.55-11.08,1.06-3.34,.47-6.78,.96-10.45,1.07l.05,.76c.31,5.04,.63,10.25,1.9,14.6,4.51-.92,9.38-.85,14.1-.79,2.14,.03,4.35,.06,6.45-.01Z"/><path class="cls-3" d="M153.28,119.22c-.51,0-.97-.23-1.27-.63-.27-.2-.46-.47-.56-.79-1.47-4.73-1.82-10.29-2.14-15.66l-.09-1.41c-.03-.53,.2-1.04,.62-1.36,.29-.39,.74-.63,1.24-.64,3.77-.07,7.33-.58,10.78-1.07,3.85-.55,7.74-1.1,11.96-1.1h.17c.06,0,.12,0,.17,.01,.06,0,.13-.01,.19-.01,.97,.09,1.61,.87,1.53,1.74-.35,3.77,.02,7.43,.41,11.31,.2,2,.42,4.2,.52,6.4,.02,.39-.11,.77-.36,1.07-.17,.67-.76,1.18-1.47,1.21-2.22,.09-4.53,.06-6.78,.03h-.41c-1.28-.02-2.46-.04-3.65-.04-3.25,0-7.04,.11-10.51,.89-.12,.03-.25,.04-.35,.04Zm20.54-21.32c-4.13,0-7.97,.54-11.68,1.07-3.58,.51-7.18,1.03-11.03,1.09-.09,0-.17,.05-.22,.13-.06,.09-.13,.17-.22,.23-.06,.04-.13,.12-.12,.23l.09,1.41c.32,5.29,.66,10.77,2.09,15.34,.02,.06,.06,.11,.12,.14,.09,.06,.17,.13,.23,.22,.05,.08,.13,.12,.22,.12v.66l.04-.67c3.61-.82,7.49-.93,10.82-.93,1.19,0,2.37,.02,3.55,.03h.52c2.23,.03,4.52,.06,6.71-.03,.13,0,.23-.11,.24-.24,.01-.17,.09-.33,.22-.45,.03-.03,.1-.1,.09-.2-.1-2.16-.32-4.34-.51-6.26-.4-4-.78-7.73-.42-11.63,.01-.15-.09-.27-.24-.29-.08,.01-.24,.02-.31,0h-.18Zm-20.1,19.36c-.29,0-.55-.19-.64-.48-1.29-4.4-1.61-9.64-1.93-14.71l-.05-.8c-.01-.18,.05-.36,.17-.49,.12-.13,.29-.21,.47-.22,3.65-.11,7.07-.6,10.38-1.07,3.52-.5,7.29-1,11.16-1.06,.21,.01,.36,.07,.49,.2,.13,.13,.19,.32,.18,.5-.23,3.71,.15,7.44,.49,10.72,.18,1.82,.39,3.88,.49,5.89,0,.18-.05,.35-.18,.48-.12,.13-.29,.21-.47,.21-2.11,.07-4.33,.05-6.49,.01-1.26-.02-2.46-.03-3.66-.03-3.13,0-6.81,.1-10.29,.81-.04,0-.09,.01-.13,.01Zm-1.25-15.39v.08c.3,4.8,.61,9.73,1.72,13.87,3.41-.63,6.93-.71,9.95-.71,1.21,0,2.42,.02,3.62,.03,2.01,.03,3.92,.05,5.81,0-.11-1.77-.29-3.55-.45-5.15-.32-3.13-.68-6.65-.53-10.22-3.55,.11-7.02,.57-10.29,1.03-3.13,.45-6.37,.91-9.84,1.06Z"/></g><g><path class="cls-3" d="M171.31,129.51c1.25-.04,2.45-.07,3.56-.13,.08,0,.15,0,.22,.01,.45-.06,.89,.21,1.02,.66,3.71,12.66,5.91,32.18,5.6,49.72,0,.33-.18,.61-.44,.77-.1,.16-.24,.29-.43,.37-4.45,1.91-9.65,2.38-14.69,2.38-1.87,0-3.72-.07-5.49-.15-.51-.02-.91-.45-.89-.97,0-.02,0-.05,.01-.08-4.24-12.21-6.32-36.64-6.19-49.65,0-.01,0-.02,0-.03,0-.04,0-.07,.01-.1,0-.03,0-.06,.01-.08,0-.03,.01-.06,.03-.08,.01-.03,.02-.06,.03-.09,.01-.03,.03-.05,.04-.08,.02-.03,.03-.05,.05-.08,.02-.02,.04-.05,.06-.07,.02-.02,.04-.04,.06-.06,.02-.02,.05-.04,.07-.06,.02-.02,.05-.04,.07-.05,.02-.01,.05-.03,.07-.04,.03-.01,.06-.03,.1-.04,0,0,.01,0,.03-.01,5.08-1.71,11.74-1.91,17.09-2.08Zm8.55,49.8c.26-16.95-1.83-35.66-5.34-48.06-1,.04-2.05,.07-3.15,.11-5.27,.16-11.21,.35-15.93,1.79-.05,12.96,1.97,36.33,6.04,48.18,6.09,.25,12.91,.24,18.38-2.02Z"/><path class="cls-3" d="M166.15,183.96c-1.98,0-3.9-.07-5.52-.15-.42-.01-.81-.2-1.1-.51-.28-.31-.43-.7-.42-1.12-4.23-12.33-6.31-36.76-6.18-49.73,0-.03,0-.07,.01-.11,0-.04,0-.07,0-.09,0-.06,.02-.13,.04-.19,0-.04,.05-.15,.07-.19,0-.02,.03-.08,.06-.14l.09-.15s.08-.11,.1-.14c.04-.05,.14-.16,.2-.2,.01-.01,.17-.13,.19-.14,.02-.01,.14-.08,.16-.08,.02,0,.16-.07,.18-.08,5.16-1.74,11.87-1.95,17.25-2.11,1.27-.04,2.47-.08,3.58-.13,.12,0,.21,0,.27,0,.05,0,.09,0,.11,0,.71,0,1.33,.46,1.53,1.14,3.73,12.72,5.94,32.31,5.63,49.92,0,.49-.24,.95-.63,1.24-.17,.22-.39,.4-.64,.51-3.87,1.66-8.62,2.44-14.96,2.44Zm-11.9-51.44c-.12,12.94,1.95,37.24,6.16,49.36,.03,.09,.04,.18,.04,.27-.01,.16,.03,.22,.06,.25,.03,.04,.09,.08,.18,.08,1.61,.07,3.52,.15,5.47,.15,6.15,0,10.74-.74,14.43-2.33,.05-.02,.09-.06,.13-.11,.06-.09,.13-.16,.22-.22,.06-.04,.12-.11,.13-.22,.31-17.49-1.88-36.93-5.58-49.53-.04-.14-.16-.19-.25-.19-.06,0-.17,.01-.23,0-1.2,.05-2.4,.09-3.66,.12-5.33,.16-11.92,.37-16.9,2.05,0,0-.06,.04-.11,.08-.01,.01-.02,.02-.04,.04,0,0-.03,.12-.03,.13,0,.02,0,.05,0,.07Zm11.86,49.58h0c-1.37,0-2.85-.03-4.66-.11-.27-.01-.51-.19-.6-.45-4.23-12.32-6.13-36.17-6.08-48.4,0-.29,.19-.55,.47-.63,4.85-1.48,10.83-1.66,16.1-1.82l.88-.03c.78-.03,1.54-.05,2.26-.08,.32-.02,.59,.19,.67,.48,3.51,12.41,5.62,31.35,5.36,48.25,0,.27-.16,.5-.41,.6-3.59,1.49-8.04,2.18-14.01,2.18Zm-4.15-1.42c1.59,.06,2.91,.09,4.15,.09,5.56,0,9.74-.61,13.09-1.92,.21-16.44-1.81-34.73-5.18-46.92-.57,.02-1.15,.04-1.75,.06l-.88,.03c-5.02,.15-10.69,.32-15.29,1.62,0,12.14,1.84,34.91,5.86,47.04Z"/></g><g><path class="cls-3" d="M144.31,150.34c0,.13-.02,.25-.06,.36,.01,.04,.03,.07,.04,.12,.1,.5-.22,.99-.72,1.1-3.89,.79-8.21,1.06-12.39,1.32-2.16,.13-4.37,.27-6.52,.48-.16,.21-.39,.35-.66,.37-.03,0-.06,0-.08,0-.47,0-.88-.36-.92-.84-.26-2.88-.68-5.71-1.14-8.7-.54-3.59-1.1-7.31-1.34-11.1-.03-.51,.36-.95,.87-.98,.01,0,.02,0,.03,0l-.02-.32c6.74-1.03,13.7-2.1,20.86-1.22,.51,.06,.87,.53,.81,1.03-.03,.23-.14,.44-.3,.58-.08,3.06,.33,6.48,.78,10.11,.31,2.55,.64,5.18,.77,7.69Zm-1.87-.1c-.13-2.39-.44-4.91-.74-7.37-.43-3.47-.86-7.06-.79-10.23-6.27-.59-12.48,.31-18.5,1.23,.25,3.53,.77,7.02,1.28,10.4,.38,2.48,.76,5.04,1.02,7.58,2.1-.2,4.26-.34,6.35-.47,3.85-.24,7.81-.49,11.38-1.15Z"/><path class="cls-3" d="M123.92,154.76c-.82,0-1.52-.64-1.58-1.45-.25-2.86-.68-5.68-1.13-8.66-.54-3.6-1.11-7.32-1.34-11.16-.03-.42,.11-.83,.4-1.15,.15-.17,.32-.3,.52-.39,.07-.23,.28-.42,.53-.45,5.02-.77,10.16-1.56,15.42-1.56,1.97,0,3.81,.11,5.62,.33,.42,.05,.8,.27,1.06,.6,.26,.34,.37,.75,.32,1.17-.03,.27-.14,.54-.3,.76-.06,2.97,.35,6.27,.78,9.77,.32,2.57,.64,5.21,.78,7.74,0,.13,0,.26-.03,.39,.17,.85-.39,1.69-1.24,1.87-3.92,.8-8.26,1.07-12.45,1.33-1.99,.12-4.19,.26-6.28,.46-.26,.23-.57,.37-.92,.4-.02,0-.12,0-.14,0Zm-2.49-21.63c-.09,0-.15,.06-.18,.09-.03,.03-.07,.1-.06,.19,.24,3.79,.79,7.48,1.33,11.05,.45,3,.88,5.84,1.14,8.74,.01,.14,.13,.24,.26,.24v.66l.02-.66c.08,0,.15-.04,.2-.11,.11-.15,.28-.25,.47-.26,2.19-.21,4.5-.36,6.54-.48,4.18-.26,8.47-.53,12.3-1.31,.14-.03,.24-.17,.21-.32-.06-.15-.07-.32-.01-.47-.11-2.58-.43-5.2-.75-7.73-.45-3.66-.87-7.1-.78-10.23,0-.19,.09-.36,.23-.48,.03-.02,.07-.07,.08-.16,.01-.1-.03-.17-.05-.2-.02-.03-.08-.09-.18-.1-1.75-.22-3.54-.32-5.46-.32-4.99,0-9.92,.73-14.69,1.46-.03,.07-.08,.14-.13,.2-.12,.13-.3,.21-.48,.21h0Zm3.29,19.39c-.34,0-.62-.25-.66-.59-.28-2.63-.67-5.28-1.02-7.55-.51-3.38-1.03-6.88-1.29-10.46-.02-.35,.22-.65,.56-.7,5.1-.78,9.71-1.42,14.43-1.42,1.46,0,2.88,.06,4.24,.19,.35,.03,.61,.33,.6,.68-.07,3.12,.36,6.69,.79,10.13,.27,2.19,.6,4.92,.74,7.41,.02,.33-.21,.63-.54,.69-3.63,.67-7.61,.92-11.46,1.16-2.12,.13-4.25,.27-6.33,.46-.02,0-.04,0-.06,0Zm-1.59-18.08c.26,3.32,.75,6.58,1.23,9.74,.32,2.1,.68,4.51,.96,6.96,1.89-.17,3.8-.29,5.66-.4,3.66-.23,7.38-.46,10.78-1.04-.15-2.29-.45-4.74-.7-6.73-.4-3.27-.81-6.64-.8-9.7-1.13-.09-2.3-.13-3.5-.13-4.44,0-8.81,.59-13.62,1.31Z"/></g><g><path class="cls-3" d="M142.73,117.97c.14,.5-.15,.98-.64,1.11-6.52,1.82-13.48,2.14-20.63,2.14h-.02c-.33,0-.62-.12-.79-.38-.25-.15-.43-.36-.45-.68-.25-4.91-1.12-9.26-2.05-13.86-.2-1-.4-2-.6-3.01-.27-.16-.45-.46-.44-.8,0-.51,.41-.99,.94-.92,4.72,.05,9.21-.57,13.56-1.17,2.69-.37,5.48-.76,8.3-.99,0,0,.01,0,.02,0,.01,0,.02,0,.03,0,.54-.04,.88,.35,.94,.81,0,.02,0,.03,0,.04,0,.01,0,.02,0,.03v.03l.03,2.44c.05,5.11,.11,10.38,1.42,14.73,.17,.12,.3,.28,.36,.49Zm-2.25-.32c-1.28-4.52-1.34-9.78-1.39-14.88l-.02-1.43c-2.43,.23-4.85,.55-7.2,.88-3.98,.55-8.08,1.12-12.39,1.18,.16,.84,.33,1.68,.5,2.51,.91,4.49,1.76,8.75,2.05,13.55,6.41-.12,12.64-.38,18.46-1.83Z"/><path class="cls-3" d="M121.46,121.88h-.02c-.52,0-.97-.2-1.25-.56-.5-.35-.63-.81-.64-1.14-.24-4.84-1.11-9.14-2.02-13.7-.2-.98-.38-1.91-.56-2.84-.32-.3-.51-.73-.5-1.18,0-.87,.68-1.58,1.49-1.58,.03,0,.17,.01,.2,.01h.43c4.52,0,8.8-.6,12.94-1.17l.25-.04c2.62-.36,5.34-.74,8.08-.96,.02,0,.03,0,.05,0,.02,0,.04,0,.07,0,.87,0,1.49,.57,1.59,1.39,.03,.09,.03,.12,.01,.19l.03,2.42c.05,4.97,.1,10.11,1.34,14.36,.21,.2,.35,.43,.42,.7,.11,.4,.06,.82-.14,1.18-.21,.37-.55,.64-.97,.75-6.8,1.9-14.02,2.16-20.81,2.16Zm-3.42-19.66c-.16,0-.25,.12-.25,.26,0,.09,.04,.18,.12,.22,.16,.1,.27,.26,.31,.44,.2,1.01,.4,2.01,.6,3.01,.94,4.67,1.82,9.02,2.06,13.96,0,.04,0,.07,.12,.15,.09,.05,.17,.13,.22,.22,.04,.06,.17,.07,.22,.07h.02c6.69,0,13.8-.26,20.45-2.11,.08-.02,.13-.06,.17-.12,.03-.05,.03-.11,.02-.17,0-.03-.02-.07-.11-.13-.12-.09-.21-.21-.25-.35-1.34-4.47-1.4-9.78-1.45-14.92l-.03-2.44h0s0-.08,0-.11c-.01-.07-.08-.14-.19-.15-.05,0-.11,.01-.17,0-2.65,.22-5.33,.59-7.93,.94l-.25,.03c-4.19,.58-8.52,1.18-13.13,1.18h-.55Zm3.99,17.91c-.35,0-.64-.27-.66-.62-.29-4.82-1.18-9.22-2.04-13.46l-.5-2.52c-.04-.19,.01-.39,.14-.54,.12-.15,.31-.24,.5-.25,4.28-.07,8.36-.63,12.31-1.18,2.31-.32,4.77-.66,7.23-.89,.19-.02,.37,.04,.51,.17,.14,.12,.22,.3,.22,.48l.02,1.43c.05,5.04,.1,10.24,1.37,14.71,.05,.17,.03,.36-.06,.51-.09,.16-.24,.27-.41,.31-6.02,1.5-12.49,1.74-18.61,1.85h-.01Zm-1.74-16.09l.34,1.74c.83,4.1,1.68,8.34,2.02,13.01,5.63-.11,11.53-.36,17.02-1.64-1.14-4.47-1.19-9.51-1.24-14.38v-.7c-2.2,.22-4.39,.52-6.46,.81-3.75,.52-7.61,1.05-11.68,1.17Z"/></g><g><path class="cls-3" d="M128.84,186.64c-.14,.12-.31,.2-.51,.22-.03,0-.06,0-.09,0-.05,0-.1,0-.15-.01-.05,0-.11,.01-.15,.01-.4,0-.77-.25-.89-.65-.1-.32-.01-.66,.2-.89-.46-4.25-1.17-8.38-1.91-12.74-.35-2.03-.7-4.08-1.02-6.15-.4-.1-.69-.45-.7-.88-.01-.51,.39-.94,.91-.95,2.8-.06,5.65-.47,8.66-.9,4-.58,8.14-1.18,12.42-.96,.09,0,.18,.01,.26,.04,.09-.04,.2-.09,.31-.09,.51,0,.93,.45,.93,.96,0,3.95,.54,7.45,1.13,11.13,.36,2.24,.71,4.55,.94,6.97,.2,.14,.34,.34,.39,.6,.08,.39-.11,.77-.43,.97-.15,.25-.41,.42-.72,.45-.02,0-.05,0-.07,0-.18,0-.36-.06-.5-.16-2.42,.43-4.91,.73-7.32,1.02-3.91,.46-7.95,.94-11.66,2Zm18.46-4.81c-.22-2.33-.57-4.58-.91-6.76-.53-3.31-1.06-6.74-1.14-10.47-4.01-.17-7.98,.39-11.82,.94-2.5,.36-4.89,.7-7.26,.85,.31,1.98,.64,3.94,.98,5.88,.73,4.23,1.42,8.24,1.88,12.39,3.65-.97,7.51-1.43,11.26-1.87,2.32-.27,4.71-.56,7.01-.96Z"/><path class="cls-3" d="M128.24,187.52s-.1,0-.15,0c-.82,.08-1.46-.4-1.68-1.11-.13-.42-.08-.88,.15-1.26-.45-4.09-1.13-8.08-1.85-12.3l-.03-.15c-.33-1.92-.66-3.85-.97-5.8-.45-.28-.75-.77-.77-1.32-.02-.88,.68-1.61,1.56-1.63,2.73-.05,5.52-.46,8.47-.88l.25-.04c3.98-.57,8.13-1.17,12.41-.94,.06,0,.11,0,.17,.01,.11-.04,.23-.06,.36-.06,.88,0,1.59,.73,1.59,1.63,0,3.94,.57,7.54,1.12,11.03,.34,2.14,.69,4.41,.92,6.75,.21,.22,.35,.49,.4,.8,.12,.59-.12,1.21-.6,1.57-.28,.37-.7,.6-1.15,.63-.3,0-.52-.04-.72-.12-2.41,.42-4.92,.72-7.14,.99-3.63,.42-7.74,.9-11.44,1.95-.22,.16-.48,.25-.75,.28-.02,0-.14,0-.16,0Zm-.15-1.34s.08,0,.11,0h.05v.67l.03-.66c.05,0,.1-.02,.14-.06,.07-.06,.16-.11,.25-.14,3.83-1.1,8.05-1.59,11.77-2.02,2.27-.27,4.85-.57,7.28-1.01,.17-.03,.34,0,.49,.1,.04,.03,.09,.04,.13,.04,.11,0,.18-.06,.23-.13,.05-.09,.13-.17,.22-.22,.08-.05,.14-.15,.12-.27-.02-.1-.07-.15-.11-.18-.16-.11-.27-.29-.28-.48-.23-2.4-.59-4.74-.93-6.93-.56-3.53-1.14-7.19-1.14-11.23,0-.16-.13-.3-.26-.3-.15,.06-.39,.11-.54,.05-.68-.03-1.29-.05-1.9-.05-3.52,0-6.97,.5-10.32,.98l-.13,.02c-3.1,.45-5.93,.85-8.74,.91-.14,0-.26,.13-.26,.27,0,.11,.09,.22,.2,.25,.26,.07,.45,.28,.49,.54,.33,2.07,.68,4.11,1.02,6.14l.03,.15c.74,4.32,1.44,8.4,1.89,12.63,.02,.19-.04,.38-.17,.52-.05,.05-.09,.15-.06,.24,.04,.14,.16,.19,.26,.19,.04,0,.1,0,.15,0Zm.95-.86c-.13,0-.26-.04-.37-.12-.16-.11-.26-.28-.29-.47-.46-4.16-1.15-8.14-1.87-12.35-.33-1.94-.66-3.9-.98-5.89-.03-.19,.02-.37,.14-.52s.29-.24,.48-.25c2.32-.15,4.66-.48,7.13-.83,3.72-.54,7.87-1.14,12.01-.96,.35,.02,.63,.3,.64,.65,.08,3.75,.63,7.28,1.13,10.38,.3,1.94,.68,4.36,.92,6.8,.03,.35-.21,.66-.55,.72-2.32,.4-4.75,.7-7.05,.96-3.73,.44-7.57,.89-11.16,1.85-.06,.01-.11,.02-.17,.02Zm-2.08-18.32c.28,1.73,.57,3.45,.86,5.15,.68,3.98,1.33,7.75,1.8,11.67,3.46-.85,7.08-1.28,10.59-1.69,2.09-.24,4.28-.51,6.38-.85-.23-2.19-.57-4.34-.85-6.1-.47-2.98-1-6.33-1.13-9.93-3.82-.08-7.68,.47-11.07,.96-2.31,.33-4.45,.64-6.58,.8Z"/></g><g><path class="cls-3" d="M113.71,186.47c.05,.51-.33,.96-.84,1.01-2.4,.21-4.9,.34-7.54,.46-4.31,.21-8.77,.42-12.79,1.07-.05,.01-.1,.01-.15,.01-.06,0-.11,0-.17-.01-.05,0-.1,.01-.14,.01-.43,0-.81-.3-.91-.74-1.64-7.8-2.21-13.95-1.88-19.9-.17-.16-.29-.38-.3-.63-.03-.51,.36-.95,.87-.99,2.25-.14,4.45-.39,6.57-.63,4.31-.48,8.76-.98,13.64-.61,.09,0,.16,.03,.24,.06,.08-.03,.17-.05,.26-.06,.51-.05,.95,.37,.97,.88,.15,3.3,.62,6.44,1.07,9.49,.49,3.3,1,6.72,1.09,10.31,0,.07,0,.13-.02,.19,0,.02,0,.04,0,.06Zm-1.87-.77c-.12-3.26-.57-6.31-1.05-9.52-.42-2.82-.85-5.73-1.04-8.8-4.64-.33-8.75,.12-13.1,.61-1.78,.2-3.62,.4-5.5,.55-.31,5.56,.21,11.33,1.68,18.56,3.96-.6,8.25-.81,12.41-1.01,2.31-.11,4.5-.22,6.6-.38Z"/><path class="cls-3" d="M92.39,189.69s-.11,0-.17,0c-.85,.09-1.53-.48-1.69-1.25-1.62-7.75-2.21-13.87-1.91-19.81-.17-.24-.27-.52-.29-.82-.03-.41,.11-.82,.39-1.14,.28-.32,.67-.51,1.1-.54,2.24-.14,4.43-.39,6.54-.62,3.25-.36,6.62-.74,10.22-.74,1.22,0,2.38,.04,3.54,.13,.07,0,.13,.02,.19,.03,.07-.02,.15-.03,.24-.03h.01c.93,0,1.62,.68,1.65,1.52,.15,3.27,.62,6.39,1.06,9.41,.5,3.4,1.01,6.8,1.1,10.39,0,.08,0,.15-.01,.21,0,.02,0,.05,0,.06,.04,.36-.09,.78-.36,1.1-.27,.33-.66,.53-1.08,.57-2.37,.21-4.83,.33-7.57,.46-4.29,.21-8.73,.42-12.71,1.07-.08,.02-.19,.02-.26,.02Zm0-1.33v.66l.02-.67c4.08-.66,8.56-.88,12.89-1.09,2.73-.13,5.18-.25,7.52-.46,.1,0,.15-.06,.18-.09,.03-.04,.07-.1,.06-.19,0-.06-.01-.17,0-.23-.09-3.58-.58-6.94-1.06-10.19-.47-3.16-.94-6.32-1.09-9.66,0-.15-.12-.25-.22-.25-.15,.05-.44,.07-.59,.02-4.7-.4-9.27,.11-13.57,.59-2.13,.24-4.33,.49-6.61,.63-.1,0-.16,.06-.18,.09-.03,.03-.07,.09-.06,.19,0,.1,.05,.15,.08,.18,.15,.13,.23,.33,.22,.53-.33,5.9,.24,11.98,1.87,19.73,.03,.12,.13,.21,.26,.21,.08-.01,.21-.02,.29,0h.02Zm.43-.6c-.31,0-.59-.22-.65-.53-1.49-7.31-2.01-13.08-1.69-18.73,.02-.33,.28-.6,.61-.62,1.85-.14,3.64-.34,5.48-.54,3.19-.36,6.49-.73,9.93-.73,1.13,0,2.21,.04,3.29,.12,.33,.02,.59,.29,.62,.62,.19,3.05,.62,5.95,1.03,8.74,.46,3.07,.93,6.25,1.06,9.59,.01,.36-.26,.66-.61,.69-2.16,.17-4.45,.28-6.62,.39-3.92,.19-8.37,.4-12.34,1-.03,0-.07,0-.1,0Zm-1.04-18.61c-.24,5.19,.25,10.54,1.57,17.2,3.88-.54,8.1-.75,11.85-.93,1.94-.09,3.99-.19,5.94-.34-.16-3.04-.59-5.97-1.02-8.81-.39-2.65-.8-5.38-1-8.27-.86-.05-1.72-.07-2.62-.07-3.37,0-6.63,.37-9.79,.72-1.65,.19-3.28,.36-4.94,.5Z"/></g><g><path class="cls-3" d="M109.39,121.92c.02,.51-.37,.95-.88,.97-3.82,.17-7.5,.49-11.06,.79-3.32,.28-6.74,.58-10.26,.75h-.05c-.05,0-.11,0-.16-.01-.02,0-.04,0-.05,.01-.04,0-.06,0-.1,0-.47,0-.87-.35-.92-.83-.24-2.25-.6-4.44-.94-6.56-.53-3.25-1.08-6.62-1.2-10.27-.36-.12-.63-.44-.64-.85-.02-.51,.38-.94,.9-.96,3.27-.11,6.47-.52,9.56-.92,4.07-.52,8.26-1.05,12.74-.93,.33,.01,.61,.19,.76,.45,.27,.17,.45,.47,.44,.81-.15,4.68,.48,8.93,1.13,13.42,.14,.93,.28,1.86,.4,2.8,.03,.2-.01,.4-.1,.57,.24,.16,.41,.44,.42,.75Zm-2.08-.82c-.03-.08-.06-.16-.07-.24-.13-.94-.27-1.86-.4-2.78-.64-4.38-1.24-8.52-1.16-13.11-4.11-.07-8.05,.44-11.86,.93-2.65,.34-5.38,.69-8.2,.86,.12,3.51,.63,6.67,1.18,10,.31,1.87,.62,3.81,.86,5.81,3.29-.18,6.52-.45,9.64-.72,3.23-.28,6.57-.55,10.02-.74Z"/><path class="cls-3" d="M87.19,125.09h-.05s-.09,0-.14,0c-.01,0-.03,0-.04,0h-.14c-.82,0-1.5-.61-1.58-1.42-.23-2.23-.59-4.4-.94-6.51-.49-3-1.05-6.37-1.19-9.99-.39-.28-.64-.73-.66-1.23-.03-.88,.66-1.61,1.54-1.65,3.24-.1,6.41-.52,9.48-.91,4.1-.52,8.33-1.06,12.87-.94,.49,.02,.94,.25,1.23,.64,.4,.3,.64,.79,.63,1.3-.14,4.61,.47,8.81,1.12,13.26l.11,.74c.1,.7,.21,1.41,.3,2.12,.02,.16,.02,.31,0,.47,.2,.26,.31,.58,.33,.91,.02,.43-.13,.83-.41,1.15-.29,.31-.68,.5-1.1,.52-3.7,.17-7.27,.47-10.73,.76l-.3,.02c-3.36,.29-6.78,.58-10.29,.75h-.03Zm-.22-1.34s.08,0,.11,0l.11,.67-.03-.66c3.49-.17,6.89-.47,10.18-.75l.36-.03c3.47-.29,7.06-.6,10.79-.77,.12,0,.25-.15,.25-.28,0-.09-.06-.18-.13-.23-.28-.19-.37-.56-.21-.87,.02-.04,.04-.09,.03-.15-.1-.71-.2-1.42-.3-2.11l-.1-.69c-.67-4.56-1.29-8.82-1.14-13.54,0-.11-.06-.19-.12-.22-.09-.06-.17-.14-.23-.23-.05-.08-.12-.12-.22-.13-4.39-.11-8.61,.42-12.64,.93-3.12,.4-6.33,.82-9.63,.93-.14,0-.26,.13-.25,.27,0,.13,.1,.21,.19,.24,.27,.09,.45,.33,.46,.61,.12,3.67,.69,7.13,1.19,10.19,.35,2.14,.71,4.33,.95,6.6,.01,.13,.13,.23,.26,.23,.05-.01,.09-.02,.14-.02Zm.68-.54c-.33,0-.62-.25-.66-.59-.23-1.99-.55-3.94-.85-5.77-.52-3.2-1.06-6.5-1.18-10.09-.01-.36,.26-.66,.62-.68,2.86-.17,5.67-.53,8.15-.86,3.61-.46,7.32-.94,11.2-.94h.76c.18,0,.34,.08,.47,.21,.12,.13,.19,.3,.19,.47-.08,4.6,.55,8.87,1.15,13.01l.07,.5c.11,.76,.22,1.52,.33,2.29,.09,.2,.09,.46-.03,.65-.11,.19-.3,.34-.52,.35-3.33,.17-6.5,.43-10,.73-3.4,.29-6.48,.55-9.66,.72-.01,0-.02,0-.04,0Zm-1.34-15.85c.15,3.24,.63,6.18,1.14,9.27,.27,1.66,.56,3.41,.78,5.21,2.95-.17,5.83-.41,9-.68,3.25-.28,6.21-.52,9.28-.7-.09-.6-.17-1.21-.26-1.81l-.07-.5c-.58-3.99-1.19-8.1-1.17-12.55h-.08c-3.79,0-7.46,.47-11,.92-2.34,.3-4.94,.64-7.62,.83Z"/></g><g><path class="cls-3" d="M110.63,153.81c0,.51-.41,.96-.92,.96h-.01s-.08-.03-.12-.04c-.08,.01-.16,0-.25-.01-3.45-.22-6.71,.3-10.15,.87-2.78,.45-5.65,.92-8.7,.97-.1,.3-.35,.54-.69,.61-.06,.02-.13,.02-.18,.02-.43,0-.82-.31-.91-.74-1.37-6.84-2.13-13.84-2.18-20.27,0-.11,.02-.22,.06-.31-.04-.1-.06-.2-.06-.32,0-.51,.42-.92,.93-.92,.16,0,.28,0,.42,0,4.61,0,8.99-.63,13.23-1.24,2.16-.31,4.4-.63,6.62-.86,.17-.24,.45-.39,.78-.38,.51,.02,.91,.45,.89,.96,0,.06,0,.12,0,.18h0c0,.08,0,.15,0,.22-.11,3.78,.23,7.24,.6,10.88,.3,3,.62,6.13,.64,9.42Zm-1.87-.97c-.07-2.86-.35-5.61-.62-8.27-.33-3.25-.66-6.59-.63-10.14-2.03,.22-4.04,.5-6.15,.81-4.15,.59-8.43,1.2-12.98,1.24,.07,5.79,.72,12.06,1.88,18.24,2.98-.04,5.84-.5,8.62-.96,3.18-.52,6.46-1.05,9.88-.92Z"/><path class="cls-3" d="M89.61,157.86c-.75,0-1.41-.53-1.56-1.27-1.38-6.88-2.14-13.93-2.19-20.39,0-.1,0-.21,.03-.32-.02-.11-.03-.23-.03-.35,0-.84,.72-1.55,1.59-1.55h.42c4.55,0,8.89-.62,13.09-1.22,2.08-.3,4.26-.61,6.44-.84,.29-.26,.67-.41,1.08-.41,.47,.02,.86,.2,1.15,.51,.29,.31,.44,.72,.42,1.14v.19s0,.15,0,.25c-.11,3.75,.25,7.3,.6,10.75,.3,3.03,.62,6.15,.64,9.48,0,.42-.16,.85-.47,1.16-.3,.31-.7,.47-1.11,.47-.06,0-.15-.02-.23-.04-.05,0-.11,0-.17-.02-.57-.04-1.1-.06-1.63-.06-2.85,0-5.67,.46-8.39,.91-2.68,.44-5.44,.88-8.41,.97-.23,.31-.57,.53-.95,.61-.1,.03-.22,.03-.32,.03Zm-2.18-22.56c-.12,0-.24,.12-.24,.26,.06,.16,.07,.41,0,.57,.04,6.43,.79,13.4,2.16,20.2,.02,.12,.13,.21,.26,.21v.66l.03-.66c.11-.02,.18-.09,.21-.18,.09-.26,.34-.45,.62-.45,3.02-.06,5.86-.52,8.6-.96,3.3-.54,6.72-1.11,10.3-.88l.16,.02c.08-.01,.09,0,.17,0,.03,0,.05,.01,.07,.02,.05-.02,.08-.04,.1-.06,.06-.06,.09-.13,.09-.21-.03-3.27-.34-6.37-.64-9.36-.35-3.48-.72-7.08-.61-10.96,0-.02,0-.17,0-.19v-.19c0-.15-.12-.29-.25-.3-.13,0-.19,.07-.22,.11-.11,.15-.28,.25-.47,.27-2.24,.23-4.48,.55-6.59,.85-4.29,.61-8.68,1.24-13.32,1.24-.15,0-.27,0-.44,0Zm2.83,20.09c-.32,0-.59-.23-.65-.54-1.17-6.23-1.82-12.57-1.89-18.35,0-.18,.07-.35,.19-.47,.12-.13,.29-.2,.47-.2,4.51-.04,8.77-.65,12.89-1.24,1.97-.28,4.07-.58,6.17-.81,.19-.02,.38,.04,.52,.17,.14,.13,.22,.31,.22,.5-.03,3.51,.3,6.84,.63,10.07,.26,2.53,.55,5.4,.62,8.32,0,.18-.07,.36-.2,.49-.13,.13-.3,.21-.49,.19-3.4-.13-6.78,.42-9.74,.91-2.64,.43-5.62,.93-8.71,.97h0Zm-1.21-18.25c.11,5.35,.71,11.17,1.76,16.91,2.79-.09,5.53-.54,7.96-.94,2.82-.46,6.02-.98,9.3-.94-.1-2.64-.36-5.22-.59-7.52-.3-3.03-.62-6.16-.63-9.47-1.84,.21-3.66,.47-5.39,.72-3.96,.57-8.05,1.15-12.4,1.24Z"/></g><g><path class="cls-3" d="M81.86,94.71c-.08,.02-.16,.04-.24,.04-.01,0-.03,0-.05,0-.05,0-.08,0-.12-.01-.03,0-.06,0-.1,0-.03,0-.06,0-.09,0-.47,0-.88-.36-.92-.84-.03-.28,.08-.55,.27-.74-.23-4.23-.63-8.63-1.07-13.25-.65-6.94-1.33-14.14-1.37-21.07,0-.51,.41-.98,.92-.98h0c.25,0,.47,.15,.64,.31,17.77-2.43,36.24-3.7,54.1-4.97,6.38-.46,12.75-.91,19.09-1.41,1.58-.13,3.17-.27,4.76-.41,4.09-.37,8.31-.75,12.51-.81,.14-.16,.34-.28,.57-.31,.51-.08,.98,.28,1.05,.78,1.57,10.88,2.23,21.6,2.92,32.95l.11,1.83c.4,.1,.69,.46,.69,.89,0,.49-.37,.88-.85,.92-.16,.18-.38,.3-.64,.32h-.06c-.26,0-.49-.11-.66-.28-3.52,.13-6.96,.67-10.3,1.19-2.43,.38-4.94,.78-7.48,1.01-12.29,1.13-24.54,1.76-36.4,2.37-12.15,.62-24.71,1.27-37.28,2.46Zm91.12-8.88l-.1-1.72c-.67-10.92-1.3-21.26-2.75-31.69-4.1,.07-8.25,.44-12.27,.8-1.6,.15-3.19,.29-4.78,.42-6.35,.5-12.72,.95-19.1,1.41-17.81,1.27-36.22,2.58-53.92,5,.11,6.49,.73,13.2,1.34,19.72,.43,4.54,.83,8.84,1.06,13.02,12.35-1.15,24.67-1.79,36.6-2.4,11.83-.61,24.07-1.23,36.32-2.36,2.47-.23,4.96-.62,7.36-.99,3.31-.52,6.71-1.05,10.25-1.2Z"/><path class="cls-3" d="M81.58,95.43s-.14,0-.17-.01c-.01,0-.13,.01-.14,.01-.83,0-1.51-.62-1.59-1.44-.03-.36,.06-.71,.25-1.01-.23-4.25-.65-8.69-1.05-12.98-.65-6.94-1.33-14.12-1.37-21.13,0-1.2,1.35-2.11,2.42-1.38,17-2.32,34.64-3.57,51.71-4.78l2.15-.15c6.37-.46,12.74-.91,19.08-1.41,1.58-.13,3.16-.27,4.75-.41,4-.36,8.13-.73,12.31-.81,.22-.17,.47-.27,.74-.31,.06-.01,.15-.02,.23-.02,.78,0,1.45,.59,1.56,1.37,1.57,10.88,2.22,21.58,2.92,32.9l.09,1.54c.44,.29,.71,.78,.71,1.32,0,.73-.5,1.36-1.2,1.54-.26,.22-.58,.34-.92,.36h0c-.39,0-.71-.09-.97-.27-3.36,.14-6.68,.66-9.88,1.15-2.4,.38-5.01,.79-7.61,1.03-12.27,1.13-24.5,1.76-36.33,2.37-11.59,.59-24.63,1.26-37.34,2.46,.01,0-.12,.04-.27,.05-.03,0-.06,0-.08,0Zm-.12-1.34h.12v.01s.19-.04,.22-.05c12.74-1.21,25.79-1.88,37.31-2.46,11.91-.61,24.13-1.24,36.37-2.37,2.56-.24,5.15-.65,7.44-1.01,3.42-.53,6.85-1.07,10.38-1.19,.19-.03,.37,.07,.5,.2,.04,.04,.1,.08,.19,.08,.09,0,.15-.03,.2-.09,.11-.13,.27-.21,.44-.22,.14-.01,.24-.12,.24-.26,0-.14-.1-.22-.19-.25-.28-.07-.48-.32-.49-.6l-.11-1.83c-.7-11.4-1.35-22.07-2.91-32.9-.02-.13-.12-.23-.25-.23-.12,.01-.17,.04-.21,.09-.12,.14-.3,.22-.49,.23-4.21,.06-8.41,.44-12.46,.81-1.59,.15-3.18,.29-4.76,.42-6.34,.5-12.71,.96-19.09,1.41l-2.15,.15c-17.14,1.22-34.87,2.48-51.91,4.81-.2,.03-.4-.04-.54-.17-.13-.12-.19-.13-.19-.13-.13,0-.26,.16-.26,.32,.04,6.94,.71,14.09,1.37,21.01,.41,4.39,.83,8.92,1.07,13.28,0,.18-.06,.36-.18,.5-.03,.03-.1,.11-.09,.22,.01,.13,.13,.24,.26,.24h.19Zm1-.64c-.16,0-.31-.06-.43-.16-.14-.12-.22-.29-.23-.47-.24-4.22-.66-8.68-1.06-12.99-.58-6.17-1.23-13.17-1.34-19.77,0-.34,.24-.62,.57-.67,17.7-2.42,36.11-3.73,53.9-5l1.14-.08c6.02-.43,12.03-.86,18.02-1.33,1.59-.13,3.18-.27,4.77-.42,4.01-.36,8.16-.74,12.32-.81h.01c.33,0,.61,.24,.66,.57,1.46,10.52,2.09,20.82,2.76,31.74l.1,1.72c.01,.18-.05,.35-.17,.49-.12,.13-.29,.21-.47,.22-3.54,.15-7.06,.7-10.17,1.19-2.28,.36-4.87,.77-7.4,1-12.25,1.13-24.48,1.76-36.31,2.36-11.94,.62-24.25,1.25-36.62,2.4-.02,0-.04,0-.06,0Zm-1.72-32.82c.13,6.38,.77,13.11,1.32,19.07,.38,4.09,.78,8.31,1.02,12.35,12.16-1.11,24.25-1.74,35.94-2.34,11.86-.61,24.08-1.23,36.3-2.36,2.49-.23,5.06-.63,7.32-.99,2.95-.46,6.26-.99,9.65-1.17l-.06-1.05c-.65-10.68-1.27-20.79-2.67-31.05-3.91,.09-7.83,.45-11.63,.79-1.6,.15-3.2,.29-4.79,.42-5.99,.47-12.01,.9-18.03,1.33l-1.08,.08c-17.64,1.26-35.81,2.56-53.29,4.92Z"/></g></g></svg>